<?xml version="1.0" encoding="UTF-8"?>
<svg width="24px" height="24px" viewBox="0 0 24 24" version="1.1" xmlns="http://www.w3.org/2000/svg" xmlns:xlink="http://www.w3.org/1999/xlink">
    <title>user</title>
    <defs>
        <linearGradient x1="127.353764%" y1="50%" x2="7.71167851%" y2="50%" id="linearGradient-1">
            <stop stop-color="#EDFB8B" offset="0%"></stop>
            <stop stop-color="#6EDC85" offset="100%"></stop>
        </linearGradient>
        <path d="M20.4852905,3.51470948 C18.218811,1.24822997 15.2052612,0 12,0 C8.79455569,0 5.78118895,1.24822997 3.51470948,3.51470948 C1.24822997,5.78118895 0,8.79455569 0,12 C0,15.2052612 1.24822997,18.218811 3.51470948,20.4852905 C5.78118895,22.75177 8.79455569,24 12,24 C15.2052612,24 18.218811,22.75177 20.4852905,20.4852905 C22.75177,18.218811 24,15.2052612 24,12 C24,8.79455569 22.75177,5.78118895 20.4852905,3.51470948 Z" id="path-2"></path>
    </defs>
    <g id="Page-1" stroke="none" stroke-width="1" fill="none" fill-rule="evenodd">
        <g id="23:-Account-Page" transform="translate(-295.000000, -772.000000)" fill-rule="nonzero">
            <g id="user" transform="translate(295.000000, 772.000000)">
                <g id="Path">
                    <use fill="#377476" xlink:href="#path-2"></use>
                    <use fill="#2CB77C" xlink:href="#path-2"></use>
                    <use fill="url(#linearGradient-1)" xlink:href="#path-2"></use>
                </g>
                <path d="M17.0183716,16.2416382 C16.3720093,15.6567993 15.6362915,15.1951904 14.8452759,14.8701782 C16.2749634,13.9376221 17.2219849,12.3242798 17.2219849,10.4937744 C17.2219849,7.61444091 14.8793335,5.27197266 12,5.27197266 C9.12066652,5.27197266 6.77819822,7.61444091 6.77819822,10.4937744 C6.77819822,12.3242798 7.72503661,13.9376221 9.15472411,14.8701782 C8.36370848,15.1951904 7.62799073,15.6567993 6.98162841,16.2416382 C5.92803956,17.1948853 5.17602539,18.4152832 4.79718019,19.7605591 C6.68884275,21.517456 9.22082522,22.59375 12,22.59375 C14.7791748,22.59375 17.3111572,21.517456 19.2028198,19.7605591 C18.8239746,18.4152832 18.0719604,17.1948853 17.0183716,16.2416382 Z" id="Path" fill="#FFFFFF"></path>
            </g>
        </g>
    </g>
</svg>