<?xml version="1.0" encoding="UTF-8"?>
<svg width="24px" height="24.0024015px" viewBox="0 0 24 24.0024015" version="1.1" xmlns="http://www.w3.org/2000/svg" xmlns:xlink="http://www.w3.org/1999/xlink">
    <title>home</title>
    <defs>
        <linearGradient x1="127.353764%" y1="50%" x2="7.71167851%" y2="50%" id="linearGradient-1">
            <stop stop-color="#EDFB8B" offset="0%"></stop>
            <stop stop-color="#6EDC85" offset="100%"></stop>
        </linearGradient>
        <path d="M23.3535957,10.4382392 L13.5625161,0.647525723 C13.1451769,0.230003481 12.5903118,0 12.0001038,0 C11.4098959,0 10.8550308,0.229820369 10.4375086,0.647342611 L0.651556345,10.4331117 C0.648260094,10.436408 0.64478073,10.4398873 0.641667637,10.4431835 C-0.215351703,11.3051472 -0.213886712,12.7036636 0.646062608,13.5634298 C1.03868002,13.9564134 1.55728659,14.1840363 2.11196854,14.2078424 C2.13449278,14.2100399 2.15738324,14.2111386 2.1802737,14.2111386 L2.5703274,14.2111386 L2.5703274,21.4165104 C2.5703274,22.8423123 3.73059974,24.0024015 5.1565847,24.0024015 L8.98716813,24.0024015 C9.37557373,24.0024015 9.69036349,23.6876117 9.69036349,23.2992061 L9.69036349,17.6502034 C9.69036349,16.9995646 10.2197744,16.4703368 10.8704132,16.4703368 L13.1297945,16.4703368 C13.7804334,16.4703368 14.3096611,16.9995646 14.3096611,17.6502034 L14.3096611,23.2992061 C14.3096611,23.6876117 14.6246341,24.0024015 15.0128565,24.0024015 L18.8434399,24.0024015 C20.269608,24.0024015 21.4296972,22.8423123 21.4296972,21.4165104 L21.4296972,14.2111386 L21.7915498,14.2111386 C22.3815747,14.2111386 22.9364398,13.9813183 23.3541451,13.563796 C24.2148269,12.7025649 24.2153763,11.3016679 23.3552439,10.4398873 C23.3546945,10.4393379 23.3541451,10.4387886 23.3535957,10.4382392 Z" id="path-2"></path>
    </defs>
    <g id="Page-1" stroke="none" stroke-width="1" fill="none" fill-rule="evenodd">
        <g id="17:-Home-with-KYC" transform="translate(-41.000000, -2043.000000)" fill-rule="nonzero">
            <g id="Path" transform="translate(41.000000, 2043.000000)">
                <use fill="#47BEC2" xlink:href="#path-2"></use>
                <use fill="url(#linearGradient-1)" xlink:href="#path-2"></use>
            </g>
        </g>
    </g>
</svg>