<?xml version="1.0" encoding="UTF-8"?>
<svg width="24px" height="24px" viewBox="0 0 24 24" version="1.1" xmlns="http://www.w3.org/2000/svg" xmlns:xlink="http://www.w3.org/1999/xlink">
    <title>Group 13</title>
    <g id="Page-1" stroke="none" stroke-width="1" fill="none" fill-rule="evenodd">
        <g id="17:-Home-with-KYC" transform="translate(-168.000000, -2043.000000)" fill-rule="nonzero">
            <g id="Group-13" transform="translate(168.000000, 2043.000000)">
                <g id="add" fill="#377476">
                    <path d="M20.4852905,3.51470948 C18.218811,1.24822997 15.2054443,0 12,0 C8.79473878,0 5.78118895,1.24822997 3.51470948,3.51470948 C1.24822997,5.78118895 0,8.79455569 0,12 C0,15.2052612 1.24822997,18.218811 3.51470948,20.4852905 C5.78118895,22.75177 8.79473878,24 12,24 C15.2054443,24 18.218811,22.75177 20.4852905,20.4852905 C22.75177,18.218811 24,15.2052612 24,12 C24,8.79455569 22.75177,5.78118895 20.4852905,3.51470948 Z" id="Path"></path>
                </g>
                <g id="₹" transform="translate(6.828000, 4.988000)" fill="#E7F0EF">
                    <path d="M10.64,0 L0,0 L0,2.47542857 L3.32228571,2.47542857 C4.408,2.47542857 5.18971429,2.95314286 5.49371429,3.8 L0,3.8 L0,5.51542857 L5.472,5.51542857 C5.168,6.34057143 4.38628571,6.86171429 3.32228571,6.86171429 L0,6.86171429 L0,9.33714286 L2.32342857,9.33714286 L5.168,14.4834286 L8.72914286,14.4834286 L5.45028571,8.968 C6.84,8.64228571 8.29485714,7.51314286 8.57714286,5.51542857 L10.64,5.51542857 L10.64,3.8 L8.53371429,3.8 C8.33828571,2.95314286 7.88228571,2.23657143 7.20914286,1.69371429 L10.64,1.69371429 L10.64,0 Z" id="Path"></path>
                </g>
            </g>
        </g>
    </g>
</svg>