<?xml version="1.0" encoding="UTF-8"?>
<svg width="300px" height="300px" viewBox="0 0 500 500" version="1.1" xmlns="http://www.w3.org/2000/svg" xmlns:xlink="http://www.w3.org/1999/xlink">
    <title>congratulations</title>
    <defs>
        <polygon id="path-1" points="0 0 47 0 47 77 0 77"></polygon>
        <polygon id="path-3" points="0 0 47 0 47 77 0 77"></polygon>
    </defs>
    <g id="congratulations" stroke="none" stroke-width="1" fill="none" fill-rule="evenodd">
        <g id="6099983">
            <path d="M467.140591,60.349641 L468,64.7222375 L459.373097,111.587078 C453.184945,116.145041 445.396941,117.93486 437.850965,116.534311 L389.036975,107.473995 C389.036975,107.473995 381.277685,105.733607 383.439539,95.61876 C383.439539,95.61876 383.823094,90.2822565 388.376522,89.9259403 C388.376522,89.9259403 378.914826,86.0661921 379.962934,78.7483236 C381.008992,71.4325147 386.378757,71.5272577 386.378757,71.5272577 C386.378757,71.5272577 377.515979,69.2802005 378.434868,61.0396174 C379.35376,52.7969748 384.143065,52.7846168 384.143065,52.7846168 C384.143065,52.7846168 373.834265,50.2698075 376.414541,41.1332851 C378.992766,31.9988222 387.855545,34.2438199 387.855545,34.2438199 L422.576468,40.6801664 L453.010603,46.3297337 C460.138155,47.6520169 465.737643,53.2089009 467.140591,60.349641" id="Fill-2" fill="#E4E4DE" fill-rule="nonzero"></path>
            <path d="M459,49 C459,49 448.381656,39.3473524 444.645987,28.8493816 C441.934878,21.2271466 442.122273,12.6367814 442.122273,12.6367814 C442.197638,12.2233305 442.820928,8.55344133 443.330152,5.55285153 C443.745679,3.0926135 442.152826,0.765416629 439.728918,0.229158436 C434.626492,-0.900668021 425.651925,2.04261175 422.950999,11.3964285 C418.919981,25.3514226 422.366411,34.862842 422.482513,39.1119719 C422.598617,43.3611017 422.598617,43.3611017 422.598617,43.3611017 L459,49" id="Fill-3" fill="#E4E4DE" fill-rule="nonzero"></path>
            <polyline id="Fill-4" fill="#E4E4DE" fill-rule="nonzero" points="453 119.580199 487.167804 126 500 55.4218912 465.832196 49 453 119.580199"></polyline>
            <g id="Group-8" transform="translate(453.000000, 49.000000)">
                <g id="Fill-5-Clipped">
                    <mask id="mask-2" fill="white">
                        <use xlink:href="#path-1"></use>
                    </mask>
                    <g id="path-1"></g>
                    <path d="M0.00142753507,70.5802049 C-0.0725665437,70.5655616 2.73920845,54.7522069 6.28270267,35.2671112 C9.82619689,15.7736564 12.75924,-0.0125312074 12.833234,-7.45536955e-06 C12.9072281,0.0146359145 10.0933977,15.8238111 6.54990352,35.3172658 C3.00846469,54.8044514 0.075421614,70.5927287 0.00142753507,70.5802049" id="Fill-5" fill="#D4D5CF" fill-rule="nonzero" mask="url(#mask-2)"></path>
                </g>
                <g id="Fill-7-Clipped">
                    <mask id="mask-4" fill="white">
                        <use xlink:href="#path-3"></use>
                    </mask>
                    <g id="path-1"></g>
                    <path d="M34.1681935,77.0000101 C34.0941994,76.9874513 36.9059744,61.1740965 40.4494687,41.6869111 C43.9929629,22.1934562 46.9260059,6.40726867 47,6.4218768 C47.0739941,6.43443578 44.2601637,22.2436109 40.7166695,41.7370657 C37.1752306,61.2242513 34.2421876,77.0146183 34.1681935,77.0000101" id="Fill-7" fill="#D4D5CF" fill-rule="nonzero" mask="url(#mask-4)"></path>
                </g>
            </g>
            <path d="M474.109637,67.319364 C473.456294,70.8490402 475.790248,74.2390085 479.31789,74.8902933 C482.847584,75.5436327 486.237571,73.2117453 486.890915,69.6820693 C487.542201,66.152393 485.210302,62.7624247 481.680607,62.1090853 C478.150913,61.4578005 474.760926,63.7896878 474.109637,67.319364" id="Fill-9" fill="#FFFFFE" fill-rule="nonzero"></path>
            <path d="M415,41.0038428 C415.012685,40.9558992 418.83056,41.3620885 423.52415,41.9134405 C428.219842,42.4634608 432.014615,42.9482244 432,42.9961681 C431.987315,43.0441117 428.16944,42.6365907 423.47375,42.0865704 C418.780158,41.5365501 414.985384,41.0517865 415,41.0038428" id="Fill-10" fill="#D4D5CF" fill-rule="nonzero"></path>
            <path d="M387,73.0092814 C387.015013,72.9346666 389.489164,73.3181037 392.524462,73.8652788 C395.561885,74.4124539 398.012655,74.9161037 398,74.9907186 C397.985024,75.0653334 395.510872,74.6818963 392.473449,74.134721 C389.436026,73.587546 386.985256,73.0838961 387,73.0092814" id="Fill-11" fill="#D4D5CF" fill-rule="nonzero"></path>
            <path d="M385,54.0046434 C385.012346,53.9518705 388.382404,54.3549972 392.52451,54.9047156 C396.666616,55.4544339 400.014206,55.9425838 400,55.9953566 C399.985613,56.0481296 396.617598,55.6450029 392.47549,55.0952845 C388.333384,54.5455662 384.985794,54.0574163 385,54.0046434" id="Fill-12" fill="#D4D5CF" fill-rule="nonzero"></path>
            <path d="M387,90.0046434 C387.014364,89.9518704 390.383967,90.3549973 394.525516,90.9047156 C398.667065,91.4544338 402.014205,91.9425836 402,91.9953566 C401.985615,92.0481296 398.618053,91.6450029 394.476503,91.0952845 C390.334954,90.5455662 386.987814,90.0574164 387,90.0046434" id="Fill-13" fill="#D4D5CF" fill-rule="nonzero"></path>
            <path d="M475,54.0046843 C475.012209,53.9297819 479.7263,54.7620304 485.523276,55.8647596 C491.324301,56.9674889 496.014105,57.9204134 496,57.9953157 C495.987791,58.0702181 491.275724,57.2379696 485.474699,56.1352404 C479.677723,55.0345918 474.985895,54.0795866 475,54.0046843" id="Fill-14" fill="#FFFFFE" fill-rule="nonzero"></path>
            <path d="M383.467583,63.9998136 C383.447685,64.0056881 383.3902,63.8725331 383.30176,63.6258046 C383.208899,63.3810342 383.120461,63.0128996 383.058553,62.5527314 C382.987802,62.0925632 382.981168,61.5364451 383.038655,60.9235401 C383.111616,60.3125933 383.259752,59.6468181 383.518436,58.9732101 C383.785964,58.3035185 384.13751,57.6984463 384.506744,57.1795332 C384.891453,56.6664945 385.287219,56.2356988 385.663085,55.912602 C386.036739,55.587547 386.361754,55.346693 386.607172,55.2057053 C386.85038,55.0608011 386.98746,54.986391 386.998515,55.0020564 C387.031679,55.0412196 386.505468,55.3701909 385.813431,56.0398825 C385.464097,56.3708119 385.097075,56.8035659 384.736685,57.3068137 C384.387351,57.8198524 384.055704,58.4092593 383.794809,59.0593693 C383.544968,59.7114375 383.392411,60.3576312 383.306182,60.9489961 C383.235431,61.5423195 383.222165,62.0847306 383.264175,62.535108 C383.337135,63.4397791 383.520647,63.9880646 383.467583,63.9998136" id="Fill-15" fill="#FFFFFE" fill-rule="nonzero"></path>
            <path d="M379.706777,46.9994269 C379.684369,47.0136629 379.293499,46.7627542 378.885199,46.2378031 C378.474411,45.7164113 378.110925,44.9014026 378.133333,43.9778449 C378.158229,43.0560667 378.564037,42.2499555 379.002213,41.7392406 C379.437897,41.2249665 379.841217,40.9847348 379.863623,41.0007502 C379.908437,41.0292221 379.572337,41.3050438 379.206361,41.8193179 C378.835407,42.3318124 378.489349,43.1023335 378.461963,43.9831834 C378.442047,44.8622537 378.750759,45.6416725 379.091839,46.1630645 C379.432917,46.6862358 379.754079,46.9727345 379.706777,46.9994269" id="Fill-16" fill="#FFFFFE" fill-rule="nonzero"></path>
            <path d="M384.893841,85.9982865 C384.88178,86.0254579 384.44759,85.7315133 383.963147,84.9707156 C383.480715,84.229679 382.986222,82.9575661 383.000293,81.4656124 C383.020395,79.9736586 383.545039,78.7188364 384.043554,77.9950907 C384.546087,77.2540541 384.986306,76.9724601 384.998367,77.0021015 C385.028519,77.0465638 384.636544,77.3899107 384.192303,78.1358876 C383.750073,78.8695139 383.285732,80.0675231 383.267641,81.4705525 C383.25357,82.8735819 383.68977,84.0864121 384.115918,84.834859 C384.542068,85.5981267 384.923993,85.9538242 384.893841,85.9982865" id="Fill-17" fill="#FFFFFE" fill-rule="nonzero"></path>
            <path d="M388.779307,101.999369 C388.754411,102.014686 388.378477,101.750905 387.982627,101.226749 C387.584287,100.707697 387.223291,99.9095499 387.215821,99.0041884 C387.213333,98.0988269 387.566859,97.2989774 387.960219,96.7782244 C388.351091,96.2523659 388.724535,95.986884 388.749431,96.0004984 C388.796735,96.0243237 388.495489,96.3187364 388.171839,96.8445949 C387.845697,97.3670497 387.544453,98.1362667 387.544453,99.0041884 C387.551921,99.8704083 387.860635,100.637923 388.194245,101.160378 C388.522875,101.682833 388.826611,101.977246 388.779307,101.999369" id="Fill-18" fill="#FFFFFE" fill-rule="nonzero"></path>
            <path d="M423.995573,28 C423.97628,28.0057334 423.890544,27.741082 423.746933,27.2572041 C423.671913,27.0162526 423.590463,26.720001 423.519729,26.370424 C423.446852,26.022822 423.346111,25.6278196 423.286094,25.1814671 C423.129624,24.2986369 423.031026,23.2321306 423.001017,22.0471238 C422.9903,20.8621169 423.063178,19.5586093 423.271091,18.2017764 C423.491864,16.8488935 423.82624,15.578961 424.203484,14.4453044 C424.597877,13.3175728 425.022277,12.3221671 425.446677,11.5143873 C425.639586,11.1035849 425.860361,10.7520329 426.038267,10.4380061 C426.214027,10.1200292 426.385502,9.85735269 426.531257,9.64602646 C426.816333,9.22139898 426.981377,8.99229764 426.998525,9.00019769 C427.015672,9.01007275 426.882779,9.2589242 426.62771,9.69737675 C426.496962,9.91462802 426.34049,10.1832296 426.179732,10.5051565 C426.014689,10.8231333 425.808919,11.1786354 425.628869,11.5914128 C425.232334,12.4011675 424.829368,13.3945983 424.452124,14.5164048 C424.09417,15.6421615 423.770511,16.9002437 423.55188,18.2393015 C423.346111,19.5823094 423.266804,20.8719918 423.262516,22.0451487 C423.277521,23.2183056 423.356828,24.2769117 423.485434,25.1577668 C423.530446,25.6001694 423.618326,25.9951718 423.676199,26.3427738 C423.731928,26.6943258 423.798376,26.9925526 423.854105,27.235479 C423.96342,27.7233068 424.014863,27.9958585 423.995573,28" id="Fill-19" fill="#FFFFFE" fill-rule="nonzero"></path>
            <path d="M70.9511875,120.781774 L73.2914679,123.423148 L86,158.801982 C83.5226669,164.357269 78.8317234,168.656416 73.0339747,170.68509 L35.5354986,183.799746 C35.5354986,183.799746 29.4574147,185.678831 26.921938,177.924789 C26.921938,177.924789 25.0592659,174.133834 28.0785806,172.090817 C28.0785806,172.090817 19.9696233,173.197367 17.7788551,167.791668 C15.5860103,162.388021 19.3508092,160.330659 19.3508092,160.330659 C19.3508092,160.330659 12.3029728,162.301956 9.65328542,156.316345 C7.00359798,150.330734 10.3240135,148.429109 10.3240135,148.429109 C10.3240135,148.429109 2.16521891,150.787698 0.310853021,143.537752 C-1.54351286,136.285757 5.50432344,134.31446 5.50432344,134.31446 L32.1714754,124.980514 L55.5514367,116.804345 C61.0252424,114.888376 67.1303217,116.466233 70.9511875,120.781774" id="Fill-20" fill="#E4E4DE" fill-rule="nonzero"></path>
            <path d="M62,115.555503 C62,115.555503 50.6172211,113.197328 43.7394282,107.569958 C38.7469079,103.486486 35.4053091,97.6132199 35.4053091,97.6132199 C35.2902259,97.3048433 34.2461069,94.5838723 33.3903061,92.3587229 C32.6872521,90.5346647 30.6241236,89.5853483 28.6990947,90.1738841 C24.650257,91.4094065 19.5196369,96.9097986 21.4007247,104.280606 C24.2066634,115.281391 30.4818388,120.354489 32.2813222,123.178252 C34.0808056,126 34.0808056,126 34.0808056,126 L62,115.555503" id="Fill-21" fill="#E4E4DE" fill-rule="nonzero"></path>
            <polyline id="Fill-22" fill="#E4E4DE" fill-rule="nonzero" points="84.837981 167 111 157.791162 92.1599446 105 66 114.208839 84.837981 167"></polyline>
            <path d="M79.3163165,122.338035 C80.3329615,125.199413 83.4751193,126.697079 86.3362176,125.682531 C89.1995116,124.667982 90.697032,121.525518 89.6825828,118.66414 C88.6681334,115.800567 85.5259756,114.3029 82.6626816,115.317448 C79.8015833,116.331997 78.3040631,119.474461 79.3163165,122.338035" id="Fill-25" fill="#FFFFFE" fill-rule="nonzero"></path>
            <path d="M279.056234,431.542608 C279.056234,431.542608 285.956371,458.180381 283.452891,490.633008 C282.485543,503.190105 239.990746,850.592801 239.990746,850.592801 L182.614154,850.592801 L198.743536,524.08341 L194.04588,525.099819 C194.04588,525.099819 162.725401,664.356091 160.170025,686.903389 C157.872056,707.167391 131.458895,854.397607 131.458895,854.397607 L79,855 L95.7542139,660.255265 L115.25063,473.39339 L122.586697,419 L279.056234,431.542608" id="Fill-117" fill="#132529" fill-rule="nonzero"></path>
            <path d="M197.002743,500.770457 C196.979149,500.801894 197.107843,500.933927 197.386678,501.16656 C197.676239,501.378233 198.148116,501.66326 198.832339,501.833018 C200.172897,502.21026 202.407877,502.017446 204.454108,500.533633 C206.586134,499.072873 207.862345,496.161831 208.29347,493.047497 C208.718159,489.899632 208.782506,486.514944 209.022734,482.935347 C209.41954,475.780345 209.715535,469.300184 209.874257,464.607728 C210.030836,459.91527 210.047994,457.00842 209.887127,457 C209.728405,456.991654 209.423831,459.881738 209.059197,464.563717 C208.69242,469.245694 208.267731,475.719567 207.868781,482.872474 C207.630698,486.4374 207.589944,489.891249 207.238182,492.904984 C206.875694,495.899858 205.777508,498.540544 203.956491,499.902803 C202.167649,501.319552 200.168607,501.619249 198.926713,501.405479 C197.646211,501.208476 197.069234,500.667762 197.002743,500.770457" id="Fill-118" fill="#334F55" fill-rule="nonzero"></path>
            <path d="M113,466.480312 C112.984665,466.55099 113.52892,466.784438 114.5494,467.077856 C115.56988,467.373412 117.078589,467.690389 118.969478,467.870295 C122.729246,468.253664 128.123781,467.874578 133.546331,465.542235 C138.974883,463.209893 143.114829,459.48757 145.581988,456.429182 C146.830575,454.897846 147.714991,453.550699 148.259247,452.582638 C148.807505,451.614577 149.049619,451.042736 148.991591,451.004184 C148.835518,450.892814 147.60494,453.017409 145.021725,455.874474 C142.466524,458.727257 138.388607,462.218273 133.146142,464.471372 C127.905679,466.726612 122.705234,467.225635 119.0155,467.05858 C115.303755,466.906517 113.042692,466.285415 113,466.480312" id="Fill-119" fill="#334F55" fill-rule="nonzero"></path>
            <path d="M257.040155,453.001274 C256.923267,453.013757 257.019648,455.260792 257.899388,458.772823 C258.768875,462.278613 260.579621,467.009868 263.600266,471.637094 C266.635266,476.253918 270.234201,479.782595 273.080538,481.952646 C275.930976,484.137263 277.936538,485.096414 277.993957,484.992385 C278.248239,484.699021 270.424914,480.169583 264.518968,471.01708 C258.492033,461.94988 257.405175,452.876439 257.040155,453.001274" id="Fill-120" fill="#334F55" fill-rule="nonzero"></path>
            <polyline id="Fill-121" fill="#AE6C5C" fill-rule="nonzero" points="429.638072 354.949539 442.987881 359.064318 467.239785 346 481 383.34479 447.999057 391 423 388.319036 429.638072 354.949539"></polyline>
            <path d="M278,203 C278,203 291.393099,211.052953 302.48581,238.416431 C324.276465,292.170407 337.963056,321.185879 337.963056,321.185879 L438,352.834604 L430.009611,393 C430.009611,393 328.606487,378.850403 315.027373,373.749509 C296.448581,366.773044 282.67105,330.07311 282.67105,330.07311 L278,203" id="Fill-122" fill="#D4D5CF" fill-rule="nonzero"></path>
            <path d="M249.902913,80.9816199 C255.015669,81.3059266 260.042429,77.2972478 260.875786,72.2294402 C261.711191,67.1616325 258.238528,61.7448873 253.291623,60.4025031 C256.291299,56.9931762 256.813426,51.6256926 254.52835,47.6991167 C252.245321,43.7745933 247.327081,41.5865484 242.892067,42.5225226 C242.478461,38.054067 239.591401,33.89555 235.55566,31.9558667 C231.519919,30.0161833 226.478827,30.3651211 222.744077,32.8405265 C217.594465,28.8482682 209.625362,29.0925245 204.727597,33.3947217 C200.34582,32.8117905 195.728572,35.3692987 193.889862,39.3985036 C192.051154,43.4277082 193.138409,48.6022497 196.445217,51.5435896" id="Fill-123" fill="#132529" fill-rule="nonzero"></path>
            <path d="M203.178212,43.1712471 L205.527355,43.0566044 C229.161279,41.8872477 249.73566,58.9648568 252.80568,82.3019627 C255.659857,104.009056 258.53499,128.027766 258.975062,139.725501 C259.882447,163.950568 235.726723,168.917727 235.726723,168.917727 L239.238911,197.901512 L180.078662,199 L169.584009,93.7745808 C166.149357,68.74493 177.930694,45.895577 203.178212,43.1712471" id="Fill-124" fill="#F1AD92" fill-rule="nonzero"></path>
            <path d="M234.810456,168.191547 C234.810456,168.191547 219.574813,169.994662 203,160 C203,160 211.230749,178.119755 235,174.529032 L234.810456,168.191547" id="Fill-125" fill="#D38C7D" fill-rule="nonzero"></path>
            <path d="M242.989742,105.677788 C243.125645,107.325426 241.895269,108.805283 240.24269,108.982489 C238.593734,109.159694 237.144102,107.972038 237.010012,106.324401 C236.875921,104.674879 238.104483,103.195021 239.753439,103.017816 C241.406019,102.838725 242.85565,104.030151 242.989742,105.677788" id="Fill-126" fill="#132529" fill-rule="nonzero"></path>
            <path d="M245.954356,95.3239014 C245.571226,95.7968149 242.99794,93.9825848 239.472753,94.1771908 C235.949542,94.3194834 233.453275,96.3764478 233.050397,95.9391074 C232.852908,95.7465939 233.228137,94.9074864 234.312355,93.9804923 C235.380773,93.0555907 237.233224,92.1160413 239.429305,92.0093219 C241.625387,91.9067876 243.513387,92.6663786 244.615378,93.4866534 C245.741067,94.3111132 246.145921,95.1104626 245.954356,95.3239014" id="Fill-127" fill="#132529" fill-rule="nonzero"></path>
            <path d="M208.989742,105.679527 C209.125645,107.327074 207.895268,108.804965 206.242684,108.982161 C204.593725,109.161242 203.145902,107.971766 203.009998,106.324219 C202.875907,104.676672 204.106285,103.196895 205.755244,103.017814 C207.406016,102.838733 208.855651,104.030094 208.989742,105.679527" id="Fill-128" fill="#132529" fill-rule="nonzero"></path>
            <path d="M209.955269,97.3218089 C209.570204,97.7968149 206.995208,95.9825847 203.474334,96.1771909 C199.951486,96.3194834 197.455477,98.3764478 197.050665,97.9391074 C196.853196,97.7465941 197.224437,96.9074864 198.314466,95.9804923 C199.382774,95.0555906 201.233059,94.1160413 203.428916,94.0093219 C205.624772,93.9067875 207.512577,94.6663787 208.616428,95.4866534 C209.738052,96.3090206 210.14484,97.1083701 209.955269,97.3218089" id="Fill-129" fill="#132529" fill-rule="nonzero"></path>
            <path d="M225.373114,123.904885 C225.345212,123.701235 227.706286,123.203202 231.539815,122.559993 C232.512148,122.418849 233.428676,122.19302 233.561754,121.557877 C233.754933,120.884422 233.295596,119.912551 232.763282,118.86406 C231.726555,116.684407 230.640459,114.397889 229.500704,112.002489 C224.956708,102.227321 221.616858,94.1700668 222.035413,94.0027114 C222.456113,93.8333396 226.480674,101.620406 231.024672,111.395574 C232.121497,113.807104 233.171103,116.10572 234.169194,118.305536 C234.594188,119.331848 235.293924,120.487205 234.866786,121.888555 C234.639263,122.588221 233.948111,123.120532 233.329939,123.308051 C232.711767,123.515733 232.162281,123.552027 231.679333,123.600419 C227.80717,123.979489 225.398872,124.106518 225.373114,123.904885" id="Fill-130" fill="#132529" fill-rule="nonzero"></path>
            <path d="M213.965352,82.4809425 C213.529805,83.4150543 210.352145,82.5816011 206.495604,82.6480358 C202.637019,82.627904 199.428687,83.4996075 199.0279,82.5715352 C198.85409,82.1266242 199.496167,81.2750525 200.847795,80.4778365 C202.187157,79.6806203 204.25243,79.0142605 206.565128,79.0001682 C208.877827,78.9880892 210.918563,79.6282779 212.227251,80.4114018 C213.546164,81.1925124 214.157567,82.0360315 213.965352,82.4809425" id="Fill-131" fill="#132529" fill-rule="nonzero"></path>
            <path d="M245.902292,80.3078985 C245.175317,81.1468164 242.124471,80.4582705 238.50593,80.592814 C234.883307,80.62645 231.852881,81.4534965 231.105485,80.6501929 C230.77467,80.2564554 231.215757,79.4294088 232.516552,78.6063195 C233.794885,77.7871873 235.969685,77.0610483 238.458963,77.0036695 C240.948241,76.9462906 243.139378,77.5695435 244.440173,78.3312968 C245.759347,79.0950288 246.222897,79.9003109 245.902292,80.3078985" id="Fill-132" fill="#132529" fill-rule="nonzero"></path>
            <path d="M248,71.6085846 C248,71.6085846 240.894552,56.6762169 233.445038,53.4825649 C224.42513,49.6157927 221.114235,59.5783932 212.60258,57.6282313 C204.092997,55.6801666 195.481767,51.9664715 187.225274,58.9576965 C178.188771,66.6073633 182.835641,71.424053 182.785853,82.2589841 C182.588776,126.18795 175.282403,138.97514 172.015072,118.452308 C171.658258,116.202283 165.362164,114.717644 163.972252,105.212178 C162.171589,92.88422 160.962159,77.8679747 163.264849,68.9412664 C165.204502,61.4174167 169.131522,56.0890714 176.348694,50.0687334 C187.739748,40.5653645 203.980976,39.5588295 215.071229,40.1271025 C226.161483,40.6932784 248.066084,52.4613512 248,71.6085846" id="Fill-133" fill="#132529" fill-rule="nonzero"></path>
            <path d="M173.453219,117.256538 C173.129478,113.398395 169.902042,110.510719 166.348867,111.069276 C162.040291,111.744289 157.346023,114.655688 158.075443,124.293497 C159.372412,141.390957 175.009982,136.460988 175,135.967128 C174.993994,135.632857 174.054741,124.40564 173.453219,117.256538" id="Fill-134" fill="#AE6C5C" fill-rule="nonzero"></path>
            <path d="M172.978683,131.375281 C172.891204,131.325296 172.668961,131.609993 172.136993,131.883824 C171.621574,132.151135 170.708955,132.374981 169.701762,132.112016 C167.66137,131.59478 165.736828,128.830393 165.370362,125.731323 C165.183582,124.166576 165.40819,122.647467 165.902329,121.365243 C166.363368,120.061287 167.171959,119.113745 168.153144,118.87686 C169.127236,118.592163 169.881449,119.087666 170.153343,119.554917 C170.448881,120.017822 170.359037,120.36989 170.460702,120.393796 C170.517446,120.432914 170.836626,120.074326 170.623839,119.372363 C170.515082,119.037681 170.259737,118.646494 169.789241,118.348758 C169.311652,118.046674 168.633098,117.924972 167.945086,118.046674 C166.507591,118.246614 165.315983,119.567957 164.772193,120.974056 C164.150382,122.393195 163.857209,124.103551 164.067632,125.859546 C164.49557,129.323723 166.718014,132.427139 169.49134,132.944375 C170.83899,133.159528 171.905291,132.711836 172.437259,132.264144 C172.981048,131.79472 173.044884,131.40136 172.978683,131.375281" id="Fill-135" fill="#643B32" fill-rule="nonzero"></path>
            <path d="M174.286423,87.1422185 C176.469773,88.485415 178.776013,89.8676939 181.33213,89.9931687 C183.890295,90.1186432 186.72701,88.5059846 187.032187,85.9512371 C187.167367,84.8055089 186.82737,83.4993376 187.527844,82.5839893 C188.363498,81.4917421 190.018419,81.7385776 191.388645,81.8146854 C196.140401,82.0841473 201.406246,76.5632598 202.381175,71.8836698 C203.677667,73.6362021 206.346432,74.0517085 208.111955,72.7805055 C209.879526,71.5072457 210.510363,70.7996505 211.858059,69.0862008 C213.205755,67.3727508 215.137179,65.8032885 217.302096,66.0028137 C218.512563,66.1138897 219.673876,66.7782887 220.878201,66.6096178 C223.004201,66.3113582 223.921781,63.7483828 224.140935,61.6029707 C224.358041,59.4575588 224.487077,56.9624632 226.238262,55.7138869 C227.860413,54.5578738 230.064244,55.0700575 232.044825,55.2634121 C234.025405,55.4567665 236.540559,54.8664183 236.948145,52.9102468 C237.163202,51.8838225 236.677785,50.8388854 236.073575,49.9831891 C233.343364,46.1058146 227.733427,44.6021749 223.44251,46.5994855 C221.584819,41.2822372 216.351744,37.332869 210.74795,37.0202107 C205.144157,36.7075524 199.507592,40.0501166 197.076413,45.1287573 C193.483923,42.1687881 188.422894,41.1032815 183.949691,42.3662565 C179.476487,43.6292316 175.709901,47.183663 174.177871,51.5896769 C170.169601,50.7422083 165.737361,52.5050252 163.392206,55.8763869 C161.047051,59.2477485 160.924161,64.0343005 163.09727,67.5229091 C160.256457,69.3453781 157.896965,72.3876257 158.00347,75.7713291 C158.112023,79.1550327 161.557046,82.3597803 164.762432,81.3086725 C163.57859,84.0053505 164.823877,87.5248135 167.435294,88.86801 C170.048759,90.2132636 173.61872,89.1724405 175.10774,86.6320917" id="Fill-136" fill="#132529" fill-rule="nonzero"></path>
            <path d="M223.984797,51.0003961 C223.999277,51.0003961 224.003413,51.1004634 223.997208,51.2925924 C223.984797,51.4827202 223.988934,51.7729153 223.935152,52.1451655 C223.821385,52.8856633 223.573164,53.9884043 222.900901,55.2652625 C222.222431,56.5241087 221.144741,57.9910947 219.450637,59.1979057 C217.793766,60.4147236 215.485316,61.3893787 212.819015,61.3773706 L213.079646,61.0111245 C213.658827,62.3460217 213.602978,63.983122 212.974153,65.4140837 C212.384629,66.8670603 211.406226,68.1779414 210.3637,69.4588022 C209.830028,70.0752165 209.372888,70.7916981 208.619953,71.3700868 C207.887703,71.9264607 206.992041,72.2706921 206.06535,72.4287984 C204.224384,72.7470123 202.106236,72.2947082 200.685173,70.8517385 L201.289177,70.6516039 C201.034751,73.82974 199.338578,77.0819259 196.48818,79.1493153 C194.98231,80.3160996 193.085492,81.0766106 191.182469,81.118639 C189.279446,81.1926887 187.486054,80.7383834 185.808497,80.2460524 L186.238745,80.0379126 C185.456852,82.0552685 184.186789,83.8064454 182.602316,85.1293346 C181.048871,86.448221 178.932792,87.2807805 176.959439,86.9125331 C173.041694,86.3041241 170.3092,83.3101119 169.641073,80.3961534 L170.021678,80.5462543 C168.149683,81.6529981 166.089454,81.8491299 164.418103,81.6209765 C162.723998,81.40283 161.369129,80.7603982 160.394864,80.109961 C159.416462,79.4475158 158.820732,78.7450436 158.460813,78.2567154 C158.125715,77.7483737 157.982989,77.4641828 158.001605,77.4561773 C158.080208,77.3861303 158.607677,78.636971 160.550001,79.8878117 C161.518061,80.4842126 162.839835,81.066604 164.467747,81.2367183 C166.074974,81.4248447 168.023505,81.1926887 169.750705,80.1359784 L170.04857,79.9518548 L170.131309,80.2860793 C170.79323,82.9999034 173.418162,85.7917799 177.048385,86.3161322 C178.83764,86.6323448 180.697224,85.8898457 182.17,84.639005 C183.648979,83.3921671 184.859054,81.7070344 185.583029,79.8097592 L185.698866,79.5095575 L186.013279,79.6016193 C187.663945,80.0819422 189.395281,80.5062274 191.151442,80.4321775 C192.911738,80.3841453 194.616185,79.7076906 196.051725,78.6009468 C198.744917,76.6436312 200.335597,73.6015866 200.594159,70.5915635 L200.658284,69.8350551 L201.198163,70.3934304 C202.397895,71.6282603 204.29678,72.0685563 205.951584,71.7863667 C206.781053,71.6482738 207.577427,71.3440694 208.216594,70.8657478 C208.841283,70.4054385 209.317039,69.6949609 209.861055,69.0725426 C210.901512,67.8136966 211.855092,66.5528492 212.417725,65.1999398 C213.015522,63.8610399 213.069303,62.4220727 212.570794,61.2132604 L212.417725,60.8390088 L212.831426,60.8470141 C215.344658,60.8890424 217.570367,60.0004451 219.192075,58.8556757 C220.848945,57.7249157 221.928705,56.3279769 222.627857,55.1251684 C224.001344,52.6495044 223.866892,50.970376 223.984797,51.0003961" id="Fill-137" fill="#334F55" fill-rule="nonzero"></path>
            <path d="M224.992775,137.574608 C224.872386,136.939339 220.928048,138.032694 217.240819,135.238805 C213.545427,132.45572 212.880216,127.881349 212.321112,128.002353 C212.059925,128.013157 211.802817,129.208068 212.221126,131.098751 C212.62107,132.959182 213.849465,135.493777 216.104247,137.202954 C218.363108,138.903488 220.885197,139.201676 222.538024,138.892684 C224.22758,138.592336 225.088681,137.85551 224.992775,137.574608" id="Fill-138" fill="#132529" fill-rule="nonzero"></path>
            <path d="M294.41592,217.638926 C286.251996,202.420848 269.090377,195.688466 258.435484,195.033814 C247.78059,194.379162 133.771163,203.447227 133.771163,203.447227 C133.771163,203.447227 99.7148132,211.063494 95.3742373,240.297732 C90.3778164,273.953451 86,351 86,351 L137.894503,324.450454 L144.618465,307.553412 L251.984618,331.463698 L278.20393,292.75456 L323,289.776617 C322.633803,288.481769 301.241258,230.360239 294.41592,217.638926 Z" id="Fill-139" fill="#6E5FFF" fill-rule="nonzero"></path>
            <path d="M125.250482,205.880884 L169.916382,186.228154 L174.921454,167 L227.057611,191.602676 L237.978709,179.559191 L242.552164,193.131152 L253.977505,196.859145 L280.679519,243.732428 L280.596515,343.615686 L286,429.773721 L280.210552,443.374677 L232.376017,450.418511 C227.144764,451.188962 221.830507,451.193104 216.599254,450.435079 L119.502535,434.591114 L117,406.127895 L127.371204,327.668165 L125.250482,205.880884" id="Fill-140" fill="#6E5FFF" fill-rule="nonzero"></path>
            <path d="M175.716517,167 C175.716517,167 181.673662,168.715338 196.97477,176.8384 C211.964131,184.794781 229,192.06334 229,192.06334 L227.70635,216 L171,187.676886 L175.716517,167" id="Fill-141" fill="#6E5FFF" fill-rule="nonzero"></path>
            <polyline id="Fill-142" fill="#6E5FFF" fill-rule="nonzero" points="239.524597 180 229 191.645527 234.625249 216 244 193.986648 239.524597 180"></polyline>
            <path d="M230.874608,224 L175,190 L225.990595,215.780983 L227.470219,194.544137 C227.940438,194.897733 230.801463,222.088893 231,223.981057 L230.874608,224" id="Fill-143" fill="#877AFF" fill-rule="nonzero"></path>
            <polyline id="Fill-144" fill="#8C8F8B" fill-rule="nonzero" points="226 216 175 190 226 216"></polyline>
            <path d="M229.127918,301.643554 C228.309644,279.546281 231.702537,223.171351 231.702537,223.171351 L238.796954,222 C238.796954,222 252.047715,276.801318 256.995939,343.953931 C259,371.128447 259,402.606951 259,402.606951 L244.750253,434 L229,402.811208 C229,402.811208 230.120812,328.49501 229.127918,301.643554" id="Fill-145" fill="#FFFFFF" fill-rule="nonzero"></path>
            <path d="M122.003338,209.003983 C121.916086,209.111248 123.54833,210.319504 125.857305,212.582201 C128.168408,214.836802 131.068992,218.242989 133.469475,222.472896 C135.855062,226.712921 137.244703,230.89223 137.946972,233.97055 C138.655626,237.048869 138.815232,239.012032 138.957814,239 C139.011016,238.99584 139.013144,238.504038 138.968454,237.613532 C138.938661,236.723025 138.785439,235.437863 138.496019,233.865308 C137.925691,230.722224 136.597764,226.431602 134.167488,222.116693 C131.724443,217.80988 128.696174,214.389524 126.253129,212.203736 C125.033735,211.106792 123.990972,210.274978 123.226988,209.75889 C122.469389,209.232681 122.037387,208.963505 122.003338,209.003983" id="Fill-146" fill="#132529" fill-rule="nonzero"></path>
            <polyline id="Fill-147" fill="#FFFFFF" fill-rule="nonzero" points="227.035549 202.816279 231.737764 201 236.196321 208.566533 237 220.998518 230.719901 222 226 214.328457 227.035549 202.816279"></polyline>
            <path d="M281,242 C280.743568,242 280.53693,270.656593 280.53693,305.99793 C280.53693,341.349621 280.743568,370 281,370 C281.256432,370 281.46307,341.349621 281.46307,305.99793 C281.46307,270.656593 281.256432,242 281,242" id="Fill-148" fill="#132529" fill-rule="nonzero"></path>
            <path d="M227.00568,190.001487 C226.906254,190.069658 228.12097,191.901765 229.956014,194.926871 C231.791057,197.954106 234.216168,202.199904 236.531046,207.067769 C236.719089,207.466145 236.907131,207.86239 237.082207,208.235203 L237.443164,209 L237.808442,208.239463 C240.039026,203.616592 241.64712,199.313273 242.645696,196.170997 C243.147143,194.598795 243.505939,193.320582 243.726403,192.430093 C243.946868,191.541734 244.037647,191.043231 243.985774,191.030449 C243.875541,190.998494 243.255215,192.913683 242.122632,195.996308 C240.994372,199.078934 239.310629,203.314082 237.084368,207.898606 L237.812766,207.904998 C237.635529,207.532185 237.449647,207.131679 237.259443,206.729041 C234.929435,201.829222 232.404899,197.594075 230.43801,194.63075 C229.454565,193.148022 228.615936,191.976328 228.01506,191.181705 C227.409865,190.391342 227.05107,189.971661 227.00568,190.001487" id="Fill-149" fill="#132529" fill-rule="nonzero"></path>
            <path d="M171,186.003462 C170.99004,186.026316 171.255832,186.184213 171.774757,186.460537 C172.373842,186.770099 173.131136,187.158614 174.063513,187.63854 C176.145544,188.702278 179.001743,190.158682 182.488668,191.939194 C189.597526,195.579168 199.332651,200.766962 210.120396,206.445071 C216.691342,209.891825 222.914228,213.08719 228.327085,215.754842 L228.827026,216 L228.831244,215.455667 C228.900856,208.539302 228.957811,202.713683 229,198.500288 C228.995782,196.518248 228.993672,194.920565 228.991563,193.719706 C228.976796,192.614417 228.951484,192.0223 228.913513,192.0223 C228.875542,192.0223 228.829136,192.612341 228.774289,193.715551 C228.727882,194.91641 228.664597,196.514093 228.588658,198.491978 C228.476857,202.705371 228.320758,208.528914 228.137235,215.443201 L228.641393,215.144026 C223.26018,212.428589 217.058386,209.208292 210.48955,205.761536 C199.706025,200.085505 189.920273,194.970428 182.741803,191.450956 C179.155732,189.684987 176.229921,188.301298 174.196408,187.368452 C173.238717,186.942542 172.460329,186.59558 171.844369,186.321337 C171.30224,186.088644 171.013244,185.97853 171,186.003462" id="Fill-150" fill="#132529" fill-rule="nonzero"></path>
            <path d="M274.008972,205.001508 C273.905258,205.071232 274.713848,206.577687 275.752916,209.13845 C276.797746,211.694986 277.992385,215.35654 278.699183,219.558979 C279.396376,223.763531 279.463598,227.65327 279.315709,230.450673 C279.173582,233.252299 278.904691,234.974264 279.023771,235 C279.071786,235.010182 279.183185,234.589726 279.344518,233.814315 C279.515455,233.043127 279.682551,231.90642 279.820838,230.495042 C280.101251,227.672286 280.114696,223.700146 279.404058,219.415306 C278.681896,215.13469 277.385462,211.428769 276.210029,208.901811 C275.626153,207.634108 275.101817,206.638959 274.692721,205.983978 C274.291306,205.322659 274.051227,204.974041 274.008972,205.001508" id="Fill-151" fill="#132529" fill-rule="nonzero"></path>
            <path d="M233.006127,223.961395 C233.093295,224.176309 234.056894,223.472281 235.158377,222.387832 C236.259861,221.305853 237.080822,220.253518 236.993654,220.038605 C236.906486,219.823691 235.944472,220.527719 234.842989,221.612168 C233.741505,222.694145 232.920544,223.746482 233.006127,223.961395" id="Fill-152" fill="#132529" fill-rule="nonzero"></path>
            <path d="M231.020615,219.998334 C231.213164,220.078802 232.704385,217.23494 234.349234,213.647237 C235.996133,210.057574 237.171903,207.082216 236.979355,207.001748 C236.786808,206.919316 235.297635,209.763178 233.650737,213.352842 C232.005888,216.940544 230.828068,219.917865 231.020615,219.998334" id="Fill-153" fill="#132529" fill-rule="nonzero"></path>
            <path d="M116.009175,212 C116.009175,212 99.0306455,224.287941 96.9098646,231.077291 C94.7870368,237.866642 85.7675771,348.196673 84.1749442,361.322476 C82.5843587,374.450337 80.991726,398.993284 91.0736233,406.997224 C101.153473,414.999105 122.905806,421 122.905806,421 L143,379.253114 L132.357201,356.844964 L143,273.050629 L116.009175,212" id="Fill-154" fill="#6E5FFF" fill-rule="nonzero"></path>
            <path d="M120,420.863334 C120,420.834109 120.36809,420.80697 121.071878,420.78192 C121.775666,420.756868 122.819214,420.769393 124.15803,420.577336 C126.787124,420.234972 130.829861,419.523107 134.886755,416.571264 C138.973985,413.723799 142.727522,408.64471 145.12202,402.110574 C147.532697,395.595226 148.932183,387.73965 149.004989,379.337128 L149.098019,379.627301 C144.327224,372.809255 139.119596,365.367021 133.693551,357.615824 L133.572208,357.442554 L133.598499,357.229621 C133.669282,356.663886 133.74411,356.052224 133.818939,355.440563 C136.783747,331.6108 139.465423,310.043976 141.423087,294.307773 C142.395852,286.567013 143.188625,280.266688 143.750846,275.786734 C144.0178,273.678275 144.232172,272.001946 144.389918,270.75357 C144.525418,269.607487 144.598223,269 144.636649,269 C144.65485,269 144.660917,269.152393 144.656872,269.450918 C144.648783,269.747355 144.640693,270.194099 144.600246,270.774447 C144.491037,272.029084 144.343403,273.715852 144.157344,275.834748 C143.734667,280.227023 143.047058,286.569102 142.161255,294.401714 C140.389651,310.069026 137.811116,331.698477 134.864509,355.578342 C134.789681,356.190004 134.71283,356.801666 134.644069,357.365314 L134.549018,356.979112 C139.956862,364.74492 145.148311,372.19968 149.902926,379.028166 L150,379.165946 L149.997978,379.318339 C149.886747,387.900395 148.420521,395.795635 145.904681,402.427887 C143.409064,409.058051 139.485647,414.243609 135.232582,417.095246 C133.137396,418.564906 131.01592,419.47718 129.118928,420.017864 C128.645691,420.151469 128.18661,420.282987 127.745732,420.408242 C127.296763,420.48757 126.865996,420.564811 126.451409,420.637876 C125.6283,420.811145 124.87193,420.884211 124.188365,420.915525 C122.827304,421.055393 121.777689,420.986502 121.069856,420.955188 C120.362023,420.923875 119.997994,420.892561 120,420.863334" id="Fill-155" fill="#132529" fill-rule="nonzero"></path>
            <path d="M98.0022399,365.983512 C97.931441,365.888131 99.5410739,364.414049 102.537531,362.627811 C105.519413,360.839404 109.967247,358.868905 115.154304,357.811036 C120.345527,356.770507 125.17859,356.861554 128.587347,357.357973 C132.008597,357.847888 134.03053,358.587095 134,358.701987 C133.972225,359.09652 125.574231,356.779179 115.360454,358.918763 C105.125854,360.915276 98.1688253,366.336857 98.0022399,365.983512" id="Fill-156" fill="#132529" fill-rule="nonzero"></path>
            <path d="M233.395472,254.952676 L233.397541,254.952676 C233.455438,254.944402 234.373523,258.632783 235.940884,265.130375 C239.437467,260.076692 243.93691,255.775994 249.160072,252.478585 L249.093904,252.490998 C249.093904,252.490998 275.569496,226.179993 284.026632,198.511963 C290.16581,178.427558 288.637736,156.183496 288.637736,156.183496 C288.389604,155.120216 286.323913,145.687228 284.638689,137.96914 C283.255358,131.643246 287.120001,125.414577 293.370837,123.730706 C306.515584,120.185061 342.10586,113.255124 350.269375,137.170646 C362.450546,172.85258 342.76134,211.393371 342.972252,222.421278 C343.013607,224.504397 343.046691,226.192405 343.071504,227.561844 C353.505419,225.147742 361.598629,223.408019 361.639984,223.581784 L361.627579,223.590058 L430.157263,207.593282 C430.157263,207.593282 452.801297,200.737817 460.567803,223.958275 C468.334308,247.180803 441.98278,254.900961 441.98278,254.900961 C441.98278,254.900961 454.36866,254.35484 457.734972,275.473563 C461.101285,296.594355 438.457251,303.44982 438.457251,303.44982 C438.457251,303.44982 452.325713,302.556169 455.913275,321.277341 C459.40779,339.497903 436.769959,350.482369 435.560319,351.053313 C438.914225,350.335496 440.998526,349.936249 441.019204,350.029338 C441.039881,350.110015 439.476656,350.552704 436.865075,351.222942 C447.420987,352.575832 448.95113,365.15108 448.95113,365.15108 C455.754059,390.944925 435.905635,396.364757 435.905635,396.364757 L310.785508,425.596677 C298.194921,428.538279 285.18251,427.988022 273.065439,424.229308 C274.26474,429.562256 274.914016,432.563849 274.862322,432.582467 L187.470534,453 C187.282368,453.045432 177.845113,413.313106 166.395929,364.269841 C154.942609,315.207957 145.815519,275.413573 146,275.370132 L233.395472,254.952676" id="Fill-157" fill="#E46C62" fill-rule="nonzero"></path>
            <path d="M166.302274,364.194065 C155.013863,315.570575 145.993837,276.040307 146,275.230779 C146,275.222498 146.002071,275.218357 146.004129,275.218357 L232.999413,254.783447 C233.061167,254.783447 233.975108,258.474981 235.533336,264.969846 C239.014137,259.911843 243.493272,255.607468 248.692859,252.30724 L248.626989,252.319664 C248.626989,252.319664 274.983083,225.986167 283.402047,198.294483 C287.483908,184.865828 288.161129,170.474434 288.161129,162.397778 C288.159072,158.383261 287.992339,155.92983 287.992339,155.92983 C287.745327,154.865641 285.68896,145.424589 284.011342,137.699903 C283.821967,136.834473 283.731395,135.971114 283.731395,135.120177 C283.731395,129.749543 287.331584,124.904792 292.704077,123.449297 C297.156453,122.24225 304.194215,120.641826 311.863912,120 C307.294205,122.530036 304.733522,127.803361 305.896534,133.14915 C307.57415,140.873836 309.63052,150.314888 309.87753,151.377007 C309.87753,151.377007 311.398707,173.640084 305.287239,193.74373 C297.012363,220.961291 271.407595,246.868284 270.534822,247.746136 C259.538708,254.735828 251.809316,266.292835 249.818817,279.715279 L248.130908,291.09009 L275.94231,410.869304 C287.800905,418.790679 301.621181,422.912856 315.616424,422.912856 C318.076244,422.912856 320.54018,422.786563 323,422.529831 L310.040147,425.573329 C304.667653,426.836276 299.216938,427.455329 293.795043,427.455329 C286.565849,427.455329 279.381941,426.353873 272.490328,424.204791 C273.638931,429.343538 274.281158,432.320784 274.281158,432.550598 C274.281158,432.558879 274.281158,432.56302 274.279101,432.565091 L203.784164,449.124199 L187.281758,453 C187.084149,453 177.693607,413.252342 166.302274,364.194065 Z" id="Fill-158" fill="#229564" fill-rule="nonzero"></path>
            <path d="M365.012651,222 C365.008435,221.81055 365.004218,221.61268 365,221.408495 L431.387787,205.945145 C431.387787,205.945145 434.107734,205.124194 438,205 L365.012651,222" id="Fill-159" fill="#BC5247" fill-rule="nonzero"></path>
            <path d="M249.69276,279.171965 L248,290.596815 L275.891348,410.902947 C292.410226,421.953485 312.725432,425.644623 332.035302,421.100884 L456.948741,391.713189 C456.948741,391.713189 476.764377,386.266942 469.972686,360.337482 C469.972686,360.337482 468.341853,346.56486 456.544129,346.192626 C456.544129,346.192626 480.507031,335.050589 476.92333,316.233066 C473.341694,297.413462 459.49614,298.309733 459.49614,298.309733 C459.49614,298.309733 482.102769,291.420304 478.742018,270.188464 C475.381266,248.958704 463.015847,249.507695 463.015847,249.507695 C463.015847,249.507695 489.323844,241.744869 481.570169,218.402323 C473.816493,195.059778 451.209865,201.949207 451.209865,201.949207 L362.362576,222.831688 L284.481082,241.154287 C266.244668,245.444325 252.454854,260.512484 249.69276,279.171965" id="Fill-160" fill="#2CB77C" fill-rule="nonzero"></path>
            <path d="M306.876215,193.879567 C313.00546,173.740477 311.479858,151.438147 311.479858,151.438147 C311.232129,150.374156 309.169778,140.916458 307.487282,133.178153 C306.106188,126.833614 309.964578,120.590704 316.205303,118.900348 C329.328784,115.347489 353.00968,121.901508 361.159987,145.877602 C373.321452,181.653004 365.515902,206.794718 365.726472,217.849439 C365.939107,228.906235 365.939107,228.906235 365.939107,228.906235 L272,248 C272,248 298.43276,221.620074 306.876215,193.879567 Z" id="Fill-161" fill="#2CB77C" fill-rule="nonzero"></path>
            <polyline id="Fill-162" fill="#2CB77C" fill-rule="nonzero" points="297 428.484535 210.189146 449 169 270.517542 255.808801 250 297 428.484535"></polyline>
            <path d="M296.997114,427 C297.18518,426.954581 288.158015,387.293536 276.839307,338.424763 C265.518554,289.537439 256.190892,249.956784 256.002825,250 C255.816804,250.045419 264.839881,289.698218 276.162677,338.583481 C287.481387,387.454316 296.811092,427.043216 296.997114,427" id="Fill-163" fill="#132529" fill-rule="nonzero"></path>
            <path d="M209.997114,447 C210.185189,446.956643 201.157586,407.295137 189.838331,358.423736 C178.517031,309.537905 169.188918,269.954728 169.002887,270 C168.814812,270.043364 177.838325,309.696625 189.16167,358.584516 C200.480925,407.453857 209.811083,447.043217 209.997114,447" id="Fill-164" fill="#132529" fill-rule="nonzero"></path>
            <path d="M234.55089,297.13565 C236.685535,306.274895 231.005702,315.416234 221.864394,317.550888 C212.723087,319.685541 203.583871,314.005689 201.449226,304.86435 C199.314579,295.725105 204.99232,286.583766 214.133627,284.449112 C223.274936,282.314459 232.416243,287.994311 234.55089,297.13565" id="Fill-165" fill="#FFFFFE" fill-rule="nonzero"></path>
            <path d="M383,218.013379 C382.955802,217.803361 373.293844,220.090745 361.421646,223.122326 C349.545271,226.151626 339.95643,228.776867 340,228.986887 C340.04626,229.194623 349.706129,226.909522 361.582505,223.87794 C373.454703,220.848641 383.045632,218.221116 383,218.013379" id="Fill-166" fill="#132529" fill-rule="nonzero"></path>
            <path d="M462,299.017355 C461.954833,298.840707 455.648885,300.032595 447.91915,301.678723 C440.185161,303.326789 433.9537,304.804032 434,304.982621 C434.045214,305.159269 440.349033,303.969323 448.083025,302.321255 C455.812759,300.675129 462.044219,299.195944 462,299.017355" id="Fill-167" fill="#132529" fill-rule="nonzero"></path>
            <path d="M466,248.013286 C465.956914,247.823976 457.414035,249.680037 446.923672,252.157528 C436.427205,254.637077 427.957585,256.797679 428,256.98699 C428.043055,257.174241 436.5839,255.318181 447.080367,252.84069 C457.572763,250.363199 466.044418,248.200538 466,248.013286" id="Fill-168" fill="#132529" fill-rule="nonzero"></path>
            <path d="M464,344.01301 C463.956914,343.825758 455.414035,345.681818 444.921638,348.159309 C434.427206,350.638859 425.957587,352.799462 426,352.986714 C426.043056,353.176025 434.583899,351.319963 445.080367,348.840415 C455.572763,346.362924 464.044418,344.20232 464,344.01301" id="Fill-169" fill="#132529" fill-rule="nonzero"></path>
            <path d="M326.096091,182 C324.778097,182 323.570805,181.561649 322.703979,180.468946 C321.114449,178.46566 321.803732,175.553908 322.328005,173.036036 C324.040772,164.796304 322.985958,155.989046 319.374528,148.405783 C317.741134,144.975209 315.591821,141.760634 314.549542,138.101354 C313.50726,134.442075 313.824748,130.04374 316.571441,127.44328 C319.788098,124.942349 322.881522,124 325.728473,124 C329.807782,124 333.381614,125.933404 336.094885,127.976925 C340.702645,131.449852 343.605992,136.875242 345.005448,142.518748 C348.324454,155.912811 343.142291,171.068749 332.356043,179.50542 C330.60359,180.875533 328.205718,182 326.096091,182" id="Fill-170" fill="#FFFFFF" fill-rule="nonzero"></path>
            <path d="M389.740179,237 C388.027985,237 386.342902,236.772234 384.764182,236.123821 C381.587968,234.818787 379.124995,231.22379 380.297045,228.037128 C380.407576,222.207567 391.304302,220.914844 397.112414,219.462071 C414.866259,215.025778 432.620102,210.589485 450.376032,206.15319 C452.676336,205.578647 455.045462,205 457.395819,205 C458.165367,205 458.93283,205.061558 459.696123,205.207246 C462.788916,205.789996 465.77952,208.137416 465.988069,211.22969 C466.13197,213.343186 464.957834,215.380762 463.349915,216.788394 C461.741997,218.196024 459.737832,219.076306 457.750353,219.888874 C444.365626,225.36345 430.219694,228.781981 416.119642,232.095863 C409.104027,233.745623 402.073814,235.374863 394.949753,236.497274 C393.239645,236.766079 391.475314,237 389.740179,237" id="Fill-171" fill="#FFFFFF" fill-rule="nonzero"></path>
            <path d="M235,259.009448 C234.953062,258.817713 222.379709,261.567321 206.919346,265.151295 C191.452613,268.735268 178.953559,271.796709 179,271.990552 C179.044838,272.182286 191.61607,269.432677 207.082801,265.848705 C222.543164,262.264733 235.044343,259.201184 235,259.009448" id="Fill-172" fill="#FFFFFE" fill-rule="nonzero"></path>
            <path d="M472.103471,279.999694 C472.153462,280.012113 472.279523,279.645809 472.466441,278.96494 C472.670746,278.290279 472.84245,277.282426 472.942431,276.028302 C473.055451,274.774179 473.003288,273.267575 472.775073,271.614035 C472.50991,269.964634 472.046961,268.174506 471.305807,266.38024 C470.540746,264.594252 469.575726,262.994518 468.571582,261.628642 C467.537011,260.28346 466.480705,259.159715 465.489602,258.325701 C464.507193,257.485479 463.650847,256.868766 463.01402,256.514878 C462.38806,256.146506 462.029438,255.964389 462.003357,256.005778 C461.922937,256.115463 463.29657,256.947406 465.126632,258.685796 C466.050358,259.544643 467.037113,260.672527 468.013,261.999084 C468.95846,263.348405 469.875664,264.908817 470.621164,266.640998 C471.33841,268.383526 471.807879,270.115708 472.101297,271.711302 C472.357767,273.313103 472.464267,274.778318 472.418625,276.007607 C472.355593,278.468257 471.966543,279.970722 472.103471,279.999694" id="Fill-173" fill="#FFFFFE" fill-rule="nonzero"></path>
            <path d="M474.136566,230.998227 C474.18254,231.041523 474.958095,230.291717 475.727655,228.762585 C476.503212,227.24526 477.140846,224.895473 476.972943,222.281975 C476.793046,219.666509 475.849586,217.419057 474.882139,216.015877 C473.916693,214.596952 473.049189,213.953418 473.007213,214.002617 C472.919263,214.085272 473.648846,214.837047 474.472374,216.261876 C475.301899,217.678833 476.121431,219.833788 476.293332,222.325271 C476.453241,224.818721 475.923543,227.060268 475.287908,228.56972 C474.660266,230.087045 474.036623,230.92738 474.136566,230.998227" id="Fill-174" fill="#FFFFFE" fill-rule="nonzero"></path>
            <path d="M467.23601,330.996701 C467.272759,331.053661 468.43359,330.376244 469.693859,328.714232 C470.945482,327.088838 472.177648,324.344587 471.978771,321.193478 C471.769087,318.042368 470.191049,315.458826 468.738389,313.988036 C467.274921,312.482665 466.034107,311.943579 466.003842,312.004608 C465.926021,312.104287 467.041457,312.781705 468.342798,314.305385 C469.639816,315.800586 471.049243,318.27631 471.245957,321.236197 C471.431863,324.194049 470.355339,326.812175 469.259357,328.445708 C468.163378,330.105685 467.145219,330.907193 467.23601,330.996701" id="Fill-175" fill="#FFFFFE" fill-rule="nonzero"></path>
            <path d="M460.880312,377.99855 C460.940235,378.040573 461.759183,377.168595 462.580351,375.470867 C463.408175,373.783645 464.111716,371.220245 463.985211,368.354277 C463.847611,365.48831 462.913256,362.992146 461.934513,361.378463 C460.960209,359.754276 460.065802,358.953738 460.010319,359.002064 C459.903789,359.077707 460.6384,359.9812 461.461787,361.611692 C462.289612,363.231677 463.097463,365.637492 463.232846,368.385795 C463.350472,371.131996 462.764558,373.594542 462.08765,375.277562 C461.417399,376.968986 460.769343,377.929211 460.880312,377.99855" id="Fill-176" fill="#FFFFFE" fill-rule="nonzero"></path>
            <path d="M362.345519,188 C362.390806,188.010188 362.564076,187.285913 362.841699,185.964321 C362.989372,185.304565 363.14689,184.492879 363.272904,183.541749 C363.404826,182.588536 363.595816,181.51045 363.680482,180.301245 C363.942354,177.893241 364.050648,175.002387 363.977796,171.797265 C363.859658,168.592142 363.534778,165.074832 362.885017,161.434729 C362.203754,157.80087 361.262586,154.408435 360.238721,151.388544 C359.175478,148.385303 358.053164,145.74628 356.962356,143.615082 C356.454361,142.52867 355.897143,141.602515 355.438372,140.772096 C354.985509,139.935435 354.552336,139.246541 354.184138,138.692929 C353.459558,137.575299 353.042137,136.973818 353.002756,137.000875 C352.965347,137.027931 353.309916,137.683524 353.963614,138.838617 C354.296371,139.413041 354.696072,140.120666 355.113493,140.969815 C355.538791,141.812721 356.064505,142.749282 356.540996,143.844019 C357.570767,145.987705 358.63598,148.622565 359.657875,151.609156 C360.640391,154.612397 361.552025,157.973613 362.227382,161.57001 C362.871235,165.17057 363.211866,168.648335 363.361508,171.820159 C363.467833,174.994062 363.408764,177.85994 363.209897,180.255457 C363.154767,181.458418 362.997249,182.534423 362.90077,183.485554 C362.814135,184.436685 362.692059,185.250454 362.585735,185.91437 C362.388836,187.246369 362.300234,187.989376 362.345519,188" id="Fill-177" fill="#FFFFFE" fill-rule="nonzero"></path>
            <path d="M160.572679,395.680598 C160.572679,395.680598 167.335357,390.234125 172.353944,390.007631 C177.372532,389.781136 183.917452,391.823827 185.22603,391.142224 C186.536642,390.460622 189.591346,387.475963 191.555228,389.990697 C193.517077,392.503313 195.91851,401.582176 185.445822,404.077859 L178.245595,404.077859 C178.245595,404.077859 179.118659,411.567022 180.862748,414.517812 C182.608875,417.466484 207.044468,449.46583 207.044468,449.46583 C207.044468,449.46583 210.099172,452.643115 208.572838,455.8204 C207.044468,458.997685 200.499548,457.181488 200.499548,457.181488 C200.499548,457.181488 195.91851,461.493366 190.682167,459.450676 C185.445822,457.407984 183.264181,455.8204 183.264181,455.8204 C183.264181,455.8204 177.590289,460.585269 171.480881,455.8204 C165.371474,451.053413 145,424.50054 145,424.50054 L152.281632,394.7725 L160.572679,395.680598" id="Fill-178" fill="#AE6C5C" fill-rule="nonzero"></path>
            <path d="M138.62219,380 L160,397.039294 L144.302562,425 L113,413.622672 C113,413.622672 113.900572,380.599671 138.62219,380" id="Fill-179" fill="#AE6C5C" fill-rule="nonzero"></path>
            <path d="M477,341.411578 C477,341.411578 476.325028,333.612305 472.060431,335.217731 C467.795835,336.823155 466,346 466,346 L477,341.411578" id="Fill-180" fill="#AE6C5C" fill-rule="nonzero"></path>
            <path d="M460.610564,347.996041 C460.610564,347.996041 468.23495,339.338919 478.866136,340.040444 C489.495216,340.741969 482.79519,349.868196 482.79519,349.868196 C482.79519,349.868196 490.659614,354.783139 484.877631,361.802657 L483.949059,363.674814 C483.949059,363.674814 490.651192,366.250627 483.71955,373.504697 C483.71955,373.504697 486.261011,378.185087 482.79519,381.694847 C479.327263,385.204607 470.662708,380.524217 470.662708,380.524217 C470.662708,380.524217 462.690898,382.396372 461.99605,379.121167 C461.303306,375.843827 463.152026,373.504697 463.844769,373.035594 C464.537512,372.56862 468.698183,370.931017 468.698183,370.931017 C468.698183,370.931017 459.454587,372.099514 459.222972,369.760387 C458.99346,367.419126 458.069101,364.845444 465.000745,362.506315 L468.698183,361.504135 C468.698183,361.504135 459.113481,361.802657 459.052418,359.463529 C458.99346,357.122268 458.530228,356.186189 461.99605,354.548586 C465.461872,352.910982 468.23495,351.038826 468.23495,351.038826 C468.23495,351.038826 459.222972,352.910982 460.610564,347.996041" id="Fill-181" fill="#AE6C5C" fill-rule="nonzero"></path>
            <path d="M459.003935,358.98657 C459.18111,359.288832 463.460404,354.411215 470.322285,352.210071 C477.157066,349.88461 482.985079,351.420291 482.99967,351.052214 C483.024683,350.935212 481.626043,350.381878 479.262322,350.116181 C476.906938,349.843171 473.571881,349.999176 470.065903,351.149719 C466.564092,352.314887 463.654255,354.223519 461.767863,355.898143 C459.873134,357.572769 458.93098,358.901253 459.003935,358.98657" id="Fill-182" fill="#643B32" fill-rule="nonzero"></path>
            <path d="M461.189166,369.994175 C461.243315,369.933981 460.968406,369.724277 460.74973,369.233028 C460.528968,368.747602 460.451911,367.941796 460.770556,367.017546 C461.087116,366.103003 461.701496,365.044775 462.838619,364.343822 C463.961164,363.590441 465.421096,363.073949 467.018482,362.718618 C473.505914,361.320592 479,361.646798 479,361.373017 C479.008256,361.262341 477.652454,361.039044 475.430275,361.004095 C473.208096,360.969144 470.129951,361.149722 466.797722,361.864268 C465.13369,362.235133 463.546718,362.813761 462.324206,363.69141 C461.039217,364.549642 460.385266,365.821457 460.127018,366.858326 C459.854193,367.920437 460.052044,368.87187 460.424837,369.390305 C460.795546,369.916506 461.172506,370.029126 461.189166,369.994175" id="Fill-183" fill="#643B32" fill-rule="nonzero"></path>
            <path d="M464.575689,380.976692 C464.599905,380.896126 464.256851,380.751111 463.804824,380.265418 C463.364908,379.791234 462.811984,378.925735 462.705032,377.696542 C462.596062,376.48346 462.870506,374.925102 464.002586,373.94451 C465.092288,372.952408 466.751059,372.268755 468.34929,371.64495 C471.660775,370.593001 474.909705,371.071787 477.220279,371.113221 C479.555068,371.221408 481.008006,371.028052 481,370.885337 C480.99388,370.740319 479.569194,370.673565 477.264674,370.378928 C474.982351,370.162551 471.682973,369.520333 468.093008,370.645943 C466.359573,371.331898 464.769414,371.983323 463.459752,373.212517 C462.822074,373.820209 462.361978,374.65118 462.160182,375.47985 C461.970492,376.313123 461.96242,377.093453 462.067354,377.802426 C462.283277,379.234185 463.023872,380.159532 463.584867,380.583075 C464.164023,381.020427 464.565599,381.031937 464.575689,380.976692" id="Fill-184" fill="#643B32" fill-rule="nonzero"></path>
            <path d="M459.057048,348.999899 C459.129702,349.006345 459.268405,348.703417 459.765977,348.260842 C460.243734,347.81397 460.992291,347.208115 461.965417,346.518471 C463.913869,345.182153 466.734172,343.32162 470.153321,342.221628 C473.669342,341.134527 476.943183,340.526523 479.281326,340.930427 C481.61947,341.280619 482.911833,342.127097 482.997697,341.965966 C483.059344,341.907959 481.883666,340.818708 479.409021,340.253673 C476.927772,339.641373 473.400743,340.195667 469.864907,341.293509 C462.64132,343.822202 458.456,348.681933 459.057048,348.999899" id="Fill-185" fill="#643B32" fill-rule="nonzero"></path>
        </g>
    </g>
</svg>