<?xml version="1.0" encoding="UTF-8"?>
<svg  width="100%" height="35%" viewBox="0 0 500 500" version="1.1" xmlns="http://www.w3.org/2000/svg" xmlns:xlink="http://www.w3.org/1999/xlink">
    <title>Pending</title>
    <defs>
        <polygon id="path-1" points="0 0 108 0 108 38 0 38"></polygon>
        <polygon id="path-3" points="0 0 108 0 108 38 0 38"></polygon>
    </defs>
    <g id="Pending" stroke="none" stroke-width="1" fill="none" fill-rule="evenodd">
        <g id="pending-copy" transform="translate(35.000000, 0.000000)">
            <path d="M14.5,431 C14.9579616,431 15.3313765,433.238933 15.3313765,436 C15.3313765,438.761067 14.9579616,441 14.5,441 C14.0396899,441 13.6686235,438.761067 13.6686235,436 C13.6686235,433.238933 14.0396899,431 14.5,431" id="Fill-4" fill="#FAF9F6" fill-rule="nonzero"></path>
            <path d="M13.5,431 C13.9603102,431 14.3313765,433.238934 14.3313765,436 C14.3313765,438.762485 13.9603102,441 13.5,441 C13.0396898,441 12.6686235,438.762485 12.6686235,436 C12.6686235,433.238934 13.0396898,431 13.5,431" id="Fill-5" fill="#FAF9F6" fill-rule="nonzero"></path>
            <path d="M13.5,441 C13.9579616,441 14.3313765,449.507464 14.3313765,459.998553 C14.3313765,470.493984 13.9579616,479 13.5,479 C13.0396899,479 12.6686235,470.493984 12.6686235,459.998553 C12.6686235,449.507464 13.0396899,441 13.5,441" id="Fill-12" fill="#D4D5CF" fill-rule="nonzero"></path>
            <path d="M392.741922,361.657104 C400.031697,357.823359 408.61484,357.325797 416.709712,358.688502 C421.057517,359.42087 425.58911,360.747236 428.548908,364.075033 C431.507336,367.404229 432.068299,373.260369 428.669604,376.119956 C426.647945,377.822289 423.828043,378.079457 421.205644,378.050106 C414.870467,377.974633 407.839915,376.838347 402.777535,380.722407 C399.890428,382.939075 397.968889,386.623273 394.515333,387.713438 C391.137212,388.779842 387.325683,386.747663 385.534441,383.642092 C383.744572,380.533726 383.684223,376.651061 384.518124,373.149956 C384.518124,373.149956 385.398658,365.517406 392.741922,361.657104" id="Fill-14" fill="#E4E4DE" fill-rule="nonzero"></path>
            <path d="M375.33454,329.836536 C379.925696,336.368422 388.849494,334.205666 392.987187,330.219273 C397.124878,326.231473 398.872344,320.453809 400.464416,314.94209 C404.103438,302.352519 407.769299,289.14522 405.065461,276.323475 C404.257417,272.490458 402.817913,268.6687 400.112663,265.823489 C397.408823,262.98109 393.251354,261.288316 389.449875,262.29019 C384.950543,263.472177 382.154881,267.862415 380.133359,272.037364 C374.191694,284.311738 371.045693,297.920068 371.000488,311.545283 C370.977884,317.909721 371.730834,324.582322 375.33454,329.836536" id="Fill-15" fill="#E4E4DE" fill-rule="nonzero"></path>
            <path d="M363.216409,337.717962 C368.139314,331.873228 369.073954,323.350993 366.882432,316.03147 C364.692304,308.710553 359.742894,302.482121 354.040192,297.397802 C347.352628,291.437261 339.493277,286.798028 331.043847,283.826129 C327.716806,282.656903 324.211206,281.734639 320.70142,282.069499 C317.191636,282.402966 313.658136,284.197268 312.020421,287.319855 C309.601516,291.938158 311.921379,297.537328 314.430959,302.105402 C318.853064,310.156039 323.908493,317.855073 329.535866,325.111807 C334.062595,330.949568 339.249154,336.709192 346.148756,339.347624 C353.048356,341.984661 360.215794,341.674914 363.873448,336.889179" id="Fill-16" fill="#E4E4DE" fill-rule="nonzero"></path>
            <path d="M375.084512,427 C375.168403,427.004191 375.306822,425.947187 375.495575,424.035583 C375.703902,421.876598 375.965362,419.168024 376.277154,415.943599 C376.653262,412.539259 377.146818,408.486941 378.087787,404.074792 C379.025962,399.673889 380.494045,394.904719 382.37878,390.066677 C384.332028,385.259558 386.71172,380.888171 389.494084,377.393873 C392.256875,373.882708 395.469876,371.341399 398.48993,369.875369 C401.498799,368.381225 404.198672,367.77401 406.065231,367.504138 C407.947174,367.310166 409,367.161174 409,367.076837 C409.001395,366.992502 407.947174,366.978447 406.013499,367.030454 C404.098003,367.159768 401.286276,367.646102 398.113821,369.096671 C394.931579,370.514912 391.522834,373.095577 388.62442,376.679833 C385.703637,380.248628 383.237259,384.715593 381.250455,389.608455 C379.332162,394.530833 377.886451,399.349198 376.990223,403.845681 C376.095392,408.335137 375.687124,412.432434 375.420074,415.864886 C375.164208,419.300149 375.067734,422.083219 375.021594,424.006067 C374.97825,425.928914 375.000622,426.994351 375.084512,427" id="Fill-17" fill="#D4D5CF" fill-rule="nonzero"></path>
            <path d="M375.649055,421 C375.691763,420.998577 375.718811,420.526135 375.730201,419.631569 C375.727353,418.602819 375.723083,417.309891 375.718811,415.719242 C375.708846,412.324085 375.711694,407.41236 375.896762,401.344687 C376.202838,389.210741 377.266274,376.151478 379.320539,357.740198 C381.266612,340.430349 383.878932,320.283051 386.636461,307.181855 C387.228683,304.204628 387.823751,301.522328 388.383228,299.175491 C388.917081,296.821665 389.375483,294.793517 389.813955,293.152548 C390.194058,291.608023 390.501558,290.350041 390.746417,289.350643 C390.945723,288.477044 391.031139,288.012988 390.989855,288 C390.948571,287.989227 390.783431,288.429519 390.505828,289.283551 C390.202599,290.267572 389.818225,291.508784 389.348435,293.030943 C388.835935,294.657934 388.310624,296.673503 387.709862,299.016146 C387.083474,301.354597 386.42719,304.029909 385.779449,307.004339 C383.051817,318.872712 380.16474,335.461316 378.089118,353.915928 C376.030581,372.36495 375.102389,389.164615 375.021243,401.329312 C374.947217,407.410962 375.078188,412.33387 375.236208,415.731822 C375.334437,417.319675 375.415583,418.614 375.479645,419.642751 C375.549402,420.534521 375.606347,421.002771 375.649055,421" id="Fill-18" fill="#D4D5CF" fill-rule="nonzero"></path>
            <path d="M375.945555,388 C376.028654,387.997193 376.014805,386.538617 375.91647,383.899155 C375.768276,381.2639 375.410949,377.454774 374.676907,372.790135 C373.899929,368.135312 372.814101,362.609553 371.109181,356.604147 C370.369598,353.859499 368.632825,347.280479 364.425235,337.451919 C358.879749,324.132594 351.349577,313.246568 344.797205,306.500653 C343.259871,304.712494 341.548027,303.420813 340.179659,302.155778 C339.470546,301.548506 338.844532,300.942636 338.206054,300.462989 C337.564805,300.017002 336.967876,299.599063 336.415265,299.213382 C334.257457,297.719744 333.049748,296.932955 333.005428,297.004481 C332.811531,297.269548 337.836263,300.263838 344.179502,307.098108 C350.49781,313.916952 357.820235,324.73005 363.318632,337.935774 C366.384991,345.099627 368.523411,351.48791 370.039971,356.912692 C371.793364,362.860597 372.958139,368.330257 373.836221,372.937395 C374.672751,377.555751 375.156113,381.327012 375.448345,383.937022 C375.689332,386.552641 375.862455,388.0014 375.945555,388" id="Fill-19" fill="#D4D5CF" fill-rule="nonzero"></path>
            <polyline id="Fill-20" fill="#E4E4DE" fill-rule="nonzero" points="342 442 345.265723 486 402.734278 486 406 442 342 442"></polyline>
            <polygon id="Fill-21" fill="#E4E4DE" fill-rule="nonzero" points="337 440 414 440 414 423 337 423"></polygon>
            <polygon id="Fill-22" fill="#D4D5CF" fill-rule="nonzero" points="337 488 411 488 411 483 337 483"></polygon>
            <polyline id="Fill-23" fill="#D4D5CF" fill-rule="nonzero" points="343.476956 496 340 488 408 488 403.942392 496 343.476956 496"></polyline>
            <path d="M404.998568,455.49564 C405.012863,455.507265 404.919957,455.651128 404.727001,455.919964 C404.495452,456.232393 404.208163,456.621843 403.855123,457.098479 C403.023266,458.178181 401.885537,459.660407 400.450511,461.526269 L400.299005,461.722445 L400.153215,461.51755 C398.013541,458.508049 395.154927,454.490052 391.790336,449.758552 L392.272012,449.758552 C389.785017,453.340599 387.01359,457.328079 384.037771,461.610553 L383.780496,461.982562 L383.490346,461.633802 C380.453067,457.957299 377.152796,453.965458 373.726744,449.822491 L374.289893,449.815224 C374.121233,450.030293 373.936853,450.265705 373.752473,450.501118 C370.725199,454.36072 367.793689,458.09535 365.02369,461.629444 L364.730682,462 L364.463402,461.613458 C361.499017,457.349877 358.729018,453.365302 356.224872,449.764364 L356.705119,449.787614 C352.644456,454.490052 349.202683,458.477532 346.561322,461.537894 L346.381229,461.74715 L346.242587,461.513189 C344.904754,459.227365 343.838491,457.408003 343.066664,456.085625 C342.735065,455.498547 342.464925,455.021908 342.251959,454.64118 C342.071866,454.312765 341.986108,454.136933 342.00183,454.126761 C342.017552,454.118042 342.133328,454.273531 342.342005,454.584506 C342.579271,454.950704 342.876568,455.408451 343.2439,455.975185 C344.057176,457.271405 345.176324,459.058797 346.578474,461.301029 L346.262596,461.276324 C348.861078,458.178181 352.248538,454.139838 356.243453,449.382182 L356.495011,449.081377 L356.7237,449.405432 C359.249287,452.988934 362.043583,456.95607 365.033695,461.20076 L364.474837,461.184776 C367.239117,457.647775 370.162052,453.90588 373.185037,450.040466 C373.36799,449.805051 373.55094,449.571093 373.721028,449.354572 L373.999743,449 L374.284175,449.347306 C377.701651,453.498994 380.990486,457.498099 384.022049,461.180416 L383.476054,461.203666 C386.479028,456.941539 389.277613,452.974401 391.790336,449.411246 L392.033318,449.063939 L392.272012,449.411246 C395.565138,454.193605 398.363722,458.256651 400.457658,461.296668 L400.160363,461.286496 C401.65256,459.468589 402.837456,458.022692 403.700757,456.972054 C404.085241,456.520121 404.396829,456.15247 404.648388,455.856025 C404.868502,455.607534 404.987135,455.484016 404.998568,455.49564" id="Fill-24" fill="#F1F0EC" fill-rule="nonzero"></path>
            <path d="M408,440.498827 C408,440.829967 393.671621,441.097699 376.001398,441.097699 C358.325581,441.097699 344,440.829967 344,440.498827 C344,440.170033 358.325581,439.902301 376.001398,439.902301 C393.671621,439.902301 408,440.170033 408,440.498827" id="Fill-25" fill="#F1F0EC" fill-rule="nonzero"></path>
            <polygon id="Fill-51" fill="#F1F0EC" fill-rule="nonzero" points="65 70 103 70 103 36 65 36"></polygon>
            <path d="M102.67509,69.6604982 C102.662699,69.6493668 102.650309,69.4239599 102.637918,68.998191 C102.629657,68.5237233 102.617267,67.9101153 102.602123,67.1378874 C102.581472,65.4626403 102.55256,63.1139548 102.518142,60.1530528 C102.476839,54.1227196 102.420393,45.6087347 102.351556,35.3902834 L102.673713,35.7158714 C91.9268922,35.7325682 79.1480052,35.7520477 65.465978,35.7715274 C65.3792434,35.8550114 66.1805052,35.04939 65.8418276,35.3944575 L65.8418276,37.7167065 C65.8418276,38.4917171 65.8418276,39.2625533 65.8418276,40.0306068 C65.8404507,41.5667139 65.8404507,43.0875156 65.8390741,44.5944032 C65.8363206,47.6081785 65.833567,50.5593406 65.8308137,53.4353672 C65.818423,59.1846375 65.8060323,64.6319737 65.7963951,69.6604982 L65.4632245,69.3251703 C76.4991604,69.3947405 85.7453363,69.4545707 92.3054953,69.4949214 C95.5325704,69.5324893 98.0960575,69.5631 99.9188594,69.5839711 C100.764177,69.6006678 101.436025,69.6131905 101.950925,69.6229303 C102.414886,69.6354528 102.661322,69.6493668 102.67509,69.6604982 C102.68748,69.6744122 102.465826,69.6869347 102.025269,69.6994574 C101.52689,69.7105885 100.875693,69.7231112 100.05791,69.739808 C98.2530057,69.7606791 95.7142998,69.7898984 92.517513,69.8274662 C85.9077914,69.8692083 76.5872716,69.9276471 65.4632245,69.9972172 L65.1314304,70 L65.1300537,69.6604982 C65.1190399,64.6319737 65.108026,59.1846375 65.0956353,53.4353672 C65.0928818,50.5593406 65.0901283,47.6081785 65.0873747,44.5944032 C65.0873747,43.0875156 65.0859981,41.5667139 65.0846214,40.0306068 C65.0846214,39.2625533 65.0846214,38.4917171 65.0846214,37.7167065 L65.0846214,35.3944575 C64.744567,35.7339595 65.5444521,34.9213811 65.465978,35.0062567 C79.1480052,35.0271277 91.9268922,35.0466074 102.673713,35.063304 L103,35.063304 L102.997247,35.3902834 C102.92841,45.6936103 102.871963,54.2799478 102.832038,60.3589803 C102.796243,63.2892714 102.767331,65.614303 102.74668,67.271462 C102.732913,68.0172532 102.719145,68.6113815 102.710885,69.0705439 C102.698494,69.4726589 102.686104,69.6730207 102.67509,69.6604982" id="Fill-52" fill="#D4D5CF" fill-rule="nonzero"></path>
            <polygon id="Fill-53" fill="#F1F0EC" fill-rule="nonzero" points="65 92 103 92 103 75 65 75"></polygon>
            <path d="M102.720978,91.6351735 C102.70164,91.615753 102.682302,91.1871164 102.661582,90.3908791 C102.645007,89.5266701 102.621524,88.380865 102.592517,86.9423665 C102.556603,83.9141673 102.505495,79.6721915 102.444718,74.4675175 L102.719597,74.7449522 C92.9828315,74.7726956 79.8466937,74.8087622 65.3886543,74.8489903 C65.0474738,75.1902348 65.8486262,74.3842871 65.7657484,74.4689047 L65.7657484,76.7175126 C65.7657484,77.4638118 65.7657484,78.2073365 65.764367,78.9453127 C65.764367,80.4226522 65.7616046,81.8805713 65.7616046,83.3176827 C65.7560793,86.1891313 65.7519355,88.9704137 65.7464102,91.6351735 L65.3858917,91.2731212 C76.1544857,91.34248 85.4188472,91.4021284 92.083607,91.4451308 C95.3462313,91.486746 97.969315,91.5214253 99.8630736,91.5450073 C100.725003,91.5644276 101.419796,91.5782993 101.964027,91.5907839 C102.447481,91.6060427 102.705784,91.6199145 102.720978,91.6351735 C102.734791,91.6504323 102.505495,91.664304 102.051049,91.679563 C101.526156,91.6906604 100.856226,91.7059192 100.024685,91.7253397 C98.150265,91.7489217 95.5548072,91.783601 92.3267153,91.8252162 C85.6011784,91.8682186 76.2525579,91.927867 65.3858917,91.9986129 L65.0253729,92 L65.0253729,91.6351735 C65.0198479,88.9704137 65.0157038,86.1891313 65.0101788,83.3176827 C65.0087973,81.8805713 65.0087973,80.4226522 65.0074161,78.9453127 C65.0074161,78.2073365 65.0060349,77.4638118 65.0060349,76.7175126 L65.0060349,74.4689047 C64.9231569,74.5493607 65.727072,73.7434132 65.3886543,74.0846577 C79.8466937,74.1262729 92.9828315,74.1623395 102.719597,74.190083 L103,74.1914701 L102.995856,74.4675175 C102.935079,79.7429373 102.883971,84.0417872 102.848057,87.1129887 C102.81905,88.5237439 102.795568,89.6501286 102.778992,90.4963042 C102.758273,91.2634111 102.738935,91.654594 102.720978,91.6351735" id="Fill-54" fill="#D4D5CF" fill-rule="nonzero"></path>
            <path d="M122,19 C122,22.8665354 118.866535,26 115,26 C111.134843,26 108,22.8665354 108,19 C108,15.1334645 111.134843,12 115,12 C118.866535,12 122,15.1334645 122,19" id="Fill-60" fill="#D4D5CF" fill-rule="nonzero"></path>
            <path d="M25.9513028,17 C3.4577025,52.3532904 4.93092328,101.365838 29.5074979,135.306006 C45.8923483,157.931383 70.468923,173.096199 89.9852438,193.088602 C109.500163,213.081003 124.323483,242.542313 114.023553,268.503726 C103.538595,294.931511 72.8294405,305.683293 49.8312165,322.423691 C24.7808563,340.658443 7.18631077,368.824272 1.79664957,399.319163 C-3.59301162,429.812654 3.28108422,462.296282 20.5658468,488 L259.451891,488 C259.451891,488 301.415555,408.094812 247.462873,347.200265 C193.508791,286.305717 164.534981,285.308548 166.531048,245.376963 C168.529919,205.445376 196.505695,192.468171 212.492452,177.493827 C228.479211,162.520883 306.411329,127.580745 260.449925,17 L25.9513028,17" id="Fill-98" fill="#FAF9F6" fill-rule="nonzero"></path>
            <path d="M26.2099375,17.2587535 C26.2099375,17.2587535 27.5942856,17.2363749 30.3140402,17.2251855 C33.0407866,17.2181922 37.0875578,17.2070028 42.3928273,17.1930162 C53.0285362,17.1776308 68.7052301,17.1538535 88.8957377,17.1258801 C129.320101,17.0951094 187.8179,17.0531494 260.139602,17 L260.31579,17 L260.378715,17.1594481 C263.634032,25.4297711 266.925704,33.944861 269.258121,42.969066 C271.659056,51.955507 273.625109,61.3153921 274.321479,71.017951 C275.052806,80.69953 274.738181,90.6972078 272.809882,100.624952 C270.820056,110.526122 267.273888,120.333581 262.038536,129.406739 C259.434842,133.95241 256.371099,138.268699 253.062645,142.433931 C249.71504,146.573988 246.008064,150.465082 242.084347,154.181343 C238.155034,157.892009 233.969829,161.38728 229.623815,164.731494 C225.287589,168.088297 220.761189,171.259077 216.341064,174.607488 C214.127506,176.277497 212.106916,178.150314 209.996834,180.027326 C207.876963,181.867973 205.695566,183.644281 203.491797,185.403804 C199.08845,188.925652 194.640358,192.448896 190.442567,196.305022 C181.965882,203.889998 174.807823,213.361777 170.870122,224.384678 C168.958603,229.884239 167.589636,235.648151 167.143569,241.547731 C167.024711,243.021927 166.826147,244.491926 166.771613,245.973116 C166.742247,247.454305 166.658348,248.938292 166.729663,250.423678 C166.747841,253.394449 167.08344,256.36382 167.623196,259.291232 C168.741862,265.146054 171.200128,270.756112 174.77706,275.61928 C178.298059,280.527205 182.641277,284.849089 187.135514,289.004532 C196.184116,297.279051 205.779467,305.175929 214.973496,313.705006 C224.209475,322.185128 233.179771,331.138002 241.820062,340.546841 C246.105946,345.267344 250.465945,350.018619 254.213473,355.286002 C258.089648,360.456878 261.343564,366.104697 264.204552,371.948332 C269.841225,383.691547 273.324469,396.574677 274.466905,409.74873 C275.693242,422.922781 274.75636,436.347195 272.144276,449.483484 C270.855014,456.058622 269.137863,462.57082 267.031977,468.978118 C264.924691,475.385415 262.492993,481.701799 259.467003,487.805585 L259.370518,488 L259.143989,488 C257.210097,488 255.109804,488 253.008112,488 C171.658781,487.994406 93.1676403,487.98881 20.837548,487.983216 L20.6501716,487.983216 L20.5480933,487.829362 C9.19364208,470.779601 2.45228619,451.194055 0.59250537,431.565151 C-1.38333696,411.933448 1.63705896,392.244401 8.83706756,374.770843 C15.943388,357.234347 26.9916048,341.854595 40.3386784,329.764509 C46.9933378,323.673312 54.411486,318.687061 61.8450159,314.075653 C69.2855375,309.454454 76.7875858,305.181524 83.8827195,300.505777 C90.9456916,295.821639 97.752769,290.829794 103.280373,284.723209 C108.826156,278.669774 113.0631,271.55615 115.28365,263.911031 C117.511192,256.260319 117.532167,248.234762 116.228923,240.680557 C114.907499,233.098379 112.239483,225.928808 108.863911,219.324299 C105.47855,212.711396 101.373049,206.641178 96.8690236,201.099655 C92.3761846,195.54135 87.3827431,190.608249 82.3543433,185.950684 C72.2667802,176.662131 61.9428991,168.538668 52.6495883,160.19002 C47.9959413,156.024787 43.5842056,151.820391 39.5262478,147.499906 C35.4976548,143.155644 31.8130515,138.700887 28.6486274,134.086682 C22.2652443,124.879251 17.8884669,115.180888 15.0134975,105.818206 C12.1329348,96.4443339 10.7024417,87.3823648 10.3738338,79.0449059 C10.1780674,76.9636881 10.2549756,74.921633 10.2577723,72.9285314 C10.2843406,70.9368284 10.2242124,68.988484 10.4297671,67.0974851 C10.5765919,65.2050875 10.7178234,63.3602446 10.8562582,61.5629564 C11.0716012,59.7754589 11.3666491,58.0453067 11.6071622,56.3571147 C13.7060577,42.8543753 17.7779988,32.9881723 20.9536096,26.6731868 C21.7143018,25.0689148 22.3855009,23.6576589 23.1098365,22.516346 C23.790824,21.3554517 24.3613433,20.3819789 24.8199959,19.5987248 C25.7386998,18.0378116 26.2099375,17.2587535 26.2099375,17.2587535 C26.1134526,17.429391 25.7247165,18.1161369 24.8605476,19.644881 C24.4088866,20.4295335 23.8495539,21.4044051 23.1839482,22.5680967 C22.4749941,23.7052136 21.8121851,25.1192668 21.0612811,26.7263363 C17.9248237,33.0511123 13.8962307,42.9145179 11.8392852,56.39348 C11.6043655,58.0788748 11.3135126,59.8062296 11.1037628,61.5909297 C10.969523,63.3826232 10.8324865,65.2246688 10.691255,67.1128703 C10.4898953,68.9982747 10.5542186,70.9424229 10.5318453,72.92993 C10.5332436,74.917437 10.4605304,76.955296 10.6604918,79.0309192 C11.0058796,87.3459995 12.4517543,96.3799953 15.3393088,105.7189 C18.2212698,115.046616 22.5980474,124.703019 28.9688454,133.862895 C32.1262778,138.45612 35.8052878,142.889897 39.8282873,147.217375 C43.8820502,151.519678 48.2881927,155.710087 52.9404413,159.86413 C62.2309555,168.1904 72.5632265,176.302674 82.6815527,185.598219 C87.7211393,190.255784 92.7397508,195.201473 97.2577597,200.783556 C101.786955,206.343262 105.917626,212.438655 109.328157,219.085126 C112.730297,225.726001 115.423484,232.94033 116.763085,240.588245 C118.084508,248.20679 118.070525,256.320462 115.822008,264.066284 C113.581881,271.803715 109.297394,279.001258 103.705466,285.113438 C98.1331152,291.280164 91.2910795,296.299983 84.2099291,301.003704 C77.096617,305.697633 69.5903738,309.977555 62.1666322,314.594559 C54.7470855,319.205966 47.3722855,324.167041 40.7581778,330.230266 C27.4866139,342.263006 16.5027205,357.571425 9.44254508,375.018408 C2.29007975,392.40245 -0.705146211,411.975409 1.26650112,431.500813 C3.12208696,451.020621 9.83547622,470.495673 21.1256042,487.441932 L20.837548,487.286679 C93.1676403,487.282484 171.658781,487.276888 253.008112,487.272693 C255.109804,487.272693 257.210097,487.272693 259.143989,487.272693 L258.820975,487.465709 C261.812006,481.437451 264.246501,475.122466 266.341202,468.750135 C268.437299,462.37221 270.14606,455.887986 271.432527,449.342218 C274.030626,436.264675 274.964711,422.908796 273.745367,409.814467 C272.611319,396.71874 269.151848,383.923727 263.555726,372.258837 C260.715714,366.455763 257.485569,360.844309 253.634563,355.7084 C249.915002,350.477383 245.581572,345.752682 241.295688,341.029381 C232.66938,331.63313 223.718661,322.694244 214.496664,314.223912 C205.316618,305.703227 195.738049,297.817537 186.664275,289.515046 C182.157454,285.34282 177.784871,280.994361 174.214931,276.022096 C170.594651,271.09459 168.084646,265.368443 166.951997,259.421308 C166.403851,256.44774 166.068252,253.439205 166.048675,250.437664 C165.978759,248.935494 166.062658,247.440319 166.09482,245.945144 C166.150753,244.449967 166.347918,242.968777 166.468175,241.481994 C166.921234,235.534859 168.30698,229.713603 170.238076,224.155296 C174.220524,213.016305 181.473669,203.442425 189.997898,195.822483 C194.222258,191.946774 198.685731,188.415137 203.087679,184.898886 C205.29005,183.140761 207.467253,181.370047 209.573139,179.541987 C211.646866,177.698544 213.723388,175.778173 215.952327,174.099772 C220.394826,170.737374 224.911438,167.576385 229.239274,164.230771 C233.574101,160.899144 237.745324,157.419259 241.659253,153.726776 C245.566191,150.031495 249.254989,146.161381 252.585815,142.047899 C255.878886,137.907842 258.925849,133.619527 261.51556,129.104627 C266.724344,120.09301 270.252334,110.354086 272.237966,100.513059 C274.16067,90.6454571 274.480889,80.7009286 273.762147,71.0599111 C273.075566,61.4021095 271.123495,52.0715963 268.737941,43.1103315 C266.420907,34.1113025 263.144616,25.6143952 259.901885,17.3566603 L260.139602,17.5161084 C187.861248,17.462959 129.398408,17.4196003 88.997816,17.3902283 C68.7919266,17.3608563 53.1026477,17.3384776 42.4599471,17.3244909 C37.1406943,17.3091056 33.0827365,17.2979162 30.3489985,17.2909229 C27.6180571,17.2797336 26.2099375,17.2587535 26.2099375,17.2587535" id="Fill-99" fill="#132529" fill-rule="nonzero"></path>
            <path d="M199.030737,175.83355 C180.850307,189.992863 161.325828,205.346754 152.693908,226.645661 C142.898732,250.810442 150.158571,277.97073 145.411646,302.280477 C144.622594,306.314445 138.625519,305.680218 138.685784,301.569585 C138.919837,285.613525 138.490973,269.665829 135.832303,253.957886 C132.062232,231.679062 123.449934,209.638596 107.750183,193.310362 C94.9347464,179.983212 78.1306033,171.126324 64.4602437,158.667579 C44.5012943,140.475692 23.9999593,117.01344 22,90.1625995 C22,90.1625995 60.3215752,59.4631801 81.5923408,63.3382431 C106.449579,67.8670486 130.922802,106.016904 169.440589,101.647004 C196.335628,98.597134 209.906479,76.9929611 250.714339,83.6642026 C285.892321,89.415465 230.426035,151.383018 199.030737,175.83355 Z" id="Fill-100" fill="#2CB77C" fill-rule="nonzero"></path>
            <path d="M243.193256,392.535158 C238.46635,390.01043 232.711427,390.290485 227.536339,391.658398 C222.35845,393.027719 217.494289,395.392013 212.364018,396.923174 C202.267346,399.936242 191.205684,399.584411 181.320495,395.935237 C171.781247,392.414129 163.593544,386.050237 154.737772,381.045817 C145.880599,376.042802 135.513616,372.314818 125.652238,374.78044 C108.649379,379.031945 99.8020098,399.601299 82.9924286,404.566315 C75.5204142,406.77299 67.4965772,405.534551 59.9013132,403.804958 C52.3060492,402.075364 44.6813733,399.857431 36.8998341,400.148745 C30.8017741,400.378138 24.4572145,402.496152 20.1826902,406.695588 L20.2275081,406.637887 L20.1042585,406.771582 C19.4011748,407.469612 18.7555144,408.226749 18.177081,409.042994 C12.9627775,416.026104 12.1294413,425.417135 13.7330883,433.945478 C15.5300132,443.495536 19.9684037,452.320824 24.7331259,460.777396 C30.3451898,470.739797 36.7191612,480.657164 45.9979044,487.299704 C53.6870063,492.803723 62.7080454,492.057844 72.0484136,491.311966 C76.6114544,490.948878 81.2515263,490.584384 85.8495812,490.948878 C118.527564,493.53975 153.687348,495.307341 186.369533,492.76291 C203.632896,491.418923 219.815025,493.297692 233.513951,482.655556 C243.154039,475.168626 249.420168,463.883346 252.443988,452.023881 C255.466407,440.164415 255.452402,427.712468 254.228307,415.533543 C253.338949,406.699809 250.995804,396.702225 243.193256,392.535158 Z" id="Fill-101" fill="#2CB77C" fill-rule="nonzero"></path>
            <path d="M192.510569,398.502348 C192.503522,398.502348 192.496478,398.5 192.489431,398.5 C192.489431,398.5 192.489431,398.5 192.489431,398.497653 C192.496478,398.5 192.503522,398.502348 192.510569,398.502348" id="Fill-102" fill="#AEB0AC" fill-rule="nonzero"></path>
            <path d="M210.157893,487 C206.957561,487 203.736283,485.331073 201.127983,483.303618 C193.645182,477.489795 188.848871,468.495593 187.455357,459.080995 C186.061846,449.666398 187.941273,439.900301 192.07294,431.339148 C194.31122,426.702149 197.286746,421.803634 196.372167,416.792639 C196.515987,416.705467 196.658409,416.621106 196.798039,416.538152 C198.229254,415.672054 199.36026,414.987331 200.185477,414.4882 C200.537347,414.266051 200.822193,414.086082 201.056773,413.938452 C201.249464,413.813318 201.347204,413.743018 201.340222,413.731769 C201.338826,413.730365 201.337429,413.730365 201.334638,413.730365 C201.312296,413.730365 201.204782,413.779574 201.016279,413.875182 C200.773323,414.00594 200.475909,414.166225 200.108681,414.361659 C199.268105,414.831265 198.116153,415.475215 196.658409,416.289289 C196.543912,416.353966 196.429414,416.420047 196.310729,416.48613 C196.298162,416.427079 196.285596,416.366619 196.271633,416.307568 C195.502267,413.009085 193.104812,410.392513 191.331502,407.513017 C189.558195,404.633523 190.341521,400.835908 192.181853,398 C192.186043,398 192.190231,398.001406 192.194421,398.001406 C193.963539,398.338848 195.749414,398.44711 197.54227,398.44711 C198.377262,398.44711 199.213649,398.423207 200.050037,398.388057 C202.150081,401.4194 204.786305,403.988169 207.950335,405.873619 L209.603561,436.840837 L218.031662,435.368752 C217.61277,445.548216 218.031662,455.761422 219.292526,465.870585 C219.784026,469.801769 220.398401,473.807473 219.652773,477.699289 C218.907145,481.5897 216.47897,485.425277 212.724304,486.611943 C211.878143,486.879084 211.019415,487 210.157893,487" id="Fill-103" fill="#229564" fill-rule="nonzero"></path>
            <path d="M4.00462332,499 C4.00462332,499 3.35007887,488.077612 17.6171899,482 L268.318905,482 C268.318905,482 281.393011,488.603975 283,498.773818 L4.00462332,499" id="Fill-104" fill="#132529" fill-rule="nonzero"></path>
            <path d="M262.936574,17.8264932 C262.806359,17.8847702 262.673344,17.9430474 262.538929,18 L26.5403744,16.5629386 C26.5403744,16.5629386 25.7030779,16.0556625 24.4485336,15.1272015 C17.72496,10.1524521 21.4983941,-0.0645918292 30.0337762,0.000307723886 L259.087531,1.74994669 C268.542819,1.82146864 271.485959,14.0040419 262.936574,17.8264932" id="Fill-105" fill="#132529" fill-rule="nonzero"></path>
            <path d="M142.273564,155 C136.318734,155 130.366696,153.993665 124.95918,152.152199 C118.686014,149.980855 113.335742,146.92427 108.657046,143.855158 C103.965785,140.754034 99.9223642,137.693273 96.1107142,134.763351 C92.3144226,131.826469 88.8546172,128.996762 85.7620149,126.334081 C73.4013787,115.655522 66.8992344,107.805278 68.15303,106.289513 C68.3135939,106.094648 68.587251,106 68.9712084,106 C71.6868343,106 79.8853722,110.740768 91.8355229,118.062095 C95.2450648,120.148534 98.9729421,122.431229 102.974477,124.880951 C106.971822,127.308402 111.272145,129.986394 115.656241,132.465345 C120.054298,134.941512 124.643636,137.194978 129.403312,138.657851 C133.385299,139.843739 137.59068,140.506278 142.022247,140.506278 C142.852991,140.506278 143.68932,140.482616 144.535423,140.435291 C155.254117,139.891064 165.655873,136.124617 174.6684,131.788888 C183.727002,127.369646 191.827805,122.369986 198.892623,118.42677 C205.949061,114.439013 211.984872,111.492387 216.378741,109.926514 C219.154403,108.934099 221.25151,108.453897 222.534625,108.453897 C223.284389,108.453897 223.756307,108.61814 223.923853,108.938274 C224.398564,109.843001 222.630964,111.799994 219.257722,114.784201 C215.871916,117.772583 210.93213,121.871691 204.651983,126.920066 C198.336931,131.925293 190.685707,137.960516 180.941567,143.592092 C176.06042,146.403704 170.626376,148.955034 164.684111,151.030337 C161.696225,152.029713 158.599433,152.958101 155.342078,153.605329 C152.102874,154.297097 148.724049,154.75642 145.248885,154.915095 C144.258973,154.972162 143.266269,155 142.273564,155" id="Fill-106" fill="#FFFFFF" fill-rule="nonzero"></path>
            <path d="M139.558036,331.190887 C142.230334,330.252394 145.425536,332.935243 144.953189,335.72477 C144.482287,338.511414 140.583621,340.000605 138.36778,338.24039 C136.15194,336.478735 136.734067,332.352829 139.351475,331.270175" id="Fill-107" fill="#2CB77C" fill-rule="nonzero"></path>
            <path d="M53.9989388,149 C53.9808482,149.015522 53.6969656,148.724792 53.1709476,148.155973 C52.6073569,147.532379 51.851728,146.695301 50.8998861,145.641933 C49.9396946,144.526766 48.6761383,143.237443 47.3847505,141.589974 C46.0738803,139.943909 44.5904542,138.080149 42.9539539,136.026782 C41.442696,133.868078 39.7254841,131.54224 37.9985309,128.966402 C37.1788894,127.647584 36.3300244,126.283822 35.4561111,124.880735 C35.0275038,124.174276 34.5599322,123.476243 34.1438494,122.734671 C33.7416822,121.984673 33.3339488,121.224843 32.920649,120.455181 C29.4959661,114.370923 26.4470103,107.243127 24.2789259,99.458029 C22.1094498,91.6687174 21.0922035,83.9692934 21.000359,76.9580702 C20.9934011,75.2080735 21.0894203,73.4988071 21.1283845,71.8401022 C21.1659572,71.0114519 21.1520414,70.1912289 21.2341448,69.392073 C21.3176397,68.5915127 21.4011345,67.8035928 21.4832379,67.0283133 C21.6585772,65.4819678 21.7810365,63.9819706 21.9869905,62.5507935 C22.24165,61.1308522 22.4865683,59.7670907 22.7203541,58.4623179 C23.1183466,55.8429407 23.8043964,53.5437875 24.2956247,51.503061 C24.5628085,50.4890179 24.7729374,49.532559 25.037338,48.6744144 C25.3128712,47.824697 25.566139,47.0437995 25.79575,46.3345311 C26.2452309,44.9834101 26.6028674,43.9075692 26.8686595,43.1084136 C27.1219275,42.3724598 27.2652603,41.9918426 27.2889173,42 C27.3125742,42.0072919 27.2137718,42.4061676 27.0064261,43.1547617 C26.7740321,43.9637491 26.4595346,45.0508256 26.0657168,46.4173961 C25.855588,47.1294735 25.6231939,47.9145845 25.3699259,48.7685154 C25.1250075,49.6308734 24.9357524,50.5873323 24.6880508,51.6041844 C24.2357868,53.6477199 23.5873097,55.9440641 23.2241067,58.5564188 C23.0056284,59.8569782 22.7774091,61.2165263 22.5408401,62.6322511 C22.3515849,64.0550041 22.2430417,65.5479789 22.0816181,67.0858975 C22.0064727,67.855559 21.9299357,68.6392653 21.8520071,69.4342078 C21.7768616,70.2305546 21.7977355,71.0451598 21.7643375,71.8681921 C21.7378974,73.515661 21.653011,75.2108825 21.6669268,76.9482389 C21.7963438,83.9046867 22.8247229,91.5338862 24.9761083,99.2599956 C27.1261022,106.981891 30.1333106,114.063339 33.5065049,120.132148 C33.9128468,120.899001 34.3136223,121.657426 34.7102231,122.404616 C35.1193482,123.144783 35.5799619,123.842816 36.0016111,124.549275 C36.8602171,125.952362 37.6937746,127.313315 38.500892,128.632133 C40.1972304,131.212184 41.8838274,133.545045 43.3644705,135.716389 C44.9647896,137.789419 46.4148178,139.668629 47.6978562,141.330143 C48.9558463,142.998679 50.1860047,144.311879 51.1127982,145.455135 C52.0201095,146.545021 52.7423403,147.411592 53.2794909,148.057659 C53.7693279,148.658781 54.018421,148.981814 53.9989388,149" id="Fill-108" fill="#132529" fill-rule="nonzero"></path>
            <path d="M42.000949,357 C41.9897248,356.992642 42.0781163,356.836121 42.2633175,356.535769 C42.4709673,356.204397 42.745963,355.767264 43.0981258,355.208864 C43.4783495,354.616622 43.9385463,353.901701 44.4773134,353.064101 C44.7523091,352.63966 45.0483505,352.184199 45.3626312,351.697714 C45.7077788,351.23097 46.1118543,350.762817 46.5201386,350.252359 C47.3493349,349.232857 48.2697287,348.103366 49.2729018,346.870937 C50.3532421,345.701963 51.5921257,344.492096 52.8885339,343.158141 C55.5529056,340.567787 58.7742839,337.805398 62.5203988,335.011987 C69.9677314,329.339152 79.5757445,323.701568 89.9905052,317.122036 C95.1578989,313.778687 100.598885,310.256255 105.742427,305.969548 C110.892985,301.715272 115.858341,296.809532 119.878048,290.957612 C127.80522,279.111354 131.025195,265.38966 131.307206,253.123193 C131.627099,240.763657 129.010431,229.756409 125.929357,220.98276 C122.808997,212.17527 119.23265,205.473058 116.634221,200.952275 C115.335007,198.686242 114.268697,196.960279 113.533505,195.796947 C113.185551,195.237136 112.911958,194.798595 112.707114,194.46722 C112.523316,194.165459 112.434925,194.007527 112.446149,194 C112.457373,193.993427 112.565407,194.137256 112.768848,194.426328 C112.989125,194.74642 113.28236,195.173681 113.656972,195.716571 C114.43145,196.853111 115.539851,198.557924 116.87835,200.807034 C119.558155,205.292566 123.217282,211.980676 126.414808,220.807906 C129.574453,229.602707 132.264079,240.672 131.979262,253.138703 C131.92735,256.246566 131.677609,259.427754 131.204784,262.649834 C130.761424,265.873325 130.083756,269.136299 129.150735,272.387992 C127.346426,278.90971 124.450553,285.386304 120.484161,291.367952 C116.409735,297.300246 111.386854,302.249701 106.194206,306.527948 C101.005767,310.837217 95.5395256,314.359648 90.3510862,317.694538 C79.8970404,324.254327 70.2848182,329.831277 62.8276645,335.429377 C59.0759374,338.186125 55.848947,340.90762 53.171948,343.454263 C51.8685245,344.767066 50.6212226,345.957193 49.531061,347.106423 C48.5138575,348.319111 47.5836424,349.427451 46.743222,350.428622 C46.3279223,350.930619 45.9168318,351.390312 45.5646689,351.847184 C45.2405668,352.323798 44.9375104,352.77221 44.6554995,353.1896 C44.0942837,354.010279 43.6172504,354.709689 43.2215933,355.28924 C42.8455788,355.829309 42.5495374,356.253749 42.3278573,356.573843 C42.1230136,356.860092 42.0121735,357.005333 42.000949,357" id="Fill-109" fill="#132529" fill-rule="nonzero"></path>
            <path d="M28.9973681,380.000704 C29.0185989,380.01345 28.91103,380.241443 28.6873996,380.657778 C28.4156463,381.143505 28.0830315,381.73827 27.6796478,382.459068 C27.2238949,383.230847 26.6832191,384.182472 26.1368817,385.332353 C25.5792214,386.475152 24.8743613,387.741152 24.2770701,389.225234 C23.9586094,389.96161 23.6259947,390.730556 23.2806414,391.527825 C22.9395345,392.330759 22.6607042,393.196 22.329505,394.075403 C21.6373833,395.824297 21.1009536,397.760117 20.4895088,399.780903 C19.3996649,403.859294 18.4895744,408.424827 18.0168369,413.27783 C17.5978839,418.136496 17.6629914,422.791243 17.9927754,427.001333 C18.2277288,429.101421 18.403236,431.102383 18.7641584,432.947572 C18.9311735,433.872289 19.0472347,434.772934 19.2383114,435.625432 C19.4322186,436.47368 19.6190489,437.289358 19.7988025,438.07105 C20.1144326,439.640097 20.5786778,441.013724 20.9183694,442.237241 C21.246738,443.467838 21.6048295,444.503013 21.9133827,445.342766 C22.1794745,446.125872 22.3974433,446.771619 22.5757814,447.29841 C22.7201503,447.748732 22.7852579,447.989471 22.7611964,448 C22.7385502,448.009297 22.6267352,447.786968 22.4384894,447.353639 C22.2247667,446.838175 21.9615058,446.208007 21.6444602,445.441892 C21.2934455,444.61347 20.8943079,443.586792 20.5263086,442.361858 C20.1455711,441.141172 19.6445259,439.77038 19.2935111,438.197084 C19.0981886,437.413975 18.8943736,436.595466 18.6820663,435.744384 C18.4754206,434.889055 18.34379,433.982746 18.1626212,433.05378 C17.7719758,431.195845 17.572407,429.179307 17.3162229,427.062226 C16.9453929,422.818149 16.8590546,418.11667 17.2836691,413.209855 C17.7592374,408.310123 18.6990509,403.703523 19.8356024,399.598226 C20.4711087,397.563278 21.0344307,395.616128 21.7562753,393.862987 C22.1030439,392.980751 22.3974433,392.112677 22.7555348,391.311161 C23.1192879,390.513891 23.4688873,389.746361 23.8029173,389.009985 C24.4341775,387.527319 25.1772529,386.268399 25.7731286,385.139761 C26.3576813,384.001211 26.9365724,383.065163 27.4319561,382.31321 C27.8848782,381.6179 28.2571236,381.045793 28.5614307,380.578476 C28.8261071,380.186216 28.9761374,379.986544 28.9973681,380.000704" id="Fill-110" fill="#132529" fill-rule="nonzero"></path>
            <path d="M202,414.001615 C202.006345,414.013168 201.90814,414.085372 201.714533,414.213895 C201.478836,414.365523 201.192636,414.550365 200.839092,414.77853 C200.009948,415.291176 198.873561,415.994441 197.435537,416.883993 C196.689168,417.338878 195.864234,417.841415 194.964943,418.390164 C194.046012,418.910032 193.010636,419.406794 191.917738,419.977205 C189.710899,421.071815 187.261351,422.466793 184.369873,423.591727 C182.941669,424.195353 181.444724,424.826413 179.88745,425.483468 C178.323161,426.12897 176.635414,426.628621 174.92101,427.239465 C171.504829,428.523249 167.725284,429.437349 163.774579,430.498746 C155.807231,432.322614 146.891489,433.661274 137.465073,433.97175 C128.03024,434.169588 119.059784,433.311807 111.008258,431.916829 C107.00845,431.069156 103.186817,430.358671 99.710309,429.259728 C97.9678461,428.742749 96.2562481,428.335519 94.6610949,427.775218 C93.0729565,427.201919 91.5465479,426.651726 90.0888837,426.124639 C87.1440934,425.157106 84.6272027,423.896429 82.3684545,422.921677 C81.2474982,422.410473 80.1896745,421.970031 79.2454897,421.499262 C78.3195433,421.0025 77.4707592,420.543282 76.7019429,420.128832 C75.2204287,419.318706 74.0503691,418.676092 73.195973,418.209654 C72.8326091,418.000265 72.535184,417.831307 72.2938767,417.694119 C72.0932549,417.575705 71.9936456,417.507834 72,417.496281 C72.0062721,417.484728 72.1171051,417.529496 72.3303534,417.627693 C72.5814813,417.74755 72.8887271,417.893402 73.2661205,418.075355 C74.134546,418.511467 75.3242469,419.109315 76.8282084,419.86601 C77.6054421,420.263131 78.4598382,420.700687 79.3942023,421.175789 C80.343999,421.624896 81.4074344,422.045121 82.5311966,422.534664 C84.7983625,423.47187 87.3194621,424.693559 90.2628494,425.624988 C91.7191105,426.133304 93.2441163,426.666168 94.8308518,427.220692 C96.4217961,427.763664 98.1305882,428.156454 99.8688421,428.657549 C103.335529,429.726164 107.141731,430.409213 111.124703,431.235226 C119.139752,432.583993 128.063911,433.415781 137.445432,433.22083 C146.821341,432.911797 155.68798,431.600576 163.62306,429.822919 C167.558333,428.786071 171.325251,427.899408 174.731612,426.64595 C176.443209,426.052435 178.128151,425.568669 179.689633,424.940495 C181.24831,424.302214 182.742451,423.687037 184.172056,423.100743 C187.062132,422.013353 189.518695,420.655921 191.735355,419.600301 C192.832461,419.050107 193.874852,418.575006 194.800799,418.073911 C195.707104,417.548267 196.540456,417.065947 197.295242,416.628391 C198.759922,415.792272 199.917355,415.130885 200.76193,414.648562 C201.130906,414.447835 201.429734,414.28321 201.673847,414.148911 C201.882886,414.040606 201.992317,413.990064 202,414.001615" id="Fill-111" fill="#132529" fill-rule="nonzero"></path>
            <path d="M215,117.000866 C215.007434,117.01075 214.907289,117.105355 214.70283,117.281857 C214.46777,117.479539 214.167337,117.729466 213.791798,118.044345 C212.939184,118.734821 211.749974,119.697816 210.239472,120.920622 C207.146138,123.404358 202.673044,127.00641 197.019087,131.297527 C191.354002,135.564639 184.491363,140.534935 176.331027,145.181879 C172.211218,147.415688 167.822969,149.698918 163.003544,151.406045 C158.199418,153.127293 153.035053,154.444704 147.624501,154.879605 C136.757498,155.625149 126.455195,152.830769 118.075098,148.639906 C113.884354,146.507762 110.103922,144.118631 106.662867,141.749269 C103.26632,139.316365 100.166032,136.962535 97.4232017,134.706133 C91.9152873,130.220159 87.6021455,126.42466 84.6033922,123.820902 C83.1429604,122.538792 81.9926965,121.529201 81.1679002,120.806249 C80.8048786,120.477249 80.5141832,120.214614 80.2846867,120.007047 C80.0885716,119.824897 79.9926004,119.726056 80,119.716172 C80.009291,119.706288 80.120562,119.785361 80.3333678,119.949155 C80.5739913,120.142601 80.8799866,120.38688 81.2610898,120.691875 C82.1067493,121.390823 83.2876127,122.365114 84.7855985,123.60204 C87.8385963,126.136609 92.2032011,129.872803 97.740324,134.298061 C100.498454,136.52481 103.607087,138.846164 107.002243,141.246591 C110.440517,143.580653 114.208431,145.934484 118.368575,148.031327 C126.684691,152.147354 136.860424,154.879605 147.571648,154.145356 C152.901528,153.717516 158.004694,152.422697 162.764311,150.728278 C167.539227,149.046567 171.903832,146.792989 176.008341,144.587421 C184.142251,139.999781 191.020188,135.085965 196.714482,130.878158 C202.400429,126.647758 206.920815,123.107834 210.067002,120.694699 C211.613668,119.517078 212.829305,118.590795 213.702781,117.927148 C214.095011,117.636273 214.410743,117.404702 214.658321,117.22114 C214.8753,117.065818 214.990742,116.990982 215,117.000866" id="Fill-112" fill="#BB4149" fill-rule="nonzero"></path>
            <path d="M133.974856,434 C125.712888,434 117.85337,433.196207 110.724069,431.966449 C106.797767,431.132021 103.045722,430.442013 99.6283595,429.36251 C97.9148379,428.85631 96.230359,428.459518 94.6620511,427.911013 C93.220978,427.396062 91.8310754,426.898614 90.4992584,426.420132 C93.9027908,423.870169 97.9715405,423.00073 102.206248,423.00073 C106.078614,423.00073 110.090661,423.727206 113.863451,424.563093 C120.641473,426.065645 127.463751,428.357404 134.312305,428.357404 C135.649654,428.357404 136.987003,428.269876 138.327118,428.071481 C144.506307,427.159738 150.176556,423.951861 156.274148,422.558717 C157.850754,422.198395 159.517254,422 161.176839,422 C165.83889,422 170.459452,423.563822 173,427.487966 C169.755511,428.672502 166.191552,429.536106 162.475465,430.539753 C154.653287,432.335521 145.912805,433.660102 136.670299,433.972283 C135.767208,433.991247 134.868266,434 133.974856,434 M90.2682995,426.908826 C90.1784054,426.875274 90.0898941,426.84318 90,426.809628 C90.0013829,426.809628 90.0013829,426.809628 90.0013829,426.809628 C90.0898941,426.841721 90.1797883,426.875274 90.2682995,426.908826" id="Fill-113" fill="#FFFFFF" fill-rule="nonzero"></path>
            <path d="M132.812168,434 C118.365201,434 103.920995,431.493236 90.2664371,426.489944 C90.1780849,426.456307 90.0883522,426.422668 90,426.390493 C90.1642799,426.255941 90.3299404,426.125776 90.4969811,426 C91.8264058,426.479706 93.2138116,426.978428 94.6522961,427.494697 C96.2177869,428.044606 97.8992399,428.442413 99.6096834,428.949909 C103.020907,430.032175 106.766213,430.723949 110.685462,431.560513 C117.801956,432.793419 125.647356,433.599269 133.894483,433.599269 C134.786288,433.599269 135.683615,433.590494 136.585084,433.571481 C145.810988,433.258501 154.535768,431.93053 162.343895,430.130165 C166.053307,429.123949 169.610864,428.258135 172.849525,427.070567 C172.900604,427.149542 172.950302,427.229981 173,427.310419 C160.049498,431.771116 146.429453,434 132.812168,434" id="Fill-114" fill="#08171A" fill-rule="nonzero"></path>
            <path d="M290.907564,354.080214 L290.600745,395.077156 L299.682026,421.372992 L209.429616,437 L205.600683,365.907115 L199.104247,311.308396 C198.30848,304.618699 202.131807,298.233907 208.409688,295.765307 L233.248014,286 L268.22958,292.407171 L282.302622,297.747181 C288.210639,299.987802 293.476997,303.645245 297.637967,308.395027 L340,356.75721 L321.079498,387.807025 L290.907564,354.080214 Z" id="Fill-115" fill="#6E5FFF" fill-rule="nonzero"></path>
            <path d="M289,345.687651 C289.006803,345.539007 290.902283,345.840624 293.88377,345.318205 C296.834383,344.823206 300.912617,343.271821 304.295485,339.925162 C307.672982,336.5684 309.442276,332.324101 310.138985,329.202572 C310.863885,326.050738 310.737699,323.994251 310.875966,324 C310.917581,323.997138 310.986044,324.505127 310.998126,325.428741 C311.014235,326.352356 310.929663,327.695926 310.620908,329.322354 C310.031591,332.549232 308.278408,336.991242 304.769354,340.476445 C301.254931,343.955874 296.995471,345.474066 293.954918,345.843511 C292.421888,346.044109 291.169422,346.025348 290.315652,345.93443 C289.459196,345.846398 288.994723,345.732388 289,345.687651" id="Fill-116" fill="#FFFFFE" fill-rule="nonzero"></path>
            <path d="M291.936477,393 C292.288755,392.998611 292.380348,378.893655 292.140801,361.497916 C291.898902,344.09801 291.417456,329.997223 291.065178,330 C290.710551,330.001389 290.618958,344.104955 290.860857,361.504861 C291.100404,378.897823 291.581853,393.001388 291.936477,393" id="Fill-117" fill="#132529" fill-rule="nonzero"></path>
            <path d="M288,403.401544 L233.641248,381.400842 C229.256239,379.626185 226.253764,375.504037 225.894864,370.766935 L221.916237,318.368199 C221.916237,318.368199 222.386857,296.083889 208.541959,295 L200.664304,298.118286 C190.485218,303.553175 187.964536,318.453842 189.349863,329.956827 C191.318927,346.303615 192.138674,369.437346 194.34235,383.624782 C196.145232,395.230256 202.756261,405.437347 214.053944,408.42787 L281.009122,423 L288,403.401544" id="Fill-118" fill="#6E5FFF" fill-rule="nonzero"></path>
            <path d="M223.014001,327 C223.038006,326.997224 223.097314,327.411012 223.187685,328.19791 C223.273823,329.052137 223.391024,330.200924 223.540705,331.647079 C223.820295,334.716122 224.215676,339.034948 224.702842,344.342655 C225.167415,349.726107 225.719535,356.102651 226.330963,363.177724 C226.482055,364.9507 226.63456,366.765756 226.792712,368.62149 C226.956512,370.477224 227.069479,372.377844 227.494513,374.222356 C227.896954,376.073882 228.792209,377.808987 230.225465,379.128899 C231.65166,380.453022 233.436522,381.423669 235.297636,382.262467 C250.453428,388.777876 264.42308,394.157118 274.563186,397.928901 C279.595819,399.77201 283.690836,401.270064 286.601121,402.334692 C287.975068,402.836848 289.06519,403.236609 289.874309,403.533975 C290.621296,403.814509 291.008203,403.973011 291,403.996857 C290.991259,404.020702 290.587406,403.908489 289.826298,403.67284 C289.005883,403.409138 287.898817,403.052859 286.507923,402.602601 C283.630115,401.655798 279.482853,400.237697 274.383854,398.414226 C264.184439,394.761671 250.193608,389.462379 234.992627,382.927333 C233.10186,382.073106 231.246395,381.074405 229.724179,379.656303 C228.186428,378.24662 227.200802,376.317946 226.792712,374.385065 C226.353557,372.447978 226.250475,370.533332 226.092323,368.683207 C225.944055,366.82607 225.800023,365.009612 225.657404,363.235233 C225.103871,356.154549 224.605408,349.772395 224.184611,344.383332 C223.796291,339.067209 223.479985,334.74137 223.255466,331.669521 C223.163681,330.217756 223.091664,329.066163 223.038006,328.209132 C222.998468,327.418025 222.988584,327.001431 223.014001,327" id="Fill-119" fill="#132529" fill-rule="nonzero"></path>
            <path d="M191.038378,355 C191.065267,354.998594 191.099231,355.24372 191.147347,355.709881 C191.196879,356.261057 191.256317,356.934087 191.329907,357.750224 C191.492655,359.634708 191.714839,362.170968 191.982311,365.254154 C192.285162,368.419519 192.667264,372.185653 193.217774,376.34852 C193.785266,380.504303 194.451823,385.089409 195.704268,389.742523 C196.298648,392.094586 197.130782,394.266702 198.393133,396.129932 C199.656901,398.008748 201.057942,399.697699 202.508513,401.192535 C205.420981,404.17512 208.530158,406.361403 211.323748,407.813732 C216.959044,410.746724 221.056027,410.789233 220.999421,410.984766 C220.99659,411.01027 220.750347,411.003184 220.281918,410.967761 C219.813488,410.93659 219.121459,410.881331 218.244039,410.704218 C216.487785,410.395333 213.961666,409.703883 211.085996,408.278476 C208.215985,406.862988 205.01765,404.679538 202.024518,401.668614 C200.53432,400.15961 199.092238,398.447989 197.794507,396.533749 C196.476962,394.613844 195.582561,392.292953 194.993842,389.939473 C193.724413,385.214096 193.077671,380.613405 192.544143,376.436368 C192.030428,372.253666 191.699272,368.473361 191.464351,365.298078 C191.232259,362.121377 191.109138,359.548277 191.044038,357.767227 C191.02564,356.948257 191.011489,356.270976 191,355.716965 C190.998752,355.24797 191.014318,355.001429 191.038378,355" id="Fill-120" fill="#132529" fill-rule="nonzero"></path>
            <path d="M213.014231,391.998899 C212.934043,391.979149 213.180545,390.804052 214.065572,389.073147 C214.940204,387.345062 216.560278,385.111954 218.918369,383.190606 C221.285371,381.279134 223.860264,380.109679 225.792176,379.558102 C227.731515,378.998063 228.989263,378.95151 228.999658,379.029097 C229.023416,379.151826 227.808732,379.380358 225.971855,380.04902 C224.136463,380.709218 221.70264,381.906887 219.42028,383.749236 C217.148315,385.602872 215.522301,387.697732 214.548178,389.318605 C213.565146,390.936656 213.137482,392.039808 213.014231,391.998899" id="Fill-121" fill="#132529" fill-rule="nonzero"></path>
            <path d="M225,352.45329 C225.006867,352.443404 225.120861,352.495655 225.339234,352.608628 C225.59057,352.742784 225.905084,352.913657 226.295134,353.12407 C227.153522,353.539248 228.404706,354.191671 230.10912,354.787607 C233.47125,355.986541 238.738314,357.208068 245.094501,356.102339 C251.368279,355.047447 258.665257,351.245883 263.719441,344.204802 C266.221811,340.728039 268.156959,336.443513 268.597827,331.749459 C268.818947,329.417967 268.632162,326.989033 267.883649,324.704141 C267.150242,322.423486 265.808411,320.306642 264.029834,318.648755 C262.26087,316.986631 260.062025,315.815941 257.753306,315.512324 C255.478925,315.142336 253.042478,315.760866 251.463045,317.329788 C250.702172,318.117779 250.226968,319.171258 250.237956,320.257217 C250.233835,321.33894 250.638994,322.407953 251.270767,323.276438 C252.535687,325.05436 254.668607,325.883304 256.709509,326.193981 C260.873716,326.781445 264.966506,326.007575 268.394561,324.473957 C271.83635,322.930456 274.650487,320.637091 276.67628,318.106481 C278.706193,315.564574 279.956006,312.816491 280.704519,310.322598 C281.45578,307.820233 281.685141,305.550874 281.722223,303.709404 C281.748318,301.862285 281.56016,300.431757 281.421445,299.470068 C281.341786,299.023823 281.277236,298.666543 281.226418,298.377049 C281.183842,298.131332 281.168735,298.002823 281.179723,298 C281.179723,298 281.93785,299.960092 282,303.710816 C282.006521,305.57488 281.815616,307.883779 281.087704,310.439809 C280.363912,312.988775 279.12234,315.808881 277.069079,318.434105 C275.018563,321.048033 272.154984,323.426128 268.632162,325.031764 C265.123076,326.62893 260.934147,327.453638 256.610622,326.863349 C254.487315,326.548436 252.157997,325.688424 250.7214,323.695851 C250.018208,322.729926 249.545752,321.526757 249.544378,320.254392 C249.527897,318.977791 250.093747,317.72096 250.967241,316.821406 C252.759554,315.037835 255.407506,314.402359 257.849446,314.787881 C260.322975,315.111269 262.65092,316.356803 264.509157,318.103656 C266.382502,319.849099 267.786135,322.067619 268.559372,324.472546 C269.342221,326.873235 269.529005,329.402432 269.295524,331.818656 C268.827187,336.677934 266.820623,341.061312 264.24958,344.607271 C259.051189,351.785332 251.577039,355.606667 245.176905,356.616367 C238.697112,357.672671 233.377858,356.348056 230.015728,355.05592 C226.615141,353.721419 225,352.45329 225,352.45329" id="Fill-122" fill="#FFFFFE" fill-rule="nonzero"></path>
            <path d="M190.002712,338.995173 C189.967607,338.964733 190.273723,338.562099 190.898594,337.891042 C191.530485,337.228287 192.506406,336.316479 193.853038,335.360395 C196.506983,333.395651 200.900737,331.606626 205.944638,331.140346 C208.466587,330.874691 210.914115,330.993682 213.070972,331.433673 C215.232041,331.875049 217.089803,332.591765 218.562812,333.334772 C220.040034,334.075009 221.15778,334.804179 221.903414,335.33964 C222.643427,335.87787 223.025372,336.211324 222.998692,336.248682 C222.922865,336.362138 221.288371,335.14455 218.339544,333.794135 C215.423012,332.418812 210.959049,331.27179 206.021868,331.855678 C201.077667,332.319192 196.815908,333.968471 194.146517,335.781018 C191.440615,337.556205 190.102409,339.097561 190.002712,338.995173" id="Fill-123" fill="#FFFFFE" fill-rule="nonzero"></path>
            <path d="M198.002042,301.216486 C198.11585,301.089909 199.424648,302.922397 202.484675,304.511799 C203.996906,305.304344 205.951568,305.968872 208.190751,306.203327 C210.419976,306.442096 212.937989,306.184628 215.332238,305.205096 C217.712259,304.186728 219.674034,302.568557 221.085258,300.80655 C222.506443,299.043103 223.424025,297.174658 223.940431,295.533474 C224.994583,292.223776 224.63893,289.99286 224.80822,290 C224.846631,289.995735 224.959018,290.533688 224.99316,291.524727 C225.031569,292.515766 224.916338,293.968522 224.439766,295.68738 C223.971727,297.406235 223.069796,299.373931 221.617313,301.238062 C220.17479,303.100755 218.129082,304.823927 215.615336,305.898392 C213.087364,306.931143 210.437047,307.175667 208.115352,306.887993 C205.783701,306.60751 203.770712,305.859556 202.238565,304.979272 C200.700726,304.101863 199.602473,303.156852 198.93954,302.427597 C198.269492,301.701217 197.972166,301.240938 198.002042,301.216486" id="Fill-124" fill="#FFFFFE" fill-rule="nonzero"></path>
            <path d="M246.0068,386.851695 C245.983333,386.847678 246.020604,386.510112 246.118616,385.864451 C246.271844,385.233525 246.483052,384.277089 247.071118,383.165266 C248.156142,380.918849 250.8549,378.105803 255.114935,376.389846 C259.315609,374.558687 265.091364,374.206387 270.912674,375.840632 C273.753618,376.660435 277.014214,377.671791 279.145611,380.364277 C280.187843,381.687749 280.546756,383.65956 279.751623,385.268353 C278.989621,386.883844 277.493225,387.997008 275.920906,388.775283 C274.318216,389.534806 272.578863,389.964799 270.833989,389.998288 C269.1043,390.030436 267.300067,389.612498 265.949998,388.527468 C264.586125,387.45851 263.869676,385.806851 263.763383,384.231544 C263.636382,382.641505 263.969068,381.107726 264.493634,379.714598 C266.783783,374.13673 271.416535,370.589614 275.568895,368.83481 C279.793036,367.042499 283.615471,366.853622 286.140293,367.073308 C288.683061,367.327822 290,367.8623 290,367.8623 C289.979294,367.953389 288.633366,367.51 286.118207,367.343896 C283.623753,367.209942 279.881385,367.473831 275.77872,369.284896 C273.742574,370.186411 271.641546,371.48309 269.747585,373.256649 C267.864667,375.020831 266.170867,377.280644 265.116212,379.932944 C264.623395,381.264452 264.323841,382.721877 264.4467,384.176624 C264.555754,385.624671 265.199039,387.062004 266.397259,387.998347 C267.580295,388.948084 269.206452,389.335213 270.822945,389.303064 C272.447723,389.273595 274.097347,388.863692 275.600644,388.151054 C277.080475,387.423682 278.44849,386.376157 279.098677,384.98169 C279.776471,383.59794 279.493482,381.955658 278.574109,380.763462 C277.664399,379.547155 276.335037,378.669752 274.979447,377.994622 C273.614194,377.326188 272.150928,376.870742 270.731837,376.458163 C265.032006,374.825257 259.432946,375.119957 255.309576,376.845292 C251.125466,378.466141 248.455699,381.135855 247.318216,383.291183 C246.143463,385.45455 246.108952,386.878487 246.0068,386.851695" id="Fill-125" fill="#FFFFFE" fill-rule="nonzero"></path>
            <path d="M210,405.974297 C209.980148,405.837342 211.995096,405.663035 215.014834,404.553561 C218.017107,403.47037 222.018795,401.251421 225.293758,397.520431 C228.568722,393.789442 230.309637,389.464981 231.055169,386.279045 C231.822193,383.073742 231.788611,380.991747 231.922941,381 C231.964583,381 232.012941,381.516051 231.996822,382.453986 C231.983388,383.389155 231.866521,384.747638 231.537412,386.393866 C230.903376,389.671105 229.187984,394.158806 225.813616,398.004617 C222.437905,401.847659 218.273676,404.056925 215.173343,405.036361 C213.616459,405.53853 212.316145,405.795841 211.412106,405.903744 C210.508064,406.014414 210.004328,406.017182 210,405.974297" id="Fill-126" fill="#FFFFFE" fill-rule="nonzero"></path>
            <path d="M192,366.697633 C191.993098,366.67147 192.225618,366.576994 192.679107,366.422923 C193.132595,366.273212 193.805608,366.063908 194.685143,365.84007 C196.439883,365.41274 199.058273,364.826981 202.343898,365.058087 C203.978767,365.187448 205.768168,365.562451 207.550348,366.353154 C209.320976,367.143857 211.093047,368.383691 212.407297,370.188936 C213.696994,371.991274 214.486989,374.337219 214.29635,376.784912 C214.205364,378.004397 213.834196,379.229695 213.179959,380.32418 C212.521391,381.401222 211.533537,382.377972 210.23373,382.803848 C208.951253,383.207919 207.447809,383.002977 206.435404,382.046575 C205.43744,381.074185 205.187589,379.707897 205.125485,378.523296 C205.0345,376.109035 205.552978,373.797973 206.45129,371.792145 C208.239246,367.733978 211.565311,365.071169 214.650187,363.96215 C217.756728,362.803712 220.510874,362.890921 222.295944,363.200516 C223.197143,363.35604 223.877376,363.558077 224.32942,363.717963 C224.777132,363.888021 225.008208,363.989767 225,364.014476 C224.976436,364.088604 224.034798,363.712148 222.25406,363.491215 C220.493544,363.276098 217.814496,363.28046 214.840826,364.4607 C211.891707,365.595881 208.762059,368.180202 207.083863,372.075577 C206.241876,373.995648 205.766725,376.209326 205.862043,378.484051 C205.918369,379.597431 206.176885,380.763136 206.950994,381.50006 C207.712104,382.226809 208.949809,382.420124 210.006985,382.081459 C211.075716,381.735526 211.950919,380.895404 212.543055,379.928827 C213.130857,378.94917 213.473139,377.840151 213.561237,376.722412 C213.750431,374.481117 213.02976,372.283427 211.844047,370.595915 C210.636669,368.904044 208.975805,367.702001 207.293276,366.924378 C205.600638,366.142396 203.879115,365.749952 202.297683,365.590068 C199.11171,365.297914 196.510651,365.790651 194.750133,366.127862 C192.985283,366.491237 192.017649,366.75432 192,366.697633" id="Fill-127" fill="#FFFFFE" fill-rule="nonzero"></path>
            <path d="M271,397 C268.183515,395.97118 265.128898,394.840985 261.875838,393.614895 L245.801888,387.361146 C245.803306,387.361146 245.803306,387.361146 245.803306,387.361146 C245.881266,387.361146 245.928041,386.503567 246.487936,385.110344 C249.10456,386.795363 251.933801,388.214615 254.789976,389.469475 C260.390344,391.928505 265.661861,394.194376 271,397 M245.799053,387.359775 L244.350413,386.796733 C241.15405,385.511736 237.872641,384.1692 234.533115,382.771868 C232.664907,381.952647 230.873243,381.004653 229.441613,379.711435 C228.002895,378.422328 227.104227,376.727719 226.700254,374.919407 C226.273599,373.117944 226.160201,371.261684 225.995777,369.449261 C225.861119,367.916306 225.730713,366.410748 225.603142,364.935329 C225.583297,364.539418 225.557783,364.142137 225.528018,363.746227 C225.017733,357.163695 224.508865,350.581162 224,344 C226.727185,347.424835 228.394113,351.403123 229.735026,355.554022 C228.266541,355.033448 227.160926,354.495063 226.374237,354.137511 C225.971681,353.933391 225.647083,353.767628 225.387688,353.637484 C225.182158,353.53748 225.065927,353.485422 225.041829,353.485422 C225.038995,353.485422 225.037577,353.486792 225.037577,353.486792 C225.037577,353.486792 226.584022,354.627947 229.835666,355.869106 C232.263767,363.492789 233.658543,371.661704 238.541679,378.023677 C240.662192,380.785463 243.336932,383.056814 246.293744,384.98431 C246.109476,385.524064 246.003167,385.989842 245.915284,386.351505 C245.81748,386.995374 245.77779,387.340598 245.799053,387.359775" id="Fill-128" fill="#132529" fill-rule="nonzero"></path>
            <path d="M262,393 C256.920089,391.091367 251.332589,388.938831 245.441071,386.577236 L246.809822,387.107626 C246.809822,387.108917 246.811161,387.108917 246.811161,387.108917 C246.812501,387.108917 246.812501,387.108917 246.812501,387.108917 L262,393 M246.540625,387.729642 C245.974108,387.539941 245.410268,387.356692 244.847768,387.178604 C241.895983,386.239128 238.128573,384.813137 235,383 C235.289287,383.136793 235.58259,383.268422 235.875893,383.397471 C239.517411,384.916376 243.085268,386.361725 246.540625,387.729642" id="Fill-129" fill="#A93B44" fill-rule="nonzero"></path>
            <path d="M274,397 C265.202905,394.102682 255.775423,389.890331 246.898999,386.827573 C243.244168,385.328718 239.470342,383.745019 235.618603,382.080723 C235.308367,381.939322 234.998131,381.795094 234.692145,381.645206 C234.339411,381.433104 233.993761,381.216761 233.658027,380.99476 C233.642444,380.666709 233.615529,380.492785 233.59003,380.492785 C233.588613,380.492785 233.588613,380.492785 233.588613,380.492785 C233.553198,380.492785 233.529117,380.629944 233.499367,380.888709 C232.374586,380.135039 231.361716,379.327636 230.533004,378.470743 C230.738411,378.401457 230.846073,378.353379 230.838991,378.3152 C230.837574,378.296818 230.772409,378.285507 230.651999,378.285507 C230.578335,378.285507 230.483424,378.289748 230.370094,378.299647 C226.706763,374.350302 227.284737,368.757871 227,363 C227.127495,364.522894 227.257822,366.076898 227.392399,367.659181 C227.556724,369.529923 227.670053,371.445915 228.09645,373.305345 C228.500181,375.171844 229.398306,376.920982 230.836157,378.251569 C232.266925,379.586401 234.057508,380.564899 235.924589,381.410481 C239.262102,382.852776 242.541533,384.238512 245.735969,385.564858 C251.967599,388.152506 257.877659,390.511084 263.250829,392.602413 C266.501928,393.867957 269.554703,395.034519 272.369491,396.096444 C272.912049,396.391974 273.456025,396.693159 274,397" id="Fill-130" fill="#051317" fill-rule="nonzero"></path>
            <path d="M229.381127,378.653828 C229.336505,378.606857 229.291883,378.562235 229.247261,378.515264 C229.20029,378.465947 229.155668,378.418976 229.111046,378.369656 C229.29893,378.353216 229.45628,378.346172 229.578404,378.346172 C229.778027,378.346172 229.88606,378.364958 229.888409,378.395489 C229.900151,378.4589 229.721663,378.538751 229.381127,378.653828" id="Fill-131" fill="#051317" fill-rule="nonzero"></path>
            <path d="M230,354 C226.611522,352.437932 225,351.001724 225,351.001724 C225,351.001724 225.001477,351 225.00443,351 C225.029542,351 225.150665,351.065517 225.364844,351.191379 C225.635154,351.355172 225.973412,351.563794 226.392909,351.82069 C227.212703,352.270689 228.364844,352.948277 229.895125,353.603449 C229.930575,353.736208 229.964548,353.868967 230,354" id="Fill-132" fill="#A2A5A2" fill-rule="nonzero"></path>
            <path d="M245.940978,387 C245.940978,387 245.940978,387 245.938629,387 C245.938629,387 245.938629,387 245.93628,387 C245.93628,387 245.933931,387 245.933931,386.998271 C245.898702,386.974065 245.964462,386.538329 246.12651,385.725649 C246.272118,385.269165 246.448257,384.681268 246.753564,384 C246.859248,384.051873 246.967281,384.105475 247.075311,384.159077 C246.147645,385.917579 246.070146,387 245.940978,387" id="Fill-133" fill="#A2A5A2" fill-rule="nonzero"></path>
            <path d="M233.631517,381.916862 C233.544622,381.858149 233.455378,381.799436 233.368483,381.740723 C233.417803,381.310943 233.457727,381.083138 233.51644,381.083138 C233.51644,381.083138 233.51644,381.083138 233.518789,381.083138 C233.561062,381.083138 233.605684,381.372005 233.631517,381.916862" id="Fill-134" fill="#A2A5A2" fill-rule="nonzero"></path>
            <path d="M367.566974,474 C367.566974,474 413.429946,486.549848 415.270437,487.190217 C418.03469,488.150771 417.568583,498.15863 413.270822,498.002713 C411.236004,497.928932 378.041006,499.223591 373.847451,498.966052 C369.652486,498.705728 357,493.776276 357,493.776276 L367.566974,474" id="Fill-135" fill="#6E5FFF" fill-rule="nonzero"></path>
            <path d="M387.08603,491.999685 C387.300055,492.031498 387.590236,489.64824 388.970237,487.162626 C390.317411,484.654879 392.128088,483.196985 391.992846,483.015784 C391.919316,482.841502 389.796137,484.111281 388.350483,486.787777 C386.881197,489.44491 386.904831,492.01905 387.08603,491.999685" id="Fill-136" fill="#132529" fill-rule="nonzero"></path>
            <path d="M381.064304,489.999517 C381.264901,490.035501 381.677377,488.056304 382.764358,485.87019 C383.83128,483.671226 385.136409,482.153412 384.98847,482.00947 C384.876888,481.871954 383.280893,483.240685 382.155046,485.555319 C381.012902,487.859669 380.890036,489.987949 381.064304,489.999517" id="Fill-137" fill="#132529" fill-rule="nonzero"></path>
            <path d="M376.312784,487.998758 C376.550613,487.984907 376.367891,485.731487 377.41782,483.232919 C378.419892,480.717731 380.154303,479.178979 379.988983,479.014162 C379.894721,478.84242 377.777463,480.23713 376.68113,482.958687 C375.555793,485.666392 376.119912,488.062467 376.312784,487.998758" id="Fill-138" fill="#132529" fill-rule="nonzero"></path>
            <path d="M377.522666,482.264184 C377.603132,482.286511 377.995909,480.932066 378,478.65779 C377.997274,477.525117 377.877258,476.167696 377.549943,474.70311 C377.387649,473.972305 377.166712,473.216199 376.888496,472.454137 C376.745294,472.070129 376.581637,471.626587 376.17795,471.266394 C375.763351,470.86006 375.009164,470.94341 374.651845,471.348256 C374.24543,471.735239 374.115867,472.281483 374.059952,472.719073 C374.014946,473.164104 373.991761,473.579369 374.002671,474.000584 C374.013582,474.834089 374.111777,475.63336 374.275433,476.371607 C374.605476,477.854054 375.13327,479.09538 375.643335,480.079213 C376.678468,482.04539 377.575855,483.051548 377.638591,482.997967 C377.740877,482.920569 376.996236,481.790873 376.109759,479.812789 C375.67334,478.824491 375.217826,477.609956 374.945064,476.209372 C374.807319,475.509824 374.730946,474.764136 374.730946,473.994632 C374.75004,473.250432 374.740493,472.318693 375.140089,471.961477 C375.351479,471.769474 375.542413,471.756077 375.727891,471.906406 C375.922918,472.070129 376.087938,472.402044 376.213409,472.753305 C376.488898,473.478156 376.712563,474.197053 376.887132,474.892137 C377.236267,476.286768 377.405379,477.583165 377.474934,478.677139 C377.604496,480.872529 377.401289,482.244834 377.522666,482.264184" id="Fill-139" fill="#132529" fill-rule="nonzero"></path>
            <path d="M377.999709,482.480968 C378.020424,482.397019 376.934896,482.012836 375.09944,482 C374.183784,481.998606 373.087205,482.096786 371.906382,482.40271 C371.323565,482.56492 370.697937,482.720015 370.069544,483.099929 C369.453582,483.422927 368.808619,484.3037 369.05307,485.217199 C369.245041,486.080897 369.961821,486.684207 370.671697,486.872029 C371.388477,487.078349 372.083161,487.004358 372.689454,486.866336 C373.925522,486.574643 374.883991,485.948568 375.613202,485.3851 C377.05505,484.221172 377.75802,483.329015 377.704157,483.264985 C377.625436,483.166805 376.773308,483.929478 375.307983,484.936889 C374.571867,485.422096 373.647925,485.947145 372.549966,486.166272 C372.001676,486.274412 371.413336,486.308562 370.881619,486.143505 C370.351286,485.992678 369.912101,485.577193 369.786424,485.04076 C369.656602,484.524249 369.961821,484.050424 370.453485,483.74877 C370.935482,483.440002 371.532109,483.263561 372.085922,483.092815 C373.199074,482.765548 374.239026,482.614721 375.116013,482.547846 C376.87827,482.419784 377.980373,482.606183 377.999709,482.480968" id="Fill-140" fill="#132529" fill-rule="nonzero"></path>
            <path d="M393.303739,491.997719 C393.497204,491.970103 393.306143,489.948311 394.076393,487.727393 C394.80819,485.489033 396.115571,484.204156 395.991802,484.021017 C395.928116,483.829157 394.290284,484.949791 393.469565,487.427976 C392.624815,489.894532 393.146325,492.080567 393.303739,491.997719" id="Fill-141" fill="#132529" fill-rule="nonzero"></path>
            <path d="M362,495.012159 C361.981626,495.058958 362.596999,495.346629 363.731595,495.825624 C364.881299,496.261949 366.56396,496.870328 368.709527,497.37272 C372.988297,498.454588 379.088462,499.067095 385.790265,498.994144 C392.494815,498.919818 398.535916,498.615628 402.916332,498.439448 C404.99047,498.329333 406.72945,498.237113 408.101679,498.164164 C409.325559,498.082954 410.00137,498.012756 410,497.960452 C409.998622,497.909525 409.320063,497.880619 408.092064,497.872361 C406.718463,497.881996 404.976735,497.894385 402.901222,497.909525 C398.369711,497.998993 392.394543,498.114611 385.786145,498.243995 C379.11456,498.315569 373.088569,497.791153 368.826284,496.855186 C364.55026,495.975653 362.05168,494.871763 362,495.012159" id="Fill-142" fill="#132529" fill-rule="nonzero"></path>
            <g id="Group-146" transform="translate(273.000000, 462.000000)">
                <g id="Fill-143-Clipped">
                    <mask id="mask-2" fill="white">
                        <use xlink:href="#path-1"></use>
                    </mask>
                    <g id="path-1"></g>
                    <path d="M86.054892,33.4691557 C86.115966,33.5736815 87.3527129,32.8461822 89.4417186,31.9277488 C91.5057394,31.0385829 94.5996888,29.9724199 97.9962316,30.5006235 C101.403879,31.0232524 103.817687,33.3200323 105.39034,34.9171863 C106.976874,36.5686936 107.905475,37.6669113 107.995698,37.5888653 C108.0651,37.5317244 107.293348,36.3261938 105.783157,34.5520429 C105.021121,33.6740262 104.052266,32.6580357 102.78637,31.7382087 C101.534355,30.8142009 99.9214481,30.0267732 98.1156034,29.7494315 C94.4719887,29.1891734 91.2600558,30.4114282 89.2168554,31.4413555 C87.1431183,32.5061249 86.0090866,33.3938971 86.054892,33.4691557" id="Fill-143" fill="#132529" fill-rule="nonzero" mask="url(#mask-2)"></path>
                </g>
                <g id="Fill-145-Clipped">
                    <mask id="mask-4" fill="white">
                        <use xlink:href="#path-3"></use>
                    </mask>
                    <g id="path-1"></g>
                    <path d="M45.1700663,0 C45.1700663,0 2.39056105,28.124404 0.85816086,29.2881243 C-1.44737964,31.0357955 1.19545547,39.3574414 5.18746901,37.9163794 C7.07382033,37.2348712 42.9714051,27.2087582 46.8329426,25.7007996 C50.693092,24.1928409 61.0825987,15.6872295 61.0825987,15.6872295 L45.1700663,0" id="Fill-145" fill="#6E5FFF" fill-rule="nonzero" mask="url(#mask-4)"></path>
                </g>
            </g>
            <path d="M305.9717,483.996352 C306.166113,483.952266 305.378375,481.151164 303.002204,478.803529 C300.646192,476.42755 298.02376,475.826077 298.002159,476.040215 C297.918633,476.285843 300.273204,477.210096 302.472244,479.438066 C304.701526,481.629822 305.757123,484.108145 305.9717,483.996352" id="Fill-147" fill="#132529" fill-rule="nonzero"></path>
            <path d="M309.971583,480.99539 C310.184232,480.913664 309.20768,478.431455 306.897982,476.138338 C304.601368,473.825989 302.090469,472.819645 302.005409,473.026363 C301.876185,473.253911 304.084466,474.553504 306.260033,476.750477 C308.456866,478.925012 309.736033,481.113971 309.971583,480.99539" id="Fill-148" fill="#132529" fill-rule="nonzero"></path>
            <path d="M313.933202,478.99891 C314.155959,479.006273 313.911084,476.402471 311.805151,474.004852 C309.724495,471.588088 307.043498,470.828154 307.004002,471.031392 C306.890252,471.247886 309.223685,472.271439 311.136876,474.511474 C313.089565,476.71911 313.682006,479.05782 313.933202,478.99891" id="Fill-149" fill="#132529" fill-rule="nonzero"></path>
            <path d="M311.373617,473.275631 C311.494669,473.218599 310.863998,472.000467 310.331963,469.902003 C310.068934,468.854964 309.849245,467.58565 309.789467,466.167177 C309.759577,465.459402 309.774521,464.713606 309.840278,463.947338 C309.865686,463.575902 309.935925,463.211779 310.089858,462.99389 C310.237811,462.793549 310.44106,462.745291 310.719034,462.854967 C311.246585,463.058233 311.520075,463.934176 311.768158,464.625866 C312.002791,465.346801 312.149252,466.069199 312.219491,466.7682 C312.361467,468.169125 312.256853,469.451601 312.101428,470.520573 C311.778619,472.661446 311.346714,473.960007 311.476736,473.999491 C311.558932,474.028738 312.188109,472.795981 312.66933,470.617089 C312.900974,469.530567 313.07583,468.195447 312.966731,466.703856 C312.91293,465.95806 312.772449,465.17717 312.528849,464.393353 C312.410786,463.995596 312.262833,463.615386 312.07901,463.213241 C311.887718,462.821334 311.585832,462.351921 311.041841,462.122333 C310.545674,461.860574 309.734171,462.02728 309.424814,462.542025 C309.112467,463.009975 309.078094,463.479388 309.04372,463.88592 C308.985437,464.690209 308.986931,465.469639 309.039237,466.208122 C309.145346,467.685089 309.43378,468.992424 309.776016,470.055549 C310.473939,472.183259 311.297398,473.322426 311.373617,473.275631" id="Fill-150" fill="#132529" fill-rule="nonzero"></path>
            <path d="M311.001466,472.76767 C311.053373,472.866523 312.014351,472.408543 313.667444,472.029395 C314.491329,471.844201 315.489573,471.684032 316.604946,471.652749 C317.161301,471.64274 317.760247,471.626473 318.289982,471.752856 C318.827704,471.869228 319.242973,472.183307 319.270925,472.65255 C319.308191,473.135556 319.022029,473.60605 318.578808,473.876334 C318.136919,474.161633 317.585887,474.295524 317.052159,474.355588 C315.98204,474.473211 314.985127,474.286764 314.170559,474.084052 C312.538762,473.642339 311.540518,473.239416 311.493932,473.343275 C311.46332,473.410845 312.364402,473.965177 314.018827,474.544535 C314.846703,474.814819 315.906174,475.075093 317.122701,474.979993 C317.718987,474.928688 318.376497,474.799803 318.976775,474.430666 C319.575721,474.076544 320.061534,473.373306 319.993653,472.598744 C319.959047,471.765368 319.116529,471.204779 318.46035,471.104674 C317.772227,470.958271 317.154646,471.000815 316.573001,471.02459 C315.403059,471.093413 314.367547,471.312393 313.52902,471.565157 C311.845314,472.081951 310.958874,472.702601 311.001466,472.76767" id="Fill-151" fill="#132529" fill-rule="nonzero"></path>
            <path d="M283.52901,496.994458 C283.589841,497.05747 284.40599,496.586187 284.80308,495.42701 C285.239036,494.296714 284.966987,492.558606 283.828096,491.035792 C283.285686,490.267822 282.660479,489.602248 282.084273,489.016752 C281.514828,488.42863 280.923416,487.898271 280.315105,487.54251 C279.715245,487.178872 279.084969,487.014776 278.652392,487.001649 C278.216438,486.987209 277.993391,487.071227 278.000149,487.111923 C278.001839,487.223507 278.931201,487.169685 279.894358,487.928465 C280.384386,488.289476 280.869344,488.79752 281.398235,489.404019 C281.930507,490.006581 282.511781,490.661653 283.022086,491.379739 C284.076488,492.80672 284.389093,494.282274 284.164356,495.325927 C283.976792,496.373516 283.407347,496.92488 283.52901,496.994458" id="Fill-152" fill="#132529" fill-rule="nonzero"></path>
            <path d="M298.925515,486.999213 C299.110873,487.020609 299.05384,484.628979 297.517829,482.484917 C296.002559,480.31946 294.016762,479.828908 294.002505,480.04744 C293.926027,480.278198 295.616287,481.060637 296.976013,483.019786 C298.366847,484.945316 298.719417,487.046588 298.925515,486.999213" id="Fill-153" fill="#132529" fill-rule="nonzero"></path>
            <path d="M330.998857,479.002955 C330.96071,478.956484 330.293856,479.460422 329.08448,480.353571 C327.860974,481.223483 326.061038,482.444846 323.71575,483.734466 C321.3747,485.02699 318.484063,486.368893 315.189357,487.63673 C311.891826,488.900208 308.194466,490.092526 304.282357,491.25725 C296.448248,493.576533 289.357285,495.695401 284.24145,497.278381 C281.785963,498.052443 279.750084,498.694348 278.188913,499.186669 C276.7662,499.655755 275.984908,499.938947 276,499.99123 C276.014578,500.043511 276.824125,499.860525 278.27227,499.482934 C279.84898,499.054513 281.908879,498.492481 284.389796,497.815722 C289.546604,496.370709 296.657347,494.337524 304.497107,492.018241 C308.417693,490.849159 312.132006,489.62925 315.440839,488.317846 C318.748261,487.003537 321.647375,485.593378 323.979948,484.225335 C326.315345,482.857293 328.085614,481.554602 329.263909,480.599006 C330.426662,479.625982 331.029938,479.039262 330.998857,479.002955" id="Fill-154" fill="#132529" fill-rule="nonzero"></path>
            <path d="M331.999725,479.227558 C332.022307,479.139883 330.650531,478.633628 328.31343,478.24616 C326.017258,477.882732 322.531366,477.694654 319.17249,479.364728 C317.508576,480.191986 316.189019,481.449137 315.260389,482.730328 C314.316233,484.012933 313.68962,485.295538 313.219659,486.380167 C312.303731,488.560737 311.926917,489.964955 312.011593,489.998893 C312.124496,490.044145 312.686192,488.697905 313.713611,486.610668 C314.745267,484.581409 316.379543,481.611761 319.518257,480.051989 C322.647092,478.490802 325.970685,478.564337 328.245689,478.784939 C330.55174,479.028168 331.971501,479.347759 331.999725,479.227558" id="Fill-155" fill="#132529" fill-rule="nonzero"></path>
            <path d="M409.073583,393.28765 C409.073583,393.28765 421.945414,397.858525 422,412.2093 C422.10412,439.69961 366.139632,470 366.139632,470 L291.667884,420.935768 L287,419.057308 C287,419.057308 387.532824,381.507472 409.073583,393.28765" id="Fill-156" fill="#132529" fill-rule="nonzero"></path>
            <path d="M328.001287,446.997257 C328.032492,447.040674 328.73462,446.567291 329.977173,445.673744 C331.221145,444.784402 332.995614,443.463691 335.167245,441.804049 C339.511927,438.488968 345.422567,433.790154 351.781435,428.400871 C358.140301,423.007387 363.738884,417.948632 367.714772,414.210587 C369.703425,412.340864 371.294915,410.808673 372.37293,409.730257 C373.455199,408.653239 374.033923,408.039802 373.998462,408.001989 C373.960163,407.962773 373.310518,408.504782 372.167256,409.515973 C370.927538,410.621 369.303425,412.067759 367.343141,413.814234 C363.276472,417.448638 357.628245,422.435966 351.277887,427.822447 C344.928951,433.203327 339.080722,437.960964 334.826819,441.382486 C332.782847,443.029524 331.087811,444.396451 329.794195,445.439855 C328.609797,446.402026 327.967243,446.95524 328.001287,446.997257" id="Fill-157" fill="#334F55" fill-rule="nonzero"></path>
            <path d="M387.999833,404.177879 C388.026522,404.001689 384.841272,403.693024 381.120921,404.797856 C377.391229,405.87487 374.886531,407.852703 375.00396,407.985177 C375.122723,408.173291 377.724833,406.527965 381.327755,405.490695 C384.915999,404.420307 388.003838,404.39911 387.999833,404.177879" id="Fill-158" fill="#334F55" fill-rule="nonzero"></path>
            <path d="M381.994343,398.018769 C381.915417,397.846891 379.097147,398.851502 376.778732,401.197814 C374.437297,403.526804 373.819053,405.971711 374.042675,405.998359 C374.29918,406.068973 375.261074,403.849238 377.4759,401.653485 C379.657842,399.436415 382.134105,398.206633 381.994343,398.018769" id="Fill-159" fill="#334F55" fill-rule="nonzero"></path>
            <path d="M412.998862,487.081628 C413.036312,486.990465 412.144212,486.800789 411.15314,487.697712 C410.179456,488.551997 409.351555,490.264975 409.085397,492.263204 C408.816564,494.274668 409.223159,496.122919 409.738087,497.296273 C410.243655,498.491682 410.801383,499.053362 410.862907,498.996017 C410.961881,498.921028 410.57,498.257892 410.216905,497.086009 C409.851774,495.92736 409.560204,494.220262 409.807637,492.374952 C410.052396,490.541404 410.735847,488.954877 411.499548,488.116767 C412.259235,487.243369 413.012237,487.20955 412.998862,487.081628" id="Fill-160" fill="#132529" fill-rule="nonzero"></path>
            <polyline id="Fill-161" fill="#334F55" fill-rule="nonzero" points="391 348 364.447237 415.141371 250.116919 417 248 410.829132 288.068151 409.379208 307.325281 349.818313 391 348"></polyline>
            <path d="M337.10887,376.569946 C338.575837,375.565159 341.289448,375.967637 342.608602,377.162404 C343.930546,378.357172 344.35725,380.424443 343.686517,382.080794 C343.015783,383.737144 341.324309,384.898137 339.554745,384.993831 C337.67223,385.096562 335.711626,383.907423 335.184522,382.082201 C334.658812,380.256979 335.243089,377.532515 337.10887,376.569946" id="Fill-162" fill="#E4E4DE" fill-rule="nonzero"></path>
            <path d="M372,473.471204 C372,473.471204 266.572631,403.611557 262.255495,402.15876 C257.93836,400.704555 247.506097,393.799896 237.073834,396.706898 C226.641571,399.6139 217.288941,409.063419 212.610534,422.872737 C209.93935,430.762366 208.676989,444.223633 208.085562,454.319935 C207.376966,466.390406 211.077567,478.42424 218.891651,487.582072 C222.44858,491.748822 226.835459,495.374473 232.036944,497.009045 C233.13471,497.355687 234.274322,497.65301 235.444621,497.909469 C255.377372,502.276313 275.862492,493.236847 287.06054,476.016064 L289.521098,472.232593 C289.521098,472.232593 358.487855,497.829149 359.567488,497.467007 L372,473.471204" id="Fill-164" fill="#132529" fill-rule="nonzero"></path>
            <path d="M242,454.986877 C242,454.986877 242.192661,455.086244 242.582204,455.246653 C243.002684,455.415579 243.580669,455.646966 244.321784,455.943652 C245.891204,456.552638 248.153924,457.43276 251.060725,458.56272 C256.972768,460.809867 265.501917,464.054957 276.103937,468.085057 C286.741115,472.092444 299.483507,476.855032 313.779852,482.105944 C328.077601,487.352598 343.922271,493.11171 360.842751,498.894954 L361.149321,499 L361.299795,498.708991 C363.957684,493.587258 366.760418,488.184454 369.603938,482.700735 C371.055228,479.904224 372.493864,477.129005 373.836869,474.536907 L374,474.223188 L373.704678,474.034388 C341.788929,453.582941 313.234211,435.284953 292.627843,422.080306 C282.339426,415.529086 274.035285,410.241266 268.273715,406.57315 C265.420351,404.776 263.198415,403.374906 261.658526,402.406774 C260.921631,401.951098 260.347864,401.597631 259.933008,401.340691 C259.542061,401.105046 259.331118,401 259.331118,401 C259.331118,401 259.513935,401.147632 259.892227,401.40599 C260.298645,401.675705 260.858347,402.051885 261.579774,402.534532 C263.102787,403.531056 265.299411,404.969058 268.120429,406.818733 C273.851061,410.535112 282.110201,415.89107 292.346585,422.528883 C312.919201,435.784634 341.426106,454.150762 373.289822,474.681702 L373.159038,474.179182 C371.816032,476.771278 370.37599,479.546497 368.924699,482.34159 C366.082586,487.826728 363.281257,493.229533 360.626183,498.352686 L361.084633,498.166723 C344.171183,492.399096 328.320889,486.666955 314.009077,481.464307 C299.722576,476.214816 286.959089,471.526044 276.279723,467.60383 C265.643952,463.664581 257.088084,460.497566 251.159166,458.301524 C248.231269,457.225505 245.95308,456.387971 244.37241,455.808795 C243.618639,455.5405 243.033622,455.330407 242.608924,455.178515 C242.209537,455.0394 242,454.986877 242,454.986877" id="Fill-166" fill="#334F55" fill-rule="nonzero"></path>
            <path d="M252.340742,207.511232 C254.151298,202.709025 258.154767,200.624165 263.232197,199.421202 C268.306818,198.21686 273.953563,199.641675 277.802402,203.100368 C280.377665,205.412592 282.265537,208.608092 285.446663,210.021884 C290.682939,212.349265 297.395214,208.948449 302.358782,211.792568 C305.298127,213.476441 306.740387,217.308561 305.62144,220.461344 C304.502494,223.61275 300.946043,225.738948 297.575144,225.270441 C300.988214,226.850967 301.625002,231.886048 299.274652,234.781153 C296.927112,237.676257 292.580651,238.460319 288.949697,237.453027 C285.318743,236.445734 282.302086,233.959886 279.736661,231.248051 C277.171236,228.533461 274.924908,225.522607 272.148629,223.018847 C269.369535,220.513707 265.904456,218.496366 262.134337,218.358569 C257.027386,218.171167 252.316843,221.536156 249.636152,225.800957 C246.956865,230.063003 245.955998,235.118754 245.20816,240.073915 C244.461725,245.027698 243.899441,250.083451 241.94972,254.712033 C241.720589,255.256329 241.394463,255.858501 240.806874,255.978384 C239.957826,256.153384 239.337906,255.231526 238.997724,254.451599 C235.157319,245.628491 233.10779,236.062661 233.003768,226.470648 C232.943322,220.900915 233.58011,215.688075 237.108446,211.321303 C240.638189,206.954534 248.777261,204.234431 252.340742,207.511232" id="Fill-167" fill="#132529" fill-rule="nonzero"></path>
            <path d="M240.865809,231.473819 L233.159719,287.785913 C231.847395,297.361633 238.773859,306.092191 248.352717,306.934565 C257.292059,307.722547 265.271435,301.307121 266.485265,292.36876 C267.062355,288.130395 267.550662,284.596331 267.638058,284.163988 C267.638058,284.163988 282.081949,284.787399 285.053406,270.741802 C286.489195,263.954003 288.314796,249.731282 289.817171,236.84604 C291.431913,223.006852 282.185992,210.24434 268.596636,207.514994 L267.244083,207.243035 C252.503324,205.171969 242.518006,216.601189 240.865809,231.473819" id="Fill-168" fill="#F1AD92" fill-rule="nonzero"></path>
            <path d="M267,284.210742 C267,284.210742 258.121385,283.117771 250,275 C250,275 252.271687,286.402468 266.316714,288 L267,284.210742" id="Fill-169" fill="#EA8E6C" fill-rule="nonzero"></path>
            <path d="M283.975891,245.29993 C283.805978,246.392907 282.782423,247.142459 281.690902,246.977159 C280.6021,246.811858 279.853125,245.794405 280.024397,244.701428 C280.19431,243.609874 281.216506,242.857471 282.306667,243.022773 C283.399547,243.188073 284.145804,244.208376 283.975891,245.29993" id="Fill-170" fill="#132529" fill-rule="nonzero"></path>
            <path d="M284.943705,241.978921 C284.64185,242.188836 283.342201,240.771913 281.171926,240.34794 C279.011434,239.896347 277.196116,240.683527 277.014445,240.375561 C276.922211,240.236078 277.271579,239.81901 278.065345,239.457184 C278.847928,239.093977 280.108449,238.842632 281.458407,239.114693 C282.808366,239.388133 283.843894,240.104881 284.395896,240.736006 C284.960474,241.374035 285.091837,241.887774 284.943705,241.978921" id="Fill-171" fill="#132529" fill-rule="nonzero"></path>
            <path d="M262.975923,240.300574 C262.806009,241.392416 261.782447,242.143593 260.690917,241.976824 C259.602107,241.811481 258.853125,240.793757 259.024397,239.701913 C259.194311,238.608644 260.217875,237.857467 261.308045,238.022812 C262.398215,238.18673 263.145837,239.207305 262.975923,240.300574" id="Fill-172" fill="#132529" fill-rule="nonzero"></path>
            <path d="M263.945473,237.978674 C263.643608,238.189969 262.339719,236.771663 260.172159,236.349071 C258.011587,235.896096 256.197601,236.684659 256.014526,236.375311 C255.92229,236.235828 256.268875,235.818759 257.066861,235.456933 C257.848078,235.095106 259.110042,234.842379 260.458652,235.114441 C261.807263,235.387882 262.845622,236.10463 263.396246,236.735756 C263.958051,237.372407 264.090816,237.887526 263.945473,237.978674" id="Fill-173" fill="#132529" fill-rule="nonzero"></path>
            <path d="M268.000182,255.265511 C268.01681,255.146614 269.674686,255.180963 272.340257,255.330246 C273.012053,255.380447 273.663897,255.375162 273.863441,255.035642 C274.11287,254.682913 273.979842,254.073891 273.815216,253.41467 C273.512575,252.048667 273.199957,250.617931 272.867384,249.11982 C271.590305,243.016402 270.803769,238.03855 271.114727,238.000238 C271.424019,237.960606 272.712738,242.877688 273.989819,248.981106 C274.290797,250.484501 274.578472,251.916559 274.849519,253.286526 C274.947628,253.920646 275.208698,254.664417 274.673255,255.3963 C274.397221,255.758277 273.841823,255.965688 273.397837,255.988146 C272.948866,256.023815 272.578046,255.970971 272.247136,255.935303 C269.603183,255.630131 267.980226,255.383088 268.000182,255.265511" id="Fill-174" fill="#132529" fill-rule="nonzero"></path>
            <path d="M261.728138,256.002843 C262.115997,256.057487 261.609498,258.615157 263.43776,260.866211 C265.262981,263.123334 268.051004,263.381379 267.999291,263.74264 C268.002332,263.909611 267.292018,264.117563 266.133002,263.918718 C264.995282,263.732014 263.416465,263.03985 262.296998,261.663111 C261.182093,260.283335 260.903746,258.684981 261.026948,257.619412 C261.144067,256.529557 261.556263,255.95427 261.728138,256.002843" id="Fill-175" fill="#132529" fill-rule="nonzero"></path>
            <path d="M266.969444,230.786319 C266.640919,231.363436 264.557957,230.612151 261.983588,230.39813 C259.41474,230.130974 257.242055,230.483739 257.012916,229.854962 C256.91491,229.555333 257.377331,229.044638 258.309073,228.616597 C259.232533,228.188556 260.636358,227.893356 262.178218,228.036529 C263.718699,228.184129 265.052126,228.734677 265.894146,229.32803 C266.741686,229.921383 267.114383,230.510307 266.969444,230.786319" id="Fill-176" fill="#132529" fill-rule="nonzero"></path>
            <path d="M286.886671,235.892681 C286.369567,236.278692 284.868004,235.526165 282.935267,235.170048 C281.019116,234.755445 279.285384,234.86202 279.020048,234.318746 C278.906978,234.056207 279.273323,233.641603 280.090438,233.332275 C280.897001,233.021647 282.160364,232.872181 283.484032,233.13602 C284.806191,233.401158 285.864522,234.015916 286.429869,234.600781 C287.004262,235.189545 287.120347,235.700326 286.886671,235.892681" id="Fill-177" fill="#132529" fill-rule="nonzero"></path>
            <path d="M240,242.303325 C239.758798,242.144073 229.973975,237.280276 228.193379,247.428647 C226.414319,257.578481 237.494261,257.184 237.563396,256.896175 C237.632531,256.608351 240,242.303325 240,242.303325" id="Fill-178" fill="#F1AD92" fill-rule="nonzero"></path>
            <path d="M235.556242,250.443528 C235.519721,250.407163 235.37886,250.526645 235.09192,250.604569 C234.811503,250.678596 234.351096,250.686388 233.908948,250.431839 C233.010306,249.922742 232.457296,248.277264 232.686848,246.643476 C232.800319,245.818789 233.104214,245.065533 233.504625,244.466822 C233.890688,243.85123 234.398049,243.462912 234.893673,243.457717 C235.391904,243.426548 235.68406,243.770709 235.753185,244.04344 C235.832747,244.314872 235.744057,244.486304 235.789705,244.508381 C235.811878,244.535655 236.008822,244.390199 235.999692,244.004478 C235.991867,243.820061 235.921437,243.588888 235.736231,243.381094 C235.549719,243.168104 235.245826,243.026543 234.902803,243.005764 C234.197192,242.93823 233.460279,243.473302 233.019436,244.130453 C232.54077,244.785008 232.180791,245.627876 232.051667,246.553864 C231.805162,248.38246 232.454687,250.23833 233.70157,250.833143 C234.311968,251.104575 234.874108,251.000677 235.185829,250.833143 C235.502766,250.657815 235.58363,250.464307 235.556242,250.443528" id="Fill-179" fill="#EA8E6C" fill-rule="nonzero"></path>
            <path d="M293,234.391278 C286.447553,234.799904 279.773404,231.847797 275.694212,226.737203 C272.841857,223.15965 271.027484,218.472973 266.986063,216.301979 C264.266601,214.841214 260.920434,214.823146 257.974351,215.752976 C255.026869,216.682806 252.427714,218.481312 250.101343,220.504978 C251.396726,228.179901 247.962426,235.775601 244.614859,242.809788 C244.245549,243.58673 243.823083,244.419269 243.046693,244.800096 C241.72893,245.446391 240.156566,244.423438 239.367587,243.192005 C238.107179,241.218373 237.958896,238.752725 238.007856,236.416335 C238.112774,231.093091 239.054234,225.73927 241.229523,220.873297 C243.404811,216.007324 246.862892,211.640317 251.388332,208.786892 C257.042683,205.220457 264.167279,204.203065 270.714129,205.608235 C277.260979,207.012015 283.206303,210.738285 287.657601,215.71128 C289.720979,218.018482 291.518565,220.668984 292.220813,223.676687" id="Fill-180" fill="#132529" fill-rule="nonzero"></path>
        </g>
    </g>
</svg>