<?xml version="1.0" encoding="UTF-8"?>
<svg width="300px" height="200px" viewBox="0 0 300 279" version="1.1" xmlns="http://www.w3.org/2000/svg" xmlns:xlink="http://www.w3.org/1999/xlink">
    <title>6099983 copy 2</title>
    <defs>
        <polygon id="path-1" points="0 2.2249662e-14 60.9107371 2.2249662e-14 60.9107371 21.344926 0 21.344926"></polygon>
    </defs>
    <g id="6099983-copy-2" stroke="none" stroke-width="1" fill="none" fill-rule="evenodd">
        <g id="Group" transform="translate(29.000000, 0.000000)">
            <path d="M8.53039495,241.16982 C8.68304883,241.16982 8.80752045,242.405142 8.80752045,243.92855 C8.80752045,245.451957 8.68304883,246.687279 8.53039495,246.687279 C8.37695824,246.687279 8.25326946,245.451957 8.25326946,243.92855 C8.25326946,242.405142 8.37695824,241.16982 8.53039495,241.16982" id="Fill-4" fill="#FAF9F6"></path>
            <path d="M7.57063264,241.050045 C7.72406936,241.050045 7.84775814,242.285368 7.84775814,243.808775 C7.84775814,245.332965 7.72406936,246.567505 7.57063264,246.567505 C7.41719592,246.567505 7.29350714,245.332965 7.29350714,243.808775 C7.29350714,242.285368 7.41719592,241.050045 7.57063264,241.050045" id="Fill-5" fill="#FAF9F6"></path>
            <path d="M7.21052606,246.77574 C7.36317994,246.77574 7.48765156,251.378842 7.48765156,257.055217 C7.48765156,262.733941 7.36317994,267.33626 7.21052606,267.33626 C7.05708935,267.33626 6.93340056,262.733941 6.93340056,257.055217 C6.93340056,251.378842 7.05708935,246.77574 7.21052606,246.77574" id="Fill-12" fill="#D4D5CF"></path>
            <path d="M219.692195,202.382427 C223.852992,200.235096 228.752007,199.956405 233.372331,200.719674 C235.853935,201.129883 238.44044,201.872798 240.129809,203.736741 C241.818396,205.601467 242.138578,208.881568 240.198699,210.48326 C239.044793,211.436759 237.435273,211.580802 235.938482,211.564362 C232.322542,211.522089 228.309702,210.88564 225.420239,213.061153 C223.77236,214.302738 222.6756,216.366305 220.704408,216.976921 C218.776272,217.574228 216.600759,216.435978 215.578369,214.696507 C214.556762,212.95547 214.522317,210.780739 214.998284,208.819724 C214.998284,208.819724 215.500868,204.544633 219.692195,202.382427" id="Fill-14" fill="#E4E4DE"></path>
            <path d="M210.158765,183.979416 C212.702996,187.613361 217.648199,186.410135 219.941139,184.192348 C222.234078,181.973778 223.202452,178.759436 224.084713,175.69305 C226.10131,168.688977 228.13278,161.341237 226.634424,154.207996 C226.186639,152.075538 225.388925,149.949344 223.889786,148.366441 C222.391429,146.785103 220.08753,145.843346 217.980906,146.400728 C215.48756,147.058314 213.938319,149.500776 212.818074,151.823464 C209.525447,158.652181 207.782062,166.22303 207.757011,173.803273 C207.744485,177.34406 208.161739,181.05629 210.158765,183.979416" id="Fill-15" fill="#E4E4DE"></path>
            <path d="M203.171915,189.193915 C205.934558,185.914597 206.459061,181.133008 205.229219,177.026227 C204.00016,172.918664 201.222642,169.424064 198.022391,166.571394 C194.269454,163.2271 189.858931,160.624155 185.117267,158.956705 C183.250193,158.300685 181.282915,157.783228 179.313288,157.971109 C177.343662,158.158208 175.360727,159.164941 174.441672,160.916938 C173.084227,163.508139 174.386091,166.649678 175.794421,169.212697 C178.276025,173.729686 181.113038,178.0494 184.271016,182.120952 C186.811333,185.396357 189.721934,188.627922 193.593863,190.108273 C197.465791,191.587841 201.488025,191.414051 203.540633,188.728908" id="Fill-16" fill="#E4E4DE"></path>
            <path d="M209.987323,238.797038 C210.034294,238.799379 210.111795,238.210683 210.217478,237.14602 C210.334121,235.943578 210.480513,234.435044 210.655086,232.639208 C210.86567,230.743169 211.142013,228.48624 211.668864,226.028904 C212.19415,223.577831 213.016133,220.921653 214.071401,218.227117 C215.165029,215.549803 216.497424,213.115169 218.055276,211.169028 C219.602169,209.213493 221.401136,207.798117 223.092071,206.981615 C224.776744,206.149455 226.288409,205.811268 227.3335,205.660963 C228.387204,205.552931 228.976683,205.46995 228.976683,205.422979 C228.977465,205.376009 228.387204,205.368181 227.304535,205.397146 C226.232044,205.469167 224.657752,205.74003 222.881487,206.547921 C221.099742,207.337807 219.191178,208.775102 217.568349,210.771345 C215.932996,212.758977 214.552065,215.246843 213.439649,217.971911 C212.365592,220.713418 211.556135,223.396995 211.054335,225.901301 C210.553317,228.401693 210.324727,230.683673 210.175205,232.595369 C210.031945,234.508631 209.977929,236.058655 209.952095,237.129581 C209.927827,238.200506 209.940353,238.793899 209.987323,238.797038" id="Fill-17" fill="#D4D5CF"></path>
            <path d="M210.297328,235.329055 C210.320813,235.328265 210.335687,235.063665 210.34195,234.562647 C210.340384,233.986477 210.338036,233.262349 210.335687,232.371477 C210.330207,230.469958 210.331773,227.719057 210.433542,224.320746 C210.601853,217.524909 211.186635,210.210831 212.316273,199.899258 C213.386416,190.204562 214.822928,178.920701 216.33929,171.583138 C216.664952,169.915688 216.992179,168.413417 217.299835,167.099028 C217.5934,165.780725 217.845475,164.644824 218.08659,163.725769 C218.295608,162.86073 218.464702,162.156174 218.59935,161.596443 C218.708948,161.107168 218.755918,160.847265 218.733216,160.840103 C218.710514,160.833957 218.619704,161.080551 218.46705,161.558867 C218.300305,162.109986 218.088938,162.805149 217.830601,163.657662 C217.548778,164.568888 217.25991,165.697744 216.929552,167.009784 C216.585102,168.319476 216.224212,169.817833 215.86802,171.483717 C214.368098,178.130815 212.780498,187.421565 211.639116,197.757406 C210.507129,208.090117 209.996717,217.499075 209.952095,224.312135 C209.911388,227.718274 209.983409,230.475438 210.070304,232.378523 C210.12432,233.267829 210.168942,233.992739 210.20417,234.56891 C210.242529,235.068362 210.273843,235.330614 210.297328,235.329055" id="Fill-18" fill="#D4D5CF"></path>
            <path d="M210.342733,217.183591 C210.389703,217.182025 210.381875,216.367871 210.326293,214.894565 C210.242529,213.423608 210.040556,211.297414 209.625651,208.693687 C209.186477,206.095439 208.572731,203.011048 207.609054,199.658926 C207.191017,198.126907 206.209335,194.454603 203.831066,188.968457 C200.696573,181.533822 196.44027,175.457415 192.736652,171.691953 C191.8677,170.693831 190.900109,169.972835 190.126662,169.266713 C189.725848,168.927743 189.372004,168.589556 189.011115,168.321825 C188.64866,168.072882 188.311256,167.839595 187.998902,167.624314 C186.779237,166.790589 186.0966,166.351416 186.071549,166.391341 C185.961952,166.539297 188.802097,168.210662 192.387506,172.025443 C195.958823,175.831613 200.097701,181.867312 203.205577,189.238537 C204.938785,193.237286 206.147491,196.803124 207.004701,199.831151 C207.995777,203.151177 208.654146,206.204254 209.150467,208.775885 C209.623302,211.353778 209.896514,213.458836 210.061693,214.915702 C210.197907,216.375699 210.295762,217.184373 210.342733,217.183591" id="Fill-19" fill="#D4D5CF"></path>
            <polyline id="Fill-20" fill="#E4E4DE" points="191.589008 246.43677 193.407547 271.346751 225.409279 271.346751 227.227817 246.43677 191.589008 246.43677"></polyline>
            <polygon id="Fill-21" fill="#E4E4DE" points="188.497572 246.43677 231.046512 246.43677 231.046512 236.617603 188.497572 236.617603"></polygon>
            <polygon id="Fill-22" fill="#D4D5CF" points="188.497572 273.115188 230.343522 273.115188 230.343522 270.393252 188.497572 270.393252"></polygon>
            <polyline id="Fill-23" fill="#D4D5CF" points="192.456395 277.603995 190.496946 272.813794 228.818549 272.813794 226.531872 277.603995 192.456395 277.603995"></polyline>
            <path d="M226.632858,254.577527 C226.640687,254.58379 226.589802,254.661291 226.484119,254.806117 C226.357298,254.974427 226.199948,255.184229 226.006586,255.441 C225.550973,256.022651 224.927832,256.821148 224.14186,257.826315 L224.058879,257.931998 L223.979029,257.821618 C222.807117,256.200356 221.241437,254.035802 219.39863,251.486874 L219.662447,251.486874 C218.300305,253.416575 216.782378,255.564689 215.152504,257.87172 L215.011593,258.072127 L214.852676,257.884245 C213.18914,255.903659 211.381562,253.753196 209.505093,251.521319 L209.813533,251.517404 C209.721157,251.633265 209.620171,251.760085 209.519185,251.886905 C207.861129,253.966129 206.255523,255.978029 204.738378,257.881897 L204.577896,258.081521 L204.431505,257.873285 C202.807894,255.576432 201.290749,253.429883 199.919213,251.490005 L200.182247,251.50253 C197.958198,254.035802 196.073118,256.183916 194.626429,257.832578 L194.527791,257.945307 L194.451856,257.819269 C193.719117,256.587862 193.135118,255.607745 192.712384,254.895361 C192.530765,254.579093 192.382808,254.322321 192.266165,254.117217 C192.167527,253.940295 192.120557,253.845572 192.129168,253.840092 C192.137779,253.835395 192.20119,253.919159 192.315484,254.086686 C192.445436,254.283962 192.608267,254.530557 192.809457,254.835865 C193.254893,255.534158 193.867857,256.497052 194.635823,257.704975 L194.462815,257.691666 C195.886019,256.022651 197.741351,253.847137 199.92939,251.284118 L200.06717,251.12207 L200.192424,251.296643 C201.575703,253.227128 203.106156,255.364282 204.743858,257.650959 L204.437768,257.642348 C205.951781,255.736914 207.55269,253.7211 209.208397,251.638745 C209.308601,251.511924 209.408804,251.385887 209.501962,251.269244 L209.654616,251.078231 L209.810401,251.26533 C211.682173,253.501905 213.483488,255.656281 215.143893,257.639999 L214.844848,257.652524 C216.489595,255.356454 218.022397,253.219299 219.39863,251.299775 L219.531713,251.112676 L219.662447,251.299775 C221.466112,253.876102 222.998913,256.064924 224.145774,257.702626 L223.982944,257.697146 C224.800229,256.717813 225.449204,255.938887 225.922039,255.372893 C226.132623,255.12943 226.303282,254.931371 226.441062,254.771672 C226.56162,254.637806 226.626596,254.571265 226.632858,254.577527" id="Fill-24" fill="#F1F0EC"></path>
            <path d="M227.67247,246.271591 C227.67247,246.381971 219.653836,246.471215 209.764996,246.471215 C199.873025,246.471215 191.855957,246.381971 191.855957,246.271591 C191.855957,246.161993 199.873025,246.072749 209.764996,246.072749 C219.653836,246.072749 227.67247,246.161993 227.67247,246.271591" id="Fill-25" fill="#F1F0EC"></path>
            <polygon id="Fill-51" fill="#F1F0EC" points="36.2836524 39.2510161 57.4422624 39.2510161 57.4422624 19.9688745 36.2836524 19.9688745"></polygon>
            <path d="M57.4430452,39.2510161 C57.4359996,39.2447533 57.4289541,39.1179332 57.4219085,38.878384 C57.4172115,38.6114355 57.4101659,38.2662029 57.4015547,37.8317264 C57.3898121,36.8891866 57.3733724,35.567752 57.3538014,33.9018677 C57.3303162,30.5090375 57.2982197,25.7188371 57.2590777,19.9696573 L57.4422624,20.152842 C51.3314103,20.1622361 44.0650858,20.1731958 36.2852181,20.1841556 C36.2358991,20.231126 36.6915122,19.7778614 36.4989335,19.9720058 L36.4989335,21.2785665 C36.4989335,21.7146086 36.4989335,22.1483021 36.4989335,22.58043 C36.4981506,23.4446858 36.4981506,24.3003304 36.4973678,25.1481465 C36.4958021,26.8437788 36.4942364,28.5041832 36.4926708,30.1223143 C36.4856252,33.3570108 36.4785796,36.4218309 36.4730997,39.2510161 L36.2836524,39.0623515 C42.5589009,39.1014936 47.816457,39.1351557 51.5466914,39.1578581 C53.3816693,39.1789948 54.8393181,39.1962172 55.8757988,39.2079599 C56.3564628,39.2173539 56.7384889,39.2243995 57.0312712,39.2298794 C57.2950884,39.2369249 57.4352168,39.2447533 57.4430452,39.2510161 C57.4500908,39.2588445 57.3240535,39.26589 57.0735445,39.2729356 C56.7901563,39.2791983 56.4198728,39.2862439 55.9548656,39.295638 C54.9285619,39.3073806 53.4850042,39.3238202 51.6672488,39.3449569 C47.9088321,39.3684421 42.6090027,39.4013214 36.2836524,39.4404634 L36.0949878,39.4420291 L36.094205,39.2510161 C36.0879423,36.4218309 36.0816796,33.3570108 36.074634,30.1223143 C36.0730683,28.5041832 36.0715026,26.8437788 36.0699369,25.1481465 C36.0699369,24.3003304 36.0691541,23.4446858 36.0683713,22.58043 C36.0683713,22.1483021 36.0683713,21.7146086 36.0683713,21.2785665 L36.0683713,19.9720058 C35.8750097,20.1630189 36.32984,19.7058401 36.2852181,19.7535934 C44.0650858,19.765336 51.3314103,19.7762958 57.4422624,19.7856898 L57.6277955,19.7856898 L57.6262299,19.9696573 C57.5870878,25.7665904 57.5549914,30.5974984 57.532289,34.0177281 C57.5119352,35.6663899 57.4954955,36.9745162 57.4837529,37.9068791 C57.4759245,38.3264816 57.4680961,38.6607544 57.4633991,38.9190917 C57.4563535,39.1453326 57.4493079,39.2580616 57.4430452,39.2510161" id="Fill-52" fill="#D4D5CF"></path>
            <polygon id="Fill-53" fill="#F1F0EC" points="36.2836524 51.9627783 57.4422624 51.9627783 57.4422624 42.2743456 36.2836524 42.2743456"></polygon>
            <path d="M57.4430452,51.9627783 C57.4320854,51.9518185 57.4211257,51.7099208 57.4093831,51.2605705 C57.399989,50.7728609 57.3866807,50.1262347 57.3702411,49.3144293 C57.3498872,47.6054887 57.3209221,45.2115628 57.2864771,42.2743456 L57.4422624,42.4309137 C51.9240205,42.4465705 44.4792084,42.4669244 36.2852181,42.4896268 C36.0918565,42.6822055 36.5459039,42.2273752 36.4989335,42.2751285 L36.4989335,43.5441128 C36.4989335,43.9652809 36.4989335,44.3848833 36.4981506,44.8013544 C36.4981506,45.6350794 36.496585,46.4578447 36.496585,47.2688673 C36.4934536,48.8893469 36.4911051,50.4589419 36.4879737,51.9627783 L36.2836524,51.7584569 C42.386676,51.797599 47.6371865,51.8312611 51.4143914,51.8555292 C53.2634604,51.8790144 54.7500743,51.8985854 55.8233484,51.9118937 C56.3118408,51.9228534 56.7056096,51.9306818 57.0140487,51.9377274 C57.2880428,51.9463386 57.434434,51.954167 57.4430452,51.9627783 C57.4508736,51.9713895 57.3209221,51.9792179 57.0633676,51.9878292 C56.7658883,51.9940919 56.3862107,52.0027031 55.9149408,52.0136629 C54.8526264,52.0269712 53.3816693,52.0465422 51.5521713,52.0700274 C47.7405214,52.0942955 42.4422577,52.1279576 36.2836524,52.1678825 L36.079331,52.1686653 L36.079331,51.9627783 C36.0761997,50.4589419 36.0738511,48.8893469 36.0707198,47.2688673 C36.0699369,46.4578447 36.0699369,45.6350794 36.0691541,44.8013544 C36.0691541,44.3848833 36.0683713,43.9652809 36.0683713,43.5441128 L36.0683713,42.2751285 C36.0214008,42.3205332 36.4770139,41.865703 36.2852181,42.0582817 C44.4792084,42.0817669 51.9240205,42.1021208 57.4422624,42.1177776 L57.601179,42.1185604 L57.5988304,42.2743456 C57.5643855,45.2514876 57.5354204,47.67751 57.5150665,49.4107186 C57.4986269,50.2068673 57.4853186,50.8425337 57.4759245,51.3200663 C57.4641819,51.7529771 57.4532221,51.9737381 57.4430452,51.9627783" id="Fill-54" fill="#D4D5CF"></path>
            <path d="M68.1382106,10.3837768 C68.1382106,12.5804269 66.3580315,14.360606 64.1613814,14.360606 C61.9655141,14.360606 60.1845522,12.5804269 60.1845522,10.3837768 C60.1845522,8.18712665 61.9655141,6.40694761 64.1613814,6.40694761 C66.3580315,6.40694761 68.1382106,8.18712665 68.1382106,10.3837768" id="Fill-60" fill="#D4D5CF"></path>
            <path d="M14.6733435,9.78960093 C2.11110378,29.5508408 2.93386902,56.947123 16.6594095,75.918477 C25.8100308,88.5652634 39.5355713,97.0418592 50.4350581,108.216906 C61.3337619,119.391952 69.612299,135.859783 63.8599879,150.371295 C58.0043418,165.143493 40.8538746,171.153359 28.0098123,180.51065 C14.0196718,190.703232 4.19345921,206.446935 1.18343792,223.492501 C-1.82658337,240.537285 2.01246589,258.694485 11.6656707,273.061955 L145.078895,273.061955 C145.078895,273.061955 168.514788,228.397779 138.383261,194.359879 C108.250952,160.321979 92.0696412,159.764597 93.1844059,137.444252 C94.3007363,115.123906 109.924665,107.870107 118.852959,99.499978 C127.781254,91.1306314 171.304831,71.6003294 145.636278,9.78960093 L14.6733435,9.78960093" id="Fill-98" fill="#FAF9F6"></path>
            <path d="M14.6733435,9.79038377 C14.6733435,9.79038377 15.4483555,9.77785832 16.97098,9.7715956 C18.4975188,9.7676814 20.7630589,9.76141867 23.7331553,9.75359027 C29.6874393,9.74497903 38.4638629,9.73167074 49.7672952,9.71601393 C72.398428,9.69879144 105.147773,9.67530623 145.636278,9.6455583 L145.734915,9.6455583 L145.770143,9.7348021 C147.592596,14.3637373 149.435402,19.1296696 150.74118,24.1805558 C152.085317,29.2103053 153.18599,34.4490731 153.575845,39.8796369 C153.98527,45.2984581 153.809131,50.8942012 152.729594,56.4508022 C151.615612,61.9925293 149.630329,67.4818061 146.699375,72.5600917 C145.241726,75.104323 143.526523,77.5201684 141.674322,79.8514671 C139.800202,82.1686746 137.724893,84.3465366 135.528243,86.4265435 C133.328461,88.5034191 130.98542,90.4597372 128.552352,92.3315085 C126.124764,94.2103255 123.590709,95.9850246 121.116151,97.8591445 C119.876915,98.7938559 118.74571,99.8420792 117.564404,100.892651 C116.377618,101.922869 115.156387,102.917076 113.922631,103.901889 C111.457466,105.873082 108.967251,107.845057 106.617164,110.003347 C101.871586,114.248691 97.8642258,119.550086 95.6597472,125.719651 C94.5896044,128.797779 93.8232037,132.023865 93.5734776,135.325885 C93.5069362,136.150999 93.3957728,136.973764 93.3652421,137.802792 C93.3488024,138.63182 93.301832,139.462414 93.3417569,140.293791 C93.3519338,141.956544 93.5398155,143.618514 93.8419919,145.256999 C94.4682642,148.533968 95.8444976,151.673941 97.8470033,154.395877 C99.8181954,157.142864 102.249698,159.561841 104.765747,161.88766 C109.831507,166.518944 115.203358,170.93886 120.350533,175.712621 C125.521194,180.458982 130.543115,185.469944 135.380286,190.736111 C137.779691,193.378197 140.220588,196.037506 142.3186,198.985683 C144.488634,201.879844 146.310303,205.040953 147.911995,208.31166 C151.067624,214.884388 153.01768,222.095131 153.65726,229.468705 C154.343811,236.842278 153.819308,244.35598 152.356962,251.708417 C151.635183,255.38855 150.673855,259.033455 149.494898,262.619647 C148.315157,266.205839 146.953798,269.741146 145.259731,273.157461 L145.205715,273.266276 L145.078895,273.266276 C143.996227,273.266276 142.820401,273.266276 141.643792,273.266276 C96.1012692,273.263145 52.1588726,273.260013 11.6656707,273.256882 L11.5607701,273.256882 L11.5036227,273.170769 C5.1469588,263.627945 1.37288529,252.665831 0.331707576,241.679449 C-0.774445892,230.691501 0.916489345,219.671457 4.9473345,209.891432 C8.92572935,200.07618 15.1109513,191.468067 22.5831628,184.701194 C26.3087002,181.291925 30.4616684,178.501099 34.6232479,175.920074 C38.7887416,173.333569 42.9886803,170.941992 46.9608124,168.324956 C50.9149392,165.703224 54.7258062,162.909267 57.8203743,159.491385 C60.9251193,156.103252 63.2971256,152.121726 64.5402762,147.84272 C65.7873409,143.560584 65.7990835,139.068645 65.0694763,134.840524 C64.3296921,130.596747 62.8360326,126.583907 60.9462559,122.887335 C59.0509994,119.186065 56.75258,115.788538 54.2310511,112.686924 C51.7157849,109.575917 48.9202619,106.814839 46.1051679,104.20798 C40.4577573,99.0091371 34.6780467,94.4624001 29.4752895,89.7896258 C26.8699967,87.4583271 24.4001353,85.1051089 22.1283325,82.686915 C19.8729693,80.2554127 17.8101849,77.7620661 16.0386171,75.1794757 C12.4649507,70.0260374 10.0146603,64.5978221 8.40514049,59.3574886 C6.79248929,54.1108923 5.99164358,49.0388694 5.80767609,44.3723579 C5.69807843,43.2074914 5.74113465,42.0645444 5.74270033,40.9489969 C5.7575743,39.8342322 5.72391217,38.7437355 5.8389897,37.6853353 C5.92118794,36.6261523 6.00025482,35.5935858 6.07775602,34.5876359 C6.19831344,33.5871659 6.36349276,32.6187923 6.49814131,31.673904 C7.67318473,24.1163629 9.95281594,18.5942068 11.7306465,15.0596824 C12.1565116,14.1617645 12.532275,13.3718785 12.9377863,12.7330808 C13.3190296,12.0833233 13.6384285,11.5384664 13.8952001,11.1000757 C14.4095263,10.2264259 14.6733435,9.79038377 14.6733435,9.79038377 C14.6193275,9.8858903 14.4016979,10.2702649 13.9179025,11.1259095 C13.6650451,11.5650829 13.3519089,12.1107227 12.9792769,12.7620459 C12.5823768,13.3984951 12.2113105,14.1899467 11.7909252,15.0894304 C10.0350142,18.6294346 7.77965102,24.150025 6.62809281,31.6942578 C6.49657563,32.6375805 6.33374483,33.6043884 6.21631877,34.6032927 C6.14116609,35.6061112 6.06444773,36.637112 5.98538085,37.6939465 C5.87265184,38.7492154 5.9086625,39.8373635 5.89613705,40.9497797 C5.89691989,42.0621959 5.85621219,43.2027943 5.96815837,44.3645295 C6.16151994,49.0185156 6.9709769,54.0748817 8.5875423,59.3019069 C10.2009763,64.5226695 12.6512668,69.9273995 16.2178876,75.0542212 C17.9855412,77.625069 20.0451942,80.1066731 22.297426,82.5287812 C24.5668803,84.9367982 27.0336104,87.282188 29.6381203,89.607224 C34.8393119,94.2674728 40.6237195,98.8079471 46.2883525,104.010704 C49.1097093,106.617563 51.9193234,109.385686 54.4486807,112.510002 C56.9843007,115.621793 59.2968112,119.033411 61.206159,122.753469 C63.1108096,126.470395 64.6185602,130.508286 65.3685213,134.788857 C66.1083055,139.052989 66.1004771,143.594246 64.8416697,147.929616 C63.5875594,152.260289 61.1889365,156.288785 58.0583578,159.709798 C54.9387388,163.161341 51.1083008,165.970955 47.1439971,168.603648 C43.161688,171.23086 38.9594008,173.626351 34.8033012,176.210508 C30.6495501,178.791532 26.5208499,181.568267 22.8180149,184.96188 C15.3880767,191.696656 9.23886551,200.264844 5.28630439,210.029995 C1.28207581,219.759918 -0.394768304,230.714987 0.709036642,241.643439 C1.74786584,252.568759 5.50628254,263.469029 11.8269358,272.953923 L11.6656707,272.867027 C52.1588726,272.864679 96.1012692,272.861547 141.643792,272.859199 C142.820401,272.859199 143.996227,272.859199 145.078895,272.859199 L144.898059,272.967231 C146.572555,269.593189 147.93548,266.058665 149.108175,262.492044 C150.281652,258.922292 151.238283,255.293044 151.958497,251.62935 C153.413014,244.309793 153.935951,236.83445 153.253315,229.505498 C152.618431,222.175764 150.681684,215.01434 147.548757,208.485451 C145.958808,205.237446 144.150447,202.096691 141.994504,199.222101 C139.912149,196.294278 137.486126,193.649843 135.086721,191.006191 C130.257378,185.747069 125.246417,180.743936 120.083584,176.003055 C114.944237,171.233991 109.581781,166.820337 104.501929,162.173397 C101.978835,159.838184 99.530893,157.404333 97.5323015,154.621335 C95.5055277,151.863389 94.1003292,148.65844 93.4662285,145.329803 C93.159355,143.665484 92.9714734,141.981594 92.9605136,140.301619 C92.9213716,139.460848 92.968342,138.623992 92.9863473,137.787136 C93.0176609,136.950279 93.1280414,136.121251 93.1953657,135.289092 C93.449006,131.960455 94.2248008,128.702273 95.3059034,125.591265 C97.5354328,119.356724 101.596026,113.998182 106.368221,109.733268 C108.733182,107.564017 111.232008,105.587345 113.69639,103.619284 C114.929363,102.635254 116.148246,101.644178 117.327203,100.621005 C118.488156,99.5892218 119.650674,98.5143819 120.898521,97.5749735 C123.385605,95.6930252 125.91418,93.9238059 128.337071,92.0512517 C130.763876,90.1865259 133.099089,88.238819 135.290259,86.1721204 C137.477515,84.1038561 139.542648,81.9377367 141.407374,79.6354031 C143.250963,77.3181956 144.956772,74.918007 146.406593,72.3909982 C149.322673,67.3471576 151.297779,61.89624 152.409413,56.388175 C153.485818,50.8652361 153.665089,45.2992409 153.262709,39.9031221 C152.878334,34.4976092 151.785489,29.275281 150.449963,24.2596227 C149.152797,19.2228276 147.318602,14.4670722 145.503195,9.8451826 L145.636278,9.9344264 C105.172041,9.90467846 72.442267,9.88041041 49.8244426,9.86397076 C38.512399,9.84753112 29.7289298,9.83500567 23.7707316,9.82717727 C20.7928068,9.81856602 18.521004,9.8123033 16.990551,9.8083891 C15.4616637,9.80212637 14.6733435,9.79038377 14.6733435,9.79038377" id="Fill-99" fill="#132529"></path>
            <path d="M140.312963,46.0319795 C159.962257,49.2619789 128.980566,84.0639312 111.444158,97.7957345 C101.289152,105.747827 90.383403,114.370814 85.5618891,126.332615 C80.0906176,139.903936 84.1457308,155.157581 81.4942504,168.810317 C81.0535113,171.075857 77.7037373,170.719665 77.7373994,168.411069 C77.8681338,159.449895 77.6285846,150.493418 76.1435364,141.67159 C74.0376957,129.159452 69.2271416,116.78118 60.4577635,107.610987 C53.299471,100.12625 43.9132148,95.1520825 36.2773897,88.1550551 C25.1289597,77.9382052 13.6775705,64.7614358 12.5604573,49.6815814 C12.5604573,49.6815814 33.965662,32.4403047 45.8468305,34.616601 C59.7312877,37.1600494 73.4012465,58.585608 94.9160489,56.1314033 C109.938756,54.4185486 117.518999,42.2853054 140.312963,46.0319795" id="Fill-100" fill="#E0565F"></path>
            <path d="M142.057131,232.304936 C141.560028,227.391046 140.250336,221.829748 135.889132,219.511758 C133.247046,218.107342 130.030354,218.263127 127.137759,219.024048 C124.243598,219.785752 121.524794,221.100924 118.657249,221.952654 C113.013753,223.628716 106.83088,223.433005 101.305592,221.4031 C95.9736662,219.444434 91.3971813,215.904429 86.4472816,213.120649 C81.496599,210.337651 75.7020144,208.263907 70.1900352,209.635444 C60.6863529,212.000404 55.7411502,223.442399 46.3454999,226.20426 C42.1690464,227.431754 37.6841538,226.742855 33.4388104,225.780744 C29.193467,224.818633 24.9316839,223.584876 20.5822227,223.746924 C17.1737357,223.874527 13.6274687,225.052702 11.2382399,227.388698 L11.2632907,227.356601 L11.1944008,227.430971 C10.8014149,227.81926 10.4405255,228.240428 10.1172124,228.694476 C7.20269766,232.57893 6.73690763,237.802824 7.63325987,242.546836 C8.63764409,247.859191 11.1184653,252.768383 13.7816883,257.472471 C16.9185297,263.014198 20.4812363,268.530874 25.6675539,272.225881 C29.9653476,275.28757 35.0076225,274.872664 40.2283851,274.457759 C42.7788791,274.255786 45.3724293,274.053031 47.9424943,274.255786 C66.2077262,275.696995 85.8601513,276.680243 104.127732,275.264867 C113.777022,274.517255 122.82196,275.562347 130.478922,269.642508 C135.867212,265.477797 139.36964,259.2002 141.059793,252.603204 C142.749162,246.006208 142.741334,239.079636 142.057131,232.304936" id="Fill-101" fill="#E0565F"></path>
            <path d="M107.591018,222.894411 C107.588669,222.894411 107.586321,222.893628 107.583972,222.893628 C107.583972,222.893628 107.583972,222.893628 107.583972,222.892846 C107.586321,222.893628 107.588669,222.894411 107.591018,222.894411" id="Fill-102" fill="#AEB0AC"></path>
            <path d="M117.662259,272.447425 C115.867989,272.447425 114.061976,271.518193 112.59963,270.389338 C108.404389,267.152293 105.715332,262.144463 104.934057,256.902563 C104.152783,251.660664 105.206486,246.223055 107.52291,241.45634 C108.777804,238.874532 110.446036,236.147116 109.933276,233.357073 C110.013909,233.308537 110.093758,233.261566 110.172042,233.215379 C110.974454,232.733149 111.608554,232.351906 112.071213,232.073998 C112.268489,231.950309 112.428188,231.850105 112.559706,231.767907 C112.667738,231.698234 112.722536,231.659092 112.718622,231.652829 C112.717839,231.652047 112.717056,231.652047 112.715491,231.652047 C112.702965,231.652047 112.642687,231.679446 112.537003,231.732679 C112.400789,231.805483 112.234044,231.894727 112.028157,232.003542 C111.556887,232.265011 110.911044,232.623552 110.093758,233.076816 C110.029565,233.112827 109.965372,233.14962 109.898831,233.186414 C109.891785,233.153535 109.88474,233.119872 109.876912,233.086993 C109.445566,231.25045 108.10143,229.793584 107.107222,228.190326 C106.113015,226.587069 106.552188,224.472617 107.583972,222.893628 C107.586321,222.893628 107.588669,222.894411 107.591018,222.894411 C108.582876,223.082293 109.584129,223.142572 110.589296,223.142572 C111.057435,223.142572 111.526356,223.129263 111.995278,223.109692 C113.17267,224.797496 114.650672,226.227746 116.424589,227.277535 L117.351472,244.519594 L122.076696,243.69996 C121.841844,249.367725 122.076696,255.054277 122.783601,260.6829 C123.059161,262.871721 123.403611,265.102034 122.985574,267.268936 C122.567537,269.435055 121.206178,271.570644 119.10112,272.231361 C118.626719,272.380101 118.145272,272.447425 117.662259,272.447425" id="Fill-103" fill="#BB4149"></path>
            <path d="M1.8731203,279.120356 C1.8731203,279.120356 1.506751,272.996196 9.49250579,269.588492 L149.818211,269.588492 C149.818211,269.588492 157.136203,273.291327 158.035686,278.993536 L1.8731203,279.120356" id="Fill-104" fill="#132529"></path>
            <path d="M146.8442,10.5364307 C146.771396,10.5708756 146.697026,10.6053206 146.621874,10.6389827 L14.6733435,9.78960093 C14.6733435,9.78960093 14.2052049,9.48977306 13.5037799,8.94100195 C9.7445804,6.00065345 11.8543352,-0.0381772974 16.6265302,0.000181881616 L144.692172,1.03431403 C149.978693,1.07658741 151.624224,8.2771533 146.8442,10.5364307" id="Fill-105" fill="#132529"></path>
            <path d="M79.9457921,86.7756903 C76.6069779,86.7756903 73.2697293,86.2096967 70.2377885,85.1739989 C66.7204866,83.9527679 63.7206423,82.2336504 61.0973441,80.5074873 C58.4670004,78.763319 56.1998947,77.0418529 54.0627404,75.3939739 C51.9341974,73.7421807 49.9943189,72.1506662 48.2603275,70.6530925 C41.3298415,64.6471411 37.6841538,60.2319213 38.3871445,59.3794081 C38.4771711,59.2698105 38.6306079,59.2165773 38.845889,59.2165773 C40.3685135,59.2165773 44.9653523,61.8829317 51.6656831,66.0006721 C53.5773794,67.1741499 55.6675632,68.4580081 57.9111838,69.8358072 C60.1524558,71.2010808 62.5636042,72.7072657 65.021723,74.1015044 C67.4876702,75.4941775 70.0608666,76.7615961 72.7295695,77.5843613 C74.9622302,78.2513413 77.3201455,78.6239734 79.8048809,78.6239734 C80.2706709,78.6239734 80.7395923,78.6106651 81.2139936,78.5840485 C87.2238592,78.2779579 93.0560201,76.1595918 98.1092548,73.721044 C103.188323,71.2355258 107.730363,68.4235631 111.691536,66.2057763 C115.648011,63.9629386 119.03223,62.3056655 121.495829,61.42497 C123.052115,60.8668049 124.227942,60.5967249 124.947372,60.5967249 C125.367757,60.5967249 125.632357,60.6891001 125.726298,60.8691534 C125.992464,61.3779996 125.001388,62.4786732 123.110045,64.157083 C121.211657,65.8378413 118.441968,68.1433063 114.920752,70.9826683 C111.379965,73.7977624 107.09,77.1921583 101.626557,80.3595305 C98.8897467,81.9408681 95.8429319,83.3758145 92.5111632,84.5430295 C90.8358848,85.1051089 89.0995448,85.6272635 87.2731782,85.9912843 C85.4569885,86.3803559 83.5625147,86.6386933 81.614025,86.7279371 C81.0589912,86.7600335 80.5023917,86.7756903 79.9457921,86.7756903" id="Fill-106" fill="#BB4149"></path>
            <path d="M77.8352545,185.164636 C79.2835092,184.655007 81.0151521,186.111873 80.7591633,187.626669 C80.5039573,189.139899 78.3910711,189.948574 77.190194,188.992725 C75.9893168,188.036094 76.3048015,185.795605 77.7233083,185.207692" id="Fill-107" fill="#E0565F"></path>
            <path d="M30.640156,82.7060895 C30.6299791,82.7150972 30.4702797,82.5530493 30.174366,82.2359989 C29.8573156,81.8884178 29.4322333,81.4218449 28.8967705,80.8347146 C28.3566106,80.2131394 27.6457915,79.4944919 26.9193157,78.5762201 C26.18188,77.6587312 25.3473722,76.619902 24.4267519,75.4753893 C23.5765872,74.2721636 22.6105622,72.97578 21.6390572,71.5400507 C21.1779643,70.8049636 20.7004316,70.0448256 20.2088079,69.262768 C19.967693,68.8689993 19.7046586,68.4799276 19.4705894,68.0665879 C19.2443485,67.6485511 19.0149763,67.2250345 18.7824727,66.7960379 C16.8559025,63.4047734 15.1406992,59.4318584 13.9210339,55.0925742 C12.7005857,50.7509414 12.1283294,46.4594104 12.0766619,42.5514711 C12.0727477,41.576052 12.1267637,40.6233353 12.1486832,39.6988008 C12.1698199,39.2369249 12.1619915,38.7797462 12.2081791,38.33431 C12.2551495,37.888091 12.3021199,37.4489175 12.3483075,37.0167896 C12.4469454,36.1548823 12.5158354,35.3188088 12.6316957,34.5210945 C12.7749555,33.7296428 12.9127354,32.9695048 13.0442526,32.2422461 C13.268145,30.7822488 13.6540853,29.500739 13.9304279,28.363272 C14.0807333,27.7980612 14.1989422,27.2649469 14.3476819,26.7866314 C14.5026843,26.313013 14.6451612,25.8777537 14.7743299,25.4824193 C15.0271873,24.7293269 15.2283773,24.1296711 15.3778998,23.684235 C15.5203768,23.2740266 15.6010093,23.0618769 15.6143176,23.0664976 C15.6276259,23.0704881 15.5720442,23.2928148 15.455401,23.7100687 C15.3246667,24.1609848 15.1477448,24.7669032 14.9262009,25.5286069 C14.807992,25.925507 14.6772577,26.3631148 14.5347807,26.8390817 C14.3970008,27.3197457 14.2905345,27.85286 14.1511889,28.4196365 C13.8967658,29.5586692 13.5319622,30.8386133 13.3276408,32.2946964 C13.2047349,33.0196066 13.0763491,33.7773961 12.9432662,34.5664976 C12.8367999,35.3595165 12.7757384,36.1916758 12.6849289,37.0488861 C12.6426555,37.4778826 12.5995993,37.9147075 12.5557602,38.3577952 C12.5134868,38.8016657 12.5252295,39.2557131 12.5064413,39.7144576 C12.4915673,40.6327294 12.4438141,41.5776177 12.4516425,42.5459913 C12.5244466,46.4233997 13.1029657,50.6757887 14.3132369,54.9821937 C15.5227253,59.2862501 17.2144434,63.2333313 19.1120485,66.6159847 C19.3406379,67.0434155 19.5660959,67.4661493 19.7892054,67.8826204 C20.0193605,68.2951773 20.2784807,68.684249 20.5156813,69.0780177 C20.9986938,69.8600752 21.4676152,70.6186476 21.9216626,71.3537347 C22.8759451,72.7918125 23.8247476,74.0921104 24.6576898,75.3023816 C25.5579562,76.457854 26.3736759,77.5052944 27.0954547,78.4313946 C27.8031425,79.361409 28.4951734,80.0933648 29.0165451,80.7305968 C29.526957,81.338081 29.9332511,81.8210935 30.2354275,82.1812001 C30.5109874,82.5162558 30.6511158,82.6963091 30.640156,82.7060895" id="Fill-108" fill="#132529"></path>
            <path d="M23.2110007,199.006907 C23.204738,199.002905 23.254057,198.91601 23.3573919,198.749265 C23.4732523,198.565298 23.626689,198.322617 23.8231819,198.012612 C24.0353317,197.683819 24.2921033,197.286919 24.592714,196.821912 C24.7461507,196.586277 24.9113301,196.33342 25.0866863,196.06334 C25.279265,195.80422 25.5047231,195.544317 25.7325296,195.260928 C26.1951883,194.694935 26.7087316,194.06788 27.2684625,193.383677 C27.8712496,192.734702 28.5624976,192.063025 29.2858421,191.322458 C30.772456,189.884381 32.5698576,188.350796 34.6600414,186.799989 C38.8153582,183.650623 44.1762492,180.520827 49.9872734,176.868093 C52.8704745,175.011979 55.9063295,173.056444 58.7762224,170.676609 C61.6500295,168.314779 64.4205016,165.591278 66.6633393,162.34249 C71.0863875,155.765848 72.8830062,148.148028 73.0403571,141.3381 C73.2188447,134.476504 71.7588474,128.365652 70.0397299,123.494819 C68.2986929,118.605198 66.3032327,114.884357 64.8534123,112.374571 C64.1285021,111.116546 63.5335434,110.15835 63.1233351,109.512507 C62.9291906,109.201719 62.7765368,108.958256 62.6622421,108.774288 C62.55969,108.60676 62.510371,108.519082 62.5166338,108.515031 C62.5228965,108.511254 62.5831752,108.591103 62.696687,108.751586 C62.819593,108.92929 62.9832066,109.166491 63.192225,109.467885 C63.6243529,110.098854 64.2427968,111.045308 64.9896265,112.293938 C66.4848517,114.784154 68.5264994,118.497166 70.3105927,123.397746 C72.0735492,128.280322 73.5742542,134.425619 73.4153376,141.346711 C73.3863725,143.072091 73.247027,144.838179 72.9832097,146.626969 C72.7358322,148.416542 72.3577203,150.228035 71.8371314,152.033265 C70.8303987,155.653902 69.2146161,159.249488 67.0015263,162.570297 C64.7281579,165.863706 61.9255893,168.611476 59.028297,170.986614 C56.1333532,173.378974 53.0834071,175.334509 50.1884633,177.185927 C44.3555196,180.8277 38.9922801,183.923834 34.8314835,187.03171 C32.7381683,188.562163 30.9376354,190.073045 29.4439759,191.486855 C28.7167172,192.215679 28.0207721,192.876397 27.4125051,193.514411 C26.8449458,194.187654 26.3259226,194.802967 25.8570013,195.358783 C25.6252805,195.637475 25.3959083,195.892681 25.1994153,196.146321 C25.0185792,196.410921 24.8494857,196.659864 24.6921348,196.891585 C24.3789986,197.347198 24.1128329,197.735487 23.8920719,198.057234 C23.6822707,198.357062 23.5170913,198.592697 23.3934026,198.770402 C23.2791079,198.929318 23.2172635,199.009951 23.2110007,199.006907" id="Fill-109" fill="#132529"></path>
            <path d="M15.9305851,212.838826 C15.9423277,212.845872 15.8828319,212.971909 15.7591431,213.202064 C15.6088377,213.470579 15.4248702,213.799372 15.2017607,214.197837 C14.9496861,214.624485 14.6506411,215.150554 14.3484647,215.786221 C14.0400256,216.417973 13.6501711,217.117832 13.3198124,217.938249 C13.1436734,218.345326 12.9597059,218.770408 12.7686928,219.211147 C12.5800283,219.655018 12.4258087,220.133333 12.2426241,220.619477 C11.8598151,221.586285 11.5631186,222.656428 11.2249316,223.773541 C10.6221445,226.028121 10.1187781,228.551999 9.85730941,231.234793 C9.62558866,233.920718 9.66159931,236.493914 9.84400112,238.821299 C9.97395263,239.982251 10.0710248,241.088405 10.2706491,242.108446 C10.3630243,242.61964 10.4272172,243.117527 10.5329007,243.588797 C10.6401498,244.057718 10.7434847,244.508634 10.8429055,244.940762 C11.0174789,245.808149 11.2742505,246.567505 11.4621322,247.243879 C11.6437512,247.924167 11.8418098,248.496423 12.012469,248.960648 C12.159643,249.393558 12.2802004,249.750534 12.3788383,250.04175 C12.458688,250.290693 12.4946987,250.423776 12.4813904,250.429432 C12.4688649,250.434736 12.4070206,250.31183 12.3029028,250.072281 C12.1846939,249.787327 12.0390856,249.438963 11.8637293,249.015446 C11.6695849,248.557485 11.4488239,247.989926 11.2452854,247.312769 C11.0347014,246.63796 10.7575759,245.880171 10.5634314,245.010435 C10.4553995,244.577524 10.3426705,244.125043 10.2252444,243.654555 C10.1109497,243.18172 10.0381455,242.680702 9.93794197,242.167159 C9.72187802,241.140072 9.61149753,240.025307 9.46980342,238.854961 C9.26469924,236.508788 9.21694597,233.909758 9.45179809,231.197216 C9.71483246,228.488589 10.2346385,225.942009 10.8632593,223.672555 C11.2147546,222.547613 11.5263251,221.471207 11.9255737,220.502051 C12.1173696,220.014341 12.2802004,219.53446 12.478259,219.091373 C12.679449,218.650633 12.8728106,218.226334 13.0575609,217.819257 C13.4067077,216.999623 13.8176989,216.303678 14.1472747,215.679754 C14.4705878,215.050351 14.7907695,214.532893 15.0647637,214.117205 C15.3152726,213.73283 15.5211596,213.416563 15.6894703,213.158225 C15.8358615,212.941379 15.9188425,212.830998 15.9305851,212.838826" id="Fill-110" fill="#132529"></path>
            <path d="M112.718818,231.652829 C112.722536,231.659092 112.667738,231.698234 112.559706,231.767907 C112.428188,231.850105 112.268489,231.950309 112.071213,232.073998 C111.608554,232.351906 110.974454,232.733149 110.172042,233.215379 C109.755571,233.461974 109.295261,233.734402 108.79346,234.031881 C108.2807,234.313704 107.702964,234.583001 107.093131,234.892223 C105.861723,235.485616 104.494884,236.24184 102.88145,236.851672 C102.084518,237.1789 101.249228,237.521001 100.380275,237.877193 C99.5074078,238.227123 98.5656508,238.497986 97.6090198,238.829127 C95.7028035,239.525072 93.5938315,240.02061 91.3893529,240.595998 C86.9436024,241.584725 81.9686517,242.310419 76.7087471,242.478729 C71.4441455,242.585978 66.4386641,242.120971 61.9459431,241.364747 C59.7140652,240.90522 57.581608,240.520063 55.6417295,239.924321 C54.6694417,239.644064 53.7143764,239.423303 52.8242869,239.119561 C51.9381116,238.808773 51.0863813,238.510511 50.2730101,238.224775 C48.6298281,237.700271 47.2254125,237.016852 45.9650394,236.488435 C45.33955,236.211309 44.7492883,235.972543 44.2224367,235.717337 C43.7057621,235.44804 43.2321437,235.199096 42.8031471,234.974421 C41.9764677,234.535248 41.3235788,234.186884 40.846829,233.934026 C40.6440733,233.820515 40.4781112,233.728922 40.3434626,233.654552 C40.2315164,233.590359 40.1759348,233.553566 40.1796557,233.547303 C40.1829803,233.54104 40.2448247,233.565309 40.3638165,233.618542 C40.5039449,233.683517 40.6753869,233.762584 40.885971,233.861222 C41.3705492,234.09764 42.0343979,234.421736 42.8736028,234.831944 C43.3072963,235.047225 43.7840461,235.284426 44.3054178,235.541981 C44.8354008,235.785444 45.4287938,236.01325 46.0558489,236.278633 C47.320919,236.786697 48.7276832,237.44898 50.3700823,237.953912 C51.1826706,238.229472 52.0336181,238.51834 52.9190106,238.81895 C53.8067516,239.113298 54.7602512,239.326231 55.7301904,239.597877 C57.664589,240.177178 59.788435,240.547462 62.0109189,240.995247 C66.483286,241.72642 71.4629337,242.177336 76.6977874,242.071652 C81.9295097,241.904124 86.8770609,241.193305 91.3048062,240.229629 C93.5006735,239.667549 95.6025999,239.186885 97.5033364,238.50738 C98.4584016,238.185633 99.3985929,237.923381 100.269894,237.582845 C101.13963,237.23683 101.973355,236.90334 102.771069,236.585507 C104.383721,235.996028 105.754474,235.260158 106.991362,234.687902 C107.603543,234.389639 108.185193,234.132085 108.701868,233.860439 C109.207583,233.575485 109.67259,233.314017 110.093758,233.076816 C110.911044,232.623552 111.556887,232.265011 112.028157,232.003542 C112.234044,231.894727 112.400789,231.805483 112.537003,231.732679 C112.653646,231.673966 112.714708,231.646567 112.718818,231.652829" id="Fill-111" fill="#132529"></path>
            <path d="M120.883136,65.9724899 C120.887562,65.9779697 120.831197,66.03042 120.71612,66.1282751 C120.58382,66.2378728 120.414726,66.3764355 120.203359,66.5510089 C119.723478,66.9338179 119.054149,67.467715 118.203985,68.1456548 C116.462948,69.522671 113.945333,71.5196968 110.763087,73.8987488 C107.574578,76.2644924 103.712043,79.0200906 99.1191189,81.5964183 C96.8003457,82.8348718 94.3304843,84.1007247 91.6179423,85.0471787 C88.9140116,86.0014612 86.0073253,86.7318513 82.9620762,86.9729661 C76.8457442,87.3863058 71.0472455,85.8370647 66.3306321,83.5135944 C63.971934,82.3315054 61.8441739,81.0069395 59.9074267,79.6933333 C57.9957305,78.3444993 56.2507793,77.0395044 54.7070181,75.7885255 C51.6069701,73.3014416 49.1793821,71.1971666 47.4915782,69.7536089 C46.6695958,69.0427899 46.0221868,68.483059 45.5579624,68.0822447 C45.3536411,67.8998429 45.1900275,67.7542346 45.0608588,67.639157 C44.9504783,67.5381706 44.8964623,67.4833718 44.9008774,67.4778919 C44.9058564,67.472412 44.9684836,67.5162511 45.0882582,67.6070606 C45.2236896,67.7143097 45.3959145,67.8497411 45.6104128,68.0188346 C46.0863797,68.4063406 46.7510112,68.9465005 47.5941303,69.6322687 C49.3124649,71.0374672 51.7690181,73.1088628 54.8855057,75.5622846 C56.4378782,76.7968239 58.1875264,78.0838135 60.0984398,79.4146422 C62.0336212,80.7086773 64.1543359,82.0136722 66.4958114,83.1761902 C71.1764141,85.4581699 76.9036744,86.9729661 82.9323282,86.5658891 C85.9321726,86.3286885 88.804414,85.6108238 91.4832938,84.6714154 C94.1707848,83.7390525 96.627338,82.4896392 98.9374999,81.2668425 C103.515551,78.7233941 107.386696,75.9991095 110.591645,73.6662452 C113.791896,71.3208554 116.336128,69.3582745 118.106913,68.0204003 C118.977431,67.3675114 119.661634,66.8539681 120.153257,66.4860332 C120.374018,66.324768 120.551723,66.1963822 120.691069,66.094613 C120.813192,66.0085005 120.878167,65.96701 120.883136,65.9724899" id="Fill-112" fill="#132529"></path>
            <path d="M75.1720315,242.086526 C70.495343,242.086526 66.0464611,241.655181 62.0109189,240.995247 C59.788435,240.547462 57.664589,240.177178 55.7301904,239.597877 C54.7602512,239.326231 53.8067516,239.113298 52.9190106,238.81895 C52.1032909,238.542608 51.3165363,238.275659 50.562661,238.018888 C52.4892312,236.650483 54.7923477,236.18391 57.1894049,236.18391 C59.381358,236.18391 61.652378,236.573764 63.7879665,237.022332 C67.6246673,237.828657 71.4864189,239.0585 75.3630445,239.0585 C76.1200512,239.0585 76.8770578,239.011529 77.6356302,238.905063 C81.133361,238.415788 84.3430066,236.694322 87.7945499,235.946709 C88.6869879,235.753347 89.6303106,235.646881 90.569719,235.646881 C93.208674,235.646881 95.8241437,236.486086 97.2622215,238.591927 C95.425678,239.227593 93.4082983,239.691035 91.3048062,240.229629 C86.8770609,241.193305 81.9295097,241.904124 76.6977874,242.071652 C76.1865926,242.081829 75.6777464,242.086526 75.1720315,242.086526 M50.4319267,238.281139 C50.3810421,238.263134 50.3309403,238.245911 50.2800557,238.227906 C50.2808385,238.227906 50.2808385,238.227906 50.2808385,238.227906 C50.3309403,238.245128 50.3818249,238.263134 50.4319267,238.281139" id="Fill-113" fill="#BB4149"></path>
            <path d="M74.5582846,242.301024 C66.3658599,242.301024 58.175001,240.959236 50.4319267,238.281139 C50.3818249,238.263134 50.3309403,238.245128 50.2808385,238.227906 C50.3739965,238.155885 50.4679374,238.086212 50.562661,238.018888 C51.3165363,238.275659 52.1032909,238.542608 52.9190106,238.81895 C53.8067516,239.113298 54.7602512,239.326231 55.7301904,239.597877 C57.664589,240.177178 59.788435,240.547462 62.0109189,240.995247 C66.0464611,241.655181 70.495343,242.086526 75.1720315,242.086526 C75.6777464,242.086526 76.1865926,242.081829 76.6977874,242.071652 C81.9295097,241.904124 86.8770609,241.193305 91.3048062,240.229629 C93.4082983,239.691035 95.425678,239.227593 97.2622215,238.591927 C97.2911866,238.6342 97.3193689,238.677256 97.3475511,238.720312 C90.0037254,241.107976 82.2802222,242.301024 74.5582846,242.301024" id="Fill-114" fill="#08171A"></path>
            <path d="M179.738371,216.985532 L162.87912,198.108119 L162.707678,221.054736 L167.782049,235.772918 L117.351472,244.519594 L115.211969,204.727817 L111.581938,174.168077 C111.137285,170.423751 113.273656,166.850085 116.781564,165.468372 L130.660541,160.00258 L150.207283,163.588772 L158.070914,166.577657 C161.372152,167.831767 164.314849,169.878894 166.639885,172.53742 L190.31063,199.606475 L179.738371,216.985532" id="Fill-115" fill="#E0565F"></path>
            <path d="M161.696221,193.594261 C161.700162,193.513629 162.805533,193.677242 164.544221,193.393854 C166.264905,193.12534 168.643174,192.283786 170.615932,190.46838 C172.585558,188.647493 173.617342,186.345159 174.023636,184.651875 C174.44637,182.942152 174.372783,181.826604 174.453415,181.829729 C174.477683,181.82817 174.517608,182.10373 174.524654,182.604748 C174.534048,183.105766 174.484729,183.83459 174.304675,184.716851 C173.961008,186.467282 172.938619,188.876865 170.892274,190.767425 C168.842798,192.654853 166.358845,193.478401 164.585712,193.678808 C163.691708,193.787623 162.961318,193.777446 162.463432,193.728127 C161.96398,193.680374 161.693117,193.618529 161.696221,193.594261" id="Fill-116" fill="#FFFFFE"></path>
            <path d="M163.171119,220.077752 C163.288545,220.076969 163.319076,212.128007 163.239227,202.324497 C163.158594,192.518639 162.998112,184.572026 162.880686,184.573591 C162.762477,184.574374 162.731946,192.522553 162.812579,202.328411 C162.892428,212.130356 163.052911,220.078534 163.171119,220.077752" id="Fill-117" fill="#132529"></path>
            <path d="M161.323616,225.910695 L130.851554,213.643586 C128.393435,212.654076 126.710328,210.355657 126.509138,207.714353 L124.278826,178.497967 C124.278826,178.497967 124.542643,166.072725 116.781564,165.468372 L112.365561,167.20706 C106.659438,170.237435 105.246411,178.54572 106.022988,184.959532 C107.126793,194.074142 107.586321,206.973003 108.821643,214.883606 C109.83229,221.354564 113.538256,227.045814 119.871435,228.713264 L157.404717,236.838364 L161.323616,225.910695" id="Fill-118" fill="#E0565F"></path>
            <path d="M124.715651,182.955452 C124.728959,182.953895 124.761839,183.184833 124.81194,183.624006 C124.859694,184.100756 124.924669,184.741902 125.007651,185.549011 C125.162653,187.261865 125.381848,189.672231 125.651928,192.634499 C125.909483,195.63904 126.215573,199.197833 126.554543,203.14648 C126.638307,204.13599 126.722854,205.148985 126.810532,206.184683 C126.901341,207.220381 126.963969,208.28113 127.199604,209.310565 C127.422713,210.343914 127.919034,211.312288 128.713617,212.04894 C129.504286,212.787942 130.493796,213.329667 131.52558,213.797806 C139.927805,217.4341 147.672445,220.436292 153.294022,222.54135 C156.084065,223.570002 158.354303,224.406076 159.967737,225.000252 C160.72944,225.280509 161.333793,225.503618 161.782361,225.66958 C162.196483,225.826148 162.410981,225.914609 162.40636,225.927918 C162.401587,225.941226 162.177695,225.878599 161.755744,225.747082 C161.300914,225.599908 160.687167,225.401066 159.916069,225.149774 C158.32064,224.621357 156.021438,223.829905 153.194602,222.812213 C147.540145,220.773697 139.783763,217.816126 131.356486,214.168872 C130.308263,213.692122 129.279611,213.13474 128.435709,212.343288 C127.583195,211.556534 127.036773,210.480128 126.810532,209.401374 C126.567069,208.320272 126.509921,207.251695 126.422243,206.219128 C126.340045,205.182647 126.260195,204.168869 126.181128,203.178576 C125.874255,199.226798 125.597912,195.664874 125.364626,192.657201 C125.149345,189.690236 124.973988,187.275956 124.849517,185.561536 C124.798632,184.751296 124.758707,184.108584 124.728959,183.630269 C124.70704,183.188747 124.70156,182.956243 124.715651,182.955452" id="Fill-119" fill="#132529"></path>
            <path d="M107.256745,198.837723 C107.271619,198.836943 107.290407,198.972375 107.317023,199.229929 C107.344423,199.534454 107.377302,199.906303 107.41801,200.357219 C107.508037,201.398397 107.630942,202.799681 107.778899,204.503142 C107.946427,206.252007 108.157794,208.332797 108.462319,210.632782 C108.776238,212.928853 109.144956,215.462125 109.83777,218.032972 C110.166562,219.332487 110.626873,220.532582 111.325166,221.562017 C112.024243,222.600063 112.799255,223.533209 113.601666,224.359106 C115.212752,226.006985 116.932652,227.214907 118.477979,228.017319 C121.595249,229.637798 123.861572,229.661284 123.830259,229.769316 C123.828693,229.783407 123.692479,229.779492 123.433359,229.759921 C123.174238,229.742699 122.791429,229.712168 122.306068,229.614313 C121.334563,229.443654 119.937193,229.061628 118.346462,228.27409 C116.758861,227.492033 114.989642,226.285676 113.333935,224.62214 C112.509604,223.788415 111.711889,222.842744 110.994025,221.785126 C110.2652,220.724378 109.770445,219.442085 109.444784,218.141787 C108.742576,215.531015 108.384818,212.989132 108.089687,210.681318 C107.805516,208.370374 107.622331,206.281755 107.49238,204.52741 C107.363994,202.772282 107.295887,201.350644 107.259876,200.366613 C107.249699,199.914132 107.241871,199.539934 107.235559,199.233843 C107.234825,198.974723 107.243436,198.838509 107.256745,198.837723" id="Fill-120" fill="#132529"></path>
            <path d="M120.287906,219.281603 C120.245632,219.270643 120.375584,218.618537 120.842157,217.657992 C121.30325,216.699012 122.157329,215.459776 123.400479,214.393547 C124.648327,213.332799 126.005772,212.683824 127.024247,212.377733 C128.046637,212.066946 128.709703,212.041112 128.715183,212.084168 C128.727708,212.152275 128.087345,212.279096 127.118971,212.650162 C126.15138,213.016531 124.868305,213.681163 123.665079,214.703552 C122.467333,215.732205 121.610123,216.894722 121.09658,217.794206 C120.57834,218.692124 120.352882,219.304305 120.287906,219.281603" id="Fill-121" fill="#132529"></path>
            <path d="M126.281332,197.063027 C126.285246,197.057547 126.350222,197.086512 126.474693,197.149139 C126.617953,197.223509 126.797224,197.318233 127.01955,197.434876 C127.508826,197.665031 128.221993,198.026703 129.193498,198.357062 C131.109891,199.021694 134.112084,199.698851 137.73507,199.085887 C141.311084,198.501105 145.470315,196.393698 148.351168,192.490456 C149.777503,190.563103 150.880525,188.187965 151.131817,185.585804 C151.257854,184.293335 151.151388,182.946849 150.72474,181.680213 C150.306703,180.415926 149.541868,179.242448 148.52809,178.323394 C147.519792,177.401991 146.266464,176.753016 144.950509,176.584705 C143.654126,176.379601 142.265367,176.722485 141.3651,177.592221 C140.931407,178.029046 140.660544,178.613045 140.666807,179.215049 C140.664458,179.814705 140.895396,180.407315 141.255503,180.888762 C141.976499,181.874358 143.19225,182.333885 144.355551,182.50611 C146.729123,182.831772 149.061987,182.402775 151.015957,181.55261 C152.977755,180.696966 154.581795,179.425633 155.736484,178.022783 C156.893522,176.61367 157.605907,175.090263 158.032555,173.707767 C158.460769,172.320574 158.591503,171.062549 158.61264,170.041725 C158.627514,169.01777 158.520265,168.224753 158.441198,167.691638 C158.395793,167.444261 158.359,167.246202 158.330034,167.08572 C158.305766,166.949506 158.297155,166.878267 158.303418,166.876702 C158.303418,166.876702 158.735546,167.963284 158.770875,170.042508 C158.774688,171.075857 158.665873,172.355801 158.250968,173.772743 C157.838411,175.185769 157.130723,176.749102 155.960377,178.204402 C154.791596,179.65344 153.159374,180.971743 151.151388,181.861832 C149.151231,182.747225 146.763568,183.204404 144.299186,182.877176 C143.088915,182.702603 141.761218,182.225853 140.942367,181.121265 C140.541552,180.585802 140.272255,179.918822 140.271472,179.213483 C140.262078,178.505796 140.584609,177.809068 141.082495,177.310398 C142.104102,176.321671 143.613418,175.969393 145.005308,176.183108 C146.415204,176.362379 147.742118,177.052844 148.801301,178.021217 C149.869096,178.988808 150.669158,180.21865 151.109898,181.551828 C151.556117,182.882656 151.662583,184.284723 151.5295,185.624163 C151.262551,188.317917 150.118822,190.747854 148.653344,192.713566 C145.690294,196.692743 141.430076,198.81111 137.78204,199.37084 C134.088599,199.956405 131.056658,199.222101 129.140265,198.505802 C127.201952,197.766018 126.281332,197.063027 126.281332,197.063027" id="Fill-122" fill="#FFFFFE"></path>
            <path d="M106.320468,189.270634 C106.300897,189.253411 106.471556,189.025605 106.81992,188.645927 C107.172198,188.270947 107.716272,187.755055 108.467016,187.214112 C109.946584,186.102479 112.396092,185.090266 115.208055,184.826449 C116.614036,184.676144 117.978527,184.743468 119.18097,184.992411 C120.385761,185.242137 121.421459,185.647648 122.242658,186.068034 C123.066206,186.486853 123.689347,186.89941 124.105036,187.202369 C124.517592,187.506894 124.730525,187.695559 124.715651,187.716696 C124.673378,187.780888 123.762151,187.091989 122.118187,186.327937 C120.492227,185.549793 118.003578,184.900819 115.251111,185.231177 C112.49473,185.493429 110.118809,186.426575 108.63063,187.452096 C107.122096,188.45648 106.376049,189.328564 106.320468,189.270634" id="Fill-123" fill="#FFFFFE"></path>
            <path d="M111.193649,168.379755 C111.256276,168.310865 111.976489,169.308204 113.660379,170.173242 C114.492538,170.604588 115.568161,170.96626 116.800352,171.093863 C118.027063,171.223814 119.41269,171.083686 120.730211,170.550572 C122.039903,169.996321 123.11944,169.115625 123.896017,168.156646 C124.678075,167.196883 125.183007,166.179974 125.467178,165.286753 C126.047263,163.485437 125.851552,162.271252 125.94471,162.275152 C125.965847,162.272817 126.027692,162.5656 126.04648,163.104977 C126.067616,163.644354 126.004206,164.435022 125.741955,165.370517 C125.4844,166.306011 124.98808,167.376937 124.188799,168.391498 C123.394999,169.405276 122.269275,170.343119 120.885996,170.927901 C119.494889,171.48998 118.036457,171.623063 116.758861,171.466495 C115.475786,171.313841 114.368067,170.906764 113.524948,170.427666 C112.678697,169.950133 112.074344,169.435807 111.709541,169.038907 C111.340823,168.643572 111.177209,168.393063 111.193649,168.379755" id="Fill-124" fill="#FFFFFE"></path>
            <path d="M137.748378,216.420321 C137.73507,216.417973 137.756206,216.220697 137.811788,215.843368 C137.898683,215.47465 138.018458,214.915702 138.351948,214.265944 C138.96726,212.953121 140.497713,211.309156 142.913559,210.306338 C145.295742,209.236195 148.571146,209.030308 151.872384,209.985373 C153.48347,210.464472 155.332539,211.055516 156.541244,212.629025 C157.132289,213.402472 157.335827,214.554813 156.884911,215.495004 C156.452783,216.439109 155.604184,217.08965 154.712529,217.54448 C153.803651,217.988351 152.817272,218.239642 151.827762,218.259213 C150.846863,218.278001 149.823691,218.033755 149.058073,217.399655 C148.284627,216.774948 147.878332,215.809706 147.818054,214.889085 C147.746032,213.959854 147.934697,213.063502 148.232176,212.249348 C149.530909,208.9896 152.158121,206.916639 154.512905,205.891118 C156.908396,204.843678 159.076081,204.733297 160.507896,204.861683 C161.949888,205.010423 162.696718,205.322776 162.696718,205.322776 C162.684976,205.376009 161.921706,205.116889 160.495371,205.019817 C159.080778,204.941533 156.958498,205.095752 154.631896,206.154152 C153.477207,206.681004 152.285724,207.438793 151.211667,208.475274 C150.143873,209.506275 149.183327,210.826927 148.585237,212.376951 C148.305763,213.155094 148.135887,214.006824 148.20556,214.856989 C148.267404,215.703239 148.632208,216.543227 149.311713,217.090433 C149.982607,217.645466 150.904793,217.871707 151.821499,217.852919 C152.742903,217.835697 153.678397,217.596147 154.53091,217.179676 C155.370115,216.754594 156.14591,216.142413 156.514628,215.327476 C156.899002,214.518802 156.73852,213.55904 156.217148,212.862312 C155.701256,212.151493 154.947381,211.638732 154.178632,211.244181 C153.404403,210.853543 152.574592,210.587377 151.769832,210.346263 C148.537484,209.39198 145.362283,209.564205 143.023939,210.572504 C140.65115,211.51974 139.137137,213.079941 138.492076,214.339531 C137.825879,215.603819 137.806308,216.435978 137.748378,216.420321" id="Fill-125" fill="#FFFFFE"></path>
            <path d="M117.459416,227.42236 C117.447761,227.344859 118.622021,227.246221 120.381847,226.618383 C122.131495,226.005419 124.463576,224.749743 126.372141,222.638422 C128.280706,220.527102 129.295267,218.079943 129.729744,216.277061 C130.176746,214.46322 130.157175,213.285045 130.235459,213.289729 C130.259727,213.289729 130.287909,213.581742 130.278515,214.112508 C130.270686,214.641708 130.202579,215.410457 130.010783,216.342037 C129.641283,218.196586 128.641596,220.73612 126.675101,222.912417 C124.707823,225.087147 122.281017,226.337343 120.474222,226.891594 C119.56691,227.175765 118.80912,227.321374 118.282269,227.382435 C117.755417,227.445062 117.461852,227.446628 117.459416,227.42236" id="Fill-126" fill="#FFFFFE"></path>
            <path d="M107.583884,204.71216 C107.580058,204.698069 107.706095,204.647185 107.951907,204.564204 C108.197719,204.483571 108.562523,204.370842 109.039272,204.250285 C109.990423,204.020129 111.409713,203.704645 113.190675,203.829116 C114.07685,203.898789 115.046789,204.100762 116.012814,204.526627 C116.972577,204.952492 117.933122,205.620255 118.645507,206.592543 C119.344583,207.563265 119.772797,208.826769 119.669462,210.145073 C119.620143,210.801876 119.418953,211.46181 119.064326,212.051289 C118.707351,212.631374 118.171888,213.157442 117.467332,213.386815 C116.77217,213.604444 115.957233,213.494064 115.408462,212.978955 C114.867519,212.455235 114.732088,211.719365 114.698425,211.08135 C114.649107,209.781052 114.930146,208.536336 115.417073,207.456016 C116.386229,205.270326 118.189111,203.836162 119.861258,203.238855 C121.545148,202.614931 123.038024,202.661901 124.005615,202.828646 C124.494107,202.91241 124.862825,203.021225 125.107854,203.107338 C125.350535,203.19893 125.475789,203.253729 125.471219,203.267037 C125.458567,203.306962 124.948155,203.104206 123.982912,202.985214 C123.02863,202.869354 121.576461,202.871703 119.964593,203.507369 C118.366033,204.118767 116.669618,205.510658 115.759957,207.60867 C115.303561,208.642802 115.046007,209.835068 115.097674,211.060213 C115.128205,211.659869 115.268333,212.287707 115.687936,212.684607 C116.100493,213.076027 116.771387,213.180145 117.344426,212.997743 C117.923728,212.811427 118.398129,212.358945 118.719094,211.838356 C119.03771,211.310722 119.223243,210.713415 119.270996,210.111411 C119.373548,208.904271 118.982911,207.720616 118.340199,206.811738 C117.685744,205.900512 116.785478,205.253103 115.873469,204.834283 C114.95598,204.413115 114.022834,204.201748 113.165624,204.115636 C111.438678,203.958285 110.028783,204.223668 109.0745,204.405287 C108.117869,204.600997 107.593366,204.742691 107.583884,204.71216" id="Fill-127" fill="#FFFFFE"></path>
            <path d="M151.665714,221.928386 C150.11021,221.340473 148.423189,220.69463 146.626571,219.993988 L137.749161,216.420321 C137.749944,216.420321 137.749944,216.420321 137.749944,216.420321 C137.793,216.420321 137.818833,215.930263 138.128055,215.134114 C139.573179,216.097008 141.135728,216.908031 142.713152,217.625113 C145.806154,219.030311 148.717537,220.325129 151.665714,221.928386 M137.747595,216.419538 L136.947532,216.097791 C135.182227,215.363487 133.369952,214.596303 131.52558,213.797806 C130.493796,213.329667 129.504286,212.787942 128.713617,212.04894 C127.919034,211.312288 127.422713,210.343914 127.199604,209.310565 C126.963969,208.28113 126.901341,207.220381 126.810532,206.184683 C126.736162,205.308685 126.664141,204.448343 126.593685,203.605224 C126.582725,203.378983 126.568634,203.151959 126.552195,202.925719 C126.270372,199.164171 125.989332,195.402622 125.708293,191.641857 C127.214478,193.598958 128.135098,195.872327 128.875665,198.244333 C128.064642,197.946854 127.454027,197.639197 127.01955,197.434876 C126.797224,197.318233 126.617953,197.223509 126.474693,197.149139 C126.361182,197.091992 126.296989,197.062244 126.28368,197.062244 C126.282115,197.062244 126.281332,197.063027 126.281332,197.063027 C126.281332,197.063027 127.135411,197.715133 128.931247,198.424386 C130.272252,202.780893 131.042567,207.44897 133.739452,211.084481 C134.910581,212.662687 136.387801,213.960637 138.020806,215.062093 C137.919037,215.370532 137.860324,215.636698 137.811788,215.843368 C137.757772,216.211303 137.735852,216.408579 137.747595,216.419538" id="Fill-128" fill="#A93B44"></path>
            <path d="M146.626571,219.993988 C143.657257,218.836167 140.391247,217.530389 136.947532,216.097791 L137.747595,216.419538 C137.747595,216.420321 137.748378,216.420321 137.748378,216.420321 C137.749161,216.420321 137.749161,216.420321 137.749161,216.420321 L146.626571,219.993988 M137.590244,216.796867 C137.259103,216.68179 136.929527,216.570627 136.600734,216.462595 C134.875354,215.892687 132.673224,215.027648 130.844508,213.927757 C131.013602,214.010739 131.185044,214.090588 131.356486,214.168872 C133.485029,215.090275 135.570516,215.967057 137.590244,216.796867" id="Fill-129" fill="#A93B44"></path>
            <path d="M152.566764,222.428621 C147.705325,220.824581 142.495522,218.4925 137.590244,216.796867 C135.570516,215.967057 133.485029,215.090275 131.356486,214.168872 C131.185044,214.090588 131.013602,214.010739 130.844508,213.927757 C130.649581,213.810331 130.458568,213.690557 130.273035,213.567651 C130.264424,213.386032 130.24955,213.289743 130.235459,213.289743 C130.234676,213.289743 130.234676,213.289743 130.234676,213.289743 C130.215105,213.289743 130.201797,213.365678 130.185357,213.508938 C129.563782,213.091684 129.004051,212.644682 128.546089,212.170281 C128.659601,212.131922 128.719097,212.105305 128.715183,212.084168 C128.7144,212.073991 128.678389,212.067729 128.611848,212.067729 C128.57114,212.067729 128.51869,212.070077 128.456062,212.075557 C126.431637,209.889084 126.751036,206.79295 126.593685,203.605224 C126.664141,204.448343 126.736162,205.308685 126.810532,206.184683 C126.901341,207.220381 126.963969,208.28113 127.199604,209.310565 C127.422713,210.343914 127.919034,211.312288 128.713617,212.04894 C129.504286,212.787942 130.493796,213.329667 131.52558,213.797806 C133.369952,214.596303 135.182227,215.363487 136.947532,216.097791 C140.391247,217.530389 143.657257,218.836167 146.626571,219.993988 C148.423189,220.69463 150.11021,221.340473 151.665714,221.928386 C151.965542,222.092 152.266153,222.258745 152.566764,222.428621" id="Fill-130" fill="#051317"></path>
            <path d="M128.546089,212.170281 C128.531215,212.154624 128.516341,212.13975 128.501467,212.124093 C128.48581,212.107654 128.470936,212.091997 128.456062,212.075557 C128.51869,212.070077 128.57114,212.067729 128.611848,212.067729 C128.678389,212.067729 128.7144,212.073991 128.715183,212.084168 C128.719097,212.105305 128.659601,212.131922 128.546089,212.170281" id="Fill-131" fill="#051317"></path>
            <path d="M128.931247,198.424386 C127.135411,197.715133 126.281332,197.063027 126.281332,197.063027 C126.281332,197.063027 126.282115,197.062244 126.28368,197.062244 C126.296989,197.062244 126.361182,197.091992 126.474693,197.149139 C126.617953,197.223509 126.797224,197.318233 127.01955,197.434876 C127.454027,197.639197 128.064642,197.946854 128.875665,198.244333 C128.894453,198.304612 128.912458,198.364891 128.931247,198.424386" id="Fill-132" fill="#A2A5A2"></path>
            <path d="M137.749944,216.420321 C137.749944,216.420321 137.749944,216.420321 137.749161,216.420321 C137.749161,216.420321 137.749161,216.420321 137.748378,216.420321 C137.748378,216.420321 137.747595,216.420321 137.747595,216.419538 C137.735852,216.408579 137.757772,216.211303 137.811788,215.843368 C137.860324,215.636698 137.919037,215.370532 138.020806,215.062093 C138.056034,215.085578 138.092045,215.109846 138.128055,215.134114 C137.818833,215.930263 137.793,216.420321 137.749944,216.420321" id="Fill-133" fill="#A2A5A2"></path>
            <path d="M130.273035,213.567651 C130.24407,213.54808 130.214322,213.528509 130.185357,213.508938 C130.201797,213.365678 130.215105,213.289743 130.234676,213.289743 C130.234676,213.289743 130.234676,213.289743 130.235459,213.289743 C130.24955,213.289743 130.264424,213.386032 130.273035,213.567651" id="Fill-134" fill="#A2A5A2"></path>
            <path d="M205.516522,265.367416 C205.516522,265.367416 231.01285,272.424723 232.036023,272.784829 C233.572738,273.324989 233.313618,278.952829 230.924389,278.86515 C229.793185,278.82366 211.339288,279.551701 209.00799,279.406876 C206.675908,279.260485 199.642087,276.488447 199.642087,276.488447 L205.516522,265.367416" id="Fill-135" fill="#E0565F"></path>
            <path d="M216.1381,275.096557 C216.265703,275.114562 216.438711,273.765728 217.261476,272.358964 C218.06467,270.939674 219.144207,270.114561 219.063575,270.012008 C219.019736,269.913371 217.753883,270.632018 216.891975,272.146814 C216.015977,273.650651 216.030068,275.107517 216.1381,275.096557" id="Fill-136" fill="#132529"></path>
            <path d="M213.479574,273.890983 C213.604829,273.912902 213.862383,272.707328 214.541106,271.375716 C215.207303,270.036277 216.02224,269.111742 215.929865,269.024064 C215.860192,268.9403 214.863636,269.774025 214.160645,271.183921 C213.447478,272.587553 213.370759,273.883937 213.479574,273.890983" id="Fill-137" fill="#132529"></path>
            <path d="M210.986227,273.22322 C211.114613,273.215391 211.015975,271.94171 211.582752,270.529466 C212.123695,269.107828 213.059972,268.238092 212.970728,268.144934 C212.919843,268.047862 211.776896,268.836182 211.185069,270.374464 C210.577585,271.904917 210.88211,273.25923 210.986227,273.22322" id="Fill-138" fill="#132529"></path>
            <path d="M211.437926,269.92981 C211.484114,269.941553 211.709572,269.229168 211.71192,268.032988 C211.710355,267.437246 211.641465,266.723296 211.453583,265.952981 C211.360425,265.568606 211.233605,265.170924 211.073906,264.770109 C210.991707,264.568136 210.897766,264.33485 210.666046,264.145403 C210.428062,263.931687 209.995152,263.975526 209.790047,264.188459 C209.556761,264.391997 209.482391,264.6793 209.450295,264.909455 C209.424461,265.143524 209.411153,265.361937 209.417415,265.58348 C209.423678,266.021871 209.480043,266.442256 209.573983,266.830545 C209.763431,267.610254 210.06639,268.263143 210.359172,268.780601 C210.953348,269.814733 211.468457,270.343933 211.504468,270.315751 C211.563181,270.275043 211.13575,269.680867 210.626904,268.640472 C210.376395,268.120666 210.114926,267.481868 209.958358,266.745216 C209.879291,266.377281 209.835452,265.985078 209.835452,265.580349 C209.846412,265.188929 209.840932,264.698871 210.070304,264.510989 C210.191644,264.410003 210.301242,264.402957 210.407708,264.482024 C210.519655,264.568136 210.614378,264.74271 210.6864,264.92746 C210.844533,265.308703 210.972919,265.686815 211.073123,266.052402 C211.27353,266.785923 211.370602,267.467777 211.410527,268.043165 C211.484897,269.197854 211.368254,269.919633 211.437926,269.92981" id="Fill-139" fill="#132529"></path>
            <path d="M211.406613,269.669907 C211.418355,269.62372 210.803043,269.412353 209.762648,269.405299 C209.243625,269.404524 208.622049,269.45854 207.952721,269.626851 C207.622362,269.716095 207.267736,269.801424 206.911543,270.010443 C206.562396,270.188148 206.19681,270.672726 206.335373,271.175309 C206.444188,271.650493 206.850482,271.982418 207.252862,272.085753 C207.659156,272.199265 208.052925,272.158557 208.396591,272.082621 C209.097234,271.922139 209.640525,271.577689 210.053865,271.267684 C210.87115,270.627321 211.269616,270.13648 211.239085,270.101252 C211.194463,270.047236 210.71145,270.466839 209.880857,271.02109 C209.463603,271.288038 208.939883,271.576906 208.317525,271.697464 C208.006737,271.75696 207.673247,271.775748 207.371853,271.684938 C207.071243,271.601957 206.822299,271.373368 206.751061,271.078237 C206.677474,270.794066 206.850482,270.53338 207.129173,270.367418 C207.402384,270.197542 207.740571,270.100469 208.05449,270.006529 C208.68546,269.826475 209.274938,269.743494 209.772042,269.706701 C210.770946,269.636245 211.395653,269.738797 211.406613,269.669907" id="Fill-140" fill="#132529"></path>
            <path d="M220.055433,275.369768 C220.181471,275.354894 220.056999,274.265963 220.5588,273.069783 C221.03555,271.864209 221.88728,271.172178 221.806647,271.07354 C221.765157,270.970205 220.698145,271.573775 220.163465,272.908518 C219.613129,274.236998 219.952881,275.41439 220.055433,275.369768" id="Fill-141" fill="#132529"></path>
            <path d="M202.264353,276.54716 C202.253643,276.573777 202.604355,276.73739 203.250982,277.009819 C203.906219,277.257979 204.865198,277.603995 206.087995,277.889731 C208.526543,278.505044 212.003137,278.853408 215.822615,278.811917 C219.643659,278.769644 223.086591,278.596636 225.583069,278.496433 C226.765158,278.433805 227.756234,278.381355 228.538292,278.339865 C229.235803,278.293677 229.62096,278.253752 229.620178,278.224004 C229.619394,278.195039 229.232671,278.178599 228.532812,278.173902 C227.749972,278.179382 226.75733,278.186428 225.574458,278.195039 C222.991868,278.245924 219.586512,278.311682 215.820267,278.385269 C212.018011,278.425977 208.58369,278.127715 206.154537,277.595383 C203.717554,277.095148 202.293568,276.46731 202.264353,276.54716" id="Fill-142" fill="#132529"></path>
            <g id="Group-146" transform="translate(152.976775, 258.328116)">
                <mask id="mask-2" fill="white">
                    <use xlink:href="#path-1"></use>
                </mask>
                <g id="Clip-144"></g>
                <path d="M48.5339528,18.7999119 C48.5683978,18.8586249 49.2659086,18.4499823 50.4440834,17.9340904 C51.608167,17.4346383 53.3531183,16.8357654 55.2687287,17.1324619 C57.1906018,17.426027 58.5519613,18.716148 59.4389194,19.6132831 C60.333706,20.5409489 60.8574262,21.1578272 60.9083108,21.1139881 C60.9474529,21.0818916 60.5121936,20.4047347 59.6604633,19.4081789 C59.2306839,18.9149894 58.6842613,18.3442988 57.9703109,17.8276241 C57.2641888,17.308601 56.3545283,16.8662961 55.336053,16.7105109 C53.2810969,16.3958091 51.4696043,17.0823601 50.3172632,17.6608791 C49.1476997,18.2589692 48.5081191,18.7576385 48.5339528,18.7999119" id="Fill-143" fill="#132529" mask="url(#mask-2)"></path>
                <path d="M25.4753892,2.2249662e-14 C25.4753892,2.2249662e-14 1.34824848,15.797719 0.48399269,16.4513907 C-0.816305194,17.4330726 0.674222904,22.1074125 2.92567186,21.2979556 C3.98955195,20.9151466 24.23537,15.2833929 26.413232,14.4363596 C28.5903111,13.5893263 34.4498714,8.8116514 34.4498714,8.8116514 L25.4753892,2.2249662e-14" id="Fill-145" fill="#E0565F" mask="url(#mask-2)"></path>
            </g>
            <path d="M171.287609,270.823031 C171.393292,270.801112 170.965078,269.408439 169.673392,268.241224 C168.392665,267.059917 166.967112,266.760872 166.95537,266.867339 C166.909965,266.989462 168.189909,267.448989 169.385306,268.556708 C170.597143,269.646422 171.170965,270.878613 171.287609,270.823031" id="Fill-147" fill="#132529"></path>
            <path d="M173.454511,268.867496 C173.55628,268.827571 173.088924,267.614951 171.983554,266.494707 C170.884446,265.365068 169.682786,264.873444 169.642078,264.974431 C169.580234,265.085594 170.637068,265.720477 171.678246,266.793752 C172.729601,267.856066 173.341782,268.925426 173.454511,268.867496" id="Fill-148" fill="#132529"></path>
            <path d="M175.626893,267.47404 C175.737273,267.477954 175.615933,266.093892 174.572407,264.819428 C173.541406,263.534787 172.212926,263.130841 172.193355,263.238873 C172.13699,263.353951 173.293246,263.898025 174.241265,265.088725 C175.208856,266.262203 175.502421,267.505354 175.626893,267.47404" id="Fill-149" fill="#132529"></path>
            <path d="M174.195861,264.473413 C174.259271,264.442882 173.928912,263.790776 173.650221,262.6674 C173.512441,262.106886 173.397363,261.427381 173.36605,260.668026 C173.350393,260.289131 173.358221,259.889882 173.392666,259.479674 C173.405975,259.280832 173.442768,259.085905 173.523401,258.969262 C173.600902,258.862013 173.707368,258.836179 173.852977,258.894892 C174.129319,259.003707 174.272579,259.472628 174.40253,259.842912 C174.525436,260.228852 174.602155,260.615575 174.638948,260.989773 C174.713318,261.739734 174.658519,262.426285 174.577104,262.998541 C174.40801,264.14462 174.181769,264.839782 174.249877,264.860919 C174.292933,264.876576 174.622509,264.216641 174.874583,263.050209 C174.995923,262.468558 175.087516,261.753825 175.030368,260.955328 C175.002186,260.556079 174.928599,260.138043 174.800996,259.71844 C174.739152,259.505508 174.661651,259.301969 174.565361,259.086688 C174.465158,258.876887 174.307024,258.625595 174.02207,258.502689 C173.762167,258.362561 173.337085,258.451804 173.175037,258.727364 C173.011423,258.977873 172.993418,259.229165 172.975412,259.446795 C172.944882,259.877357 172.945665,260.294611 172.973064,260.689945 C173.028646,261.480614 173.179734,262.180473 173.359004,262.749598 C173.724591,263.888631 174.155936,264.498464 174.195861,264.473413" id="Fill-150" fill="#132529"></path>
            <path d="M174.147325,264.216641 C174.177855,264.278485 174.743066,263.991966 175.715354,263.754765 C176.199932,263.638905 176.787062,263.538701 177.443083,263.51913 C177.77031,263.512868 178.122588,263.502691 178.434158,263.581758 C178.750426,263.654562 178.994672,263.851055 179.011112,264.14462 C179.033031,264.446796 178.864721,264.741144 178.604035,264.910238 C178.344132,265.088725 178.020036,265.172489 177.706117,265.210066 C177.076713,265.283653 176.490366,265.167009 176.011267,265.040189 C175.051505,264.763847 174.464375,264.511772 174.436975,264.576748 C174.41897,264.619021 174.948953,264.965819 175.922024,265.328274 C176.40895,265.497368 177.032091,265.660199 177.747607,265.600703 C178.09832,265.568606 178.485043,265.487974 178.838104,265.257036 C179.190382,265.035492 179.476119,264.595536 179.436194,264.110958 C179.41584,263.589586 178.920302,263.238873 178.534362,263.176246 C178.129634,263.084654 177.766396,263.11127 177.424294,263.126144 C176.736178,263.169201 176.127128,263.306198 175.633938,263.464331 C174.643645,263.787645 174.122274,264.175933 174.147325,264.216641" id="Fill-151" fill="#132529"></path>
            <path d="M158.975878,278.744593 C159.00406,278.782169 159.382172,278.50113 159.566139,277.809882 C159.768112,277.135856 159.642075,276.099375 159.114441,275.19128 C158.863149,274.733319 158.573498,274.336419 158.306549,273.987272 C158.042732,273.636559 157.768738,273.320292 157.486915,273.108142 C157.209007,272.891295 156.917008,272.79344 156.7166,272.785612 C156.514628,272.777001 156.411293,272.827103 156.414424,272.851371 C156.415207,272.917912 156.845769,272.885816 157.291988,273.338297 C157.519012,273.553578 157.743687,273.856538 157.988716,274.21821 C158.235311,274.577534 158.504608,274.968171 158.741026,275.396385 C159.229518,276.247332 159.374344,277.127245 159.270226,277.749603 C159.18333,278.374309 158.919513,278.703102 158.975878,278.744593" id="Fill-152" fill="#132529"></path>
            <path d="M167.638007,272.273634 C167.749953,272.284594 167.715508,271.059449 166.787842,269.961124 C165.872702,268.851839 164.67339,268.600547 164.664779,268.712493 C164.618591,268.830702 165.639415,269.231517 166.460615,270.235118 C167.300602,271.221497 167.513535,272.297902 167.638007,272.273634" id="Fill-153" fill="#132529"></path>
            <path d="M184.945825,267.991497 C184.924688,267.966447 184.555187,268.238092 183.885076,268.719539 C183.207136,269.18846 182.209798,269.846829 180.910283,270.541991 C179.613116,271.238719 178.011425,271.962064 176.185841,272.645484 C174.358691,273.326555 172.309998,273.969267 170.142313,274.597105 C165.801463,275.847301 161.872387,276.989465 159.037722,277.842761 C157.677146,278.260015 156.549073,278.60603 155.684034,278.871413 C154.895714,279.124271 154.462803,279.276924 154.471288,279.305107 C154.479243,279.333289 154.92781,279.234651 155.730222,279.031113 C156.603871,278.800175 157.745253,278.497215 159.11992,278.132412 C161.977288,277.353486 165.917324,276.257509 170.261305,275.007313 C172.433687,274.377126 174.491774,273.719541 176.325186,273.012636 C178.157816,272.304165 179.764204,271.544027 181.056674,270.806591 C182.350709,270.069156 183.331608,269.366948 183.984497,268.851839 C184.628774,268.327336 184.963047,268.011068 184.945825,267.991497" id="Fill-154" fill="#132529"></path>
            <path d="M185.840611,268.316376 C185.853137,268.26784 185.092216,267.987583 183.795832,267.773085 C182.522151,267.571895 180.588535,267.467777 178.725375,268.392312 C177.802406,268.850273 177.070451,269.546218 176.555342,270.255472 C176.031621,270.965508 175.68404,271.675544 175.423354,272.275983 C174.915291,273.483123 174.706273,274.260483 174.753243,274.279271 C174.81587,274.304322 175.127441,273.559058 175.697348,272.403586 C176.269605,271.28021 177.176134,269.636245 178.917171,268.772772 C180.652728,267.908516 182.496317,267.949224 183.758256,268.071347 C185.037417,268.205996 185.824955,268.382918 185.840611,268.316376" id="Fill-155" fill="#132529"></path>
            <path d="M228.591525,219.801409 C228.591525,219.801409 235.829667,222.386348 235.86028,230.502054 C235.918911,246.048481 204.448727,263.184075 204.448727,263.184075 L162.571464,235.43708 L159.9466,234.374766 C159.9466,234.374766 216.478636,213.139437 228.591525,219.801409" id="Fill-156" fill="#132529"></path>
            <path d="M183.784873,249.451489 C183.802095,249.475757 184.189601,249.211157 184.875369,248.711704 C185.56192,248.214601 186.541254,247.476382 187.739782,246.548716 C190.137622,244.695733 193.399718,242.069304 196.909192,239.056934 C200.418665,236.042216 203.508536,233.214596 205.702838,231.125195 C206.80038,230.080103 207.678727,229.223676 208.273686,228.620889 C208.870993,228.018884 209.190392,227.676 209.170821,227.654864 C209.149684,227.632944 208.791143,227.935903 208.160174,228.501114 C207.475971,229.118775 206.579619,229.927449 205.497734,230.903651 C203.25333,232.935122 200.13606,235.722817 196.631283,238.733621 C193.12729,241.741294 189.899639,244.400602 187.5519,246.313081 C186.423827,247.233702 185.488333,247.997754 184.774383,248.58097 C184.120711,249.118781 183.766084,249.428003 183.784873,249.451489" id="Fill-157" fill="#334F55"></path>
            <path d="M216.769852,225.612433 C216.785509,225.508315 214.916869,225.325913 212.73431,225.978802 C210.546271,226.615252 209.07688,227.784032 209.14577,227.862316 C209.215443,227.97348 210.741981,227.001192 212.85565,226.388228 C214.960708,225.755693 216.772201,225.743167 216.769852,225.612433" id="Fill-158" fill="#334F55"></path>
            <path d="M213.162524,223.162143 C213.124947,223.061156 211.783159,223.651418 210.679354,225.03 C209.564589,226.398405 209.270241,227.834917 209.376708,227.850574 C209.498831,227.892064 209.956792,226.587852 211.011278,225.297731 C212.050108,223.995085 213.229065,223.272523 213.162524,223.162143" id="Fill-159" fill="#334F55"></path>
            <path d="M230.895424,272.386363 C230.917344,272.337827 230.395189,272.236841 229.815104,272.714373 C229.245197,273.169204 228.760618,274.081213 228.604833,275.145093 C228.447482,276.216019 228.685466,277.200049 228.986859,277.824756 C229.282773,278.461205 229.609217,278.76025 229.645228,278.729719 C229.703158,278.689794 229.473786,278.336733 229.267116,277.712809 C229.053401,277.095931 228.882742,276.187053 229.027567,275.204589 C229.170827,274.228387 229.570858,273.383702 230.01786,272.937483 C230.462513,272.472476 230.903253,272.45447 230.895424,272.386363" id="Fill-160" fill="#132529"></path>
            <polyline id="Fill-161" fill="#334F55" points="218.96024 194.404501 204.044782 232.214126 139.822122 233.260784 138.632987 229.785755 161.140431 228.969253 171.95772 195.428456 218.96024 194.404501"></polyline>
            <g id="Group-165" transform="translate(116.373437, 210.455858)">
                <path d="M72.5946213,0.317052393 C73.4181694,-0.241895644 74.9415768,-0.0180032929 75.6821438,0.646628196 C76.4242765,1.31125969 76.6638257,2.46125221 76.2872794,3.38265535 C75.9107332,4.30405849 74.9611478,4.94990181 73.9677234,5.00313495 C72.9108888,5.0602823 71.8102153,4.39878217 71.5143016,3.38343819 C71.2191708,2.36809421 71.5471809,0.852515218 72.5946213,0.317052393" id="Fill-162" fill="#E4E4DE"></path>
                <path d="M92.0411594,54.6172102 C92.0411594,54.6172102 32.8725172,15.8063323 30.4496262,14.9992239 C28.0267352,14.1913326 22.171872,10.3554147 16.3170087,11.9704144 C10.4621454,13.5854141 5.21320064,18.8351418 2.58755398,26.5069776 C1.08841464,30.8901009 0.37994409,38.3685751 0.0480197661,43.9776265 C-0.349663151,50.6834372 1.7272124,57.3688942 6.11268425,62.4565738 C8.10892724,64.7714329 10.5709603,66.7856812 13.4901721,67.693776 C14.1062674,67.8863548 14.745848,68.0515341 15.4026511,68.194011 C26.5894403,70.6200334 38.0862342,65.5981123 44.3708768,56.0310199 L45.7518073,53.9290935 C45.7518073,53.9290935 84.4577846,68.1493891 85.063703,67.9481992 L92.0411594,54.6172102" id="Fill-164" fill="#132529"></path>
            </g>
            <path d="M135.213541,254.390429 C135.213541,254.390429 135.32079,254.445227 135.537637,254.533688 C135.771706,254.626846 136.093453,254.754449 136.50601,254.918063 C137.37966,255.253901 138.63925,255.739263 140.257381,256.362403 C143.548442,257.60164 148.296369,259.391213 154.198203,261.613697 C160.119608,263.823655 167.212924,266.450085 175.17128,269.345811 C183.130418,272.239189 191.950681,275.415173 201.369816,278.604465 L201.540475,278.662395 L201.624239,278.501912 C203.103808,275.677424 204.664008,272.697934 206.246912,269.673821 C207.054803,268.131626 207.855649,266.601173 208.603261,265.171706 L208.694071,264.998699 L208.529674,264.894581 C190.763112,253.616199 174.867538,243.525387 163.396577,236.243406 C157.669317,232.630597 153.046645,229.714517 149.839348,227.691657 C148.250964,226.700581 147.014077,225.927918 146.156866,225.394021 C145.746658,225.142729 145.427259,224.947802 145.196321,224.806107 C144.978692,224.676156 144.861266,224.618226 144.861266,224.618226 C144.861266,224.618226 144.963035,224.699641 145.173619,224.842118 C145.39986,224.990858 145.71143,225.19831 146.113027,225.464476 C146.960844,226.01403 148.18364,226.807047 149.754018,227.827089 C152.944093,229.876565 157.541714,232.830221 163.240009,236.490783 C174.692181,243.800947 190.561139,253.929336 208.298736,265.251556 L208.225932,264.974431 C207.47832,266.403897 206.676691,267.93435 205.8688,269.475763 C204.286679,272.500658 202.727261,275.480149 201.249259,278.30542 L201.504465,278.202867 C192.089243,275.022187 183.265849,271.861077 175.298883,268.991967 C167.346007,266.097024 160.240948,263.511302 154.296058,261.348314 C148.375436,259.175932 143.612635,257.429415 140.31218,256.218361 C138.682306,255.624968 137.414105,255.163092 136.534192,254.843693 C136.11459,254.695736 135.788928,254.579876 135.552511,254.496112 C135.330184,254.419394 135.213541,254.390429 135.213541,254.390429" id="Fill-166" fill="#334F55"></path>
            <path d="M141.354141,116.56903 C142.362439,113.840831 144.591969,112.656394 147.419588,111.972974 C150.245642,111.288771 153.390312,112.098228 155.533729,114.063158 C156.967892,115.376764 158.019247,117.192171 159.790815,117.995365 C162.706895,119.317582 166.444958,117.385532 169.209167,119.001315 C170.846087,119.957946 171.649281,122.135025 171.02614,123.926164 C170.402999,125.71652 168.422413,126.924442 166.545161,126.658277 C168.445898,127.556195 168.800525,130.416693 167.491616,132.061441 C166.184272,133.706189 163.76373,134.151625 161.741653,133.579369 C159.719576,133.007112 158.039601,131.594868 156.610917,130.054238 C155.182233,128.512043 153.931254,126.801536 152.385145,125.379116 C150.837469,123.955912 148.907768,122.809833 146.80819,122.731549 C143.964131,122.625083 141.340832,124.536779 139.847956,126.95967 C138.355862,129.380996 137.79848,132.253237 137.382009,135.068331 C136.96632,137.882642 136.653184,140.754884 135.567385,143.384444 C135.439782,143.693666 135.258163,144.035768 134.930935,144.103875 C134.4581,144.203295 134.112867,143.679575 133.92342,143.236488 C131.7847,138.223961 130.643318,132.789483 130.585388,127.340131 C130.551726,124.17589 130.906353,121.214405 132.871282,118.733583 C134.836994,116.252762 139.36964,114.707435 141.354141,116.56903" id="Fill-167" fill="#132529"></path>
            <path d="M134.681992,129.197811 L130.333314,160.806557 C129.592747,166.181539 133.501469,171.08212 138.906982,171.554956 C143.951605,171.997261 148.454503,168.396195 149.139488,163.378971 C149.46515,160.999919 149.74071,159.016201 149.790029,158.773521 C149.790029,158.773521 157.940963,159.12345 159.617807,151.239465 C160.428047,147.429381 161.458265,139.445974 162.306081,132.213312 C163.217307,124.445187 157.999676,117.281415 150.330971,115.749396 L149.567702,115.596742 C141.24924,114.434224 135.614355,120.849601 134.681992,129.197811" id="Fill-168" fill="#F1AD92"></path>
            <path d="M149.826039,158.662357 C149.826039,158.662357 144.750102,158.07053 140.107076,153.674881 C140.107076,153.674881 141.405808,159.849143 149.435402,160.714182 L149.826039,158.662357" id="Fill-169" fill="#EA8E6C"></path>
            <path d="M158.94613,137.046569 C158.848275,137.647007 158.258796,138.058781 157.630175,137.967972 C157.00312,137.877162 156.571775,137.318214 156.670413,136.717776 C156.768268,136.11812 157.356964,135.70478 157.984802,135.79559 C158.614206,135.886399 159.043985,136.446913 158.94613,137.046569" id="Fill-170" fill="#132529"></path>
            <path d="M159.833088,135.752533 C159.663994,135.871525 158.935953,135.068331 157.720202,134.827999 C156.509931,134.57201 155.493021,135.018229 155.391252,134.843656 C155.339584,134.764589 155.535294,134.528171 155.979948,134.323067 C156.418338,134.11718 157.12446,133.974703 157.880684,134.128923 C158.636908,134.283925 159.216993,134.690219 159.526215,135.047977 C159.842482,135.409649 159.916069,135.700866 159.833088,135.752533" id="Fill-171" fill="#132529"></path>
            <path d="M146.951449,135.079291 C146.853594,135.678946 146.264116,136.091503 145.635495,135.999911 C145.00844,135.909102 144.577095,135.350154 144.675732,134.750498 C144.773587,134.150059 145.363066,133.737502 145.990904,133.828312 C146.618742,133.918338 147.049304,134.478852 146.951449,135.079291" id="Fill-172" fill="#132529"></path>
            <path d="M147.849367,133.59346 C147.680274,133.713234 146.949884,132.909257 145.735698,132.669708 C144.525427,132.412936 143.5093,132.859938 143.406748,132.684582 C143.355081,132.605515 143.549225,132.369097 143.996227,132.163993 C144.433835,131.958889 145.14074,131.815629 145.896181,131.969849 C146.651622,132.124851 147.233272,132.531145 147.541711,132.888903 C147.856413,133.249793 147.930783,133.541792 147.849367,133.59346" id="Fill-173" fill="#132529"></path>
            <path d="M150.457792,143.482299 C150.46562,143.411844 151.246112,143.432198 152.501005,143.520659 C152.817272,143.550407 153.124146,143.547275 153.218087,143.346085 C153.335513,143.137067 153.272886,142.776177 153.195384,142.38554 C153.052907,141.576083 152.905733,140.728267 152.749165,139.840526 C152.147944,136.223803 151.77766,133.274061 151.924052,133.251358 C152.06966,133.227873 152.676361,136.141605 153.277583,139.758328 C153.419277,140.6492 153.554708,141.497799 153.682311,142.309605 C153.728499,142.685368 153.851405,143.126107 153.59933,143.559801 C153.469379,143.774299 153.20791,143.897205 152.998891,143.910513 C152.787525,143.93165 152.612951,143.900336 152.457166,143.8792 C151.21245,143.698363 150.448397,143.551972 150.457792,143.482299" id="Fill-174" fill="#132529"></path>
            <path d="M146.715032,143.607554 C146.914656,143.635736 146.65397,144.954822 147.594944,146.115775 C148.534353,147.279858 149.969299,147.412941 149.942683,147.599257 C149.944248,147.68537 149.578662,147.792619 148.982137,147.690067 C148.396573,147.593777 147.583984,147.236802 147.007814,146.526766 C146.433992,145.815164 146.290732,144.990833 146.354142,144.441279 C146.414421,143.8792 146.626571,143.582503 146.715032,143.607554" id="Fill-175" fill="#132529"></path>
            <path d="M149.114437,128.896417 C148.928121,129.202508 147.746815,128.804042 146.286818,128.69053 C144.829952,128.548836 143.597761,128.735935 143.46781,128.402445 C143.412228,128.243528 143.67448,127.972666 144.202897,127.745642 C144.726617,127.518618 145.522766,127.36205 146.397198,127.437986 C147.270848,127.51627 148.027072,127.808269 148.504605,128.122971 C148.985269,128.437673 149.196636,128.750026 149.114437,128.896417" id="Fill-176" fill="#132529"></path>
            <path d="M160.089077,132.148336 C159.820563,132.38084 159.040854,131.927575 158.037252,131.713077 C157.042262,131.463351 156.141996,131.527544 156.004216,131.200317 C155.945503,131.042183 156.135733,130.792457 156.560032,130.606141 C156.978852,130.419042 157.634872,130.329015 158.322206,130.487932 C159.008757,130.647631 159.558311,131.017915 159.851876,131.370193 C160.150138,131.72482 160.210417,132.032476 160.089077,132.148336" id="Fill-177" fill="#132529"></path>
            <path d="M134.157489,135.179494 C134.034583,135.094165 129.048673,132.488089 128.141361,137.925698 C127.234831,143.364091 132.880676,143.152724 132.915904,142.998504 C132.951132,142.844285 134.157489,135.179494 134.157489,135.179494" id="Fill-178" fill="#F1AD92"></path>
            <path d="M131.599167,140.661726 C131.577247,140.639806 131.4927,140.711827 131.320475,140.758798 C131.152165,140.80342 130.875822,140.808117 130.610439,140.65468 C130.071062,140.347807 129.739138,139.355948 129.876918,138.371135 C129.945025,137.874031 130.127427,137.419984 130.367759,137.059094 C130.599479,136.688028 130.904004,136.453958 131.201484,136.450827 C131.500529,136.432039 131.675885,136.639492 131.717375,136.803888 C131.765129,136.967502 131.711896,137.070837 131.739295,137.084145 C131.752603,137.100585 131.870812,137.012907 131.865332,136.780403 C131.860635,136.66924 131.818362,136.529894 131.707199,136.40464 C131.595252,136.276254 131.412851,136.190924 131.206964,136.178399 C130.783447,136.137691 130.341142,136.460221 130.076542,136.856338 C129.78924,137.25089 129.573176,137.758953 129.495674,138.317119 C129.347718,139.419358 129.737572,140.538037 130.485968,140.896578 C130.852337,141.060191 131.189741,140.997564 131.37684,140.896578 C131.56707,140.790894 131.615606,140.674251 131.599167,140.661726" id="Fill-179" fill="#EA8E6C"></path>
            <path d="M164.307804,130.906751 C160.640979,131.136907 156.906048,129.474154 154.623285,126.595649 C153.027074,124.580618 152.01173,121.940881 149.750104,120.718084 C148.228262,119.895319 146.355708,119.885142 144.707046,120.408862 C143.057601,120.932582 141.603084,121.945578 140.30122,123.085393 C141.026131,127.408238 139.104257,131.686461 137.23092,135.648416 C137.02425,136.086023 136.787833,136.554945 136.353356,136.769443 C135.615921,137.133464 134.736008,136.557293 134.294486,135.863697 C133.589147,134.752063 133.506166,133.363305 133.533565,132.04735 C133.592278,129.049071 134.11913,126.03357 135.336447,123.292846 C136.553763,120.552122 138.488945,118.092437 141.021434,116.485266 C144.185674,114.476497 148.17268,113.903458 151.836373,114.69491 C155.500066,115.485579 158.827138,117.584374 161.318136,120.385377 C162.472826,121.684892 163.478776,123.177768 163.871762,124.871835" id="Fill-180" fill="#132529"></path>
        </g>
    </g>
</svg>