<?xml version="1.0" encoding="UTF-8"?>
<svg width="300px" height="200px" viewBox="0 0 300 279" version="1.1" xmlns="http://www.w3.org/2000/svg" xmlns:xlink="http://www.w3.org/1999/xlink">
    <title>6099983</title>
    <defs>
        <polygon id="path-1" points="0 0 28.464765 0 28.464765 45.8930194 0 45.8930194"></polygon>
    </defs>
    <g id="6099983" stroke="none" stroke-width="1" fill="none" fill-rule="evenodd">
        <path d="M280.547303,39.6852589 L281.06888,42.3295313 L275.833195,70.6704509 C272.077593,73.4268214 267.351037,74.509192 262.771369,73.6622277 L233.146058,68.1831161 C233.146058,68.1831161 228.436929,67.1306384 229.748963,61.0138125 C229.748963,61.0138125 229.981743,57.7866295 232.745228,57.5711518 C232.745228,57.5711518 227.002905,55.2370179 227.639004,50.8116295 C228.273859,46.3874866 231.53278,46.4447812 231.53278,46.4447812 C231.53278,46.4447812 226.153942,45.0859018 226.711618,40.1025134 C227.269295,35.1178795 230.175934,35.1104062 230.175934,35.1104062 C230.175934,35.1104062 223.919502,33.5896071 225.485477,28.0644107 C227.050207,22.5404598 232.429046,23.8980938 232.429046,23.8980938 L253.501245,27.7903929 L271.971784,31.2068973 C276.29751,32.0065313 279.695851,35.3669866 280.547303,39.6852589" id="Fill-2" fill="#E4E4DE"></path>
        <path d="M275.329046,32.4349955 C275.329046,32.4349955 268.839834,26.5610491 266.556846,20.1726964 C264.9,15.5343214 265.014523,10.306808 265.014523,10.306808 C265.060581,10.0552098 265.441494,7.82196429 265.752697,5.99600893 C266.006639,4.498875 265.033195,3.08270089 263.551867,2.75637054 C260.43361,2.06883482 254.948963,3.85991518 253.29834,9.55201339 C250.834855,18.0440759 252.941079,23.8320804 253.012033,26.4178125 C253.082988,29.0035446 253.082988,29.0035446 253.082988,29.0035446 L275.329046,32.4349955" id="Fill-3" fill="#E4E4DE"></path>
        <polyline id="Fill-4" fill="#E4E4DE" points="271.262241 74.9065179 291.954772 78.7328036 299.726141 36.6673259 279.03361 32.8397946 271.262241 74.9065179"></polyline>
        <g id="Group-8" transform="translate(271.261376, 32.839790)">
            <mask id="mask-2" fill="white">
                <use xlink:href="#path-1"></use>
            </mask>
            <g id="Clip-6"></g>
            <path d="M0.000864562774,42.0667321 C-0.0439487152,42.0580089 1.65895585,32.6330402 3.80501394,21.0196652 C5.95107203,9.40130802 7.72742058,-0.00746876549 7.77223386,0 C7.81704714,0.00872319879 6.11289776,9.43120088 3.96683967,21.049558 C1.82202639,32.6641786 0.0456778408,42.0742009 0.000864562774,42.0667321" id="Fill-5" fill="#D4D5CF" mask="url(#mask-2)"></path>
            <path d="M20.6933957,45.8930194 C20.6485824,45.8855402 22.351487,36.4605714 24.4975451,24.8459509 C26.6436032,13.2275937 28.4199517,3.81881695 28.464765,3.82752964 C28.5095783,3.83500891 26.8054289,13.2574866 24.6593708,24.8758437 C22.5145575,36.4904643 20.738209,45.9017321 20.6933957,45.8930194" id="Fill-7" fill="#D4D5CF" mask="url(#mask-2)"></path>
        </g>
        <path d="M284.559336,43.8204375 C284.163485,45.9602679 285.577593,48.0154018 287.714938,48.4102366 C289.853527,48.806317 291.907469,47.3926339 292.30332,45.2528036 C292.697925,43.1129732 291.285062,41.0578393 289.146473,40.6617589 C287.007884,40.2669241 284.953942,41.6806071 284.559336,43.8204375" id="Fill-9" fill="#FFFFFE"></path>
        <path d="M248.652672,26.8948527 C248.660166,26.8500134 250.923237,27.2299018 253.705394,27.7455536 C256.488797,28.2599598 258.738174,28.7133348 258.729486,28.7581741 C258.721992,28.8030134 256.458921,28.4218795 253.675519,27.9074732 C250.893361,27.393067 248.643983,26.939692 248.652672,26.8948527" id="Fill-10" fill="#D4D5CF"></path>
        <path d="M231.075894,46.5668438 C231.084647,46.5220045 232.53361,46.7524286 234.311203,47.08125 C236.090041,47.4100714 237.525311,47.7127366 237.517871,47.7575759 C237.509129,47.8024152 236.060166,47.5719911 234.281328,47.2431696 C232.50249,46.9143482 231.06722,46.611683 231.075894,46.5668438" id="Fill-11" fill="#D4D5CF"></path>
        <path d="M229.787524,34.9322946 C229.795021,34.8874554 231.848963,35.2299777 234.373444,35.6970536 C236.897925,36.1641295 238.938174,36.5788929 238.929488,36.6237321 C238.920747,36.6685714 236.86805,36.3260491 234.343568,35.8589732 C231.819087,35.3918973 229.778838,34.9771339 229.787524,34.9322946" id="Fill-12" fill="#D4D5CF"></path>
        <path d="M231.440643,57.3843214 C231.449378,57.3394821 233.50332,57.6820045 236.027801,58.1490804 C238.552282,58.6161562 240.592531,59.0309196 240.583845,59.0757589 C240.575104,59.1205982 238.522407,58.7780759 235.997925,58.311 C233.473444,57.8439241 231.433195,57.4291607 231.440643,57.3843214" id="Fill-13" fill="#D4D5CF"></path>
        <path d="M283.692926,34.9347857 C283.700415,34.8899464 286.599585,35.3881607 290.16473,36.0482946 C293.732365,36.7084286 296.616598,37.2788839 296.607904,37.3237232 C296.600415,37.3685625 293.70249,36.8703482 290.134855,36.2102143 C286.56971,35.5513259 283.684232,34.979625 283.692926,34.9347857" id="Fill-14" fill="#FFFFFE"></path>
        <path d="M228.690871,42.2261518 C228.679668,42.2298884 228.647303,42.145192 228.59751,41.9882545 C228.545228,41.8325625 228.495436,41.5984018 228.460581,41.3057009 C228.420747,41.013 228.417012,40.6592679 228.449378,40.2694152 C228.490456,39.880808 228.573859,39.4573259 228.719502,39.0288616 C228.870124,38.6028884 229.06805,38.2180179 229.275934,37.8879509 C229.492531,37.5616205 229.715353,37.2876027 229.926971,37.0820893 C230.137344,36.8753304 230.320332,36.7221295 230.458506,36.6324509 C230.595436,36.5402812 230.672614,36.4929509 230.678838,36.5029152 C230.69751,36.5278259 230.401245,36.7370759 230.011618,37.1630491 C229.814938,37.3735446 229.608299,37.648808 229.405394,37.9689107 C229.208714,38.2952411 229.021992,38.6701473 228.875104,39.0836652 C228.73444,39.4984286 228.648548,39.9094554 228.6,40.2856071 C228.560166,40.6630045 228.552697,41.0080179 228.576349,41.2944911 C228.617427,41.8699286 228.720747,42.2186786 228.690871,42.2261518" id="Fill-15" fill="#FFFFFE"></path>
        <path d="M227.595436,31.0051205 C227.584232,31.0150848 227.388797,30.8394643 227.184647,30.4720312 C226.979253,30.1070893 226.79751,29.5366339 226.808714,28.8902009 C226.821162,28.2450134 227.024066,27.6807857 227.243154,27.323317 C227.460996,26.9633571 227.662656,26.7952098 227.673859,26.8064196 C227.696266,26.8263482 227.528216,27.0194062 227.345228,27.3793661 C227.159751,27.7380804 226.986722,28.2773973 226.973029,28.8939375 C226.963071,29.5092321 227.117427,30.0547768 227.287967,30.4197188 C227.458506,30.7859062 227.619087,30.9864375 227.595436,31.0051205" id="Fill-16" fill="#FFFFFE"></path>
        <path d="M230.23444,54.2966384 C230.226971,54.3103393 229.958091,54.1621205 229.658091,53.7784955 C229.359336,53.4048348 229.053112,52.7633839 229.061826,52.0110804 C229.074274,51.2587768 229.39917,50.6260446 229.707884,50.2611027 C230.019087,49.887442 230.291701,49.7454509 230.29917,49.7603973 C230.317842,49.782817 230.075104,49.9559464 229.8,50.3320982 C229.526141,50.7020223 229.238589,51.3061071 229.227386,52.0135714 C229.218672,52.7210357 229.488797,53.3325938 229.752697,53.7099911 C230.016598,54.0948616 230.253112,54.2742187 230.23444,54.2966384" id="Fill-17" fill="#FFFFFE"></path>
        <path d="M232.599585,65.0642946 C232.587137,65.0755045 232.39917,64.8824464 232.201245,64.4988214 C232.002075,64.118933 231.821577,63.5347768 231.817842,62.8721518 C231.816598,62.2095268 231.993361,61.624125 232.190041,61.2429911 C232.385477,60.8581205 232.572199,60.663817 232.584647,60.6737812 C232.608299,60.6912187 232.457676,60.9066964 232.295851,61.291567 C232.13278,61.6739464 231.982158,62.2369286 231.982158,62.8721518 C231.985892,63.5061295 232.140249,64.0678661 232.307054,64.4502455 C232.471369,64.832625 232.623237,65.0481027 232.599585,65.0642946" id="Fill-18" fill="#FFFFFE"></path>
        <path d="M253.529876,19.3880703 C253.518672,19.3917455 253.46888,19.2248438 253.385477,18.9196875 C253.341909,18.7677321 253.294606,18.5809018 253.253527,18.360442 C253.211203,18.1412277 253.152697,17.8921205 253.117842,17.6106295 C253.026971,17.053875 252.96971,16.3812857 252.952282,15.6339643 C252.946058,14.8866429 252.988382,14.0645893 253.109129,13.2089063 C253.237344,12.3557143 253.431535,11.5548348 253.650622,10.8398973 C253.879668,10.1286964 254.126141,9.50094643 254.372614,8.99152232 C254.484647,8.73245089 254.612863,8.51074554 254.716183,8.31270536 C254.818257,8.11217411 254.917842,7.94651786 255.00249,7.81324554 C255.16805,7.54545536 255.2639,7.40097321 255.273859,7.40595536 C255.283817,7.41218304 255.206639,7.56912054 255.058506,7.84562946 C254.982573,7.98263839 254.891701,8.15203125 254.79834,8.35505357 C254.70249,8.55558482 254.582988,8.77978125 254.478423,9.04009821 C254.248133,9.55076786 254.014108,10.1772723 253.795021,10.8847366 C253.587137,11.594692 253.39917,12.3880982 253.272199,13.2325714 C253.152697,14.0795357 253.106639,14.8928705 253.104149,15.6327187 C253.112863,16.372567 253.158921,17.0401741 253.23361,17.595683 C253.259751,17.874683 253.310788,18.1237902 253.344398,18.3430045 C253.376763,18.5647098 253.415353,18.7527857 253.447718,18.9059866 C253.511203,19.2136339 253.541079,19.3855179 253.529876,19.3880703" id="Fill-19" fill="#FFFFFE"></path>
        <path d="M41.8780083,75.8730536 L43.2809129,77.4785491 L50.8991701,98.9827232 C49.4141079,102.359371 46.6020747,104.972504 43.126556,106.205585 L20.6477178,114.177013 C20.6477178,114.177013 17.0041494,115.31917 15.4842324,110.606062 C15.4842324,110.606062 14.3676349,108.301821 16.1775934,107.060022 C16.1775934,107.060022 11.3165975,107.732612 10.0033195,104.446888 C8.68879668,101.162411 10.9456432,99.9118929 10.9456432,99.9118929 C10.9456432,99.9118929 6.72074689,101.110098 5.13236515,97.4718884 C3.5439834,93.8336786 5.53443983,92.6778214 5.53443983,92.6778214 C5.53443983,92.6778214 0.643568465,94.111433 -0.468049793,89.7047277 C-1.57966805,85.2967768 2.64522822,84.0985714 2.64522822,84.0985714 L18.6311203,78.4251563 L32.646473,73.4554687 C35.9278008,72.2908929 39.5875519,73.2499554 41.8780083,75.8730536" id="Fill-20" fill="#E4E4DE"></path>
        <path d="M35.43361,72.9672188 C35.43361,72.9672188 28.6618257,71.509942 24.5701245,68.0324063 C21.6,65.5089509 19.6120332,61.8794598 19.6120332,61.8794598 C19.5435685,61.6888929 18.9224066,60.0074196 18.413278,58.6323482 C17.9950207,57.5051384 16.7676349,56.9184911 15.6224066,57.2821875 C13.2136929,58.0457009 10.1614108,61.4447679 11.2804979,65.999692 C12.9497925,72.7978259 16.6829876,75.9328393 17.753527,77.6778348 C18.8240664,79.4215848 18.8240664,79.4215848 18.8240664,79.4215848 L35.43361,72.9672188" id="Fill-21" fill="#E4E4DE"></path>
        <polyline id="Fill-22" fill="#E4E4DE" points="49.4390041 103.69583 65.139834 98.1282857 53.833195 66.211433 38.13361 71.7789777 49.4390041 103.69583"></polyline>
        <path d="M46.2634855,77.1198348 C46.839834,78.7427679 48.6211618,79.5922232 50.2431535,79.0167857 C51.86639,78.4413482 52.7153527,76.6589866 52.140249,75.0360536 C51.5651452,73.411875 49.7838174,72.5624196 48.1605809,73.1378571 C46.5385892,73.7132946 45.6896266,75.4956562 46.2634855,77.1198348" id="Fill-25" fill="#FFFFFE"></path>
        <path d="M166.134025,261.675844 C166.134025,261.675844 170.271784,277.703397 168.770539,297.229661 C168.190456,304.78508 142.707884,513.812129 142.707884,513.812129 L108.301245,513.812129 L117.973444,317.356272 L115.156432,317.96783 C115.156432,317.96783 96.3746888,401.756263 94.8423237,415.322638 C93.4643154,427.515187 77.6253112,516.101424 77.6253112,516.101424 L46.1676349,516.463875 L56.2145228,399.288857 L67.9058091,286.856839 L72.3049793,254.129143 L166.134025,261.675844" id="Fill-117" fill="#132529"></path>
        <path d="M116.721162,304.025304 C116.707469,304.043987 116.782158,304.122455 116.943983,304.26071 C117.112033,304.386509 117.385892,304.555902 117.782988,304.65679 C118.560996,304.880987 119.858091,304.766397 121.045643,303.884558 C122.282988,303.01642 123.023651,301.286371 123.273859,299.435504 C123.520332,297.56471 123.557676,295.55317 123.697095,293.425795 C123.927386,289.173536 124.09917,285.322339 124.191286,282.533585 C124.282158,279.74483 124.292116,278.017272 124.198755,278.012279 C124.106639,278.007308 123.929876,279.724902 123.718257,282.507429 C123.505394,285.289955 123.258921,289.137415 123.027386,293.388429 C122.889212,295.507085 122.86556,297.559728 122.661411,299.350808 C122.451037,301.130679 121.813693,302.700054 120.756846,303.509652 C119.718672,304.351634 118.558506,304.529746 117.837759,304.402701 C117.094606,304.285621 116.759751,303.964272 116.721162,304.025304" id="Fill-118" fill="#334F55"></path>
        <path d="M66.1068404,283.815241 C66.0970954,283.856344 66.4356846,283.992107 67.0705394,284.162746 C67.7053942,284.334629 68.6439834,284.518969 69.820332,284.623594 C72.1593361,284.846545 75.5153527,284.626085 78.8887967,283.269696 C82.2659751,281.913308 84.8414938,279.748567 86.3763485,277.969942 C87.153112,277.079384 87.7033195,276.295942 88.0419087,275.73296 C88.3829876,275.169978 88.53361,274.83742 88.4975104,274.815 C88.4004149,274.750232 87.6348548,275.985804 86.0278008,277.647348 C84.4381743,279.306402 81.9012448,281.336625 78.639834,282.646929 C75.379668,283.958478 72.1443983,284.248688 69.8489627,284.151536 C67.539834,284.063103 66.133195,283.701897 66.1068404,283.815241" id="Fill-119" fill="#334F55"></path>
        <path d="M152.423651,275.070335 C152.352697,275.077808 152.411203,276.422987 152.945228,278.525451 C153.473029,280.624179 154.572199,283.456527 156.405809,286.226598 C158.248133,288.990442 160.43278,291.102871 162.160581,292.401964 C163.890871,293.709777 165.108299,294.283969 165.143154,294.221692 C165.29751,294.046071 160.548548,291.33454 156.963485,285.855429 C153.304979,280.427384 152.645228,274.995603 152.423651,275.070335" id="Fill-120" fill="#334F55"></path>
        <polyline id="Fill-121" fill="#AE6C5C" points="257.519502 215.927317 265.415353 218.425862 279.759336 210.493045 287.897925 233.169268 268.379253 237.817607 253.593361 236.189692 257.519502 215.927317"></polyline>
        <path d="M165.687137,124.882393 C165.687137,124.882393 173.753527,129.727527 180.43444,146.191018 C193.558506,178.532598 201.80166,195.990027 201.80166,195.990027 L262.051867,215.031777 L257.239419,239.197661 C257.239419,239.197661 196.16639,230.684424 187.987967,227.615424 C176.79834,223.417969 168.500415,201.337112 168.500415,201.337112 L165.687137,124.882393" id="Fill-122" fill="#D4D5CF"></path>
        <path d="M149.129876,52.3262009 C152.238174,52.5229955 155.294191,50.0904643 155.80083,47.0152366 C156.308714,43.9400089 154.19751,40.6530402 151.190041,39.8384598 C153.013693,37.769625 153.33112,34.5125491 151.941909,32.1298393 C150.553942,29.748375 147.5639,28.4206339 144.867635,28.9885982 C144.616183,26.277067 142.860996,23.7536116 140.407469,22.5765804 C137.953942,21.3995491 134.889212,21.6112902 132.618672,23.1134063 C129.487967,20.6908393 124.643154,20.839058 121.66556,23.4497009 C119.00166,23.0959688 116.194606,24.6479062 115.076763,27.0928929 C113.958921,29.5378795 114.619917,32.677875 116.63029,34.4627277" id="Fill-123" fill="#132529"></path>
        <path d="M120.617427,29.7882321 L122.012863,29.7197277 C136.051867,29.0209821 148.273444,39.2256563 150.097095,53.1706741 C151.792531,66.141683 153.500415,80.4939911 153.761826,87.4839375 C154.30083,101.959554 139.951867,104.927665 139.951867,104.927665 L142.038174,122.246839 L106.895851,122.903237 L100.661826,60.0261027 C98.6215768,45.0697098 105.619917,31.4161473 120.617427,29.7882321" id="Fill-124" fill="#AE6C5C"></path>
        <path d="M140.071369,104.901509 C140.071369,104.901509 130.865975,105.915375 120.851452,100.295518 C120.851452,100.295518 125.824481,110.484 140.185892,108.464987 L140.071369,104.901509" id="Fill-125" fill="#643B32"></path>
        <path d="M144.896266,66.5165893 C144.989627,67.6051875 144.144398,68.582933 143.009129,68.7000134 C141.876349,68.8170937 140.880498,68.0324062 140.788382,66.943808 C140.696266,65.8539643 141.540249,64.8762187 142.673029,64.7591384 C143.808299,64.6408125 144.804149,65.4279911 144.896266,66.5165893" id="Fill-126" fill="#132529"></path>
        <path d="M147.339834,60.4035 C147.09834,60.6849911 145.476349,59.6051116 143.254357,59.7209464 C141.03361,59.8056429 139.460166,61.0300045 139.206224,60.7696875 C139.081743,60.6550982 139.318257,60.1556384 140.00166,59.6038661 C140.675104,59.0533393 141.842739,58.4940937 143.226971,58.4305714 C144.611203,58.3695402 145.801245,58.8216696 146.495851,59.3099196 C147.205394,59.8006607 147.460581,60.2764554 147.339834,60.4035" id="Fill-127" fill="#132529"></path>
        <path d="M124.628216,67.0770804 C124.721577,68.1656786 123.876349,69.1421786 122.741079,69.2592589 C121.608299,69.3775848 120.613693,68.5916518 120.520332,67.5030536 C120.428216,66.4144554 121.273444,65.4367098 122.406224,65.3183839 C123.540249,65.200058 124.5361,65.9872366 124.628216,67.0770804" id="Fill-128" fill="#132529"></path>
        <path d="M125.521992,61.903125 C125.279253,62.1858616 123.656017,61.1059821 121.436515,61.221817 C119.215768,61.3065134 117.642324,62.530875 117.387137,62.270558 C117.262656,62.1559688 117.49668,61.6565089 118.183817,61.1047366 C118.857261,60.5542098 120.023651,59.9949643 121.407884,59.931442 C122.792116,59.8704107 123.982158,60.3225402 124.678008,60.8107902 C125.385062,61.3002857 125.641494,61.7760804 125.521992,61.903125" id="Fill-129" fill="#132529"></path>
        <path d="M134.403734,77.9892188 C134.387552,77.8634196 135.756846,77.5557723 137.980083,77.1584464 C138.543983,77.0712589 139.075519,76.9317589 139.152697,76.5394152 C139.26473,76.1234063 138.99834,75.523058 138.689627,74.8753795 C138.088382,73.5289554 137.458506,72.1165179 136.79751,70.6368214 C134.162241,64.5984643 132.225311,59.6213036 132.46805,59.5179241 C132.712033,59.4132991 135.046058,64.223558 137.681328,70.2619152 C138.317427,71.7515759 138.926141,73.1714866 139.504979,74.5303661 C139.751452,75.1643437 140.157261,75.8780357 139.909544,76.743683 C139.777593,77.1758839 139.376763,77.5047054 139.018257,77.6205402 C138.659751,77.7488304 138.341079,77.77125 138.060996,77.8011429 C135.815353,78.0353036 134.418672,78.1137723 134.403734,77.9892188" id="Fill-130" fill="#132529"></path>
        <path d="M127.024481,53.254125 C126.759336,53.8320536 124.824896,53.3164018 122.477178,53.3575045 C120.128216,53.3450491 118.175104,53.8843661 117.93112,53.3101741 C117.825311,53.0349107 118.216183,52.5080491 119.039004,52.014817 C119.854357,51.5215848 121.111618,51.1093125 122.519502,51.1005937 C123.927386,51.0931205 125.16971,51.4892009 125.96639,51.9737143 C126.769295,52.4569821 127.141494,52.9788616 127.024481,53.254125" id="Fill-131" fill="#132529"></path>
        <path d="M146.992531,51.231375 C146.549378,51.7594821 144.689627,51.3260357 142.483817,51.4107321 C140.275519,51.4319063 138.428216,51.9525402 137.972614,51.4468527 C137.770954,51.1989911 138.039834,50.6783571 138.83278,50.1602143 C139.612033,49.6445625 140.937759,49.1874509 142.455187,49.1513304 C143.972614,49.1152098 145.308299,49.5075536 146.101245,49.9870848 C146.905394,50.4678616 147.187967,50.9747946 146.992531,51.231375" id="Fill-132" fill="#132529"></path>
        <path d="M148.376854,46.6054554 C148.376854,46.6054554 144.113278,37.7359955 139.643154,35.8390446 C134.230705,33.5422768 132.243983,39.459817 127.136515,38.3014687 C122.03029,37.1443661 116.863071,34.9385223 111.908714,39.0911384 C106.486307,43.6348527 109.274689,46.4958482 109.244813,52.9315313 C109.126556,79.0242589 104.742324,86.6195357 102.781743,74.4294777 C102.567635,73.0930179 98.7896266,72.2111786 97.9556017,66.5651652 C96.8751037,59.2426607 96.1493776,50.3233795 97.5311203,45.0211339 C98.6950207,40.5521518 101.051452,37.3872455 105.382158,33.8113125 C112.217427,28.1665446 121.963071,27.5686875 128.617842,27.9062277 C135.272614,28.2425223 148.416598,35.2324687 148.376854,46.6054554" id="Fill-133" fill="#132529"></path>
        <path d="M103.684232,73.9898036 C103.482573,71.7615402 101.472199,70.0937679 99.2589212,70.4163616 C96.5751037,70.8062143 93.6510373,72.4876875 94.1053942,78.0539866 C94.913278,87.9285937 104.653942,85.0812991 104.647721,84.7960714 C104.643983,84.6030134 104.058921,78.1187545 103.684232,73.9898036" id="Fill-134" fill="#AE6C5C"></path>
        <path d="M102.197925,81.2575045 C102.151867,81.2288571 102.034855,81.3920223 101.754772,81.5489598 C101.483402,81.7021607 101.002905,81.8304509 100.472614,81.6797411 C99.3983402,81.3833036 98.3850622,79.7989821 98.1921162,78.0228482 C98.0937759,77.1260625 98.2120332,76.255433 98.4721992,75.520567 C98.7149378,74.7732455 99.1406639,74.230192 99.6572614,74.0944286 C100.170124,73.9312634 100.56722,74.2152455 100.710373,74.4830357 C100.865975,74.7483348 100.818672,74.9501116 100.872199,74.9638125 C100.902075,74.9862321 101.070124,74.7807187 100.958091,74.3784107 C100.90083,74.1865982 100.76639,73.9624018 100.518672,73.7917634 C100.26722,73.6186339 99.9099585,73.5488839 99.5477178,73.6186339 C98.7908714,73.7332232 98.1634855,74.4905089 97.8771784,75.2963705 C97.5497925,76.1097054 97.3954357,77.089942 97.5062241,78.0963348 C97.7315353,80.0817188 98.9016598,81.8603438 100.361826,82.1567813 C101.071369,82.2800893 101.63278,82.0235089 101.912863,81.7669286 C102.19917,81.4978929 102.23278,81.2724509 102.197925,81.2575045" id="Fill-135" fill="#643B32"></path>
        <path d="M102.926141,54.8185179 C104.253112,55.6318527 105.654772,56.4688527 107.208299,56.5448304 C108.763071,56.620808 110.487137,55.644308 110.672614,54.0973527 C110.754772,53.4035893 110.548133,52.6126741 110.973859,52.0584107 C111.481743,51.3970312 112.487552,51.5464955 113.320332,51.5925804 C116.208299,51.7557455 119.408714,48.4127277 120.001245,45.5791339 C120.789212,46.6403304 122.411203,46.8919286 123.484232,46.1221875 C124.558506,45.3512009 124.941909,44.9227366 125.760996,43.8852054 C126.580083,42.8476741 127.753942,41.8973304 129.06971,42.0181473 C129.805394,42.0854062 130.511203,42.4877143 131.243154,42.3855804 C132.53527,42.2049777 133.092946,40.6530402 133.226141,39.3539464 C133.358091,38.0548527 133.436515,36.5440179 134.50083,35.7879777 C135.486722,35.0879866 136.826141,35.398125 138.029876,35.5152054 C139.23361,35.6322857 140.762241,35.274817 141.009959,34.0903125 C141.140664,33.4687902 140.845643,32.836058 140.478423,32.3179152 C138.819087,29.9700804 135.409544,29.0595938 132.80166,30.2690089 C131.672614,27.0492991 128.492116,24.6578705 125.086307,24.4685491 C121.680498,24.2792277 118.254772,26.3032232 116.777178,29.3784509 C114.593776,27.586125 111.517842,26.9409375 108.79917,27.7056964 C106.080498,28.4704554 103.791286,30.6227411 102.860166,33.2906786 C100.424066,32.7775179 97.7302905,33.844942 96.3049793,35.886375 C94.879668,37.927808 94.8049793,40.8261696 96.1257261,42.9385982 C94.3991701,44.0421429 92.9651452,45.8842902 93.0298755,47.9331964 C93.0958506,49.9821027 95.1896266,51.9226473 97.1377593,51.2861786 C96.4182573,52.9190759 97.1751037,55.0501875 98.7622407,55.8635223 C100.350622,56.6781027 102.520332,56.0478616 103.425311,54.509625" id="Fill-136" fill="#132529"></path>
        <path d="M133.680498,33.1424598 C133.689212,33.1424598 133.691701,33.2047366 133.687967,33.324308 C133.680498,33.4426339 133.682988,33.6232366 133.650622,33.8549062 C133.582158,34.3157545 133.43278,35.0020446 133.028216,35.7966964 C132.619917,36.5801384 131.971369,37.4931161 130.951867,38.2441741 C129.954772,39.0014598 128.56556,39.6080357 126.960996,39.6005625 L127.117842,39.3726295 C127.46639,40.2034018 127.43278,41.22225 127.054357,42.112808 C126.699585,43.017067 126.110788,43.8328929 125.483402,44.6300357 C125.162241,45.0136607 124.887137,45.4595625 124.434025,45.8195223 C123.993361,46.1657812 123.454357,46.3800134 122.89668,46.4784107 C121.788797,46.6764509 120.514108,46.3949598 119.658921,45.4969286 L120.022407,45.372375 C119.869295,47.3502857 118.848548,49.3742813 117.133195,50.6609196 C116.226971,51.387067 115.085477,51.8603705 113.940249,51.8865268 C112.795021,51.9326116 111.715768,51.649875 110.706224,51.3434732 L110.965145,51.2139375 C110.494606,52.4694375 109.73029,53.5592812 108.776763,54.3825804 C107.841909,55.2033884 106.568465,55.7215312 105.380913,55.4923527 C103.023237,55.1137098 101.378838,53.2503884 100.976763,51.4368884 L101.205809,51.5303036 C100.079253,52.2190848 98.8394191,52.3411473 97.83361,52.1991562 C96.8141079,52.0633929 95.9987552,51.6635759 95.4124481,51.2587768 C94.8236515,50.8465045 94.4651452,50.4093214 94.2485477,50.1054107 C94.046888,49.7890446 93.9609959,49.6121786 93.9721992,49.6071964 C94.0195021,49.5636027 94.3369295,50.3420625 95.5058091,51.1205223 C96.0883817,51.491692 96.8838174,51.8541429 97.8634855,51.9600134 C98.8307054,52.0770937 100.00332,51.9326116 101.042739,51.2749687 L101.221992,51.1603795 L101.271784,51.3683839 C101.670124,53.0573304 103.249793,54.7948527 105.43444,55.121183 C106.511203,55.3179777 107.63029,54.8558839 108.516598,54.0774241 C109.406639,53.3014554 110.134855,52.2527143 110.570539,51.0719464 L110.640249,50.8851161 L110.829461,50.9424107 C111.822822,51.2413393 112.86473,51.5053929 113.921577,51.459308 C114.980913,51.4294152 116.006639,51.0084241 116.870539,50.3196429 C118.491286,49.1015089 119.448548,47.2082946 119.604149,45.3350089 L119.642739,44.8641964 L119.967635,45.2117009 C120.689627,45.9801964 121.832365,46.2542143 122.828216,46.0785938 C123.327386,45.9926518 123.806639,45.8033304 124.191286,45.5056473 C124.56722,45.2191741 124.853527,44.7770089 125.180913,44.3896473 C125.807054,43.6062054 126.380913,42.8215179 126.719502,41.9795357 C127.079253,41.1462723 127.111618,40.2507321 126.811618,39.4984286 L126.719502,39.2655134 L126.968465,39.2704955 C128.480913,39.2966518 129.820332,38.7436339 130.796266,38.0311875 C131.793361,37.3274598 132.443154,36.4580759 132.8639,35.7095089 C133.690456,34.1687812 133.609544,33.1237768 133.680498,33.1424598" id="Fill-137" fill="#334F55"></path>
        <path d="M134.29668,85.6193705 C134.223237,85.253183 131.817012,85.8834241 129.567635,84.2729464 C127.313278,82.6686964 126.907469,80.0318973 126.56639,80.1016473 C126.407054,80.107875 126.250207,80.7966562 126.505394,81.8865 C126.749378,82.9589063 127.498755,84.4199196 128.874274,85.4051384 C130.252282,86.385375 131.790871,86.5572589 132.79917,86.3791473 C133.829876,86.2060179 134.355187,85.7812902 134.29668,85.6193705" id="Fill-138" fill="#132529"></path>
        <path d="M192.96971,177.071585 C192.749378,176.290634 179.878008,141.236277 175.771369,133.563777 C170.859336,124.385424 160.53361,120.324978 154.122822,119.930143 C147.712033,119.535308 79.1153527,125.004455 79.1153527,125.004455 C79.1153527,125.004455 58.6244813,129.597991 56.0128631,147.229795 C53.006639,167.52829 50.3726141,213.996737 50.3726141,213.996737 L81.5962656,197.984129 L85.6419087,187.793156 L150.241494,202.213969 L166.017012,178.867647 L192.96971,177.071585" id="Fill-139" fill="#D4D5CF"></path>
        <path d="M74.5829876,127.00354 L101.377593,115.184652 L104.380083,103.621098 L135.656017,118.416817 L142.207469,111.174027 L144.951037,119.336022 L151.804979,121.577987 L167.823237,149.766951 L167.773444,209.835402 L171.014938,261.649688 L167.541909,269.829121 L138.846473,274.065188 C135.708299,274.528527 132.520332,274.531018 129.382158,274.075152 L71.1348548,264.546804 L69.63361,247.429406 L75.8551867,200.244777 L74.5829876,127.00354" id="Fill-140" fill="#D4D5CF"></path>
        <path d="M104.380083,103.621098 C104.380083,103.621098 107.876763,104.633719 116.858091,109.429031 C125.656432,114.125946 135.656017,118.416817 135.656017,118.416817 L134.89668,132.54742 L101.611618,115.827348 L104.380083,103.621098" id="Fill-141" fill="#D4D5CF"></path>
        <polyline id="Fill-142" fill="#D4D5CF" points="142.207469 111.174027 135.656017 118.416817 139.157676 133.563777 144.993361 119.872848 142.207469 111.174027"></polyline>
        <path d="M137.805809,137.411237 L104.524481,117.290853 L134.89668,132.54742 L135.778008,119.979964 C136.058091,120.189214 137.762241,136.28029 137.880498,137.400027 L137.805809,137.411237" id="Fill-143" fill="#8C8F8B"></path>
        <polyline id="Fill-144" fill="#8C8F8B" points="134.89668 132.54742 104.524481 117.290853 134.89668 132.54742"></polyline>
        <path d="M135.552697,184.414018 C135.051037,171.208848 137.13112,137.519598 137.13112,137.519598 L141.480498,136.819607 C141.480498,136.819607 149.604149,169.568478 152.637759,209.698393 C153.86639,225.937687 153.86639,244.749013 153.86639,244.749013 L145.13029,263.509272 L135.474274,244.871076 C135.474274,244.871076 136.161411,200.460254 135.552697,184.414018" id="Fill-145" fill="#334F55"></path>
        <path d="M72.5887967,129.046219 C72.5377593,129.112232 73.4925311,129.855817 74.8431535,131.248326 C76.1950207,132.635853 77.8917012,134.732089 79.2958506,137.335259 C80.6912863,139.944656 81.5041494,142.516687 81.9149378,144.411147 C82.3294606,146.305607 82.4228216,147.513777 82.5062241,147.506338 C82.5373444,147.503812 82.5385892,147.201147 82.5124481,146.653112 C82.4950207,146.105076 82.4053942,145.314161 82.2360996,144.346379 C81.9024896,142.412062 81.1257261,139.771527 79.7041494,137.116045 C78.2751037,134.465545 76.5037344,132.360589 75.0746888,131.015411 C74.3614108,130.34033 73.7514523,129.828415 73.3045643,129.510804 C72.8614108,129.186964 72.6087137,129.021308 72.5887967,129.046219" id="Fill-146" fill="#132529"></path>
        <polyline id="Fill-147" fill="#334F55" points="135.552697 125.173848 138.531535 124.010518 141.356017 128.856897 141.865145 136.819607 137.886722 137.461058 134.89668 132.54742 135.552697 125.173848"></polyline>
        <path d="M167.773444,148.860201 C167.645228,148.860201 167.541909,166.095924 167.541909,187.352237 C167.541909,208.614777 167.645228,225.846763 167.773444,225.846763 C167.90166,225.846763 168.004979,208.614777 168.004979,187.352237 C168.004979,166.095924 167.90166,148.860201 167.773444,148.860201" id="Fill-148" fill="#132529"></path>
        <path d="M135.342324,118.293509 C135.285062,118.333366 135.984647,119.404527 137.041494,121.173188 C138.09834,122.943094 139.495021,125.425446 140.828216,128.271496 C140.936515,128.504411 141.044813,128.73608 141.145643,128.954049 L141.353527,129.401196 L141.5639,128.95654 C142.848548,126.253728 143.774689,123.737746 144.349793,121.90058 C144.638589,120.981375 144.845228,120.234054 144.972199,119.71342 C145.09917,119.194031 145.151452,118.902576 145.121577,118.895103 C145.058091,118.87642 144.70083,119.996156 144.048548,121.798446 C143.398755,123.600737 142.429046,126.076862 141.146888,128.757254 L141.56639,128.760991 C141.464315,128.543022 141.357261,128.308862 141.247718,128.073455 C139.905809,125.208723 138.451867,122.732598 137.319087,121.000058 C136.752697,120.133165 136.26971,119.448121 135.923651,118.983536 C135.575104,118.521442 135.368465,118.276071 135.342324,118.293509" id="Fill-149" fill="#132529"></path>
        <path d="M101.377415,115.184652 C101.371369,115.198353 101.528216,115.293013 101.83444,115.45867 C102.187967,115.644254 102.634855,115.87717 103.185062,116.164888 C104.413693,116.802603 106.09917,117.675723 108.156846,118.743147 C112.351867,120.925326 118.09668,124.035429 124.462656,127.439478 C128.340249,129.505821 132.012448,131.421455 135.206639,133.020723 L135.50166,133.167696 L135.504149,132.841366 C135.545228,128.694978 135.578838,125.202496 135.603734,122.676549 C135.601245,121.488308 135.6,120.530491 135.598755,119.810571 C135.590041,119.147946 135.575104,118.792969 135.552697,118.792969 C135.53029,118.792969 135.502905,119.146701 135.470539,119.80808 C135.443154,120.528 135.405809,121.485817 135.360996,122.671567 C135.295021,125.197513 135.202905,128.68875 135.094606,132.833893 L135.392116,132.654536 C132.216598,131.026621 128.556846,129.09604 124.680498,127.029696 C118.317012,123.626893 112.542324,120.560384 108.306224,118.450446 C106.190041,117.391741 104.463485,116.562214 103.263485,116.002969 C102.69834,115.747634 102.239004,115.539629 101.875519,115.375219 C101.555602,115.235719 101.385062,115.169705 101.377415,115.184652" id="Fill-150" fill="#132529"></path>
        <path d="M163.748963,126.073125 C163.681743,126.114228 164.205809,127.002295 164.879253,128.511884 C165.556432,130.018982 166.330705,132.177496 166.788797,134.654866 C167.240664,137.133482 167.284232,139.426513 167.188382,141.075603 C167.096266,142.727183 166.921992,143.742295 166.99917,143.757356 C167.03029,143.763469 167.10249,143.515607 167.207054,143.058496 C167.317842,142.603875 167.426141,141.933777 167.515768,141.101759 C167.69751,139.437723 167.706224,137.096116 167.245643,134.57017 C166.777593,132.046714 165.937344,129.862045 165.175519,128.372384 C164.797095,127.625063 164.457261,127.038415 164.192116,126.652299 C163.93195,126.262446 163.776349,126.056933 163.748963,126.073125" id="Fill-151" fill="#132529"></path>
        <path d="M138.613693,137.975464 C138.682158,138.083826 139.439004,137.728848 140.304149,137.182058 C141.169295,136.636513 141.814108,136.105915 141.745643,135.997554 C141.677178,135.889192 140.921577,136.24417 140.056432,136.79096 C139.191286,137.336504 138.546473,137.867103 138.613693,137.975464" id="Fill-152" fill="#132529"></path>
        <path d="M137.183402,136.031183 C137.300415,136.08225 138.206639,134.277469 139.206224,132.000629 C140.207054,129.722545 140.921577,127.834313 140.804564,127.783246 C140.687552,127.730933 139.782573,129.535714 138.781743,131.813799 C137.782158,134.090638 137.06639,135.980116 137.183402,136.031183" id="Fill-153" fill="#132529"></path>
        <path d="M69.0958506,129.96667 C69.0958506,129.96667 58.7713693,137.401272 57.4817427,141.509049 C56.1908714,145.616826 50.7062241,212.370067 49.7377593,220.311603 C48.7705394,228.254384 47.8020747,243.103661 53.9327801,247.946304 C60.0622407,252.787701 73.2896266,256.418437 73.2896266,256.418437 L85.5087137,231.160219 L79.0369295,217.602563 L85.5087137,166.904277 L69.0958506,129.96667" id="Fill-154" fill="#D4D5CF"></path>
        <path d="M70.3443932,255.527879 C70.3443932,255.510442 70.5709544,255.49425 71.0041494,255.479304 C71.4373444,255.464357 72.079668,255.47183 72.9037344,255.357241 C74.5219917,255.152973 77.0103734,254.728246 79.5074689,252.967058 C82.0232365,251.268147 84.33361,248.237759 85.8074689,244.339232 C87.2912863,240.451915 88.1526971,235.764964 88.1975104,230.751683 L88.2547718,230.924812 C85.3182573,226.856893 82.1128631,222.416558 78.773029,217.791884 L78.6983402,217.688504 L78.7145228,217.56146 C78.7580913,217.22392 78.8041494,216.858978 78.8502075,216.494036 C80.6751037,202.276246 82.3257261,189.408616 83.5307054,180.019768 C84.1294606,175.401321 84.6174274,171.642295 84.9634855,168.969375 C85.1278008,167.711384 85.259751,166.711219 85.3568465,165.966388 C85.440249,165.282589 85.4850622,164.920138 85.5087137,164.920138 C85.519917,164.920138 85.5236515,165.011062 85.5211618,165.189174 C85.5161826,165.36604 85.5112033,165.632585 85.4863071,165.978844 C85.4190871,166.727411 85.3282158,167.733804 85.2136929,168.998022 C84.953527,171.618629 84.5302905,175.402567 83.9850622,180.075817 C82.8946058,189.423562 81.3074689,202.328558 79.4937759,216.576241 C79.4477178,216.941183 79.4004149,217.306125 79.3580913,217.64242 L79.2995851,217.411996 C82.6282158,222.045388 85.8236515,226.493196 88.7502075,230.567344 L88.8099585,230.649549 L88.8087137,230.740473 C88.740249,235.860871 87.8377593,240.571487 86.2892116,244.528554 C84.753112,248.484375 82.3381743,251.578286 79.720332,253.279687 C78.4307054,254.156545 77.1248963,254.700844 75.9572614,255.023438 C75.6659751,255.103152 75.3834025,255.181621 75.1120332,255.256353 C74.8356846,255.303683 74.5705394,255.349768 74.3153527,255.393362 C73.8087137,255.496741 73.3431535,255.540335 72.9224066,255.559018 C72.0846473,255.642469 71.4385892,255.601366 71.0029046,255.582683 C70.5672199,255.564 70.3431535,255.545317 70.3443932,255.527879" id="Fill-155" fill="#132529"></path>
        <path d="M57.8688797,222.28204 C57.826556,222.227237 58.7887967,221.380272 60.580083,220.353951 C62.3626556,219.326384 65.0215768,218.194192 68.1224066,217.586371 C71.2257261,216.988513 74.1149378,217.040826 76.1526971,217.326054 C78.1979253,217.607545 79.406639,218.032272 79.38818,218.098286 C79.3717842,218.324973 74.3514523,216.993496 68.2456432,218.222839 C62.1273859,219.369978 57.9684647,222.485062 57.8688797,222.28204" id="Fill-156" fill="#132529"></path>
        <path d="M138.872614,155.823991 L138.873859,155.823991 C138.908714,155.819009 139.461411,158.039799 140.404979,161.952027 C142.509959,158.909183 145.218672,156.319714 148.363071,154.33433 L148.323237,154.341804 C148.323237,154.341804 164.261826,138.499835 169.353112,121.840795 C173.048963,109.747888 172.129046,96.3546429 172.129046,96.3546429 C171.979668,95.7144375 170.7361,90.0347946 169.721577,85.3877009 C168.888797,81.5788527 171.215353,77.8285446 174.978423,76.8146786 C182.891701,74.6798304 204.317427,70.5072857 209.23195,84.9069241 C216.565145,106.39117 204.712033,129.596746 204.839004,136.236696 C204.8639,137.490951 204.883817,138.507308 204.898755,139.331853 C211.180083,137.878312 216.052282,136.830817 216.077178,136.935442 L216.06971,136.940424 L257.325311,127.308696 C257.325311,127.308696 270.957261,123.180991 275.63278,137.162129 C280.308299,151.144513 264.444398,155.792853 264.444398,155.792853 C264.444398,155.792853 271.90083,155.464031 273.927386,168.179705 C275.953942,180.896625 262.321992,185.02433 262.321992,185.02433 C262.321992,185.02433 270.670954,184.486259 272.830705,195.758357 C274.93444,206.729036 261.306224,213.34283 260.578008,213.686598 C262.597095,213.254397 263.851867,213.014009 263.864315,213.070058 C263.876763,213.118634 262.935685,213.385179 261.363485,213.788732 C267.718257,214.603313 268.639419,222.174924 268.639419,222.174924 C272.734855,237.705509 260.785892,240.968813 260.785892,240.968813 L185.462241,258.569478 C177.882573,260.340629 170.048963,260.009317 162.754357,257.746179 C163.476349,260.95717 163.86722,262.764442 163.8361,262.775652 L111.225311,275.069113 C111.112033,275.096491 105.430705,251.173487 98.5381743,221.644326 C91.6431535,192.103955 86.1485477,168.143585 86.2613124,168.117429 L138.872614,155.823991" id="Fill-157" fill="#E46C62"></path>
        <path d="M111.225311,275.069089 C111.105809,275.069089 105.426971,251.157295 98.5381743,221.644326 C91.7116183,192.39292 86.2568465,168.611906 86.260579,168.124902 C86.260579,168.11992 86.2618257,168.117429 86.2630705,168.117429 L138.872614,155.823991 L138.873859,155.823991 C138.909959,155.823991 139.462656,158.044781 140.404979,161.952027 C142.509959,158.909183 145.218672,156.319714 148.363071,154.33433 L148.323237,154.341804 C148.323237,154.341804 164.261826,138.499835 169.353112,121.840795 C171.821577,113.76225 172.23112,105.104531 172.23112,100.245696 C172.229876,97.8306027 172.129046,96.3546429 172.129046,96.3546429 C171.979668,95.7144375 170.7361,90.0347946 169.721577,85.3877009 C169.607054,84.867067 169.552282,84.3476786 169.552282,83.8357634 C169.552282,80.6048437 171.729461,77.6902902 174.978423,76.8146786 C177.670954,76.0885313 181.926971,75.1257321 186.565145,74.7396161 C183.80166,76.2616607 182.253112,79.4340402 182.956432,82.6500134 C183.970954,87.2971071 185.214523,92.97675 185.3639,93.6157098 C185.3639,93.6157098 186.283817,107.008955 182.587967,119.103107 C177.583817,135.47692 162.099585,151.062308 161.571784,151.590415 C154.921992,155.795344 150.247718,162.747924 149.043983,170.822732 L148.023237,177.665705 L164.841909,249.723683 C172.013278,254.489103 180.370954,256.968964 188.83444,256.968964 C190.321992,256.968964 191.812033,256.892987 193.299585,256.73854 L185.462241,258.569478 C182.213278,259.329254 178.917012,259.70167 175.638174,259.70167 C171.26639,259.70167 166.921992,259.039045 162.754357,257.746179 C163.448963,260.837598 163.837344,262.628679 163.837344,262.766933 C163.837344,262.771915 163.837344,262.774406 163.8361,262.775652 L121.204979,272.737446 L111.225311,275.069089" id="Fill-158" fill="#BC5247"></path>
        <path d="M218.138589,136.808397 C218.1361,136.696299 218.13361,136.579219 218.13112,136.458402 L257.325311,127.308696 C257.325311,127.308696 258.93112,126.822937 261.229046,126.749451 L218.138589,136.808397" id="Fill-159" fill="#BC5247"></path>
        <path d="M149.043983,170.822732 L148.023237,177.665705 L164.841909,249.723683 C174.802905,256.34246 187.053112,258.553286 198.697095,255.83179 L274.020747,238.229879 C274.020747,238.229879 285.96971,234.967821 281.874274,219.437237 C281.874274,219.437237 280.890871,211.188054 273.776763,210.965103 C273.776763,210.965103 288.226556,204.291522 286.06556,193.02067 C283.905809,181.748571 275.556846,182.285397 275.556846,182.285397 C275.556846,182.285397 289.188797,178.158938 287.162241,165.442018 C285.135685,152.726344 277.679253,153.055165 277.679253,153.055165 C277.679253,153.055165 293.543154,148.40558 288.867635,134.424442 C284.192116,120.443304 270.560166,124.569763 270.560166,124.569763 L216.984647,137.077433 L170.021577,148.051848 C159.024896,150.621388 150.709544,159.64654 149.043983,170.822732" id="Fill-160" fill="#E46C62"></path>
        <path d="M161.558091,151.604116 C161.558091,151.604116 177.49668,135.762147 182.587967,119.103107 C186.283817,107.008955 185.3639,93.6157098 185.3639,93.6157098 C185.214523,92.97675 183.970954,87.2971071 182.956432,82.6500134 C182.123651,78.8399196 184.450207,75.0908571 188.213278,74.0757455 C196.126556,71.9421429 210.405809,75.8780357 215.320332,90.2764286 C222.653527,111.760674 217.946888,126.859058 218.073859,133.497763 C218.202075,140.137714 218.202075,140.137714 218.202075,140.137714 L161.558091,151.604116" id="Fill-161" fill="#E46C62"></path>
        <polyline id="Fill-162" fill="#E46C62" points="177.070954 260.037964 124.460166 272.331402 99.4979253 165.379741 152.107469 153.085058 177.070954 260.037964"></polyline>
        <path d="M177.070954,260.037986 C177.185477,260.010563 171.688382,236.04521 164.795851,206.516049 C157.902075,176.975679 152.221992,153.058902 152.107469,153.085037 C151.994191,153.11246 157.488797,177.07283 164.383817,206.611955 C171.276349,236.142362 176.957676,260.064121 177.070954,260.037986" id="Fill-163" fill="#132529"></path>
        <path d="M124.460166,272.331423 C124.574689,272.305246 119.077593,248.339893 112.185062,218.809487 C105.291286,189.270362 99.6112033,165.352339 99.4979253,165.379718 C99.3834025,165.405897 104.878008,189.366268 111.773029,218.906638 C118.66556,248.435799 124.346888,272.357558 124.460166,272.331423" id="Fill-164" fill="#132529"></path>
        <path d="M139.249793,181.908 C140.519502,187.347254 137.141079,192.787754 131.703734,194.058201 C126.26639,195.328647 120.83029,191.948263 119.560581,186.507763 C118.290871,181.068509 121.66805,175.628009 127.105394,174.357562 C132.542739,173.087116 137.980083,176.4675 139.249793,181.908" id="Fill-165" fill="#FFFFFE"></path>
        <path d="M229.310886,134.197754 C229.284647,134.083165 223.527386,135.331192 216.453112,136.985263 C209.376349,138.638089 203.662656,140.070455 203.688707,140.185045 C203.716183,140.298388 209.472199,139.051607 216.548963,137.397536 C223.623237,135.74471 229.338174,134.311098 229.310886,134.197754" id="Fill-166" fill="#132529"></path>
        <path d="M276.742048,182.543223 C276.715768,182.429879 273.027386,183.194638 268.506224,184.250853 C263.982573,185.308312 260.337759,186.256165 260.364992,186.370754 C260.391286,186.484098 264.078423,185.720585 268.602075,184.663125 C273.123237,183.606911 276.76805,182.657812 276.742048,182.543223" id="Fill-167" fill="#132529"></path>
        <path d="M278.655295,152.553214 C278.629046,152.438625 273.40332,153.562098 266.986307,155.061723 C260.56556,156.562594 255.384647,157.870406 255.41069,157.984996 C255.436929,158.098339 260.661411,156.974866 267.082158,155.475241 C273.500415,153.975616 278.682573,152.666558 278.655295,152.553214" id="Fill-168" fill="#132529"></path>
        <path d="M277.099278,210.331125 C277.073029,210.217781 271.847303,211.341254 265.429046,212.840879 C259.009544,214.34175 253.828631,215.649562 253.854673,215.762906 C253.880913,215.877496 259.105394,214.754022 265.526141,213.253152 C271.944398,211.753527 277.126556,210.445714 277.099278,210.331125" id="Fill-169" fill="#132529"></path>
        <path d="M194.337759,111.461746 C193.552282,111.461746 192.83278,111.20392 192.316183,110.561223 C191.36888,109.382946 191.779668,107.670335 192.092116,106.189393 C193.112863,101.343013 192.484232,96.1628304 190.33195,91.702567 C189.358506,89.6847991 188.077593,87.7940759 187.456432,85.6417902 C186.83527,83.4895045 187.024481,80.9025268 188.661411,79.3730089 C190.578423,77.9020313 192.421992,77.3477679 194.118672,77.3477679 C196.549793,77.3477679 198.679668,78.484942 200.29668,79.6868839 C203.042739,81.7295625 204.773029,84.920625 205.607054,88.2399777 C207.585062,96.1179911 204.49668,105.03229 198.068465,109.994504 C197.024066,110.800366 195.595021,111.461746 194.337759,111.461746" id="Fill-170" fill="#E98D85"></path>
        <path d="M233.732365,145.732661 C232.710373,145.732661 231.704564,145.594406 230.762241,145.200817 C228.86639,144.408656 227.396266,142.226478 228.095851,140.292161 C228.161826,136.753594 234.665975,135.968906 238.13278,135.087067 C248.729876,132.394219 259.326971,129.701371 269.925311,127.008522 C271.29834,126.659772 272.712448,126.308531 274.115353,126.308531 C274.574689,126.308531 275.03278,126.345897 275.488382,126.43433 C277.33444,126.788062 279.119502,128.212955 279.243983,130.089978 C279.329876,131.372879 278.629046,132.609696 277.669295,133.464134 C276.709544,134.318571 275.513278,134.852906 274.326971,135.346138 C266.337759,138.669228 257.894191,140.74429 249.478008,142.75583 C245.290456,143.757241 241.094191,144.746196 236.841909,145.427504 C235.821162,145.59067 234.76805,145.732661 233.732365,145.732661" id="Fill-171" fill="#E98D85"></path>
        <path d="M140.408783,159.016299 C140.381328,158.902955 133.008299,160.528379 123.942324,162.647036 C114.872614,164.765692 107.543154,166.575455 107.570463,166.690045 C107.59668,166.803388 114.968465,165.177964 124.038174,163.059308 C133.104149,160.940652 140.434855,159.129643 140.408783,159.016299" id="Fill-172" fill="#FFFFFE"></path>
        <path d="M282.341079,171.127888 C282.36971,171.135362 282.441909,170.914902 282.548963,170.505121 C282.665975,170.099076 282.764315,169.4925 282.821577,168.737705 C282.886307,167.982911 282.856432,167.076161 282.725726,166.080978 C282.573859,165.088286 282.308714,164.010897 281.884232,162.931018 C281.446058,161.856121 280.893361,160.893321 280.318257,160.071268 C279.725726,159.26167 279.120747,158.585344 278.553112,158.083393 C277.990456,157.577705 277.5,157.206536 277.13527,156.993549 C276.776763,156.771844 276.571369,156.662237 276.556432,156.687147 C276.510373,156.753161 277.297095,157.253866 278.345228,158.300116 C278.874274,158.817013 279.439419,159.49583 279.99834,160.294219 C280.539834,161.106308 281.065145,162.045442 281.492116,163.087955 C281.902905,164.136696 282.171784,165.17921 282.339834,166.139518 C282.486722,167.103562 282.547718,167.985402 282.521577,168.72525 C282.485477,170.206192 282.262656,171.110451 282.341079,171.127888" id="Fill-173" fill="#FFFFFE"></path>
        <path d="M283.806224,142.216513 C283.834855,142.243915 284.317842,141.769366 284.797095,140.801585 C285.280083,139.841277 285.677178,138.354107 285.572614,136.700036 C285.460581,135.044719 284.873029,133.622317 284.270539,132.73425 C283.669295,131.836219 283.129046,131.428929 283.102905,131.460067 C283.048133,131.512379 283.50249,131.988174 284.015353,132.889942 C284.53195,133.786728 285.042324,135.150589 285.149378,136.727438 C285.248963,138.305531 284.919087,139.724196 284.523237,140.679522 C284.132365,141.63983 283.743983,142.171674 283.806224,142.216513" id="Fill-174" fill="#FFFFFE"></path>
        <path d="M279.826556,202.268772 C279.847718,202.303647 280.516183,201.888884 281.241909,200.871281 C281.962656,199.876098 282.672199,198.195871 282.557676,196.266536 C282.436929,194.337201 281.528216,192.755371 280.691701,191.854848 C279.848963,190.933152 279.13444,190.603085 279.117012,190.640451 C279.072199,190.701482 279.714523,191.116246 280.4639,192.049152 C281.210788,192.964621 282.022407,194.480437 282.135685,196.292692 C282.242739,198.103701 281.622822,199.706705 280.991701,200.706871 C280.360581,201.723228 279.774274,202.213969 279.826556,202.268772" id="Fill-175" fill="#FFFFFE"></path>
        <path d="M275.048963,230.167527 C275.082573,230.192438 275.541909,229.67554 276.00249,228.669147 C276.466805,227.668982 276.861411,226.149429 276.790456,224.450518 C276.713278,222.751607 276.189212,221.271911 275.640249,220.315339 C275.093776,219.35254 274.592116,218.877991 274.560996,218.906638 C274.501245,218.951478 274.913278,219.487058 275.375104,220.453594 C275.839419,221.413902 276.292531,222.84004 276.368465,224.469201 C276.43444,226.097116 276.105809,227.556884 275.726141,228.554558 C275.350207,229.557214 274.986722,230.126424 275.048963,230.167527" id="Fill-176" fill="#FFFFFE"></path>
        <path d="M215.904149,115.532222 C215.93278,115.538384 216.042324,115.104937 216.217842,114.314022 C216.311203,113.919187 216.410788,113.433429 216.490456,112.864219 C216.573859,112.293763 216.694606,111.648576 216.748133,110.92492 C216.913693,109.483835 216.982158,107.753786 216.9361,105.835661 C216.861411,103.917536 216.656017,101.81258 216.245228,99.6341384 C215.814523,97.459433 215.219502,95.4292098 214.572199,93.6219375 C213.9,91.8246295 213.190456,90.2452902 212.50083,88.9698616 C212.179668,88.319692 211.827386,87.7654286 211.537344,87.2684598 C211.251037,86.7677545 210.977178,86.3554821 210.744398,86.0241696 C210.286307,85.355317 210.022407,84.9953571 209.99751,85.0115491 C209.973859,85.0277411 210.191701,85.4200848 210.604979,86.1113571 C210.815353,86.455125 211.06805,86.8786071 211.33195,87.3867857 C211.60083,87.8912277 211.933195,88.4517187 212.23444,89.1068705 C212.885477,90.3897723 213.558921,91.9666205 214.204979,93.7539643 C214.826141,95.5512723 215.40249,97.5628125 215.829461,99.7150982 C216.236515,101.869875 216.451867,103.951165 216.546473,105.849362 C216.613693,107.748804 216.576349,109.463906 216.450622,110.897518 C216.415768,111.617437 216.316183,112.261379 216.255187,112.830589 C216.200415,113.399799 216.123237,113.886804 216.056017,114.284129 C215.931535,115.081272 215.875519,115.525929 215.904149,115.532222" id="Fill-177" fill="#FFFFFE"></path>
        <path d="M95.7858921,241.722362 C95.7858921,241.722362 99.9224066,238.517598 102.992116,238.384326 C106.061826,238.251054 110.065145,239.452996 110.86556,239.051933 C111.66722,238.650871 113.535685,236.894665 114.736929,238.374362 C115.936929,239.852813 117.405809,245.194915 111,246.663402 L106.595851,246.663402 C106.595851,246.663402 107.129876,251.070107 108.19668,252.806384 C109.26473,254.541415 124.211203,273.370179 124.211203,273.370179 C124.211203,273.370179 126.079668,275.239728 125.146058,277.109277 C124.211203,278.978826 120.207884,277.910156 120.207884,277.910156 C120.207884,277.910156 117.405809,280.447312 114.202905,279.245371 C111,278.043429 109.66556,277.109277 109.66556,277.109277 C109.66556,277.109277 106.195021,279.912978 102.458091,277.109277 C98.7211618,274.30433 86.2605809,258.68033 86.2605809,258.68033 L90.7145228,241.188027 L95.7858921,241.722362" id="Fill-178" fill="#AE6C5C"></path>
        <path d="M82.8136929,231.388152 L95.7858921,241.722362 L86.2605809,258.68033 L67.2659751,251.780062 C67.2659751,251.780062 67.8124481,231.751848 82.8136929,231.388152" id="Fill-179" fill="#AE6C5C"></path>
        <path d="M285.130705,208.299656 C285.130705,208.299656 284.719917,203.652562 282.124481,204.609134 C279.529046,205.565705 278.4361,211.033607 278.4361,211.033607 L285.130705,208.299656" id="Fill-180" fill="#AE6C5C"></path>
        <path d="M275.840664,212.883228 C275.840664,212.883228 280.348133,207.826353 286.633195,208.236134 C292.917012,208.645915 288.956017,213.976808 288.956017,213.976808 C288.956017,213.976808 293.605394,216.847768 290.187137,220.948071 L289.638174,222.041652 C289.638174,222.041652 293.600415,223.546259 289.50249,227.783571 C289.50249,227.783571 291.004979,230.517522 288.956017,232.567674 C286.905809,234.617826 281.783402,231.883875 281.783402,231.883875 C281.783402,231.883875 277.070539,232.977455 276.659751,231.064313 C276.250207,229.149924 277.343154,227.783571 277.752697,227.509554 C278.162241,227.236781 280.621992,226.28021 280.621992,226.28021 C280.621992,226.28021 275.157261,226.962763 275.020332,225.596411 C274.884647,224.228813 274.338174,222.725451 278.4361,221.359098 L280.621992,220.773696 C280.621992,220.773696 274.955602,220.948071 274.919502,219.581719 C274.884647,218.214121 274.610788,217.66733 276.659751,216.710759 C278.708714,215.754187 280.348133,214.660607 280.348133,214.660607 C280.348133,214.660607 275.020332,215.754187 275.840664,212.883228" id="Fill-181" fill="#AE6C5C"></path>
        <path d="M274.8361,218.220348 C274.941909,218.374795 277.49751,215.882478 281.595436,214.757759 C285.677178,213.569518 289.157676,214.354205 289.16639,214.166129 C289.181328,214.106344 288.346058,213.823607 286.93444,213.687844 C285.527801,213.548344 283.5361,213.628058 281.442324,214.215951 C279.351037,214.811317 277.613278,215.786571 276.486722,216.642254 C275.355187,217.497938 274.792531,218.176754 274.8361,218.220348" id="Fill-182" fill="#643B32"></path>
        <path d="M275.465975,226.038576 C275.49834,225.999964 275.334025,225.865446 275.20332,225.550326 C275.071369,225.238942 275.025311,224.722045 275.215768,224.12917 C275.404979,223.542522 275.772199,222.863705 276.451867,222.414067 C277.122822,221.930799 277.995436,221.599487 278.950207,221.371554 C282.827801,220.474768 286.111641,220.684018 286.111641,220.508397 C286.116598,220.437402 285.306224,220.294165 283.978008,220.271746 C282.649793,220.249326 280.809959,220.365161 278.818257,220.823518 C277.823651,221.061415 276.875104,221.432585 276.144398,221.995567 C275.376349,222.546094 274.985477,223.36192 274.83112,224.027036 C274.66805,224.708344 274.786307,225.318656 275.009129,225.651214 C275.230705,225.988754 275.456017,226.060996 275.465975,226.038576" id="Fill-183" fill="#643B32"></path>
        <path d="M277.76639,232.04704 C277.781328,232.003446 277.56971,231.924978 277.290871,231.66217 C277.019502,231.405589 276.678423,230.937268 276.612448,230.272152 C276.545228,229.615754 276.714523,228.772527 277.412863,228.241929 C278.085062,227.705103 279.108299,227.335179 280.094191,226.997638 C282.136929,226.428429 284.141079,226.6875 285.56639,226.70992 C287.006639,226.76846 287.902905,226.663835 287.897946,226.586612 C287.894191,226.508143 287.015353,226.472022 285.593776,226.312594 C284.185892,226.195513 282.150622,225.848009 279.9361,226.457076 C278.866805,226.828246 277.885892,227.180732 277.078008,227.845848 C276.684647,228.17467 276.40083,228.624308 276.276349,229.072701 C276.159336,229.523585 276.154357,229.945821 276.219087,230.329446 C276.352282,231.10417 276.809129,231.604875 277.155187,231.834054 C277.512448,232.070705 277.760166,232.076933 277.76639,232.04704" id="Fill-184" fill="#643B32"></path>
        <path d="M275.758506,213.102442 C275.799585,213.106179 275.878008,212.930558 276.159336,212.673978 C276.429461,212.414906 276.852697,212.063665 277.402905,211.663848 C278.504564,210.889125 280.09917,209.810491 282.032365,209.172777 C284.020332,208.542536 285.871369,208.190049 287.193361,208.42421 C288.515353,208.627232 289.246058,209.117973 289.294606,209.024558 C289.329461,208.990929 288.66473,208.359442 287.26556,208.031866 C285.862656,207.676888 283.868465,207.998237 281.869295,208.634705 C277.785062,210.100701 275.418672,212.918103 275.758506,213.102442" id="Fill-185" fill="#643B32"></path>
    </g>
</svg>