<?xml version="1.0" encoding="UTF-8"?>
<svg  width="300px" height="200px" viewBox="0 0 500 500" version="1.1" xmlns="http://www.w3.org/2000/svg" xmlns:xlink="http://www.w3.org/1999/xlink">
    <title>Sorry</title>
    <defs>
        <polygon id="path-1" points="0 -3.187374e-15 130 -3.187374e-15 130 191 0 191"></polygon>
        <polygon id="path-3" points="0 0 19 0 19 214 0 214"></polygon>
        <polygon id="path-5" points="0 0 19 0 19 214 0 214"></polygon>
    </defs>
    <g id="Sorry" stroke="none" stroke-width="1" fill="none" fill-rule="evenodd">
        <g id="6099983-copy-2">
            <path d="M61,400 C55.6749149,395.830374 50.3179812,391.632626 45.8069462,386.588683 C41.2959111,381.543461 37.6307748,375.554896 36.2829423,368.914427 C35.8740063,366.898639 35.7466119,364.597802 37.0358431,363 C49.1459528,372.488392 58.6584912,384.762074 61,400" id="Fill-2" fill="#D4D5CF" fill-rule="nonzero"></path>
            <path d="M60.7771088,400.581641 C59.858658,393.92508 59.5289906,387.081624 61.060597,380.538993 C62.5922034,373.995082 66.1595381,367.731514 71.7587525,364 C73.8663149,368.914335 72.9606915,374.577532 71.4752643,379.713324 C69.1817028,387.651272 65.5835821,395.211589 60.8681842,402" id="Fill-3" fill="#D4D5CF" fill-rule="nonzero"></path>
            <path d="M75.2957069,425 C69.3979736,410.705254 71.5347209,393.479722 80.7521132,381 C84.9233649,395.601708 83.3923097,412.093588 75.2957069,425" id="Fill-5" fill="#D4D5CF" fill-rule="nonzero"></path>
            <path d="M132.215616,405.238504 C134.251687,397.94073 136.299791,390.577506 136.858146,382.999049 C137.417705,375.418074 136.385229,367.50607 132.624756,361 C125.59959,375.219204 124.888409,391.831143 132.00503,406" id="Fill-11" fill="#D4D5CF" fill-rule="nonzero"></path>
            <path d="M158,392.992504 C166.619702,377.296663 184.205057,364.758461 202,363 C195.135299,380.125381 176.414875,393.360643 158,392.992504" id="Fill-12" fill="#D4D5CF" fill-rule="nonzero"></path>
            <path d="M136,350.389464 C146.55952,360.133205 161.433915,365.13685 175.813433,363.781276 C176.467743,363.719487 177.180724,363.616085 177.625858,363.138167 C178.628369,362.060012 177.425611,360.395493 176.258567,359.496401 C164.552411,350.47395 150.374416,346.732565 136,350.389464" id="Fill-15" fill="#D4D5CF" fill-rule="nonzero"></path>
            <path d="M146,346.529552 C159.767451,336.338127 178.646119,333.261448 195,338.545338 C188.828297,344.550888 180.267669,347.781588 171.650432,348.668447 C163.033195,349.552821 154.403378,348.610068 146,346.529552" id="Fill-16" fill="#D4D5CF" fill-rule="nonzero"></path>
            <path d="M142,322 C140.80002,310.361865 141.578278,301.17587 140.733502,289.483103 C140.665654,288.547986 140.455458,287.42483 139.540174,287.088138 C138.265694,286.619309 137.204071,288.114733 136.786339,289.35605 C133.157131,300.1353 135.14069,312.497642 141.982705,321.744621" id="Fill-17" fill="#D4D5CF" fill-rule="nonzero"></path>
            <path d="M142,323 C149.711917,318.199534 155.496163,311.931427 160.845691,304.563212 C164.568129,299.437716 167.706801,293.29462 166.860962,287.00276 C161.634396,286.89775 156.666178,289.800532 153.266676,293.798419 C149.867173,297.796306 147.845108,302.793041 146.336012,307.831029 C144.826916,312.871518 143.769928,318.04827 142,323" id="Fill-18" fill="#D4D5CF" fill-rule="nonzero"></path>
            <path d="M160.244153,318 C177.304784,311.632045 193.221029,302.155952 207,290.168322 C201.414541,287.896941 195.020246,289.255725 189.436039,291.530897 C176.678752,296.729666 166.256568,305.505512 160,317.873602" id="Fill-19" fill="#D4D5CF" fill-rule="nonzero"></path>
            <path d="M147,329.991498 C155.637501,330.968213 164.410316,331.602949 172.980162,330.12233 C181.402163,328.666325 189.361845,325.215437 197.232572,321.790454 C197.885333,321.506767 198.595728,321.166082 198.88139,320.497666 C199.190856,319.769663 198.86009,318.88492 198.29002,318.352519 C197.71995,317.817528 196.961945,317.563634 196.22148,317.3486 C187.665417,314.874427 178.431534,316.033791 170.012038,318.967825 C161.592541,321.904449 154.690307,325.390312 147,329.991498" id="Fill-20" fill="#D4D5CF" fill-rule="nonzero"></path>
            <path d="M96.5994163,351.401616 C90.3381833,339.392176 90.7442382,325.377579 96.1534216,313 C99.9610182,318.51197 100.425651,325.533184 99.7293672,332.092643 C99.0330828,338.654632 96.9322481,345.406385 96.7951214,352" id="Fill-21" fill="#D4D5CF" fill-rule="nonzero"></path>
            <path d="M73.3373137,339.009043 C58.6556844,338.729452 43.9690538,344.947574 34,355.662779 C41.3270607,356.807242 48.8754337,354.928383 55.5410585,351.693816 C62.2054328,348.459249 68.1295989,343.921162 74,339.415383" id="Fill-22" fill="#D4D5CF" fill-rule="nonzero"></path>
            <path d="M57,333.687655 C49.8177795,333.108442 42.9080958,332.224711 36.0034126,334.329014 C29.0987296,336.432073 22.8141303,341.207461 20,347.81992 C26.7171577,348.571901 33.5280782,346.897657 39.6839101,344.123407 C45.8409921,341.3504 51.4392486,337.508462 57,333.687655" id="Fill-23" fill="#D4D5CF" fill-rule="nonzero"></path>
            <path d="M81.1906885,333.844025 C74.7174489,329.680055 68.0688169,325.43984 60.5306937,323.715716 C52.9925705,321.990362 44.2567666,323.265624 39,328.842589 C45.1024095,332.357244 52.5064825,332.771674 59.5810681,332.766754 C66.6569065,332.760605 75.3300702,332.683131 82,335" id="Fill-24" fill="#D4D5CF" fill-rule="nonzero"></path>
            <path d="M80.5753388,335 C69.4945974,323.952105 65.2955795,304.105371 69.7529599,289 C78.4620338,302.437044 82.3625551,319.015892 80.5753388,335" id="Fill-25" fill="#D4D5CF" fill-rule="nonzero"></path>
            <path d="M112,302.921871 C114.096965,298.041305 115.570883,292.91753 117.452613,287.948755 C119.334343,282.979979 121.672976,278.091851 125.228754,274.146318 C128.783274,270.200785 133.699688,267.263372 139,267 C135.682113,282.042426 125.702019,295.483199 112.270617,303" id="Fill-26" fill="#D4D5CF" fill-rule="nonzero"></path>
            <path d="M106,310 C102.501422,305.125205 98.4584518,298.506017 93.7137356,294.868225 C88.9690194,291.229149 82.7903557,289.027464 77,290.423748 C82.8893362,301.081501 94.0170218,308.593438 106,310" id="Fill-27" fill="#D4D5CF" fill-rule="nonzero"></path>
            <path d="M106.834869,303.868953 C104.580152,298.081485 102.309214,292.234792 101.397095,286.084425 C100.484977,279.934057 101.040234,273.364088 104.154663,268 C110.205091,279.550997 112.154105,291.950018 107.144316,304" id="Fill-28" fill="#D4D5CF" fill-rule="nonzero"></path>
            <path d="M112,268 C115.458484,256.306279 125.934657,247.696831 137.245549,243.746597 C138.672,243.247348 140.182805,242.833024 141.670948,243.067208 C143.16035,243.302678 144.622054,244.343635 144.934286,245.850385 C145.347239,247.839657 143.738233,249.623052 142.226169,250.943227 C133.419436,258.640392 123.066645,264.482105 112,268" id="Fill-29" fill="#D4D5CF" fill-rule="nonzero"></path>
            <path d="M111.185593,258.560982 C111.638543,251.163131 112.113557,243.659237 114.587264,236.650214 C117.059673,229.641193 121.826684,223.066448 128.762407,220 C129.942155,227.471073 126.553462,234.903008 122.466525,241.332575 C118.379588,247.760878 113.454239,253.829387 111,261" id="Fill-30" fill="#D4D5CF" fill-rule="nonzero"></path>
            <path d="M112,263 C109.068177,254.684349 108.764796,244.122481 103.644757,236.877832 C100.066152,231.812857 94.334187,228.363802 91.2513194,223 C89.2025292,228.009731 89.8299469,233.781593 91.9716879,238.753657 C94.1147199,243.726976 97.6545956,248.005965 101.443631,251.94218 C105.232666,255.877142 108.476907,258.836524 112,263" id="Fill-31" fill="#D4D5CF" fill-rule="nonzero"></path>
            <path d="M111.519747,510 C111.364404,510 111.230125,454.254785 111.219593,385.506307 C111.209061,316.733857 111.325788,261 111.481131,261 C111.635596,261 111.769875,316.732596 111.780407,385.506307 C111.790939,454.254785 111.674212,510 111.519747,510" id="Fill-32" fill="#D4D5CF" fill-rule="nonzero"></path>
            <path d="M161,342.009815 C161.015951,342.063802 160.264477,342.346593 158.894586,342.810627 C157.382765,343.328649 155.436278,343.994492 153.100749,344.794019 C148.216792,346.481766 141.506739,348.925336 134.222624,351.952482 C127.012009,355.091461 120.210713,357.637864 116.338017,361.042922 C114.402937,362.721671 113.292831,364.539246 112.744115,365.865792 C112.189062,367.198764 112.090217,368.015001 112.01545,368 C111.988838,367.99572 111.996441,367.792625 112.039528,367.404431 C112.104157,367.021377 112.200468,366.450654 112.451382,365.750105 C112.922796,364.349004 114.002488,362.404174 115.957844,360.608453 C117.905597,358.807589 120.614964,357.19054 123.718443,355.718743 C126.823189,354.249516 130.263755,352.716018 133.915951,351.194089 C141.221609,348.15666 147.98362,345.791499 152.924602,344.241291 C155.393192,343.461047 157.406842,342.885181 158.803344,342.504699 C160.203649,342.1345 160.98427,341.954542 161,342.009815" id="Fill-33" fill="#D4D5CF" fill-rule="nonzero"></path>
            <path d="M175.998932,303.001576 C176.016618,303.023041 175.814482,303.237683 175.41021,303.62909 C174.935191,304.074788 174.342679,304.630331 173.620043,305.30961 C171.95621,306.820942 169.692287,308.875193 166.93313,311.381454 C161.15962,316.517711 153.329374,323.486002 144.677951,331.184075 C135.989892,338.913712 128.483065,346.297398 123.280588,351.856627 C120.674297,354.634348 118.623879,356.934804 117.224087,358.53957 C116.569671,359.285766 116.035274,359.896864 115.605735,360.38549 C115.231784,360.803411 115.024594,361.015529 115.001854,360.999115 C114.980377,360.981439 115.145876,360.736494 115.4794,360.28322 C115.817978,359.834998 116.309421,359.168344 116.982787,358.338815 C118.311831,356.668396 120.301608,354.304809 122.861156,351.471534 C127.970144,345.798672 135.436544,338.327866 144.141028,330.58434 C152.858144,322.872377 160.790722,315.947016 166.555389,310.953433 C169.385294,308.527978 171.706068,306.53812 173.41159,305.074767 C174.175917,304.442204 174.801276,303.923275 175.302825,303.50788 C175.741209,303.155614 175.979981,302.981375 175.998932,303.001576" id="Fill-34" fill="#D4D5CF" fill-rule="nonzero"></path>
            <path d="M136.018231,338.998687 C135.804162,338.898081 137.511957,334.77943 139.213806,329.569017 C140.932305,324.359843 141.741011,319.962973 141.958647,320.000235 C142.156067,320.021349 141.673222,324.546151 139.933316,329.822395 C139.078229,332.45679 138.132758,334.774463 137.389462,336.417699 C136.644978,338.062179 136.109805,339.040916 136.018231,338.998687" id="Fill-35" fill="#D4D5CF" fill-rule="nonzero"></path>
            <path d="M111.996458,372.998509 C111.951477,373.032821 111.482931,372.473661 110.672034,371.43667 C109.773675,370.263702 108.637919,368.780654 107.28101,367.011672 C104.431,363.266562 100.492714,358.096863 96.0783855,352.437897 C91.6615578,346.778931 87.6045734,341.703273 84.6646029,338.031871 C83.2777064,336.287034 82.1157122,334.823047 81.1986114,333.667871 C80.3889637,332.62961 79.9604002,332.038679 80.0028817,332.001826 C80.0441137,331.964971 80.5513931,332.487279 81.4347585,333.46327 C82.3181241,334.437989 83.5700792,335.870205 85.0956654,337.663332 C88.1493364,341.243235 92.2800386,346.26679 96.7031137,351.933382 C101.12369,357.598701 104.997004,362.830671 107.732064,366.66855 C109.100218,368.586219 110.189744,370.15187 110.923175,371.248588 C111.656606,372.345307 112.041438,372.965468 111.996458,372.998509" id="Fill-36" fill="#D4D5CF" fill-rule="nonzero"></path>
            <path d="M100.98573,359.995696 C100.842689,360.138217 97.7652754,356.729153 96.1536859,351.546204 C94.9644064,347.895361 94.9112771,344.555012 95.0584045,343.029269 L95.4425703,343.058536 C95.2695595,343.708791 95.1442288,344.05237 95.0761143,344.04219 C95.0079997,344.030736 95.0039129,343.669343 95.0611291,343 L95.4452949,343.029269 C95.5856108,344.544832 95.8308231,347.769383 96.9874075,351.315878 C98.5445054,356.335946 101.218681,359.858264 100.98573,359.995696" id="Fill-37" fill="#D4D5CF" fill-rule="nonzero"></path>
            <path d="M86.9955985,341.993349 C86.8914584,342.091511 85.9792911,341.081223 83.8877055,340.407329 C81.812431,339.70145 78.6894815,339.545937 75.2616398,339.804024 C71.8325435,340.025713 68.768565,340.562843 66.5753485,341.036003 C64.3833869,341.513573 63.0433667,341.888571 63.000707,341.789306 C62.9655753,341.706587 64.2416056,341.163942 66.4235298,340.556225 C68.6029445,339.952919 71.7083282,339.327556 75.2014142,339.101454 C78.6668969,338.838956 81.9542121,339.07388 84.0997498,339.946302 C86.2741457,340.792254 87.0671164,341.975703 86.9955985,341.993349" id="Fill-38" fill="#D4D5CF" fill-rule="nonzero"></path>
            <path d="M83.9990169,337.987935 C83.9370197,338.110784 82.173262,337.277864 79.1986606,336.291381 C76.2291204,335.299985 71.9993916,334.259449 67.2230752,333.898271 C62.4442283,333.551835 58.0993619,333.958468 55.0096228,334.500234 C51.9160881,335.039543 50.0422537,335.602194 50.0005006,335.471974 C49.9827871,335.420378 50.4357463,335.236103 51.2733414,334.94495 C52.1071408,334.64274 53.3458199,334.297532 54.8982809,333.957239 C57.998142,333.265595 62.4189233,332.763141 67.2850724,333.115719 C72.1474258,333.483039 76.4378866,334.631684 79.3947743,335.76927 C80.8738508,336.335608 82.0454718,336.858947 82.8236001,337.28032 C83.6055243,337.691867 84.0230566,337.940024 83.9990169,337.987935" id="Fill-39" fill="#D4D5CF" fill-rule="nonzero"></path>
            <path d="M111.976398,319.999604 C111.769299,320.052858 110.267536,314.723696 108.625284,308.097848 C106.981821,301.469525 105.816743,296.053668 106.023841,296.000414 C106.23094,295.945921 107.730281,301.275083 109.374955,307.903407 C111.018418,314.529255 112.182284,319.945111 111.976398,319.999604" id="Fill-40" fill="#D4D5CF" fill-rule="nonzero"></path>
            <path d="M111.967397,319.998771 C111.717606,320.076101 110.671111,316.490233 107.936551,312.822046 C105.275615,309.077777 101.87845,307.198158 102.003346,307.012317 C102.046731,306.929999 102.985421,307.255533 104.29354,308.132355 C105.604288,308.999199 107.225303,310.467223 108.622821,312.364302 C111.462556,316.180913 112.171175,319.983804 111.967397,319.998771" id="Fill-41" fill="#D4D5CF" fill-rule="nonzero"></path>
            <polygon id="Fill-56" fill="#D4D5CF" fill-rule="nonzero" points="7 129 108 129 108 23 7 23"></polygon>
            <polygon id="Fill-57" fill="#FAF9F6" fill-rule="nonzero" points="0 129 101 129 101 23 0 23"></polygon>
            <path d="M0.0628829008,128.936688 L100.937117,128.936688 L100.937117,23.0633122 L0.0628829008,23.0633122 L0.0628829008,128.936688 Z M0,129 L101,129 L101,23 L0,23 L0,129 Z" id="Fill-58" fill="#D4D5CF" fill-rule="nonzero"></path>
            <polygon id="Fill-59" fill="#FFFFFE" fill-rule="nonzero" points="14 114 88 114 88 37 14 37"></polygon>
            <path d="M88.0047155,115.003455 C88.0724615,114.943346 88.8595472,115.671195 90.0789758,116.895601 C91.2959408,118.121314 92.9452487,119.840971 94.7362072,121.769705 C96.5271658,123.699745 98.1235086,125.472978 99.2554831,126.779708 C100.388689,128.086439 101.058759,128.92928 100.99594,128.995923 C100.933121,129.061259 100.148499,128.337331 98.9303022,127.112924 C97.7121054,125.888518 96.0603342,124.162328 94.2632168,122.228367 C92.468563,120.294406 90.8685249,118.517253 89.7353187,117.209216 C88.6033442,115.902486 87.9369695,115.063565 88.0047155,115.003455" id="Fill-61" fill="#D4D5CF" fill-rule="nonzero"></path>
            <path d="M87.0034554,36.9952846 C86.9433459,36.9275386 87.6711943,36.1392211 88.8955999,34.9222562 C90.1200055,33.7028277 91.8409684,32.0547516 93.7710081,30.2637929 C95.6997411,28.4728343 97.4729731,26.8764915 98.7797028,25.7432853 C100.087739,24.6113108 100.929273,23.9412409 100.995916,24.00406 C101.061253,24.066879 100.338631,24.8502694 99.1142255,26.0684663 C97.8885132,27.286663 96.1636301,28.939666 94.2283635,30.7355516 C92.2944037,32.5326689 90.5172514,34.1302435 89.209215,35.2634498 C87.9024854,36.396656 87.063565,37.0630306 87.0034554,36.9952846" id="Fill-62" fill="#D4D5CF" fill-rule="nonzero"></path>
            <path d="M87.71147,114.716603 C87.7063858,114.712807 87.7013016,114.585026 87.6962174,114.340849 C87.6911331,114.077694 87.6860489,113.722182 87.6796936,113.261662 C87.6707962,112.290015 87.6606278,110.895802 87.645375,109.084085 C87.6275802,105.417634 87.6021591,100.083696 87.5703828,93.3112632 C87.534793,79.7575423 87.4852218,60.4485823 87.4242111,37.328943 L87.71147,37.6148705 C65.9992713,37.6275222 40.4993221,37.6414389 13.3381012,37.6578861 L13.3304749,37.6578861 L13.6609497,37.328943 C13.6431549,65.7331797 13.6279022,92.3067216 13.6139206,114.716603 L13.3304749,114.435736 C35.6184625,114.495199 54.1758974,114.54454 67.1864387,114.5787 C73.6878962,114.610329 78.8013591,114.635632 82.3145612,114.653344 C84.0508254,114.667261 85.3867064,114.678648 86.3171203,114.686239 C86.7569061,114.692565 87.0975494,114.697625 87.3517608,114.701421 C87.5856354,114.706482 87.7063858,114.712807 87.71147,114.716603 C87.7178253,114.722929 87.6059723,114.727989 87.3835372,114.73305 C87.1369522,114.738111 86.8064773,114.741906 86.379402,114.749497 C85.4616988,114.757088 84.1436125,114.767209 82.4314985,114.782391 C78.932278,114.798839 73.840423,114.824142 67.3681998,114.855771 C54.3131716,114.889931 35.6934549,114.940537 13.3304749,115 L13.0470291,115 L13.0470291,114.716603 C13.0330475,92.3067216 13.0165237,65.7331797 13,37.328943 L13,37 L13.3381012,37 C40.4993221,37.0151819 65.9992713,37.0303639 87.71147,37.0417504 L88,37.0417504 L88,37.328943 C87.9389892,60.5244923 87.889418,79.8967105 87.8538285,93.4947121 C87.820781,100.239311 87.7953598,105.551742 87.7775651,109.201745 C87.7635834,110.99069 87.7521439,112.36719 87.7445175,113.32492 C87.7368912,113.771524 87.731807,114.116914 87.7279938,114.373743 C87.7229096,114.606533 87.7178253,114.722929 87.71147,114.716603" id="Fill-64" fill="#D4D5CF" fill-rule="nonzero"></path>
            <polygon id="Fill-65" fill="#E4E4DE" fill-rule="nonzero" points="38 88 63 88 63 63 38 63"></polygon>
            <polygon id="Fill-66" fill="#D4D5CF" fill-rule="nonzero" points="353 214 500 214 500 0 353 0"></polygon>
            <polygon id="Fill-67" fill="#F1F0EC" fill-rule="nonzero" points="345 214 492 214 492 0 345 0"></polygon>
            <polygon id="Fill-68" fill="#FFFFFE" fill-rule="nonzero" points="363 191 474 191 474 24 363 24"></polygon>
            <g id="Fill-69-Clipped" transform="translate(363.000000, 0.000000)">
                <mask id="mask-2" fill="white">
                    <use xlink:href="#path-1"></use>
                </mask>
                <g id="path-1"></g>
                <path d="M111.253241,190.67867 C111.253241,190.67867 111.239327,190.395294 111.233003,189.860166 C111.227943,189.306062 111.220354,188.51792 111.210235,187.484352 C111.200116,185.379264 111.186202,182.297537 111.165964,178.2961 C111.143197,170.267924 111.109045,158.567231 111.067304,143.788606 C111.023034,114.249068 110.95979,72.4205749 110.885162,23.1622874 L111.253241,23.5304247 C77.3862445,23.5405454 39.8587034,23.551931 0.416143483,23.5633167 L0.402229871,23.5633167 L0.803194868,23.1622874 C0.772837896,86.3566588 0.743745799,144.622292 0.722242945,190.67867 L0.402229871,190.358606 C34.1604469,190.42945 61.8320913,190.486379 81.0885301,190.526862 C90.7192793,190.562283 98.2414839,190.590115 103.379401,190.609092 C105.931917,190.624271 107.888676,190.636923 109.230708,190.644513 C110.556295,190.655899 111.253241,190.67867 111.253241,190.67867 C111.253241,190.67867 110.601831,190.701442 109.299011,190.712827 C107.970893,190.721683 106.034371,190.733069 103.505889,190.749515 C98.3856794,190.768491 90.8875075,190.796322 81.2871152,190.830479 C61.9826112,190.870962 34.2439286,190.929155 0.402229871,191 L0.0822167975,191 L0.0822167975,190.67867 C0.0594490689,144.622292 0.0316218452,86.3566588 0,23.1622874 L0,22.7612582 L0.416143483,22.7612582 C39.8587034,22.7739089 77.3862445,22.7840296 111.253241,22.7941502 L111.622584,22.7941502 L111.621319,23.1622874 C111.547956,72.519251 111.485977,114.432504 111.441707,144.030236 C111.398701,158.774703 111.36455,170.445036 111.341782,178.454234 C111.322809,182.42278 111.30763,185.48047 111.297511,187.569112 C111.288657,188.583704 111.281068,189.359195 111.276008,189.903178 C111.268419,190.42439 111.253241,190.67867 111.253241,190.67867" id="Fill-69" fill="#D4D5CF" fill-rule="nonzero" mask="url(#mask-2)"></path>
            </g>
            <path d="M345,214 C351.333749,205.99915 357.667496,198.000848 364,190" id="Fill-75" fill="#FFFFFE" fill-rule="nonzero"></path>
            <g id="Group-79" transform="translate(345.000000, 0.000000)">
                <g id="Fill-76-Clipped">
                    <mask id="mask-4" fill="white">
                        <use xlink:href="#path-3"></use>
                    </mask>
                    <g id="path-3"></g>
                    <path d="M18.9949695,190.118961 C19.1640453,190.2596 15.0502837,195.717924 9.80769298,202.311498 C4.56261588,208.906341 0.17534945,214.137869 0.00503052063,213.99723 C-0.164045205,213.857857 3.94971638,208.4008 9.19479348,201.804691 C14.4373842,195.212383 18.827137,189.979588 18.9949695,190.118961" id="Fill-76" fill="#D4D5CF" fill-rule="nonzero" mask="url(#mask-4)"></path>
                </g>
                <g id="Fill-78-Clipped">
                    <mask id="mask-6" fill="white">
                        <use xlink:href="#path-5"></use>
                    </mask>
                    <g id="path-3"></g>
                    <path d="M0.0274081902,0.002534041 C0.196483915,-0.134304174 4.32516394,4.89323318 9.24452164,11.2321368 C14.1651225,17.5735744 18.0128384,22.8241074 17.8437628,22.9609456 C17.6722007,23.0990509 13.546007,18.0715134 8.6254061,11.7300758 C3.70604842,5.39243927 -0.144153942,0.140639276 0.0274081902,0.002534041" id="Fill-78" fill="#D4D5CF" fill-rule="nonzero" mask="url(#mask-6)"></path>
                </g>
            </g>
            <polygon id="Fill-80" fill="#D4D5CF" fill-rule="nonzero" points="403 163 440 163 440 58 403 58"></polygon>
            <path d="M155,111.519265 L143.695157,91.5180072 C148.695789,83.3679834 151.586167,73.7747925 151.586167,63.5 C151.586167,33.9525148 127.726008,10 98.2924514,10 C68.8601592,10 45,33.9525148 45,63.5 C45,93.046216 68.8601592,117 98.2924514,117 C110.583512,117 121.893412,112.811388 130.908458,105.796097 L130.889493,105.820214 L155,111.519265" id="Fill-144" fill="#2CB77C" fill-rule="nonzero"></path>
            <path d="M155,111.321256 C153.857363,111.059697 146.244827,109.315975 130.913818,105.807051 L130.666625,105.75019 L130.821751,105.546756 L130.839408,105.524012 L131.068944,105.753981 C128.037047,108.106742 124.404823,110.426651 120.134438,112.358644 C115.859009,114.257785 110.960552,115.809444 105.552574,116.529678 C102.852369,116.875895 100.032352,117.098282 97.1328787,116.956763 C95.6850341,116.874631 94.2094433,116.839251 92.7237631,116.714158 C91.2456499,116.491771 89.7473577,116.264328 88.2301477,116.034359 C82.2092329,114.844079 76.0521096,112.554497 70.3111788,108.983657 C64.571509,105.426717 59.2581211,100.597366 54.9990868,94.6611296 C50.7463585,88.7375292 47.5202378,81.7120985 46.0118562,74.0788924 C44.5160863,66.4557948 44.640944,58.285573 46.6386669,50.3781729 C48.6515241,42.4985712 52.4098664,34.7996598 58.0372904,28.4666637 L60.2090573,26.0722048 C60.9228901,25.267313 61.7741925,24.6026769 62.5473011,23.8647539 C63.3569843,23.1660016 64.0884738,22.3750088 64.9586939,21.7583884 L67.5100786,19.8466121 C68.3374185,19.1769217 69.2479967,18.6373787 70.1535301,18.0953087 C71.0552801,17.5469207 71.9545076,16.9997963 72.8512127,16.4539355 C73.7945819,15.9939973 74.7366899,15.5365863 75.6762754,15.0791751 C76.6234282,14.641981 77.5340064,14.1239187 78.5265619,13.8092906 C86.2513427,10.7375601 94.4906885,9.56876094 102.364289,10.1398931 C110.240413,10.7084981 117.778538,12.9728095 124.243391,16.6194628 C130.729684,20.2357906 136.198199,25.0664058 140.420658,30.4605718 C144.653207,35.857265 147.63718,41.811191 149.484821,47.7385821 C151.319852,53.6937718 151.815499,59.5996822 151.795319,65.0671352 C151.637671,70.5472237 150.641331,75.596436 149.190964,80.0277642 C147.736814,84.4641467 145.828635,88.2813815 143.857397,91.4921044 L143.859919,91.3316314 C150.975547,104.099972 154.453905,110.340728 155,111.321256 C154.440032,110.349573 150.877174,104.156833 143.586242,91.4883137 L143.540839,91.4074455 L143.588764,91.3265772 C145.527211,88.1221722 147.401338,84.3188365 148.821436,79.9077255 C150.240274,75.5016685 151.205083,70.4890996 151.341292,65.0544995 C151.34003,59.632535 150.829248,53.7822215 148.99422,47.8889467 C147.147838,42.0247337 144.180262,36.1403039 139.977981,30.8093163 C135.789574,25.4795922 130.370246,20.7134187 123.952056,17.1476336 C117.554046,13.551523 110.102943,11.3251186 102.318887,10.7716764 C94.5348301,10.2144435 86.3976406,11.3769248 78.7699713,14.414539 C77.7875053,14.7253764 76.8895389,15.2383844 75.9537369,15.6705243 C75.0267632,16.1216176 74.096006,16.5739745 73.1639876,17.0288585 C72.2786331,17.5684014 71.3907563,18.1079443 70.500357,18.651278 C69.6061743,19.1870302 68.7056855,19.7189918 67.8909576,20.3811007 L65.3698414,22.2701328 C64.5097108,22.879172 63.789572,23.6625832 62.9887172,24.3512271 C62.225698,25.0815687 61.3832239,25.7373598 60.6794807,26.5321431 L58.5329376,28.89754 C52.9748789,35.1521947 49.2619394,42.7563388 47.2705225,50.5373823 C45.2917174,58.3462241 45.161815,66.4204151 46.632361,73.9550629 C48.1155189,81.4985558 51.2949756,88.4443817 55.4896892,94.3085945 C59.69197,100.182916 64.9385149,104.971833 70.6100804,108.502239 C76.2829072,112.046543 82.3694038,114.328544 88.3285204,115.525142 C89.8318574,115.757638 91.3150153,115.986344 92.776733,116.211259 C94.2498014,116.340142 95.7102579,116.378049 97.1454907,116.465236 C100.017217,116.6156 102.813273,116.403321 105.492037,116.072266 C110.854612,115.377305 115.719017,113.858498 119.971745,111.994737 C124.219428,110.09686 127.83904,107.814858 130.868415,105.493686 L131.858448,104.735546 L131.099213,105.723655 L131.080295,105.7464 L130.988228,105.488632 C146.272574,109.200991 153.862407,111.044535 155,111.321256" id="Fill-145" fill="#27A771" fill-rule="nonzero"></path>
            <path d="M65.3227765,65.9529736 C66.7416205,67.0222049 68.8588019,67.7681211 70.8799156,67.7681211 C73.189232,67.7681211 74.1265066,66.9725621 74.1265066,65.9033308 C74.1265066,62.6459939 64.3362366,64.8837423 64.3362366,58.4199844 C64.3362366,55.4617778 66.6455529,53 71.4329199,53 C73.5501012,53 75.7153163,53.5218868 77.2782616,54.5414752 L76.0749539,57.6002405 C74.5120085,56.6799378 72.8997977,56.2318789 71.4082873,56.2318789 C69.0989708,56.2318789 68.20973,57.1279966 68.20973,58.221413 C68.20973,61.427834 78,59.2155435 78,65.6054735 C78,68.5140372 75.6660509,71 70.8552828,71 C68.1850973,71 65.4915105,70.1789831 64,68.986281 L65.3227765,65.9529736 Z" id="Fill-146" fill="#FFFFFF" fill-rule="nonzero"></path>
            <path d="M89.9897774,64 C89.9897774,61.6489834 88.4927662,60.2347504 86.5123452,60.2347504 C84.5332236,60.2347504 83.0102226,61.6489834 83.0102226,64 C83.0102226,66.3497228 84.5332236,67.7652494 86.5123452,67.7652494 C88.4927662,67.7652494 89.9897774,66.3497228 89.9897774,64 Z M79,64 C79,59.9060999 82.1720522,57 86.5123452,57 C90.852638,57 94,59.9060999 94,64 C94,68.0939001 90.852638,71 86.5123452,71 C82.1720522,71 79,68.0939001 79,64 L79,64 Z" id="Fill-147" fill="#FFFFFF" fill-rule="nonzero"></path>
            <path d="M105,60.427982 C104.688487,60.4036009 104.449333,60.3804389 104.162349,60.3804389 C102.101947,60.3804389 100.736931,61.4995312 100.736931,63.9522693 L100.736931,70 L97,70 L97,57.1901726 L100.56891,57.1901726 L100.56891,58.8797825 C101.478921,57.6424419 103.011958,57 105,57 L105,60.427982 Z" id="Fill-148" fill="#FFFFFF" fill-rule="nonzero"></path>
            <path d="M115,57 L115,60.427982 C114.688487,60.4036009 114.449333,60.3804389 114.162349,60.3804389 C112.101947,60.3804389 110.736931,61.4995312 110.736931,63.9522693 L110.736931,70 L107,70 L107,57.1901726 L110.56891,57.1901726 L110.56891,58.8797825 C111.478921,57.6424419 113.011958,57 115,57" id="Fill-149" fill="#FFFFFF" fill-rule="nonzero"></path>
            <path d="M131,57 L125.082786,70.8888812 C123.817305,74.0509929 122.014463,75 119.653063,75 C118.314022,75 116.852797,74.5616134 116,73.8081368 L117.387665,71.1080745 C117.972405,71.6186951 118.776577,71.9350309 119.530878,71.9350309 C120.578173,71.9350309 121.162912,71.4729814 121.674092,70.3047811 L121.722716,70.1839756 L116.048624,57 L119.969745,57 L123.646497,65.8785719 L127.348184,57 L131,57" id="Fill-150" fill="#FFFFFF" fill-rule="nonzero"></path>
            <path d="M132.077333,53 L136.921333,53 L136.114667,63.9723026 L132.885333,63.9723026 L132.077333,53 Z M132,67.8141451 C132,66.5896731 133.041333,65.677466 134.5,65.677466 C135.958667,65.677466 137,66.5896731 137,67.8141451 C137,69.0152588 135.958667,70 134.5,70 C133.041333,70 132,69.0152588 132,67.8141451 L132,67.8141451 Z" id="Fill-151" fill="#FFFFFF" fill-rule="nonzero"></path>
            <polyline id="Fill-152" fill="#F1AD92" fill-rule="nonzero" points="208 143.774485 227.624037 136.5399 276.210393 133 289 136.880929 271.742115 210.884096 229.366123 220 209.705449 194.012627 208 143.774485"></polyline>
            <path d="M318,146.225652 L286.330474,135 C286.330474,135 256.634214,177.597929 207.912741,143.17344 C207.912741,143.17344 186.555488,150.867954 183.375775,152.639225 C180.197327,154.410496 198.227063,208.56223 198.227063,208.56223 L196.102203,275.87053 C223.917418,290.253555 268.371482,284.901732 307.077557,278.379197 L305.957015,203.601911 L318,146.225652" id="Fill-153" fill="#6E5FFF" fill-rule="nonzero"></path>
            <path d="M305.611307,86.2395997 C308.860565,81.6025447 308.037235,74.5917594 303.79973,70.8291709 C299.562226,67.0665823 292.479575,67.0552907 288.230741,70.8053333 L281.916027,81.9362721 C278.465344,86.1856512 275.94248,91.2731126 275.211051,96.6917923 C274.479622,102.110472 275.637823,107.859115 278.865679,112.279122 C283.103183,118.080459 290.874461,121.082751 297.929415,119.642453 C304.983109,118.203411 310.944068,112.399565 312.552959,105.403835 C314.161852,98.4093593 311.331813,90.5968753 305.611307,86.2395997" id="Fill-154" fill="#132529" fill-rule="nonzero"></path>
            <path d="M289.487435,86.5079846 C289.298716,82.7232648 288.899892,78.844751 289.968037,75.2133972 C290.370636,73.8419751 290.98334,72.4984375 290.999697,71.0699783 C291.023601,68.9951002 289.632119,66.9797939 287.694613,66.2776054 C285.755849,65.5766844 283.410711,66.2395807 282.117362,67.8543608 L281.902224,68.2447471 C279.721901,70.017963 278.675144,72.8178445 277.824654,75.508722 C276.504886,79.696503 275.427934,83.9628682 274.603864,88.2773982 C274.142134,90.6995681 273.758408,93.1927173 274.184911,95.6224922 C274.611413,98.0509996 275.982766,100.436412 278.204608,101.47195 C281.617889,103.062648 285.843917,100.855951 287.719776,97.5706216 C289.594376,94.2865597 289.674895,90.2914369 289.487435,86.5079846" id="Fill-155" fill="#E4B962" fill-rule="nonzero"></path>
            <path d="M284.678625,73.6508788 C283.956541,69.3446214 282.089999,65.2881674 281.43494,60.9704976 C280.575015,55.3010992 281.848462,49.5518145 282.167141,43.8266225 C282.485818,38.1014303 281.585426,31.7904046 277.399619,27.8835792 C272.930541,23.7142699 266.220603,23.5304043 260.215044,22.4335514 C253.383704,21.1845339 246.907716,18.491221 240.197778,16.7045552 C233.487838,14.9166216 226.208834,14.0733762 219.705023,16.5118134 C213.829718,18.7143956 209.2228,23.3452708 205.06102,28.0534963 C198.319465,35.6807457 191.919353,44.7053728 192,54.8965951 C192.044547,60.1919223 193.857976,65.303384 194.532006,70.5568659 C195.179478,75.5947813 194.777336,80.7696448 195.952144,85.7111894 C197.126953,90.6540019 200.457896,95.5968144 205.440398,96.5174101 L260.098701,101.991531 C267.22975,102.18554 274.379767,99.0357338 279.060031,93.6402316 C283.740295,88.2434614 285.859756,80.7049749 284.678625,73.6508788" id="Fill-156" fill="#132529" fill-rule="nonzero"></path>
            <path d="M270.179676,46.6958891 L270.040749,40.0257807 L229.663355,34.0358063 C217.255864,33.2307497 204.398751,46.1419395 204.120897,58.5622721 C203.811467,72.3592766 203.979442,89.217515 206.027992,99.4207872 C210.147825,119.93585 226.095444,121.921993 226.095444,121.921993 L226.100495,133.577648 C226.104284,146.514075 236.602153,157 249.5502,157 C262.800098,157 273.419214,146.03836 272.987274,132.807923 L270.179676,46.6958891" id="Fill-157" fill="#F1AD92" fill-rule="nonzero"></path>
            <path d="M213,72.4657737 C213.007217,73.8472726 214.133259,74.9798528 215.514299,74.9997664 C216.892956,75.0184353 218.00708,73.9157253 218,72.5342263 C217.992783,71.1539719 216.867932,70.0189024 215.489275,70.0002336 C214.108235,69.9815647 212.992918,71.0842746 213,72.4657737" id="Fill-158" fill="#132529" fill-rule="nonzero"></path>
            <path d="M209.049999,66.9548952 C209.407997,67.2806179 211.445024,65.7390294 214.429227,65.6321127 C217.406825,65.4854131 219.659178,66.8454921 219.966978,66.4899322 C220.120218,66.3320436 219.743724,65.73157 218.7622,65.1136914 C217.795207,64.4995423 216.1677,63.928906 214.309013,64.0072285 C212.451647,64.0867944 210.916612,64.790455 210.046054,65.4829266 C209.157002,66.1803712 208.872982,66.8081955 209.049999,66.9548952" id="Fill-159" fill="#132529" fill-rule="nonzero"></path>
            <path d="M240,71.4663879 C240.007217,72.8482132 241.132067,73.9810611 242.514299,73.9997344 C243.891764,74.0196526 245.007081,72.916682 245,71.5348567 C244.992783,70.1542762 243.86674,69.0189386 242.489275,69.0002653 C241.107044,68.980347 239.992918,70.0845625 240,71.4663879" id="Fill-160" fill="#132529" fill-rule="nonzero"></path>
            <path d="M237.04868,66.9545771 C237.40666,67.2815079 239.447547,65.7400851 242.427636,65.6331799 C245.406404,65.4864962 247.658645,66.8464288 247.967749,66.4909072 C248.11834,66.3317925 247.745828,65.7313835 246.76039,65.1148143 C245.794767,64.4994883 244.167342,63.9289132 242.30875,64.0072275 C240.451477,64.0880278 238.91652,64.7916127 238.046006,65.48401 C237.159641,66.1813795 236.874313,66.8091364 237.04868,66.9545771" id="Fill-161" fill="#132529" fill-rule="nonzero"></path>
            <path d="M227.61127,88.8054616 C227.617806,88.6426266 225.769386,88.4091037 222.779756,88.1566464 C222.02287,88.1124665 221.303895,87.9950737 221.15618,87.5027822 C220.956173,86.9839825 221.238534,86.1874797 221.569263,85.3253382 C222.203268,83.5366785 222.86734,81.6609211 223.5654,79.6955412 C226.330186,71.6825476 228.297565,65.106036 227.962914,65.0012663 C227.626957,64.8964965 225.114465,71.3063863 222.350985,79.3206422 C221.68822,81.294858 221.052908,83.1781892 220.450276,84.9794718 C220.199288,85.8176299 219.748294,86.7757051 220.178372,87.8511731 C220.404522,88.3876448 220.974474,88.7612816 221.463378,88.8673137 C221.952281,88.9910177 222.375822,88.9821817 222.750997,88.9884932 C225.748471,89.027624 227.60604,88.9670343 227.61127,88.8054616" id="Fill-162" fill="#132529" fill-rule="nonzero"></path>
            <path d="M226,122.682076 C226,122.682076 240.600648,122.94668 254,114 C254,114 247.402951,128.985274 226,127.948589 L226,122.682076" id="Fill-163" fill="#EA8E6C" fill-rule="nonzero"></path>
            <path d="M229.266522,95.028845 C230.254744,93.6837295 232.052563,92.8956331 233.876082,93.0111719 C235.140594,93.091441 236.438519,93.6168387 237.245546,94.5581763 C238.051287,95.4995138 238.26975,96.8713856 237.615647,97.8236689 C236.876729,98.8951396 235.249826,99.1991892 233.849096,98.8793291 C232.448365,98.5606851 231.219835,97.7433998 230.050417,96.9273306 C229.726579,96.7011178 229.396314,96.4651753 229.186847,96.1465313 C228.97738,95.8278873 228.916982,95.4034341 229.14701,95.1249247" id="Fill-164" fill="#EA8E6C" fill-rule="nonzero"></path>
            <path d="M249.995672,58.5250556 C249.825261,57.7005146 246.888244,57.6502692 243.561345,56.7484276 C240.215083,55.9135798 237.629215,54.5247437 237.075378,55.1624746 C236.826216,55.4691007 237.194149,56.2756048 238.188217,57.1954834 C239.170666,58.1127851 240.812814,59.0867741 242.812568,59.6098422 C244.813612,60.1290454 246.722995,60.0787999 248.029485,59.7580019 C249.346301,59.4397806 250.062803,58.9141358 249.995672,58.5250556" id="Fill-165" fill="#132529" fill-rule="nonzero"></path>
            <path d="M216.723985,56.0261886 C215.803156,55.7614061 213.706357,57.5571579 210.819535,59.031657 C207.972862,60.577685 205.255702,61.316817 205.008334,62.1977518 C204.915084,62.6118665 205.606678,62.9933539 206.96785,62.9996283 C208.312184,63.0146871 210.315733,62.5729647 212.286905,61.5364232 C214.256782,60.4986268 215.709906,59.1182446 216.406682,58.0289976 C217.120292,56.9297115 217.143604,56.1705013 216.723985,56.0261886" id="Fill-166" fill="#132529" fill-rule="nonzero"></path>
            <path d="M263.084932,27 L231.862024,29.4558624 L206,38.3675324 C209.328098,45.6086595 209.960577,51.5662126 217.893116,52.3452091 C225.82692,53.1242057 234.051664,49.4214429 238.726941,42.9669 C240.058938,48.8371955 246.677188,51.8191336 252.64019,52.6575665 C256.85629,53.2506662 261.287429,53.1924945 265.203733,51.5206869 C269.118772,49.8488793 272.425367,46.3294842 272.966768,42.1082333 C273.509434,37.8857181 267.285852,27.687945 263.084932,27" id="Fill-167" fill="#132529" fill-rule="nonzero"></path>
            <path d="M287.270932,48.0381762 C285.551978,44.8322742 282.586365,42.3193015 279.152296,41.0382029 C278.88863,39.0250478 278.621122,37.0118928 278.352336,35 L254.941021,42.2789122 C249.398897,50.9815478 251.935731,63.5022359 260.480586,69.6250038 L260.57658,74.0047204 C260.678975,78.5977429 261.964032,83.0897923 264.312715,87.0567805 L271.740185,102.997939 C277.199113,103.125418 278.441931,97.3144047 280.601184,92.5472032 C282.760437,87.7800017 282.791155,82.412009 282.603005,77.223244 C282.510849,74.6862901 282.375176,72.1518604 282.202384,69.6199551 C283.858622,66.8368788 286.234184,64.2507004 287.621636,61.3022803 C289.577377,57.144705 289.444264,52.0897296 287.270932,48.0381762" id="Fill-168" fill="#132529" fill-rule="nonzero"></path>
            <path d="M264,75.0347046 C264.298849,74.8659639 276.218504,69.990242 276.968074,82.9744047 C277.718871,95.9572989 264.978608,94.0592817 264.93574,93.6888131 C264.892873,93.3170757 264,75.0347046 264,75.0347046" id="Fill-169" fill="#F1AD92" fill-rule="nonzero"></path>
            <path d="M268.010918,88.0680607 C268.070125,88.0239385 268.265653,88.2077803 268.692505,88.3548538 C269.108343,88.4982503 269.810585,88.5754638 270.52935,88.2911219 C271.984781,87.7248894 273.097353,85.5555572 273.014737,83.2906272 C272.973428,82.1471318 272.630569,81.0734961 272.115591,80.1984096 C271.625398,79.3037132 270.914895,78.6982611 270.157575,78.619822 C269.401632,78.5058402 268.89767,78.9335786 268.748961,79.2963596 C268.583726,79.6566894 268.689751,79.9018116 268.616773,79.9275495 C268.579595,79.9618666 268.300076,79.7339028 268.378561,79.2093411 C268.421246,78.9568652 268.565826,78.6529136 268.881146,78.3943096 C269.201974,78.1320286 269.690791,77.9800529 270.216784,78.0021139 C271.307323,78.0119187 272.345541,78.8490113 272.911465,79.8098907 C273.536599,80.7732214 273.951059,81.9779974 273.996499,83.2612126 C274.076361,85.7933258 272.783409,88.2359694 270.779954,88.8683849 C269.805077,89.1515011 268.959632,88.9296654 268.513501,88.6563541 C268.056357,88.369561 267.964102,88.0925728 268.010918,88.0680607" id="Fill-170" fill="#EA8E6C" fill-rule="nonzero"></path>
            <path d="M285.768587,46.0059739 C285.97418,46.0494108 286.099048,46.6351882 285.898501,47.6652629 C285.684078,48.6779627 285.092527,50.136201 283.814824,51.5820287 C282.554779,53.0129638 280.561916,54.4501041 277.911911,54.9899625 C275.242987,55.5434726 272.574063,54.9713467 270.335246,55.2183164 C269.242954,55.3250471 268.109041,55.6874347 266.883051,56.0485815 C266.272579,56.2285342 265.639402,56.4060049 264.982262,56.5437619 C264.349087,56.6703494 263.73483,56.7733569 263.120575,56.8515433 C260.677424,57.169253 258.325089,56.9706844 256.493672,56.3166491 C254.647121,55.6737831 253.416086,54.6412263 252.748855,53.8519161 C252.06901,53.0551596 251.899996,52.4780696 252.051352,52.3440357 C252.423438,51.9679965 254.017729,53.5714381 257.105405,54.1125375 C258.641676,54.376882 260.532374,54.3359272 262.64254,53.9114868 C263.168504,53.8059972 263.712127,53.6794097 264.257011,53.5404116 C264.776669,53.4026546 265.324077,53.226425 265.909322,53.0315796 C267.073508,52.650576 268.419321,52.1690472 269.985863,52.0052281 C273.057144,51.7446067 275.483896,52.3688569 277.393515,52.0561112 C279.318267,51.8141058 280.986974,50.920547 282.185216,49.9525251 C284.634672,47.9780085 285.281722,45.8731812 285.768587,46.0059739" id="Fill-171" fill="#FFFFFE" fill-rule="nonzero"></path>
            <path d="M237.998347,93.1485582 C238.072287,93.5437791 235.655284,94.3502977 232.955852,95.943239 C230.244299,97.5080459 228.278211,99.257736 228.023663,98.9683538 C227.777598,98.7218432 229.466107,96.3893698 232.366753,94.7093459 C235.257703,93.0092259 237.953497,92.7854908 237.998347,93.1485582" id="Fill-172" fill="#132529" fill-rule="nonzero"></path>
            <path d="M241.202297,95.9904986 C240.977579,95.9071455 241.388444,95.0092055 241.044657,93.9344559 C240.744473,92.8521288 239.862367,92.1739378 240.018329,92.0274385 C240.118949,91.8607323 241.507513,92.4543073 241.896578,93.7904823 C242.304093,95.1228688 241.388444,96.1079506 241.202297,95.9904986" id="Fill-173" fill="#EA8E6C" fill-rule="nonzero"></path>
            <path d="M246.974625,75.0078919 C247.142559,75.0694121 246.478881,76.076673 244.925821,76.6376527 C243.378136,77.2111449 241.955392,76.9661073 242.001071,76.8274264 C242.013162,76.6699767 243.278718,76.6532934 244.626226,76.1465347 C245.988512,75.6616732 246.809377,74.9150905 246.974625,75.0078919" id="Fill-174" fill="#EA8E6C" fill-rule="nonzero"></path>
            <path d="M247.977951,76.0163197 C248.105061,76.1190739 247.679859,76.9783551 246.773212,77.5409339 C245.869939,78.1099348 245.006037,78.055989 245.000413,77.8774537 C244.980165,77.6873586 245.706833,77.4548774 246.491994,76.953951 C247.285029,76.4684379 247.847465,75.8955836 247.977951,76.0163197" id="Fill-175" fill="#EA8E6C" fill-rule="nonzero"></path>
            <path d="M212.999884,77.8709988 C212.99882,77.9939403 212.412983,78.0712177 211.793124,77.8060155 C211.1722,77.5434478 210.907458,77.1043713 211.028665,77.0323627 C211.150936,76.9506945 211.541139,77.188674 212.047235,77.3994307 C212.548013,77.6180908 213.00839,77.7419103 212.999884,77.8709988" id="Fill-176" fill="#EA8E6C" fill-rule="nonzero"></path>
            <path d="M212.998808,79.9218506 C212.971824,80.0389239 212.170015,80.0482559 211.29368,79.78272 C210.414774,79.5205774 209.89951,79.1150625 210.016439,79.0234399 C210.134654,78.9267271 210.7797,79.1456034 211.571229,79.3814468 C212.358903,79.6206837 213.032217,79.7988387 212.998808,79.9218506" id="Fill-177" fill="#EA8E6C" fill-rule="nonzero"></path>
            <path d="M230.994731,55.0152006 C231.115594,55.1162964 229.14674,56.6738775 226.148136,56.9477767 C223.15074,57.2557664 220.906318,56.1060951 221.003009,55.9838397 C221.062231,55.8028076 223.275229,56.6339094 226.085286,56.3388506 C228.898972,56.0884621 230.900459,54.8494505 230.994731,55.0152006" id="Fill-178" fill="#EA8E6C" fill-rule="nonzero"></path>
            <path d="M231.984976,56.0104706 C232.132864,56.0839711 231.184638,57.2588991 229.331684,57.7625941 C227.486185,58.2846642 225.931491,57.802587 226.002329,57.6674757 C226.037126,57.5053421 227.486185,57.6999024 229.136569,57.2264724 C230.795655,56.7822264 231.848272,55.8937344 231.984976,56.0104706" id="Fill-179" fill="#EA8E6C" fill-rule="nonzero"></path>
            <path d="M209.074196,47.9989429 C209.055108,48.0130186 208.945678,47.8863376 208.754809,47.6304165 C208.553762,47.3808936 208.310723,46.9739791 208.033329,46.4314264 C207.497626,45.3412029 206.969556,43.5971009 207.001369,41.3987393 C206.981008,37.0122527 209.532279,31.0160227 214.585195,26.6551281 C217.094474,24.4746809 219.937136,22.9455526 222.675457,22.0894968 C225.415051,21.2129672 228.018492,20.9570462 230.176575,21.0056712 C232.341018,21.0453389 234.069011,21.3895527 235.232035,21.6928191 C235.814819,21.8476514 236.260177,21.9884079 236.556659,22.104852 C236.854413,22.2148981 237.007108,22.2814375 237,22.3044704 C236.970207,22.4554638 234.434205,21.4650494 230.174029,21.4778454 C228.056665,21.4893619 225.520664,21.7887895 222.86378,22.6729968 C220.206896,23.5392894 217.459668,25.0402663 215.017829,27.1605721 C210.103611,31.4050226 207.566337,37.1798809 207.46963,41.4128148 C207.380559,43.5344003 207.819555,45.2311568 208.268733,46.3252192 C208.730633,47.4205613 209.130183,47.9618342 209.074196,47.9989429" id="Fill-180" fill="#334F55" fill-rule="nonzero"></path>
            <path d="M255.99938,51.9906652 C255.988385,52.0278428 255.604793,51.9559663 254.934116,51.7390973 C254.267106,51.5135535 253.324006,51.1145146 252.224538,50.4886926 C250.061028,49.2184599 247.159651,47.0956222 245.019352,43.7731891 C243.976079,42.0729361 243.519189,40.2078628 243.266311,38.5447873 C243.007325,36.8693193 242.978006,35.3438009 243.01099,34.0710897 C243.04886,32.7971392 243.177132,31.7722782 243.299295,31.0721012 C243.420237,30.3706849 243.536292,29.9939525 243.574162,30 C243.679222,30.0174982 243.427567,31.564084 243.46055,34.0760467 C243.486205,35.3276906 243.560724,36.8234671 243.844142,38.4481257 C244.121453,40.066588 244.583231,41.8461531 245.559314,43.432395 C247.598217,46.6036393 250.399419,48.7624154 252.454204,50.0970891 C254.548081,51.4305237 256.034807,51.8840897 255.99938,51.9906652" id="Fill-181" fill="#334F55" fill-rule="nonzero"></path>
            <path d="M219.747932,48 C219.711331,48.0099449 219.543477,47.5674754 219.352905,46.7339862 C219.158546,45.9017833 218.986905,44.6644121 219.000788,43.1260587 C219.000788,40.0853669 220.015489,35.6799654 223.050762,32.0450267 C226.10118,28.4216643 230.212996,26.7135261 233.161186,26.2401866 C234.649164,25.9867955 235.874632,25.9662156 236.712644,26.0318143 C237.549395,26.0948405 238.00374,26.1938816 238,26.2324691 C237.997429,26.3713839 236.13588,26.092268 233.248268,26.7058086 C230.397258,27.2859067 226.476014,29.0043349 223.550541,32.481065 C220.638951,35.9667988 219.582601,40.1818356 219.465229,43.1414938 C219.321352,46.1448844 219.881711,47.9752162 219.747932,48" id="Fill-182" fill="#334F55" fill-rule="nonzero"></path>
            <path d="M261.999553,23.780766 C261.973555,23.9746164 258.188233,22.9951015 253.626866,23.9449686 C249.046001,24.8298388 246.123815,27.1549037 246.002924,26.9918413 C245.950927,26.9439488 246.59308,26.2985409 247.879986,25.5083154 C249.157793,24.7169495 251.128449,23.8412017 253.474777,23.365698 C255.823705,22.8993166 258.030944,22.9358061 259.57523,23.1604445 C261.126017,23.3805218 262.022951,23.7180495 261.999553,23.780766" id="Fill-183" fill="#334F55" fill-rule="nonzero"></path>
            <path d="M306.918353,85.8695806 C306.276016,86.5680955 303.005706,84.2969539 298.539276,82.9438236 C294.097792,81.5003123 290.161445,81.5093504 290.003045,80.5590604 C289.938187,80.1174853 290.912295,79.5080602 292.657208,79.1865627 C294.387155,78.8611917 296.886659,78.9141289 299.482202,79.7262655 C302.075252,80.5435665 304.183116,81.9367227 305.446588,83.2020546 C306.725028,84.4712599 307.208964,85.5390449 306.918353,85.8695806" id="Fill-184" fill="#FFFFFE" fill-rule="nonzero"></path>
            <path d="M304.490034,89.9943255 C304.468692,89.9382853 305.057464,89.7077558 306.029125,89.1333426 C306.990744,88.5538347 308.342786,87.5935076 309.61197,86.0243789 C310.864837,84.4705338 312.048657,82.2671307 312.317308,79.6166786 C312.604789,76.9891521 311.94195,73.9540597 310.189445,71.4628131 C308.445725,68.9435464 305.731602,67.5056029 303.180677,66.9375579 C300.607154,66.3402191 298.178001,66.537634 296.218358,66.9286424 C292.277731,67.7819836 290.051949,69.0810999 290.000477,68.9409991 C289.981648,68.9040634 290.520204,68.5703689 291.550868,68.0761952 C292.584043,67.5922108 294.119368,66.9375579 296.121694,66.4701309 C298.112722,66.0116192 300.620964,65.7530695 303.30998,66.3402191 C305.968869,66.8942541 308.866277,68.398427 310.721723,71.0756255 C312.577171,73.7158884 313.252563,76.9165544 312.917377,79.682908 C312.597256,82.4811027 311.306729,84.7571036 309.964731,86.3262323 C308.603904,87.9119184 307.169008,88.8391309 306.150898,89.3600511 C305.636193,89.6160535 305.225684,89.7905426 304.936948,89.8796976 C304.650723,89.9752209 304.497566,90.0159775 304.490034,89.9943255" id="Fill-185" fill="#132529" fill-rule="nonzero"></path>
            <path d="M200.701704,279 C200.701704,279 173.7334,335.677457 174.001993,361.760963 C174.171764,378.138802 197.234061,553 197.234061,553 L246.365126,553 L250.361088,390.13633 L253.728641,385.644837 L255.824177,390.774362 C255.824177,390.774362 248.418853,548.969659 250.150774,553 L305.075603,553 C305.075603,553 322.540512,427.565435 324.850163,408.563453 C327.161081,389.560206 329.879955,380.455932 328.725764,352.81588 C327.571572,325.175829 308.106148,279 308.106148,279 C308.106148,279 233.615805,291.092285 200.701704,279" id="Fill-186" fill="#132529" fill-rule="nonzero"></path>
            <polyline id="Fill-187" fill="#334F55" fill-rule="nonzero" points="202.599189 280 198 295.251232 211.259566 298 215 282.656404 202.599189 280"></polyline>
            <path d="M220.653073,282.224136 L218,297.678519 C218,297.678519 232.765533,299.37238 248.889805,298.924653 C264.263993,298.497629 279.279555,297.185501 286,294.770874 L284.042712,281 C284.042712,281 233.256751,285.803372 220.653073,282.224136" id="Fill-188" fill="#334F55" fill-rule="nonzero"></path>
            <path d="M290,280.390208 L293.244105,294 C293.244105,294 303.699294,292.831482 308,290.235066 L304.399497,278 L290,280.390208" id="Fill-189" fill="#334F55" fill-rule="nonzero"></path>
            <path d="M219.982269,551 C219.86643,547.388055 218.190306,495.412888 216.002364,427.531539 C214.98818,393.425597 214.265958,362.544289 214.057919,340.18379 C214.036643,334.597449 214.01773,329.542241 214,325.096382 C214.035461,320.663139 214.066194,316.840509 214.091016,313.705447 C214.174941,310.601924 214.242317,308.182187 214.287234,306.508051 C214.315603,305.706937 214.338061,305.084972 214.353427,304.635845 C214.372339,304.214471 214.397163,304 214.397163,304 C214.397163,304 214.414894,304.216995 214.416075,304.638368 C214.414894,305.087495 214.413711,305.709461 214.411348,306.511835 C214.392434,308.185971 214.365248,310.60571 214.330969,313.70797 C214.334515,316.84177 214.339243,320.663139 214.343971,325.095121 C214.388888,329.539718 214.438533,334.593665 214.492907,340.178743 C214.812057,362.530411 215.602836,393.406673 216.618202,427.511355 C217.64539,461.593327 218.57565,492.449404 219.249409,514.819996 C219.557919,525.993937 219.769503,535.038307 219.888888,541.289507 C219.931443,544.393029 219.965721,546.812768 219.989361,548.488165 C219.99409,549.290539 219.997636,549.912505 220,550.361632 C219.998817,550.783005 219.982269,551 219.982269,551" id="Fill-190" fill="#334F55" fill-rule="nonzero"></path>
            <path d="M252.235984,300 C252.255088,300 252.273131,300.255084 252.28799,300.742411 C252.298604,301.300805 252.312401,302.006413 252.328322,302.871927 C252.346365,304.808541 252.372899,307.459649 252.403678,310.69707 C252.463115,317.305168 252.574557,326.431118 252.813362,336.508878 C253.055352,346.589178 253.380127,355.708782 253.636975,362.310534 C253.760093,365.544149 253.860921,368.192717 253.935216,370.129333 C253.959628,370.992307 253.979793,371.696646 253.996776,372.25631 C254.004205,372.742368 253.998898,372.998722 253.979793,373 C253.96069,373.00126 253.928848,372.748714 253.885333,372.263924 C253.841818,371.708068 253.787688,371.006266 253.720822,370.144562 C253.587091,368.301858 253.423642,365.635522 253.246396,362.335915 C252.889779,355.739241 252.503446,346.614559 252.261456,336.526645 C252.02159,326.443809 251.971705,317.308974 252.013099,310.698339 C252.032203,307.392388 252.068289,304.718436 252.112866,302.869389 C252.1394,302.003876 252.160627,301.299536 252.176548,300.741142 C252.197775,300.255084 252.216879,300 252.235984,300" id="Fill-191" fill="#334F55" fill-rule="nonzero"></path>
            <path d="M254,372.994773 C253.994625,373.017526 253.706982,372.964436 253.158786,372.865843 C252.543515,372.747026 251.750242,372.594079 250.767356,372.405742 C248.697105,371.967127 245.682666,371.403376 242.058115,370.244273 C241.157783,369.929532 240.208434,369.621111 239.295203,369.008063 C239.078503,368.832365 238.832136,368.670571 238.69154,368.319175 C238.602539,368.063843 238.527727,367.809776 238.458073,367.548125 C238.321347,367.026085 238.223316,366.485086 238.156242,365.935238 C237.903426,363.720681 238.038864,361.393627 238.016936,358.942697 C238.046603,354.031991 238.07885,348.646015 238.113676,342.98954 C238.237505,331.704398 238.351013,321.492405 238.433566,314.004368 C238.505799,310.356416 238.565132,307.3746 238.607698,305.220715 C238.641235,304.239838 238.668323,303.447299 238.688961,302.832987 C238.714758,302.286932 238.739266,302 238.762484,302 C238.785701,302 238.80634,302.288196 238.824398,302.834251 C238.836006,303.448563 238.850196,304.241102 238.868254,305.221979 C238.878573,307.377128 238.892761,310.358944 238.908239,314.006896 C238.875992,321.496197 238.833427,331.708189 238.784412,342.994596 C238.732817,348.651072 238.681221,354.03452 238.636076,358.947753 C238.639946,361.397418 238.487741,363.74217 238.709598,365.872038 C238.768933,366.404189 238.856645,366.922436 238.979183,367.420458 C239.042386,367.66947 239.11333,367.917217 239.192012,368.149796 C239.237158,368.296422 239.42806,368.463272 239.604772,368.60105 C240.394176,369.148369 241.343525,369.48839 242.214191,369.805659 C245.771667,371.005211 248.778368,371.641011 250.824111,372.154202 C251.796677,372.394365 252.580921,372.586495 253.189742,372.73565 C253.72762,372.87722 254.006234,372.974548 254,372.994773" id="Fill-192" fill="#334F55" fill-rule="nonzero"></path>
            <path d="M281.000934,551 C281.000934,551 280.994623,550.777889 281.014818,550.347549 C281.038802,549.890707 281.072882,549.254662 281.118323,548.435628 C281.225615,546.729412 281.382135,544.259691 281.582833,541.093348 C282.039768,534.691251 282.699928,525.477433 283.514081,514.10182 C285.181517,491.315257 287.50785,459.834819 289.360838,425.027764 C291.119158,390.20935 291.932048,358.636785 291.149451,335.806053 C291.02575,332.953946 290.907099,330.239397 290.797283,327.668717 C290.687467,325.099296 290.607944,322.675006 290.379477,320.418562 C289.970507,315.903146 289.759711,311.996013 289.352003,308.832195 C288.917787,305.691092 288.579504,303.241561 288.344724,301.549228 C288.239958,300.735241 288.159174,300.104245 288.099847,299.651189 C288.048095,299.223373 288.037997,299 288.037997,299 C288.037997,299 288.092273,299.214539 288.166746,299.638568 C288.239958,300.090362 288.3422,300.717573 288.475999,301.526511 C288.738548,303.217583 289.118486,305.663328 289.605715,308.800645 C290.053816,311.965726 290.301217,315.871596 290.74553,320.390797 C290.99167,322.648504 291.088863,325.075318 291.213826,327.646001 C291.340052,330.217944 291.473851,332.93754 291.61396,335.789647 C292.516471,358.638047 291.776791,390.232066 290.01721,425.063099 C288.164222,459.881512 285.764678,491.358166 283.977327,514.137156 C283.074817,525.505198 282.343971,534.713967 281.837808,541.112277 C281.584096,544.274833 281.385922,546.74077 281.249598,548.445724 C281.177649,549.262234 281.120847,549.895755 281.080456,550.351335 C281.038802,550.781674 281.000934,551 281.000934,551" id="Fill-193" fill="#334F55" fill-rule="nonzero"></path>
            <path d="M249.129751,300.003698 L249.129751,303 L266.009426,302.332142 C267.11907,302.28943 268,301.347181 268,300.201727 L268,284.13171 C268,282.953899 267.071317,282 265.928999,282 L248,282 L248,284.400925 L264.999057,285.317288 L264.999057,291.153282 L263.846686,291.122219 C263.346529,291.107982 262.934339,291.520862 262.934339,292.035994 C262.934339,292.533005 263.318882,292.938121 263.800188,292.951063 L265.110903,292.984715 L265.110903,298.820709 L249.129751,300.003698" id="Fill-194" fill="#D4D5CF" fill-rule="nonzero"></path>
            <polygon id="Fill-195" fill="#132529" fill-rule="nonzero" points="235 299 240 299 240 283 235 283"></polygon>
            <path d="M263.777885,293.986948 C263.735758,294.043597 263.553208,293.918245 263.362759,293.563888 C263.174066,293.217967 262.997659,292.617729 263.030132,291.928298 C263.062605,291.237664 263.294303,290.674789 263.513714,290.365028 C263.735758,290.04683 263.927962,289.955227 263.963945,290.019107 C264.050832,290.148074 263.533022,290.862816 263.486507,291.96928 C263.42946,293.073332 263.874425,293.874855 263.777885,293.986948" id="Fill-196" fill="#132529" fill-rule="nonzero"></path>
            <path d="M250.120423,291.095222 C250.116299,291.061868 250.18743,291.004844 250.341033,291.019907 C250.491543,291.030666 250.705968,291.15117 250.850293,291.393254 C250.985341,291.641795 251.076058,291.977484 250.911116,292.380959 C250.725555,292.746775 250.364744,293.011454 249.890534,292.999618 C249.386428,292.956581 249.085408,292.528361 249.0184,292.150709 C248.937991,291.748312 249.134891,291.379267 249.342101,291.215726 C249.787445,290.863897 250.147225,291.033894 250.120423,291.095222 C250.120423,291.176993 249.831773,291.202815 249.60807,291.498695 C249.500858,291.643946 249.441065,291.836537 249.500858,292.036661 C249.554463,292.23786 249.738993,292.434755 249.925584,292.440134 C250.126608,292.45735 250.3833,292.30134 250.474018,292.139951 C250.563705,291.990395 250.566798,291.725717 250.5101,291.570784 C250.398763,291.213575 250.124546,291.170537 250.120423,291.095222" id="Fill-197" fill="#132529" fill-rule="nonzero"></path>
            <path d="M297.547283,293.998014 C297.465699,293.949621 297.963099,293.021227 298.830258,291.560506 C299.319763,290.760738 299.838216,289.91003 300.386936,289.010928 C300.690901,288.525718 301.00408,288.027775 301.325153,287.517094 C301.621223,287.005142 302.073884,286.446067 302.241,285.977414 C302.402852,285.46164 302.296267,284.891106 301.985721,284.481033 C301.706755,284.086244 301.122509,283.808618 300.669848,283.466041 C299.794793,282.857301 298.967109,282.281672 298.189429,281.739155 C296.789341,280.739446 295.948499,280.083585 296.002449,280.007174 C296.055084,279.932037 296.991985,280.451631 298.463131,281.352006 C299.265812,281.857592 300.122445,282.393743 301.02645,282.96173 C301.26857,283.118373 301.513323,283.275014 301.762021,283.435478 C302.002826,283.579385 302.327847,283.818806 302.52786,284.098978 C302.966045,284.661873 303.12395,285.451452 302.896304,286.169715 C302.789718,286.535214 302.552861,286.843404 302.394957,287.09174 C302.225209,287.355358 302.055462,287.615155 301.888345,287.872405 C301.55543,288.375443 301.233042,288.8632 300.917232,289.342041 C300.325089,290.213126 299.765844,291.037091 299.240811,291.811388 C298.269697,293.207161 297.626235,294.046408 297.547283,293.998014" id="Fill-198" fill="#132529" fill-rule="nonzero"></path>
            <path d="M325.999638,332.229098 C326.008391,332.250769 325.858346,332.333631 325.558257,332.475133 C325.258169,332.612812 324.791779,332.772161 324.170346,332.890717 C322.932477,333.124004 321.045667,333.019472 318.93254,332.226548 C316.804409,331.465496 314.499973,330.078519 312.056749,328.409812 C309.617274,326.727082 307.081522,324.649167 304.667055,322.205385 C299.803111,317.325469 296.504631,311.917789 294.560304,307.848642 C293.610022,305.796223 292.944824,304.089272 292.544705,302.890964 C292.15584,301.685009 291.963283,301.014466 292.005795,301 C292.048308,300.986421 292.323389,301.627643 292.781025,302.797905 C293.252416,303.963067 293.977631,305.630499 294.971676,307.638301 C297.00603,311.618212 300.322014,316.914986 305.12469,321.734985 C307.510398,324.146898 310.002388,326.214615 312.395599,327.906268 C314.796312,329.583898 317.04823,330.995097 319.093838,331.788019 C321.130693,332.614086 322.927476,332.77981 324.135334,332.634482 C325.348195,332.480233 325.975881,332.165358 325.999638,332.229098" id="Fill-199" fill="#334F55" fill-rule="nonzero"></path>
            <path d="M202.99573,306.001992 C203.064201,306.047225 202.307139,307.364123 200.871822,309.355624 C199.439087,311.347127 197.28934,313.986094 194.639622,316.639277 C191.986028,319.289873 189.346645,321.439042 187.355803,322.870958 C185.364962,324.308046 184.047209,325.065359 184.001991,324.995573 C183.943855,324.908986 185.163423,324.015976 187.067705,322.493595 C188.971989,320.972506 191.535149,318.788444 194.164197,316.163693 C196.788077,313.535065 198.972706,310.972348 200.49329,309.067432 C202.015167,307.16381 202.910464,305.943836 202.99573,306.001992" id="Fill-200" fill="#334F55" fill-rule="nonzero"></path>
            <path d="M247.091955,179.683246 L246.210195,137.486927 C245.76868,132.066741 241.061726,133.073943 241.061726,133.073943 C241.061726,133.073943 240.767384,148.036638 239.499932,156.443045 C238.23248,164.850715 233.706953,174.115201 233.559781,176.020923 C233.412609,177.925382 232.825192,193.895278 232.236506,199.02354 C231.647819,204.150539 229,211.769634 229,211.769634 L241.061726,221 L244.738478,215.871738 C244.738478,215.871738 248.858014,212.941122 249.836199,209.278801 C250.814382,205.616478 247.091955,179.683246 247.091955,179.683246" id="Fill-201" fill="#F1AD92" fill-rule="nonzero"></path>
            <path d="M246.947676,179.137248 C246.947676,179.137248 247.006914,179.364266 247.079726,179.814498 C247.153774,180.298974 247.254971,180.961007 247.385786,181.808205 C247.642482,183.559672 248.000373,186.138047 248.417503,189.445671 C248.828462,192.754563 249.327043,196.790169 249.717022,201.472588 C249.819453,202.641924 249.898436,203.855651 249.95644,205.108692 C249.967546,205.73775 250.019379,206.370611 249.992229,207.023766 C249.995931,207.666773 249.95644,208.351635 249.80341,209.027618 C249.435645,210.350414 248.719861,211.560335 247.855982,212.662453 C246.977296,213.75823 245.971495,214.767766 244.808963,215.670768 L244.8682,215.608624 C243.755031,217.219315 242.545602,218.966978 241.302852,220.764104 L241.13995,221 L240.916576,220.823712 C237.264841,217.951101 233.309515,214.838789 229.167838,211.581896 L229,211.449996 L229.067876,211.238196 C230.695668,206.089057 232.31729,200.602561 232.498704,194.695003 C232.878811,188.802663 233.114526,182.693451 233.408245,176.440924 C233.440332,175.931084 233.43416,175.41617 233.571147,174.855599 C233.701963,174.339417 233.862398,173.852404 234.026534,173.36666 C234.369617,172.410392 234.712699,171.457928 235.053315,170.508001 C235.741948,168.620829 236.408369,166.746339 237.00938,164.87185 C238.229917,161.125408 239.136988,157.376428 239.529435,153.629985 C240.351353,146.135832 240.610516,138.960013 240.799336,132.356179 L240.806741,132.113941 L241.022709,132.07843 C241.996423,131.911019 242.961498,132.007407 243.846356,132.408177 C244.741087,132.788656 245.414911,133.586392 245.797486,134.439931 C246.196103,135.294739 246.331855,136.245935 246.362708,137.126108 C246.377518,138.002476 246.39356,138.868698 246.409605,139.723506 C246.468842,143.142737 246.525611,146.389485 246.578678,149.444724 C246.676173,155.543791 246.76256,160.874291 246.834138,165.284034 C246.88844,169.654462 246.932868,173.107935 246.962486,175.507485 C246.967423,176.660334 246.971126,177.560798 246.974828,178.207611 C246.971126,178.491703 246.968656,178.717453 246.966188,178.90135 C246.961251,179.057347 246.956316,179.137248 246.947676,179.137248 C246.940273,179.138516 246.931633,179.059883 246.920526,178.905156 C246.910653,178.722526 246.899546,178.498043 246.884738,178.215221 C246.861289,177.569676 246.829203,176.673016 246.787243,175.521435 C246.719366,173.123154 246.623106,169.674753 246.500928,165.308131 C246.39356,160.900926 246.26398,155.570424 246.113417,149.472627 C246.043074,146.417386 245.969027,143.170639 245.890044,139.751408 C245.785144,138.055743 246.040605,136.215496 245.305076,134.678364 C244.957055,133.921213 244.390599,133.252839 243.619279,132.928164 C242.870174,132.584466 241.961868,132.502029 241.141184,132.645342 L241.364558,132.367593 C241.200422,138.991719 240.962239,146.163735 240.147725,153.706081 C239.75898,157.486767 238.838333,161.314377 237.615329,165.077307 C237.010615,166.96448 236.341727,168.849115 235.653093,170.740093 C235.313712,171.684947 234.974332,172.633606 234.633717,173.58607 C234.472049,174.061667 234.315316,174.54107 234.194373,175.014131 C234.083303,175.44534 234.078366,175.962791 234.049983,176.475167 C233.757498,182.720084 233.515612,188.834369 233.126867,194.739392 C232.935579,200.702754 231.280637,206.281833 229.630631,211.438582 L229.530667,211.094883 C233.661237,214.368264 237.606691,217.494527 241.247317,220.37982 L240.861041,220.439428 C242.111196,218.648644 243.32803,216.907322 244.449837,215.301705 L244.470817,215.269998 L244.509074,215.240827 C246.695918,213.507115 248.626068,211.363755 249.354194,208.895719 C249.493648,208.284417 249.536842,207.659165 249.536842,207.014888 C249.570163,206.382025 249.520798,205.746627 249.514628,205.126448 C249.466497,203.882284 249.397387,202.673631 249.304829,201.505563 C248.953107,196.83329 248.494018,192.795147 248.127487,189.482451 C247.744912,186.200192 247.443789,183.624354 247.233991,181.829764 C247.136496,180.977494 247.058746,180.311656 247.003211,179.825913 C246.955081,179.373144 246.947676,179.137248 246.947676,179.137248" id="Fill-202" fill="#EA8E6C" fill-rule="nonzero"></path>
            <path d="M245.993331,141.208162 C245.924505,141.24194 245.686258,140.626425 244.876219,139.834512 C244.472523,139.446688 243.907349,139.018829 243.184666,138.702314 C242.495074,138.400812 241.457377,138.309486 240.888233,138.987553 L240.950441,138.786135 C241.117214,140.089726 241.392521,141.543443 241.512967,143.143532 C241.644004,144.739868 241.692977,146.46131 241.634739,148.247805 C241.48782,152.676513 240.753226,156.62732 240.16555,159.454687 C239.869065,160.870872 239.600375,162.010576 239.400513,162.794982 C239.199327,163.578138 239.065644,164.008499 239.019319,164 C238.92005,163.982226 239.212563,162.21825 239.685087,159.37462 C240.149666,156.53224 240.800875,152.600198 240.945146,148.226537 C241.003385,146.462561 240.967647,144.764889 240.861761,143.187319 C240.766461,141.609748 240.525567,140.151027 240.40115,138.853691 L240.389238,138.734842 L240.463359,138.652272 C240.855143,138.208151 241.45473,138.001728 241.976226,138.000477 C242.505663,137.990469 242.974215,138.139343 243.37394,138.320745 C244.156184,138.707319 244.713417,139.192725 245.109171,139.634345 C245.503602,140.078466 245.729936,140.480053 245.857001,140.759036 C245.984067,141.039271 246.015832,141.199405 245.993331,141.208162" id="Fill-203" fill="#EA8E6C" fill-rule="nonzero"></path>
            <path d="M246.930249,157.892976 C246.864099,157.89674 246.83693,157.165293 246.652656,155.926977 C246.545161,155.317229 246.39278,154.551908 245.949812,153.87441 C245.51275,153.184366 244.657525,152.818015 243.67,152.608493 L243.986574,152.351294 C243.921606,154.738848 243.777493,157.593121 243.495174,160.64186 C243.106542,164.932681 242.528912,168.788145 242.024518,171.558359 C241.768186,172.943466 241.537843,174.057574 241.358293,174.824149 C241.177561,175.58947 241.058255,176.008517 241.016912,176 C240.928318,175.980914 241.197642,174.260822 241.594543,171.479317 C241.989081,168.697812 242.497017,164.849876 242.882105,160.57913 C243.164424,157.544191 243.341612,154.704972 243.466824,152.328712 L243.484542,152 L243.783399,152.069004 C244.789825,152.306128 245.810424,152.769084 246.298281,153.618467 C246.78023,154.436483 246.881818,155.246971 246.951512,155.883066 C247.050737,157.167803 246.973956,157.891721 246.930249,157.892976" id="Fill-204" fill="#EA8E6C" fill-rule="nonzero"></path>
            <path d="M239.806389,179.977349 C239.729156,180.120285 239.241186,179.579171 239.177996,178.568407 C239.10954,177.557644 239.519399,176.894013 239.614185,177.013977 C239.724768,177.112246 239.574691,177.741419 239.632615,178.505873 C239.674742,179.274154 239.902052,179.849728 239.806389,179.977349" id="Fill-205" fill="#EA8E6C" fill-rule="nonzero"></path>
            <path d="M238.580153,169.996893 C238.468692,170.059811 238.129921,169.159958 238.192234,167.957385 C238.249281,166.752436 238.674061,165.922626 238.7785,166.005725 C238.896982,166.081702 238.696002,166.932882 238.648609,167.998934 C238.590684,169.063799 238.705656,169.942284 238.580153,169.996893" id="Fill-206" fill="#EA8E6C" fill-rule="nonzero"></path>
            <path d="M263.948024,203.390691 C263.016306,198.301474 261.333484,182.364554 261.056958,180.469565 C260.781678,178.574575 255.708301,169.621863 253.883479,161.299122 C252.059902,152.976381 250.735817,138.026884 250.735817,138.026884 C250.735817,138.026884 246.056053,137.348744 246,142.804284 L248.057751,185.084718 C248.057751,185.084718 246.209263,211.292605 247.421243,214.888647 C248.634469,218.48469 252.870796,221.127534 252.870796,221.127534 L256.826861,226 L268,215.917899 C268,215.917899 264.879742,208.481176 263.948024,203.390691" id="Fill-207" fill="#F1AD92" fill-rule="nonzero"></path>
            <path d="M264.656677,203.222028 C264.664317,203.22077 264.685964,203.292493 264.722891,203.433425 C264.76491,203.60078 264.815844,203.805885 264.87951,204.065097 C265.019576,204.621271 265.236041,205.446724 265.563288,206.511257 C266.213958,208.64158 267.303927,211.740803 268.952887,215.592497 L269,215.70197 L268.910867,215.781244 C265.798853,218.531915 261.952128,221.934392 257.53368,225.840194 L257.351594,226 L257.194973,225.815027 C255.921646,224.301278 254.556638,222.678055 253.135603,220.990657 L253.199271,221.044765 C252.023989,220.298585 250.92638,219.415251 249.908989,218.379659 C248.910701,217.339034 247.986265,216.126022 247.484573,214.657571 C247.098755,213.122431 247.125494,211.626297 247.069468,210.074797 C247.042729,208.529589 247.054188,206.956699 247.087294,205.358643 C247.227361,198.966415 247.606813,192.152654 248.091951,185.02683 L248.090677,185.06458 C247.739239,178.096046 247.366153,170.718561 246.982881,163.133452 C246.739675,158.262525 246.50029,153.477163 246.268544,148.827699 C246.211244,147.665018 246.153945,146.511146 246.097919,145.366082 C246.068632,144.217242 245.89928,143.108669 246.087732,141.909497 C246.260904,140.758141 246.802069,139.562744 247.806725,138.853056 C248.805014,138.132043 250.019769,137.920647 251.195052,138.025087 L251.440804,138.047736 L251.464997,138.306949 C251.919575,143.117477 252.450553,147.758134 253.063024,152.178585 C253.711147,156.590229 254.324893,160.828224 255.525641,164.654752 C256.72257,168.491347 258.267116,171.970581 259.727624,175.185569 C260.449601,176.801242 261.211052,178.312475 261.770042,179.880333 C262.029801,180.728436 262.019614,181.496006 262.14058,182.273643 C262.228441,183.046247 262.315027,183.799976 262.399066,184.534831 C263.061197,190.414925 263.602361,195.089555 264.00728,198.289443 C264.216106,199.861075 264.377818,201.085413 264.493691,201.954908 C264.549717,202.347502 264.593011,202.658304 264.627391,202.898642 C264.656677,203.111296 264.665591,203.22077 264.656677,203.222028 C264.647764,203.224544 264.618477,203.117588 264.572638,202.908709 C264.525524,202.669629 264.463131,202.361342 264.385458,201.971266 C264.236479,201.144554 264.028926,199.916441 263.797181,198.318385 C263.323502,195.123529 262.721218,190.453931 262.005608,184.581388 C261.913928,183.846534 261.820975,183.094062 261.726749,182.323976 C261.605783,181.570246 261.587956,180.722144 261.353664,180.013714 C260.807407,178.516322 260.025582,176.984956 259.295966,175.379349 C257.811265,172.169394 256.23743,168.683869 255.008669,164.813299 C253.770995,160.930147 253.140697,156.682085 252.474746,152.260375 C251.844449,147.828598 251.299464,143.186684 250.834699,138.362314 L251.105919,138.645435 C250.117816,138.558611 248.99856,138.756166 248.186177,139.362673 C247.352147,139.955338 246.886108,140.956955 246.725669,142.010162 C246.555043,143.045753 246.71421,144.217242 246.748589,145.353498 C246.807163,146.497304 246.865735,147.649918 246.924309,148.812599 C247.158601,153.459547 247.400533,158.242392 247.645012,163.110802 C248.021918,170.693393 248.388636,178.067104 248.734981,185.033122 L248.736255,185.051996 L248.734981,185.07213 C248.238383,192.18537 247.842379,198.997873 247.680666,205.371225 C247.641192,206.964249 247.623366,208.530848 247.645012,210.063473 C247.687032,211.580997 247.679392,213.140047 248.013004,214.487699 C248.465036,215.837868 249.335993,217.00684 250.296082,218.016007 C251.268905,219.017624 252.351233,219.897185 253.466669,220.614423 L253.504869,220.639589 L253.529061,220.668529 C254.938636,222.364735 256.29473,223.996766 257.559146,225.518066 L257.22044,225.491642 C261.673269,221.624848 265.551827,218.257603 268.688034,215.533357 L268.644741,215.722104 C267.033981,211.835176 265.993672,208.714562 265.393934,206.560331 C265.090882,205.483216 264.903703,204.648954 264.790377,204.083972 C264.744537,203.820985 264.708884,203.612104 264.678323,203.442233 C264.656677,203.297527 264.649037,203.223286 264.656677,203.222028" id="Fill-208" fill="#EA8E6C" fill-rule="nonzero"></path>
            <path d="M246.004654,146.625614 C245.970754,146.606564 246.120882,146.183673 246.49378,145.467421 C246.682652,145.110566 246.928425,144.678784 247.279531,144.215252 C247.625794,143.769501 248.111288,143.219614 248.888565,143.040551 C249.698528,142.83482 250.5884,143.435505 250.949191,144.30796 C251.294244,145.237562 251.129587,146.169703 251.167119,147.105655 C251.170752,149.008036 251.260345,151.098371 251.452847,153.285221 C251.849959,157.660191 252.566699,161.57925 253.126047,164.404885 C253.687816,167.231788 254.077664,168.974156 253.986862,169 C253.944487,169.010986 253.795569,168.589363 253.564323,167.815965 C253.3355,167.042567 253.029191,165.914853 252.691402,164.50902 C252.018247,161.699896 251.225234,157.765597 250.825699,153.346178 C250.630775,151.139009 250.556922,149.024546 250.585979,147.101844 C250.576293,146.144304 250.719157,145.203272 250.466118,144.517501 C250.191287,143.839348 249.553244,143.365658 248.96726,143.500272 C248.366748,143.605678 247.898204,144.048889 247.547097,144.456542 C247.191149,144.871815 246.919951,145.27312 246.703234,145.602035 C246.272222,146.266218 246.047029,146.649743 246.004654,146.625614" id="Fill-209" fill="#EA8E6C" fill-rule="nonzero"></path>
            <path d="M247.148754,163.948073 C247.117626,163.94934 247.080012,163.754191 247.041102,163.3829 C247.008677,163.011611 246.974954,162.464179 247.026835,161.764682 C247.087794,161.070255 247.188962,160.199687 247.636433,159.286034 C248.048885,158.371113 248.961986,157.447323 250.214905,157.092506 L250.545645,157 L250.587149,157.333274 C250.888058,159.661126 251.273272,162.412223 251.776515,165.336927 C252.515816,169.6847 253.360175,173.59022 254.004793,176.411014 C254.652005,179.231807 255.082614,180.972943 254.986635,181 C254.941239,181.01096 254.777815,180.591515 254.521006,179.819789 C254.265493,179.048063 253.925674,177.922786 253.541757,176.522527 C252.775218,173.722009 251.851742,169.812688 251.109848,165.444639 C250.605307,162.507264 250.251222,159.739693 250.009976,157.396635 L250.382221,157.637403 C249.271973,157.928859 248.480791,158.677776 248.061854,159.493855 C247.618274,160.304865 247.470415,161.133616 247.365357,161.798897 C247.178586,163.149735 247.229169,163.946807 247.148754,163.948073" id="Fill-210" fill="#EA8E6C" fill-rule="nonzero"></path>
            <path d="M255.234582,184.981194 C255.132775,184.864283 255.332878,184.268292 255.337266,183.502019 C255.35833,182.735744 255.178413,182.127046 255.28373,182.01649 C255.372372,181.889412 255.812949,182.507007 255.793641,183.517267 C255.779599,184.5288 255.319713,185.114625 255.234582,184.981194" id="Fill-211" fill="#EA8E6C" fill-rule="nonzero"></path>
            <path d="M255.561903,174.997888 C255.433767,174.954863 255.503101,174.06088 255.389007,172.997186 C255.287201,171.931101 255.042338,171.096878 255.156432,171.00724 C255.256483,170.915213 255.722512,171.708801 255.842749,172.912329 C255.967375,174.114663 255.676874,175.050475 255.561903,174.997888" id="Fill-212" fill="#EA8E6C" fill-rule="nonzero"></path>
            <path d="M286,282 C281.104733,281.780038 276.392834,279.217619 272.870922,275.729846 C268.80144,271.701019 266.072433,266.53952 263.562202,261.39319 C261.053236,256.24686 258.664407,250.970323 255.108352,246.482613 C253.894336,244.950471 252.30094,243.406951 250.355985,243.406951 C250.330693,243.406951 250.305401,243.408215 250.280109,243.408215 C247.601686,243.462572 245.971617,246.285406 244.8398,248.712563 C241.548047,255.761429 237.855414,262.718013 232.731255,268.573528 C227.767701,274.247005 221.323299,278.859867 214,280.591743 C223.206288,271.527831 232.038254,258.488187 238.545886,246.964251 C245.957706,233.838646 250.082832,222.485368 250.082832,222.485368 C250.091683,222.472727 249.958901,222.367803 249.694599,222.180711 C249.461913,222.020163 249.183701,221.828014 248.85364,221.600467 C249.32913,221.359016 249.81853,221.155489 250.320577,221 C253.968948,236.47312 260.811697,250.17012 268.549785,261.396982 C268.671187,261.573963 268.793852,261.750943 268.915254,261.926658 C274.377061,270.162556 280.21572,276.915612 286,282" id="Fill-213" fill="#5447D2" fill-rule="nonzero"></path>
            <path d="M184.077345,153 C184.077345,153 167.588823,163.437344 167.102202,183.976161 C166.615581,204.513716 167.832762,259.281368 171.484303,266.616299 C175.137103,273.949968 177.815403,300.356477 201.432228,289.354712 C214.700503,283.17261 229.079078,263.132554 238.528576,246.323706 C245.898302,233.213259 250,221.873094 250,221.873094 L227.728611,207.44693 L199.728427,240.699712 L198.859551,208.732343 L184.077345,153" id="Fill-214" fill="#6E5FFF" fill-rule="nonzero"></path>
            <path d="M199,241.067422 C199.007346,241.184095 198.012049,241.251309 196.494347,241.681223 C194.975408,242.10099 192.96996,243.017887 191.070974,244.530828 C189.168276,246.038698 187.714947,247.738063 186.69613,248.984687 C185.683502,250.241456 185.08682,251.053093 185.006355,250.997294 C184.939506,250.952906 185.401255,250.047424 186.335891,248.699345 C187.275481,247.363949 188.706528,245.570739 190.678551,244.008337 C192.644385,242.438327 194.788479,241.541723 196.386647,241.227213 C197.988529,240.901291 199.001157,241.002745 199,241.067422" id="Fill-215" fill="#132529" fill-rule="nonzero"></path>
            <path d="M198.999171,240.676764 C198.987754,240.76622 198.514539,240.727882 197.724158,240.690964 C196.515116,240.632746 194.562633,240.57453 192.380522,240.974948 C188.761008,241.595455 186.092996,243.19003 186.002921,242.981302 C185.900159,242.843569 188.518692,240.894014 192.276492,240.245108 C196.027947,239.560704 199.05753,240.509213 198.999171,240.676764" id="Fill-216" fill="#132529" fill-rule="nonzero"></path>
            <path d="M249.996026,222 C250.01778,222.00802 249.949959,222.239975 249.798961,222.675044 C249.61725,223.175311 249.390753,223.800958 249.11179,224.565778 C248.514195,226.207006 247.555741,228.54911 246.294011,231.410287 C243.770548,237.131389 239.82668,244.861082 234.628758,252.905481 C229.418039,260.946117 224.006417,267.760535 219.902593,272.518715 C217.848761,274.899687 216.144272,276.787914 214.928609,278.060524 C214.360446,278.651065 213.895934,279.133779 213.524837,279.51995 C213.197248,279.8497 213.018097,280.015202 213.001461,279.998902 C212.983546,279.983857 213.130705,279.789518 213.425025,279.432184 C213.771809,279.024698 214.204328,278.5144 214.734102,277.89126 C215.888344,276.571006 217.536528,274.637642 219.539173,272.225327 C223.541905,267.400694 228.874189,260.566215 234.065714,252.555669 C239.244441,244.541362 243.236936,236.880628 245.864048,231.222217 C247.178245,228.392383 248.200683,226.08288 248.871217,224.471743 C249.196246,223.72573 249.461134,223.116383 249.673554,222.628653 C249.864222,222.208629 249.975551,221.991721 249.996026,222" id="Fill-217" fill="#132529" fill-rule="nonzero"></path>
            <path d="M199.033834,209.644096 C199.051377,209.644096 199.073934,209.847271 199.101502,210.239909 C199.125311,210.6849 199.156639,211.255784 199.196739,211.968765 C199.260648,213.544305 199.349619,215.738094 199.461146,218.474099 C199.645353,224.111889 199.900989,231.979617 200.201735,241.192287 L199.669163,241.006562 C203.431009,236.569124 207.557513,231.701654 211.882007,226.602339 C217.599964,219.898816 222.975821,213.59541 227.584773,208.191957 L227.74893,208 L227.959453,208.137112 C234.53078,212.411263 240.041973,215.993622 243.970484,218.548887 C245.856421,219.797851 247.358903,220.793783 248.446606,221.514243 C248.924042,221.842064 249.308748,222.106317 249.614508,222.315725 C249.876409,222.500201 250.007985,222.603659 250,222.616123 C249.990441,222.628588 249.843828,222.551306 249.565636,222.391759 C249.247345,222.201048 248.84635,221.96048 248.350117,221.662572 C247.242364,220.974521 245.709805,220.023463 243.788783,218.83059 C239.828945,216.323936 234.273892,212.808888 227.64868,208.614511 L228.022109,208.559666 C223.430701,213.979323 218.076146,220.298933 212.380746,227.021153 C208.04372,232.110496 203.903434,236.966748 200.130309,241.395462 L199.614025,242 L199.597735,241.208491 C199.392224,231.993328 199.216788,224.123107 199.091477,218.484071 C199.052631,215.745573 199.022557,213.551784 199,211.973751 C199,211.26077 199,210.688639 199,210.242403 C199.005013,209.848517 199.017544,209.645342 199.033834,209.644096" id="Fill-218" fill="#132529" fill-rule="nonzero"></path>
            <path d="M317.900074,147 C317.900074,147 331.874567,154.090836 332.488734,187.008238 C333.1029,219.926905 335.558304,258.998547 332.488734,265.767071 C330.170792,270.876012 324.720222,286.307743 314.822935,291.588583 C311.851732,293.174857 309.590541,293.253223 305.533511,292.657897 C292.039505,290.68232 274.327046,274.868873 260.86709,248.908326 C250.626778,229.156366 250,220.000215 250,220.000215 L268.794503,201.025594 L305.475498,246.626871 L306.156505,202.907636 L317.900074,147" id="Fill-219" fill="#6E5FFF" fill-rule="nonzero"></path>
            <path d="M306.383574,203.717971 C306.383574,203.717971 306.405068,203.975828 306.412655,204.476301 C306.416448,205.005987 306.421505,205.745262 306.427826,206.699207 C306.424033,208.68077 306.42024,211.548956 306.413918,215.217386 C306.369666,222.629194 306.307711,233.271202 306.230584,246.317762 L306.226791,247.01766 L305.786788,246.471459 C295.566838,233.770404 282.907909,218.036033 268.950465,200.689736 L269.435985,200.717682 C264.746415,205.46327 259.85581,210.415908 254.864055,215.470163 C253.401172,216.948714 251.94714,218.420913 250.595522,219.788954 L250.682764,219.484098 C254.253361,235.252766 261.137886,249.231675 268.939085,260.667579 C276.761778,272.141589 285.689535,281.051 294.149474,287.129064 C296.242015,288.672396 298.323177,290.026465 300.446065,290.98041 C301.505612,291.456746 302.57148,291.836546 303.633556,292.089322 C304.693103,292.339558 305.758972,292.439906 306.773001,292.56693 C310.864521,292.942918 314.443969,292.098213 316.899386,290.582827 C319.368712,289.069979 320.793665,287.253547 321.687578,286.035394 C322.135167,285.41679 322.456318,284.930292 322.666205,284.600031 C322.877355,284.27104 323,284.110991 323,284.110991 C323,284.110991 322.651032,284.837565 321.792521,286.109067 C320.927688,287.357705 319.522967,289.222407 317.029617,290.797495 C314.548913,292.373854 310.89613,293.274449 306.74392,292.925135 C305.710925,292.805733 304.639999,292.714276 303.546314,292.46531 C302.455158,292.215075 301.364001,291.832735 300.281695,291.355128 C298.110762,290.397372 295.995461,289.038224 293.881425,287.497431 C285.350682,281.442233 276.33189,272.513768 268.448507,261.008001 C260.581561,249.53653 253.638874,235.49919 250.040461,219.627635 L250,219.452343 L250.127702,219.324049 C251.480584,217.954738 252.934616,216.483809 254.396235,215.003988 C259.39052,209.952273 264.284917,205.002177 268.975751,200.257857 L269.231155,200 L269.460008,200.285803 C283.370671,217.666395 295.98914,233.429981 306.176215,246.157711 L305.731156,246.31268 C305.900582,233.267392 306.038399,222.625384 306.134491,215.214846 C306.19771,211.546414 306.24702,208.6795 306.282423,206.697937 C306.306447,205.743992 306.325412,205.004717 306.33932,204.476301 C306.355758,203.974558 306.383574,203.717971 306.383574,203.717971" id="Fill-220" fill="#132529" fill-rule="nonzero"></path>
            <path d="M320.993563,262.998369 C320.904784,263.048265 320.24402,261.949286 319.088633,260.247727 C317.934515,258.543607 316.240117,256.261214 314.147484,253.928925 C312.049778,251.600474 309.974902,249.659671 308.445378,248.285629 C306.913317,246.912867 305.941828,246.083837 306.002705,246.004515 C306.052167,245.936709 307.125117,246.635245 308.745955,247.924848 C310.36299,249.21573 312.512694,251.123269 314.637033,253.482425 C316.7563,255.84286 318.417723,258.205855 319.480526,259.991852 C320.547135,261.777851 321.064585,262.959987 320.993563,262.998369" id="Fill-221" fill="#132529" fill-rule="nonzero"></path>
            <path d="M316.99509,153.001878 C317.083289,153.073522 315.973787,154.45012 314.425852,156.833579 C312.876641,159.213199 310.961856,162.654694 309.427984,166.705166 C307.906893,170.762037 307.074767,174.612928 306.66829,177.423695 C306.257978,180.237021 306.182563,182.003825 306.07008,182 C306.024064,181.998707 306.002334,181.556048 306.001055,180.753885 C305.990829,179.951723 306.05474,178.791338 306.201737,177.364844 C306.490617,174.511858 307.261388,170.584204 308.805486,166.469763 C310.359811,162.361719 312.370462,158.903592 314.035993,156.570029 C314.865564,155.400688 315.585205,154.487221 316.122062,153.891037 C316.651247,153.289735 316.9593,152.972452 316.99509,153.001878" id="Fill-222" fill="#132529" fill-rule="nonzero"></path>
            <path d="M195.969595,187 C195.867072,187.011215 195.629987,185.319682 195.123776,182.613731 C194.62013,179.909038 193.797379,176.194962 192.56069,172.181344 C191.316312,168.168985 189.898925,164.631111 188.786545,162.107656 C187.675447,159.58294 186.914211,158.04747 187.007764,158.000902 C187.047492,157.979507 187.283295,158.33946 187.67673,159.010285 C188.074009,159.678592 188.602004,160.670355 189.215863,161.915092 C190.444862,164.404567 191.94555,167.946216 193.198899,171.991298 C194.44584,176.037639 195.203232,179.8008 195.590259,182.539474 C195.785052,183.910069 195.9068,185.022655 195.955498,185.795424 C196.008041,186.566935 196.01573,186.994853 195.969595,187" id="Fill-223" fill="#132529" fill-rule="nonzero"></path>
            <path d="M322.42318,264 C322.023988,264 321.594479,263.575185 321.345617,263.192481 C321.268557,263.073582 321.190234,262.954685 321.111912,262.835786 C320.969164,262.449366 320.473964,261.454829 319.641474,260.101121 C318.58286,258.372141 316.927986,256.084584 314.817072,253.799505 C312.701107,251.515663 310.559876,249.669021 308.949215,248.41935 C308.144516,247.796371 307.474987,247.317062 307,247 C311.463109,249.381684 315.533343,252.473044 318.998474,256.1205 C320.846627,258.064986 322.584878,260.303001 322.973962,262.933629 C323.024493,263.272985 323.025757,263.676745 322.750365,263.887294 C322.646778,263.96656 322.536874,264 322.42318,264" id="Fill-224" fill="#5447D2" fill-rule="nonzero"></path>
            <path d="M306.543005,246.53293 C306.514921,246.510976 306.485959,246.489023 306.456996,246.467069 C306.47806,246.477607 306.499122,246.489023 306.520187,246.49956 C306.524575,246.508342 306.532474,246.519758 306.543005,246.53293" id="Fill-225" fill="#051317" fill-rule="nonzero"></path>
            <path d="M321,263 C317.11606,256.886533 311.674472,250.469727 306.033086,246.049261 C306.017816,246.029816 306.006363,246.012964 306,246 C306.262152,246.138708 306.523033,246.280006 306.783914,246.425196 C307.262407,246.757054 307.936879,247.258732 308.747518,247.910783 C310.370069,249.218774 312.527106,251.151593 314.658692,253.542017 C316.785188,255.933735 318.452279,258.328047 319.518707,260.137715 C320.357343,261.554598 320.856199,262.595546 321,263" id="Fill-226" fill="#051317" fill-rule="nonzero"></path>
            <path d="M181.668797,256 C181.484564,256 181.300331,255.967862 181.123669,255.897155 C180.453615,255.632329 180.057388,254.885414 180.006912,254.153926 C179.956439,253.423724 180.189885,252.705091 180.462449,252.027598 C181.928743,248.377871 184.6241,245.253942 187.990772,243.308879 C190.610416,241.794481 193.622503,241 196.633327,241 C197.451019,241 198.267451,241.057851 199.076309,241.176123 C199.001859,241.173552 198.917313,241.170981 198.822674,241.170981 C198.358305,241.170981 197.654181,241.223689 196.774656,241.401097 C195.14558,241.719918 192.960021,242.628814 190.956168,244.220346 C188.946008,245.804166 187.487285,247.621957 186.529524,248.97566 C185.576813,250.342218 185.106134,251.260113 185.174275,251.305109 C185.176798,251.30768 185.179323,251.308965 185.183109,251.308965 C185.19068,251.308965 185.200775,251.305109 185.213393,251.297395 C184.935782,251.824477 184.683408,252.365702 184.458794,252.919781 C184.143326,253.697549 183.866976,254.515171 183.328158,255.151525 C182.91174,255.641328 182.285852,256 181.668797,256 M199.830908,241.248115 C199.837219,241.240402 199.843528,241.232688 199.851099,241.224975 L200,241.231403 C199.943216,241.236544 199.887692,241.242972 199.830908,241.248115" id="Fill-227" fill="#5447D2" fill-rule="nonzero"></path>
            <path d="M185.015347,251 C185.011552,251 185.009022,250.998732 185.006492,250.996196 C184.938194,250.951813 185.409958,250.046411 186.364864,248.698452 C187.324831,247.363175 188.786915,245.570124 190.801706,244.007861 C192.810175,242.437991 195.00077,241.541465 196.633599,241.226984 C197.51515,241.05199 198.220896,241 198.686334,241 C198.781192,241 198.865932,241.002536 198.940554,241.005071 C198.959527,241.008876 198.978499,241.011412 198.996206,241.013948 C198.997469,241.034238 198.997469,241.055794 198.998735,241.076084 L199,241.162312 C193.168107,242.005579 187.830742,245.788232 185.045701,250.988588 C185.033053,250.996196 185.022935,251 185.015347,251" id="Fill-228" fill="#051317" fill-rule="nonzero"></path>
            <path d="M199.252505,240.551372 L199.251627,240.491658 C199.250749,240.477607 199.250749,240.462679 199.249872,240.448628 C199.265669,240.450385 199.280589,240.453019 199.296387,240.455653 L199.750129,240.475851 C199.744863,240.48112 199.740475,240.486389 199.736086,240.491658 C199.5746,240.508343 199.413113,240.52854 199.252505,240.551372" id="Fill-229" fill="#051317" fill-rule="nonzero"></path>
        </g>
    </g>
</svg>