<?xml version="1.0" encoding="UTF-8"?>
<svg width="38px" height="42px" viewBox="0 0 30 40" version="1.1" xmlns="http://www.w3.org/2000/svg" xmlns:xlink="http://www.w3.org/1999/xlink">
    <title>insurance</title>
    <defs>
        <linearGradient x1="50%" y1="100%" x2="50%" y2="-4.88281488e-05%" id="linearGradient-1">
            <stop stop-color="#00B59C" offset="0%"></stop>
            <stop stop-color="#9CFFAC" offset="100%"></stop>
        </linearGradient>
        <linearGradient x1="50%" y1="100%" x2="50%" y2="0%" id="linearGradient-2">
            <stop stop-color="#C3FFE8" offset="0%"></stop>
            <stop stop-color="#F0FFF4" offset="99.73%"></stop>
        </linearGradient>
    </defs>
    <g id="Page-1" stroke="none" stroke-width="1" fill="none" fill-rule="evenodd">
        <g id="Earned-Wage-Access-Copy-12" transform="translate(-28.000000, -308.000000)" fill-rule="nonzero">
            <g id="insurance" transform="translate(28.000000, 308.000000)">
                <path d="M28.8461538,6.27851923 C22.4594615,6.27851923 15.8406923,0.358442308 15.7751538,0.299134615 C15.3352308,-0.0997115385 14.6646923,-0.0997115385 14.2248462,0.299134615 C14.1589231,0.358903846 7.55753846,6.27851923 1.15384615,6.27851923 C0.516615385,6.27851923 0,6.79513462 0,7.43236538 L0,21.2506731 C0,32.4448269 8.32584615,36.9179038 14.5884615,39.30875 C14.721,39.3593654 14.8604615,39.3845962 15,39.3845962 C15.1395385,39.3845962 15.279,39.3592885 15.4115385,39.30875 C24.1926154,35.9564423 30,30.7272885 30,21.2506731 L30,7.43236538 C30,6.79513462 29.4833846,6.27851923 28.8461538,6.27851923 Z" id="Path" fill="url(#linearGradient-1)"></path>
                <path d="M15,11.6153654 C10.5463846,11.6153654 6.92307692,15.2386731 6.92307692,19.6922885 C6.92307692,24.1459038 10.5463846,27.7692115 15,27.7692115 C19.4536154,27.7692115 23.0769231,24.1459038 23.0769231,19.6922885 C23.0769231,15.2386731 19.4536154,11.6153654 15,11.6153654 Z M18.1235385,19.3542885 L14.662,22.8158269 C14.4367692,23.0411346 14.1414615,23.1538269 13.8461538,23.1538269 C13.5508462,23.1538269 13.2555385,23.0412115 13.0303077,22.8158269 L11.8764615,21.6619808 C11.4258462,21.2113654 11.4258462,20.4808269 11.8764615,20.0302115 C12.327,19.5795962 13.0576154,19.5795962 13.5082308,20.0302115 L13.8462308,20.3681346 L16.4919231,17.7225192 C16.9424615,17.2719038 17.6730769,17.2719038 18.1236923,17.7225192 C18.5742308,18.1731346 18.5742308,18.9036731 18.1235385,19.3542885 L18.1235385,19.3542885 Z" id="Shape" fill="url(#linearGradient-2)"></path>
            </g>
        </g>
    </g>
</svg>