<?xml version="1.0" encoding="UTF-8"?>
<svg width="30px" height="30px" viewBox="0 0 30 30" version="1.1" xmlns="http://www.w3.org/2000/svg" xmlns:xlink="http://www.w3.org/1999/xlink">
    <title>Interest Free</title>
    <g id="Page-1" stroke="none" stroke-width="1" fill="none" fill-rule="evenodd">
        <g id="Google-Pixel-6-Copy-19" transform="translate(-35.000000, -356.000000)" fill-rule="nonzero">
            <g id="Interest-Free" transform="translate(35.000000, 356.000000)">
                <path d="M27.3248089,3.18325956 C27.0723742,3.02879276 26.7956137,2.91012072 26.5015895,2.83448692 C26.4258954,2.54046278 26.3072837,2.26370221 26.1528169,2.01126761 C25.9647284,1.70390342 25.5242656,1.70390342 25.3361771,2.01126761 C25.1816499,2.26370221 25.0630382,2.54052314 24.9873441,2.83448692 C24.6933803,2.91018109 24.4166197,3.02879276 24.1641247,3.18325956 C23.8567606,3.37134809 23.8567606,3.8117505 24.1641247,3.9998994 C24.4165594,4.1543662 24.6933199,4.27303823 24.9873441,4.34873239 C25.0630382,4.64269618 25.1816499,4.9195171 25.3361167,5.17195171 C25.5242052,5.4793159 25.9646076,5.4793159 26.1527565,5.17195171 C26.3072233,4.9195171 26.425835,4.64275654 26.5015292,4.34873239 C26.795493,4.27303823 27.0723139,4.15442656 27.3247485,3.9998994 C27.632173,3.8117505 27.632173,3.37134809 27.3248089,3.18325956 Z" id="Path" fill="#FCE3A0"></path>
                <g id="Group">
                    <path d="M30,15 C30,21.4707646 25.9026761,26.9846076 20.1609658,29.0885312 C18.551831,29.6781489 16.8134608,30 15,30 C6.71571429,30 0,23.2842857 0,15 C0,6.71571429 6.71571429,0 15,0 C16.8121932,0 18.5492958,0.321368209 20.1575252,0.910201207 C25.9010463,3.01315895 30,8.52790744 30,15 Z" id="Path" fill="#FFCE71"></path>
                    <path d="M10.3219316,15 C10.3219316,8.52923541 14.4157545,3.01412475 20.1574648,0.910201207 C18.54833,0.320523139 16.8135211,4.28899036e-16 15,4.28899036e-16 C6.71571429,4.28899036e-16 0,6.71571429 0,15 C0,23.2842857 6.71571429,30 15,30 C16.8135211,30 18.551831,29.6782093 20.1609658,29.0885312 C14.4192555,26.9846076 10.3219316,21.4707646 10.3219316,15 Z" id="Path" fill="#FFB357"></path>
                </g>
                <g id="Group" transform="translate(4.738422, 13.432678)" fill="#FF8E9E">
                    <path d="M5.53160705,2.21126521 C5.52779548,3.42768372 4.28638703,4.409897 2.75892224,4.40514568 C1.23139709,4.40029942 -0.00379405955,3.41035978 0,2.19388091 C0.00381157425,0.977462397 1.24522002,-0.00481124505 2.77274518,1.66533454e-15 C4.30020996,0.00478634046 5.53540111,0.99478634 5.53160705,2.21126521 L5.53160705,2.21126521 Z" id="Path"></path>
                    <path d="M14.9915493,2.24090304 C14.9877552,3.45732155 16.2229464,4.44732155 17.7504715,4.45210745 C19.2779967,4.45685878 20.5193448,3.4746455 20.5231563,2.25822698 C20.5269504,1.04180847 19.2917593,0.0518084733 17.7642341,0.0469622091 C16.2367693,0.0422108877 14.9953609,1.02442417 14.9915493,2.24090304 Z" id="Path"></path>
                </g>
                <path d="M17.2352254,13.9734205 C17.2395573,12.5952918 16.2415895,12.4626761 15.0100201,12.4588129 C13.7785111,12.4549497 12.7796982,12.5812877 12.7753987,13.9594165 C12.7711268,15.3374849 13.7659557,16.4578068 14.9975252,16.46168 C16.2290342,16.4655332 17.2308652,15.3514889 17.2352254,13.9734205 L17.2352254,13.9734205 Z" id="Path" fill="#4C5659"></path>
                <g id="Group" transform="translate(7.354465, 11.474366)" fill="#313D40">
                    <path d="M1.77477089,0 C1.7728393,0 1.77096807,0 1.76897612,0 C1.29857371,0 0.855937892,0.182474849 0.522074713,0.514285714 C0.186883566,0.847364185 0.00145097033,1.29108652 8.32667268e-16,1.76366197 C-0.000782430073,2.01368209 0.201249763,2.21698189 0.451330246,2.2177666 L0.452778938,2.2177666 C0.702135075,2.2177666 0.904650166,2.01597586 0.905495236,1.76643863 C0.906219582,1.53573441 0.996762842,1.31909457 1.16040469,1.15647887 C1.32404654,0.993863179 1.54376485,0.905251509 1.77199423,0.905432596 C2.00269846,0.906156942 2.21933829,0.996700201 2.38195399,1.16034205 C2.54456968,1.3239839 2.63372461,1.541167 2.63300027,1.77187123 C2.63221556,2.02189135 2.83424775,2.22519115 3.08432823,2.22597586 L3.08577693,2.22597586 C3.33513306,2.22597586 3.53770852,2.02418511 3.53850116,1.77464789 C3.54139061,0.799195171 2.75022361,0.00307847082 1.77477089,0 L1.77477089,0 Z" id="Path"></path>
                    <path d="M13.5424369,0.0368812877 C13.5405053,0.0368812877 13.5386944,0.0368812877 13.5368232,0.0368812877 C12.5639057,0.0368812877 11.7708071,0.826901408 11.7677264,1.8004829 C11.7669439,2.05050302 11.9689761,2.25386318 12.2189962,2.25464789 C12.4701029,2.25338028 12.6723765,2.0534004 12.6731612,1.80338028 C12.6746703,1.32802817 13.0618333,0.942313883 13.5368232,0.942313883 L13.5395395,0.942313883 C14.0158574,0.943822938 14.402115,1.33249497 14.4006059,1.80875252 C14.3998212,2.05877264 14.6018534,2.26207243 14.8519339,2.26285714 L14.8533826,2.26285714 C15.1027387,2.26285714 15.3053141,2.0610664 15.3061075,1.81152918 C15.309117,0.836076459 14.51795,0.0399597586 13.5424369,0.0368812877 L13.5424369,0.0368812877 Z" id="Path"></path>
                </g>
                <g id="Group" transform="translate(1.528415, 22.606886)" fill="#FCE3A0">
                    <path d="M5.56721831,2.30253018 C5.15283199,2.04888833 4.69842555,1.85415996 4.21576962,1.72993461 C4.0914839,1.24727867 3.89675553,0.792872233 3.64317404,0.378425553 C3.33436117,-0.126141851 2.6112827,-0.126141851 2.30253018,0.378425553 C2.04888833,0.792872233 1.85415996,1.24727867 1.72987425,1.72993461 C1.24721831,1.85415996 0.792932596,2.04888833 0.378425553,2.30253018 C-0.126141851,2.61134306 -0.126141851,3.33436117 0.378425553,3.64317404 C0.792811871,3.8968159 1.24721831,4.09154427 1.72993461,4.21582998 C1.85422032,4.69848592 2.04888833,5.15283199 2.30253018,5.56727867 C2.6112827,6.07184608 3.33436117,6.07184608 3.64317404,5.56727867 C3.89675553,5.15283199 4.0914839,4.69848592 4.21576962,4.21582998 C4.69842555,4.09154427 5.15277163,3.8968159 5.56721831,3.64317404 C6.07184608,3.33436117 6.07184608,2.61134306 5.56721831,2.30253018 Z" id="Path"></path>
                    <path d="M28.2410614,5.17395875 C27.9886268,5.01949195 27.7118662,4.90081992 27.4178421,4.82518612 C27.3421479,4.53116197 27.2235362,4.25440141 27.0690694,4.0019668 C26.8809809,3.69460262 26.4405181,3.69460262 26.2524296,4.0019668 C26.0979024,4.25440141 25.9792907,4.53122233 25.9035966,4.82518612 C25.6096328,4.90088028 25.3328722,5.01949195 25.0803773,5.17395875 C24.7730131,5.36204728 24.7730131,5.8024497 25.0803773,5.99059859 C25.3328119,6.14506539 25.6095724,6.26373742 25.9035966,6.33943159 C25.9792907,6.63339537 26.0979024,6.9102163 26.2523692,7.16265091 C26.4404577,7.47001509 26.8808602,7.47001509 27.0690091,7.16265091 C27.2234759,6.9102163 27.3420875,6.63345573 27.4177817,6.33943159 C27.7117455,6.26373742 27.9885664,6.14512575 28.241001,5.99059859 C28.5484256,5.8024497 28.5484256,5.36204728 28.2410614,5.17395875 Z" id="Path"></path>
                </g>
            </g>
        </g>
    </g>
</svg>