<?xml version="1.0" encoding="UTF-8"?>
<svg width="80%" height="40%" viewBox="0 0 290 217" version="1.1" xmlns="http://www.w3.org/2000/svg" xmlns:xlink="http://www.w3.org/1999/xlink">
    <title>Group 7</title>
    <g id="Page-1" stroke="none" stroke-width="1" fill="none" fill-rule="evenodd">
        <g id="Earned-Wage-Access-Copy-10" transform="translate(28.000000, -60.000000)">
            <g id="Group-7" transform="translate(-27.955726, 60.175129)">
                <polygon id="Fill-5" fill="#C0D8FB" points="241.463803 40.5621603 251.161625 48.6451469 209.364298 92.3992706 172.727016 60.9411815 26.4804085 180.772951 26.4804085 194.692615 27.9557258 215.983434 172.367058 92.1637657 210.993685 125.327829 269.578871 63.995086 280.046393 72.7183395 289.769106 24.5868887"></polygon>
                <path d="M47.1055675,140.909239 C47.0538713,140.798762 46.9906871,140.698242 46.9160148,140.606912 L46.9160148,140.605954 C46.8604892,140.538175 46.797305,140.475565 46.7302914,140.418316 L46.4507491,140.134753 L46.3760768,140.18913 C44.9458155,139.488551 41.991474,140.231061 39.0026683,142.182688 C35.389679,144.541183 33.0710091,147.788661 33.7392303,149.51474 L33.6377526,149.589986 L34.0379194,149.990345 C34.0570661,150.01064 34.0781275,150.030361 34.0972743,150.049508 L34.1087623,150.060996 L34.1125916,150.063294 C34.2140694,150.156538 34.3308645,150.237146 34.4610623,150.305117 L34.4629769,150.306649 L34.4629769,150.306457 C35.8760061,151.046479 38.8628971,150.309712 41.8842523,148.336832 C45.5642551,145.934108 47.9020717,142.608703 47.1055675,140.909239" id="Fill-25" fill="#FFA412"></path>
                <path d="M38.5718667,141.752844 C42.2518696,139.35012 45.8801763,138.780121 46.6766806,140.479586 C47.4731848,142.178859 45.1334536,145.504264 41.4534507,147.906988 C37.7734478,150.309712 34.1451411,150.87971 33.3486368,149.180246 C32.5540472,147.480782 34.8918639,144.155568 38.5718667,141.752844" id="Fill-26" fill="#FFB93E"></path>
                <path d="M44.1052738,140.390553 C42.7707462,140.390553 40.8101203,141.118895 38.9241667,142.354243 C37.4096598,143.345469 36.1076817,144.537545 35.2575665,145.710474 C34.4400009,146.838792 34.1336531,147.842846 34.4189394,148.464733 C34.5529666,148.758635 34.8152769,148.963314 35.1943823,149.072833 C35.4069111,149.134102 35.6519893,149.16378 35.9219583,149.16378 C37.2564859,149.163971 39.2151971,148.435438 41.1030654,147.200091 C42.6156576,146.208864 43.9176357,145.016788 44.7696655,143.843668 C45.5872312,142.71535 45.893579,141.711678 45.6082926,141.089601 C45.4723508,140.795507 45.2119552,140.59102 44.8309351,140.4815 C44.6184063,140.420231 44.3752428,140.390553 44.1052738,140.390553 Z M35.929617,149.434706 C35.6309279,149.434706 35.3590442,149.401199 35.11971,149.33208 C34.6601883,149.199967 34.3423525,148.94589 34.1738612,148.577124 C33.840708,147.85376 34.1489704,146.779245 35.0392937,145.552131 C35.9085556,144.352971 37.2354245,143.137153 38.7767368,142.128311 C41.1413589,140.579149 43.5481037,139.830894 44.9056074,140.222062 C45.3651291,140.354366 45.6829649,140.608252 45.8533709,140.977209 C46.1846094,141.700573 45.8782616,142.774897 44.9879383,144.002202 C44.1186765,145.201171 42.7898929,146.41718 41.2504953,147.425831 C39.3013574,148.701961 37.3254141,149.434706 35.929617,149.434706 L35.929617,149.434706 Z" id="Fill-27" fill="#FFA412"></path>
                <path d="M8.10117483,94.7797706 C8.07111446,94.7154376 8.03377832,94.6568486 7.99031522,94.6036206 L7.98974082,94.6032377 C7.95738284,94.563604 7.92138697,94.5272252 7.88194469,94.4939098 L7.71919743,94.328865 L7.67630874,94.3604571 C6.8432342,93.9524401 5.12251693,94.3847734 3.38188706,95.5211323 C1.27823505,96.8947192 -0.0723757881,98.785651 0.317260313,99.7908547 L0.257905428,99.8347007 L0.491878556,100.067716 L0.526342683,100.102181 L0.533044041,100.108882 L0.534958714,100.110222 C0.594313599,100.164408 0.661901582,100.211508 0.737339726,100.251142 L0.73848853,100.251908 L0.738679997,100.251717 C1.56122383,100.68271 3.30032196,100.253631 5.06009857,99.1048271 C7.20300139,97.705775 8.56452587,95.769274 8.10117483,94.7797706" id="Fill-28" fill="#FFA412"></path>
                <path d="M3.13163921,95.2708844 C5.27454203,93.8718324 7.38757594,93.5398279 7.85092698,94.5295228 C8.31427802,95.5190261 6.95275354,97.4555271 4.80965925,98.8545792 C2.66675643,100.253631 0.553913984,100.585636 0.0905629451,99.5961324 C-0.372979561,98.6064375 0.988544917,96.6699365 3.13163921,95.2708844" id="Fill-29" fill="#FFB93E"></path>
                <path d="M6.35346067,94.4776351 C5.57629461,94.4776351 4.4349576,94.9019268 3.33650929,95.6212697 C2.45518498,96.1985439 1.69678272,96.8926131 1.20145663,97.5755772 C0.724894347,98.2326932 0.546829691,98.8170516 0.71302337,99.1793079 C0.791524992,99.3504797 0.943550085,99.4697639 1.1646949,99.5335225 C1.28876576,99.5691355 1.43102601,99.5863676 1.58783779,99.5863676 C2.36500385,99.586559 3.50634085,99.1622673 4.60498063,98.4429244 C5.48630494,97.8658417 6.24451573,97.171581 6.74003329,96.4886169 C7.21640411,95.8315009 7.39446876,95.246951 7.22827509,94.8848862 C7.14977346,94.7135229 6.99774837,94.5944302 6.77660356,94.5306716 C6.65272417,94.4950586 6.51046391,94.4776351 6.35346067,94.4776351 Z M1.59300741,99.744138 C1.41915504,99.7443281 1.26062005,99.724607 1.12123181,99.6845903 C0.854134822,99.6074289 0.66860294,99.4596161 0.570188711,99.2447897 C0.376998133,98.8235615 0.555828658,98.1978461 1.07413083,97.4832899 C1.58056203,96.7851999 2.35332434,96.0771535 3.25034898,95.4897316 C4.62814818,94.5875374 6.02930641,94.1519491 6.82006665,94.3796038 C7.0873551,94.4565737 7.27269552,94.604578 7.37110975,94.8192129 C7.56449179,95.2406326 7.3854698,95.8661565 6.86716762,96.5809042 C6.36092789,97.2789942 5.58797411,97.9870406 4.69094948,98.5744625 C3.55631384,99.3175473 2.40540347,99.744138 1.59300741,99.744138 L1.59300741,99.744138 Z" id="Fill-30" fill="#FFA412"></path>
                <path d="M43.3087695,108.160851 C43.347063,108.07852 43.3949298,108.003848 43.4504554,107.935877 L43.4504554,107.935111 C43.4925782,107.884755 43.5385303,107.838228 43.5883119,107.795531 L43.7970113,107.584725 L43.8506222,107.625125 C44.9151807,107.104142 47.1132262,107.656334 49.3361624,109.107848 C52.0243643,110.862072 53.7494853,113.277433 53.2516701,114.561222 L53.3263424,114.617131 L53.0276533,114.914862 L52.9836158,114.9589 L52.9759571,114.967324 L52.9721277,114.969239 C52.8974555,115.03855 52.8112951,115.09848 52.7136468,115.149027 L52.7136468,115.150176 L52.7117321,115.149984 C51.6624909,115.700453 49.4414694,115.152473 47.1936425,113.685067 C44.4556591,111.898102 42.7171353,109.424727 43.3087695,108.160851" id="Fill-31" fill="#FFA412"></path>
                <path d="M49.6559129,108.788098 C46.9198441,107.001133 44.2201542,106.577224 43.62852,107.8411 C43.0368858,109.105168 44.7754096,111.578352 47.513393,113.365508 C50.2494617,115.152473 52.9491517,115.576574 53.5407858,114.312506 C54.13242,113.048438 52.3938963,110.575063 49.6559129,108.788098" id="Fill-32" fill="#FFB93E"></path>
                <path d="M45.0013411,107.842632 C44.7179694,107.924006 44.5245873,108.076222 44.4231096,108.294878 C44.2105808,108.757463 44.438427,109.504186 45.0472932,110.343387 C45.6810502,111.215904 46.6479605,112.102398 47.7737886,112.839548 C49.1772444,113.758399 50.6362258,114.300252 51.6280268,114.300252 C51.8290675,114.300252 52.0109615,114.278042 52.1679648,114.232473 C52.4513365,114.151099 52.6447185,113.998882 52.7461962,113.780227 C52.9568103,113.317642 52.7308789,112.570919 52.1220126,111.731717 C51.4882556,110.8592 50.5213454,109.972707 49.3936026,109.235557 C47.9920614,108.316705 46.53308,107.774853 45.5412791,107.774853 C45.3402383,107.774853 45.1583443,107.797063 45.0013411,107.842632 Z M47.6646522,113.007656 C46.5196773,112.257295 45.5317057,111.352995 44.884546,110.46114 C44.2220689,109.548415 43.9942227,108.749422 44.2412156,108.211207 C44.3675841,107.937025 44.6030889,107.748047 44.9458155,107.649633 C45.9548486,107.358794 47.7450685,107.915198 49.5046536,109.067449 C50.6496285,109.817809 51.6376002,110.72211 52.2847599,111.613965 C52.9453223,112.52669 53.1750832,113.325683 52.9280902,113.863898 C52.8017218,114.138079 52.5662169,114.327058 52.2234903,114.425472 C52.0454257,114.476785 51.8443849,114.501676 51.6222828,114.501676 C50.5845296,114.501676 49.1140602,113.95676 47.6646522,113.007656 L47.6646522,113.007656 Z" id="Fill-33" fill="#FFA412"></path>
                <path d="M51.3561431,50.8280526 C53.0812641,52.6988803 55.5550226,54.6775041 57.3088637,54.7022034 C59.2982097,54.7303491 60.4240378,55.46118 60.4240378,55.46118 L61.4656203,54.1071228 L62.7082436,52.4886491 C62.7082436,52.4886491 62.5952778,52.3232213 62.3942371,52.060528 C62.195111,51.7987921 60.7878258,50.6151409 60.7629351,49.6802057 C60.739959,48.7466108 60.1655569,47.5229428 59.3307591,46.9755376 C58.4940467,46.4294726 57.2207887,44.7612174 56.9278436,44.9461749 C56.2174997,45.3905707 58.4136304,47.501307 58.2834326,48.1132367 C58.1647229,48.6669604 57.7339213,48.6700238 57.6515903,48.6652371 L57.6362729,48.6633225 C55.1069889,48.5997553 50.4275264,44.5871736 49.5582645,45.743828 C49.2346846,46.1769272 50.6209084,50.0311654 51.3561431,50.8280526" id="Fill-710" fill="#FFB27D"></path>
                <path d="M164.208927,30.9981598 C162.849508,22.5799139 158.754021,13.3251471 158.754021,13.3251471 L154.292831,13.1218087 C154.292831,13.1218087 154.788732,24.5261798 154.677681,32.5013702 C154.625985,36.3326323 152.950645,39.7968514 152.494953,40.4103129 C151.110644,42.2629512 130.71171,61.8956325 130.030086,62.5213479 L130.012854,62.5376226 L130.016683,62.5397288 C127.845443,62.9088778 128.086692,66.4749576 125.856097,67.0731017 C122.137801,68.0700723 115.962978,66.2536214 112.658251,67.4780552 C112.658251,67.4780552 86.17257,67.5079241 82.1421818,65.5777415 C78.1098789,63.647559 62.3942371,52.060528 62.3942371,52.060528 L59.483933,55.4510323 C59.483933,55.4510323 70.2712048,76.2185407 78.8240522,79.954835 C83.478624,81.9886014 93.7029817,84.4363203 102.054788,86.2447296 C105.357601,86.9598602 108.00368,89.4087279 109.005054,92.6359105 C116.862875,117.972788 112.907159,139.339206 112.907159,139.339206 C112.907159,139.339206 120.437571,140.18262 129.811813,137.578855 C142.000626,134.193138 150.903859,128.708363 150.903859,128.708363 C154.338784,124.543948 152.309229,109.274617 152.309229,109.274617 C152.309229,109.274617 154.679595,111.835684 155.474185,116.11364 C156.046672,119.195881 156.354935,120.900707 156.544488,121.983072 C156.724467,123.001104 157.911565,123.476709 158.742533,122.861524 C160.504033,121.557248 163.017999,119.526737 163.803016,118.036163 C166.546743,112.828634 160.444678,91.6199846 152.016284,76.82128 C150.511351,74.1759668 150.564962,70.9231276 152.175202,68.3400413 C157.360139,60.0226987 165.330925,46.8319371 165.428574,44.1837518 C165.482185,42.7494698 164.993943,35.8369233 164.208927,30.9981598" id="Fill-717" fill="#2B478B"></path>
                <polyline id="Fill-723" fill="#233862" points="62.3942371 52.060528 59.483933 55.4510323 60.3378775 58.7605458 61.5230605 57.9479582 60.9390851 55.46118 62.9782126 57.1353707 65.6185476 53.6481755 62.3942371 52.060528"></polyline>
                <path d="M191.291986,158.212145 C191.353256,158.080798 191.429843,157.961131 191.519832,157.852378 L191.519832,157.851229 C191.586846,157.770621 191.659604,157.69614 191.74002,157.627978 L192.073173,157.290612 L192.161248,157.355328 C193.863393,156.52168 197.380649,157.40511 200.936198,159.727418 C205.23464,162.534138 207.9956,166.399481 207.199095,168.452011 L207.31972,168.542001 L206.842966,169.018755 C206.81999,169.041731 206.795099,169.066622 206.772123,169.089598 L206.758721,169.103 L206.754891,169.104915 C206.632352,169.215966 206.494496,169.3117 206.341322,169.392116 L206.337492,169.394031 C204.656409,170.274781 201.102774,169.39786 197.507017,167.05047 C193.128158,164.191479 190.346137,160.234423 191.291986,158.212145" id="Fill-13" fill="#FFA412"></path>
                <path d="M201.447416,159.216008 C197.068557,156.357018 192.750968,155.678649 191.803204,157.700736 C190.857355,159.723014 193.639376,163.68007 198.018235,166.539252 C202.397094,169.39786 206.716598,170.077569 207.662446,168.053759 C208.61021,166.031864 205.828189,162.075191 201.447416,159.216008" id="Fill-14" fill="#FFB93E"></path>
                <path d="M193.999335,157.703225 C193.547472,157.833614 193.237295,158.076969 193.076462,158.42678 C192.737565,159.166993 193.101353,160.361558 194.074007,161.704127 C195.08687,163.100115 196.635841,164.518314 198.437549,165.698711 C200.681546,167.167265 203.015533,168.034613 204.602798,168.034613 C204.922548,168.034613 205.213579,168.000148 205.466316,167.925476 C205.920093,167.795278 206.230271,167.552115 206.391103,167.203644 C206.73,166.462665 206.366212,165.267909 205.391643,163.925531 C204.380696,162.529734 202.82981,161.111152 201.030017,159.931713 C198.784104,158.461627 196.452032,157.595046 194.864767,157.595046 C194.543102,157.595046 194.252072,157.630276 193.999335,157.703225 Z M198.261399,165.966765 C196.429056,164.766265 194.84945,163.319537 193.813612,161.892722 C192.754797,160.432401 192.389094,159.153973 192.783517,158.292944 C192.986472,157.854101 193.363663,157.551965 193.91126,157.394579 C195.527244,156.929122 198.389682,157.819445 201.204252,159.662893 C203.038509,160.863394 204.618115,162.310313 205.652039,163.736936 C206.710854,165.197258 207.076556,166.476068 206.682134,167.335757 C206.481093,167.776132 206.101987,168.07865 205.556305,168.235653 C205.271019,168.317984 204.947439,168.356278 204.593225,168.356278 C202.931288,168.356278 200.580068,167.485101 198.261399,165.966765 L198.261399,165.966765 Z" id="Fill-15" fill="#FFA412"></path>
                <path d="M217.743204,55.4655838 C217.787241,55.3723392 217.840852,55.2873277 217.904036,55.2101663 L217.904036,55.209209 C217.951903,55.1521517 218.003599,55.0993067 218.061039,55.0508654 L218.296544,54.8113398 L218.359729,54.8572919 C219.567888,54.2654663 222.064622,54.8927134 224.590077,56.5412475 C227.642067,58.5338484 229.600778,61.2773844 229.035949,62.7354084 L229.122109,62.7989756 L228.783212,63.1372984 L228.731516,63.1870799 L228.721943,63.1968448 L228.720028,63.1987594 C228.633868,63.277644 228.536219,63.3456149 228.425168,63.4030551 L228.423254,63.4043954 L228.423254,63.4042039 C227.230412,64.0293449 224.706872,63.4068845 222.154612,61.7403525 C219.045182,59.7106069 217.071153,56.9012061 217.743204,55.4655838" id="Fill-16" fill="#FFA412"></path>
                <path d="M224.95195,56.1782253 C221.844435,54.1484797 218.779042,53.6669393 218.105077,55.1025616 C217.433026,56.538184 219.40897,59.3473933 222.5184,61.3771389 C225.62783,63.4068845 228.693223,63.8886164 229.365273,62.4528026 C230.037324,61.0171802 228.06138,58.2079709 224.95195,56.1782253" id="Fill-17" fill="#FFB93E"></path>
                <path d="M219.663621,55.1042848 C219.343871,55.1967636 219.123683,55.3696586 219.008803,55.6179918 C218.767554,56.1433783 219.026035,56.9913873 219.717232,57.9447033 C220.43715,58.9355469 221.536172,59.9426653 222.815174,60.7799521 C224.408183,61.8236408 226.064376,62.4390169 227.192118,62.4390169 C227.419965,62.4390169 227.626749,62.4137432 227.806729,62.362047 C228.126479,62.2695683 228.346667,62.0966733 228.461547,61.8483401 C228.702796,61.3229536 228.444315,60.4747531 227.753118,59.5216286 C227.0332,58.5307849 225.934178,57.5236666 224.655176,56.6863797 C223.062167,55.6426911 221.405974,55.027315 220.278232,55.027315 C220.050385,55.027315 219.843601,55.0525887 219.663621,55.1042848 Z M222.69072,60.9708451 C221.388742,60.1186238 220.266744,59.0914014 219.533424,58.078539 C218.780957,57.0417432 218.520561,56.1341878 218.802018,55.5228325 C218.945619,55.2115066 219.213673,54.9968717 219.600437,54.8850547 C220.749241,54.554582 222.78071,55.1868073 224.77963,56.4954868 C226.081608,57.347708 227.203606,58.3749305 227.936926,59.3877929 C228.689393,60.4245887 228.949789,61.332144 228.668332,61.9433079 C228.526646,62.2548253 228.256677,62.4694602 227.869913,62.5810857 C227.666957,62.6394833 227.437197,62.6678204 227.18446,62.6678204 C226.006935,62.6678204 224.33734,62.0488064 222.69072,60.9708451 L222.69072,60.9708451 Z" id="Fill-18" fill="#FFA412"></path>
                <path d="M228.903837,136.913889 C228.859799,136.817772 228.804274,136.730463 228.73726,136.651004 L228.739175,136.650813 L228.73726,136.650238 C228.689393,136.591266 228.635782,136.53689 228.576427,136.486917 L228.333264,136.240498 L228.27008,136.287599 C227.025542,135.678541 224.45605,136.324169 221.855923,138.021145 C218.715858,140.071952 216.699706,142.895904 217.279853,144.396625 L217.191778,144.462107 L217.542163,144.810195 C217.55748,144.82781 217.574712,144.84485 217.591944,144.8617 L217.603432,144.871464 L217.605347,144.87357 C217.693422,144.954753 217.7949,145.024638 217.907866,145.083802 L217.90978,145.085142 L217.90978,145.08495 C219.139001,145.728472 221.735298,145.087822 224.362231,143.372275 C227.563565,141.283174 229.595034,138.391634 228.903837,136.913889" id="Fill-19" fill="#FFA412"></path>
                <path d="M221.482561,137.6474 C224.683896,135.5583 227.837363,135.062591 228.530475,136.540145 C229.221673,138.01789 227.188289,140.90943 223.988869,142.998531 C220.789449,145.087822 217.634067,145.583532 216.94287,144.105786 C216.249758,142.628041 218.283142,139.736692 221.482561,137.6474" id="Fill-20" fill="#FFB93E"></path>
                <path d="M226.294136,136.462792 C225.133844,136.462792 223.429785,137.096357 221.788909,138.170298 C220.473528,139.032284 219.340041,140.068697 218.600977,141.088835 C217.888719,142.069914 217.622579,142.942622 217.871487,143.483517 C217.988282,143.739126 218.216128,143.917191 218.545452,144.01235 C218.731175,144.065578 218.943704,144.091426 219.177294,144.091426 C220.337586,144.091426 222.041646,143.458052 223.682521,142.38392 C224.999817,141.521934 226.131389,140.485521 226.870453,139.465575 C227.582712,138.484496 227.848851,137.611596 227.599944,137.070701 C227.483149,136.815092 227.257217,136.637219 226.925979,136.542059 C226.740255,136.48864 226.527727,136.462792 226.294136,136.462792 Z M219.184953,144.326932 C218.926472,144.327123 218.689052,144.297828 218.480353,144.237899 C218.082101,144.122827 217.804473,143.902065 217.658958,143.581357 C217.369842,142.952195 217.637897,142.018026 218.411425,140.950978 C219.167721,139.908439 220.320354,138.851156 221.660626,137.974044 C223.716986,136.626879 225.809724,135.976273 226.991078,136.316511 C227.38933,136.431391 227.666957,136.652344 227.814387,136.973052 C228.101588,137.602023 227.835449,138.536192 227.061921,139.60324 C226.305624,140.645971 225.151076,141.703062 223.810805,142.580366 C222.116318,143.689919 220.398856,144.326932 219.184953,144.326932 L219.184953,144.326932 Z" id="Fill-21" fill="#FFA412"></path>
                <path d="M192.651405,79.5424143 C192.67821,79.4842082 192.712674,79.4307888 192.750968,79.382539 L192.750968,79.3819646 C192.781602,79.3461602 192.814152,79.3132278 192.850531,79.2827845 L192.997961,79.1328656 L193.036254,79.1615857 C193.79255,78.7910963 195.356839,79.1837959 196.936444,80.2159965 C198.849203,81.4635979 200.074595,83.1812517 199.72038,84.0943596 L199.775905,84.1339933 L199.563377,84.3459477 L199.530827,84.3771569 L199.525083,84.3832838 L199.523169,84.3844326 C199.469558,84.4336397 199.408288,84.476337 199.33936,84.5123328 L199.337445,84.5130987 L199.337445,84.5129072 C198.590722,84.904458 197.011117,84.5148219 195.412364,83.4711333 C193.467056,82.2003643 192.230176,80.4413536 192.651405,79.5424143" id="Fill-22" fill="#FFA412"></path>
                <path d="M197.164291,79.9887247 C195.218982,78.7177643 193.298564,78.4162032 192.877336,79.3151425 C192.456108,80.2140818 193.692987,81.9730926 195.64021,83.2438615 C197.587433,84.5148219 199.505936,84.8161916 199.927165,83.9174437 C200.348393,83.0185044 199.111514,81.2594937 197.164291,79.9887247" id="Fill-23" fill="#FFB93E"></path>
                <path d="M193.85382,79.3162913 C193.652779,79.3741145 193.514922,79.4822935 193.444079,79.6379565 C193.29282,79.9668974 193.453653,80.4978365 193.886369,81.0946403 C194.336317,81.715186 195.0256,82.3456881 195.825934,82.8699257 C196.823479,83.5234039 197.861232,83.9088277 198.567746,83.9086363 C198.709432,83.9086363 198.83963,83.8929359 198.950681,83.8605779 C199.151722,83.8025633 199.289578,83.6943842 199.362336,83.5389127 C199.51168,83.2099718 199.350848,82.6788413 198.918132,82.0820375 C198.468183,81.4616832 197.778901,80.8311811 196.978567,80.3069435 C195.981022,79.6532739 194.943269,79.2680415 194.238669,79.2680415 C194.095069,79.2680415 193.966785,79.2839333 193.85382,79.3162913 Z M195.747432,82.9894014 C194.933696,82.4557818 194.23101,81.8126429 193.771489,81.178503 C193.300479,80.5294286 193.137732,79.9611534 193.313882,79.5784101 C193.403871,79.3833049 193.572363,79.2490863 193.813612,79.1790092 C194.533529,78.9722244 195.804872,79.3679875 197.057069,80.1872764 C197.870805,80.7208959 198.57349,81.3640348 199.033012,81.9983662 C199.504022,82.6474406 199.666769,83.2157158 199.490619,83.5982676 C199.402544,83.7933729 199.234053,83.9277829 198.990889,83.9976685 C198.864521,84.0342388 198.72092,84.0520453 198.562002,84.0520453 C197.824853,84.0518538 196.779441,83.6643238 195.747432,82.9894014 L195.747432,82.9894014 Z" id="Fill-24" fill="#FFA412"></path>
                <path d="M62.5206056,181.014186 C62.5206056,181.014186 61.9978996,178.437035 67.9276441,170.508371 C69.2066462,168.798567 73.1087512,162.357414 73.1087512,162.357414 C74.6519782,161.982712 79.4539799,164.535355 80.7214939,165.313861 C80.9761455,165.470864 81.1235754,165.564683 81.1235754,165.564683 C81.1235754,165.564683 83.1780203,174.475575 78.8106495,173.464627 C78.6747077,173.432078 78.5387659,173.407187 78.402824,173.384211 C74.1790538,172.727478 70.1027135,176.916784 68.251224,179.57818 C67.0449795,181.307131 63.3228538,181.085029 62.5206056,181.014186" id="Fill-705" fill="#233862"></path>
                <path d="M93.8216914,163.698451 C93.8216914,163.698451 93.2989855,161.122258 99.2306447,153.193211 C100.509647,151.483024 104.411752,145.042062 104.411752,145.042062 C105.953064,144.66736 110.75698,147.220003 112.02258,147.997744 C112.277231,148.154938 112.424661,148.249523 112.424661,148.249523 C112.424661,148.249523 114.479106,157.159457 110.11365,156.149084 C109.975794,156.116535 109.839852,156.091261 109.70391,156.069625 C105.482054,155.411552 101.405714,159.602007 99.5523099,162.262446 C98.3460654,163.991779 94.6239397,163.76872 93.8216914,163.698451" id="Fill-706" fill="#233862"></path>
                <path d="M160.632316,119.593559 C159.418413,114.381243 145.929537,98.1296838 139.019479,101.893932 C132.111336,105.657989 135.695606,126.100195 142.896693,150.208043 C143.007744,150.575852 143.118796,150.941363 143.233676,151.304577 C128.71662,148.921191 111.438604,148.197636 111.438604,148.197636 L109.619664,156.592331 C122.700715,160.207043 148.114179,172.769601 158.771253,178.178554 C162.845679,180.026214 167.632363,180.026214 168.606932,176.441945 C171.869536,164.438664 160.632316,119.593559 160.632316,119.593559" id="Fill-707" fill="#ED7D2B"></path>
                <path d="M134.874211,194.692615 C134.874211,194.692615 103.996268,180.759534 85.1692809,175.128479 C82.8352937,174.433452 80.6927738,173.866709 78.8125642,173.464627 L80.7923368,165.390448 C80.7923368,165.390448 82.6380823,165.357899 85.6307173,165.361728 C97.3542644,165.394277 126.708127,166.051011 131.954333,171.804605 C138.535067,179.030584 134.874211,194.692615 134.874211,194.692615" id="Fill-708" fill="#FFB27D"></path>
                <path d="M158.206424,3.70257137 C159.221202,6.03732449 160.031108,9.0992707 159.343741,10.7141065 C158.566383,12.544726 158.780827,13.8687229 158.780827,13.8687229 L157.120804,14.2746337 L155.137202,14.7578974 C155.137202,14.7578974 155.031895,14.5878744 154.872978,14.2978013 C154.71406,14.0100258 154.503445,13.5989454 154.292831,13.1212343 C154.292831,13.1212343 154.200927,12.2445052 153.354641,11.8439555 C152.51027,11.4443631 151.623776,10.4253737 151.461029,9.43912528 C151.298282,8.45421712 150.287334,6.61459862 150.574535,6.42159951 C151.269562,5.95212151 152.311144,8.81340991 152.92384,8.94111865 C153.479095,9.05676494 153.655245,8.66425683 153.683965,8.58728695 L153.689709,8.57216103 C154.65279,6.23377002 152.874058,0.331596825 154.283258,0.00380468474 C154.809793,-0.117777096 157.775623,2.70789837 158.206424,3.70257137" id="Fill-709" fill="#FFB27D"></path>
                <path d="M126.060967,123.484942 C118.444395,125.460119 120.35524,134.618004 121.492556,159.753074 C121.622754,162.597322 121.886979,165.344496 122.262255,167.96377 C111.099707,165.721687 93.9384865,165.384704 85.6307173,165.361728 C85.6307173,165.361728 84.2521522,168.43095 84.3115071,170.883647 C84.4378756,176.104962 87.1050161,179.557119 87.1050161,179.557119 C105.932003,185.188174 134.874211,194.692615 134.874211,194.692615 L134.87804,194.669639 C136.808031,195.171283 138.625056,194.206288 140.06872,191.441499 C145.826144,180.414893 155.677403,107.040192 155.677403,107.040192 C155.765215,101.689062 133.675625,121.509573 126.060967,123.484942" id="Fill-711" fill="#F99746"></path>
                <path d="M113.627076,67.1569644 C113.627076,67.1569644 116.305705,60.3681058 111.099707,50.6852179 L118.501836,52.3291568 L123.531683,53.445603 C123.531683,53.445603 124.362652,55.1603848 125.450187,58.3475507 C125.737388,59.1859863 126.800032,62.5494936 127.112123,63.5893529 C128.879367,63.6640252 126.330936,66.3418878 122.700715,66.869189 C118.662668,67.455845 113.627076,67.1569644 113.627076,67.1569644" id="Fill-712" fill="#FFB27D"></path>
                <path d="M123.531683,53.445603 C123.531683,53.445603 124.362652,55.1603848 125.450187,58.3475507 C121.130683,59.636509 113.424121,55.4362893 113.424121,55.4362893 C115.162645,53.8467272 116.885851,52.8622019 118.501836,52.3291568 L123.531683,53.445603" id="Fill-713" fill="#ED975D"></path>
                <path d="M126.855557,50.913447 C126.855557,50.913447 118.279733,60.3985491 112.455296,54.9668113 C106.630859,49.5350734 101.601011,47.1011402 106.829985,40.8154578 C112.058959,34.529967 115.363685,35.4426919 117.749369,36.7827721 C120.133138,38.1228522 128.936807,48.3062358 126.855557,50.913447" id="Fill-714" fill="#FFB27D"></path>
                <path d="M111.974713,54.3795808 C111.974713,54.3795808 112.853548,53.4052034 111.582205,52.1386467 C110.310861,50.8720901 108.863368,49.0452999 110.268739,48.4839175 C111.674109,47.9227267 112.451467,48.7868189 112.497419,47.885582 C112.541456,46.9843451 110.774213,44.7413048 114.029158,41.9035669 C117.284103,39.0656375 119.591285,39.1514149 120.613721,37.2135737 C121.636156,35.2757324 119.830619,32.8320343 119.830619,32.8320343 C119.830619,32.8320343 120.058465,34.0357897 119.597029,34.8416759 C119.597029,34.8416759 119.373012,29.1761563 114.387202,29.1273322 C109.399477,29.0783165 107.584366,33.1439347 105.912856,34.6446559 C102.229024,37.950723 99.9141832,40.1671493 100.668565,43.7129336 C101.422946,47.2587178 107.549902,53.903593 111.974713,54.3795808" id="Fill-715" fill="#2B478B"></path>
                <path d="M121.496385,48.9375037 L124.678573,45.9435285 C124.678573,45.9435285 125.972892,47.9284707 125.063422,48.7906483 C124.155867,49.6530173 121.496385,48.9375037 121.496385,48.9375037" id="Fill-716" fill="#FFFFFF"></path>
                <path d="M125.274037,68.9852863 C125.274037,68.9852863 132.385135,79.074468 127.171478,88.8253268 C121.955907,98.5759942 101.472728,97.2294042 97.6816737,109.409984 L99.9869408,116.993815 L108.549362,112.355518 C108.549362,112.355518 109.26545,105.769806 117.690014,102.909475 C134.14472,97.3232232 138.10618,87.674225 134.652108,79.0405783 C131.734146,71.7437568 127.508461,68.2286073 127.508461,68.2286073 L125.274037,68.9852863" id="Fill-718" fill="#F99746"></path>
                <path d="M114.289553,63.4338814 L122.536053,66.1578877 L122.941964,67.7217932 L112.658251,67.4780552 C112.658251,67.4780552 113.203933,65.1138161 114.289553,63.4338814" id="Fill-719" fill="#F99746"></path>
                <path d="M126.353913,61.1672906 L126.629626,65.4303117 C126.629626,65.4303117 127.709502,66.314508 127.696099,66.1973299 C127.680781,66.079769 130.014769,62.5389629 130.014769,62.5389629 C130.014769,62.5389629 128.077119,61.6088144 126.353913,61.1672906" id="Fill-720" fill="#F99746"></path>
                <path d="M122.536053,66.1578877 L126.738762,64.7387315 C127.125526,64.6087252 127.533352,64.8654829 127.581218,65.2690961 L127.927774,68.0947716 C127.964153,68.3969071 127.784174,68.6833423 127.496973,68.7809907 L125.645483,69.4074719 C125.444443,69.4756343 125.22234,69.4400214 125.053849,69.3123126 L122.354159,67.2791206 C121.942504,66.9685605 122.045897,66.3229325 122.536053,66.1578877" id="Fill-721" fill="#ED7D2B"></path>
                <path d="M154.086047,12.5267281 L153.7146,16.0673427 C153.7146,16.0673427 158.183448,16.1351222 158.183448,16.0673427 C158.183448,15.9997548 158.31939,14.3119699 158.31939,14.3119699 L159.064198,16.2704896 L160.722306,15.7288284 L158.822949,12.5267281 C158.822949,12.5267281 156.927422,13.4210722 154.086047,12.5267281" id="Fill-722" fill="#233862"></path>
                <path d="M61.7604801,55.1718728 C61.7604801,55.0221453 61.8811045,54.9009465 62.0304491,54.9009465 C62.1797936,54.9009465 62.3023328,55.0221453 62.3023328,55.1718728 C62.3023328,55.3214088 62.1797936,55.4426077 62.0304491,55.4426077 C61.8811045,55.4426077 61.7604801,55.3214088 61.7604801,55.1718728" id="Fill-724" fill="#EBF3FA"></path>
                <path d="M157.356309,14.7578974 C157.356309,14.639762 157.452043,14.5438369 157.568838,14.5438369 C157.687548,14.5438369 157.783282,14.639762 157.783282,14.7578974 C157.783282,14.8764157 157.687548,14.9721494 157.568838,14.9721494 C157.452043,14.9721494 157.356309,14.8764157 157.356309,14.7578974" id="Fill-725" fill="#EBF3FA"></path>
                <path d="M150.329457,97.1878558 C150.329457,96.8698285 150.586023,96.6123048 150.903859,96.6123048 C151.221695,96.6123048 151.480176,96.8698285 151.480176,97.1878558 C151.480176,97.5056916 151.221695,97.7634067 150.903859,97.7634067 C150.586023,97.7634067 150.329457,97.5056916 150.329457,97.1878558" id="Fill-726" fill="#EBF3FA"></path>
                <path d="M145.757216,87.665609 C145.757216,87.3477731 146.015697,87.0900581 146.333533,87.0900581 C146.651369,87.0900581 146.90985,87.3477731 146.90985,87.665609 C146.90985,87.9834448 146.651369,88.2411599 146.333533,88.2411599 C146.015697,88.2411599 145.757216,87.9834448 145.757216,87.665609" id="Fill-727" fill="#EBF3FA"></path>
                <path d="M139.459854,80.4599259 C139.459854,80.1420901 139.718335,79.8841835 140.036171,79.8841835 C140.354007,79.8841835 140.612488,80.1420901 140.612488,80.4599259 C140.612488,80.7777618 140.354007,81.0354768 140.036171,81.0354768 C139.718335,81.0354768 139.459854,80.7777618 139.459854,80.4599259" id="Fill-728" fill="#EBF3FA"></path>
            </g>
        </g>
    </g>
</svg>