<?xml version="1.0" encoding="UTF-8"?>
<svg width="100%" height="300px" viewBox="0 0 500 500" version="1.1" xmlns="http://www.w3.org/2000/svg" xmlns:xlink="http://www.w3.org/1999/xlink">
    <title>No Internet</title>
    <defs>
        <polygon id="path-1" points="3.43401722e-23 0 76 0 76 19 3.43401722e-23 19"></polygon>
        <polygon id="path-3" points="0 0 495 0 495 315 0 315"></polygon>
        <polygon id="path-5" points="0 0 495 0 495 315 0 315"></polygon>
        <polygon id="path-7" points="0 0 18 0 18 44 0 44"></polygon>
        <polygon id="path-9" points="0 0 18 0 18 44 0 44"></polygon>
    </defs>
    <g id="No-Internet" stroke="none" stroke-width="1" fill="none" fill-rule="evenodd">
        <g id="no-internet" transform="translate(5.000000, 0.000000)">
            <g id="Fill-1-Clipped" transform="translate(110.000000, 0.000000)">
                <mask id="mask-2" fill="white">
                    <use xlink:href="#path-1"></use>
                </mask>
                <g id="path-1"></g>
                <path d="M75.9605876,18.2479852 C76.5411311,14.0115217 70.5866075,10.5259387 66.1128086,10.1641096 C63.9792549,9.99056773 61.7632505,10.3183691 59.7415135,9.61172467 C55.3625894,8.07820429 53.6130527,2.39669273 49.340298,0.586412751 C46.1450501,-0.766760193 42.4675218,0.437824607 39.3705371,2.00310429 C36.2735523,3.56838398 33.2127103,5.53859471 29.7531682,5.7609098 C26.743152,5.95486837 23.474489,4.83308459 20.8405837,6.30989195 C18.8787082,7.41012477 17.8520273,9.68091457 16.0426292,11.0204764 C14.2738917,12.3316817 11.9652714,12.6084413 9.76959731,12.7286729 C7.57392321,12.8489045 5.30144569,12.8704555 3.30342743,13.7903409 C1.30427971,14.709092 -0.350382099,16.8312937 0.0641304503,19 L75.9605876,18.2479852" id="Fill-1" fill="#F1F0EC" fill-rule="nonzero" mask="url(#mask-2)"></path>
            </g>
            <path d="M484.934614,266.772518 C485.897386,259.859449 476.026445,254.17386 468.609164,253.582933 C465.07112,253.30138 461.397951,253.835552 458.045704,252.681519 C450.78607,250.179815 447.88537,240.909714 440.801399,237.957303 C435.504468,235.749394 429.40579,237.7147 424.272135,240.268708 C419.137354,242.822716 414.06338,246.036648 408.32729,246.400552 C403.336643,246.715491 397.918098,244.885953 393.552409,247.295289 C390.299255,249.091441 388.594417,252.796143 385.595751,254.980682 C382.663521,257.118481 378.836082,257.572527 375.196694,257.767277 C371.557305,257.96314 367.789547,257.998751 364.474461,259.498883 C361.1605,260.999014 358.418572,264.462227 359.106588,268 L484.934614,266.772518" id="Fill-4" fill="#E4E4DE" fill-rule="nonzero"></path>
            <path d="M108.9502,96.0505667 C109.68366,90.698601 102.161764,86.2960686 96.5105291,85.8388089 C93.8166877,85.6203154 91.0163038,86.0336511 88.4637713,85.1405306 C82.9314151,83.2044975 80.7220614,76.0279981 75.3242851,73.7405734 C71.2891304,72.0320439 66.6427587,73.553615 62.730969,75.5313195 C58.8191793,77.5078977 54.9522495,79.9969222 50.5817666,80.2773597 C46.7798838,80.5217572 42.6516448,79.1060541 39.3252777,80.9711331 C36.8467642,82.3609322 35.5491894,85.2295048 33.2635738,86.9211404 C31.0284256,88.5767358 28.1136488,88.9270013 25.3401809,89.0790457 C22.5678346,89.229964 19.6967963,89.2581203 17.1711798,90.4192897 C14.6466847,91.580459 12.5573315,94.2620731 13.0810717,97 L108.9502,96.0505667" id="Fill-5" fill="#F1F0EC" fill-rule="nonzero"></path>
            <polyline id="Fill-6" fill="#D4D5CF" fill-rule="nonzero" points="408.262341 388 383 497 393.680882 496.972918 419 389.027972 408.262341 388"></polyline>
            <polyline id="Fill-7" fill="#D4D5CF" fill-rule="nonzero" points="454 388 478.994243 497 489 497 464.817368 388 454 388"></polyline>
            <polyline id="Fill-8" fill="#D4D5CF" fill-rule="nonzero" points="391 306 405.043308 381 421 381 406 306 391 306"></polyline>
            <polyline id="Fill-9" fill="#D4D5CF" fill-rule="nonzero" points="142.593722 388 122 497 132.483561 497 154 388 142.593722 388"></polyline>
            <polyline id="Fill-10" fill="#D4D5CF" fill-rule="nonzero" points="185 388 208.610953 496 219 496 196.199411 388 185 388"></polyline>
            <polyline id="Fill-11" fill="#D4D5CF" fill-rule="nonzero" points="126 306 140.042199 381 156 381 141 306 126 306"></polyline>
            <polyline id="Fill-12" fill="#E4E4DE" fill-rule="nonzero" points="93 299 95.9229052 313 422 313 418.194921 299 93 299"></polyline>
            <polyline id="Fill-13" fill="#E4E4DE" fill-rule="nonzero" points="100 326 103.437407 340 427 340 424.058481 326 100 326"></polyline>
            <polyline id="Fill-14" fill="#E4E4DE" fill-rule="nonzero" points="106 353 109.207556 367 432 367 428.949213 353 106 353"></polyline>
            <polygon id="Fill-15" fill="#E4E4DE" fill-rule="nonzero" points="131 395 479 395 479 381 131 381"></polygon>
            <path d="M381.266115,109.564908 L381.232321,109.564908 C377.347103,109.57727 373.874176,111.591133 371.942269,114.953567 L328.024326,191.381496 C326.091292,194.743929 326.103683,198.751428 328.055867,202.103747 C330.004672,205.443705 333.475346,207.435092 337.34592,207.435092 L337.379714,207.435092 L425.684214,207.166502 C429.570558,207.15414 433.043485,205.139153 434.975393,201.776719 C436.908426,198.414286 436.896035,194.405663 434.943851,191.054468 L390.556168,114.897376 C388.609616,111.556295 385.138942,109.564908 381.266115,109.564908 Z M337.34592,212 C331.826184,212 326.877573,209.161261 324.100808,204.397439 C321.316158,199.619008 321.299261,193.904445 324.053496,189.11028 L367.972565,112.683475 C370.7268,107.88931 375.678791,105.016857 381.217677,105 L381.267242,105 C386.788104,105 391.735589,107.838739 394.51348,112.603684 L438.898911,188.760776 C441.683561,193.538083 441.701584,199.253771 438.945096,204.047935 C436.189734,208.840976 431.23887,211.713429 425.699984,211.73141 L337.394358,212 L337.34592,212 L337.34592,212 Z" id="Fill-16" fill="#E4E4DE" fill-rule="nonzero"></path>
            <path d="M373.00932,143.065777 L375.028858,171.686507 C375.194847,174.026993 377.042862,175.874329 379.342369,175.993949 C381.765813,176.119211 383.861706,174.285417 384.106264,171.823055 L386.9812,143.014995 C387.199199,140.833626 385.492828,138.951307 383.343819,139.000961 L376.495097,139.157821 C374.452321,139.205217 372.86325,140.987101 373.00932,143.065777" id="Fill-17" fill="#E4E4DE" fill-rule="nonzero"></path>
            <g id="Group-21" transform="translate(0.000000, 182.000000)">
                <g id="Fill-18-Clipped">
                    <mask id="mask-4" fill="white">
                        <use xlink:href="#path-3"></use>
                    </mask>
                    <g id="path-3"></g>
                    <path d="M387.43635,9.13479192 C386.253899,12.8084758 382.324782,14.8258427 378.658057,13.6411473 C374.991332,12.456452 372.977787,8.51875034 374.160238,4.8450665 C375.342689,1.17251093 379.272932,-0.844855994 382.939657,0.338711068 C386.605256,1.52340641 388.618801,5.46110808 387.43635,9.13479192" id="Fill-18" fill="#E4E4DE" fill-rule="nonzero" mask="url(#mask-4)"></path>
                </g>
                <g id="Fill-20-Clipped">
                    <mask id="mask-6" fill="white">
                        <use xlink:href="#path-5"></use>
                    </mask>
                    <g id="path-3"></g>
                    <path d="M495,314.436424 C495,314.597768 384.167154,314.729777 247.47804,314.729777 C110.741628,314.729777 -0.0675686436,314.597768 -0.0675686436,314.436424 C-0.0675686436,314.273951 110.741628,314.141942 247.47804,314.141942 C384.167154,314.141942 495,314.273951 495,314.436424" id="Fill-20" fill="#132529" fill-rule="nonzero" mask="url(#mask-6)"></path>
                </g>
            </g>
            <path d="M323.206552,376 L209.709132,375.930101 C196.058908,375.92221 184.997752,364.257601 185,349.874105 L185.056211,50.0469853 C185.05846,35.6555991 196.135354,23.9921173 209.793448,24 L323.290868,24.0698964 C336.942217,24.0789143 348,35.7435233 348,50.1270188 L347.943789,349.954139 C347.941541,364.346652 336.864646,376.009007 323.206552,376" id="Fill-22" fill="#132529" fill-rule="nonzero"></path>
            <path d="M322.690769,35.0709756 L300.677502,35.056331 C297.725531,35.0552045 295.331343,37.6878443 295.331343,40.9355552 L295.330218,45.1385385 C295.330218,48.3873788 292.937154,51.0200186 289.985183,51.0177655 L247.078712,50.991856 C244.127866,50.9896029 241.734802,48.3547102 241.734802,45.1058728 L241.735926,40.9028866 C241.735926,37.6540492 239.343987,35.0180299 236.392016,35.0169034 L228.650543,35.0112709 L209.384577,35 C199.816819,34.9943733 192.056229,43.157021 192.055104,53.2302193 L192,345.693176 C191.997751,355.760741 199.747096,363.924516 209.310356,363.930148 L322.615423,364 C332.183182,364.00675 339.942647,355.844103 339.944897,345.770904 L340,53.3068216 C340,43.2403823 332.252905,35.0766081 322.690769,35.0709756" id="Fill-23" fill="#FFFFFE" fill-rule="nonzero"></path>
            <path d="M223,335.812389 L223,343.187611 C223,343.826866 222.335263,344.215524 221.827128,343.872113 L216.354819,340.183922 C215.881727,339.866035 215.881727,339.133965 216.354819,338.814918 L221.827128,335.127887 C222.335263,334.784476 223,335.173134 223,335.812389" id="Fill-24" fill="#D4D5CF" fill-rule="nonzero"></path>
            <path d="M270,339.000569 C270,341.761585 267.761296,344 265,344 C262.238704,344 260,341.761585 260,339.000569 C260,336.238415 262.238704,334 265,334 C267.761296,334 270,336.238415 270,339.000569" id="Fill-25" fill="#D4D5CF" fill-rule="nonzero"></path>
            <path d="M311.91811,344 L307.080777,344 C305.931841,344 305,343.069119 305,341.922735 L305,337.076154 C305,335.92977 305.931841,335 307.080777,335 L311.91811,335 C313.068159,335 314,335.92977 314,337.077265 L314,341.922735 C314,343.069119 313.068159,344 311.91811,344" id="Fill-26" fill="#D4D5CF" fill-rule="nonzero"></path>
            <path d="M323,164 C323,194.92823 297.92823,220 267.001126,220 C236.07177,220 211,194.92823 211,164 C211,133.07177 236.07177,108 267.001126,108 C297.92823,108 323,133.07177 323,164" id="Fill-27" fill="#2CB77C" fill-rule="nonzero"></path>
            <path d="M269,188.520811 C268.987849,191.006159 266.964536,193.01086 264.479189,193 C261.993841,192.987867 259.98914,190.963459 260,188.478112 C260.011038,185.993859 262.035446,183.988064 264.520793,184 C267.006141,184.011056 269.011936,186.035464 269,188.520811" id="Fill-28" fill="#FFFFFF" fill-rule="nonzero"></path>
            <path d="M255.333186,182.210316 C260.339453,176.909884 268.47547,176.748824 273.609278,181.967608 C275.937181,184.333174 279.580422,180.694789 277.252519,178.328105 C270.207811,171.168774 258.643711,171.210158 251.725435,178.538377 C249.449657,180.946445 253.051863,184.627332 255.333186,182.210316" id="Fill-29" fill="#FFFFFF" fill-rule="nonzero"></path>
            <path d="M239.503443,161.325027 C246.51536,155.168007 254.885905,151.292377 264.259436,151.268446 C273.549945,151.245655 282.711434,154.59481 289.515798,161.085721 C291.94697,163.404717 295.639165,159.704579 293.20014,157.377606 C285.406254,149.943143 274.952328,145.97293 264.284118,146 C253.496985,146.027628 243.911414,150.506083 235.852759,157.581586 C233.322859,159.80372 236.987007,163.533487 239.503443,161.325027" id="Fill-30" fill="#FFFFFF" fill-rule="nonzero"></path>
            <path d="M246.357335,172.215376 C251.050569,167.283545 257.627816,164.19489 264.579179,164.040294 C271.719838,163.882432 278.615195,166.74137 283.578373,171.698242 C285.905948,174.022626 289.585488,170.479981 287.256793,168.155597 C281.381851,162.289657 273.058362,158.819956 264.603821,159.007213 C256.335217,159.191204 248.321997,162.745824 242.712519,168.638982 C240.45327,171.013446 244.089126,174.59855 246.357335,172.215376" id="Fill-31" fill="#FFFFFF" fill-rule="nonzero"></path>
            <path d="M308,149 C308,156.732519 301.732519,163 294,163 C286.267481,163 280,156.732519 280,149 C280,141.267481 286.267481,135 294,135 C301.732519,135 308,141.267481 308,149" id="Fill-32" fill="#E46C62" fill-rule="nonzero"></path>
            <polyline id="Fill-33" fill="#FFFFFE" fill-rule="nonzero" points="291.006431 154 289 151.992652 297.993569 143 300 145.007348 291.006431 154"></polyline>
            <polyline id="Fill-34" fill="#FFFFFE" fill-rule="nonzero" points="300 151.992652 297.993569 154 289 145.007348 291.006431 143 300 151.992652"></polyline>
            <path d="M265.26717,71.1280024 C263.747331,72.7022005 263.791641,75.2102825 265.36576,76.7290901 C266.939879,78.2490055 269.446727,78.2046931 270.966566,76.630495 C272.486405,75.0562969 272.442095,72.5493227 270.867976,71.0294073 C269.293857,69.5105997 266.785901,69.5538043 265.26717,71.1280024 Z M263.299799,66.2093257 C263.997684,65.7883579 264.739879,65.4682008 265.506445,65.2499622 L265.961732,63.0653608 L269.652769,63 L270.184491,65.1679843 C270.958812,65.3585276 271.712085,65.6520973 272.424371,66.0498011 L274.290937,64.8267788 L276.946224,67.3913591 L275.789728,69.299008 C276.211782,69.9969283 276.531923,70.7402689 276.749043,71.5068735 L278.934642,71.9621834 L279,75.6534065 L276.831017,76.1851553 C276.641591,76.9584068 276.348036,77.7117176 275.95146,78.4240395 L277.173313,80.2906994 L274.608862,82.947228 L272.701309,81.7906743 C272.003424,82.2127499 271.260121,82.5317992 270.493555,82.7500378 L270.039376,84.9346392 L266.347231,85 L265.815509,82.8320157 C265.042296,82.6414724 264.287915,82.3479027 263.575629,81.9513067 L261.709063,83.174329 L259.053776,80.6097487 L260.210272,78.700992 C259.788218,78.0030717 259.468077,77.2608389 259.249849,76.4931265 L257.065358,76.0389244 L257,72.3465935 L259.167875,71.8159525 C259.358409,71.0415932 259.653072,70.2882824 260.049648,69.5759605 L258.826687,67.7093006 L261.391138,65.052772 L263.299799,66.2093257 L263.299799,66.2093257 Z" id="Fill-35" fill="#D4D5CF" fill-rule="nonzero"></path>
            <path d="M215.746174,74 C214.541651,74 213.015387,73.9781131 211.489123,73.9562263 C209.667453,73.9297797 207.846928,73.905157 206.57943,73.9151884 L206.57256,73.9151884 C206.25998,73.9151884 206.004648,73.713647 206,73.4637721 C205.996633,73.2120733 206.25082,73.0059721 206.566835,73.0032362 C207.840058,72.9904689 209.675468,73.0178275 211.510877,73.0442741 C213.332547,73.0716326 215.155362,73.0971673 216.42057,73.0853119 L216.42744,73.0853119 C216.74002,73.0853119 216.995352,73.2868534 217,73.5358163 C217.003367,73.7884271 216.750325,73.9945283 216.43431,73.9972641 C216.220197,73.999088 215.990056,74 215.746174,74" id="Fill-36" fill="#132529" fill-rule="nonzero"></path>
            <path d="M210.382614,78 C210.212137,78 210.042896,77.9320712 209.920597,77.7997888 L206.155285,73.7097603 C205.942807,73.4773723 205.948983,73.1270028 206.170109,72.9029569 L209.8403,69.1847492 C210.077485,68.9464025 210.469087,68.9380604 210.713684,69.163298 C210.961988,69.390919 210.970635,69.7675067 210.735921,70.0058534 L207.457332,73.3272139 L210.84463,77.0084779 C211.070697,77.253975 211.047226,77.6305627 210.792746,77.8498416 C210.675389,77.9499472 210.528384,78 210.382614,78" id="Fill-37" fill="#132529" fill-rule="nonzero"></path>
            <path d="M328,68.9993567 C328,70.1045352 327.103249,71 325.999357,71 C324.895465,71 324,70.1045352 324,68.9993567 C324,67.8954648 324.895465,67 325.999357,67 C327.103249,67 328,67.8954648 328,68.9993567" id="Fill-38" fill="#132529" fill-rule="nonzero"></path>
            <path d="M328,75 C328,76.1042471 327.103249,77 325.999357,77 C324.895465,77 324,76.1042471 324,75 C324,73.8957529 324.895465,73 325.999357,73 C327.103249,73 328,73.8957529 328,75" id="Fill-39" fill="#132529" fill-rule="nonzero"></path>
            <path d="M328,80.0006433 C328,81.1045352 327.103249,82 325.999357,82 C324.895465,82 324,81.1045352 324,80.0006433 C324,78.8954648 324.895465,78 325.999357,78 C327.103249,78 328,78.8954648 328,80.0006433" id="Fill-40" fill="#132529" fill-rule="nonzero"></path>
            <path d="M229,240.4995 C229,240.6435 225.417877,240.7605 221,240.7605 C216.580995,240.7605 213,240.6435 213,240.4995 C213,240.3555 216.580995,240.2395 221,240.2395 C225.417877,240.2395 229,240.3555 229,240.4995" id="Fill-41" fill="#132529" fill-rule="nonzero"></path>
            <path d="M258,259.501 C258,259.644 248.150535,259.76 236.001695,259.76 C223.848335,259.76 214,259.644 214,259.501 C214,259.356 223.848335,259.24 236.001695,259.24 C248.150535,259.24 258,259.356 258,259.501" id="Fill-42" fill="#132529" fill-rule="nonzero"></path>
            <path d="M258,278.5005 C258,278.6435 248.150535,278.7605 236.001695,278.7605 C223.848335,278.7605 214,278.6435 214,278.5005 C214,278.3555 223.848335,278.2395 236.001695,278.2395 C248.150535,278.2395 258,278.3555 258,278.5005" id="Fill-43" fill="#132529" fill-rule="nonzero"></path>
            <path d="M316.003557,267 L299.995319,267 C296.131998,267 293,263.865907 293,260.001124 C293,256.134093 296.131998,253 299.995319,253 L316.003557,253 C319.868002,253 323,256.134093 323,260.001124 C323,263.865907 319.868002,267 316.003557,267" id="Fill-44" fill="#E4E4DE" fill-rule="nonzero"></path>
            <path d="M305,260.00115 C305,263.314034 302.314034,266 299,266 C295.685966,266 293,263.314034 293,260.00115 C293,256.687117 295.685966,254 299,254 C302.314034,254 305,256.687117 305,260.00115" id="Fill-45" fill="#D4D5CF" fill-rule="nonzero"></path>
            <path d="M316.003557,285 L299.995319,285 C296.131998,285 293,281.865907 293,278.001124 C293,274.134093 296.131998,271 299.995319,271 L316.003557,271 C319.868002,271 323,274.134093 323,278.001124 C323,281.865907 319.868002,285 316.003557,285" id="Fill-46" fill="#E4E4DE" fill-rule="nonzero"></path>
            <path d="M305,278.000575 C305,281.313141 302.314034,284 299,284 C295.685966,284 293,281.313141 293,278.000575 C293,274.686859 295.685966,272 299,272 C302.314034,272 305,274.686859 305,278.000575" id="Fill-47" fill="#D4D5CF" fill-rule="nonzero"></path>
            <path d="M258,296.5 C258,296.644 248.150535,296.76 236.001695,296.76 C223.848335,296.76 214,296.644 214,296.5 C214,296.356 223.848335,296.24 236.001695,296.24 C248.150535,296.24 258,296.356 258,296.5" id="Fill-48" fill="#132529" fill-rule="nonzero"></path>
            <path d="M316.003557,306 L299.995319,306 C296.131998,306 293,302.865034 293,298.999438 C293,295.134966 296.131998,292 299.995319,292 L316.003557,292 C319.868002,292 323,295.134966 323,298.999438 C323,302.865034 319.868002,306 316.003557,306" id="Fill-49" fill="#E4E4DE" fill-rule="nonzero"></path>
            <path d="M305,298.999425 C305,302.313141 302.314034,305 299,305 C295.685966,305 293,302.313141 293,298.999425 C293,295.686859 295.685966,293 299,293 C302.314034,293 305,295.686859 305,298.999425" id="Fill-50" fill="#D4D5CF" fill-rule="nonzero"></path>
            <path d="M450,51.4994324 C450,61.7168584 441.716858,70 431.500568,70 C421.283142,70 413,61.7168584 413,51.4994324 C413,41.2820064 421.283142,33 431.500568,33 C441.716858,33 450,41.2820064 450,51.4994324" id="Fill-51" fill="#E4B962" fill-rule="nonzero"></path>
            <path d="M428.5,92 C428.405,92 428.328,88.6427403 428.328,84.5011157 C428.328,80.3572597 428.405,77 428.5,77 C428.595,77 428.672,80.3572597 428.672,84.5011157 C428.672,88.6427403 428.595,92 428.5,92" id="Fill-52" fill="#7E27E8" fill-rule="nonzero"></path>
            <path d="M417.996482,73.0006762 C418.088239,73.0549872 416.373943,76.2321778 414.167289,80.0961756 C411.958398,83.9624364 410.095276,87.0525032 410.003518,86.9993238 C409.911761,86.9450128 411.626057,83.7689537 413.83383,79.9026929 C416.040483,76.0375636 417.904724,72.9474968 417.996482,73.0006762" id="Fill-53" fill="#7E27E8" fill-rule="nonzero"></path>
            <path d="M407.998292,66.003305 C408.066116,66.0864937 406.106089,67.7199163 403.623005,69.6501204 C401.138771,71.5814486 399.069534,73.0788463 399.001709,72.9967817 C398.933884,72.9124688 400.892762,71.2801704 403.376996,69.3488422 C405.86123,67.4175139 407.930467,65.9201162 407.998292,66.003305" id="Fill-54" fill="#7E27E8" fill-rule="nonzero"></path>
            <path d="M446.986061,85 C446.937751,85.0090862 446.793809,84.2731365 446.562122,83.0858968 C446.33142,81.8986572 446.0041,80.2624419 445.593963,78.4700109 C445.182841,76.6764227 444.766789,75.0679791 444.458201,73.9050397 C444.151585,72.7421003 443.961305,72.0200364 444.006657,72.0003648 C444.049051,71.9818503 444.319189,72.6691996 444.684959,73.8147817 C445.051716,74.9580495 445.506218,76.5641788 445.920298,78.3670242 C446.333392,80.1687124 446.62522,81.8245993 446.796767,83.0315106 C446.9693,84.2372647 447.030426,84.9905717 446.986061,85" id="Fill-55" fill="#7E27E8" fill-rule="nonzero"></path>
            <path d="M465.998352,71.9976976 C465.925882,72.0764516 463.403467,70.1251026 460.367918,67.6421641 C457.330032,65.157038 454.92801,63.0809951 455.001649,63.0022411 C455.07295,62.9245809 457.595365,64.8748362 460.632082,67.3588685 C463.668799,69.8429008 466.071991,71.9200374 465.998352,71.9976976" id="Fill-56" fill="#7E27E8" fill-rule="nonzero"></path>
            <path d="M473,53.9877254 C472.987493,54.0467171 472.153366,53.8869478 470.804469,53.6399199 C469.45669,53.3928919 467.593024,53.0745823 465.523897,52.8128064 C463.453653,52.5522595 461.572121,52.3974062 460.208709,52.3027736 C458.844179,52.205683 457.998886,52.1552942 458,52.0926154 C458,52.0385397 458.846412,51.9844639 460.218758,52.0041278 C461.589988,52.0225627 463.486036,52.1319433 465.567446,52.3937192 C467.647739,52.657953 469.516988,53.0241935 470.855835,53.3474191 C472.195798,53.6694158 473.010943,53.9336496 473,53.9877254" id="Fill-57" fill="#7E27E8" fill-rule="nonzero"></path>
            <path d="M473,36.0075236 C473.024767,36.1025261 469.016037,37.0721719 464.04603,38.1719298 C459.074886,39.2727204 455.025251,40.0874707 455,39.9924681 C454.974119,39.8974656 458.982849,38.9288525 463.953992,37.8280619 C468.923999,36.7283039 472.973635,35.912521 473,36.0075236" id="Fill-58" fill="#7E27E8" fill-rule="nonzero"></path>
            <path d="M451.997015,15.0008391 C452.086644,15.0590241 450.146974,18.0143858 447.663784,21.6031961 C445.180593,25.1931043 443.094988,28.0562482 443.003061,27.9991609 C442.912282,27.9409759 444.851952,24.9856142 447.335143,21.395706 C449.818334,17.8068957 451.906236,14.9437518 451.997015,15.0008391" id="Fill-59" fill="#7E27E8" fill-rule="nonzero"></path>
            <path d="M431.655006,11 C431.704006,11.0033508 431.698006,11.9560893 431.679006,13.4938426 C431.659006,15.0315959 431.632006,17.1543641 431.634006,19.5 C431.637006,21.8456261 431.668006,23.9695086 431.691006,25.507262 C431.714006,27.0450153 431.722006,27.9966395 431.672006,28 C431.627006,28.0033254 431.533006,27.0550441 431.448006,25.5172908 C431.363006,23.9795375 431.294006,21.852312 431.291006,19.5 C431.289006,17.1499069 431.354006,15.0215671 431.436006,13.4838138 C431.519006,11.9460604 431.609006,10.9977792 431.655006,11" id="Fill-60" fill="#7E27E8" fill-rule="nonzero"></path>
            <path d="M415.996855,29.9992279 C415.909073,30.0560566 414.049382,26.9687488 411.841811,23.1043951 C409.634241,19.2377218 407.915436,16.0587922 408.003218,16.0008037 C408.091001,15.9428152 409.951776,19.030123 412.158262,22.8967963 C414.366916,26.76115 416.083554,29.9412394 415.996855,29.9992279" id="Fill-61" fill="#7E27E8" fill-rule="nonzero"></path>
            <path d="M406.99987,37.9873165 C406.988514,38.0403612 406.23446,37.9260204 405.0307,37.6631543 C403.828075,37.401467 402.176879,36.9818242 400.376916,36.4313379 C398.575818,35.8796727 396.970047,35.3020746 395.821933,34.8435324 C394.673818,34.386169 393.981088,34.0584705 394.000393,34.0077833 C394.018563,33.9535598 394.745362,34.1869566 395.912782,34.5735937 C397.080203,34.9614096 398.693923,35.4942144 400.485936,36.043522 C402.280221,36.5916508 403.912111,37.0537293 405.09543,37.3849642 C406.278749,37.7185565 407.011226,37.9307354 406.99987,37.9873165" id="Fill-62" fill="#7E27E8" fill-rule="nonzero"></path>
            <path d="M403,52.0266728 C403.009152,52.115349 400.332032,52.3993015 397.01898,52.6606132 C393.704779,52.9228684 391.010409,53.0624862 391,52.9728667 C390.98971,52.8841905 393.66683,52.600238 396.981032,52.3389262 C400.294083,52.0776144 402.989603,51.9379966 403,52.0266728" id="Fill-63" fill="#7E27E8" fill-rule="nonzero"></path>
            <path d="M390,379 C395.555296,417.953122 401.109449,456.906245 406.663602,495.860492 L411,496 C408.233205,456.30771 405.287059,415.825625 390,379" id="Fill-64" fill="#334F55" fill-rule="nonzero"></path>
            <path d="M436,374 C424.463358,386.597181 419.824471,403.925783 416.903229,420.732934 C412.759141,444.567239 412.383229,472.707452 413.624191,496.866816 L419.652367,497 C417.210072,455.272755 422.86913,413.694495 436,374" id="Fill-65" fill="#334F55" fill-rule="nonzero"></path>
            <path d="M393.110832,448.217937 C391.785026,442.428048 390.269011,436.535752 386.94374,431.603374 C382.450039,424.939092 375.1315,420.725808 367.765408,417.445434 C360.400449,414.165059 352.652806,411.540759 346,407 C353.423834,419.100813 370.276627,422.320419 378.858701,433.639119 C383.128227,439.26921 384.900119,446.332988 386.572378,453.185201 C390.221458,468.12638 392.467743,481.057696 396.11569,496 L401,496 C399.390012,479.762426 396.754251,464.126911 393.110832,448.217937" id="Fill-66" fill="#334F55" fill-rule="nonzero"></path>
            <path d="M424,496 C424,496 428.138795,449.548644 431.207212,441.021565 C434.274496,432.492235 463.276643,408.928761 462.998005,410.037856 C462.719367,411.145825 441.246112,436.928613 438.177695,442.195967 C435.110411,447.462196 429.811756,496 429.811756,496 L424,496" id="Fill-67" fill="#334F55" fill-rule="nonzero"></path>
            <path d="M288.01462,448.016675 C290.243453,448.849691 291.967912,450.826265 292.912389,453.085044 C293.856865,455.343823 294.08672,457.866674 293.973427,460.32719 C293.753376,465.089553 291.471164,470.03552 288.927505,474 C284.883795,470.784668 283.624494,464.78468 283.17023,461.698551 C282.451251,456.822853 283.999234,447.554265 288.01462,448.016675" id="Fill-68" fill="#E4B962" fill-rule="nonzero"></path>
            <path d="M293.296629,481.741194 C292.480112,479.0468 293.408543,475.969151 295.35448,473.959969 C297.30156,471.950787 300.137101,470.968263 302.910975,471.000781 C304.192278,471.015879 305.594632,471.302739 306.395161,472.323589 C307.140875,473.275918 307.154579,474.675377 306.668095,475.790299 C306.182753,476.905221 305.274877,477.773931 304.304192,478.487016 C300.970747,480.935198 297.302702,482.681909 293.296629,481.741194" id="Fill-69" fill="#E4B962" fill-rule="nonzero"></path>
            <path d="M290.007491,496 C289.984711,495.995531 290.015084,495.656221 290.08234,495.045022 C290.160443,494.370824 290.260242,493.499893 290.380651,492.454333 C290.664861,490.286953 291.010902,487.186747 292.45256,484.104226 C293.872522,481.030546 295.986737,478.697379 297.813487,477.487138 C298.720354,476.869308 299.523083,476.483578 300.095841,476.272477 C300.376796,476.155321 300.607852,476.102269 300.759719,476.052534 C300.914841,476.009429 300.996199,475.99285 300.999453,476.002798 C301.030912,476.076849 299.700985,476.411737 297.946914,477.682766 C296.186334,478.920638 294.146969,481.227279 292.749786,484.249013 C291.337417,487.268535 290.955579,490.327847 290.612792,492.486385 C290.450076,493.575049 290.317735,494.457033 290.211427,495.062706 C290.104035,495.669484 290.030271,496.003267 290.007491,496" id="Fill-70" fill="#132529" fill-rule="nonzero"></path>
            <path d="M287.007206,455 C287.021734,454.997778 287.052111,455.143295 287.097016,455.421825 C287.141921,455.736733 287.201355,456.13918 287.273995,456.639396 C287.419277,457.69667 287.608142,459.230287 287.823423,461.125423 C288.252663,464.916833 288.761147,470.161142 289.170576,475.963647 C289.578684,481.766151 289.811134,487.026377 289.915473,490.834839 C289.969623,492.73907 289.997359,494.279507 290,495.345877 C289.998679,495.848367 289.997359,496.254224 289.996038,496.571406 C289.990755,496.852209 289.980189,497 289.966982,497 C289.953774,497 289.935284,496.853346 289.915473,496.57368 C289.896982,496.256497 289.871888,495.85064 289.844153,495.349287 C289.791323,494.240854 289.718683,492.712922 289.631514,490.842797 C289.453214,487.038882 289.175859,481.784341 288.767751,475.98411 C288.359643,470.187289 287.896063,464.941843 287.539464,461.14816 C287.363806,459.281445 287.221166,457.756924 287.116827,456.651901 C287.075885,456.150548 287.042866,455.745828 287.016451,455.428646 C286.997961,455.14898 286.995319,455.001189 287.007206,455" id="Fill-71" fill="#132529" fill-rule="nonzero"></path>
            <path d="M287,484.554533 C285.695438,478.761694 281.415967,473.726309 275.916434,471.513106 C274.515796,470.949366 272.713487,470.639657 271.662429,471.724219 C270.610214,472.812261 270.978315,474.614838 271.617284,475.988231 C274.273867,481.702192 280.65777,485.440742 286.929389,484.958199" id="Fill-72" fill="#E4B962" fill-rule="nonzero"></path>
            <path d="M277.000576,476.002563 C277.009308,475.981269 277.305096,476.09334 277.83555,476.314119 C278.101868,476.421707 278.428218,476.557312 278.787311,476.754557 C279.146405,476.952922 279.575352,477.141201 280.005391,477.430343 C280.441979,477.706037 280.928774,477.997421 281.409021,478.37622 C281.910005,478.724759 282.402258,479.15399 282.918523,479.608997 C283.924857,480.545908 284.95193,481.675581 285.851301,483.001377 C286.738665,484.333897 287.407736,485.71797 287.896714,487.021352 C288.121557,487.681449 288.336577,488.306803 288.469736,488.914226 C288.636731,489.511563 288.721865,490.084244 288.807,490.604252 C288.910689,491.122019 288.917238,491.60056 288.960897,492.017463 C289.005647,492.433246 289.002373,492.794113 288.996915,493.088859 C288.99255,493.676109 288.978361,494 288.956531,494 C288.880128,494.002235 288.928153,492.696612 288.574517,490.644597 C288.475193,490.133555 288.379144,489.572081 288.202326,488.987072 C288.061526,488.391977 287.838867,487.780071 287.609658,487.134544 C287.113039,485.859179 286.449426,484.504245 285.577342,483.194138 C284.694343,481.892998 283.693466,480.777894 282.713326,479.843225 C282.211251,479.389339 281.733187,478.957866 281.2453,478.603723 C280.780334,478.220441 280.306637,477.921213 279.882055,477.636553 C278.158625,476.534898 276.970015,476.072046 277.000576,476.002563" id="Fill-73" fill="#132529" fill-rule="nonzero"></path>
            <path d="M89.8979375,434 L58,460.155564 L90.3470125,500 C93.9645616,496.676985 84.8741938,469.862713 84.8741938,469.862713 L106,453.941492 L89.8979375,434" id="Fill-74" fill="#334F55" fill-rule="nonzero"></path>
            <g id="Group-78" transform="translate(73.000000, 456.000000)">
                <g id="Fill-75-Clipped">
                    <mask id="mask-8" fill="white">
                        <use xlink:href="#path-7"></use>
                    </mask>
                    <g id="path-5"></g>
                    <path d="M2.0227098,3.8385857 C1.55643372,3.8385857 1.09477423,3.71683321 0.755454512,3.4699462 C-0.0859198984,2.85780169 -0.250963164,1.54332565 0.394205966,0.736151678 C0.779691635,0.254778376 1.40639439,0 2.02963469,0 C2.03540543,0 2.04002203,0 2.04463862,0 L2.08157138,3.83745837 C2.06195085,3.83745837 2.04233033,3.8385857 2.0227098,3.8385857" id="Fill-75" fill="#A1B0B0" fill-rule="nonzero" mask="url(#mask-8)"></path>
                </g>
                <g id="Fill-77-Clipped">
                    <mask id="mask-10" fill="white">
                        <use xlink:href="#path-9"></use>
                    </mask>
                    <g id="path-5"></g>
                    <path d="M17.0681924,44.0676403 L14.2532237,40.6337689 C14.3201643,40.6348962 14.3709468,40.6348962 14.4378875,40.6348962 L17.2066902,43.9673072 C17.631417,43.586267 17.8841755,42.8963362 17.9984362,41.971919 C18.0180568,42.7103254 17.8610925,43.6291058 17.0681924,44.0676403" id="Fill-77" fill="#FFFFFE" fill-rule="nonzero" mask="url(#mask-10)"></path>
                </g>
            </g>
            <path d="M87.611,496.5395 C87.553,496.5395 87.509,496.5395 87.451,496.5385 L87.389,496.4615 L87.547,496.4605 L87.611,496.5395" id="Fill-79" fill="#97A19F" fill-rule="nonzero"></path>
            <path d="M90.1286123,500 L87.0812956,497.089596 L87,497.011815 L90.542712,497 L90.833598,497.30128 C90.833598,497.30128 90.9822166,497.726616 91,498.257302 C90.8742458,499.064654 90.5960622,499.667214 90.1286123,500" id="Fill-80" fill="#A1B0B0" fill-rule="nonzero"></path>
            <path d="M75,482 L73.3060342,479.866568 L75,481.97123 L75,482 M58.0032914,460.59597 L58,460.592651 L61.1059697,458 L61.1191352,458.018811 L58.0032914,460.59597" id="Fill-81" fill="#FFFFFE" fill-rule="nonzero"></path>
            <polyline id="Fill-82" fill="#A1B0B0" fill-rule="nonzero" points="75 482 73.3057062 479.891158 58 460.582278 61.1164472 458 74.9495223 476.629216 75 482"></polyline>
            <path d="M84.9655138,470.985217 C84.7745386,471.117833 83.9335969,470.325126 82.5913453,469.92927 C81.2599446,469.501507 80.0706902,469.669023 80.005585,469.457634 C79.9025018,469.273167 81.240413,468.697831 82.8571914,469.202372 C84.477225,469.693951 85.1684249,470.894479 84.9655138,470.985217" id="Fill-83" fill="#132529" fill-rule="nonzero"></path>
            <path d="M86.9792506,475.967805 C86.8303362,476.121544 85.8346096,475.674463 84.5032699,475.679765 C83.1708189,475.654141 82.1662019,476.086202 82.0195101,475.930695 C81.8450357,475.807881 82.8540978,474.981753 84.5121603,475.000308 C86.1668889,475.006493 87.1581703,475.846757 86.9792506,475.967805" id="Fill-84" fill="#132529" fill-rule="nonzero"></path>
            <path d="M84.0298947,482.962902 C83.8294578,482.795877 84.644732,481.567521 86.2408495,481.14404 C87.833278,480.708723 89.0973834,481.375508 88.9940908,481.624072 C88.9166213,481.902886 87.776713,481.755588 86.4720283,482.125147 C85.1599656,482.461827 84.2204943,483.169382 84.0298947,482.962902" id="Fill-85" fill="#132529" fill-rule="nonzero"></path>
            <path d="M89.8955288,466.997499 C89.631589,467.059606 89.1368554,465.954091 88.0896897,464.918587 C87.0658489,463.863887 85.9131072,463.309436 86.0051792,463.074556 C86.0591948,462.84871 87.5728588,463.099399 88.7869817,464.333647 C90.0121533,465.55886 90.1447371,466.969268 89.8955288,466.997499" id="Fill-86" fill="#132529" fill-rule="nonzero"></path>
            <path d="M93.5899326,461.945006 C93.522253,462.011171 92.8879982,461.358337 92.2170029,459.997531 C91.8844059,459.318231 91.5556762,458.459181 91.3187975,457.460081 C91.2008416,456.96053 91.1060901,456.425692 91.0442116,455.86549 C91.0181066,455.593108 90.9687971,455.287643 91.0277751,454.908294 C91.0509795,454.537767 91.406781,454.012853 91.8486324,454.005133 C92.2508427,453.961023 92.6134122,454.208041 92.8183848,454.482629 C93.0291585,454.761627 93.1432471,455.039522 93.2476671,455.292054 C93.463275,455.809249 93.6257062,456.328649 93.7436621,456.834816 C93.9747397,457.848252 94.0298502,458.796626 93.9863419,459.578483 C93.8973915,461.152121 93.4951811,462.033226 93.417833,461.999041 C93.3008439,461.963753 93.5096839,461.045154 93.4613413,459.572969 C93.4362032,458.838531 93.3317832,457.969556 93.0842691,457.049854 C92.9585783,456.591106 92.7971141,456.12133 92.5931083,455.655965 C92.3949037,455.15862 92.1493233,454.807943 91.9134114,454.85095 C91.8254279,454.868595 91.7983561,454.886239 91.7538809,455.069297 C91.7200411,455.247944 91.7432455,455.501579 91.7683837,455.770652 C91.8157594,456.294463 91.8911738,456.797322 91.9839916,457.271509 C92.1715609,458.219882 92.4306772,459.051363 92.6888267,459.730664 C93.2070593,461.093675 93.6817836,461.865607 93.5899326,461.945006" id="Fill-87" fill="#132529" fill-rule="nonzero"></path>
            <path d="M93.0118268,461.570378 C92.9238332,461.521578 93.3163308,460.470503 94.5436094,459.263018 C95.1549331,458.666157 95.9816094,458.059286 97.0004822,457.606322 C97.5110765,457.382343 98.0668253,457.200908 98.659624,457.082036 C99.2547383,456.986939 100.029313,456.829277 100.742524,457.583799 C101.085236,458.005481 101.042397,458.643634 100.865252,459.002751 C100.699685,459.389397 100.48549,459.625889 100.288663,459.883653 C99.8741667,460.382913 99.4006224,460.780821 98.9166578,461.088635 C97.9475708,461.710522 96.9391183,461.959527 96.1054951,461.995814 C94.40583,462.059629 93.4957914,461.373927 93.5502084,461.296348 C93.595363,461.136184 94.5412938,461.549107 96.0476046,461.31762 C96.7909186,461.203753 97.666223,460.913456 98.4859525,460.334113 C98.8958172,460.04757 99.2894726,459.690955 99.6333422,459.261766 C100.013104,458.813808 100.230772,458.332065 100.055943,458.195675 C99.8938495,457.974199 99.2894726,457.887861 98.8089815,458.010486 C98.2752311,458.104332 97.7669525,458.251983 97.294566,458.43467 C96.3532665,458.803798 95.5590088,459.300556 94.9418961,459.791058 C93.7018815,460.778318 93.1299234,461.660471 93.0118268,461.570378" id="Fill-88" fill="#132529" fill-rule="nonzero"></path>
            <path d="M75,456.039409 L75.3813649,497 L126,496.782688 C125.683501,491.916239 99.4554406,482.253151 99.4554406,482.253151 L100.279681,456 L75,456.039409" id="Fill-89" fill="#334F55" fill-rule="nonzero"></path>
            <path d="M84.9837531,484 C84.111572,484 83.2484644,483.35759 83.0465811,482.494599 C82.826551,481.553155 83.4095173,480.508243 84.2998452,480.152359 C84.4949234,480.047754 84.711551,480 84.9338494,480 C85.7481875,480 86.6509913,480.628766 86.9220593,481.390563 C87.2679829,482.363843 86.4082777,483.687322 85.4113373,483.945424 C85.2706996,483.981808 85.1266593,484 84.9837531,484" id="Fill-90" fill="#A1B0B0" fill-rule="nonzero"></path>
            <polyline id="Fill-91" fill="#FFFFFE" fill-rule="nonzero" points="75.521 496 75.473 492 75.495 492.001153 75.527 496 75.521 496"></polyline>
            <path d="M126.942,497 C126.844,496.383229 126.522,495.711019 126.022,495 C126.463,495.465696 126.923,496.148995 126.978,497 C126.965,497 126.954,497 126.942,497" id="Fill-92" fill="#EEEEE9" fill-rule="nonzero"></path>
            <path d="M126.979376,496.349 L101.159706,496.297 L126.985007,496.199 C126.980502,496.134 126.970366,496.067 126.953473,496 C126.966988,496 126.979376,496 126.994017,496 C127.005279,496.112 127.000774,496.229 126.979376,496.349 M76.0090097,496.246 L76.0033787,496.246 L76,496.04 L76.0067573,496.04 L76.0090097,496.246" id="Fill-93" fill="#97A19F" fill-rule="nonzero"></path>
            <path d="M101.181933,497 L76.0382807,496.94522 L76,493 L124.986887,494.585392 C124.986887,494.585392 125.449632,494.778733 125.932645,495.131042 C126.495596,495.682062 126.858136,496.203008 126.968475,496.680988 C126.985363,496.752954 126.995496,496.824919 127,496.894737 L101.181933,497" id="Fill-94" fill="#A1B0B0" fill-rule="nonzero"></path>
            <path d="M100.998537,482.214812 C100.991249,482.450961 99.6490126,482.563158 98.3322844,483.328237 C96.9912624,484.06126 96.3158926,485.087065 96.068095,484.994101 C95.8202975,484.949222 96.2138583,483.536604 97.8281865,482.635819 C99.4315824,481.722212 101.055628,481.998965 100.998537,482.214812" id="Fill-95" fill="#132529" fill-rule="nonzero"></path>
            <path d="M105.998034,484.099615 C106.049207,484.34256 105.090965,484.771952 104.341429,485.830742 C103.564802,486.865802 103.37817,488.00934 103.158427,487.99917 C102.94972,488.039849 102.791184,486.577657 103.744409,485.279312 C104.6876,483.973058 105.992014,483.86232 105.998034,484.099615" id="Fill-96" fill="#132529" fill-rule="nonzero"></path>
            <path d="M109.266264,489.998419 C109.068498,490.048648 108.758994,488.894417 109.314717,487.625076 C109.863519,486.35155 110.891904,485.847162 110.984854,486.039709 C111.108458,486.229116 110.447919,486.912446 110.0069,487.962032 C109.542149,488.999062 109.483807,489.975397 109.266264,489.998419" id="Fill-97" fill="#132529" fill-rule="nonzero"></path>
            <path d="M99.9918339,475.698853 C99.8942197,475.878455 98.8172801,475.610831 97.4920609,475.690851 C96.1647196,475.747755 95.1344651,476.12474 95.0124473,475.957586 C94.8755752,475.815328 95.8793041,475.084474 97.4411317,475.00801 C99.0029594,474.922655 100.106425,475.544147 99.9918339,475.698853" id="Fill-98" fill="#132529" fill-rule="nonzero"></path>
            <path d="M99,469.816031 C99.0034489,469.912975 97.9904004,470.061552 96.3692908,469.814977 C95.5627975,469.690636 94.6124119,469.455653 93.6132885,469.058394 C93.1154674,468.858184 92.6060421,468.620039 92.1000981,468.33553 C91.8575699,468.195383 91.5697852,468.054182 91.3028882,467.777049 C91.0174244,467.53469 90.8538048,466.9172 91.1798834,466.538908 C91.4467805,466.171154 91.9213931,466.010986 92.3008511,466.001502 C92.6884321,465.988857 93.0017461,466.058404 93.2883703,466.121628 C93.873223,466.248077 94.4221026,466.422997 94.9257258,466.625314 C95.9306513,467.036272 96.7487489,467.556818 97.3579704,468.060505 C98.5810553,469.080522 99.0011281,469.948802 98.9140964,469.994112 C98.7980542,470.073143 98.2015973,469.34501 96.9576248,468.504128 C96.3379594,468.086848 95.5453912,467.654816 94.6054493,467.312351 C94.1354784,467.144807 93.628374,467.001499 93.0934194,466.896125 C92.5364168,466.765462 92.0629646,466.764408 91.9213931,466.988854 C91.8703346,467.07526 91.8645324,467.10898 91.9817351,467.256503 C92.102419,467.392435 92.3275408,467.525206 92.5665878,467.664299 C93.031917,467.937217 93.5007275,468.175362 93.9602547,468.379787 C94.8781485,468.789691 95.7554276,469.067877 96.5073811,469.255443 C98.0136089,469.630573 99.0046093,469.690636 99,469.816031" id="Fill-99" fill="#132529" fill-rule="nonzero"></path>
            <path d="M98.6917836,469.998829 C98.6043899,470.036603 98.1091589,469.158922 98.0116813,467.569099 C97.9668641,466.780297 98.0452943,465.824848 98.3466905,464.810516 C98.5001897,464.305017 98.7108309,463.787296 98.9875777,463.278464 C99.2822513,462.780741 99.64191,462.114149 100.601,462.000828 C101.102953,461.979719 101.521995,462.366343 101.66541,462.698528 C101.834596,463.037379 101.869329,463.329569 101.930953,463.620648 C102.026189,464.20725 102.017226,464.782741 101.938796,465.317127 C101.784176,466.388119 101.346087,467.280242 100.865422,467.923504 C99.880562,469.230026 98.8486441,469.52777 98.8273559,469.445557 C98.7433235,469.321127 99.6049357,468.844513 100.357866,467.589097 C100.728729,466.970276 101.058136,466.154811 101.151132,465.21936 C101.199311,464.752745 101.189227,464.259466 101.098472,463.763966 C101.01668,463.22958 100.812761,462.799628 100.611084,462.855177 C100.358987,462.851844 99.9321019,463.256244 99.7259424,463.682863 C99.468243,464.135035 99.2620835,464.598317 99.1029822,465.0516 C98.7892612,465.961499 98.6536889,466.831403 98.6211964,467.565766 C98.5584522,469.042269 98.8273559,469.961056 98.6917836,469.998829" id="Fill-100" fill="#132529" fill-rule="nonzero"></path>
            <path d="M79.0802889,218 C79.0802889,218 71.8930122,225.6662 68.3617044,233.014056 C64.8315298,240.360784 62.5740314,257.892234 62.5740314,257.892234 C62.5740314,257.892234 52.6476112,279.916612 54.15601,291.185057 C55.6644089,302.453501 65.7732875,379.516248 65.7732875,379.516248 C65.7732875,379.516248 65.2735099,454.433001 72.4335879,467.789866 L74.031516,475 L102.948349,469.88619 L102.768157,465.562593 L109.598449,318.668681 L127,218.666037 L79.0802889,218" id="Fill-101" fill="#132529" fill-rule="nonzero"></path>
            <path d="M143.216211,239.660382 C143.216211,239.660382 160.451448,334.401927 161.970942,350.851498 C163.491565,367.301069 104.825557,454 104.825557,454 L78,426.106905 L116.500238,354.648334 L103.987294,282.632532 L121.39425,219 L139.680141,219.640702 L143.216211,239.660382" id="Fill-102" fill="#132529" fill-rule="nonzero"></path>
            <path d="M68,444.543597 C68,444.543597 68.014749,445.265371 68.2064858,446.634603 C68.3834736,448.004961 68.7238347,450.020525 69.203744,452.623867 C70.1669661,457.8283 71.7280893,465.37484 73.824714,474.804074 L73.8678264,475 L74.0686395,474.963968 C82.2509218,473.541813 92.0726104,471.833651 103.028836,469.928437 L103.247802,469.890152 L103.256878,469.667202 C104.0624,449.94846 105.024487,426.377627 106.055781,401.10201 C107.124515,373.903163 108.116101,348.686099 108.92843,327.996733 L108.926161,328.02038 C111.09653,311.400426 112.891368,297.65631 114.147301,288.039031 C114.754278,283.261358 115.229649,279.509482 115.55753,276.924156 C115.708424,275.665273 115.824147,274.690146 115.906968,274.004404 C115.981847,273.343434 116,273 116,273 C116,273 115.926255,273.336678 115.825281,273.993144 C115.724307,274.676634 115.58249,275.648383 115.396426,276.903888 C115.035643,279.48471 114.510353,283.228703 113.84211,287.997369 C112.530585,297.609017 110.657464,311.342999 108.392928,327.950567 L108.390659,327.962953 L108.390659,327.975339 C107.544294,348.663578 106.513,373.879517 105.401153,401.076112 C104.407299,426.352855 103.479247,449.924814 102.703224,469.645808 L102.9324,469.386825 C91.985251,471.340457 82.1703697,473.090282 73.9948946,474.549595 L74.2388201,474.711741 C72.086603,465.299397 70.4619457,457.767495 69.4295169,452.579953 C68.914437,449.986744 68.5377706,447.980189 68.3233431,446.617713 C68.2042167,445.937601 68.1384135,445.418509 68.090763,445.069445 C68.0408433,444.720381 68,444.543597 68,444.543597" id="Fill-103" fill="#334F55" fill-rule="nonzero"></path>
            <path d="M35,178.935277 C35,178.935277 52.8371056,140.87498 57.0488796,138.849985 C61.2606536,136.82499 73.355252,136.152227 75,138.425317 L43.030705,184 L35,178.935277" id="Fill-104" fill="#334F55" fill-rule="nonzero"></path>
            <path d="M36.1267232,174.440532 C35.3320514,174.008606 34.4045558,173.887938 33.527011,174.10672 L33.4997651,174.113486 C27.9325213,175.499482 7.56167621,180.926182 5.29004999,186.669777 C2.65628045,193.330227 18.7710902,279.949913 20.8463189,282.294491 C22.9226829,284.637941 54.9593106,280.697607 55.9401627,277.003121 C56.9210148,273.308635 45.5186091,179.949556 45.5186091,179.949556 L36.1267232,174.440532" id="Fill-105" fill="#334F55" fill-rule="nonzero"></path>
            <path d="M11.2495113,233 C11.2495113,233 9.39210938,233.103277 7.54400031,237.117463 C5.69589123,241.13165 8.95186215,273.6469 11.4028428,276.974464 C13.8538234,280.299759 21,281 21,281 L11.2495113,233" id="Fill-106" fill="#334F55" fill-rule="nonzero"></path>
            <path d="M45.9987198,278 C45.9910772,278.005043 45.9375793,277.933059 45.8436849,277.784592 C45.7334136,277.605756 45.5991229,277.387554 45.4342618,277.120987 C45.0706941,276.53949 44.5903044,275.64756 44.0203875,274.472193 C42.8849209,272.122582 41.5278199,268.555989 40.4993491,263.973743 C39.4523179,259.39937 38.6847861,253.853211 38.0548205,247.697435 C37.4172123,241.532661 36.7173718,234.763894 35.9825939,227.656576 C34.4955693,213.440816 33.2574739,200.544392 33.0511247,191.160573 C32.9364863,186.471476 33.0314724,182.674308 33.1701303,180.057006 C33.2334545,178.746669 33.3131555,177.732141 33.3764796,177.044917 C33.4070498,176.73111 33.4321611,176.474666 33.4518134,176.263213 C33.4725575,176.087751 33.4878426,175.998896 33.4976688,176 C33.507495,176 33.5118621,176.091126 33.5096785,176.267712 C33.5042196,176.48029 33.4987606,176.737859 33.491118,177.05279 C33.4660068,177.790628 33.4332529,178.796158 33.3906729,180.066005 C33.320798,182.682181 33.2880442,186.470351 33.4529052,191.147076 C33.7607914,200.502776 35.061119,213.381204 36.5470518,227.595839 C37.2665446,234.702032 37.9511,241.469674 38.5745148,247.634448 C39.1760938,253.796973 39.8999538,259.321762 40.8913035,263.881513 C41.8640927,268.448013 43.1524106,272.006733 44.220186,274.374339 C44.7562572,275.55758 45.2028013,276.464131 45.5336152,277.0625 C45.6777321,277.340314 45.7956459,277.56639 45.8928157,277.753099 C45.9714249,277.911689 46.0074541,277.994921 45.9987198,278" id="Fill-107" fill="#132529" fill-rule="nonzero"></path>
            <path d="M36,227.025089 C36.0099049,227.108697 34.5797772,227.316648 32.2822316,227.701463 C29.9835738,228.084134 26.8208343,228.671539 23.3689555,229.493693 C19.9170766,230.319062 16.8344064,231.221608 14.6169301,231.917276 C12.3983418,232.610801 11.0327144,233.069577 11.0004643,232.991328 C10.9860073,232.955955 11.309621,232.797313 11.909029,232.541127 C12.506213,232.281725 13.3847517,231.939786 14.4823691,231.544252 C16.6742677,230.751041 19.7569379,229.782036 23.2299462,228.951307 C26.7018424,228.124866 29.8979441,227.595344 32.2199554,227.310216 C33.3820731,227.167652 34.3251122,227.075468 34.9790119,227.035808 C35.6329116,226.992931 35.99656,226.987572 36,227.025089" id="Fill-108" fill="#132529" fill-rule="nonzero"></path>
            <path d="M10.0120242,230 C10.0319997,229.996736 10.0801762,230.177854 10.1518533,230.525555 C10.2305806,230.940336 10.3245833,231.442323 10.4385617,232.048284 C10.687669,233.462566 11.0190287,235.357592 11.4220655,237.65622 C12.2539899,242.390991 13.4619254,248.921285 14.9753698,256.098907 C16.4935144,263.279882 18.0316345,269.747568 19.1866934,274.41973 C19.7471849,276.68929 20.2113235,278.557484 20.5556086,279.95276 C20.6977878,280.554249 20.8141162,281.051763 20.910469,281.463191 C20.9844962,281.810892 21.013872,281.995363 20.9938964,282 C20.9727458,282.004307 20.9045938,281.829898 20.7917905,281.492259 C20.6648868,281.088658 20.5109573,280.600087 20.3253018,280.010896 C19.9316653,278.720713 19.3970246,276.843575 18.7660311,274.518115 C17.502869,269.866077 15.8965969,263.4051 14.3761022,256.214062 C12.8591327,249.02526 11.7181742,242.474842 10.994353,237.719947 C10.6324424,235.343058 10.3633595,233.41561 10.2023797,232.080706 C10.1342277,231.468037 10.0778261,230.960461 10.0308247,230.541207 C9.99792374,230.189034 9.99087353,230.002326 10.0120242,230" id="Fill-109" fill="#132529" fill-rule="nonzero"></path>
            <path d="M33.0325728,191 C32.959847,190.988306 33.0058354,190.056202 33.2015535,188.564835 C33.3972716,187.073467 33.7598314,185.026268 34.3095534,182.802942 C34.8592753,180.579615 35.4913486,178.606756 36.0100551,177.206884 C36.5276921,175.805868 36.9191284,174.97212 36.9865068,175.000712 C37.141584,175.065902 35.9309123,178.541566 34.8475108,182.955052 C33.7502059,187.36282 33.196206,191.024904 33.0325728,191" id="Fill-110" fill="#132529" fill-rule="nonzero"></path>
            <path d="M145.161707,108.658086 C144.978375,105.401201 144.574821,89.5495233 144.388135,87.1389774 C144.136612,83.8865999 142.802984,80.6421111 140.431964,78.4208928 C138.062062,76.1996745 134.374181,75.2485288 131.464344,76.6763743 C129.539357,77.1677245 128.034693,78.6665679 127.496993,80.5936523 C120.878036,104.314821 121.923252,129.57315 119,154.105723 C127.636728,155.522299 139.261545,154.943046 148,154.482124 C148,134.89348 146.355601,129.805301 145.161707,108.658086" id="Fill-111" fill="#132529" fill-rule="nonzero"></path>
            <path d="M140.932673,142 C140.912807,142 140.890732,141.782672 140.865347,141.370421 C140.843273,140.894316 140.816784,140.296105 140.782568,139.562343 C140.731798,137.91334 140.664471,135.660523 140.580589,132.910317 C140.463595,127.222824 140.30466,119.497602 140.128066,110.962442 C140.062947,106.677498 140.002243,102.599799 139.945954,98.8760989 C139.923879,97.0232106 139.902909,95.2588219 139.883042,93.6019769 C139.868694,91.9529736 139.827856,90.4227164 139.574002,89.0616165 C139.134724,86.3002081 137.574073,84.4641236 136.248513,83.7303619 C134.908605,82.9674738 133.982589,83.1131059 134.000248,83.0335684 C133.999145,83.0234862 134.053227,83.0156445 134.158079,83.008923 C134.262932,83.0033217 134.420763,82.9898788 134.626054,83.013404 C135.036635,83.0436506 135.649196,83.167998 136.353366,83.5365592 C137.05312,83.9051204 137.832342,84.5268574 138.500089,85.4465801 C139.178873,86.3595812 139.686581,87.588492 139.962509,88.9843195 C140.249475,90.3835078 140.311283,91.9440116 140.346602,93.5941351 C140.38192,95.2498599 140.421654,97.0142487 140.461388,98.8671369 C140.530922,102.589717 140.608182,106.668536 140.687649,110.95236 C140.800228,119.48864 140.901769,127.214983 140.976822,132.903596 C140.985652,135.654922 140.994481,137.908859 141,139.557862 C140.99117,140.292744 140.983444,140.892076 140.977926,141.368181 C140.966889,141.781552 140.951437,142 140.932673,142" id="Fill-112" fill="#334F55" fill-rule="nonzero"></path>
            <path d="M133.218934,133 C133.183934,133 133.151934,132.49552 133.123934,131.584778 C133.097934,130.672919 133.078934,129.353682 133.077934,127.724167 C133.071934,124.464021 133.135934,119.962765 133.246934,114.993861 C133.368934,110.082995 133.479934,105.642009 133.563934,102.269137 C133.609934,100.730026 133.647934,99.4375756 133.678934,98.4141063 C133.711934,97.5033638 133.746934,97 133.781934,97 C133.816934,97 133.847934,97.5033638 133.875934,98.4152224 C133.902934,99.325965 133.920934,100.645202 133.921934,102.274717 C133.928934,105.534863 133.864934,110.036118 133.753934,115.007255 C133.631934,119.917005 133.520934,124.356875 133.436934,127.729747 C133.390934,129.269974 133.351934,130.561308 133.321934,131.584778 C133.288934,132.49552 133.253934,133 133.218934,133" id="Fill-113" fill="#334F55" fill-rule="nonzero"></path>
            <path d="M76,139 C74.8505824,139 53.3997188,140.518168 48.419668,163.298582 C43.4396171,186.077869 42,218 42,218 L65.2739992,215.691167 L76,139" id="Fill-114" fill="#6E5FFF" fill-rule="nonzero"></path>
            <path d="M90.3740925,126.883842 L122.890043,126 L125.092895,131.888146 L144.288382,138.833745 L142.783118,224.214678 L157,303.020909 C157,303.020909 156.859584,314.359789 118.955013,318 L115.959088,276.803272 L97.0309543,276.356841 L97.54544,316.589686 C97.54544,316.589686 64.1353181,316.046304 53.5479199,308.458115 C53.5479199,308.458115 50.3385621,270.120345 59.4543963,242.521704 C67.4367891,218.354716 70.5506636,212.101309 70.5506636,212.101309 L71.2381424,139.65671 L86.6378923,133.797876 L90.3740925,126.883842 Z" id="Fill-115" fill="#6E5FFF" fill-rule="nonzero"></path>
            <path d="M62.445249,231 L56,224.209833 C56.6240245,221.561567 57.2469225,218.913301 57.870947,216.265036 L64.7554912,215.580313 L70,178 L69.6722182,212.220472 C69.6722182,212.220472 67.5850028,216.369087 62.445249,231" id="Fill-116" fill="#A2A5A2" fill-rule="nonzero"></path>
            <path d="M58,216 C61.9992651,198.668156 65.9996326,181.331844 70,164 L69.8699247,177.789055 L64.737461,215.316245 L58,216" id="Fill-117" fill="#BC5247" fill-rule="nonzero"></path>
            <path d="M63.2378996,231 L63,230.755458 C68.2695913,216.086289 70.4095327,211.926827 70.4095327,211.926827 L70.8818673,163.772198 C72.7896834,155.84701 74.6974995,147.925188 76.6053156,140 C81.412966,151.485633 83.7307547,164.36224 80.5087166,176.359393 C78.2336575,184.831996 73.2493147,192.852533 73.622332,201.601087 C73.7874759,205.475623 75.0162388,209.262663 75.0508844,213.140564 C75.1178658,220.62939 70.2767247,227.947709 63.2378996,231" id="Fill-118" fill="#4F42CD" fill-rule="nonzero"></path>
            <path d="M140.239493,137 C148.120443,138.453664 154.282037,146.839406 156.071617,155.827444 C157.118182,161.088487 160.187652,186.474403 160.187652,186.474403 L161.87756,195.773779 C161.87756,195.773779 163.292235,227.764585 156.504288,231.335346 C148.575767,235.503876 144.029326,230.931173 141.41971,227.577782 C138.810094,224.224391 136,202.42169 136,202.42169 L138.983389,150.253932 L140.239493,137" id="Fill-119" fill="#6E5FFF" fill-rule="nonzero"></path>
            <path d="M143.620997,151 C143.641371,151.003417 143.609679,151.317334 143.53045,151.909291 C143.436506,152.555062 143.312003,153.417211 143.155808,154.499102 C142.79588,156.801904 142.291076,160.034123 141.669691,164.002924 C141.018878,168.030025 140.246958,172.798192 139.392413,178.086564 C138.955519,180.738038 138.498252,183.519562 138.024008,186.400867 C137.537313,189.283294 136.962334,192.253168 136.712196,195.320581 C136.557133,197.133449 136.545814,198.927257 136.689559,200.610074 L136.6839,200.574198 C139.136615,211.452526 141.43653,221.068461 143.161467,227.951081 C144.036386,231.343622 144.744923,234.090391 145.249727,236.050127 C145.490811,236.959364 145.684357,237.683614 145.829233,238.231847 C145.957132,238.73075 146.014856,238.995337 145.996747,239 C145.978637,239.005427 145.884694,238.752051 145.723971,238.263238 C145.553062,237.720611 145.326693,237.00533 145.043731,236.107305 C144.481202,234.223806 143.691172,231.480399 142.781166,228.047498 C140.954363,221.183938 138.584273,211.581456 136.112316,200.699764 L136.107789,200.680705 L136.106657,200.662767 C135.956121,198.940711 135.96744,197.111026 136.124767,195.273493 C136.379433,192.162356 136.962334,189.18015 137.454688,186.305571 C137.940251,183.426508 138.408836,180.648347 138.855917,177.999116 C139.758,172.718592 140.571798,167.957151 141.25883,163.935656 C141.957181,159.979187 142.525368,156.75818 142.929438,154.462104 C143.132039,153.388062 143.292761,152.531518 143.412737,151.890231 C143.53045,151.30388 143.601756,150.99669 143.620997,151" id="Fill-120" fill="#132529" fill-rule="nonzero"></path>
            <path d="M60,144.423982 L66.0982275,224 C66.0982275,224 77.481203,173.258409 77.9470318,160.279046 C78.4140081,147.299683 75.6396874,138.150848 75.6396874,138.150848 C75.6396874,138.150848 64.6066573,136.456619 60,144.423982" id="Fill-121" fill="#334F55" fill-rule="nonzero"></path>
            <path d="M57.0034447,139.004283 C57.0326324,138.960971 57.8120526,139.240221 58.9146997,140.112167 C59.4638612,140.560107 59.9687006,141.33061 60.2508486,142.239029 C60.551374,143.137189 60.7329864,144.173265 60.8227116,145.246955 C61.0097292,147.395473 60.9956759,149.330849 61,150.730521 C60.9924328,152.129052 60.9935138,152.990739 60.916761,153 C60.838927,153.008976 60.6962315,152.14501 60.6032632,150.745338 C60.4973226,149.347946 60.4454334,147.41143 60.2627399,145.303945 C60.0876136,143.218115 59.6303393,141.305535 58.6509292,140.425611 C57.6877345,139.534289 56.9429072,139.092048 57.0034447,139.004283" id="Fill-122" fill="#132529" fill-rule="nonzero"></path>
            <path d="M97.9974608,141.755511 C97.9711132,141.781204 97.7305479,141.537673 97.3101315,141.062899 C96.8908607,140.59036 96.2917387,139.887695 95.5482776,138.996237 L95.8885056,138.948201 C95.0614194,141.282971 93.8116257,144.670063 92.3705254,148.464902 L92.1666177,149 L91.8538829,148.538632 C91.6854872,148.290632 91.4838707,148.033696 91.3200572,147.758885 C90.2363681,145.971502 89.5685132,144.138316 88.9441891,142.488338 C88.3404849,140.829422 87.8421712,139.324669 87.4148815,138.066797 C86.9887374,136.807809 86.6359084,135.793469 86.3735777,135.099741 C86.1181204,134.402661 85.9646168,134.020608 86.0070021,134.0005 C86.037932,133.98486 86.2647506,134.336751 86.5877954,135.012606 C86.9188589,135.686226 87.3335476,136.684926 87.812387,137.930509 C88.2992452,139.220777 88.8536908,140.694251 89.459686,142.304014 C90.1057755,143.929416 90.7919592,145.750313 91.8298264,147.456147 C91.985621,147.718669 92.1723455,147.954381 92.3281401,148.188975 L91.8126431,148.262704 C93.2629079,144.471217 94.5848711,141.109818 95.5207844,138.815264 L95.6536681,138.493535 L95.8621579,138.767228 C97.2459808,140.585891 98.0513016,141.70524 97.9974608,141.755511" id="Fill-123" fill="#132529" fill-rule="nonzero"></path>
            <path d="M123.994701,137.00065 C124.030301,137.017066 123.885606,137.38588 123.588178,138.039241 C123.29075,138.691506 122.841737,139.628318 122.261809,140.776349 C121.680733,141.924381 120.972188,143.284727 120.138471,144.776402 C119.288676,146.262605 118.376869,147.905308 117.132035,149.509706 L116.751924,150 L116.603784,149.40136 L116.541772,149.146364 C115.602404,145.324699 114.783615,141.854339 114.21632,139.327356 L114.584947,139.413814 C113.605387,140.437083 112.536253,140.879223 111.943693,141.326835 C111.328166,141.759125 111.038777,142.065559 111.002029,142.033821 C110.975616,142.014122 111.205291,141.654062 111.796702,141.152825 C112.374333,140.634076 113.400976,140.131744 114.262255,139.147873 L114.52638,138.845818 L114.630882,139.234332 C115.301531,141.738332 116.184628,145.194465 117.123996,149.016129 L117.186008,149.271126 L116.658906,149.161685 C117.852063,147.627329 118.790283,145.98572 119.657303,144.526877 C120.478388,143.078979 121.228275,141.756937 121.88744,140.595772 C122.468516,139.563748 122.965761,138.679468 123.381471,137.941838 C123.74206,137.320216 123.956805,136.983139 123.994701,137.00065" id="Fill-124" fill="#132529" fill-rule="nonzero"></path>
            <path d="M98.1886004,141.510357 C98.1886004,141.510357 94.9875147,182.546875 94.1530437,187.821312 C93.3185726,193.096874 96.168542,275.816287 96.168542,275.816287 L114.912221,277 C114.912221,277 115.107159,208.707725 114.912221,208.236713 C114.718423,207.766825 115,160.021474 115,160.021474 L110.743286,141 L103.496383,149.468103 L98.1886004,141.510357" id="Fill-125" fill="#FFFFFE" fill-rule="nonzero"></path>
            <path d="M119.556386,181.140793 C119.598182,181.228939 118.922846,181.38037 118.598377,182.274262 C118.447692,182.694652 118.401496,183.286813 118.681969,183.764837 C118.943744,184.251901 119.587183,184.501648 120.230622,184.3796 C120.87406,184.257551 121.387711,183.787438 121.463604,183.23709 C121.559295,182.686741 121.309619,182.152214 121.023646,181.81319 C120.408805,181.09898 119.72577,181.204077 119.734569,181.105761 C119.729069,181.077509 119.878655,180.991623 120.176727,181.000663 C120.472599,181.005184 120.910357,181.146443 121.312918,181.52163 C121.695682,181.891166 122.078445,182.52514 121.986054,183.319586 C121.906862,184.130982 121.165533,184.81581 120.334012,184.9582 C119.50909,185.129972 118.577479,184.762696 118.223313,184.033795 C117.860348,183.325236 117.997835,182.592945 118.226613,182.107011 C118.471889,181.609776 118.831555,181.317085 119.105429,181.204077 C119.381503,181.085419 119.550886,181.111411 119.556386,181.140793" id="Fill-126" fill="#132529" fill-rule="nonzero"></path>
            <path d="M119.556386,216.139666 C119.598182,216.228943 118.922846,216.381507 118.598377,217.273156 C118.447692,217.694684 118.401496,218.285726 118.681969,218.766019 C118.943744,219.250832 119.587183,219.501715 120.230622,219.379664 C120.87406,219.258743 121.387711,218.787491 121.463604,218.237132 C121.559295,217.686773 121.309619,217.151105 121.023646,216.813205 C120.408805,216.098982 119.72577,216.204081 119.734569,216.106893 C119.729069,216.07751 119.878655,215.991622 120.176727,216.000663 C120.472599,216.005184 120.910357,216.147576 121.312918,216.521639 C121.695682,216.891182 122.078445,217.525169 121.986054,218.32076 C121.906862,219.129912 121.165533,219.815883 120.334012,219.958275 C119.50909,220.130051 118.577479,219.761638 118.223313,219.033853 C117.860348,218.32528 117.997835,217.592975 118.226613,217.107032 C118.471889,216.609787 118.831555,216.317091 119.105429,216.202951 C119.381503,216.085421 119.550886,216.110283 119.556386,216.139666" id="Fill-127" fill="#132529" fill-rule="nonzero"></path>
            <path d="M120.556398,260.14077 C120.598195,260.228901 119.922854,260.381437 119.598382,261.274051 C119.447695,261.694371 119.401499,262.285305 119.680875,262.764379 C119.943752,263.251363 120.587196,263.501069 121.22954,263.379041 C121.874083,263.258142 122.387739,262.788107 122.463632,262.23672 C122.559324,261.686462 122.309645,261.150893 122.02367,260.814185 C121.408824,260.098964 120.725784,260.205173 120.734583,260.106873 C120.729083,260.077496 120.87867,259.991624 121.176744,260.000663 C121.472619,260.006312 121.91038,260.147549 122.311845,260.522673 C122.694612,260.892148 123.078478,261.523758 122.986086,262.320332 C122.906893,263.129334 122.165558,263.815179 121.334031,263.958675 C120.509103,264.129289 119.577484,263.762074 119.223315,263.033294 C118.860347,262.324851 118.997835,261.592681 119.226615,261.106827 C119.471893,260.609675 119.831562,260.317033 120.105438,260.204044 C120.381514,260.086535 120.550899,260.110263 120.556398,260.14077" id="Fill-128" fill="#132529" fill-rule="nonzero"></path>
            <path d="M138.934282,211 C138.310753,208.364751 137.665486,205.603056 137.00649,202.741769 C136.985897,202.116247 137.013355,201.467226 137.102594,200.754422 C137.539636,197.239638 138.707752,193.012051 139.221448,189.506219 C139.88502,184.964192 139.564675,180.355025 139.498318,175.760405 C140.231679,171.285518 140.89754,167.224661 141.469585,163.725543 C141.643486,162.633398 141.807091,161.597202 141.961543,160.621433 C142.228116,160.068646 142.522147,159.528169 142.845925,159 C143.63077,162.844889 142.942028,166.824059 143.206313,170.736088 C143.427122,174.011405 144.311504,177.208393 144.722232,180.465806 C146.028783,190.837831 142.495833,201.132645 138.934282,211 M139.509759,172.589154 C139.605862,168.993802 140.050913,165.35481 141.342591,162.042565 C141.249919,162.566258 141.152672,163.105617 141.05428,163.658403 C140.592068,166.330579 140.073795,169.328384 139.509759,172.589154" id="Fill-129" fill="#4F42CD" fill-rule="nonzero"></path>
            <path d="M138.758254,212 C137.914338,207.775513 137.079658,205.675045 137,203.212349 C137.664973,206.079887 138.316093,208.847615 138.945278,211.488621 C138.882937,211.65908 138.820596,211.82954 138.758254,212 M139.514431,176.172043 C139.50635,175.57992 139.501732,174.988917 139.504041,174.397915 C139.50635,173.931394 139.513276,173.462629 139.525976,172.993865 C140.095128,169.725971 140.618102,166.721618 141.084507,164.043604 C141.183791,163.48961 141.281921,162.949073 141.375433,162.424236 C141.56592,161.942015 141.77257,161.466522 142,161 C141.844147,161.977901 141.679058,163.01636 141.503579,164.110891 C140.926345,167.617653 140.254445,171.68738 139.514431,176.172043" id="Fill-130" fill="#051317" fill-rule="nonzero"></path>
            <path d="M138.650458,172 C143.004895,184.140201 141.223123,198.318479 134,209" id="Fill-131" fill="#6E5FFF" fill-rule="nonzero"></path>
            <path d="M134.0054,208.999161 C133.909682,208.93466 135.099634,207.149003 136.527795,203.999773 C137.251121,202.432514 137.973359,200.498618 138.636861,198.30785 C139.263381,196.105766 139.810498,193.64002 140.142249,191.011325 C140.446807,188.378103 140.504456,185.847857 140.42179,183.552982 C140.301054,181.259239 140.061759,179.199736 139.734358,177.49329 C139.101312,174.074741 138.373636,172.039002 138.482406,172 C138.518301,171.986949 138.714088,172.488245 139.037138,173.410495 C139.205732,173.869923 139.394993,174.437984 139.563588,175.112414 C139.738709,175.785713 139.973654,176.545014 140.125933,177.409552 C140.507719,179.122787 140.792698,181.202659 140.942802,183.524692 C141.055924,185.847857 141.013503,188.415446 140.704594,191.084879 C140.368492,193.750917 139.797445,196.247216 139.135031,198.469668 C138.435635,200.679673 137.665538,202.621491 136.887826,204.18196 C136.533234,204.979735 136.125343,205.655297 135.79468,206.262964 C135.470543,206.872893 135.152932,207.37419 134.879917,207.775906 C134.34694,208.586128 134.038031,209.021792 134.0054,208.999161" id="Fill-132" fill="#051317" fill-rule="nonzero"></path>
            <path d="M82.9968241,226.996475 C82.9476943,227.054739 82.1057886,226.388202 80.8496295,225.185639 C79.5912373,223.983076 77.934224,222.228173 76.2638116,220.142332 C74.5956324,218.052995 73.2367474,216.037071 72.3289632,214.530371 C71.4200623,213.024837 70.941047,212.042511 71.005809,212.001726 C71.0795036,211.955115 71.6791102,212.855872 72.6695218,214.290325 C73.6588169,215.725943 75.0567823,217.683603 76.7104459,219.75313 C78.3652261,221.820327 79.9597106,223.605527 81.1365921,224.878006 C82.3123569,226.151651 83.0548865,226.930054 82.9968241,226.996475" id="Fill-133" fill="#132529" fill-rule="nonzero"></path>
            <path d="M75.9875386,227.999015 C75.9148767,228.032447 75.4390588,227.212791 74.7979938,225.824795 C74.1569287,224.437952 73.3717119,222.474698 72.6814243,220.248601 C71.9923087,218.021351 71.5305543,215.960107 71.2762378,214.457982 C71.0207494,212.954703 70.9527754,212.012849 71.0301251,212.000168 C71.2117797,211.971347 71.8880037,215.663832 73.265063,220.073372 C74.6221989,224.487523 76.1539577,227.925235 75.9875386,227.999015" id="Fill-134" fill="#132529" fill-rule="nonzero"></path>
            <path d="M110.99807,206.105632 C110.940501,206.188265 110.339827,205.746799 109.266652,205.304201 C108.198908,204.855943 106.620645,204.486923 104.868589,204.611439 C103.116533,204.746143 101.603443,205.344952 100.607389,205.944893 C99.6048171,206.541438 99.0704019,207.06667 99.0030569,206.993092 C98.9585224,206.954605 99.3995235,206.311649 100.395578,205.59172 C101.381856,204.870659 102.972067,204.164313 104.828399,204.022818 C106.683645,203.890378 108.354235,204.353351 109.428497,204.922729 C110.512534,205.488711 111.036087,206.061485 110.99807,206.105632" id="Fill-135" fill="#132529" fill-rule="nonzero"></path>
            <path d="M48.7785132,202.962111 C48.7785132,202.962111 40.397592,211.975514 41.0345512,218.268996 C41.6715103,224.563606 44.6451278,238.410168 52.5032402,237.990678 C60.3602111,237.571188 67.4660725,225.094735 68.5276711,215.188223 C69.5904112,205.282839 68.5276711,182 68.5276711,182 L57.3363675,184.489878 L48.7785132,202.962111" id="Fill-136" fill="#F1AD92" fill-rule="nonzero"></path>
            <path d="M32.6178578,146.027066 C38.3873369,153.348294 52.6917838,171 52.6917838,171 L66.1489804,167.609519 C67.1279747,167.363636 67.8548382,166.545905 67.9809036,165.551093 C68.0626758,164.902548 67.8798242,164.248363 67.4709634,163.736295 L48.6145338,140.028869 C47.1664854,138.208431 44.6996923,137.524921 42.5111517,138.340396 L33.8864617,141.552668 C32.0499956,142.236178 31.4083114,144.493115 32.6178578,146.027066" id="Fill-137" fill="#132529" fill-rule="nonzero"></path>
            <path d="M65.998506,163.998811 C65.9682593,164.026117 65.5145584,163.582383 64.7191816,162.754079 C63.9316465,161.920087 62.8001949,160.702662 61.4446935,159.158694 C58.7280895,156.078724 55.1029635,151.700546 51.3747746,146.648803 C50.4427273,145.385867 49.5465281,144.141136 48.6951388,142.930538 C47.8527115,141.729042 47.0270879,140.550302 45.9135603,139.926798 C44.8000328,139.269162 43.5296703,139.544504 42.4251047,139.938176 C41.3026151,140.327297 40.249581,140.691387 39.2783251,141.027032 C37.4220723,141.651673 35.8828501,142.170501 34.7043481,142.567586 C33.619947,142.918022 33.0138922,143.09324 33,143.055694 C32.9870063,143.017009 33.5672953,142.767835 34.6281712,142.349132 C35.7909897,141.906536 37.3100474,141.329681 39.1405344,140.632222 C40.1061891,140.273821 41.1525018,139.886976 42.2693901,139.473962 C42.8373564,139.272575 43.4512529,139.072326 44.1267631,139.014299 C44.8022733,138.950583 45.5349161,139.10077 46.1678569,139.445518 C47.4471813,140.150941 48.3086529,141.401361 49.1589219,142.591479 C50.0271149,143.788424 50.9233142,145.026329 51.8419184,146.292678 C55.5589049,151.331906 59.1246577,155.738528 61.7561228,158.883352 C63.0264852,160.39091 64.0806396,161.64133 64.8872189,162.599341 C65.6299441,163.474294 66.0276325,163.970366 65.998506,163.998811" id="Fill-138" fill="#334F55" fill-rule="nonzero"></path>
            <path d="M40.5550401,143.093802 C41.0299346,142.860402 41.6732746,143.08061 41.906663,143.554512 C42.1390366,144.029429 41.9198545,144.672799 41.4449599,144.906198 C40.9710801,145.139598 40.3267254,144.91939 40.093337,144.445488 C39.8609634,143.970571 40.0801455,143.326186 40.5550401,143.093802" id="Fill-139" fill="#FFFFFE" fill-rule="nonzero"></path>
            <path d="M51.385113,159.496407 L45.1721567,160.518551 L42.8825757,162.528133 C42.2426729,163.089024 41.9068374,163.923084 42.0225645,164.759384 C42.1348879,165.560977 42.4934149,166.606632 43.4351158,167.735132 C44.9180109,169.50849 46.1365491,170.401886 46.1365491,170.401886 C46.1365491,170.401886 43.9479456,173.894864 47.3380686,175.659265 C47.3380686,175.659265 47.1122873,179.28211 50.6612514,179.653799 C50.6612514,179.653799 51.6959877,183.090799 54.3645182,183.276643 L57.1283534,185.970267 L56.2830918,187.626072 L68.6159689,188 C68.6159689,188 68.7090044,181.329756 68.1258306,178.282357 C67.5676176,175.362586 67.1614382,174.426647 67.1614382,174.426647 C67.787726,170.991886 65.1918085,169.566706 64.8003787,169.80405 C64.8003787,169.80405 70.6877107,168.282589 69.9332154,164.284697 L64.2818759,165.719953 L53.9231669,167.852684 L60.5570521,163.460713 C60.891753,163.161794 61.1890127,162.824812 61.4306781,162.448645 C61.9968332,161.569803 62.8330182,159.965496 62.1170986,159.032916 C61.8107622,158.633239 53.6451949,162.005305 53.6451949,162.005305 L48.6246815,166.627903 L47.043078,164.407847 C47.043078,164.407847 52.2008755,163.334204 51.385113,159.496407" id="Fill-140" fill="#F1AD92" fill-rule="nonzero"></path>
            <path d="M65.9998819,170.070725 C66.018051,170.253239 63.9371535,170.58606 61.4672233,171.392462 C58.9919492,172.184551 57.0756425,173.146031 57.0018973,172.98141 C56.9324271,172.84184 58.778195,171.608378 61.3122515,170.796011 C63.8420329,169.970521 65.9934693,169.910876 65.9998819,170.070725" id="Fill-141" fill="#EA8E6C" fill-rule="nonzero"></path>
            <path d="M63.2236706,179.994994 C63.157012,179.907329 64.2017131,179.261246 65.3107742,177.667655 L65.518795,177.368631 L65.6705007,177.715691 C65.8509387,178.131201 66.2106652,178.521493 66.6910668,178.734052 C67.157677,178.944209 67.7909336,178.976633 68.1989302,178.639181 C68.3966074,178.466252 68.4586689,178.281313 68.4126974,177.957071 C68.3563824,177.602806 68.3000674,177.243738 68.2414538,176.877464 C68.105838,176.144917 68.0460752,175.33311 67.8127701,174.663009 C67.5852114,173.985703 67.0565398,173.618228 66.4117903,173.614626 C65.7681901,173.587005 65.1360827,173.813975 64.5039753,173.983301 C63.285732,174.295535 62.1559838,174.586152 61.1308205,174.849148 C59.2080648,175.324704 58.0151059,175.57449 58.0001651,175.489227 C57.9840751,175.405164 59.1448541,175.001662 61.0285341,174.420428 C62.0353087,174.120204 63.1455191,173.788756 64.341926,173.432089 C64.9625405,173.253156 65.6440672,172.981753 66.4301789,173.000967 C66.8186376,173.010574 67.2496199,173.106646 67.6104957,173.373245 C67.9782673,173.632639 68.2230652,174.03494 68.3701738,174.43724 C68.6540475,175.275467 68.6873768,176.039238 68.8195447,176.780192 C68.8735612,177.154872 68.9264283,177.522346 68.9792955,177.885017 C69.0620441,178.274108 68.893099,178.855342 68.5379696,179.090718 C67.8610401,179.599899 67.0599877,179.477407 66.4887925,179.204804 C65.9015072,178.915387 65.4808685,178.414613 65.2843406,177.882615 L65.6440672,177.930651 C65.0280498,178.732851 64.4108831,179.261246 63.9661094,179.583086 C63.5190371,179.903726 63.2432084,180.027418 63.2236706,179.994994" id="Fill-142" fill="#EA8E6C" fill-rule="nonzero"></path>
            <path d="M51.9920457,163.00617 C52.119084,163.121657 50.7060817,164.626329 49.067766,166.549643 C47.421061,168.467405 46.1638604,170.085344 46.0128526,169.996507 C45.8714325,169.916554 46.9081136,168.136489 48.5775896,166.189855 C50.2410733,164.238779 51.8745951,162.897345 51.9920457,163.00617" id="Fill-143" fill="#EA8E6C" fill-rule="nonzero"></path>
            <path d="M53.9987905,167.047566 C54.0424828,167.222913 52.8928902,167.658845 52.091865,169.088408 C51.2587987,170.491182 51.2898688,171.997459 51.1432569,171.999895 C51.0820877,172.007201 50.9772262,171.633371 51.0044125,171.00261 C51.028686,170.37672 51.2286996,169.506074 51.6821284,168.717014 C52.1365282,167.931606 52.7336561,167.420178 53.1997072,167.194906 C53.669642,166.963546 53.9851974,166.97207 53.9987905,167.047566" id="Fill-144" fill="#EA8E6C" fill-rule="nonzero"></path>
            <path d="M121.130355,76.7936179 C120.179388,74.3316375 120.552739,71.5842912 120.178254,68.9757111 C119.354385,63.2325823 114.667639,58.6219644 109.243269,56.3759669 C104.197924,54.2866408 98.031392,54.7331545 91.9477005,56.66469 C87.776156,57.988564 83.8497294,60.3005874 81.0660519,63.6365709 C77.3722604,68.0647783 76.0649646,74.324923 77.6831971,79.8319256 L107.485456,75.5894857 C110.271403,77.8690557 113.124303,80.1866746 116.507158,81.4601899 C117.498978,81.8339633 118.567965,82.1159719 119.616525,81.9525859 C120.665085,81.7903191 121.68641,81.0875356 121.936067,80.0691709 C122.209555,78.9579225 121.54229,77.8634603 121.130355,76.7936179" id="Fill-145" fill="#132529" fill-rule="nonzero"></path>
            <path d="M101.975543,54.2596685 C108.483564,53.1615566 114.200299,55.6762215 119.682704,59.3547265 C125.165109,63.0320982 129.290214,68.5793199 131.668602,74.7418922 C134.173777,81.2342382 134.799788,90.6220185 132.859494,97.3047491 C130.920332,103.98748 126.206573,108.868355 120.114006,111.022649 C111.161939,114.186662 100.822008,113.800226 93.2578054,108.05922 C85.6924713,102.319347 81.3760536,92.8375074 81.0239933,83.3409358 C80.7828716,76.7987273 82.3529926,70.1069307 86.0117028,64.6809659 C89.670413,59.2538679 95.5037463,55.2025262 101.975543,54.2596685" id="Fill-146" fill="#132529" fill-rule="nonzero"></path>
            <path d="M92.5701996,125.135503 L92.8106225,130.415537 L104.45364,151 L121.425468,129.341937 L122,75.2627531 C121.95485,72.7558084 119.998733,70.7010836 117.495174,70.5307963 L91.6276965,65.0218332 C83.3889778,64.4624789 78.3118772,74.7631685 78.1019304,83.0113888 C77.8694087,92.1741984 77.9461635,103.371434 79.287114,110.151349 C81.98256,123.78561 92.5701996,125.135503 92.5701996,125.135503" id="Fill-147" fill="#F1AD92" fill-rule="nonzero"></path>
            <path d="M81,94.4743755 C81.0025767,95.3033991 81.9005833,95.9857107 83.0051315,95.9997789 C84.1083967,96.0138472 85.0025547,95.3546478 85,94.5256242 C84.9974233,93.6966006 84.0994167,93.014289 82.9974343,93.0002207 C81.8916033,92.9861524 80.9974453,93.6463567 81,94.4743755" id="Fill-148" fill="#132529" fill-rule="nonzero"></path>
            <path d="M80.0308616,87.969336 C80.2582064,88.1889419 81.5578045,87.1592592 83.456869,87.0931533 C85.3525403,87.0012774 86.7822113,87.9166754 86.9790173,87.6791425 C87.0762892,87.5727009 86.8376337,87.1704635 86.2155458,86.7547809 C85.6013755,86.3413392 84.5664475,85.9559085 83.3844806,86.0040873 C82.2013826,86.054507 81.2230081,86.5228502 80.6687844,86.9855912 C80.1021189,87.4516935 79.9200168,87.8707375 80.0308616,87.969336" id="Fill-149" fill="#132529" fill-rule="nonzero"></path>
            <path d="M98,94.4748856 C98.0012939,95.3041781 98.9005833,95.9867109 100.005131,95.9997785 C101.107114,96.0138514 102.002555,95.3554434 102,94.5261509 C101.997423,93.6968584 101.099417,93.0143256 99.9961514,93.0002528 C98.8916033,92.9851747 97.9974453,93.6465983 98,94.4748856" id="Fill-150" fill="#132529" fill-rule="nonzero"></path>
            <path d="M98.0306705,87.969336 C98.2591117,88.1889419 99.5596437,87.1592591 101.457289,87.0931532 C103.351543,87.0012773 104.782128,87.9166754 104.978904,87.6791425 C105.076161,87.5727008 104.839803,87.1704635 104.214417,86.7559013 C103.60034,86.3413391 102.5667,85.9559083 101.383781,86.0040871 C100.201993,86.0556273 99.2237672,86.5228501 98.6684966,86.9867116 C98.1041788,87.4516935 97.9198425,87.8707374 98.0306705,87.969336" id="Fill-151" fill="#132529" fill-rule="nonzero"></path>
            <path d="M92.7124059,101.875018 C92.7178562,101.767401 91.5732802,101.607674 89.7212472,101.434353 C89.252516,101.402634 88.8066764,101.323336 88.7151103,100.99482 C88.5930222,100.648178 88.7696139,100.118019 88.9756376,99.543681 C89.372424,98.3519575 89.7877416,97.1024604 90.2237706,95.792924 C91.9515353,90.4539576 93.1844072,86.0710887 92.9772935,86.000854 C92.7701797,85.9306194 91.2004754,90.2013394 89.4716206,95.5403058 C89.0573931,96.8555063 88.6595166,98.1106675 88.2834416,99.3103207 C88.1253811,99.8687995 87.8441425,100.506575 88.1090301,101.225914 C88.2485593,101.583884 88.6006527,101.833104 88.9026028,101.905604 C89.2056429,101.989433 89.4683504,101.983769 89.7005358,101.989433 C91.5591093,102.020019 92.7102257,101.984902 92.7124059,101.875018" id="Fill-152" fill="#132529" fill-rule="nonzero"></path>
            <path d="M92,125.068072 C92,125.068072 101.155721,124.874012 110,119 C110,119 105.781581,128.729116 92.1462326,127.95628 L92,125.068072" id="Fill-153" fill="#EA8E6C" fill-rule="nonzero"></path>
            <path d="M93.61779,106.059199 C94.4932339,105.1489 95.3221506,104.927509 96.6126651,105.019034 C97.5089237,105.082112 97.9460335,105.53355 98.5153781,106.247195 C99.0847227,106.959603 99.1618597,108.398023 98.6965889,109.116615 C98.1700981,109.925494 97.0179405,110.150595 96.0274033,109.906942 C95.0356417,109.662052 94.342633,109.361505 93.516165,108.741859 C93.2884272,108.571178 93.124358,108.18158 93.0496698,107.907006 C92.8194831,107.064732 93.4549452,106.269458 93.61779,106.059199" id="Fill-154" fill="#EA8E6C" fill-rule="nonzero"></path>
            <path d="M98.0128171,83.3170545 C98.2255837,83.7462663 100.175554,83.4797934 102.48793,83.6358704 C104.804981,83.7538798 106.685978,84.2459031 106.973564,83.8461937 C107.102159,83.6558559 106.759628,83.2570981 105.989226,82.8602438 C105.225838,82.4624377 104.020551,82.0998441 102.631722,82.0170472 C101.244063,81.9361536 99.9873378,82.1531387 99.1619905,82.4567276 C98.3296289,82.7593647 97.9204624,83.1143448 98.0128171,83.3170545" id="Fill-155" fill="#132529" fill-rule="nonzero"></path>
            <path d="M81.0516188,79.8531512 C81.3738792,80.2235914 82.5638439,79.7850703 84.0134941,79.7129846 C85.4600156,79.593843 86.702126,79.873175 86.9691119,79.4636883 C87.0848753,79.2654527 86.8762926,78.8900065 86.3256341,78.5486007 C85.7833189,78.207195 84.8874559,77.9448832 83.8914732,78.0099606 C82.8965334,78.0760391 82.0465586,78.4534877 81.558475,78.8619732 C81.0610051,79.2734622 80.9076967,79.6719358 81.0516188,79.8531512" id="Fill-156" fill="#132529" fill-rule="nonzero"></path>
            <path d="M125.374315,73.1135716 C122.731009,65.1527345 111.162078,54.2939384 102.962024,55.0360986 L90,63.3161444 C90.876265,67.8648685 94.3980688,71.770615 98.7637661,73.0383295 C101.094519,73.714368 103.889637,73.8591519 105.305056,75.8690267 C106.750614,77.9210827 105.982627,80.9638257 107.332186,83.0831435 C109.201924,86.0198636 114.162588,85.7838771 115.583589,88.9725441 C116.20423,90.3656621 115.924048,92.049488 116.569247,93.4312057 C117.428768,95.2723559 122.073531,97.5375977 123.964477,96.8854999 C125.85654,96.2322621 125.800727,92.9238918 126.392345,91.1773642 C127.400329,88.1939028 126.934848,86.6662612 126.554203,85.0189163 C125.654496,81.1143098 126.634574,76.9121552 125.374315,73.1135716" id="Fill-157" fill="#132529" fill-rule="nonzero"></path>
            <path d="M118.00088,97.766339 C117.96448,96.7719291 119.064419,94.3820491 120.075635,94.1919575 C122.77714,93.684314 127.681935,93.7172779 127.986779,100.380373 C128.403095,109.490486 118.849436,108.014804 118.821,107.754389 C118.799388,107.551112 118.126002,101.203371 118.00088,97.766339" id="Fill-158" fill="#F1AD92" fill-rule="nonzero"></path>
            <path d="M122.00756,104.302515 C122.046708,104.27277 122.174219,104.407172 122.452729,104.51844 C122.724528,104.626403 123.185356,104.6903 123.660725,104.490899 C124.624886,104.0943 125.381002,102.525534 125.351921,100.877448 C125.338499,100.045693 125.125981,99.2624113 124.798256,98.6190408 C124.485071,97.963552 124.025361,97.5162772 123.528741,97.4512792 C123.033238,97.3609429 122.696565,97.6672049 122.59478,97.9282988 C122.48181,98.1904943 122.548921,98.3700652 122.499707,98.3865901 C122.475099,98.4108267 122.295018,98.2422724 122.352062,97.8633007 C122.382262,97.6793232 122.48181,97.4589908 122.690973,97.2739116 C122.905728,97.0855274 123.228979,96.9808696 123.5746,97.0029028 C124.291568,97.0205294 124.963796,97.640765 125.325076,98.3458286 C125.725505,99.0519939 125.983882,99.9322218 125.999541,100.867533 C126.02303,102.710613 125.142758,104.473272 123.819555,104.913937 C123.17529,105.108931 122.621625,104.939275 122.330811,104.735468 C122.034404,104.523949 121.976241,104.321243 122.00756,104.302515" id="Fill-159" fill="#EA8E6C" fill-rule="nonzero"></path>
            <path d="M133.65857,85 C133.722234,85.0113474 133.96286,83.92657 133.996311,82.1328253 C134.034077,80.3436919 133.788055,77.8421328 132.973379,75.2345169 C132.151148,72.6292066 130.935068,70.474638 129.894871,69.0728427 C128.855754,67.6629779 128.051867,66.9528579 128.006547,67.0024279 C127.841454,67.1269295 130.839033,70.3051775 132.412277,75.4362555 C134.052421,80.5396665 133.456789,85.007889 133.65857,85" id="Fill-160" fill="#E4B962" fill-rule="nonzero"></path>
            <path d="M93,60.1414211 C92.1275855,63.9154468 86.2857066,68.7484362 83.7207851,71.6826713 C78.8275292,77.2838846 77.9039299,78.1091382 77.9437403,95 C75.6415668,90.6679776 73.8296289,83.1020345 74.0127564,78.2187247 C74.1970212,73.335415 76.0328453,68.4442777 79.4906552,64.9341542 C82.9484651,61.4229125 88.0817204,59.435818 93,60.1414211" id="Fill-161" fill="#132529" fill-rule="nonzero"></path>
            <path d="M130,72.8072262 C130.006634,72.8453974 129.442818,72.986515 128.413094,73.2097584 C127.89992,73.3277419 127.267455,73.4549791 126.524703,73.5463585 C125.783077,73.6446782 124.941292,73.7938927 124.000473,73.8436308 C122.124462,74.0240763 119.874824,74.0529938 117.38548,73.9060927 C114.899513,73.7187071 112.174964,73.331212 109.37389,72.6418179 C106.579567,71.9235062 103.987814,70.9750109 101.698788,69.9617403 C99.4232665,68.9114552 97.4403443,67.8183722 95.8569326,66.7680871 C95.0444072,66.2776457 94.3658021,65.7455629 93.7524692,65.3060163 C93.1335094,64.8734099 92.6304639,64.4604674 92.2275773,64.1123003 C91.4139265,63.4252195 90.9772785,63.031941 91.0009115,63.0018667 C91.0256699,62.9717925 91.5095839,63.3060792 92.3581216,63.9341682 C92.7790142,64.2545746 93.2978151,64.6385995 93.9280287,65.0434451 C94.5548662,65.4540741 95.2435997,65.9595527 96.0628774,66.4233901 C97.6586683,67.4216236 99.6404651,68.4661251 101.901357,69.478239 C104.178003,70.4544952 106.743873,71.3763863 109.506685,72.0866011 C112.275123,72.7678984 114.964785,73.1658037 117.421493,73.3809502 C119.881577,73.5544554 122.108706,73.5683359 123.973464,73.439942 C124.908656,73.416808 125.745939,73.296511 126.48644,73.2294223 C127.226941,73.1692738 127.860531,73.0744243 128.377081,72.9899851 C129.413558,72.834987 129.992004,72.7678984 130,72.8072262" id="Fill-162" fill="#334F55" fill-rule="nonzero"></path>
            <path d="M131,79.2650915 C131.00549,79.3016753 130.622882,79.3925805 129.9205,79.5245039 C129.221484,79.6652961 128.19484,79.7972195 126.921351,79.8981021 C124.375497,80.1031931 120.80973,80.0433287 116.969069,79.3005667 C113.12953,78.5467187 109.80724,77.265177 107.531791,76.1199932 C106.391823,75.5501728 105.493088,75.042434 104.899542,74.6499895 C104.301507,74.2653053 103.981732,74.0380423 104.000807,74.0058929 C104.051297,73.9227479 105.399961,74.7298087 107.701216,75.7707842 C109.997983,76.8150854 113.2911,78.0201337 117.076782,78.7628957 C120.862464,79.4945717 124.372131,79.6165177 126.898911,79.5100921 C129.427935,79.4103181 130.984172,79.1697519 131,79.2650915" id="Fill-163" fill="#334F55" fill-rule="nonzero"></path>
            <path d="M133.235799,80 C133.267054,79.9934003 133.403238,80.4872505 133.547236,81.4008732 C133.70128,82.3122512 133.837465,83.6434018 133.926766,85.2921878 C134.011602,86.9409739 134.037276,88.9096401 133.924533,91.0915598 C133.796163,93.2712347 133.591887,95.6787542 132.974593,98.1457601 C131.675263,103.124667 128.525168,106.834155 125.788091,108.679359 C124.422901,109.623286 123.202826,110.187847 122.35335,110.536909 C121.502757,110.887094 121.012718,111.02627 121.000439,110.995965 C120.983695,110.953314 121.446944,110.744551 122.262932,110.336002 C123.076688,109.928575 124.252113,109.315752 125.555909,108.351622 C126.868634,107.402083 128.265079,106.04175 129.491852,104.284093 C130.675091,102.499498 131.88512,100.428695 132.425392,98.0077065 C133.028174,95.6001871 133.249194,93.2162378 133.404354,91.0612554 C133.545004,88.900661 133.560631,86.9454634 133.527143,85.3067789 C133.48919,83.6680943 133.414401,82.3403109 133.328449,81.4278105 C133.252543,80.5130653 133.190032,80.0079913 133.235799,80" id="Fill-164" fill="#334F55" fill-rule="nonzero"></path>
            <path d="M95.9155659,109.766466 C95.9276624,109.670277 96.6268433,109.906168 97.4772311,109.405759 C97.8873043,109.162998 98.274394,108.732439 98.3711665,108.147292 C98.4764065,107.572451 98.3082644,106.871649 97.8401277,106.365514 C97.3647331,105.854799 96.6643426,105.593716 96.0292735,105.551347 C95.3881561,105.502108 94.8075214,105.675018 94.3635779,105.893733 C93.4684328,106.344903 93.09223,106.894551 93.0087638,106.832716 C92.948281,106.810959 93.1877928,106.1468 94.1373723,105.52959 C94.605509,105.235299 95.2756581,104.976506 96.0583052,105.001698 C96.8240171,105.021165 97.6973884,105.314311 98.313103,105.971599 C98.923979,106.636903 99.1090563,107.519777 98.9409142,108.252642 C98.7824493,109.003828 98.2163306,109.542026 97.6949691,109.773337 C96.5869247,110.26573 95.8502445,109.808835 95.9155659,109.766466" id="Fill-165" fill="#132529" fill-rule="nonzero"></path>
            <path d="M154,186.619402 L158.995835,176.091807 C159.824926,172.805878 163.208515,171.693224 167.356212,171.403158 L171.740312,169.631768 C171.740312,169.631768 174.937916,165.083723 177.895755,165.144615 C178.371922,165.154579 178.787588,165.466786 178.925396,165.916277 C179.019509,166.220734 178.972453,166.551763 178.796551,166.818579 L175.197847,172.284425 L172.337482,173.687145 C172.337482,173.687145 175.019704,174.32706 176.082958,173.335081 C177.146211,172.343102 180.752758,169.540984 180.752758,169.540984 C180.752758,169.540984 183.492121,164.654161 187.060574,165.01951 C187.518815,165.066009 187.78883,165.556463 187.575955,165.961669 L184.841075,171.176199 C184.841075,171.176199 189.824585,163.774001 194.573934,166.53737 L189.308084,172.199177 C189.308084,172.199177 196.949168,167.917948 200,171.500585 L180.653043,179.394343 L169.508488,181.555439 L165.608398,192 L162.178873,190.069184 L154,186.619402" id="Fill-166" fill="#F1AD92" fill-rule="nonzero"></path>
            <path d="M165.923579,200.761545 C165.923579,200.761545 166.514073,219.904629 163.02479,225.183332 C159.53439,230.462035 153.054613,237.611671 145.025909,231.88562 L140,212.620223 C140,212.620223 148.176328,203.536233 149.662628,199.820416 C153.369991,190.547294 159.345387,176 159.345387,176 L170,180.804175 L165.923579,200.761545" id="Fill-167" fill="#F1AD92" fill-rule="nonzero"></path>
            <path d="M150.992791,198.001463 C151.068282,198.048606 150.544563,198.967327 149.720059,200.456368 C148.894376,201.944259 147.787961,204.016268 146.686264,206.358489 C145.588106,208.704159 144.703446,210.873904 144.087722,212.456082 C143.470819,214.03826 143.100441,215.024821 143.014334,214.999525 C142.938843,214.977678 143.161778,213.945123 143.67724,212.318102 C144.191522,210.69108 145.019564,208.475341 146.128339,206.110124 C147.239472,203.746056 148.417839,201.686695 149.344963,200.243648 C150.270908,198.799451 150.925556,197.960068 150.992791,198.001463" id="Fill-168" fill="#EA8E6C" fill-rule="nonzero"></path>
            <path d="M174.997388,172.031381 C175.059927,172.199076 173.99165,172.993691 172.613759,173.805075 C171.233817,174.61517 170.065069,175.136314 170.002531,174.968619 C169.941018,174.800924 171.008269,174.006309 172.387186,173.194925 C173.766103,172.38483 174.93485,171.863686 174.997388,172.031381" id="Fill-169" fill="#EA8E6C" fill-rule="nonzero"></path>
            <path d="M177.001836,176.984604 C176.965246,176.906999 177.477507,176.547627 178.358898,176.130946 C178.878693,175.895743 179.390954,175.662927 179.906444,175.428917 C180.203469,175.288034 180.500495,175.149538 180.802901,175.007461 C181.142974,174.855832 181.307629,174.712561 181.559455,174.398558 C182.492502,173.223733 183.264123,172.017866 183.874317,171.209578 C184.468367,170.392931 184.920363,169.904615 185,170.01565 C184.992467,170.061019 184.945115,170.151758 184.797678,170.418004 C184.592128,170.776182 184.391959,171.124809 184.193942,171.469854 C183.660157,172.348584 182.959564,173.573554 181.970556,174.821208 C181.841414,174.977613 181.715501,175.124466 181.537932,175.271319 C181.330229,175.439662 181.19463,175.473092 181.024594,175.565025 C180.700664,175.717848 180.387496,175.845598 180.088318,175.963797 C179.491039,176.197806 178.950797,176.386447 178.496649,176.544045 C177.588354,176.850885 177.03735,177.059822 177.001836,176.984604" id="Fill-170" fill="#EA8E6C" fill-rule="nonzero"></path>
        </g>
    </g>
</svg>