<?xml version="1.0" encoding="UTF-8"?>
<svg width="100%" height="300px" viewBox="0 0 440 444" version="1.1" xmlns="http://www.w3.org/2000/svg" xmlns:xlink="http://www.w3.org/1999/xlink">
    <title>no internet</title>
    <defs>
        <polygon id="path-1" points="-2.84217094e-14 0 67.2886744 0 67.2886744 16.751 -2.84217094e-14 16.751"></polygon>
        <polygon id="path-3" points="0 0 439.553 0 439.553 279.185701 0 279.185701"></polygon>
        <polygon id="path-5" points="0 0 15.5959105 0 15.5959105 39.03 0 39.03"></polygon>
    </defs>
    <g id="no-internet" stroke="none" stroke-width="1" fill="none" fill-rule="evenodd">
        <g id="Group-3" transform="translate(97.845220, 0.195000)">
            <mask id="mask-2" fill="white">
                <use xlink:href="#path-1"></use>
            </mask>
            <g id="Clip-2"></g>
            <path d="M67.2537796,16.088 C67.7677796,12.353 62.4957796,9.28 58.5347796,8.961 C56.6457796,8.808 54.6837796,9.097 52.8937796,8.474 C49.0167796,7.122 47.4677796,2.113 43.6847796,0.517 C40.8557796,-0.676 37.5997796,0.386 34.8577796,1.766 C32.1157796,3.146 29.4057796,4.883 26.3427796,5.079 C23.6777796,5.25 20.7837796,4.261 18.4517796,5.563 C16.7147796,6.533 15.8057796,8.535 14.2037796,9.716 C12.6377796,10.872 10.5937796,11.116 8.64977964,11.222 C6.70577964,11.328 4.69377964,11.347 2.92477964,12.158 C1.15477964,12.968 -0.310220355,14.839 0.0567796446,16.751 L67.2537796,16.088" id="Fill-1" fill="#F1F0EC" mask="url(#mask-2)"></path>
        </g>
        <path d="M430.61,236.986 C431.465,230.774 422.699,225.665 416.112,225.134 C412.97,224.881 409.708,225.361 406.731,224.324 C400.284,222.076 397.708,213.746 391.417,211.093 C386.713,209.109 381.297,210.875 376.738,213.17 C372.178,215.465 367.672,218.353 362.578,218.68 C358.146,218.963 353.334,217.319 349.457,219.484 C346.568,221.098 345.054,224.427 342.391,226.39 C339.787,228.311 336.388,228.719 333.156,228.894 C329.924,229.07 326.578,229.102 323.634,230.45 C320.691,231.798 318.256,234.91 318.867,238.089 L430.61,236.986" id="Fill-4" fill="#E4E4DE"></path>
        <path d="M97.203,85.43 C97.857,80.678 91.15,76.769 86.111,76.363 C83.709,76.169 81.212,76.536 78.936,75.743 C74.003,74.024 72.033,67.652 67.22,65.621 C63.622,64.104 59.479,65.455 55.991,67.211 C52.503,68.966 49.055,71.176 45.158,71.425 C41.768,71.642 38.087,70.385 35.121,72.041 C32.911,73.275 31.754,75.822 29.716,77.324 C27.723,78.794 25.124,79.105 22.651,79.24 C20.179,79.374 17.619,79.399 15.367,80.43 C13.116,81.461 11.253,83.842 11.72,86.273 L97.203,85.43" id="Fill-5" fill="#F1F0EC"></path>
        <polyline id="Fill-6" fill="#D4D5CF" points="362.674 344.28 340.427 440.877 349.833 440.853 372.13 345.191 362.674 344.28"></polyline>
        <polyline id="Fill-7" fill="#D4D5CF" points="403.259 344.28 425.586 440.877 434.524 440.877 412.922 344.28 403.259 344.28"></polyline>
        <polyline id="Fill-8" fill="#D4D5CF" points="347.658 271.73 360.326 338.234 374.72 338.234 361.189 271.73 347.658 271.73"></polyline>
        <polyline id="Fill-9" fill="#D4D5CF" points="127.025 344.28 108.88 440.877 118.117 440.877 137.075 344.28 127.025 344.28"></polyline>
        <polyline id="Fill-10" fill="#D4D5CF" points="165.184 344.28 185.929 440.349 195.057 440.349 175.024 344.28 165.184 344.28"></polyline>
        <polyline id="Fill-11" fill="#D4D5CF" points="112.009 271.73 124.676 338.234 139.071 338.234 125.54 271.73 112.009 271.73"></polyline>
        <polyline id="Fill-12" fill="#E4E4DE" points="83.507 265.684 86.098 277.776 375.148 277.776 371.775 265.684 83.507 265.684"></polyline>
        <polyline id="Fill-13" fill="#E4E4DE" points="89.032 289.166 92.082 301.258 379.178 301.258 376.568 289.166 89.032 289.166"></polyline>
        <polyline id="Fill-14" fill="#E4E4DE" points="94.735 313.475 97.579 325.567 383.785 325.567 381.08 313.475 94.735 313.475"></polyline>
        <polygon id="Fill-15" fill="#E4E4DE" points="116.615 350.326 425.242 350.326 425.242 338.234 116.615 338.234"></polygon>
        <path d="M339.177,97.349 L339.147,97.349 C335.698,97.36 332.615,99.152 330.9,102.144 L291.913,170.152 C290.197,173.144 290.208,176.71 291.941,179.693 C293.671,182.665 296.752,184.437 300.188,184.437 L300.218,184.437 L378.608,184.198 C382.058,184.187 385.141,182.394 386.856,179.402 C388.572,176.41 388.561,172.843 386.828,169.861 L347.424,102.094 C345.696,99.121 342.615,97.349 339.177,97.349 Z M300.188,188.499 C295.288,188.499 290.895,185.973 288.43,181.734 C285.958,177.482 285.943,172.397 288.388,168.131 L327.376,100.124 C329.821,95.858 334.217,93.302 339.134,93.287 L339.178,93.287 C344.079,93.287 348.471,95.813 350.937,100.053 L390.339,167.82 C392.811,172.071 392.827,177.157 390.38,181.423 C387.934,185.688 383.539,188.244 378.622,188.26 L300.231,188.499 L300.188,188.499 L300.188,188.499 Z" id="Fill-16" fill="#E4E4DE"></path>
        <path d="M331.527,126.772 L333.352,152.134 C333.502,154.208 335.172,155.845 337.25,155.951 C339.44,156.062 341.334,154.437 341.555,152.255 L344.153,126.727 C344.35,124.794 342.808,123.126 340.866,123.17 L334.677,123.309 C332.831,123.351 331.395,124.93 331.527,126.772" id="Fill-17" fill="#E4E4DE"></path>
        <g id="Group-21" transform="translate(0.060000, 162.069799)">
            <mask id="mask-4" fill="white">
                <use xlink:href="#path-3"></use>
            </mask>
            <g id="Clip-19"></g>
            <path d="M344.038,8.09620091 C342.988,11.3522009 339.499,13.1402009 336.243,12.0902009 C332.987,11.0402009 331.199,7.55020091 332.249,4.29420091 C333.299,1.03920091 336.789,-0.748799089 340.045,0.300200911 C343.3,1.35020091 345.088,4.84020091 344.038,8.09620091" id="Fill-18" fill="#E4E4DE" mask="url(#mask-4)"></path>
            <path d="M439.553,278.686201 C439.553,278.829201 341.135,278.946201 219.757,278.946201 C98.337,278.946201 -0.06,278.829201 -0.06,278.686201 C-0.06,278.542201 98.337,278.425201 219.757,278.425201 C341.135,278.425201 439.553,278.542201 439.553,278.686201" id="Fill-20" fill="#132529" mask="url(#mask-4)"></path>
        </g>
        <path d="M287.325,333.474005 L186.368,333.412 C174.226,333.405 164.387,323.057 164.389,310.297 L164.439,44.312 C164.441,31.545 174.294,21.198 186.443,21.2049965 L287.4,21.267 C299.543,21.275 309.379,31.623 309.379,44.383 L309.329,310.368 C309.327,323.136 299.474,333.482 287.325,333.474005" id="Fill-22" fill="#132529"></path>
        <path d="M287.294,30.676 L267.719,30.663 C265.094,30.662 262.965,32.999 262.965,35.882 L262.964,39.6129974 C262.964,42.497 260.836,44.834 258.211,44.832 L220.057,44.809 C217.433,44.807 215.305,42.468 215.305,39.584 L215.306,35.853 C215.306,32.969 213.179,30.629 210.554,30.628 L203.67,30.623 L186.538,30.6129974 C178.03,30.608 171.129,37.854 171.128,46.796 L171.079,306.416 C171.077,315.353 177.968,322.6 186.472,322.605 L287.227,322.667004 C295.735,322.673 302.635,315.427 302.637,306.485 L302.686,46.864 C302.686,37.928 295.797,30.681 287.294,30.676" id="Fill-23" fill="#FFFFFE"></path>
        <path d="M198.605,298.164 L198.605,304.521 C198.605,305.072 197.998,305.407 197.534,305.111 L192.537,301.932 C192.105,301.658 192.105,301.027 192.537,300.752 L197.534,297.574 C197.998,297.278 198.605,297.613 198.605,298.164" id="Fill-24" fill="#D4D5CF"></path>
        <path d="M239.67,301.284 C239.67,303.709 237.708,305.675 235.288,305.675 C232.868,305.675 230.906,303.709 230.906,301.284 C230.906,298.858 232.868,296.892 235.288,296.892 C237.708,296.892 239.67,298.858 239.67,301.284" id="Fill-25" fill="#D4D5CF"></path>
        <path d="M277.339,305.566 L272.994,305.566 C271.962,305.566 271.125,304.728 271.125,303.696 L271.125,299.333 C271.125,298.301 271.962,297.464 272.994,297.464 L277.339,297.464 C278.372,297.464 279.209,298.301 279.209,299.334 L279.209,303.696 C279.209,304.728 278.372,305.566 277.339,305.566" id="Fill-26" fill="#D4D5CF"></path>
        <path d="M286.99,145.369 C286.99,172.841 264.72,195.111 237.249,195.111 C209.776,195.111 187.506,172.841 187.506,145.369 C187.506,117.897 209.776,95.627 237.249,95.627 C264.72,95.627 286.99,117.897 286.99,145.369" id="Fill-27" fill="#F1F0EC"></path>
        <path d="M239.479049,167.284 C239.468,169.554 237.62,171.385 235.35,171.375041 C233.08,171.364 231.249,169.515 231.258959,167.245 C231.269,164.976 233.118,163.144 235.388,163.154951 C237.658,163.165 239.49,165.014 239.479049,167.284" id="Fill-28" fill="#334F55"></path>
        <path d="M227.154,162 C231.668,157.261 239.004,157.117 243.633,161.783 C245.732,163.898 249.017,160.645 246.918,158.529 C240.566,152.128 230.139,152.165 223.901,158.717 C221.849,160.87 225.097,164.161 227.154,162" id="Fill-29" fill="#334F55"></path>
        <path d="M213.194,142.869 C219.444,137.466 226.905,134.065 235.26,134.044 C243.541,134.024 251.707,136.963 257.772,142.659 C259.939,144.694 263.23,141.447 261.056,139.405 C254.109,132.881 244.791,129.397 235.282,129.420877 C225.667,129.445 217.123,133.375 209.94,139.584 C207.685,141.534 210.951,144.807 213.194,142.869" id="Fill-30" fill="#334F55"></path>
        <path d="M218.703,153.472 C222.893,148.942 228.765,146.105 234.971,145.963 C241.346,145.818 247.502,148.444 251.933,152.997 C254.011,155.132 257.296,151.878 255.217,149.743 C249.972,144.355 242.541,141.168 234.993,141.34 C227.611,141.509 220.457,144.774 215.449,150.187 C213.432,152.368 216.678,155.661 218.703,153.472" id="Fill-31" fill="#334F55"></path>
        <path d="M274.383,131.978 C274.383,138.945 268.736,144.592 261.769,144.592 C254.802,144.592 249.155,138.945 249.155,131.978 C249.155,125.011 254.802,119.364 261.769,119.364 C268.736,119.364 274.383,125.011 274.383,131.978" id="Fill-32" fill="#E46C62"></path>
        <polyline id="Fill-33" fill="#FFFFFE" points="258.966 136.471 257.179 134.683 265.189 126.673 266.976 128.461 258.966 136.471"></polyline>
        <polyline id="Fill-34" fill="#FFFFFE" points="266.976 134.683 265.189 136.471 257.179 128.461 258.966 126.673 266.976 134.683"></polyline>
        <path d="M235.691,62.889 C234.319,64.31 234.359,66.574 235.78,67.945 C237.201,69.317 239.464,69.277 240.836,67.856 C242.208,66.435 242.168,64.172 240.747,62.8 C239.326,61.429 237.062,61.468 235.691,62.889 Z M233.915,58.449 C234.545,58.069 235.215,57.78 235.907,57.583 L236.318,55.611 L239.65,55.552 L240.13,57.509 C240.829,57.681 241.509,57.946 242.152,58.305 L243.837,57.201 L246.234,59.516 L245.19,61.238 C245.571,61.868 245.86,62.539 246.056,63.231 L248.029,63.642 L248.088,66.974 L246.13,67.454 C245.959,68.152 245.694,68.832 245.336,69.475 L246.439,71.16 L244.124,73.558 L242.402,72.514 C241.772,72.895 241.101,73.183 240.409,73.38 L239.999,75.352 L236.666,75.411 L236.186,73.454 C235.488,73.282 234.807,73.017 234.164,72.659 L232.479,73.763 L230.082,71.448 L231.126,69.725 C230.745,69.095 230.456,68.425 230.259,67.732 L228.287,67.322 L228.228,63.989 L230.185,63.51 C230.357,62.811 230.623,62.131 230.981,61.488 L229.877,59.803 L232.192,57.405 L233.915,58.449 L233.915,58.449 Z" id="Fill-35" fill="#D4D5CF"></path>
        <path d="M191.625,65.919 C190.573,65.919 189.24,65.895 187.907,65.871 C186.316,65.842 184.726,65.815 183.619,65.826 L183.613,65.826 C183.34,65.826 183.117,65.605 183.11297,65.331 C183.11,65.055 183.332,64.829 183.608,64.826 C184.72,64.812 186.323,64.842 187.926,64.871 C189.517,64.901 191.109,64.929 192.214,64.916 L192.22,64.916 C192.493,64.916 192.716,65.137 192.72003,65.41 C192.723,65.687 192.502,65.913 192.226,65.916 C192.039,65.918 191.838,65.919 191.625,65.919" id="Fill-36" fill="#132529"></path>
        <path d="M186.661,69.258 C186.523,69.258 186.386,69.201 186.287,69.09 L183.239,65.658 C183.067,65.463 183.072,65.169 183.251,64.981 L186.222,61.861 C186.414,61.661 186.731,61.654 186.929,61.843 C187.13,62.034 187.137,62.35 186.947,62.55 L184.293,65.337 L187.035,68.426 C187.218,68.632 187.199,68.948 186.993,69.132 C186.898,69.216 186.779,69.258 186.661,69.258" id="Fill-37" fill="#132529"></path>
        <path d="M291.289,61.44 C291.289,62.299 290.592,62.995 289.734,62.995 C288.876,62.995 288.18,62.299 288.18,61.44 C288.18,60.582 288.876,59.886 289.734,59.886 C290.592,59.886 291.289,60.582 291.289,61.44" id="Fill-38" fill="#132529"></path>
        <path d="M291.289,66.34 C291.289,67.198 290.592,67.894 289.734,67.894 C288.876,67.894 288.18,67.198 288.18,66.34 C288.18,65.482 288.876,64.786 289.734,64.786 C290.592,64.786 291.289,65.482 291.289,66.34" id="Fill-39" fill="#132529"></path>
        <path d="M291.289,71.24 C291.289,72.098 290.592,72.794 289.734,72.794 C288.876,72.794 288.18,72.098 288.18,71.24 C288.18,70.381 288.876,69.685 289.734,69.685 C290.592,69.685 291.289,70.381 291.289,71.24" id="Fill-40" fill="#132529"></path>
        <path d="M203.563,213.788 C203.563,213.932 200.387,214.049 196.47,214.049 C192.552,214.049 189.377,213.932 189.377,213.788 C189.377,213.644 192.552,213.528 196.47,213.528 C200.387,213.528 203.563,213.644 203.563,213.788" id="Fill-41" fill="#132529"></path>
        <path d="M229.033,230.389 C229.033,230.532 220.316,230.648 209.564,230.648 C198.808,230.648 190.092,230.532 190.092,230.389 C190.092,230.244 198.808,230.128 209.564,230.128 C220.316,230.128 229.033,230.244 229.033,230.389" id="Fill-42" fill="#132529"></path>
        <path d="M229.033,246.88 C229.033,247.023 220.316,247.14 209.564,247.14 C198.808,247.14 190.092,247.023 190.092,246.88 C190.092,246.735 198.808,246.619 209.564,246.619 C220.316,246.619 229.033,246.735 229.033,246.88" id="Fill-43" fill="#132529"></path>
        <path d="M280.516,236.615 L266.266,236.615 C262.827,236.615 260.039,233.827 260.039,230.389 C260.039,226.949 262.827,224.161 266.266,224.161 L280.516,224.161 C283.956,224.161 286.744,226.949 286.744,230.389 C286.744,233.827 283.956,236.615 280.516,236.615" id="Fill-44" fill="#E4E4DE"></path>
        <path d="M271.406,230.389 C271.406,233.269 269.071,235.604 266.19,235.604 C263.309,235.604 260.974,233.269 260.974,230.389 C260.974,227.508 263.309,225.172 266.19,225.172 C269.071,225.172 271.406,227.508 271.406,230.389" id="Fill-45" fill="#D4D5CF"></path>
        <path d="M280.516,253.106 L266.266,253.106 C262.827,253.106 260.039,250.318 260.039,246.88 C260.039,243.44 262.827,240.652 266.266,240.652 L280.516,240.652 C283.956,240.652 286.744,243.44 286.744,246.88 C286.744,250.318 283.956,253.106 280.516,253.106" id="Fill-46" fill="#E4E4DE"></path>
        <path d="M271.406,246.88 C271.406,249.76 269.071,252.096 266.19,252.096 C263.309,252.096 260.974,249.76 260.974,246.88 C260.974,243.999 263.309,241.663 266.19,241.663 C269.071,241.663 271.406,243.999 271.406,246.88" id="Fill-47" fill="#D4D5CF"></path>
        <path d="M229.033,263.482 C229.033,263.626 220.316,263.742 209.564,263.742 C198.808,263.742 190.092,263.626 190.092,263.482 C190.092,263.338 198.808,263.222 209.564,263.222 C220.316,263.222 229.033,263.338 229.033,263.482" id="Fill-48" fill="#132529"></path>
        <path d="M280.516,271.554 L266.266,271.554 C262.827,271.554 260.039,268.765 260.039,265.326 C260.039,261.888 262.827,259.099 266.266,259.099 L280.516,259.099 C283.956,259.099 286.744,261.888 286.744,265.326 C286.744,268.765 283.956,271.554 280.516,271.554" id="Fill-49" fill="#E4E4DE"></path>
        <path d="M271.406,265.326 C271.406,268.207 269.071,270.543 266.19,270.543 C263.309,270.543 260.974,268.207 260.974,265.326 C260.974,262.446 263.309,260.11 266.19,260.11 C269.071,260.11 271.406,262.446 271.406,265.326" id="Fill-50" fill="#D4D5CF"></path>
        <path d="M399.686,45.563 C399.686,54.564 392.389,61.861 383.389,61.861 C374.388,61.861 367.091,54.564 367.091,45.563 C367.091,36.562 374.388,29.266 383.389,29.266 C392.389,29.266 399.686,36.562 399.686,45.563" id="Fill-51" fill="#E46C62"></path>
        <path d="M381.068,82.004 C380.973,82.004 380.896,78.995 380.896,75.283 C380.896,71.569 380.973,68.56 381.068,68.56 C381.163,68.56 381.24,71.569 381.24,75.283 C381.24,78.995 381.163,82.004 381.068,82.004" id="Fill-52" fill="#E46C62"></path>
        <path d="M371.676,64.77 C371.758,64.818 370.226,67.626 368.254,71.041 C366.28,74.458 364.615,77.189 364.533,77.142 C364.451,77.094 365.983,74.287 367.956,70.87 C369.928,67.454 371.594,64.723 371.676,64.77" id="Fill-53" fill="#E46C62"></path>
        <path d="M362.038,58.769 C362.097,58.843 360.392,60.296 358.232,62.013 C356.071,63.731 354.271,65.063 354.212,64.99 C354.153,64.915 355.857,63.463 358.018,61.745 C360.179,60.027 361.979,58.695 362.038,58.769" id="Fill-54" fill="#E46C62"></path>
        <path d="M397.326,75.3820746 C397.277,75.39 397.131,74.754 396.896,73.728 C396.662,72.702 396.33,71.288 395.914,69.739 C395.497,68.189 395.075,66.799 394.762,65.794 C394.451,64.789 394.258,64.165 394.304,64.148 C394.347,64.132 394.621,64.726 394.992,65.716 C395.364,66.704 395.825,68.092 396.245,69.65 C396.664,71.207 396.96,72.638 397.134,73.681 C397.309,74.723 397.371,75.374 397.326,75.3820746" id="Fill-55" fill="#E46C62"></path>
        <path d="M413.856,63.652 C413.794,63.724 411.636,61.94 409.039,59.67 C406.44,57.398 404.385,55.5 404.448,55.428 C404.509,55.357 406.667,57.14 409.265,59.411 C411.863,61.682 413.919,63.581 413.856,63.652" id="Fill-56" fill="#E46C62"></path>
        <path d="M420.187101,47.534 C420.176,47.582 419.429,47.452 418.221,47.251 C417.014,47.05 415.345,46.791 413.492,46.578 C411.638,46.366 409.953,46.24 408.732,46.163 C407.51,46.084 406.753,46.043 406.753999,45.992 C406.753999,45.948 407.512,45.904 408.741,45.92 C409.969,45.935 411.667,46.024 413.531,46.237 C415.394,46.452 417.068,46.75 418.267,47.013 C419.467,47.275 420.197,47.49 420.187101,47.534" id="Fill-57" fill="#E46C62"></path>
        <path d="M420.208102,31.682 C420.23,31.774 416.702,32.713 412.328,33.778 C407.953,34.844 404.389,35.633 404.366888,35.541 C404.344,35.449 407.872,34.511 412.247,33.445 C416.621,32.38 420.185,31.59 420.208102,31.682" id="Fill-58" fill="#E46C62"></path>
        <path d="M401.793,13.214 C401.871,13.267 400.183,15.959 398.022,19.228 C395.861,22.498 394.046,25.106 393.966,25.054 C393.887,25.001 395.575,22.309 397.736,19.039 C399.897,15.77 401.714,13.162 401.793,13.214" id="Fill-59" fill="#E46C62"></path>
        <path d="M383.516,9.35599648 C383.565,9.359 383.559,10.214 383.54,11.594 C383.52,12.974 383.493,14.879 383.495,16.984 C383.498,19.089 383.529,20.995 383.552,22.375 C383.575,23.755 383.583,24.609 383.533,24.6120079 C383.488,24.615 383.394,23.764 383.309,22.384 C383.224,21.004 383.155,19.095 383.152,16.984 C383.15,14.875 383.215,12.965 383.297,11.585 C383.38,10.205 383.47,9.354 383.516,9.35599648" id="Fill-60" fill="#E46C62"></path>
        <path d="M369.676,26.594 C369.595,26.643 367.879,23.981 365.842,20.649 C363.805,17.315 362.219,14.574 362.3,14.524 C362.381,14.474 364.098,17.136 366.134,20.47 C368.172,23.802 369.756,26.544 369.676,26.594" id="Fill-61" fill="#E46C62"></path>
        <path d="M361.409,33.62 C361.399,33.665 360.735,33.568 359.675,33.345 C358.616,33.123 357.162,32.767 355.577,32.3 C353.991,31.832 352.577,31.342 351.566,30.953 C350.555,30.565 349.945,30.287 349.962,30.244 C349.978,30.198 350.618,30.396 351.646,30.724 C352.674,31.053 354.095,31.505 355.673,31.971 C357.253,32.436 358.69,32.828 359.732,33.109 C360.774,33.392 361.419,33.572 361.409,33.62" id="Fill-62" fill="#E46C62"></path>
        <path d="M357.797021,46.141 C357.805,46.235 355.477,46.536 352.596,46.813 C349.714,47.091 347.371,47.239 347.361974,47.144 C347.353,47.05 349.681,46.749 352.563,46.472 C355.444,46.195 357.788,46.047 357.797021,46.141" id="Fill-63" fill="#E46C62"></path>
        <path d="M346.684,336.636 C351.547,371.259 356.409,405.882 361.271,440.506 L365.067,440.63 C362.645,405.35 360.066,369.368 346.684,336.636" id="Fill-64" fill="#334F55"></path>
        <path d="M387.194,331.771 C377.005,342.932 372.908,358.285 370.328,373.176 C366.668,394.293 366.336,419.225 367.432,440.63 L372.756,440.748 C370.599,403.778 375.597,366.94 387.194,331.771" id="Fill-65" fill="#334F55"></path>
        <path d="M349.365,398.086 C348.194,392.941 346.855,387.705 343.918,383.322 C339.949,377.4 333.485,373.656 326.979,370.741 C320.474,367.826 313.631,365.494 307.755,361.459 C314.312,372.212 329.197,375.073 336.777,385.131 C340.548,390.134 342.113,396.411 343.59,402.5 C346.813,415.777 348.797,427.268 352.019,440.546 L356.333,440.546 C354.911,426.117 352.583,412.223 349.365,398.086" id="Fill-66" fill="#334F55"></path>
        <path d="M376.642,440.63 C376.642,440.63 380.296,399.376 383.005,391.803 C385.713,384.228 411.318,363.301 411.072,364.286 C410.826,365.27 391.868,388.168 389.159,392.846 C386.451,397.523 381.773,440.63 381.773,440.63 L376.642,440.63" id="Fill-67" fill="#334F55"></path>
        <path d="M255.623,397.489 C257.669,398.224 259.252,399.968 260.119,401.961 C260.986,403.954 261.197,406.18 261.093,408.351 C260.891,412.553 258.796,416.917 256.461,420.415 C252.749,417.578 251.593,412.284 251.176,409.561 C250.516,405.259 251.937,397.081 255.623,397.489" id="Fill-68" fill="#E46C62"></path>
        <path d="M260.99,427.033 C260.275,424.713 261.088,422.063 262.792,420.333 C264.497,418.603 266.98,417.757 269.409,417.785 C270.531,417.798 271.759,418.045 272.46,418.924 C273.113,419.744 273.125,420.949 272.699,421.909 C272.274,422.869 271.479,423.617 270.629,424.231 C267.71,426.339 264.498,427.843 260.99,427.033" id="Fill-69" fill="#E46C62"></path>
        <path d="M257.317,440.114022 C257.296,440.11 257.324,439.803 257.386,439.25 C257.458,438.64 257.55,437.852 257.661,436.906 C257.923,434.945 258.242,432.14 259.571,429.351 C260.88,426.57 262.829,424.459 264.513,423.364 C265.349,422.805 266.089,422.456 266.617,422.265 C266.876,422.159 267.089,422.111 267.229,422.066 C267.372,422.027 267.447,422.012 267.45,422.021 C267.479,422.088 266.253,422.391 264.636,423.541 C263.013,424.661 261.133,426.748 259.845,429.482 C258.543,432.214 258.191,434.982 257.875,436.935 C257.725,437.92 257.603,438.718 257.505,439.266 C257.406,439.815 257.338,440.117 257.317,440.114022" id="Fill-70" fill="#132529"></path>
        <path d="M255.09,403.811977 C255.101,403.81 255.124,403.938 255.158,404.183 C255.192,404.46 255.237,404.814 255.292,405.254 C255.402,406.184 255.545,407.533 255.708,409.2 C256.033,412.535 256.418,417.148 256.728,422.252 C257.037,427.356 257.213,431.983 257.292,435.333 C257.333,437.008 257.354,438.363 257.356,439.301 C257.355,439.743 257.354,440.1 257.353,440.379 C257.349,440.626 257.341,440.756 257.331,440.756 C257.321,440.756 257.307,440.627 257.292,440.381 C257.278,440.102 257.259,439.745 257.238,439.304 C257.198,438.329 257.143,436.985 257.077,435.34 C256.942,431.994 256.732,427.372 256.423,422.27 C256.114,417.171 255.763,412.557 255.493,409.22 C255.36,407.578 255.252,406.237 255.173,405.265 C255.142,404.824 255.117,404.468 255.097,404.189 C255.083,403.943 255.081,403.813 255.09,403.811977" id="Fill-71" fill="#132529"></path>
        <path d="M255.079,429.967 C253.952,424.973 250.255,420.632 245.504,418.724 C244.294,418.238 242.737,417.971 241.829,418.906 C240.92,419.844 241.238,421.398 241.79,422.582 C244.085,427.508 249.6,430.731 255.018,430.315" id="Fill-72" fill="#E46C62"></path>
        <path d="M246.33,422.642 C246.338,422.623 246.609,422.723 247.095,422.92 C247.339,423.016 247.638,423.137 247.967,423.313 C248.296,423.49 248.689,423.658 249.083,423.916 C249.483,424.162 249.929,424.422 250.369,424.76 C250.828,425.071 251.279,425.454 251.752,425.86 C252.674,426.696 253.615,427.704 254.439,428.887 C255.252,430.076 255.865,431.311 256.313,432.474 C256.519,433.063 256.716,433.621 256.838,434.163 C256.991,434.696 257.069,435.207 257.147,435.671 C257.242,436.133 257.248,436.56 257.288,436.932 C257.329,437.303 257.326,437.625 257.321,437.888 C257.317,438.412 257.304,438.701003 257.284,438.701003 C257.214,438.703 257.258,437.538 256.934,435.707 C256.843,435.251 256.755,434.75 256.593,434.228 C256.464,433.697 256.26,433.151 256.05,432.575 C255.595,431.437 254.987,430.228 254.188,429.059 C253.379,427.898 252.462,426.903 251.564,426.069 C251.104,425.664 250.666,425.279 250.219,424.963 C249.793,424.621 249.359,424.354 248.97,424.1 C247.391,423.117 246.302,422.704 246.33,422.642" id="Fill-73" fill="#132529"></path>
        <path d="M79.878,385.697 L51.75,408.767 L80.274,443.911 C83.464,440.98 75.448,417.329 75.448,417.329 L94.077,403.286 L79.878,385.697" id="Fill-74" fill="#334F55"></path>
        <g id="Group-78" transform="translate(65.365444, 404.910000)">
            <mask id="mask-6" fill="white">
                <use xlink:href="#path-5"></use>
            </mask>
            <g id="Clip-76"></g>
            <path d="M1.75255561,3.405 C1.34855561,3.405 0.948555609,3.297 0.654555609,3.078 C-0.0744443914,2.535 -0.217444391,1.369 0.341555609,0.653 C0.675555609,0.226 1.21855561,0 1.75855561,0 C1.76355561,0 1.76755561,0 1.77155561,0 L1.80355561,3.404 C1.78655561,3.404 1.76955561,3.405 1.75255561,3.405" id="Fill-75" fill="#A1B0B0" mask="url(#mask-6)"></path>
            <path d="M14.7885556,39.09 L12.3495556,36.044 C12.4075556,36.045 12.4515556,36.045 12.5095556,36.045 L14.9085556,39.001 C15.2765556,38.663 15.4955556,38.051 15.5945556,37.231 C15.6115556,37.886 15.4755556,38.701 14.7885556,39.09" id="Fill-77" fill="#FFFFFE" mask="url(#mask-6)"></path>
        </g>
        <path d="M77.875,440.955 C77.817,440.955 77.773,440.955 77.715,440.954 L77.653,440.877 L77.811,440.876 L77.875,440.955" id="Fill-79" fill="#97A19F"></path>
        <path d="M80.274,443.911 L77.875,440.955 L77.811,440.876 L80.6,440.864 L80.829,441.17 C80.829,441.17 80.946,441.602 80.96,442.141 C80.861,442.961 80.642,443.573 80.274,443.911" id="Fill-80" fill="#A1B0B0"></path>
        <path d="M67.354,428.018 L65.81,426.09 L67.354,427.992 L67.354,428.018 M51.862,408.675 L51.859,408.672 L54.69,406.329 L54.702,406.346 L51.862,408.675" id="Fill-81" fill="#FFFFFE"></path>
        <polyline id="Fill-82" fill="#A1B0B0" points="67.354 427.992 65.81 426.09 51.862 408.675 54.702 406.346 67.308 423.148 67.354 427.992"></polyline>
        <path d="M76.089,417.754 C75.913,417.887 75.138,417.092 73.901,416.695 C72.674,416.266 71.578,416.434 71.518,416.222 C71.423,416.037 72.656,415.46 74.146,415.966 C75.639,416.459 76.276,417.663 76.089,417.754" id="Fill-83" fill="#132529"></path>
        <path d="M77.556,422.677 C77.422,422.851 76.526,422.345 75.328,422.351 C74.129,422.322 73.225,422.811 73.093,422.635 C72.936,422.496 73.844,421.561 75.336,421.582 C76.825,421.589 77.717,422.54 77.556,422.677" id="Fill-84" fill="#132529"></path>
        <path d="M74.844,428.351 C74.681,428.224 75.344,427.29 76.642,426.968 C77.937,426.637 78.965,427.144 78.881,427.333 C78.818,427.545 77.891,427.433 76.83,427.714 C75.763,427.97 74.999,428.508 74.844,428.351" id="Fill-85" fill="#132529"></path>
        <path d="M79.98,414.082 C79.765,414.137 79.362,413.158 78.509,412.241 C77.675,411.307 76.736,410.816 76.811,410.608 C76.855,410.408 78.088,410.63 79.077,411.723 C80.075,412.808 80.183,414.057 79.98,414.082" id="Fill-86" fill="#132529"></path>
        <path d="M83.47,409.86 C83.4,409.92 82.744,409.328 82.05,408.094 C81.706,407.478 81.366,406.699 81.121,405.793 C80.999,405.34 80.901,404.855 80.837,404.347 C80.81,404.1 80.759,403.823 80.82,403.479 C80.844,403.143 81.212,402.667 81.669,402.66 C82.085,402.62 82.46,402.844 82.672,403.093 C82.89,403.346 83.008,403.598 83.116,403.827 C83.339,404.296 83.507,404.767 83.629,405.226 C83.868,406.145 83.925,407.005 83.88,407.714 C83.788,409.141 83.372,409.94 83.292,409.909 C83.171,409.877 83.387,409.044 83.337,407.709 C83.311,407.043 83.203,406.255 82.947,405.421 C82.817,405.005 82.65,404.579 82.439,404.157 C82.234,403.706 81.98,403.388 81.736,403.427 C81.645,403.443 81.617,403.459 81.571,403.625 C81.536,403.787 81.56,404.017 81.586,404.261 C81.635,404.736 81.713,405.192 81.809,405.622 C82.003,406.482 82.271,407.236 82.538,407.852 C83.074,409.088 83.565,409.788 83.47,409.86" id="Fill-87" fill="#132529"></path>
        <path d="M83.042,409.837 C82.966,409.798 83.305,408.958 84.365,407.993 C84.893,407.516 85.607,407.031 86.487,406.669 C86.928,406.49 87.408,406.345 87.92,406.25 C88.434,406.174 89.103,406.048 89.719,406.651 C90.015,406.988 89.978,407.498 89.825,407.785 C89.682,408.094 89.497,408.283 89.327,408.489 C88.969,408.888 88.56,409.206 88.142,409.452 C87.305,409.949 86.434,410.148 85.714,410.177 C84.246,410.228 83.46,409.68 83.507,409.618 C83.546,409.49 84.363,409.82 85.664,409.635 C86.306,409.544 87.062,409.312 87.77,408.849 C88.124,408.62 88.464,408.335 88.761,407.992 C89.089,407.634 89.277,407.249 89.126,407.14 C88.986,406.963 88.464,406.894 88.049,406.992 C87.588,407.067 87.149,407.185 86.741,407.331 C85.928,407.626 85.242,408.023 84.709,408.415 C83.638,409.204 83.144,409.909 83.042,409.837" id="Fill-88" fill="#132529"></path>
        <path d="M67.134,404.542 L67.475,440.92 L112.736,440.727 C112.453,436.405 89.001,427.823 89.001,427.823 L89.738,404.507 L67.134,404.542" id="Fill-89" fill="#334F55"></path>
        <path d="M75.436,429.361 C74.667,429.361 73.906,428.796 73.728,428.037 C73.534,427.209 74.048,426.29 74.833,425.977 C75.005,425.885 75.196,425.843 75.392,425.843 C76.11,425.843 76.906,426.396 77.145,427.066 C77.45,427.922 76.692,429.086 75.813,429.313 C75.689,429.345 75.562,429.361 75.436,429.361" id="Fill-90" fill="#A1B0B0"></path>
        <polyline id="Fill-91" fill="#FFFFFE" points="67.465 440.568 67.417 437.1 67.439 437.101 67.471 440.568 67.465 440.568"></polyline>
        <path d="M112.708,440.528 C112.61,440.083 112.288,439.598 111.788,439.085 C112.229,439.421 112.689,439.914 112.744,440.528 C112.731,440.528 112.72,440.528 112.708,440.528" id="Fill-92" fill="#EEEEE9"></path>
        <path d="M112.731,440.877 L89.805,440.825 L112.736,440.727 C112.732,440.662 112.723,440.595 112.708,440.528 C112.72,440.528 112.731,440.528 112.744,440.528 C112.754,440.64 112.75,440.757 112.731,440.877 M67.473,440.774 L67.468,440.774 L67.465,440.568 L67.471,440.568 L67.473,440.774" id="Fill-93" fill="#97A19F"></path>
        <path d="M89.805,440.825 L67.473,440.774 L67.439,437.101 L110.948,438.577 C110.948,438.577 111.359,438.757 111.788,439.085 C112.288,439.598 112.61,440.083 112.708,440.528 C112.723,440.595 112.732,440.662 112.736,440.727 L89.805,440.825" id="Fill-94" fill="#A1B0B0"></path>
        <path d="M89.733,427.59 C89.727,427.811 88.622,427.916 87.538,428.632 C86.434,429.318 85.878,430.278 85.674,430.191 C85.47,430.149 85.794,428.827 87.123,427.984 C88.443,427.129 89.78,427.388 89.733,427.59" id="Fill-95" fill="#132529"></path>
        <path d="M94.489,429.533 C94.54,429.748 93.585,430.128 92.838,431.065 C92.064,431.981 91.878,432.993 91.659,432.984 C91.451,433.02 91.293,431.726 92.243,430.577 C93.183,429.421 94.483,429.323 94.489,429.533" id="Fill-96" fill="#132529"></path>
        <path d="M97.209,435.204 C97.009,435.252 96.696,434.149 97.258,432.936 C97.813,431.719 98.853,431.237 98.947,431.421 C99.072,431.602 98.404,432.255 97.958,433.258 C97.488,434.249 97.429,435.182 97.209,435.204" id="Fill-97" fill="#132529"></path>
        <path d="M89.312,422.258 C89.22,422.46 88.205,422.159 86.956,422.249 C85.705,422.313 84.734,422.737 84.619,422.549 C84.49,422.389 85.436,421.567 86.908,421.481 C88.38,421.385 89.42,422.084 89.312,422.258" id="Fill-98" fill="#132529"></path>
        <path d="M88.211014,416.891 C88.214,416.983 87.341,417.124 85.944,416.89 C85.249,416.772 84.43,416.549 83.569,416.172 C83.14,415.982 82.701,415.756 82.265,415.486 C82.056,415.353 81.808,415.219 81.578,414.956 C81.332,414.726 81.191,414.14 81.472,413.781 C81.702,413.432 82.111,413.28 82.438,413.271 C82.772,413.259 83.042,413.325 83.289,413.385 C83.793,413.505 84.266,413.671 84.7,413.863 C85.566,414.253 86.271,414.747 86.796,415.225 C87.85,416.193 88.212,417.017 88.137,417.06 C88.037,417.135 87.523,416.444 86.451,415.646 C85.917,415.25 85.234,414.84 84.424,414.515 C84.019,414.356 83.582,414.22 83.121,414.12 C82.641,413.996 82.233,413.995 82.111,414.208 C82.067,414.29 82.062,414.322 82.163,414.462 C82.267,414.591 82.461,414.717 82.667,414.849 C83.068,415.108 83.472,415.334 83.868,415.528 C84.659,415.917 85.415,416.181 86.063,416.359 C87.361,416.715 88.215,416.772 88.211014,416.891" id="Fill-99" fill="#132529"></path>
        <path d="M87.924,417.21 C87.846,417.244 87.404,416.454 87.317,415.023 C87.277,414.313 87.347,413.453 87.616,412.54 C87.753,412.085 87.941,411.619 88.188,411.161 C88.451,410.713 88.772,410.113 89.628,410.011 C90.076,409.992 90.45,410.34 90.578,410.639 C90.729,410.944 90.76,411.207 90.815,411.469 C90.9,411.997 90.892,412.515 90.822,412.996 C90.684,413.96 90.293,414.763 89.864,415.342 C88.985,416.518 88.064,416.786 88.045,416.712 C87.97,416.6 88.739,416.171 89.411,415.041 C89.742,414.484 90.036,413.75 90.119,412.908 C90.162,412.488 90.153,412.044 90.072,411.598 C89.999,411.117 89.817,410.73 89.637,410.78 C89.412,410.777 89.031,411.141 88.847,411.525 C88.617,411.932 88.433,412.349 88.291,412.757 C88.011,413.576 87.89,414.359 87.861,415.02 C87.805,416.349 88.045,417.176 87.924,417.21" id="Fill-100" fill="#132529"></path>
        <path d="M71.012,193.808 C71.012,193.808 64.67,200.599 61.554,207.108 C58.439,213.616 56.447,229.146 56.447,229.146 C56.447,229.146 47.688,248.656 49.019,258.638 C50.35,268.62 59.27,336.885 59.27,336.885 C59.27,336.885 58.829,403.249 65.147,415.081 L66.557,421.468 L92.073,416.938 L91.914,413.108 L97.941,282.984 L113.296,194.398 L71.012,193.808" id="Fill-101" fill="#132529"></path>
        <path d="M127.322,213.158 C127.322,213.158 142.578,297.149 143.923,311.732 C145.269,326.315 93.34,403.176 93.34,403.176 L69.595,378.448 L103.674,315.098 L92.598,251.254 L108.006,194.842 L124.192,195.41 L127.322,213.158" id="Fill-102" fill="#132529"></path>
        <path d="M61.189,394.42 C61.189,394.42 61.202,395.061 61.371,396.277 C61.527,397.494 61.827,399.284 62.25,401.596 C63.099,406.218 64.475,412.92 66.323,421.294 L66.361,421.468 L66.538,421.436 C73.75,420.173 82.407,418.656 92.064,416.964 L92.257,416.93 L92.265,416.732 C92.975,399.22 93.823,378.287 94.732,355.84 C95.674,331.685 96.548,309.29 97.264,290.916 L97.262,290.937 C99.175,276.177 100.757,263.971 101.864,255.43 C102.399,251.187 102.818,247.855 103.107,245.559 C103.24,244.441 103.342,243.575 103.415,242.966 C103.481,242.379 103.497,242.074 103.497,242.074 C103.497,242.074 103.432,242.373 103.343,242.956 C103.254,243.563 103.129,244.426 102.965,245.541 C102.647,247.833 102.184,251.158 101.595,255.393 C100.439,263.929 98.788,276.126 96.792,290.875 L96.79,290.886 L96.79,290.897 C96.044,309.27 95.135,331.664 94.155,355.817 C93.279,378.265 92.461,399.199 91.777,416.713 L91.979,416.483 C82.33,418.218 73.679,419.772 66.473,421.068 L66.688,421.212 C64.791,412.853 63.359,406.164 62.449,401.557 C61.995,399.254 61.663,397.472 61.474,396.262 C61.369,395.658 61.311,395.197 61.269,394.887 C61.225,394.577 61.189,394.42 61.189,394.42" id="Fill-103" fill="#334F55"></path>
        <path d="M31.556,159.044 C31.556,159.044 47.357,124.987 51.088,123.175 C54.819,121.363 65.533,120.761 66.99,122.795 L38.67,163.576 L31.556,159.044" id="Fill-104" fill="#334F55"></path>
        <path d="M32.379,154.445 C31.679,154.062 30.862,153.955 30.089,154.149 L30.065,154.155 C25.161,155.384 7.217,160.196 5.216,165.289 C2.896,171.195 17.091,248.003 18.919,250.082 C20.748,252.16 48.968,248.666 49.832,245.39 C50.696,242.114 40.652,159.33 40.652,159.33 L32.379,154.445" id="Fill-105" fill="#334F55"></path>
        <path d="M10.108,206.764 C10.108,206.764 8.509,206.855 6.918,210.392 C5.327,213.929 8.13,242.579 10.24,245.511 C12.35,248.441 18.502,249.058 18.502,249.058 L10.108,206.764" id="Fill-106" fill="#334F55"></path>
        <path d="M41.556,246.948272 C41.549,246.953 41.5,246.889 41.414,246.757 C41.313,246.598 41.19,246.404 41.039,246.167 C40.706,245.65 40.266,244.857 39.744,243.812 C38.704,241.723 37.461,238.552 36.519,234.478 C35.56,230.411 34.857,225.48 34.28,220.007 C33.696,214.526 33.055,208.508 32.382,202.189 C31.02,189.55 29.886,178.084 29.697,169.741 C29.592,165.572 29.679,162.196 29.806,159.869 C29.864,158.704 29.937,157.802 29.995,157.191 C30.023,156.912 30.046,156.684 30.064,156.496 C30.083,156.34 30.097,156.261 30.106,156.261991 C30.115,156.261991 30.119,156.343 30.117,156.5 C30.112,156.689 30.107,156.918 30.1,157.198 C30.077,157.854 30.047,158.748 30.008,159.877 C29.944,162.203 29.914,165.571 30.065,169.729 C30.347,178.047 31.538,189.497 32.899,202.135 C33.558,208.453 34.185,214.47 34.756,219.951 C35.307,225.43 35.97,230.342 36.878,234.396 C37.769,238.456 38.949,241.62 39.927,243.725 C40.418,244.777 40.827,245.583 41.13,246.115 C41.262,246.362 41.37,246.563 41.459,246.729 C41.531,246.87 41.564,246.944 41.556,246.948272" id="Fill-107" fill="#132529"></path>
        <path d="M32.5520469,201.395 C32.561,201.473 31.275,201.667 29.209,202.026 C27.142,202.383 24.298,202.931 21.194,203.698 C18.09,204.468 15.318,205.31 13.324,205.959 C11.329,206.606 10.101,207.034 10.072,206.961 C10.059,206.928 10.35,206.78 10.889,206.541 C11.426,206.299 12.216,205.98 13.203,205.611 C15.174,204.871 17.946,203.967 21.069,203.192 C24.191,202.421 27.065,201.927 29.153,201.661 C30.198,201.528 31.046,201.442 31.634,201.405 C32.222,201.365 32.549,201.36 32.5520469,201.395" id="Fill-108" fill="#132529"></path>
        <path d="M9.74,203.587959 C9.757,203.585 9.798,203.747 9.859,204.058 C9.926,204.429 10.006,204.878 10.103,205.42 C10.315,206.685 10.597,208.38 10.94,210.436 C11.648,214.671 12.676,220.512 13.964,226.932 C15.256,233.355 16.565,239.14 17.548,243.319 C18.025,245.349 18.42,247.02 18.713,248.268 C18.834,248.806 18.933,249.251 19.015,249.619 C19.078,249.93 19.103,250.095 19.086,250.099075 C19.068,250.103 19.01,249.947 18.914,249.645 C18.806,249.284 18.675,248.847 18.517,248.32 C18.182,247.166 17.727,245.487 17.19,243.407 C16.115,239.246 14.748,233.467 13.454,227.035 C12.163,220.605 11.192,214.746 10.576,210.493 C10.268,208.367 10.039,206.643 9.902,205.449 C9.844,204.901 9.796,204.447 9.756,204.072 C9.728,203.757 9.722,203.59 9.74,203.587959" id="Fill-109" fill="#132529"></path>
        <path d="M29.829,169.011113 C29.761,169.001 29.804,168.186 29.987,166.882 C30.17,165.578 30.509,163.788 31.023,161.844 C31.537,159.9 32.128,158.175 32.613,156.951 C33.097,155.726 33.463,154.997 33.526,155.022 C33.671,155.079 32.539,158.118 31.526,161.977 C30.5,165.831 29.982,169.033 29.829,169.011113" id="Fill-110" fill="#132529"></path>
        <path d="M128.951,96.085 C128.787,93.195 128.426,79.129 128.259,76.99 C128.034,74.104 126.841,71.225 124.72,69.254 C122.6,67.283 119.301,66.439 116.698,67.706 C114.976,68.142 113.63,69.472 113.149,71.182 C107.228,92.231 108.163,114.644 105.548,136.413 C113.274,137.67 123.673,137.156 131.49,136.747 C131.49,119.365 130.019,114.85 128.951,96.085" id="Fill-111" fill="#132529"></path>
        <path d="M125.694,125.763 C125.676,125.763 125.656,125.569 125.633,125.201 C125.613,124.776 125.589,124.242 125.558,123.587 C125.512,122.115 125.451,120.104 125.375,117.649 C125.269,112.572 125.125,105.676 124.965,98.057 C124.906,94.232 124.851,90.592 124.8,87.268 C124.78,85.614 124.761,84.039 124.743,82.56 C124.73,81.088 124.693,79.722 124.463,78.507 C124.065,76.042 122.651,74.403 121.45,73.748 C120.236,73.067 119.397,73.197 119.413,73.126 C119.412,73.117 119.461,73.11 119.556,73.104 C119.651,73.099 119.794,73.087 119.98,73.108 C120.352,73.135 120.907,73.246 121.545,73.575 C122.179,73.904 122.885,74.459 123.49,75.28 C124.105,76.095 124.565,77.192 124.815,78.438 C125.075,79.687 125.131,81.08 125.163,82.553 C125.195,84.031 125.231,85.606 125.267,87.26 C125.33,90.583 125.4,94.224 125.472,98.048 C125.574,105.668 125.666,112.565 125.734,117.643 C125.742,120.099 125.75,122.111 125.755,123.583 C125.747,124.239 125.74,124.774 125.735,125.199 C125.725,125.568 125.711,125.763 125.694,125.763" id="Fill-112" fill="#334F55"></path>
        <path d="M118.669,117.783 C118.634,117.783 118.602,117.331 118.574,116.515 C118.548,115.698 118.529,114.516 118.528,113.056 C118.522,110.135 118.586,106.102 118.697,101.65 C118.819,97.25 118.93,93.271 119.014,90.249 C119.06,88.87 119.098,87.712 119.129,86.795 C119.162,85.979 119.197,85.528 119.232,85.528 C119.267,85.528 119.298,85.979 119.326,86.796 C119.353,87.612 119.371,88.794 119.372,90.254 C119.379,93.175 119.315,97.208 119.204,101.662 C119.082,106.061 118.971,110.039 118.887,113.061 C118.841,114.441 118.802,115.598 118.772,116.515 C118.739,117.331 118.704,117.783 118.669,117.783" id="Fill-113" fill="#334F55"></path>
        <path d="M67.744,123.175 C66.734,123.175 47.885,124.521 43.509,144.718 C39.133,164.914 37.868,193.216 37.868,193.216 L58.319,191.169 L67.744,123.175" id="Fill-114" fill="#E46C62"></path>
        <path d="M77.005,118.708 L80.331,112.575 L109.277,111.791 L111.238,117.014 L128.326,123.175 L126.986,198.911 L139.642,268.815 C139.642,268.815 139.517,278.873 105.774,282.102 L103.107,245.559 L86.257,245.163 L86.715,280.851 C86.715,280.851 56.973,280.369 47.548,273.638 C47.548,273.638 44.691,239.631 52.806,215.15 C59.912,193.713 62.684,188.166 62.684,188.166 L63.296,123.905 L77.005,118.708" id="Fill-115" fill="#E46C62"></path>
        <path d="M56.268,204.951 L50.546,198.882 C51.1,196.515 51.653,194.148 52.207,191.781 L58.319,191.169 L62.975,157.58 L62.684,188.166 C62.684,188.166 60.831,191.874 56.268,204.951" id="Fill-116" fill="#A2A5A2"></path>
        <path d="M52.207,191.781 C55.835,176.268 59.464,160.751 63.093,145.238 L62.975,157.58 L58.319,191.169 L52.207,191.781" id="Fill-117" fill="#BC5247"></path>
        <path d="M56.474,205.169 L56.268,204.951 C60.831,191.874 62.684,188.166 62.684,188.166 L63.093,145.238 C64.745,138.173 66.397,131.111 68.049,124.046 C72.212,134.285 74.219,145.764 71.429,156.459 C69.459,164.012 65.143,171.162 65.466,178.961 C65.609,182.415 66.673,185.791 66.703,189.248 C66.761,195.924 62.569,202.448 56.474,205.169" id="Fill-118" fill="#BC5247"></path>
        <path d="M124.713,122.21 C131.671,123.494 137.111,130.901 138.691,138.84 C139.615,143.487 142.325,165.91 142.325,165.91 L143.817,174.124 C143.817,174.124 145.066,202.381 139.073,205.535 C132.073,209.217 128.059,205.178 125.755,202.216 C123.451,199.254 120.97,179.996 120.97,179.996 L123.604,133.917 L124.713,122.21" id="Fill-119" fill="#E46C62"></path>
        <path d="M128.028,133.544976 C128.046,133.548 128.018,133.828 127.948,134.356 C127.865,134.932 127.755,135.701 127.617,136.666 C127.299,138.72 126.853,141.603 126.304,145.143 C125.729,148.735 125.047,152.988 124.292,157.705 C123.906,160.07 123.502,162.551 123.083,165.121 C122.653,167.692 122.145,170.341 121.924,173.077 C121.787,174.694 121.777,176.294 121.904,177.795 L121.899,177.763 C124.066,187.466 126.098,196.043 127.622,202.182 C128.395,205.208 129.021,207.658 129.467,209.406 C129.68,210.217 129.851,210.863 129.979,211.352 C130.092,211.797 130.143,212.033 130.127,212.037081 C130.111,212.042 130.028,211.816 129.886,211.38 C129.735,210.896 129.535,210.258 129.285,209.457 C128.788,207.777 128.09,205.33 127.286,202.268 C125.672,196.146 123.578,187.581 121.394,177.875 L121.39,177.858 L121.389,177.842 C121.256,176.306 121.266,174.674 121.405,173.035 C121.63,170.26 122.145,167.6 122.58,165.036 C123.009,162.468 123.423,159.99 123.818,157.627 C124.615,152.917 125.334,148.67 125.941,145.083 C126.558,141.554 127.06,138.681 127.417,136.633 C127.596,135.675 127.738,134.911 127.844,134.339 C127.948,133.816 128.011,133.542 128.028,133.544976" id="Fill-120" fill="#132529"></path>
        <path d="M53.789,127.933 L59.104,198.856 C59.104,198.856 69.025,153.632 69.431,142.064 C69.838,130.496 67.42,122.342 67.42,122.342 C67.42,122.342 57.804,120.832 53.789,127.933" id="Fill-121" fill="#334F55"></path>
        <path d="M50.75,123.401 C50.777,123.363 51.498,123.608 52.518,124.373 C53.026,124.766 53.493,125.442 53.754,126.239 C54.032,127.027 54.2,127.936 54.283,128.878 C54.456,130.763 54.443,132.461 54.447,133.689 C54.44,134.916 54.441,135.672 54.37,135.680063 C54.298,135.688 54.166,134.93 54.08,133.702 C53.982,132.476 53.934,130.777 53.765,128.928 C53.603,127.098 53.18,125.42 52.274,124.648 C51.383,123.866 50.694,123.478 50.75,123.401" id="Fill-122" fill="#132529"></path>
        <path d="M87.526,125.973 C87.503,125.996 87.293,125.778 86.926,125.353 C86.56,124.93 86.037,124.301 85.388,123.503 L85.685,123.46 C84.963,125.55 83.872,128.582 82.614,131.979 L82.436,132.458 L82.163,132.045 C82.016,131.823 81.84,131.593 81.697,131.347 C80.751,129.747 80.168,128.106 79.623,126.629 C79.096,125.144 78.661,123.797 78.288,122.671 C77.916,121.544 77.608,120.636 77.379,120.015 C77.156,119.391 77.022,119.049 77.059,119.031 C77.086,119.017 77.284,119.332 77.566,119.937 C77.855,120.54 78.217,121.434 78.635,122.549 C79.06,123.704 79.544,125.023 80.073,126.464 C80.637,127.919 81.236,129.549 82.142,131.076 C82.278,131.311 82.441,131.522 82.577,131.732 L82.127,131.798 C83.393,128.404 84.547,125.395 85.364,123.341 L85.48,123.053 L85.662,123.298 C86.87,124.926 87.573,125.928 87.526,125.973" id="Fill-123" fill="#132529"></path>
        <path d="M110.526,121.092 C110.557,121.107 110.431,121.444 110.172,122.041 C109.913,122.637 109.522,123.493 109.017,124.542 C108.511,125.591 107.894,126.834 107.168,128.197 C106.428,129.555 105.634,131.056 104.55,132.522 L104.219,132.97 L104.09,132.423 L104.036,132.19 C103.218,128.698 102.505,125.527 102.011,123.218 L102.332,123.297 C101.479,124.232 100.548,124.636 100.032,125.045 C99.496,125.44 99.244,125.72 99.212,125.691 C99.189,125.673 99.389,125.344 99.904,124.886 C100.407,124.412 101.301,123.953 102.051,123.054 L102.281,122.778 L102.372,123.133 C102.956,125.421 103.725,128.579 104.543,132.071 L104.597,132.304 L104.138,132.204 C105.177,130.802 105.994,129.302 106.749,127.969 C107.464,126.646 108.117,125.438 108.691,124.377 C109.197,123.434 109.63,122.626 109.992,121.952 C110.306,121.384 110.493,121.076 110.526,121.092" id="Fill-124" fill="#132529"></path>
        <path d="M88.029,125.688 C88.029,125.688 85.221,162.193 84.489,166.885 C83.757,171.578 86.257,245.163 86.257,245.163 L102.699,246.216 C102.699,246.216 102.87,185.465 102.699,185.046 C102.529,184.628 102.776,142.155 102.776,142.155 L99.042,125.234 L92.685,132.767 L88.029,125.688" id="Fill-125" fill="#FFFFFE"></path>
        <path d="M106.376,160.387 C106.414,160.465 105.8,160.599 105.505,161.39 C105.368,161.762 105.326,162.286 105.581,162.709 C105.819,163.14 106.404,163.361 106.989,163.253 C107.574,163.145 108.041,162.729 108.11,162.242 C108.197,161.755 107.97,161.282 107.71,160.982 C107.151,160.35 106.53,160.443 106.538,160.356 C106.533,160.331 106.669,160.255 106.94,160.263 C107.209,160.267 107.607,160.392 107.973,160.724 C108.321,161.051 108.669,161.612 108.585,162.315 C108.513,163.033 107.839,163.639 107.083,163.765 C106.333,163.917 105.486,163.592 105.164,162.947 C104.834,162.32 104.959,161.672 105.167,161.242 C105.39,160.802 105.717,160.543 105.966,160.443 C106.217,160.338 106.371,160.361 106.376,160.387" id="Fill-126" fill="#132529"></path>
        <path d="M106.376,192.251 C106.414,192.33 105.8,192.465 105.505,193.254 C105.368,193.627 105.326,194.15 105.581,194.575 C105.819,195.004 106.404,195.226 106.989,195.118 C107.574,195.011 108.041,194.594 108.11,194.107 C108.197,193.62 107.97,193.146 107.71,192.847 C107.151,192.215 106.53,192.308 106.538,192.222 C106.533,192.196 106.669,192.12 106.94,192.128 C107.209,192.132 107.607,192.258 107.973,192.589 C108.321,192.916 108.669,193.477 108.585,194.181 C108.513,194.897 107.839,195.504 107.083,195.63 C106.333,195.782 105.486,195.456 105.164,194.812 C104.834,194.185 104.959,193.537 105.167,193.107 C105.39,192.667 105.717,192.408 105.966,192.307 C106.217,192.203 106.371,192.225 106.376,192.251" id="Fill-127" fill="#132529"></path>
        <path d="M107.834,230.792 C107.872,230.87 107.258,231.005 106.963,231.795 C106.826,232.167 106.784,232.69 107.038,233.114 C107.277,233.545 107.862,233.766 108.446,233.658 C109.032,233.551 109.499,233.135 109.568,232.647 C109.655,232.16 109.428,231.686 109.168,231.388 C108.609,230.755 107.988,230.849 107.996,230.762 C107.991,230.736 108.127,230.66 108.398,230.668 C108.667,230.673 109.065,230.798 109.43,231.13 C109.778,231.457 110.127,232.016 110.043,232.721 C109.971,233.437 109.297,234.044 108.541,234.171 C107.791,234.322 106.944,233.997 106.622,233.352 C106.292,232.725 106.417,232.077 106.625,231.647 C106.848,231.207 107.175,230.948 107.424,230.848 C107.675,230.744 107.829,230.765 107.834,230.792" id="Fill-128" fill="#132529"></path>
        <path d="M124.088,187.39 C123.543,185.035 122.979,182.567 122.403,180.01 C122.385,179.451 122.409,178.871 122.487,178.234 C122.869,175.093 123.89,171.315 124.339,168.182 C124.919,164.123 124.639,160.004 124.581,155.898 C125.222,151.899 125.804,148.27 126.304,145.143 C126.456,144.167 126.599,143.241 126.734,142.369 C126.967,141.875 127.224,141.392 127.507,140.92 C128.193,144.356 127.591,147.912 127.822,151.408 C128.015,154.335 128.788,157.192 129.147,160.103 C130.289,169.372 127.201,178.572 124.088,187.39 M124.591,153.064 C124.675,149.851 125.064,146.599 126.193,143.639 C126.112,144.107 126.027,144.589 125.941,145.083 C125.537,147.471 125.084,150.15 124.591,153.064" id="Fill-129" fill="#BC5247"></path>
        <path d="M123.926,187.846 C123.195,184.079 122.472,182.206 122.403,180.01 C122.979,182.567 123.543,185.035 124.088,187.39 C124.034,187.542 123.98,187.694 123.926,187.846 M124.581,155.898 C124.574,155.37 124.57,154.843 124.572,154.316 C124.574,153.9 124.58,153.482 124.591,153.064 C125.084,150.15 125.537,147.471 125.941,145.083 C126.027,144.589 126.112,144.107 126.193,143.639 C126.358,143.209 126.537,142.785 126.734,142.369 C126.599,143.241 126.456,144.167 126.304,145.143 C125.804,148.27 125.222,151.899 124.581,155.898" id="Fill-130" fill="#051317"></path>
        <path d="M123.602,152.663 C127.456,163.391 125.879,175.92 119.486,185.359" id="Fill-131" fill="#E46C62"></path>
        <path d="M119.486,185.359 C119.398,185.302 120.492,183.724 121.805,180.941 C122.47,179.556 123.134,177.847 123.744,175.911 C124.32,173.965 124.823,171.786 125.128,169.463 C125.408,167.136 125.461,164.9 125.385,162.872 C125.274,160.845 125.054,159.025 124.753,157.517 C124.171,154.496 123.502,152.697 123.602,152.662762 C123.635,152.651 123.815,153.094 124.112,153.909 C124.267,154.315 124.441,154.817 124.596,155.413 C124.757,156.008 124.973,156.679 125.113,157.443 C125.464,158.957 125.726,160.795 125.864,162.847 C125.968,164.9 125.929,167.169 125.645,169.528 C125.336,171.884 124.811,174.09 124.202,176.054 C123.559,178.007 122.851,179.723 122.136,181.102 C121.81,181.807 121.435,182.404 121.131,182.941 C120.833,183.48 120.541,183.923 120.29,184.278 C119.8,184.994 119.516,185.379 119.486,185.359" id="Fill-132" fill="#132529"></path>
        <path d="M73.926,200.922 C73.882,200.972 73.128,200.4 72.003,199.368 C70.876,198.336 69.392,196.83 67.896,195.04 C66.402,193.247 65.185,191.517 64.372,190.224 C63.558,188.932 63.129,188.089 63.187,188.054 C63.253,188.014 63.79,188.787 64.677,190.018 C65.563,191.25 66.815,192.93 68.296,194.706 C69.778,196.48 71.206,198.012 72.26,199.104 C73.313,200.197 73.978,200.865 73.926,200.922" id="Fill-133" fill="#132529"></path>
        <path d="M67.342,201.953 C67.28,201.982 66.874,201.271 66.327,200.067 C65.78,198.864 65.11,197.161 64.521,195.23 C63.933,193.298 63.539,191.51 63.322,190.207 C63.104,188.903 63.046,188.086 63.112,188.075 C63.267,188.05 63.844,191.253 65.019,195.078 C66.177,198.907 67.484,201.889 67.342,201.953" id="Fill-134" fill="#132529"></path>
        <path d="M99.505,182.919 C99.452,182.992 98.899,182.602 97.911,182.211 C96.928,181.815 95.475,181.489 93.862,181.599 C92.249,181.718 90.856,182.247 89.939,182.777 C89.016,183.304 88.524,183.768 88.462,183.703 C88.421,183.669 88.827,183.101 89.744,182.465 C90.652,181.828 92.116,181.204 93.825,181.079 C95.533,180.962 97.071,181.371 98.06,181.874 C99.058,182.374 99.54,182.88 99.505,182.919" id="Fill-135" fill="#132529"></path>
        <path d="M43.982,180.532 C43.982,180.532 36.64,188.525 37.198,194.106 C37.756,199.688 40.361,211.967 47.245,211.595 C54.128,211.223 60.353,200.159 61.283,191.374 C62.214,182.59 61.283,161.943 61.283,161.943 L51.479,164.151 L43.982,180.532" id="Fill-136" fill="#F1AD92"></path>
        <path d="M29.386,129.324 C34.466,135.815 47.061,151.465 47.061,151.465 L58.91,148.459 C59.772,148.241 60.412,147.516 60.523,146.634 C60.595,146.059 60.434,145.479 60.074,145.025 L43.471,124.006 C42.196,122.392 40.024,121.786 38.097,122.509 L30.503,125.357 C28.886,125.963 28.321,127.964 29.386,129.324" id="Fill-137" fill="#132529"></path>
        <path d="M59.264,145.808 C59.237,145.832 58.832,145.442 58.122,144.714 C57.419,143.981 56.409,142.911 55.199,141.554 C52.774,138.847 49.538,134.999 46.21,130.559 C45.378,129.449 44.578,128.355 43.818,127.291 C43.066,126.235 42.329,125.199 41.335,124.651 C40.341,124.073 39.207,124.315 38.221,124.661 C37.219,125.003 36.279,125.323 35.412,125.618 C33.755,126.167 32.381,126.623 31.329,126.972 C30.361,127.28 29.82,127.434 29.8077961,127.401 C29.796,127.367 30.314,127.148 31.261,126.78 C32.299,126.391 33.655,125.884 35.289,125.271 C36.151,124.956 37.085,124.616 38.082,124.253 C38.589,124.076 39.137,123.9 39.74,123.849 C40.343,123.793 40.997,123.925 41.562,124.228 C42.704,124.848 43.473,125.947 44.232,126.993 C45.007,128.045 45.807,129.133 46.627,130.246 C49.945,134.675 53.128,138.548 55.477,141.312 C56.611,142.637 57.552,143.736 58.272,144.578 C58.935,145.347 59.29,145.783 59.264,145.808" id="Fill-138" fill="#334F55"></path>
        <path d="M36.112,127.149 C36.58,126.919 37.214,127.136 37.444,127.603 C37.673,128.071 37.457,128.705 36.989,128.935 C36.522,129.165 35.887,128.948 35.657,128.481 C35.428,128.013 35.644,127.378 36.112,127.149" id="Fill-139" fill="#FFFFFE"></path>
        <path d="M46.277,141.337 L40.801,142.25 L38.783,144.045 C38.219,144.546 37.923,145.291 38.025,146.038 C38.124,146.754 38.44,147.688 39.27,148.696 C40.577,150.28 41.651,151.078 41.651,151.078 C41.651,151.078 39.722,154.198 42.71,155.774 C42.71,155.774 42.511,159.01 45.639,159.342 C45.639,159.342 46.551,162.412 48.903,162.578 L51.339,164.984 L50.594,166.463 L61.464,166.797 C61.464,166.797 61.546,160.839 61.032,158.117 C60.54,155.509 60.182,154.673 60.182,154.673 C60.734,151.605 58.446,150.332 58.101,150.544 C58.101,150.544 63.29,149.185 62.625,145.614 L57.644,146.896 L48.514,148.801 L54.361,144.878 C54.656,144.611 54.918,144.31 55.131,143.974 C55.63,143.189 56.367,141.756 55.736,140.923 C55.466,140.566 48.269,143.578 48.269,143.578 L43.844,147.707 L42.45,145.724 C42.45,145.724 46.996,144.765 46.277,141.337" id="Fill-140" fill="#F1AD92"></path>
        <path d="M58.799,150.602 C58.816,150.755 56.869,151.034 54.558,151.71 C52.242,152.374 50.449,153.18 50.38,153.042 C50.315,152.925 52.042,151.891 54.413,151.21 C56.78,150.518 58.793,150.468 58.799,150.602" id="Fill-141" fill="#EA8E6C"></path>
        <path d="M56.295,160.013 C56.237,159.94 57.146,159.402 58.111,158.075 L58.292,157.826 L58.424,158.115 C58.581,158.461 58.894,158.786 59.312,158.963 C59.718,159.138 60.269,159.165 60.624,158.884 C60.796,158.74 60.85,158.586 60.81,158.316 C60.761,158.021 60.712,157.722 60.661,157.417 C60.543,156.807 60.491,156.131 60.288,155.573 C60.09,155.009 59.63,154.703 59.069,154.7 C58.509,154.677 57.959,154.866 57.409,155.007 C56.349,155.267 55.366,155.509 54.474,155.728 C52.801,156.124 51.763,156.332 51.75,156.261 C51.736,156.191 52.746,155.855 54.385,155.371 C55.261,155.121 56.227,154.845 57.268,154.548 C57.808,154.399 58.401,154.173 59.085,154.189 C59.423,154.197 59.798,154.277 60.112,154.499 C60.432,154.715 60.645,155.05 60.773,155.385 C61.02,156.083 61.049,156.719 61.164,157.336 C61.211,157.648 61.257,157.954 61.303,158.256 C61.375,158.58 61.228,159.064 60.919,159.26 C60.33,159.684 59.633,159.582 59.136,159.355 C58.625,159.114 58.259,158.697 58.088,158.254 L58.401,158.294 C57.865,158.962 57.328,159.402 56.941,159.67 C56.552,159.937 56.312,160.04 56.295,160.013" id="Fill-142" fill="#EA8E6C"></path>
        <path d="M46.689,144.926 C46.795,145.03 45.616,146.385 44.249,148.117 C42.875,149.844 41.826,151.301 41.7,151.221 C41.582,151.149 42.447,149.546 43.84,147.793 C45.228,146.036 46.591,144.828 46.689,144.926" id="Fill-143" fill="#EA8E6C"></path>
        <path d="M48.945,148.673 C48.99,148.817 47.806,149.175 46.981,150.349 C46.123,151.501 46.155,152.738 46.004,152.74 C45.941,152.746 45.833,152.439 45.861,151.921 C45.886,151.407 46.092,150.692 46.559,150.044 C47.027,149.399 47.642,148.979 48.122,148.794 C48.606,148.604 48.931,148.611 48.945,148.673" id="Fill-144" fill="#EA8E6C"></path>
        <path d="M107.609,68.109 C106.771,65.909 107.1,63.454 106.77,61.123 C106.044,55.991 101.914,51.871 97.134,49.864 C92.688,47.997 87.254,48.396 81.893,50.122 C78.217,51.305 74.757,53.371 72.304,56.352 C69.049,60.309 67.897,65.903 69.323,70.824 L95.585,67.033 C98.04,69.07 100.554,71.141 103.535,72.279 C104.409,72.613 105.351,72.865 106.275,72.719 C107.199,72.574 108.099,71.946 108.319,71.036 C108.56,70.043 107.972,69.065 107.609,68.109" id="Fill-145" fill="#132529"></path>
        <path d="M91.287,48.543 C97.036,47.574 102.086,49.793 106.929,53.039 C111.772,56.284 115.416,61.179 117.517,66.617 C119.73,72.346 120.283,80.63 118.569,86.527 C116.856,92.424 112.692,96.731 107.31,98.632 C99.402,101.424 90.268,101.083 83.586,96.017 C76.903,90.952 73.09,82.585 72.779,74.205 C72.566,68.432 73.953,62.527 77.185,57.739 C80.417,52.95 85.57,49.375 91.287,48.543" id="Fill-146" fill="#132529"></path>
        <path d="M82.157,111.066 L82.37,115.748 L92.685,134.001 L107.721,114.796 L108.23,66.842 C108.19,64.619 106.457,62.797 104.239,62.646 L81.322,57.761 C74.023,57.265 69.525,66.399 69.339,73.713 C69.133,81.838 69.201,91.767 70.389,97.779 C72.777,109.869 82.157,111.066 82.157,111.066" id="Fill-147" fill="#F1AD92"></path>
        <path d="M72.6249957,83.792 C72.627,84.617 73.327,85.296 74.188,85.31 C75.048,85.324 75.745,84.668 75.7430043,83.843 C75.741,83.018 75.041,82.339 74.182,82.325 C73.32,82.311 72.623,82.968 72.6249957,83.792" id="Fill-148" fill="#132529"></path>
        <path d="M71.684,78.4 C71.885,78.596 73.034,77.677 74.713,77.618 C76.389,77.536 77.653,78.353 77.827,78.141 C77.913,78.046 77.702,77.687 77.152,77.316 C76.609,76.947 75.694,76.603 74.649,76.646 C73.603,76.691 72.738,77.109 72.248,77.522 C71.747,77.938 71.586,78.312 71.684,78.4" id="Fill-149" fill="#132529"></path>
        <path d="M87.8589957,83.503 C87.86,84.328 88.561,85.007 89.422,85.02 C90.281,85.034 90.979,84.379 90.9770043,83.554 C90.975,82.729 90.275,82.05 89.415,82.036 C88.554,82.021 87.857,82.679 87.8589957,83.503" id="Fill-150" fill="#132529"></path>
        <path d="M87.622,78.011 C87.824,78.207 88.974,77.288 90.652,77.229 C92.327,77.147 93.592,77.964 93.766,77.752 C93.852,77.657 93.643,77.298 93.09,76.928 C92.547,76.558 91.633,76.214 90.587,76.257 C89.542,76.303 88.677,76.72 88.186,77.134 C87.687,77.549 87.524,77.923 87.622,78.011" id="Fill-151" fill="#132529"></path>
        <path d="M82.57,90.769 C82.575,90.674 81.525,90.533 79.826,90.38 C79.396,90.352 78.987,90.282 78.903,89.992 C78.791,89.686 78.953,89.218 79.142,88.711 C79.506,87.659 79.887,86.556 80.287,85.4 C81.872,80.687 83.003,76.818 82.813,76.756 C82.623,76.694 81.183,80.464 79.597,85.177 C79.217,86.338 78.852,87.446 78.507,88.505 C78.362,88.998 78.104,89.561 78.347,90.196 C78.475,90.512 78.798,90.732 79.075,90.796 C79.353,90.87 79.594,90.865 79.807,90.87 C81.512,90.897 82.568,90.866 82.57,90.769" id="Fill-152" fill="#132529"></path>
        <path d="M82.157,111.066 C82.157,111.066 90.359,110.895 98.282,105.719 C98.282,105.719 94.503,114.292 82.288,113.611 L82.157,111.066" id="Fill-153" fill="#EA8E6C"></path>
        <path d="M83.859,94.377 C84.574,93.641 85.251,93.462 86.305,93.536 C87.037,93.587 87.394,93.952 87.859,94.529 C88.324,95.105 88.387,96.268 88.007,96.849 C87.577,97.503 86.636,97.685 85.827,97.488 C85.017,97.29 84.451,97.047 83.776,96.546 C83.59,96.408 83.456,96.093 83.395,95.871 C83.207,95.19 83.726,94.547 83.859,94.377" id="Fill-154" fill="#EA8E6C"></path>
        <path d="M87.723,74.079 C87.905,74.53 89.573,74.25 91.551,74.414 C93.533,74.538 95.142,75.055 95.388,74.635 C95.498,74.435 95.205,74.016 94.546,73.599 C93.893,73.181 92.862,72.8 91.674,72.713 C90.487,72.628 89.412,72.856 88.706,73.175 C87.994,73.493 87.644,73.866 87.723,74.079" id="Fill-155" fill="#132529"></path>
        <path d="M71.896,71.041 C72.205,71.411 73.346,70.973 74.736,70.901 C76.123,70.782 77.314,71.061 77.57,70.652 C77.681,70.454 77.481,70.079 76.953,69.738 C76.433,69.397 75.574,69.135 74.619,69.2 C73.665,69.266 72.85,69.643 72.382,70.051 C71.905,70.462 71.758,70.86 71.896,71.041" id="Fill-156" fill="#132529"></path>
        <path d="M111.815,64.574 C109.447,57.591 99.083,48.066 91.737,48.717 L80.125,55.98 C80.91,59.97 84.065,63.396 87.976,64.508 C90.064,65.101 92.568,65.228 93.836,66.991 C95.131,68.791 94.443,71.46 95.652,73.319 C97.327,75.895 101.771,75.688 103.044,78.485 C103.6,79.707 103.349,81.184 103.927,82.396 C104.697,84.011 108.858,85.998 110.552,85.426 C112.247,84.853 112.197,81.951 112.727,80.419 C113.63,77.802 113.213,76.462 112.872,75.017 C112.066,71.592 112.944,67.906 111.815,64.574" id="Fill-157" fill="#132529"></path>
        <path d="M105.549,86.956 C105.517,86.051 106.484,83.876 107.373,83.703 C109.748,83.241 114.06,83.271 114.328,89.335 C114.694,97.626 106.295,96.283 106.27,96.046 C106.251,95.861 105.659,90.084 105.549,86.956" id="Fill-158" fill="#F1AD92"></path>
        <path d="M108.664,92.793 C108.699,92.766 108.813,92.888 109.062,92.989 C109.305,93.087 109.717,93.145 110.142,92.964 C111.004,92.604 111.68,91.18 111.654,89.684 C111.642,88.929 111.452,88.218 111.159,87.634 C110.879,87.039 110.468,86.633 110.024,86.574 C109.581,86.492 109.28,86.77 109.189,87.007 C109.088,87.245 109.148,87.408 109.104,87.423 C109.082,87.445 108.921,87.292 108.972,86.948 C108.999,86.781 109.088,86.581 109.275,86.413 C109.467,86.242 109.756,86.147 110.065,86.167 C110.706,86.183 111.307,86.746 111.63,87.386 C111.988,88.027 112.219,88.826 112.233,89.675 C112.254,91.348 111.467,92.948 110.284,93.348 C109.708,93.525 109.213,93.371 108.953,93.186 C108.688,92.994 108.636,92.81 108.664,92.793" id="Fill-159" fill="#EA8E6C"></path>
        <path d="M119.331,75.6180789 C119.39,75.628 119.613,74.687 119.644,73.131 C119.679,71.579 119.451,69.409 118.696,67.147 C117.934,64.887 116.807,63.018 115.843,61.802 C114.88,60.579 114.135,59.963 114.093,60.006 C113.94,60.114 116.718,62.871 118.176,67.322 C119.696,71.749 119.144,75.625 119.331,75.6180789" id="Fill-160" fill="#E46C62"></path>
        <path d="M82.536,53.476 C81.769,56.851 76.633,61.173 74.378,63.797 C70.076,68.806 69.264,69.544 69.299,84.649 C67.275,80.775 65.682,74.009 65.843,69.642 C66.005,65.275 67.619,60.901 70.659,57.762 C73.699,54.622 78.212,52.845 82.536,53.476" id="Fill-161" fill="#132529"></path>
        <path d="M116.042053,64.471 C116.048,64.504 115.547,64.626 114.632,64.819 C114.176,64.921 113.614,65.031 112.954,65.11 C112.295,65.195 111.547,65.324 110.711,65.367 C109.044,65.523 107.045,65.548 104.833,65.421 C102.624,65.259 100.203,64.924 97.714,64.328 C95.231,63.707 92.928,62.887 90.894,62.011 C88.872,61.103 87.11,60.158 85.703,59.25 C84.981,58.826 84.378,58.366 83.833,57.986 C83.283,57.612 82.836,57.255 82.478,56.954 C81.755,56.36 81.367,56.02 81.388,55.994 C81.41,55.968 81.84,56.257 82.594,56.8 C82.968,57.077 83.429,57.409 83.989,57.759 C84.546,58.114 85.158,58.551 85.886,58.952 C87.304,59.815 89.065,60.718 91.074,61.593 C93.097,62.437 95.377,63.234 97.832,63.848 C100.292,64.437 102.682,64.781 104.865,64.967 C107.051,65.117 109.03,65.129 110.687,65.018 C111.518,64.998 112.262,64.894 112.92,64.836 C113.578,64.784 114.141,64.702 114.6,64.629 C115.521,64.495 116.035,64.437 116.042053,64.471" id="Fill-162" fill="#334F55"></path>
        <path d="M116.899054,70.417 C116.904,70.45 116.563,70.532 115.937,70.651 C115.314,70.778 114.399,70.897 113.264,70.988 C110.995,71.173 107.817,71.119 104.394,70.449 C100.972,69.769 98.011,68.613 95.983,67.58 C94.967,67.066 94.166,66.608 93.637,66.254 C93.104,65.907 92.819,65.702 92.836,65.673 C92.881,65.598 94.083,66.326 96.134,67.265 C98.181,68.207 101.116,69.294 104.49,69.964 C107.864,70.624 110.992,70.734 113.244,70.638 C115.498,70.548 116.885,70.331 116.899054,70.417" id="Fill-163" fill="#334F55"></path>
        <path d="M118.994,70.6239394 C119.022,70.618 119.144,71.058 119.273,71.872 C119.411,72.684 119.533,73.87 119.613,75.339 C119.689,76.808 119.712,78.562 119.611,80.506 C119.496,82.448 119.313,84.593 118.76,86.791 C117.596,91.227 114.774,94.532 112.322,96.176 C111.099,97.017 110.006,97.52 109.245,97.831 C108.483,98.143 108.044,98.267 108.033,98.24 C108.018,98.202 108.433,98.016 109.164,97.652 C109.893,97.289 110.946,96.743 112.114,95.884 C113.29,95.038 114.541,93.826 115.64,92.26 C116.7,90.67 117.784,88.825 118.268,86.668 C118.808,84.523 119.006,82.399 119.145,80.479 C119.271,78.554 119.285,76.812 119.255,75.352 C119.221,73.892 119.154,72.709 119.077,71.896 C119.009,71.081 118.953,70.631 118.994,70.6239394" id="Fill-164" fill="#334F55"></path>
        <path d="M85.928,97.481 C85.938,97.397 86.516,97.603 87.219,97.166 C87.558,96.954 87.878,96.578 87.958,96.067 C88.045,95.565 87.906,94.953 87.519,94.511 C87.126,94.065 86.547,93.837 86.022,93.8 C85.492,93.757 85.012,93.908 84.645,94.099 C83.905,94.493 83.594,94.973 83.525,94.919 C83.475,94.9 83.673,94.32 84.458,93.781 C84.845,93.524 85.399,93.298 86.046,93.32 C86.679,93.337 87.401,93.593 87.91,94.167 C88.415,94.748 88.568,95.519 88.429,96.159 C88.298,96.815 87.83,97.285 87.399,97.487 C86.483,97.917 85.874,97.518 85.928,97.481" id="Fill-165" fill="#132529"></path>
        <path d="M137.073,165.755 L141.532,156.246 C142.272,153.278 145.292,152.273 148.994,152.011 L152.907,150.411 C152.907,150.411 155.761,146.303 158.401,146.358 C158.826,146.367 159.197,146.649 159.32,147.055 C159.404,147.33 159.362,147.629 159.205,147.87 L155.993,152.807 L153.44,154.074 C153.44,154.074 155.834,154.652 156.783,153.756 C157.732,152.86 160.951,150.329 160.951,150.329 C160.951,150.329 163.396,145.915 166.581,146.245 C166.99,146.287 167.231,146.73 167.041,147.096 L164.6,151.806 C164.6,151.806 169.048,145.12 173.287,147.616 L168.587,152.73 C168.587,152.73 175.407,148.863 178.13,152.099 L160.862,159.229 L150.915,161.181 L147.434,170.615 L144.373,168.871 L137.073,165.755" id="Fill-166" fill="#F1AD92"></path>
        <path d="M147.414,178.11 C147.414,178.11 147.942,195.013 144.822,199.674 C141.701,204.335 135.907,210.648 128.728,205.592 L124.234,188.581 C124.234,188.581 131.545,180.56 132.874,177.279 C136.189,169.091 141.532,156.246 141.532,156.246 L151.059,160.488 L147.414,178.11" id="Fill-167" fill="#F1AD92"></path>
        <path d="M133.954,175.743 C134.018,175.784 133.574,176.583 132.875,177.878 C132.175,179.172 131.237,180.974 130.303,183.011 C129.372,185.051 128.622,186.938 128.1,188.314 C127.577,189.69 127.263,190.548 127.19,190.526 C127.126,190.507 127.315,189.609 127.752,188.194 C128.188,186.779 128.89,184.852 129.83,182.795 C130.772,180.739 131.771,178.948 132.557,177.693 C133.342,176.437 133.897,175.707 133.954,175.743" id="Fill-168" fill="#EA8E6C"></path>
        <path d="M155.996,152.806 C156.057,152.936 155.015,153.552 153.671,154.181 C152.325,154.809 151.185,155.213 151.124,155.083 C151.064,154.953 152.105,154.337 153.45,153.708 C154.795,153.08 155.935,152.676 155.996,152.806" id="Fill-169" fill="#EA8E6C"></path>
        <path d="M157.43,157.275 C157.396,157.21 157.872,156.909 158.691,156.56 C159.174,156.363 159.65,156.168 160.129,155.972 C160.405,155.854 160.681,155.738 160.962,155.619 C161.278,155.492 161.431,155.372 161.665,155.109 C162.532,154.125 163.249,153.115 163.816,152.438 C164.368,151.754 164.788,151.345 164.862,151.438 C164.855,151.476 164.811,151.552 164.674,151.775 C164.483,152.075 164.297,152.367 164.113,152.656 C163.617,153.392 162.966,154.418 162.047,155.463 C161.927,155.594 161.81,155.717 161.645,155.84 C161.452,155.981 161.326,156.009 161.168,156.086 C160.867,156.214 160.576,156.321 160.298,156.42 C159.743,156.616 159.241,156.774 158.819,156.906 C157.975,157.163 157.463,157.338 157.43,157.275" id="Fill-170" fill="#EA8E6C"></path>
    </g>
</svg>