<?xml version="1.0" encoding="UTF-8"?>
<svg width="38px" height="42px" viewBox="0 0 30 33" version="1.1" xmlns="http://www.w3.org/2000/svg" xmlns:xlink="http://www.w3.org/1999/xlink">
    <title>percentage</title>
    <g id="Page-1" stroke="none" stroke-width="1" fill="none" fill-rule="evenodd">
        <g id="Earned-Wage-Access-Copy-12" transform="translate(-25.000000, -220.000000)" fill-rule="nonzero">
            <g id="percentage" transform="translate(25.000000, 220.000000)">
                <path d="M29.8676009,23.9070683 C29.5172367,22.1686943 28.5090602,20.6698447 27.0287467,19.685985 C25.5491244,18.7021254 23.776757,18.3537092 22.0383829,18.7040733 C20.3000089,19.053809 18.8011593,20.0619856 17.817928,21.5422362 C16.8340683,23.0224869 16.4849609,24.7948543 16.835325,26.5326 C17.4700772,29.6846203 20.2506211,31.86761 23.3488553,31.86761 C23.7831032,31.86761 24.2231947,31.8246941 24.6644801,31.7356579 C26.4022258,31.3852938 27.9010754,30.3777456 28.8849351,28.8974949 C29.8689204,27.4171814 30.2173366,25.644814 29.8676009,23.9070683 Z M22.4643996,25.3981894 C22.4170225,25.1624979 22.4643996,24.9209628 22.5982995,24.7192018 C22.6655322,24.6179757 22.7501072,24.5334636 22.8474375,24.4681159 C22.9447679,24.4027682 23.0549793,24.3566478 23.1728564,24.332331 C23.2324233,24.3207694 23.2926186,24.3144232 23.3521855,24.3144232 C23.5283101,24.3144232 23.701293,24.3663243 23.8517811,24.4668592 C24.0535421,24.6007591 24.1906466,24.8050335 24.238652,25.0407878 C24.3373019,25.5301414 24.0189204,26.0079963 23.5301951,26.1066462 C23.2938125,26.1547145 23.0529686,26.1066462 22.8512076,25.9727463 C22.6495094,25.838218 22.5117766,25.634572 22.4643996,25.3981894 Z" id="Shape" fill="#FF6E23"></path>
                <g id="Group" transform="translate(-0.000000, 0.000000)" fill="#FAA55F">
                    <path d="M25.3711148,0.478981538 C24.0529138,-0.397242921 22.2670998,-0.0372651564 21.3908754,1.28093584 L3.82623508,27.710492 C2.95001062,29.028693 3.30998839,30.8145069 4.62818938,31.6907314 C5.10472479,32.007165 5.6517603,32.1710997 6.21155117,32.1710997 C6.40181346,32.1710997 6.59333244,32.1525007 6.78416024,32.114109 C7.53616127,31.9623013 8.18373167,31.5273622 8.60836594,30.8887771 L26.1730691,4.45922093 C27.0492935,3.14101993 26.6893158,1.35526883 25.3711148,0.478981538 Z" id="Path"></path>
                    <path d="M7.96085837,13.4657653 C11.5535986,12.7419769 13.8877047,9.22991595 13.1639163,5.63717575 C12.440065,2.0438072 8.92737574,-0.290298924 5.33463554,0.434180674 C1.74189534,1.1579691 -0.592147958,4.66996721 0.131640463,8.26270741 C0.482004578,10.0010814 1.49018109,11.4999311 2.97049461,12.4837907 C4.07543595,13.2178211 5.3429925,13.5989741 6.63819614,13.5989741 C7.07753364,13.5983457 7.52013852,13.5548015 7.96085837,13.4657653 Z M6.46904618,6.06312954 C6.5286131,6.05093968 6.58880837,6.04522176 6.6483753,6.04522176 C6.82449987,6.04522176 6.99748273,6.0971229 7.1479709,6.19702945 C7.34973187,6.33155771 7.48746468,6.53520371 7.53484175,6.77158639 C7.58221882,7.00727788 7.53484175,7.24875014 7.40094183,7.45057394 C7.26641357,7.65233492 7.06276757,7.78943938 6.8263849,7.83744479 C6.5906934,7.88482186 6.34922115,7.83744479 6.14739734,7.70291654 C5.94563637,7.56901662 5.8085319,7.36474228 5.76052649,7.12898794 C5.66193946,6.63963433 5.98032091,6.1617794 6.46904618,6.06312954 Z" id="Shape"></path>
                </g>
                <path d="M25.3711148,0.478981538 C24.0529138,-0.397242921 22.2670998,-0.0372651564 21.3908754,1.28093584 L14.999872,10.8974757 L14.999872,21.271546 L26.1730691,4.45922093 C27.0492935,3.14101993 26.6893158,1.35526883 25.3711148,0.478981538 Z" id="Path" fill="#FF6E23"></path>
            </g>
        </g>
    </g>
</svg>