<?xml version="1.0" encoding="UTF-8"?>
<svg width="12px" height="15px" viewBox="0 0 40 53" version="1.1" xmlns="http://www.w3.org/2000/svg" xmlns:xlink="http://www.w3.org/1999/xlink">
    <title>insurance</title>
    <defs>
        <linearGradient x1="50%" y1="100%" x2="50%" y2="-4.88281488e-05%" id="linearGradient-1">
            <stop stop-color="#00B59C" offset="0%"></stop>
            <stop stop-color="#9CFFAC" offset="100%"></stop>
        </linearGradient>
        <linearGradient x1="50%" y1="100%" x2="50%" y2="0%" id="linearGradient-2">
            <stop stop-color="#C3FFE8" offset="0%"></stop>
            <stop stop-color="#F0FFF4" offset="99.73%"></stop>
        </linearGradient>
    </defs>
    <g id="Page-1" stroke="none" stroke-width="1" fill="none" fill-rule="evenodd">
        <g id="Google-Pixel-6" transform="translate(-160.000000, -470.000000)" fill-rule="nonzero">
            <g id="insurance" transform="translate(160.000000, 470.000000)">
                <path d="M38.4615385,8.37135897 C29.9459487,8.37135897 21.1209231,0.477923077 21.0335385,0.398846154 C20.4469744,-0.132948718 19.5529231,-0.132948718 18.9664615,0.398846154 C18.8785641,0.478538462 10.0767179,8.37135897 1.53846154,8.37135897 C0.688820513,8.37135897 0,9.06017949 0,9.90982051 L0,28.3342308 C0,43.2597692 11.1011282,49.2238718 19.4512821,52.4116667 C19.628,52.4791538 19.8139487,52.5127949 20,52.5127949 C20.1860513,52.5127949 20.372,52.4790513 20.5487179,52.4116667 C32.2568205,47.9419231 40,40.9697179 40,28.3342308 L40,9.90982051 C40,9.06017949 39.3111795,8.37135897 38.4615385,8.37135897 Z" id="Path" fill="url(#linearGradient-1)"></path>
                <path d="M20,15.4871538 C14.0618462,15.4871538 9.23076923,20.3182308 9.23076923,26.2563846 C9.23076923,32.1945385 14.0618462,37.0256154 20,37.0256154 C25.9381538,37.0256154 30.7692308,32.1945385 30.7692308,26.2563846 C30.7692308,20.3182308 25.9381538,15.4871538 20,15.4871538 Z M24.1647179,25.8057179 L19.5493333,30.4211026 C19.2490256,30.7215128 18.8552821,30.8717692 18.4615385,30.8717692 C18.0677949,30.8717692 17.6740513,30.7216154 17.3737436,30.4211026 L15.8352821,28.882641 C15.2344615,28.2818205 15.2344615,27.3077692 15.8352821,26.7069487 C16.436,26.1061282 17.4101538,26.1061282 18.0109744,26.7069487 L18.461641,27.1575128 L21.9892308,23.6300256 C22.5899487,23.0292051 23.5641026,23.0292051 24.1649231,23.6300256 C24.765641,24.2308462 24.765641,25.2048974 24.1647179,25.8057179 L24.1647179,25.8057179 Z" id="Shape" fill="url(#linearGradient-2)"></path>
            </g>
        </g>
    </g>
</svg>