<?xml version="1.0" encoding="UTF-8"?>
<svg width="38px" height="42px" viewBox="0 0 30 40" version="1.1" xmlns="http://www.w3.org/2000/svg" xmlns:xlink="http://www.w3.org/1999/xlink">
    <title>task</title>
    <defs>
        <linearGradient x1="50%" y1="100%" x2="50%" y2="0%" id="linearGradient-1">
            <stop stop-color="#FFC2CC" offset="0%"></stop>
            <stop stop-color="#FFF2F4" offset="100%"></stop>
        </linearGradient>
        <linearGradient x1="50.0000463%" y1="100%" x2="50.0000463%" y2="0%" id="linearGradient-2">
            <stop stop-color="#FD3A84" offset="0%"></stop>
            <stop stop-color="#FFA68D" offset="100%"></stop>
        </linearGradient>
    </defs>
    <g id="Page-1" stroke="none" stroke-width="1" fill="none" fill-rule="evenodd">
        <g id="Earned-Wage-Access-Copy-12" transform="translate(-28.000000, -390.000000)" fill-rule="nonzero">
            <g id="task" transform="translate(28.000000, 390.000000)">
                <path d="M26.5384615,2.30769231 L3.46153846,2.30769231 C1.55276923,2.30769231 0,3.86046154 0,5.76923077 L0,35.9230769 C0,37.8318462 1.55276923,39.3846154 3.46153846,39.3846154 L26.5384615,39.3846154 C28.4472308,39.3846154 30,37.8318462 30,35.9230769 L30,5.76923077 C30,3.86046154 28.4472308,2.30769231 26.5384615,2.30769231 Z" id="Path" fill="url(#linearGradient-1)"></path>
                <path d="M10.3846154,4.61538462 L19.6153846,4.61538462 C20.2531538,4.61538462 20.7692308,4.09930769 20.7692308,3.46153846 L20.7692308,1.15384615 C20.7692308,0.516076923 20.2531538,0 19.6153846,0 L10.3846154,0 C9.74684615,0 9.23076923,0.516076923 9.23076923,1.15384615 L9.23076923,3.46153846 C9.23076923,4.09930769 9.74684615,4.61538462 10.3846154,4.61538462 Z M16.1538462,12.7692308 C16.1538462,13.407 16.6699231,13.9230769 17.3076923,13.9230769 L24.2307692,13.9230769 C24.8685385,13.9230769 25.3846154,13.407 25.3846154,12.7692308 C25.3846154,12.1314615 24.8685385,11.6153846 24.2307692,11.6153846 L17.3076923,11.6153846 C16.6699231,11.6153846 16.1538462,12.1314615 16.1538462,12.7692308 Z M24.2307692,20.8461538 L17.3076923,20.8461538 C16.6699231,20.8461538 16.1538462,21.3622308 16.1538462,22 C16.1538462,22.6377692 16.6699231,23.1538462 17.3076923,23.1538462 L24.2307692,23.1538462 C24.8685385,23.1538462 25.3846154,22.6377692 25.3846154,22 C25.3846154,21.3622308 24.8685385,20.8461538 24.2307692,20.8461538 Z M24.2307692,30.0769231 L17.3076923,30.0769231 C16.6699231,30.0769231 16.1538462,30.593 16.1538462,31.2307692 C16.1538462,31.8685385 16.6699231,32.3846154 17.3076923,32.3846154 L24.2307692,32.3846154 C24.8685385,32.3846154 25.3846154,31.8685385 25.3846154,31.2307692 C25.3846154,30.593 24.8685385,30.0769231 24.2307692,30.0769231 Z M11.8765385,28.1073077 L8.07692308,31.9068462 L6.585,30.4149231 C6.13430769,29.9642308 5.40407692,29.9642308 4.95338462,30.4149231 C4.50269231,30.8656154 4.50269231,31.5958462 4.95338462,32.0465385 L7.26107692,34.3542308 C7.48646154,34.5796154 7.78169231,34.6923077 8.07684615,34.6923077 C8.372,34.6923077 8.66730769,34.5796154 8.89261538,34.3542308 L13.508,29.7388462 C13.9586923,29.2881538 13.9586923,28.5579231 13.508,28.1072308 C13.0573077,27.6565385 12.3272308,27.6565385 11.8765385,28.1073077 L11.8765385,28.1073077 Z M11.8765385,18.8765385 L8.07692308,22.6760769 L6.585,21.1841538 C6.13430769,20.7334615 5.40407692,20.7334615 4.95338462,21.1841538 C4.50269231,21.6348462 4.50269231,22.3650769 4.95338462,22.8157692 L7.26107692,25.1234615 C7.48646154,25.3488462 7.78169231,25.4615385 8.07684615,25.4615385 C8.372,25.4615385 8.66730769,25.3488462 8.89261538,25.1234615 L13.508,20.5080769 C13.9586923,20.0573846 13.9586923,19.3271538 13.508,18.8764615 C13.0573077,18.4257692 12.3272308,18.4257692 11.8765385,18.8765385 L11.8765385,18.8765385 Z M11.8765385,9.64576923 L8.07692308,13.4453077 L6.585,11.9533846 C6.13430769,11.5026923 5.40407692,11.5026923 4.95338462,11.9533846 C4.50269231,12.4040769 4.50269231,13.1343077 4.95338462,13.585 L7.26107692,15.8926923 C7.48646154,16.1180769 7.78169231,16.2307692 8.07684615,16.2307692 C8.372,16.2307692 8.66730769,16.1180769 8.89261538,15.8926923 L13.508,11.2773077 C13.9586923,10.8266154 13.9586923,10.0963846 13.508,9.64569231 C13.0573077,9.195 12.3272308,9.195 11.8765385,9.64576923 L11.8765385,9.64576923 Z" id="Shape" fill="url(#linearGradient-2)"></path>
            </g>
        </g>
    </g>
</svg>