<?xml version="1.0" encoding="UTF-8"?>
<svg width="300px" height="279px" viewBox="0 0 300 279" version="1.1" xmlns="http://www.w3.org/2000/svg" xmlns:xlink="http://www.w3.org/1999/xlink">
    <title>6099983 copy</title>
    <defs>
        <polygon id="path-1" points="0 -2.21251588e-15 90.2016273 -2.21251588e-15 90.2016273 132.582663 0 132.582663"></polygon>
        <polygon id="path-3" points="0 0 13.4131095 0 13.4131095 148.320207 0 148.320207"></polygon>
    </defs>
    <g id="6099983-copy" stroke="none" stroke-width="1" fill="none" fill-rule="evenodd">
        <g id="Group" transform="translate(-11.524481, 14.236473)">
            <path d="M42.2954033,277.50601 C38.6268528,274.641475 34.9363612,271.75762 31.828625,268.292429 C28.7208888,264.826359 26.195908,260.712212 25.267361,256.150207 C24.9856374,254.76536 24.897873,253.184684 25.7860484,252.086993 C34.128929,258.605523 40.6822942,267.037548 42.2954033,277.50601" id="Fill-2" fill="#D4D5CF"></path>
            <path d="M42.6245197,277.902057 C41.9961268,273.335661 41.7705724,268.641055 42.8184789,264.152815 C43.8663854,259.663697 46.3071125,255.366894 50.138027,252.807078 C51.5799956,256.178308 50.9603791,260.063257 49.9440678,263.586407 C48.3748409,269.031833 45.9130504,274.218205 42.6868324,278.87505" id="Fill-3" fill="#D4D5CF"></path>
            <path d="M52.5796317,294.910124 C48.5802095,285.054613 50.0291992,273.178472 56.2797774,264.574329 C59.1084229,274.641475 58.0701704,286.0118 52.5796317,294.910124" id="Fill-5" fill="#D4D5CF"></path>
            <path d="M92.1894454,281.681627 C93.6744184,276.590096 95.168168,271.452901 95.5753946,266.165542 C95.9834989,260.876426 95.2304807,255.356357 92.4878442,250.817184 C87.3641605,260.737678 86.8454731,272.327542 92.0358577,282.21291" id="Fill-11" fill="#D4D5CF"></path>
            <path d="M109.439532,272.957177 C115.431205,262.061933 127.655026,253.358559 140.024535,252.137926 C135.252787,264.025483 122.239964,273.21272 109.439532,272.957177" id="Fill-12" fill="#D4D5CF"></path>
            <path d="M94.6635228,243.489875 C101.929535,250.275363 112.164615,253.759874 122.05917,252.81586 C122.509401,252.77283 123.000004,252.700822 123.306301,252.368002 C123.996129,251.617181 123.168511,250.458019 122.365467,249.831896 C114.310454,243.548711 104.554567,240.943231 94.6635228,243.489875" id="Fill-15" fill="#D4D5CF"></path>
            <path d="M101.581988,240.956404 C111.18692,233.751158 124.357718,231.575973 135.767086,235.311636 C131.461366,239.557506 125.489001,241.841582 119.477142,242.468583 C113.465283,243.093828 107.444647,242.42731 101.581988,240.956404" id="Fill-16" fill="#D4D5CF"></path>
            <path d="M98.8323302,223.551411 C98.0406957,215.507529 98.5541172,209.158483 97.9968135,201.076841 C97.9520536,200.43052 97.8133859,199.654233 97.2095671,199.421523 C96.3687845,199.097484 95.6684248,200.13107 95.3928447,200.989026 C92.9986328,208.439276 94.3071995,216.983705 98.8209209,223.374902" id="Fill-17" fill="#D4D5CF"></path>
            <path d="M98.2539631,224.44098 C103.703253,221.068872 107.790439,216.665813 111.57045,211.489979 C114.200748,207.889552 116.418554,203.574308 115.820879,199.154564 C112.127754,199.080799 108.617179,201.119871 106.215069,203.928204 C103.812958,206.736537 102.384154,210.246515 101.317817,213.785471 C100.25148,217.326184 99.5046053,220.962616 98.2539631,224.44098" id="Fill-18" fill="#D4D5CF"></path>
            <path d="M111.337875,220.80367 C123.296647,216.379535 134.453253,209.796022 144.111722,201.467619 C140.196554,199.889578 135.714427,200.833593 131.800137,202.414268 C122.857825,206.026111 115.55232,212.123128 111.166734,220.715855" id="Fill-19" fill="#D4D5CF"></path>
            <path d="M101.932168,228.841405 C107.982643,229.503532 114.127904,229.933827 120.130987,228.930098 C126.030507,227.943054 131.606177,225.603655 137.119535,223.281818 C137.576787,223.089503 138.074411,222.858548 138.274514,222.405421 C138.491292,221.911899 138.259594,221.312121 137.860266,220.9512 C137.460938,220.588523 136.929964,220.416405 136.411276,220.270631 C130.417848,218.593359 123.949614,219.379306 118.051849,221.368323 C112.154083,223.359096 107.319144,225.722205 101.932168,228.841405" id="Fill-20" fill="#D4D5CF"></path>
            <path d="M67.3872355,243.763859 C63.2596774,235.427552 63.5273587,225.699373 67.0932249,217.107524 C69.6032858,220.933637 69.9095834,225.807386 69.4505758,230.360609 C68.9915681,234.915589 67.6066464,239.602292 67.5162491,244.179225" id="Fill-21" fill="#D4D5CF"></path>
            <path d="M50.8971888,235.443359 C40.5918969,235.245775 30.2830945,239.640052 23.2856416,247.212366 C28.4286334,248.021145 33.7269682,246.693377 38.4056866,244.407545 C43.0835273,242.121713 47.2418029,238.914698 51.3623399,235.730515" id="Fill-22" fill="#D4D5CF"></path>
            <path d="M39.8116717,231.733163 C34.7696089,231.323943 29.9188724,230.699577 25.0716464,232.18629 C20.2244205,233.672124 15.8125058,237.045988 13.8369299,241.717762 C18.5525093,242.249045 23.333912,241.066173 27.6554294,239.106135 C31.9778244,237.146976 35.9079127,234.432605 39.8116717,231.733163" id="Fill-23" fill="#D4D5CF"></path>
            <path d="M56.2253635,231.902646 C51.6905787,228.92922 47.0329238,225.901348 41.7521419,224.670178 C36.4713599,223.438129 30.3515507,224.348774 26.6689579,228.331198 C30.9439602,230.840959 36.1308342,231.136897 41.086888,231.133384 C46.0438194,231.128993 52.1197464,231.07367 56.7923213,232.72811" id="Fill-24" fill="#D4D5CF"></path>
            <path d="M56.2525704,232.142382 C48.4985887,224.524405 45.5602377,210.839268 48.6793833,200.423495 C54.7737408,209.688888 57.5032126,221.120684 56.2525704,232.142382" id="Fill-25" fill="#D4D5CF"></path>
            <path d="M77.5740455,210.557381 C79.0361998,207.156294 80.0639206,203.585724 81.3759978,200.123167 C82.6880751,196.66061 84.318737,193.254254 86.7980804,190.504757 C89.2765461,187.75526 92.7046222,185.708285 96.4003797,185.524751 C94.086911,196.007264 87.1280744,205.373644 77.7627389,210.611826" id="Fill-26" fill="#D4D5CF"></path>
            <path d="M73.7150463,215.055281 C71.2953827,211.72269 68.49921,207.197568 65.2177004,204.710638 C61.9361908,202.222831 57.6629438,200.717677 53.6582558,201.672229 C57.7314,208.958264 65.4274572,214.093703 73.7150463,215.055281" id="Fill-27" fill="#D4D5CF"></path>
            <path d="M74.4864951,210.834877 C72.900593,206.801521 71.3032815,202.726891 70.661724,198.440626 C70.0201665,194.154361 70.4107179,189.575671 72.6013165,185.837374 C76.8570106,193.887402 78.22789,202.528428 74.7041507,210.926205" id="Fill-28" fill="#D4D5CF"></path>
            <path d="M77.6126618,185.837374 C80.023549,177.856719 87.3264218,171.980998 95.2111725,169.285068 C96.2055428,168.944344 97.2587152,168.661579 98.29609,168.821403 C99.3343424,168.982105 100.353287,169.692531 100.570942,170.720848 C100.858809,172.078473 99.7371809,173.295593 98.6831308,174.196578 C92.5440134,179.449689 85.3271496,183.436504 77.6126618,185.837374" id="Fill-29" fill="#D4D5CF"></path>
            <path d="M77.6995485,179.310941 C78.0058462,174.164964 78.3270638,168.945223 79.9998526,164.069717 C81.6717637,159.194212 84.8953489,154.620791 89.5854766,152.487757 C90.3832547,157.684667 88.0917271,162.854353 85.3280272,167.326787 C82.5643273,171.798342 79.2336697,176.019623 77.5740455,181.007532" id="Fill-30" fill="#D4D5CF"></path>
            <path d="M77.5740455,182.852532 C75.5809167,177.036524 75.3746705,169.649501 71.8939357,164.582558 C69.4611075,161.040089 65.5643696,158.627803 63.4685566,154.876333 C62.0757361,158.380164 62.5022709,162.417033 63.9582817,165.894519 C65.4151702,169.372883 67.8216691,172.365629 70.3975533,175.118638 C72.9734374,177.87077 75.1789559,179.940576 77.5740455,182.852532" id="Fill-31" fill="#D4D5CF"></path>
            <path d="M77.6126618,354.129251 C77.4573189,354.129251 77.3230394,315.330694 77.3125077,267.481893 C77.301976,219.616407 77.4187026,180.825755 77.5740455,180.825755 C77.7285108,180.825755 77.8627903,219.615529 77.873322,267.481893 C77.8838537,315.330694 77.7671271,354.129251 77.6126618,354.129251" id="Fill-32" fill="#D4D5CF"></path>
            <path d="M111.49779,237.910091 C111.509015,237.946973 110.988573,238.140167 110.03984,238.45718 C108.992811,238.811076 107.64475,239.265959 106.027253,239.81217 C102.644814,240.965185 97.9976911,242.634554 92.9529954,244.702604 C87.9592029,246.847054 83.2488894,248.586675 80.5668104,250.912902 C79.2266485,252.05977 78.4578327,253.301479 78.077813,254.207733 C77.693405,255.118377 77.6249488,255.676004 77.5731679,255.665613 C77.5547373,255.662832 77.5600032,255.524084 77.5898431,255.258882 C77.6346029,254.997192 77.7013038,254.607292 77.8750773,254.128699 C78.2015607,253.171512 78.9493131,251.842866 80.3035173,250.616087 C81.6524556,249.385794 83.5288577,248.281078 85.6782071,247.275593 C87.828434,246.271864 90.2112366,245.224227 92.7406056,244.184494 C97.8002213,242.109419 102.483328,240.493617 105.90526,239.434564 C107.61491,238.901526 109.009486,238.508113 109.976649,238.24818 C110.946446,237.995272 111.487074,237.87233 111.49779,237.910091" id="Fill-33" fill="#D4D5CF"></path>
            <path d="M122.605064,210.611826 C122.617351,210.626755 122.476928,210.776041 122.196082,211.048269 C121.866088,211.358257 121.454473,211.744644 120.952461,212.21709 C119.796604,213.268239 118.223867,214.696994 116.307093,216.440128 C112.296262,220.012454 106.856626,224.858981 100.846522,230.21308 C94.810967,235.589132 89.5960084,240.724571 85.9818718,244.591079 C84.1712929,246.523016 82.7468772,248.12301 81.7744481,249.239143 C81.3198286,249.758131 80.9485854,250.183157 80.6501865,250.523002 C80.390404,250.813671 80.2464704,250.961201 80.2306729,250.949785 C80.2157529,250.937491 80.3307242,250.767129 80.5624222,250.451872 C80.7976307,250.140128 81.139034,249.676463 81.6068181,249.099516 C82.5300992,247.93772 83.912388,246.293818 85.6904941,244.323242 C89.239685,240.377701 94.4265591,235.181669 100.473524,229.795957 C106.529265,224.432198 112.03999,219.615529 116.044678,216.142434 C118.0106,214.455502 119.622831,213.071533 120.80765,212.053754 C121.338624,211.613799 121.773058,211.252878 122.121482,210.963966 C122.426025,210.718961 122.591899,210.597776 122.605064,210.611826" id="Fill-34" fill="#D4D5CF"></path>
            <path d="M94.3317735,235.679582 C94.1737977,235.608452 95.434094,232.696496 96.6900021,229.012645 C97.9581972,225.329671 98.5549948,222.221009 98.7156036,222.247354 C98.8612925,222.262282 98.5049692,225.461394 97.2209765,229.191788 C96.5899507,231.05435 95.892224,232.692984 95.3436967,233.85478 C94.7942918,235.017455 94.3993521,235.709439 94.3317735,235.679582" id="Fill-35" fill="#D4D5CF"></path>
            <path d="M77.6477676,259.162272 C77.6161724,259.185982 77.287056,258.799595 76.7174653,258.083022 C76.0864395,257.272486 75.2886614,256.247682 74.3355404,255.025293 C72.3336352,252.437376 69.5673024,248.86505 66.4665873,244.954634 C63.364117,241.044219 60.514408,237.536876 58.4493125,234.999892 C57.475128,233.794188 56.6589194,232.782555 56.014729,231.984314 C55.4460159,231.266863 55.1449841,230.858522 55.174824,230.833056 C55.2037862,230.807589 55.5601096,231.16851 56.1806036,231.842932 C56.8010977,232.516475 57.6804966,233.506154 58.7520996,234.745227 C60.8970607,237.218984 63.7985506,240.690323 66.9054092,244.606008 C70.0105124,248.520814 72.7312078,252.13617 74.6523698,254.788192 C75.6133896,256.113325 76.3786948,257.195209 76.8938717,257.953055 C77.4090485,258.710901 77.6793627,259.13944 77.6477676,259.162272" id="Fill-36" fill="#D4D5CF"></path>
            <path d="M70.218514,249.618505 C70.1263614,249.716858 68.1437644,247.364286 67.1055119,243.787569 C66.339329,241.268148 66.3051009,238.962996 66.3998864,237.910091 L66.6473819,237.930288 C66.5359212,238.379025 66.455178,238.616126 66.4112958,238.609101 C66.3674136,238.601197 66.3647807,238.351802 66.4016417,237.889893 L66.6491372,237.910091 C66.7395345,238.955971 66.8975104,241.181211 67.6426298,243.628623 C68.6457765,247.092937 70.368591,249.523664 70.218514,249.618505" id="Fill-37" fill="#D4D5CF"></path>
            <path d="M60.6267464,237.545657 C60.553902,237.623813 59.915855,236.819425 58.4528231,236.282873 C57.0012005,235.720855 54.8167454,235.597036 52.4190229,235.802524 C50.0204228,235.979032 47.877217,236.406693 46.3430958,236.783421 C44.8098524,237.163661 43.8725289,237.462233 43.8426891,237.383199 C43.818115,237.317338 44.7106786,236.885286 46.236901,236.401424 C47.761368,235.921074 49.9335361,235.423162 52.376896,235.24314 C54.8009478,235.03414 57.1003742,235.221186 58.6011448,235.915805 C60.1221013,236.589349 60.6767721,237.531607 60.6267464,237.545657" id="Fill-38" fill="#D4D5CF"></path>
            <path d="M58.3527717,234.619652 C58.3097672,234.707467 57.0863319,234.112079 55.0229916,233.406922 C52.963162,232.698253 50.0291992,231.954457 46.7160944,231.69628 C43.4012343,231.448641 40.387406,231.73931 38.2442001,232.126575 C36.0983614,232.512084 34.7985711,232.914278 34.7696089,232.821194 C34.7573219,232.784312 35.0715183,232.652589 35.6525184,232.444467 C36.2308856,232.228441 37.0900987,231.98168 38.1669675,231.738432 C40.3171945,231.244031 43.3836814,230.884867 46.7590989,231.136897 C50.1318835,231.399464 53.1079732,232.220538 55.1590264,233.033707 C56.1849918,233.438536 56.9976899,233.812629 57.5374407,234.113835 C58.0798245,234.408017 58.3694469,234.585404 58.3527717,234.619652" id="Fill-39" fill="#D4D5CF"></path>
            <path d="M77.5740455,222.247354 C77.4239684,222.285114 76.3356903,218.506422 75.1456055,213.808303 C73.954643,209.108429 73.1103498,205.268265 73.2604269,205.230505 C73.410504,205.191866 74.4970268,208.970558 75.6888669,213.670433 C76.8798294,218.368552 77.7232449,222.208715 77.5740455,222.247354" id="Fill-40" fill="#D4D5CF"></path>
            <path d="M77.7276331,222.247354 C77.5608808,222.301799 76.8622765,219.777109 75.0367777,217.194461 C73.2604269,214.558246 70.9925957,213.234869 71.0759718,213.104025 C71.1049341,213.046067 71.7315716,213.275265 72.6048271,213.892606 C73.4798378,214.502922 74.5619725,215.536509 75.4949077,216.872179 C77.390618,219.559327 77.8636679,222.236816 77.7276331,222.247354" id="Fill-41" fill="#D4D5CF"></path>
            <polygon id="Fill-56" fill="#D4D5CF" points="4.79193439 89.2308834 75.2298593 89.2308834 75.2298593 15.7628465 4.79193439 15.7628465"></polygon>
            <polygon id="Fill-57" fill="#FAF9F6" points="0.0219410915 89.2308834 70.459866 89.2308834 70.459866 15.7628465 0.0219410915 15.7628465"></polygon>
            <path d="M0.043882183,89.2089295 L70.4379249,89.2089295 L70.4379249,15.7848003 L0.043882183,15.7848003 L0.043882183,89.2089295 Z M0,89.2528372 L70.4818071,89.2528372 L70.4818071,15.7408927 L0,15.7408927 L0,89.2528372 Z" id="Fill-58" fill="#D4D5CF"></path>
            <polygon id="Fill-59" fill="#FFFFFE" points="9.49083854 79.3542965 60.9909685 79.3542965 60.9909685 25.6394333 9.49083854 25.6394333"></polygon>
            <path d="M60.9909685,79.5799818 C61.0392389,79.5395868 61.6000532,80.028718 62.4689205,80.8515474 C63.3360324,81.6752549 64.5111973,82.8309042 65.7872911,84.1270581 C67.063385,85.4240901 68.2008112,86.6157437 69.0073657,87.4938967 C69.8147979,88.3720497 70.292236,88.9384584 70.2474762,88.9832442 C70.2027164,89.0271519 69.6436574,88.5406551 68.7756678,87.7178257 C67.9076782,86.8949964 66.7307581,85.7349562 65.450276,84.4352898 C64.1715492,83.1356233 63.03149,81.9413352 62.2240579,81.0623041 C61.4175034,80.1841511 60.9426981,79.6203769 60.9909685,79.5799818" id="Fill-61" fill="#D4D5CF"></path>
            <path d="M60.8496679,25.7825723 C60.8092963,25.7342739 61.2981438,25.1722559 62.1204959,24.3046408 C62.942848,23.4352693 64.0987047,22.2603006 65.3949844,20.9834661 C66.6903865,19.7066316 67.8813489,18.5685453 68.7589926,17.7606446 C69.6375139,16.953622 70.2027164,16.4759067 70.2474762,16.5206925 C70.2913584,16.5654783 69.8060215,17.1239836 68.9836693,17.992477 C68.1604396,18.8609703 67.00195,20.0394516 65.7021597,21.3197987 C64.4032471,22.6010239 63.2096517,23.7399884 62.3311304,24.5478892 C61.4534867,25.3557899 60.8900395,25.8308707 60.8496679,25.7825723" id="Fill-62" fill="#D4D5CF"></path>
            <path d="M60.8496679,79.3542965 C60.8461573,79.351662 60.8426468,79.2629686 60.8391362,79.093485 C60.8356256,78.9108292 60.832115,78.6640682 60.8277268,78.3444205 C60.8215833,77.669999 60.8145622,76.7022744 60.8040304,75.4447593 C60.7917434,72.8998719 60.7741905,69.1975788 60.7522495,64.4968258 C60.7276754,55.0891726 60.6934473,41.6868014 60.6513204,25.6394333 L60.8496679,25.8378959 C45.8577589,25.8466775 28.2504718,25.8563371 9.49610441,25.8677531 L9.49083854,25.8677531 L9.71902589,25.6394333 C9.70673888,45.3548465 9.69620716,63.7995723 9.68655308,79.3542965 L9.49083854,79.1593465 C24.8803201,79.2006197 37.6939176,79.2348677 46.6774781,79.2585778 C51.1666254,79.2805316 54.6973858,79.2980947 57.1231929,79.3103888 C58.3220542,79.3200485 59.2444576,79.3279519 59.8868928,79.3332208 C60.1905575,79.3376116 60.425766,79.3411242 60.6012947,79.3437587 C60.7627812,79.3472713 60.8461573,79.351662 60.8496679,79.3542965 C60.8540561,79.3586873 60.7768235,79.3621999 60.6232358,79.3657125 C60.452973,79.3692251 60.2247856,79.3718595 59.9298973,79.3771285 C59.2962386,79.3823974 58.3861221,79.3894226 57.2039361,79.3999604 C54.7877831,79.4113764 51.2719426,79.4289395 46.8029811,79.4508933 C37.7887031,79.4746035 24.9321011,79.5097296 9.49083854,79.5510028 L9.29512401,79.5510028 L9.29512401,79.3542965 C9.28546993,63.7995723 9.27406056,45.3548465 9.26265119,25.6394333 L9.26265119,25.4111136 L9.49610441,25.4111136 C28.2504718,25.4216514 45.8577589,25.4321892 60.8496679,25.4400926 L61.048893,25.4400926 L61.048893,25.6394333 C61.0067661,41.7394906 60.972538,55.1857694 60.947964,64.6241579 C60.9251453,69.3055916 60.9075924,72.9929561 60.8953054,75.5264275 C60.8856513,76.7681359 60.8777525,77.7235664 60.8724866,78.3883282 C60.8672208,78.6983162 60.8637102,78.938052 60.8610773,79.116317 C60.8575667,79.2778972 60.8540561,79.3586873 60.8496679,79.3542965" id="Fill-64" fill="#D4D5CF"></path>
            <polygon id="Fill-65" fill="#E4E4DE" points="26.6478945 61.094861 43.833035 61.094861 43.833035 43.899747 26.6478945 43.899747"></polygon>
            <polygon id="Fill-66" fill="#D4D5CF" points="244.955611 148.435959 347.302905 148.435959 347.302905 0.00175630601 244.955611 0.00175630601"></polygon>
            <polygon id="Fill-67" fill="#F1F0EC" points="239.829295 148.435959 342.17571 148.435959 342.17571 0.00175630601 239.829295 0.00175630601"></polygon>
            <polygon id="Fill-68" fill="#FFFFFE" points="252.544596 132.359612 329.459531 132.359612 329.459531 16.0781034 252.544596 16.0781034"></polygon>
            <g id="Group-72" transform="translate(252.265506, 0.000000)">
                <mask id="mask-2" fill="white">
                    <use xlink:href="#path-1"></use>
                </mask>
                <g id="Clip-70"></g>
                <path d="M77.1940258,132.359612 C77.1940258,132.359612 77.1843717,132.162906 77.1799835,131.791447 C77.1764729,131.406816 77.1712071,130.859727 77.1641859,130.142276 C77.1571648,128.681029 77.1475107,126.541848 77.1334684,123.76425 C77.1176708,118.191491 77.0939744,110.069454 77.0650122,99.8108708 C77.0342946,79.3059981 76.9904125,50.270747 76.9386315,16.0781034 L77.1940258,16.3336459 C53.6951168,16.3406712 27.656307,16.3485745 0.288744764,16.3564779 L0.279090684,16.3564779 L0.557303724,16.0781034 C0.536240276,59.9444806 0.516054472,100.389574 0.50113453,132.359612 L0.279090684,132.137439 C23.7025223,132.186616 42.9027327,132.226133 56.2639798,132.254234 C62.9463586,132.278822 68.1657055,132.298141 71.730694,132.311314 C73.5017789,132.321851 74.8594937,132.330633 75.7906736,132.335902 C76.7104441,132.343805 77.1940258,132.359612 77.1940258,132.359612 C77.1940258,132.359612 76.7420393,132.375419 75.8380663,132.383322 C74.9165405,132.389469 73.572868,132.397373 71.8184584,132.408789 C68.2657568,132.421961 63.0630852,132.44128 56.4017698,132.46499 C43.0071723,132.493091 23.7604468,132.533486 0.279090684,132.582663 L0.0570468379,132.582663 L0.0570468379,132.359612 C0.041249252,100.389574 0.0219410915,59.9444806 0,16.0781034 L0,15.7997289 L0.288744764,15.7997289 C27.656307,15.8085104 53.6951168,15.8155357 77.1940258,15.8225609 L77.4502977,15.8225609 L77.4494201,16.0781034 C77.3985168,50.339243 77.3555122,79.4333303 77.3247947,99.978598 C77.2949548,110.213471 77.2712584,118.314433 77.2554608,123.874019 C77.2422962,126.628785 77.2317645,128.751281 77.2247433,130.201112 C77.2185998,130.905391 77.213334,131.443698 77.2098234,131.821304 C77.2045575,132.183103 77.1940258,132.359612 77.1940258,132.359612" id="Fill-69" fill="#D4D5CF" mask="url(#mask-2)"></path>
            </g>
            <path d="M239.813497,148.319165 C244.282459,142.801729 248.75142,137.28605 253.219504,131.768615" id="Fill-75" fill="#FFFFFE"></path>
            <g id="Group-79" transform="translate(239.809946, 0.000000)">
                <mask id="mask-4" fill="white">
                    <use xlink:href="#path-3"></use>
                </mask>
                <g id="Clip-77"></g>
                <path d="M13.4095582,131.768615 C13.5289178,131.86609 10.6247949,135.649173 6.92377157,140.219081 C3.22099297,144.789868 0.123788493,148.415762 0.00355131179,148.318287 C-0.115808226,148.22169 2.78831465,144.439485 6.49109325,139.86782 C10.1921166,135.29879 13.2910763,131.672018 13.4095582,131.768615" id="Fill-76" fill="#D4D5CF" mask="url(#mask-4)"></path>
                <path d="M0.0193488977,0.00175630601 C0.138708435,-0.0930842188 3.05336303,3.39142691 6.526199,7.78482641 C9.9999126,12.1799822 12.7162197,15.8190483 12.5968602,15.9138888 C12.4757454,16.0096075 9.56284606,12.5250963 6.08913245,8.12994054 C2.61629649,3.7374192 -0.101765927,0.0974749838 0.0193488977,0.00175630601" id="Fill-78" fill="#D4D5CF" mask="url(#mask-4)"></path>
            </g>
            <polygon id="Fill-80" fill="#D4D5CF" points="279.741896 112.854077 305.496349 112.854077 305.496349 39.6881252 279.741896 39.6881252"></polygon>
            <path d="M107.941394,76.9964557 L100.094382,63.1585206 C103.565462,57.5199001 105.571756,50.8828197 105.571756,43.7741711 C105.571756,23.3316472 89.0097424,6.76002185 68.5790756,6.76002185 C48.1492865,6.76002185 31.587273,23.3316472 31.587273,43.7741711 C31.587273,64.2158168 48.1492865,80.7883203 68.5790756,80.7883203 C77.1106496,80.7883203 84.9611722,77.8904154 91.2187715,73.0368638 L91.2056068,73.0535487 L107.941394,76.9964557" id="Fill-144" fill="#FAF9F6"></path>
            <path d="M107.941394,76.9964557 C107.146249,76.814678 101.848791,75.6028268 91.1801552,73.1641959 L91.008137,73.1246791 L91.1160872,72.9832964 L91.1283742,72.9674897 L91.2881053,73.1273135 C89.17825,74.7624344 86.6506362,76.3747233 83.6789348,77.7174193 C80.7037228,79.0372833 77.2949548,80.1156551 73.5316188,80.6162024 C71.6525837,80.8568163 69.6901725,81.0113712 67.6724697,80.9130181 C66.6649348,80.8559381 65.6380917,80.8313498 64.6042275,80.7444127 C63.5756291,80.5898578 62.5329884,80.4317902 61.4771831,80.2719664 C57.2873123,79.4447462 53.0026559,77.853533 49.007622,75.3718726 C45.0134657,72.8998719 41.315953,69.5435711 38.3521503,65.4180083 C35.3927359,61.301227 33.1477234,56.4186962 32.0980616,51.1137739 C31.0571762,45.8158768 31.1440629,40.1377395 32.5342505,34.642258 C33.9349698,29.1660958 36.5503479,23.8155096 40.4663939,19.4142067 L41.9776963,17.7501067 C42.4744426,17.1907233 43.0668521,16.7288148 43.6048476,16.2159734 C44.1682949,15.7303548 44.6773282,15.180631 45.2829023,14.7520924 L47.0583754,13.4234469 C47.6341097,12.9580258 48.2677684,12.5830544 48.8979165,12.2063268 C49.5254318,11.8252084 50.1511917,11.4449681 50.7751963,11.065606 C51.4316738,10.7459583 52.0872736,10.428067 52.7411181,10.1101756 C53.4002285,9.80633463 54.0338872,9.4462919 54.7245928,9.2276318 C60.1001602,7.09284184 65.8338063,6.28055031 71.3129356,6.67747547 C76.7938203,7.07264432 82.0394964,8.64629451 86.5382978,11.1806441 C91.0520192,13.693918 94.8574821,17.0510969 97.7958331,20.7999321 C100.741205,24.5505236 102.81771,28.6883806 104.103458,32.8077963 C105.38043,36.9465315 105.725344,41.0510186 105.711301,44.8507867 C105.601596,48.6593363 104.908257,52.1684357 103.898967,55.2481183 C102.887044,58.3313135 101.559169,60.9842137 100.187412,63.2156005 L100.189167,63.1040751 C105.140833,71.9778112 107.561374,76.3150089 107.941394,76.9964557 C107.55172,76.321156 105.072377,72.0173281 99.9987187,63.2129661 L99.9671235,63.1567643 L100.000474,63.1005625 C101.349412,60.8735665 102.653591,58.2303259 103.641817,55.1646938 C104.629167,52.1025742 105.300564,48.6189412 105.39535,44.8420052 C105.394472,41.0738506 105.039026,37.0080022 103.762055,32.9122966 C102.477184,28.8367884 100.412089,24.7472299 97.4877801,21.0423024 C94.5731256,17.338253 90.8018907,14.0258598 86.3355622,11.547712 C81.8832759,9.04848859 76.6981571,7.50118299 71.2813405,7.11655197 C65.8645238,6.72928649 60.2019669,7.53718726 54.893978,9.64826709 C54.2102936,9.86429273 53.5854113,10.2208228 52.9341997,10.5211512 C52.2891316,10.8346518 51.6414306,11.1490306 50.992852,11.4651657 C50.3767461,11.840137 49.758885,12.2151083 49.1392685,12.5927141 C48.5170192,12.965051 47.8903816,13.3347534 47.3234238,13.7949056 L45.5690141,15.1077443 C44.9704612,15.5310141 44.4693266,16.0754689 43.9120229,16.5540623 C43.3810485,17.0616348 42.7947825,17.5173962 42.3050574,18.0697544 L40.8113079,19.7136569 C36.9435322,24.0605142 34.3597493,29.345239 32.97395,34.7529053 C31.5969271,40.1798908 31.5065298,45.7912886 32.5298623,51.0277149 C33.5619712,56.2702884 35.7745109,61.0974955 38.6935537,65.1730036 C41.6178624,69.2555369 45.26886,72.5837368 49.2156235,75.0372963 C53.1632647,77.5005155 57.398773,79.0864598 61.5456393,79.9180707 C62.5917906,80.0796509 63.6238995,80.2385966 64.6410885,80.3949078 C65.6661763,80.4844794 66.6824877,80.510824 67.6812462,80.5714166 C69.6796408,80.6759168 71.6253768,80.5283871 73.4894919,80.298311 C77.2212327,79.8153268 80.6063043,78.7597869 83.5657188,77.4645112 C86.5216226,76.1455254 89.0404599,74.5595811 91.14856,72.946414 L91.8375103,72.4195222 L91.3091688,73.1062378 L91.2960041,73.1220446 L91.2319361,72.9429014 C101.8681,75.5229149 107.149759,76.8041402 107.941394,76.9964557" id="Fill-145" fill="#132529"></path>
            <path d="M44.0875516,47.5967711 L45.0301409,45.5041325 C46.0411864,46.241781 47.5498559,46.7563787 48.9900691,46.7563787 C50.635651,46.7563787 51.3035378,46.2075331 51.3035378,45.4698846 C51.3035378,43.222691 44.3271484,44.766484 44.3271484,40.307223 C44.3271484,38.2663954 45.9727302,36.5680475 49.3841311,36.5680475 C50.8928006,36.5680475 52.4356981,36.9280903 53.5494279,37.6314908 L52.6919701,39.7416925 C51.5782403,39.1067879 50.4294047,38.797678 49.3665783,38.797678 C47.7209964,38.797678 47.0873377,39.4158977 47.0873377,40.1702312 C47.0873377,42.3822986 54.0637271,40.8560687 54.0637271,45.2643968 C54.0637271,47.2709764 52.4005924,48.9860092 48.9725162,48.9860092 C47.0697848,48.9860092 45.1503781,48.4196005 44.0875516,47.5967711" id="Fill-146" fill="#132529"></path>
            <path d="M62.5101697,44.1667055 C62.5101697,42.5711015 61.4991242,41.6112802 60.1615953,41.6112802 C58.824944,41.6112802 57.7963456,42.5711015 57.7963456,44.1667055 C57.7963456,45.7614314 58.824944,46.7221307 60.1615953,46.7221307 C61.4991242,46.7221307 62.5101697,45.7614314 62.5101697,44.1667055 Z M55.0879373,44.1667055 C55.0879373,41.3882294 57.2302654,39.4158977 60.1615953,39.4158977 C63.0929251,39.4158977 65.218578,41.3882294 65.218578,44.1667055 C65.218578,46.9451816 63.0929251,48.9175133 60.1615953,48.9175133 C57.2302654,48.9175133 55.0879373,46.9451816 55.0879373,44.1667055 L55.0879373,44.1667055 Z" id="Fill-147" fill="#132529"></path>
            <path d="M72.7224313,39.4158977 L72.7224313,41.885264 C72.4995099,41.8677009 72.3283693,41.851016 72.1230007,41.851016 C70.6485594,41.851016 69.671742,42.6571605 69.671742,44.4240043 L69.671742,48.7805214 L66.9975617,48.7805214 L66.9975617,39.5528896 L69.5515048,39.5528896 L69.5515048,40.7700097 C70.2027164,39.8786844 71.299771,39.4158977 72.7224313,39.4158977" id="Fill-148" fill="#132529"></path>
            <path d="M80.0393465,39.4158977 L80.0393465,41.885264 C79.816425,41.8677009 79.6452845,41.851016 79.4399159,41.851016 C77.9654746,41.851016 76.9886572,42.6571605 76.9886572,44.4240043 L76.9886572,48.7805214 L74.3144769,48.7805214 L74.3144769,39.5528896 L76.86842,39.5528896 L76.86842,40.7700097 C77.5196316,39.8786844 78.6166862,39.4158977 80.0393465,39.4158977" id="Fill-149" fill="#132529"></path>
            <path d="M91.1099437,39.5528896 L86.9446469,49.3460519 C86.0538385,51.5756824 84.7847658,52.244835 83.1225087,52.244835 C82.1799194,52.244835 81.1513211,51.9357251 80.5510128,51.4044426 L81.5278302,49.5006069 C81.9394451,49.8606496 82.5055252,50.0837005 83.0364996,50.0837005 C83.7737203,50.0837005 84.1853352,49.7579057 84.5451691,48.9341982 L84.5793972,48.8490173 L80.5852409,39.5528896 L83.3454302,39.5528896 L85.9336014,45.8132424 L88.5393254,39.5528896 L91.1099437,39.5528896" id="Fill-150" fill="#132529"></path>
            <path d="M91.860329,36.7744135 L95.0488084,36.7744135 L94.517834,44.6119291 L92.3921811,44.6119291 L91.860329,36.7744135 Z M91.8094257,47.3561572 C91.8094257,46.4815168 92.4948654,45.8299273 93.4550075,45.8299273 C94.4151497,45.8299273 95.1005894,46.4815168 95.1005894,47.3561572 C95.1005894,48.2141127 94.4151497,48.9175133 93.4550075,48.9175133 C92.4948654,48.9175133 91.8094257,48.2141127 91.8094257,47.3561572 L91.8094257,47.3561572 Z" id="Fill-151" fill="#132529"></path>
            <polyline id="Fill-152" fill="#F1AD92" points="144.721684 99.6545596 158.355001 94.6060579 192.109176 92.1358135 200.994441 94.8440374 189.00495 146.485581 159.565272 152.846922 145.906503 134.712184 144.721684 99.6545596"></polyline>
            <path d="M221.202186,101.77003 L199.200537,93.9895945 C199.200537,93.9895945 178.569767,123.513977 144.721684,99.6545596 C144.721684,99.6545596 129.884241,104.987583 127.675211,106.215241 C125.46706,107.442899 137.99279,144.975158 137.99279,144.975158 L136.516594,191.626158 C155.840552,201.594951 186.723955,197.885633 213.614079,193.364901 L212.835609,141.537189 L221.202186,101.77003" id="Fill-153" fill="#E46C62"></path>
            <path d="M212.674122,59.4421771 C214.939321,56.1965235 214.365342,51.2894045 211.411193,48.6558237 C208.457045,46.0222428 203.519421,46.0143394 200.557374,48.6391388 L196.155113,56.4301122 C193.749492,59.4044165 191.990694,62.9653269 191.480783,66.7580698 C190.970872,70.5508126 191.778304,74.5745097 194.028583,77.6682427 C196.982731,81.7288222 202.400426,83.8302424 207.318741,82.8221227 C212.236178,81.8148812 216.391821,77.7525454 217.513449,72.8559642 C218.635078,67.9602612 216.662135,62.4920024 212.674122,59.4421771" id="Fill-154" fill="#132529"></path>
            <path d="M201.271776,60.0437119 C201.140129,57.421547 200.861916,54.7343988 201.607036,52.2184904 C201.887882,51.2683289 202.315294,50.3374867 202.326704,49.3478082 C202.343379,47.9102718 201.372705,46.5140085 200.021134,46.0275117 C198.668685,45.5418931 197.032757,46.0011671 196.130539,47.1199341 L195.980462,47.3904052 C194.459506,48.6189412 193.729306,50.5587812 193.136019,52.4231001 C192.215371,55.3245176 191.464108,58.2803806 190.889251,61.2696135 C190.567156,62.9477639 190.299475,64.6750908 190.596996,66.3585101 C190.894517,68.0410513 191.851149,69.6937353 193.401068,70.4111863 C195.782115,71.5132683 198.73012,69.9844039 200.038687,67.7082313 C201.346376,65.4329369 201.402545,62.6649986 201.271776,60.0437119" id="Fill-155" fill="#E46C62"></path>
            <path d="M197.993777,51.0171771 C197.492642,48.0349695 196.19724,45.225758 195.742621,42.235647 C195.145823,38.3094249 196.02961,34.3278792 196.250777,30.3630184 C196.471943,26.3981575 195.84706,22.02759 192.94206,19.3220006 C189.840467,16.4346335 185.18369,16.3073013 181.01576,15.547699 C176.274729,14.6827183 171.780316,12.8175213 167.123539,11.5802037 C162.466761,10.342008 157.415045,9.75803622 152.901323,11.4467244 C148.823791,12.9720762 145.626535,16.179091 142.73821,19.4396731 C138.059491,24.7217635 133.617737,30.9715784 133.67424,38.0292941 C133.704623,41.6964611 134.963164,45.2362959 135.430949,48.8744838 C135.880302,52.3633857 135.601211,55.9471281 136.416542,59.3692904 C137.231873,62.7923308 139.543587,66.2153712 143.001503,66.8529103 L180.935017,70.6438968 C185.88405,70.7782542 190.846247,68.5969222 194.094406,64.8603811 C197.342565,61.1229619 198.813496,55.9023423 197.993777,51.0171771" id="Fill-156" fill="#132529"></path>
            <path d="M187.679709,32.3976989 L187.583168,27.7557821 L159.5249,23.5871898 C150.902929,23.0269282 141.968516,32.0121897 141.775435,40.6558498 C141.560412,50.2575748 141.677138,61.9896989 143.100676,69.0904441 C145.96355,83.3674557 157.045557,84.7496686 157.045557,84.7496686 L157.049067,92.8611679 C157.0517,101.863993 164.346674,109.161444 173.344277,109.161444 C182.551637,109.161444 189.930865,101.532929 189.63071,92.3254946 L187.679709,32.3976989" id="Fill-157" fill="#F1AD92"></path>
            <path d="M147.720568,50.2312302 C147.725859,51.20598 148.555232,52.0050992 149.572421,52.0191497 C150.587855,52.032322 151.408451,51.2542784 151.403211,50.2795286 C151.39792,49.3056569 150.569424,48.5047813 149.55399,48.4916091 C148.536801,48.4784368 147.715327,49.2564803 147.720568,50.2312302" id="Fill-158" fill="#132529"></path>
            <path d="M145.060455,46.6369499 C145.298296,46.867026 146.651623,45.7781163 148.63422,45.7025951 C150.612429,45.598973 152.108811,46.5596724 152.313302,46.3085207 C152.415109,46.1969952 152.16498,45.7728473 151.512891,45.3364053 C150.870456,44.9025977 149.789199,44.4995255 148.554354,44.5548491 C147.320387,44.6110509 146.300565,45.1080855 145.722198,45.5972167 C145.131544,46.0898606 144.942851,46.5333278 145.060455,46.6369499" id="Fill-159" fill="#132529"></path>
            <path d="M166.463526,49.5972037 C166.468817,50.5719535 167.297312,51.3710728 168.315379,51.3842451 C169.329935,51.3982955 170.151409,50.6202519 170.146169,49.6455021 C170.140878,48.6716304 169.311504,47.8707549 168.296948,47.8575826 C167.278882,47.8435321 166.458285,48.6224539 166.463526,49.5972037" id="Fill-160" fill="#132529"></path>
            <path d="M164.557309,46.2154365 C164.79515,46.4463907 166.15111,45.357481 168.131074,45.2819598 C170.11016,45.1783378 171.606543,46.1390371 171.811911,45.8878854 C171.911963,45.7754818 171.664467,45.3513339 171.009745,44.91577 C170.368187,44.4810843 169.28693,44.078012 168.052086,44.1333357 C166.818119,44.1904156 165.798297,44.6874502 165.21993,45.1765815 C164.631031,45.6692253 164.44146,46.1126926 164.557309,46.2154365" id="Fill-161" fill="#132529"></path>
            <path d="M157.960939,61.215168 C157.965327,61.1018862 156.724339,60.9394279 154.717168,60.7637973 C154.209012,60.733062 153.726308,60.6513937 153.627135,60.3089141 C153.492855,59.9479932 153.682426,59.3938786 153.90447,58.7941001 C154.330127,57.5497573 154.77597,56.244822 155.244632,54.8775377 C157.100848,49.3030224 158.421702,44.7278453 158.197025,44.6549586 C157.971471,44.5820719 156.28464,49.0413328 154.429301,54.6167263 C153.984335,55.9901576 153.557801,57.3003619 153.153207,58.5534862 C152.984699,59.1365798 152.681912,59.8030979 152.970657,60.5512843 C153.122489,60.9244993 153.505142,61.1844326 153.833381,61.2581975 C154.16162,61.3442565 154.445976,61.3381094 154.69786,61.3425002 C156.710297,61.3697229 157.957428,61.3275716 157.960939,61.215168" id="Fill-162" fill="#132529"></path>
            <path d="M157.053455,84.7874291 C157.053455,84.7874291 167.229734,84.9692068 176.56874,78.8230139 C176.56874,78.8230139 171.970765,89.1176016 157.053455,88.4054195 L157.053455,84.7874291" id="Fill-163" fill="#EA8E6C"></path>
            <path d="M158.99217,65.9598287 C159.667078,64.9885914 160.894902,64.4195483 162.140278,64.5029728 C163.003879,64.5609309 163.890299,64.940293 164.44146,65.6199835 C164.991742,66.2996739 165.140942,67.2902305 164.694221,67.9778243 C164.189576,68.7514771 163.078479,68.9710153 162.121848,68.7400611 C161.165216,68.509985 160.326189,67.9198662 159.527533,67.3306255 C159.306367,67.1672891 159.080812,66.9969274 158.937756,66.7668513 C158.7947,66.5367752 158.753451,66.2302998 158.910549,66.0292028" id="Fill-164" fill="#EA8E6C"></path>
            <path d="M173.704111,40.3195172 C173.588262,39.7574992 171.591623,39.7232513 169.329935,39.1085442 C167.055083,38.539501 165.297162,37.5928521 164.920653,38.0275378 C164.751268,38.2365382 165.001396,38.786262 165.677182,39.4132633 C166.345069,40.0385082 167.461432,40.7023919 168.820902,41.058922 C170.181249,41.4128177 171.479284,41.3785697 172.36746,41.1599096 C173.262656,40.9430058 173.749748,40.5847194 173.704111,40.3195172" id="Fill-165" fill="#132529"></path>
            <path d="M150.77567,38.8933967 C150.151666,38.7081064 148.730761,39.9647434 146.774493,40.9965731 C144.845432,42.0784576 143.004136,42.5956898 142.836506,43.2121532 C142.773315,43.5019437 143.241977,43.7689022 144.164381,43.7732929 C145.075375,43.7838308 146.433089,43.4747209 147.768863,42.7493665 C149.103759,42.023134 150.088475,41.0571657 150.560648,40.2949289 C151.044229,39.5256669 151.060027,38.9943843 150.77567,38.8933967" id="Fill-166" fill="#132529"></path>
            <path d="M182.437543,18.6949994 L160.774664,20.4003725 L142.83124,26.5887167 C145.14032,31.6170209 145.579142,35.7539997 151.082846,36.2949419 C156.587427,36.8358842 162.293866,34.2646522 165.537637,29.7825592 C166.461795,33.8589455 171.053627,35.9296303 175.190839,36.5118457 C178.116026,36.9236995 181.190411,36.8833045 183.907596,35.7223862 C186.623903,34.5614679 188.918064,32.1175681 189.293695,29.1862933 C189.670204,26.2541405 185.352198,19.1727146 182.437543,18.6949994" id="Fill-167" fill="#132529"></path>
            <path d="M199.596354,33.0975868 C198.417679,30.8670782 196.384178,29.1186756 194.02946,28.2273503 C193.848666,26.8266962 193.665238,25.4260422 193.480933,24.0262663 L177.427953,29.0905747 C173.627756,35.1454397 175.367246,43.8567175 181.226395,48.1166377 L181.292218,51.1638287 C181.362429,54.3594274 182.243584,57.484774 183.85406,60.2448089 L188.947026,71.3358814 C192.690176,71.4245748 193.542368,67.3815584 195.022953,64.0647745 C196.503538,60.7479906 196.524601,57.0132058 196.395588,53.4031188 C196.332397,51.6380313 196.239367,49.8747 196.120885,48.1131251 C197.256556,46.1767977 198.885463,44.3774622 199.836829,42.3260968 C201.177868,39.4334608 201.086593,35.916458 199.596354,33.0975868" id="Fill-168" fill="#132529"></path>
            <path d="M183.438934,52.1008179 C183.653079,51.9840236 192.194308,48.6092816 192.731425,57.5962994 C193.269421,66.5824392 184.140172,65.2687223 184.109454,65.0123016 C184.078737,64.7550027 183.438934,52.1008179 183.438934,52.1008179" id="Fill-169" fill="#F1AD92"></path>
            <path d="M186.650233,61.4434878 C186.687971,61.4118742 186.812597,61.5435972 187.084666,61.6489756 C187.349715,61.7517195 187.797313,61.8070431 188.255443,61.6033116 C189.183112,61.1976049 189.892248,59.6432741 189.83959,58.0204473 C189.81326,57.2011306 189.594727,56.4318685 189.266488,55.8048673 C188.954047,55.1638156 188.501183,54.730008 188.018479,54.6738062 C187.536653,54.592138 187.215435,54.8986134 187.12065,55.1585467 C187.015332,55.4167237 187.082911,55.5923543 187.036396,55.6107955 C187.012699,55.6353838 186.834538,55.4720473 186.884563,55.0961978 C186.91177,54.9152983 187.003923,54.6975164 187.204903,54.5122261 C187.409394,54.3243013 187.720958,54.2154104 188.056218,54.2312171 C188.751311,54.2382423 189.413055,54.8380208 189.773766,55.5264928 C190.172217,56.2167211 190.436387,57.0799455 190.46535,57.9993717 C190.516253,59.8136358 189.692145,61.5637947 188.415174,62.0169217 C187.793802,62.219775 187.254929,62.0608293 186.970572,61.8650012 C186.679195,61.6595134 186.620393,61.4610508 186.650233,61.4434878" id="Fill-170" fill="#EA8E6C"></path>
            <path d="M198.65201,32.0271183 C198.795066,32.0578537 198.881952,32.4723419 198.742407,33.2012089 C198.593207,33.9177817 198.181593,34.9496115 197.29254,35.9726598 C196.415774,36.9851702 195.029097,38.0020714 193.185167,38.3840679 C191.328073,38.7757242 189.470979,38.3708956 187.913162,38.5456481 C187.153122,38.6211693 186.364121,38.8775899 185.511051,39.1331325 C185.086272,39.2604646 184.645694,39.3860405 184.188442,39.4835155 C183.747865,39.5730871 183.320452,39.6459738 182.89304,39.7012975 C181.193044,39.9261046 179.556239,39.7856001 178.2819,39.3228135 C176.99703,38.8679302 176.14045,38.1373069 175.676176,37.5788016 C175.203126,37.0150274 175.085522,36.6066863 175.190839,36.5118457 C175.449744,36.2457654 176.559086,37.3803391 178.707557,37.7632138 C179.776527,37.9502604 181.092115,37.9212813 182.560413,37.620953 C182.92639,37.54631 183.304655,37.4567384 183.683797,37.3583852 C184.045386,37.2609102 184.426284,37.1362125 184.83351,36.9983425 C185.643575,36.7287495 186.580021,36.3880262 187.670054,36.27211 C189.807117,36.0876978 191.495703,36.5294088 192.824456,36.3081142 C194.16374,36.1368744 195.324862,35.5046042 196.158624,34.8196449 C197.863008,33.4225035 198.313239,31.933156 198.65201,32.0271183" id="Fill-171" fill="#FFFFFE"></path>
            <path d="M165.810584,64.8744316 C165.86412,65.1334867 164.114099,65.6621348 162.159586,66.7062587 C160.196297,67.7319414 158.772759,68.8788093 158.588454,68.6891282 C158.410292,68.5275481 159.63285,66.9986837 161.733051,65.8974798 C163.826232,64.7831036 165.778111,64.6364521 165.810584,64.8744316" id="Fill-172" fill="#132529"></path>
            <path d="M167.381566,66.2417158 C167.263962,66.1837577 167.478984,65.5593909 167.299067,64.8120827 C167.141969,64.0595056 166.680329,63.5879374 166.76195,63.4860717 C166.814608,63.3701555 167.541297,63.7828874 167.74491,64.7119732 C167.958178,65.6384247 167.478984,66.323384 167.381566,66.2417158" id="Fill-173" fill="#EA8E6C"></path>
            <path d="M171.553884,51.728481 C171.663589,51.7802921 171.230033,52.6285879 170.215477,53.1010342 C169.204432,53.5840183 168.275007,53.3776524 168.304847,53.260858 C168.312746,53.1282569 169.139486,53.1142065 170.019763,52.6874241 C170.909693,52.279083 171.445934,51.6503254 171.553884,51.728481" id="Fill-174" fill="#EA8E6C"></path>
            <path d="M172.389401,52.4257345 C172.488574,52.4959868 172.156825,53.0834711 171.449444,53.4681021 C170.744696,53.8571239 170.070666,53.8202415 170.066278,53.6981782 C170.05048,53.5682116 170.617438,53.4092659 171.230033,53.0667862 C171.848772,52.7348444 172.287594,52.3431881 172.389401,52.4257345" id="Fill-175" fill="#EA8E6C"></path>
            <path d="M147.802214,54.3278139 C147.801336,54.4507554 147.317754,54.5280328 146.806088,54.2628306 C146.293544,54.0002629 146.075011,53.5611864 146.175062,53.4891778 C146.275991,53.4075096 146.598086,53.6454891 147.015845,53.8562458 C147.429215,54.0749059 147.809235,54.1987254 147.802214,54.3278139" id="Fill-176" fill="#EA8E6C"></path>
            <path d="M147.729369,55.395648 C147.710939,55.5168331 147.163289,55.5264928 146.564736,55.2516309 C145.964428,54.9802816 145.612493,54.5605245 145.692358,54.465684 C145.773101,54.3655745 146.213679,54.592138 146.754307,54.8362645 C147.292303,55.0839037 147.752188,55.2683158 147.729369,55.395648" id="Fill-177" fill="#EA8E6C"></path>
            <path d="M160.478021,37.8255626 C160.565785,37.9010838 159.136104,39.0646365 156.95867,39.2692462 C154.782114,39.4993223 153.152329,38.6404886 153.222541,38.5491607 C153.265545,38.4139251 154.872511,39.0347793 156.913032,38.8143629 C158.956187,38.6273163 160.409565,37.7017431 160.478021,37.8255626" id="Fill-178" fill="#EA8E6C"></path>
            <path d="M161.325825,38.7485014 C161.430264,38.8082158 160.760622,39.7627682 159.452056,40.1719875 C158.148755,40.5961354 157.050822,40.2044791 157.100848,40.09471 C157.125422,39.962987 158.148755,40.1210546 159.314265,39.7364236 C160.48592,39.3755027 161.229284,38.6536609 161.325825,38.7485014" id="Fill-179" fill="#EA8E6C"></path>
            <path d="M145.608982,33.2091123 C145.595817,33.218772 145.52034,33.1318348 145.388693,32.9562042 C145.250026,32.7849644 145.082396,32.5057117 144.89107,32.1333748 C144.521582,31.3851885 144.157359,30.1882659 144.179301,28.6795991 C144.165258,25.6692906 145.924934,21.5542656 149.410057,18.5615201 C151.14077,17.0651474 153.101426,16.0157545 154.990115,15.4282702 C156.879682,14.8267354 158.675341,14.6511048 160.163825,14.6844746 C161.656696,14.7116973 162.848536,14.9479205 163.650703,15.1560427 C164.052664,15.2622993 164.359839,15.3588961 164.56433,15.438808 C164.769698,15.5143292 164.875016,15.5599931 164.869938,15.5757999 C164.849564,15.6794219 163.10042,14.9997315 160.162069,15.008513 C158.70167,15.0164164 156.952526,15.2219042 155.120006,15.828708 C153.287486,16.4232175 151.392654,17.453291 149.708456,18.9083905 C146.318996,21.8212241 144.568974,25.7843286 144.502273,28.6892587 C144.440838,30.1452364 144.743625,31.3096673 145.053434,32.0604881 C145.372018,32.8121871 145.647598,33.1836458 145.608982,33.2091123" id="Fill-180" fill="#334F55"></path>
            <path d="M177.990523,36.4424716 C177.982624,36.4688162 177.707044,36.4178834 177.225217,36.2642066 C176.746024,36.1043827 176.068483,35.8216175 175.278604,35.3781502 C173.724297,34.4780434 171.639893,32.9737673 170.102261,30.6194391 C169.352754,29.4146131 169.024515,28.0929929 168.842843,26.9145115 C168.656782,25.7272486 168.635719,24.6462423 168.659415,23.7443792 C168.686622,22.8416379 168.778775,22.1154053 168.866539,21.6192489 C168.953426,21.1222143 169.036802,20.8552558 169.064009,20.8595932 C169.139486,20.8719407 168.958692,21.9678756 168.982388,23.7478918 C169.000819,24.6348263 169.054355,25.694757 169.257968,26.8460156 C169.457193,27.9928834 169.788943,29.2539111 170.49018,30.377947 C171.954967,32.6251405 173.967404,34.1548831 175.443601,35.1006538 C176.947882,36.0455465 178.015974,36.3669505 177.990523,36.4424716" id="Fill-181" fill="#334F55"></path>
            <path d="M152.463379,33.0836562 C152.437927,33.0905616 152.321201,32.788477 152.188677,32.2194338 C152.053519,31.6512688 151.93416,30.8064856 151.943814,29.7562146 C151.943814,27.6802609 152.649439,24.6725869 154.760172,22.1909265 C156.881437,19.7171695 159.7408,18.5509823 161.790976,18.227822 C162.825718,18.0548258 163.67791,18.0407754 164.260665,18.0855612 C164.842543,18.1285907 165.158495,18.1962085 165.155878,18.2225531 C165.154106,18.3173936 163.859582,18.1268344 161.851533,18.5457134 C159.868936,18.9417604 157.142097,20.1149728 155.107719,22.4886204 C153.082995,24.868415 152.348408,27.7461224 152.266787,29.7667525 C152.166735,31.8172398 152.556409,33.0668515 152.463379,33.0836562" id="Fill-182" fill="#334F55"></path>
            <path d="M181.538836,16.1237674 C181.521283,16.2730534 178.965585,15.5187199 175.885933,16.2502214 C172.793117,16.9316681 170.820174,18.7222221 170.738553,18.5966462 C170.703447,18.5597638 171.137003,18.0627292 172.00587,17.4541692 C172.868594,16.844731 174.199102,16.1703095 175.783249,15.8041197 C177.369151,15.4449551 178.85939,15.473056 179.90203,15.6460521 C180.949059,15.8155357 181.554633,16.0754689 181.538836,16.1237674" id="Fill-183" fill="#334F55"></path>
            <path d="M213.221772,59.6265892 C212.769786,60.10167 210.468604,58.5569988 207.325762,57.6366945 C204.200473,56.6549194 201.430629,56.6610665 201.319169,56.0147459 C201.273531,55.7144175 201.958971,55.2999293 203.186794,55.0812692 C204.404086,54.8599747 206.162884,54.8959789 207.98926,55.4483372 C209.813882,56.004208 211.297099,56.9517351 212.186152,57.8123251 C213.085737,58.6755495 213.426263,59.401782 213.221772,59.6265892" id="Fill-184" fill="#FFFFFE"></path>
            <path d="M211.849137,61.9659888 C211.834217,61.9273501 212.245832,61.7684044 212.925128,61.3723574 C213.597403,60.9727977 214.542626,60.3106704 215.429923,59.2287859 C216.305812,58.1574392 217.13343,56.6382345 217.321246,54.8107981 C217.522226,52.9991684 217.05883,50.9065298 215.83364,49.1888625 C214.614592,47.4518759 212.717127,46.4604411 210.933755,46.0687849 C209.134585,45.6569311 207.436345,45.7930449 206.066343,46.0626378 C203.31142,46.6510004 201.755358,47.5467164 201.719374,47.4501196 C201.70621,47.4246531 202.082719,47.1945771 202.803264,46.8538537 C203.525565,46.5201556 204.598923,46.0687849 205.998765,45.7465028 C207.390708,45.4303677 209.14424,45.2521026 211.024152,45.6569311 C212.883002,46.0389277 214.908603,47.0760264 216.20576,48.921904 C217.502918,50.7423152 217.97509,52.9491137 217.740759,54.856462 C217.51696,56.7857642 216.614742,58.3550236 215.676541,59.4369081 C214.725176,60.5302086 213.722029,61.169504 213.01026,61.5286686 C212.650426,61.7051774 212.363436,61.8254843 212.161578,61.886955 C211.961476,61.9528165 211.854403,61.9809174 211.849137,61.9659888" id="Fill-185" fill="#132529"></path>
            <path d="M139.280294,193.71265 C139.280294,193.71265 120.598771,233.106594 120.784831,251.236063 C120.902435,262.61956 136.878183,384.157693 136.878183,384.157693 L170.912326,384.157693 L173.680415,270.958501 L176.013191,267.836667 L177.464814,271.401968 C177.464814,271.401968 172.334987,381.356385 173.534726,384.157693 L211.582334,384.157693 C211.582334,384.157693 223.680651,296.973784 225.280596,283.766363 C226.881418,270.558063 228.764841,264.230093 227.965308,245.018739 C227.165774,225.807386 213.681657,193.71265 213.681657,193.71265 C213.681657,193.71265 162.080598,202.117452 139.280294,193.71265" id="Fill-186" fill="#132529"></path>
            <polyline id="Fill-187" fill="#334F55" points="141.003986 193.969949 137.845346 204.844996 146.951777 206.805033 149.52064 195.864125 141.003986 193.969949"></polyline>
            <path d="M152.945205,196.317252 L151.101276,206.805033 C151.101276,206.805033 161.363563,207.954535 172.570195,207.650695 C183.255507,207.360904 193.691568,206.470457 198.362387,204.831823 L197.00204,195.486519 C197.00204,195.486519 161.704967,198.746223 152.945205,196.317252" id="Fill-188" fill="#334F55"></path>
            <path d="M201.583339,194.983337 L203.844149,204.198675 C203.844149,204.198675 211.130347,203.407459 214.1275,201.649397 L211.618317,193.364901 L201.583339,194.983337" id="Fill-189" fill="#334F55"></path>
            <path d="M152.925897,382.63761 C152.839888,380.123458 151.595389,343.94531 149.970871,296.695409 C149.217853,272.955421 148.681613,251.459992 148.527147,235.895608 C148.51135,232.007146 148.497307,228.488387 148.484143,225.393776 C148.510472,222.307946 148.533291,219.647143 148.551721,217.464933 C148.614034,215.304676 148.66406,213.620379 148.69741,212.45507 C148.718474,211.897442 148.735149,211.464513 148.746558,211.151891 C148.7606,210.858587 148.779031,210.709301 148.779031,210.709301 C148.779031,210.709301 148.792196,210.860344 148.793073,211.153647 C148.792196,211.466269 148.791318,211.899199 148.789563,212.457704 C148.77552,213.623013 148.755335,215.307311 148.729883,217.466689 C148.732516,219.648021 148.736026,222.307946 148.739537,225.392898 C148.772887,228.486631 148.809748,232.004512 148.85012,235.892095 C149.087084,251.450332 149.674227,272.942249 150.428123,296.681359 C151.190796,320.404662 151.881501,341.882529 152.381758,357.453938 C152.610823,365.231739 152.767921,371.527218 152.856563,375.878466 C152.888159,378.038722 152.91361,379.72302 152.931163,380.889207 C152.934674,381.447712 152.937307,381.880642 152.939062,382.193264 C152.938184,382.486567 152.925897,382.63761 152.925897,382.63761" id="Fill-190" fill="#334F55"></path>
            <path d="M175.108341,208.385709 C175.124138,208.385709 175.139058,208.562217 175.151345,208.899428 C175.160122,209.285815 175.171531,209.774068 175.184696,210.372969 C175.199616,211.71303 175.221557,213.547492 175.247008,215.78766 C175.296157,220.360203 175.388309,226.675001 175.585779,233.648414 C175.785882,240.623584 176.054441,246.933991 176.26683,251.502143 C176.368637,253.739677 176.452013,255.572382 176.513448,256.912444 C176.533634,257.509588 176.550309,257.996963 176.564352,258.384228 C176.570495,258.720561 176.566107,258.897948 176.550309,258.898829 C176.534512,258.899704 176.508182,258.724952 176.472199,258.389497 C176.436216,258.004866 176.391456,257.519247 176.336164,256.922982 C176.225581,255.647903 176.090424,253.802904 175.943858,251.519706 C175.648969,246.955067 175.329507,240.641147 175.129404,233.660708 C174.931057,226.683783 174.889807,220.362837 174.924036,215.788538 C174.939833,213.50095 174.969673,211.650681 175.006534,210.371213 C175.028475,209.772312 175.046028,209.284937 175.059193,208.89855 C175.076746,208.562217 175.092543,208.385709 175.108341,208.385709" id="Fill-191" fill="#334F55"></path>
            <path d="M176.550384,258.898826 C176.546799,258.914633 176.351084,258.87775 175.978086,258.809254 C175.55945,258.726708 175.019699,258.620451 174.350934,258.489607 C172.942316,258.184887 170.891263,257.793231 168.425084,256.987965 C167.812489,256.769305 167.166543,256.555035 166.545172,256.129131 C166.397727,256.007068 166.230097,255.894664 166.134434,255.650538 C166.073877,255.473151 166.022974,255.296642 165.975581,255.114865 C165.882551,254.752187 165.81585,254.376338 165.770212,253.994341 C165.598194,252.455817 165.690347,250.839138 165.675427,249.136399 C165.695613,245.724774 165.717554,241.982964 165.74125,238.05323 C165.825504,230.21308 165.902736,223.118482 165.958906,217.916303 C166.008054,215.381954 166.048425,213.310391 166.077387,211.814018 C166.100206,211.132571 166.118637,210.581969 166.132679,210.155187 C166.150232,209.775825 166.166907,209.576484 166.182705,209.576484 C166.198502,209.576484 166.212545,209.776703 166.224832,210.156065 C166.23273,210.582847 166.242385,211.133449 166.254672,211.814896 C166.261693,213.312147 166.271347,215.38371 166.281878,217.918059 C166.259937,223.121116 166.230975,230.215714 166.197625,238.056742 C166.162519,241.986477 166.127413,245.726531 166.096696,249.139911 C166.099329,250.841772 165.995767,252.470746 166.146721,253.950434 C166.187093,254.320136 166.246773,254.680179 166.330149,255.026171 C166.373153,255.199167 166.421424,255.371285 166.47496,255.532865 C166.505678,255.634731 166.635569,255.750647 166.755806,255.846366 C167.292924,256.226606 167.93887,256.462829 168.531279,256.683246 C170.95182,257.516613 172.997608,257.958324 174.389551,258.314854 C175.051294,258.481703 175.584901,258.615182 175.999149,258.718805 C176.365126,258.817158 176.554698,258.884775 176.550384,258.898826" id="Fill-192" fill="#334F55"></path>
            <path d="M195.534619,382.63761 C195.534619,382.63761 195.530231,382.483055 195.544273,382.183605 C195.560949,381.865713 195.584645,381.423124 195.61624,380.853203 C195.69084,379.66594 195.799668,377.947395 195.939213,375.744109 C196.25692,371.289238 196.715928,364.877843 197.282008,356.962172 C198.441375,341.106241 200.058872,319.200715 201.347253,294.980377 C202.569811,270.752135 203.135013,248.782503 202.590874,232.895837 C202.504865,230.911211 202.422367,229.022304 202.346012,227.233507 C202.269657,225.445587 202.214365,223.758655 202.055512,222.188518 C201.771155,219.046486 201.624589,216.327724 201.34111,214.126195 C201.0392,211.940472 200.803992,210.235977 200.64075,209.058374 C200.567906,208.491965 200.511737,208.052889 200.470487,207.737632 C200.434504,207.439938 200.427483,207.284505 200.427483,207.284505 C200.427483,207.284505 200.465221,207.433791 200.517002,207.72885 C200.567906,208.043229 200.638995,208.479671 200.732025,209.042567 C200.914575,210.219292 201.178746,211.921153 201.517516,214.104241 C201.82908,216.306649 202.001098,219.024532 202.310028,222.169198 C202.481169,223.740214 202.548747,225.428902 202.635634,227.2177 C202.723399,229.007376 202.816429,230.899795 202.913847,232.884421 C203.541362,248.783381 203.027063,270.767942 201.803628,295.004965 C200.515247,319.233206 198.846846,341.136099 197.604103,356.98676 C196.976588,364.897163 196.468432,371.305045 196.116497,375.757281 C195.940091,377.957932 195.802301,379.673843 195.707515,380.860228 C195.657489,381.428393 195.617995,381.869226 195.589911,382.186239 C195.560949,382.485689 195.534619,382.63761 195.534619,382.63761" id="Fill-193" fill="#334F55"></path>
            <path d="M173.260023,208.050254 L173.260023,210.083178 L185.048533,209.630051 C185.823492,209.601072 186.43872,208.961777 186.43872,208.184612 L186.43872,197.281464 C186.43872,196.482345 185.790142,195.835146 184.992364,195.835146 L172.471022,195.835146 L172.471022,197.46412 L184.342907,198.085852 L184.342907,202.045444 L183.538108,202.024368 C183.188806,202.014709 182.900939,202.294839 182.900939,202.644344 C182.900939,202.981555 183.169498,203.256417 183.505635,203.265198 L184.421018,203.28803 L184.421018,207.247622 L173.260023,208.050254" id="Fill-194" fill="#D4D5CF"></path>
            <polygon id="Fill-195" fill="#132529" points="163.092521 207.987027 166.429323 207.987027 166.429323 196.573672 163.092521 196.573672"></polygon>
            <path d="M183.293246,203.967721 C183.251119,204.008994 183.068569,203.917666 182.87812,203.659489 C182.689427,203.407459 182.51302,202.970139 182.545493,202.467835 C182.577966,201.964654 182.809664,201.554556 183.029075,201.328871 C183.251119,201.097039 183.443323,201.030299 183.479306,201.076841 C183.566193,201.170803 183.048383,201.691548 183.001868,202.497693 C182.944821,203.302081 183.389786,203.886053 183.293246,203.967721" id="Fill-196" fill="#132529"></path>
            <path d="M173.820838,201.650275 C173.817327,201.623052 173.877884,201.57651 174.008653,201.588804 C174.136789,201.597586 174.319339,201.695939 174.442209,201.893523 C174.557181,202.096377 174.634413,202.37036 174.49399,202.699668 C174.336014,202.99824 174.028839,203.214266 173.625123,203.204606 C173.195955,203.16948 172.939683,202.819975 172.882636,202.511743 C172.81418,202.183314 172.98181,201.882107 173.158217,201.748628 C173.537359,201.461472 173.843656,201.60022 173.820838,201.650275 C173.820838,201.717015 173.575097,201.73809 173.384649,201.979582 C173.293374,202.098133 173.24247,202.255322 173.293374,202.418659 C173.339011,202.582874 173.496109,202.743576 173.654963,202.747966 C173.826103,202.762017 174.044637,202.634685 174.121869,202.502962 C174.198224,202.380898 174.200857,202.164873 174.152587,202.038419 C174.057801,201.746872 173.824348,201.711746 173.820838,201.650275" id="Fill-197" fill="#132529"></path>
            <path d="M206.722821,203.967721 C206.668407,203.934351 207.000156,203.294177 207.578523,202.286936 C207.905007,201.735456 208.250798,201.14885 208.616776,200.528874 C208.819511,200.194297 209.028391,199.85094 209.242536,199.4988 C209.440005,199.145783 209.741915,198.760273 209.853376,198.437113 C209.961326,198.081461 209.890237,197.688049 209.683113,197.405283 C209.497052,197.133056 209.107379,196.941619 208.805469,196.705395 C208.221836,196.285638 207.669798,195.888713 207.151111,195.51462 C206.217298,194.82527 205.656484,194.373021 205.692467,194.320332 C205.727573,194.268521 206.352455,194.626807 207.333661,195.247661 C207.869023,195.596288 208.440369,195.965991 209.043311,196.357647 C209.204797,196.46566 209.368039,196.573672 209.533913,196.68432 C209.694522,196.783551 209.9113,196.948644 210.044702,197.141837 C210.336957,197.529981 210.442275,198.074436 210.290442,198.569714 C210.219353,198.821744 210.061377,199.034257 209.95606,199.205497 C209.842844,199.387275 209.729628,199.566418 209.618167,199.743805 C209.396123,200.090675 209.181101,200.427008 208.970466,200.757193 C208.575526,201.35785 208.202528,201.926015 207.852348,202.459932 C207.204647,203.422388 206.775479,204.001091 206.722821,203.967721" id="Fill-198" fill="#132529"></path>
            <path d="M226.705889,230.5459 C226.712033,230.560828 226.606715,230.617908 226.396081,230.715383 C226.185447,230.810224 225.858085,230.919993 225.421897,231.001661 C224.553029,231.162363 223.228665,231.090355 221.745447,230.544143 C220.251698,230.019886 218.6342,229.064456 216.919285,227.914953 C215.207002,226.755791 213.427141,225.324402 211.732411,223.640983 C208.318377,220.279413 206.003153,216.554288 204.638417,213.751223 C203.971408,212.337397 203.504501,211.16155 203.223655,210.336086 C202.950708,209.505354 202.815551,209.043445 202.845391,209.03363 C202.875231,209.024126 203.068312,209.465837 203.38953,210.271981 C203.720402,211.074613 204.229435,212.223237 204.927162,213.606328 C206.355088,216.347922 208.682599,219.996648 212.053628,223.316944 C213.728172,224.97841 215.477316,226.402774 217.157126,227.568083 C218.842202,228.723732 220.422838,229.695848 221.858663,230.242059 C223.288345,230.811102 224.549519,230.925262 225.397322,230.825152 C226.248637,230.718896 226.689214,230.501992 226.705889,230.5459" id="Fill-199" fill="#334F55"></path>
            <path d="M141.054889,212.757154 C141.101404,212.78789 140.587105,213.682728 139.612043,215.035961 C138.638736,216.389195 137.178337,218.182384 135.37829,219.985232 C133.57561,221.786323 131.782584,223.246692 130.430135,224.219685 C129.077686,225.196192 128.18249,225.710789 128.151772,225.663369 C128.112278,225.604533 128.940774,224.997729 130.23442,223.963265 C131.528067,222.929679 133.269312,221.4456 135.055317,219.662071 C136.837811,217.875908 138.321907,216.134531 139.354893,214.840133 C140.388758,213.546614 140.996965,212.717637 141.054889,212.757154" id="Fill-200" fill="#334F55"></path>
            <path d="M171.675876,124.574786 L171.065914,95.2532567 C170.760494,91.4868584 167.504436,92.1867464 167.504436,92.1867464 C167.504436,92.1867464 167.300823,102.584078 166.424057,108.425552 C165.547291,114.267904 162.416736,120.705643 162.314929,122.029898 C162.213122,123.353275 161.806773,134.450494 161.399547,138.014039 C160.99232,141.576706 159.160678,146.87109 159.160678,146.87109 L167.504436,153.28512 L170.047847,149.721575 C170.047847,149.721575 172.897556,147.685138 173.57422,145.140251 C174.250883,142.595363 171.675876,124.574786 171.675876,124.574786" id="Fill-201" fill="#F1AD92"></path>
            <path d="M171.675876,124.574786 C171.675876,124.574786 171.718003,124.731975 171.769784,125.043719 C171.822443,125.379174 171.89441,125.83757 171.98744,126.424176 C172.16999,127.636905 172.424506,129.42219 172.72115,131.712413 C173.013405,134.003514 173.367973,136.797797 173.645309,140.039938 C173.718153,140.849595 173.774322,141.689988 173.815572,142.557603 C173.82347,142.993167 173.860331,143.431365 173.841023,143.883614 C173.843656,144.328837 173.815572,144.80304 173.706744,145.271096 C173.445206,146.187009 172.936173,147.024767 172.321822,147.787882 C171.69694,148.546606 170.98166,149.245616 170.15492,149.870861 L170.197047,149.827832 C169.405412,150.943086 168.545321,152.153181 167.661534,153.397524 L167.545685,153.56086 L167.386832,153.438797 C164.789884,151.44978 161.977036,149.294793 159.031664,147.039696 L158.912305,146.948368 L158.960575,146.801716 C160.118187,143.236415 161.271411,139.437525 161.400424,135.347089 C161.670739,131.26719 161.838369,127.037127 162.047248,122.707832 C162.070067,122.354815 162.065678,121.998285 162.163097,121.610141 C162.256127,121.252733 162.370221,120.915522 162.486947,120.579189 C162.730932,119.917062 162.974917,119.257569 163.217147,118.599833 C163.706872,117.293141 164.1808,115.995231 164.608212,114.697321 C165.476202,112.103257 166.12127,109.507436 166.40036,106.913372 C166.984871,101.724366 167.169176,96.7557765 167.303456,92.1832338 L167.308722,92.0155065 L167.462309,91.9909183 C168.15477,91.8750021 168.841087,91.9417417 169.470358,92.219238 C170.10665,92.4826839 170.585843,93.0350422 170.857913,93.6260392 C171.141391,94.2179143 171.237932,94.876529 171.259873,95.4859672 C171.270405,96.092771 171.281814,96.6925495 171.293224,97.2844246 C171.335351,99.6519251 171.375722,101.899997 171.413461,104.015467 C171.482795,108.238505 171.54423,111.929382 171.595133,114.98272 C171.63375,118.008836 171.665345,120.400046 171.686408,122.061512 C171.689919,122.859753 171.692552,123.483241 171.695185,123.931099 C171.692552,124.127806 171.690796,124.284117 171.689041,124.411449 C171.68553,124.519462 171.68202,124.574786 171.675876,124.574786 C171.670611,124.575664 171.664467,124.521218 171.656568,124.414084 C171.649547,124.28763 171.641648,124.132196 171.631117,123.936368 C171.614441,123.489388 171.591623,122.868534 171.561783,122.071171 C171.513512,120.410584 171.445056,118.022886 171.358169,114.999405 C171.281814,111.947824 171.189662,108.256946 171.082589,104.034787 C171.032564,101.919316 170.979905,99.6712445 170.923736,97.303744 C170.849136,96.1296534 171.030808,94.8554534 170.507733,93.7911319 C170.260237,93.2668746 169.857399,92.8040879 169.308871,92.5792808 C168.776142,92.3413013 168.130196,92.2842214 167.546563,92.3834527 L167.705416,92.1911371 C167.58869,96.7777303 167.419305,101.743686 166.84006,106.966061 C166.563602,109.583836 165.90888,112.234101 165.039135,114.839581 C164.60909,116.146273 164.133407,117.451208 163.643682,118.760535 C163.40233,119.414759 163.160978,120.071617 162.918748,120.73111 C162.803777,121.060417 162.692316,121.392359 162.606307,121.71991 C162.527319,122.018482 162.523808,122.376769 162.503623,122.731542 C162.295621,127.055568 162.123603,131.289143 161.847145,135.377824 C161.71111,139.506899 160.53419,143.369894 159.360781,146.940465 L159.289691,146.702485 C162.227165,148.968998 165.032992,151.133645 167.62204,153.131443 L167.347338,153.172716 C168.236391,151.932764 169.101748,150.72706 169.899526,149.615319 L169.914446,149.593365 L169.941653,149.573167 C171.496837,148.372732 172.869472,146.888654 173.387282,145.179768 C173.486455,144.756498 173.517173,144.323569 173.517173,143.877467 C173.540869,143.439268 173.505763,142.999314 173.501375,142.569897 C173.467147,141.708429 173.417999,140.871549 173.352176,140.06277 C173.102047,136.827654 172.775564,134.031615 172.514904,131.73788 C172.242834,129.46522 172.028689,127.681691 171.87949,126.439104 C171.810156,125.848986 171.754864,125.387955 171.71537,125.051623 C171.681142,124.738122 171.675876,124.574786 171.675876,124.574786" id="Fill-202" fill="#EA8E6C"></path>
            <path d="M171.097509,97.8613711 C171.051872,97.8850812 170.893896,97.45303 170.356778,96.8971591 C170.089097,96.6249317 169.714343,96.3246034 169.235149,96.1024306 C168.777897,95.8907958 168.089824,95.8266906 167.712438,96.3026495 L167.753687,96.1612669 C167.86427,97.0763023 168.04682,98.0967161 168.126685,99.2198738 C168.213572,100.340397 168.246045,101.548736 168.207429,102.802738 C168.11001,105.9114 167.622918,108.684607 167.233244,110.669233 C167.036652,111.663302 166.85849,112.463299 166.725966,113.013901 C166.592564,113.563625 166.503922,113.86571 166.473205,113.859655 C166.407382,113.847268 166.601341,112.609073 166.91466,110.613031 C167.222712,108.617867 167.654513,105.857832 167.750176,102.787809 C167.788793,101.549614 167.765096,100.35796 167.694885,99.2506092 C167.631694,98.1432582 167.471963,97.1193318 167.389465,96.2086872 L167.381566,96.1252626 L167.430714,96.0673045 C167.690497,95.7555602 168.088069,95.610665 168.433861,95.6097868 C168.784918,95.6027616 169.095604,95.7072618 169.360652,95.834594 C169.87934,96.1059433 170.248828,96.4466666 170.511243,96.7566546 C170.772781,97.0683989 170.922858,97.3502861 171.007112,97.5461142 C171.091366,97.7428205 171.112429,97.855224 171.097509,97.8613711" id="Fill-203" fill="#EA8E6C"></path>
            <path d="M171.334473,109.243112 C171.285325,109.245747 171.265139,108.733783 171.128227,107.867046 C171.048361,107.440264 170.935145,106.904591 170.606029,106.430388 C170.281301,105.947404 169.645887,105.690983 168.912177,105.544332 L169.147385,105.36431 C169.099115,107.035436 168.992042,109.033234 168.782285,111.167145 C168.49354,114.170429 168.064373,116.868993 167.689619,118.807955 C167.49917,119.777436 167.32803,120.557236 167.194628,121.093787 C167.060348,121.62946 166.971706,121.922764 166.940989,121.916711 C166.875166,121.903444 167.075268,120.699496 167.370157,118.752631 C167.66329,116.805766 168.040676,114.112471 168.326788,111.123238 C168.536545,108.998986 168.668192,107.011725 168.761222,105.348504 L168.774386,105.118428 L168.99643,105.166726 C169.744183,105.332697 170.502467,105.656735 170.864934,106.251245 C171.223012,106.823801 171.29849,107.391088 171.350271,107.836311 C171.423993,108.73554 171.366946,109.242234 171.334473,109.243112" id="Fill-204" fill="#EA8E6C"></path>
            <path d="M166.988382,125.089383 C166.911149,125.187736 166.423179,124.8154 166.359989,124.119902 C166.291533,123.424405 166.701392,122.967766 166.796178,123.050312 C166.906761,123.11793 166.756684,123.550859 166.814608,124.076873 C166.856735,124.605521 167.084045,125.001568 166.988382,125.089383" id="Fill-205" fill="#EA8E6C"></path>
            <path d="M165.675427,117.854281 C165.563966,117.900823 165.225195,117.235183 165.287508,116.345614 C165.344555,115.454288 165.769335,114.84046 165.873774,114.90193 C165.992256,114.958132 165.791276,115.587768 165.743883,116.376349 C165.685958,117.164052 165.80093,117.813886 165.675427,117.854281" id="Fill-206" fill="#EA8E6C"></path>
            <path d="M183.542496,141.20876 C182.886019,137.682976 181.700322,126.641958 181.505485,125.329119 C181.311526,124.01628 177.736884,117.813886 176.451136,112.047933 C175.166265,106.28198 174.23333,95.9250437 174.23333,95.9250437 C174.23333,95.9250437 170.936023,95.4552319 170.896529,99.2348024 L172.346396,128.526474 C172.346396,128.526474 171.043973,146.683166 171.89792,149.174486 C172.752745,151.665806 175.737611,153.496755 175.737611,153.496755 L178.525008,156.872375 L186.397471,149.887546 C186.397471,149.887546 184.198974,144.735422 183.542496,141.20876" id="Fill-207" fill="#F1AD92"></path>
            <path d="M183.542496,141.20876 C183.547762,141.207882 183.562682,141.257936 183.588134,141.35629 C183.617096,141.473084 183.652202,141.616223 183.696084,141.797122 C183.792625,142.185266 183.941824,142.761334 184.167379,143.504252 C184.615855,144.990965 185.367118,147.153856 186.503666,149.841882 L186.536139,149.918281 L186.474704,149.973605 C184.329743,151.893247 181.678381,154.267773 178.632958,156.99356 L178.507455,157.105086 L178.399504,156.975997 C177.521861,155.919579 176.581027,154.786762 175.601576,153.609158 L175.645459,153.646919 C174.835394,153.126174 174.078865,152.509711 173.377627,151.786991 C172.689555,151.060758 172.052386,150.214219 171.706594,149.189414 C171.440668,148.118068 171.459098,147.073944 171.420482,145.991181 C171.402052,144.912809 171.40995,143.815118 171.432769,142.699864 C171.52931,138.238846 171.790848,133.483648 172.12523,128.510667 L172.124352,128.537012 C171.882123,123.673801 171.624973,118.52519 171.360802,113.231683 C171.193172,109.832353 171.028175,106.492737 170.868444,103.247962 C170.82895,102.436548 170.789456,101.631282 170.75084,100.832163 C170.730654,100.030409 170.613928,99.2567562 170.743819,98.4198764 C170.863178,97.6163664 171.236177,96.7821211 171.928638,96.2868428 C172.61671,95.7836611 173.453982,95.6361314 174.264048,95.7090181 L174.433433,95.7248248 L174.450108,95.9057244 C174.763427,99.2629033 175.129404,102.501532 175.551551,105.586483 C175.998271,108.665288 176.421296,111.622907 177.248914,114.29337 C178.073899,116.970859 179.13848,119.398952 180.145138,121.642633 C180.642762,122.770181 181.167593,123.824843 181.552878,124.919022 C181.731917,125.510897 181.724896,126.04657 181.808272,126.589269 C181.86883,127.128455 181.92851,127.654468 181.986434,128.16731 C182.442809,132.270919 182.815807,135.533257 183.094898,137.7664 C183.238832,138.863213 183.350292,139.717656 183.430158,140.32446 C183.468774,140.598444 183.498614,140.815347 183.522311,140.983075 C183.542496,141.131482 183.54864,141.207882 183.542496,141.20876 C183.536353,141.210516 183.516167,141.135873 183.484572,140.9901 C183.452099,140.823251 183.409094,140.608103 183.355558,140.335876 C183.252874,139.758929 183.109818,138.901852 182.950087,137.786598 C182.623603,135.556967 182.208478,132.298141 181.715242,128.199801 C181.652052,127.68696 181.587984,127.161824 181.523038,126.624395 C181.439662,126.098381 181.427375,125.506506 181.265889,125.012106 C180.88938,123.967104 180.350506,122.898392 179.847617,121.777868 C178.824284,119.5377 177.739516,117.105216 176.89259,114.404017 C176.039521,111.694037 175.605087,108.729393 175.146079,105.643563 C174.711646,102.550708 174.336014,99.3112017 174.015674,95.9443631 L174.202613,96.1419475 C173.521561,96.081355 172.750112,96.219225 172.190176,96.6424947 C171.615319,97.0561048 171.294101,97.7551146 171.183518,98.4901287 C171.065914,99.2128486 171.17562,100.030409 171.199316,100.823381 C171.239688,101.621622 171.280059,102.42601 171.320431,103.237424 C171.481917,106.480443 171.648669,109.818302 171.817177,113.215876 C172.07696,118.507626 172.329721,123.653603 172.56844,128.515058 L172.569318,128.52823 L172.56844,128.542281 C172.226159,133.50648 171.953212,138.2608 171.841751,142.708645 C171.814544,143.820387 171.802257,144.913687 171.817177,145.983278 C171.846139,147.04233 171.840873,148.130362 172.070816,149.070864 C172.38238,150.013122 172.982688,150.828926 173.644431,151.533205 C174.314951,152.232215 175.060948,152.846044 175.829764,153.346591 L175.856093,153.364154 L175.872768,153.384351 C176.84432,154.568102 177.77901,155.707066 178.650511,156.768753 L178.417057,156.750312 C181.486177,154.051748 184.15948,151.70181 186.321116,149.800609 L186.291276,149.932332 C185.181057,147.219717 184.464022,145.041898 184.050652,143.5385 C183.841773,142.786801 183.712759,142.204585 183.634649,141.810295 C183.603054,141.626761 183.57848,141.480987 183.557416,141.362437 C183.542496,141.261449 183.53723,141.209638 183.542496,141.20876" id="Fill-208" fill="#EA8E6C"></path>
            <path d="M171.028175,101.911413 C171.003601,101.89824 171.112429,101.605816 171.382743,101.110537 C171.519656,100.863776 171.697817,100.565204 171.952334,100.244678 C172.20334,99.9364467 172.555275,99.5562064 173.118723,99.4323868 C173.705866,99.2901261 174.350934,99.7054924 174.612472,100.308784 C174.862601,100.951592 174.743241,101.596156 174.770448,102.243355 C174.773081,103.558828 174.838027,105.004268 174.977572,106.516447 C175.265439,109.541684 175.785004,112.251664 176.190475,114.205555 C176.597702,116.160323 176.880303,117.365149 176.81448,117.382869 C176.783763,117.390616 176.675812,117.099069 176.508182,116.564274 C176.342308,116.029479 176.120264,115.249679 175.875401,114.277563 C175.387431,112.335089 174.812575,109.614571 174.522952,106.558598 C174.381652,105.032369 174.328116,103.570244 174.349179,102.24072 C174.342158,101.578593 174.44572,100.927881 174.262292,100.453679 C174.063067,99.9847451 173.600549,99.657194 173.175769,99.7502782 C172.740458,99.8231649 172.40081,100.12964 172.146293,100.411527 C171.888266,100.698683 171.691674,100.97618 171.534576,101.203621 C171.222135,101.662895 171.058893,101.928098 171.028175,101.911413" id="Fill-209" fill="#EA8E6C"></path>
            <path d="M171.610053,113.636512 C171.58899,113.63739 171.563538,113.502154 171.537209,113.244855 C171.515268,112.987557 171.492449,112.608195 171.527555,112.123454 C171.568804,111.642226 171.63726,111.038935 171.940047,110.405787 C172.219138,109.77176 172.836999,109.131587 173.684803,108.885704 L173.908602,108.821599 L173.936686,109.052553 C174.1403,110.66572 174.40096,112.57219 174.741486,114.598967 C175.241743,117.61191 175.813089,120.318378 176.249278,122.273147 C176.687222,124.227915 176.978599,125.434497 176.913654,125.453096 C176.882936,125.460842 176.772353,125.170173 176.59858,124.635378 C176.425684,124.100583 176.195741,123.320783 175.935959,122.350424 C175.417271,120.409706 174.792389,117.700604 174.290377,114.67361 C173.948973,112.638052 173.709377,110.720166 173.546135,109.096461 L173.798019,109.26331 C173.046756,109.465285 172.511393,109.984273 172.227914,110.549804 C171.92776,111.111822 171.827709,111.686134 171.75662,112.147164 C171.630239,113.083275 171.664467,113.635634 171.610053,113.636512" id="Fill-210" fill="#EA8E6C"></path>
            <path d="M177.088305,128.621315 C176.986498,128.540525 177.186601,128.128671 177.190989,127.599145 C177.212053,127.069618 177.032136,126.648983 177.137453,126.572584 C177.226095,126.484768 177.666672,126.911551 177.647364,127.609682 C177.633322,128.308692 177.173436,128.713521 177.088305,128.621315" id="Fill-211" fill="#EA8E6C"></path>
            <path d="M177.890471,121.311569 C177.762335,121.279956 177.831669,120.623097 177.717575,119.841541 C177.615769,119.058228 177.370906,118.445278 177.485,118.379416 C177.585051,118.311798 178.05108,118.894892 178.171317,119.779192 C178.295943,120.662614 178.005442,121.350208 177.890471,121.311569" id="Fill-212" fill="#EA8E6C"></path>
            <path d="M198.614271,195.456662 C195.216912,195.303863 191.946812,193.523847 189.502574,191.101023 C186.678317,188.302349 184.784362,184.716851 183.042239,181.14189 C181.300994,177.566929 179.643126,173.901518 177.175192,170.784075 C176.332654,169.719754 175.226823,168.647529 173.877007,168.647529 C173.859454,168.647529 173.841901,168.648407 173.824348,168.648407 C171.965499,168.686167 170.834216,170.647083 170.048725,172.333137 C167.764219,177.229718 165.201499,182.062194 161.645287,186.129799 C158.200536,190.070949 153.728064,193.27533 148.645629,194.478399 C155.034875,188.182042 161.164338,179.123894 165.680693,171.118651 C170.824562,162.000789 173.687436,154.114096 173.687436,154.114096 C173.693579,154.105315 173.601427,154.032428 173.417999,153.902462 C173.256513,153.790936 173.063431,153.657457 172.834366,153.499389 C173.16436,153.331662 173.504008,153.190279 173.852433,153.082267 C176.384435,163.830859 181.133364,173.345647 186.503666,181.144524 C186.58792,181.267466 186.673051,181.390407 186.757305,181.51247 C190.547848,187.233637 194.599929,191.92473 198.614271,195.456662" id="Fill-213" fill="#BC5247"></path>
            <path d="M127.675211,106.215241 C127.675211,106.215241 116.16667,113.474053 115.827022,127.75809 C115.487374,142.041249 116.336933,180.130257 118.88561,185.231448 C121.435165,190.331761 123.304546,208.696575 139.788449,201.045228 C149.049345,196.74579 159.0852,182.808624 165.680693,171.118651 C170.824562,162.000789 173.687436,154.114096 173.687436,154.114096 L158.142611,144.081198 L138.599242,167.207358 L137.99279,144.975158 L127.675211,106.215241" id="Fill-214" fill="#E46C62"></path>
            <path d="M138.599271,167.20648 C138.604508,167.28727 137.898882,167.333812 136.822891,167.631506 C135.746023,167.922174 134.32424,168.557079 132.977934,169.604715 C131.628996,170.648839 130.598643,171.825564 129.876342,172.688789 C129.158429,173.559038 128.735405,174.121056 128.678358,174.082418 C128.630965,174.051682 128.958327,173.424681 129.620947,172.491204 C130.287079,171.566509 131.301635,170.324801 132.699721,169.242916 C134.09342,168.155763 135.613498,167.534909 136.746536,167.317127 C137.882207,167.091442 138.60012,167.161694 138.599271,167.20648" id="Fill-215" fill="#132529"></path>
            <path d="M138.502701,167.031727 C138.494803,167.087051 138.167441,167.063341 137.620669,167.040509 C136.784275,167.004504 135.433581,166.9685 133.924034,167.216139 C131.420117,167.599892 129.574432,168.586058 129.51212,168.45697 C129.441031,168.371789 131.252487,167.166085 133.852068,166.764769 C136.44726,166.341499 138.543073,166.928105 138.502701,167.031727" id="Fill-216" fill="#132529"></path>
            <path d="M173.687436,154.113917 C173.702356,154.119365 173.655841,154.281824 173.552279,154.586543 C173.427653,154.936926 173.27231,155.375124 173.080984,155.910797 C172.671124,157.0603 172.013769,158.70069 171.148413,160.704635 C169.417699,164.711647 166.712802,170.12546 163.147813,175.75969 C159.574048,181.391285 155.862493,186.164047 153.04789,189.496637 C151.639272,191.16425 150.47025,192.486748 149.636489,193.378074 C149.246815,193.791684 148.92823,194.129773 148.673714,194.400244 C148.449037,194.631198 148.326167,194.747114 148.314757,194.735698 C148.30247,194.72516 148.403399,194.589047 148.605258,194.338773 C148.843099,194.053373 149.139742,193.695965 149.503087,193.259523 C150.294722,192.334828 151.425127,190.980716 152.798639,189.29115 C155.543908,185.912017 159.201049,181.125205 162.76165,175.514685 C166.313474,169.901531 169.051722,164.536016 170.853524,160.572912 C171.754864,158.59092 172.456102,156.973363 172.915987,155.844936 C173.138908,155.322435 173.320581,154.895653 173.466269,154.554051 C173.597038,154.25987 173.673393,154.107949 173.687436,154.113917" id="Fill-217" fill="#132529"></path>
            <path d="M137.99279,144.975158 C138.005077,144.975158 138.020875,145.118297 138.040183,145.394915 C138.056858,145.708416 138.078799,146.11061 138.106884,146.612913 C138.151644,147.722899 138.213957,149.268448 138.292067,151.195994 C138.42108,155.16788 138.60012,160.710782 138.810754,167.201211 L138.437756,167.070366 C141.072442,163.944141 143.962523,160.514954 146.991271,156.92243 C150.995959,152.199723 154.76105,147.758903 157.989024,143.95211 L158.103995,143.816874 L158.251439,143.913471 C162.853802,146.924658 166.713679,149.44847 169.465092,151.248683 C170.785946,152.128592 171.83824,152.830237 172.600035,153.337809 C172.934417,153.568763 173.203854,153.754932 173.417999,153.902462 C173.601427,154.032428 173.693579,154.105315 173.687724,154.114096 C173.681292,154.122878 173.578608,154.068432 173.383771,153.956029 C173.160849,153.821671 172.880004,153.652188 172.532457,153.442309 C171.75662,152.957569 170.683261,152.287538 169.337834,151.447146 C166.56448,149.68118 162.673885,147.204789 158.033783,144.249804 L158.295321,144.211165 C155.079635,148.029374 151.329463,152.48161 147.340573,157.217489 C144.303048,160.802988 141.403314,164.224272 138.760729,167.34435 L138.399139,167.770254 L138.38773,167.212627 C138.243796,160.720442 138.120926,155.175783 138.033162,151.203019 C138.005955,149.273717 137.984892,147.728168 137.969094,146.616426 C137.969094,146.114123 137.969094,145.71105 137.969094,145.396672 C137.972605,145.119175 137.981381,144.976036 137.99279,144.975158" id="Fill-218" fill="#132529"></path>
            <path d="M221.202186,101.77003 C221.202186,101.77003 230.927355,106.696469 231.354768,129.566207 C231.78218,152.436824 233.490952,179.58229 231.354768,184.284799 C229.741659,187.834294 225.948483,198.555664 219.060735,202.224587 C216.993007,203.326669 215.419392,203.381115 212.596012,202.967505 C203.205225,201.594951 190.87872,190.608379 181.511629,172.571995 C174.385162,158.849097 173.948973,152.487757 173.948973,152.487757 L187.028497,139.304924 L212.55564,170.986928 L213.029568,140.612494 L221.202186,101.77003" id="Fill-219" fill="#E46C62"></path>
            <path d="M212.835609,141.538067 C212.835609,141.538067 212.850529,141.716332 212.855795,142.062325 C212.858428,142.428514 212.861938,142.939599 212.866326,143.599092 C212.863693,144.969011 212.86106,146.951881 212.856672,149.487986 C212.825955,154.612009 212.78295,161.969175 212.729414,170.988685 L212.726781,171.472547 L212.421361,171.094941 C205.327367,162.314289 196.540399,151.436608 186.852091,139.44455 L187.189106,139.46387 C183.933925,142.744649 180.5392,146.168568 177.074263,149.662739 C176.058829,150.684909 175.049539,151.702688 174.111338,152.648459 L174.171895,152.437702 C176.650361,163.339094 181.42913,173.003168 186.844192,180.909179 C192.274173,188.841535 198.471215,195.0009 204.343529,199.202863 C205.796029,200.269818 207.24063,201.20593 208.714194,201.865423 C209.44966,202.19473 210.189513,202.457298 210.926734,202.63205 C211.662199,202.805046 212.402053,202.87442 213.105923,202.962236 C215.945978,203.222169 218.430587,202.638197 220.134971,201.590561 C221.849009,200.54468 222.838114,199.288922 223.458608,198.446773 C223.769294,198.019112 223.992215,197.68278 224.137904,197.45446 C224.28447,197.227018 224.369602,197.116371 224.369602,197.116371 C224.369602,197.116371 224.127372,197.618675 223.531452,198.497706 C222.931144,199.36093 221.956082,200.650059 220.225368,201.738968 C218.503432,202.828756 215.967919,203.451367 213.085737,203.209875 C212.368702,203.127328 211.625338,203.064101 210.866176,202.891983 C210.10877,202.718987 209.351363,202.454663 208.6001,202.124478 C207.093186,201.46235 205.624888,200.522727 204.157468,199.457527 C198.236006,195.271372 191.975774,189.098834 186.503666,181.144524 C181.042967,173.213924 176.223826,163.509455 173.726052,152.536934 L173.697967,152.415749 L173.786609,152.327055 C174.725688,151.380406 175.734978,150.363505 176.749534,149.340457 C180.216227,145.848042 183.613585,142.42588 186.869643,139.145978 L187.046927,138.967713 L187.205781,139.165298 C196.861617,151.181065 205.6205,162.078944 212.691675,170.878037 L212.382745,170.985172 C212.500349,161.966541 212.596012,154.609375 212.662713,149.48623 C212.706595,146.950124 212.740823,144.968133 212.765397,143.598214 C212.782073,142.938721 212.795237,142.427636 212.804891,142.062325 C212.816301,141.715454 212.835609,141.538067 212.835609,141.538067" id="Fill-220" fill="#132529"></path>
            <path d="M222.994334,182.783158 C222.932899,182.817406 222.475647,182.063072 221.676113,180.895129 C220.877458,179.725429 219.704926,178.158804 218.256814,176.557931 C216.805191,174.959693 215.369366,173.627534 214.310928,172.684398 C213.250734,171.74214 212.578459,171.173097 212.620586,171.118651 C212.654814,171.072109 213.397301,171.551581 214.518929,172.436759 C215.637925,173.322815 217.125531,174.632141 218.595584,176.251456 C220.062127,177.871648 221.21184,179.493597 221.947305,180.719498 C222.685404,181.9454 223.043482,182.756813 222.994334,182.783158" id="Fill-221" fill="#132529"></path>
            <path d="M220.159545,106.352233 C220.220103,106.401409 219.458308,107.346302 218.395481,108.982301 C217.331777,110.615665 216.017067,112.977897 214.963895,115.758129 C213.919499,118.542753 213.348153,121.185993 213.069062,123.115295 C212.787338,125.046354 212.735557,126.259083 212.658325,126.256453 C212.62673,126.25557 212.61181,125.95173 212.610932,125.401128 C212.603911,124.850526 212.647793,124.054041 212.748722,123.0749 C212.94707,121.116619 213.476289,118.420689 214.536482,115.596549 C215.603697,112.7768 216.98423,110.403152 218.1278,108.801401 C218.697391,107.998769 219.191504,107.371768 219.560115,106.962549 C219.923459,106.549817 220.134971,106.332035 220.159545,106.352233" id="Fill-222" fill="#132529"></path>
            <path d="M135.853095,129.781394 C135.782884,129.789258 135.62052,128.609021 135.27385,126.720992 C134.928936,124.833841 134.365489,122.242411 133.518563,119.441981 C132.666371,116.642429 131.695697,114.173941 130.933902,112.413245 C130.172985,110.65167 129.651665,109.580323 129.715733,109.547831 C129.74294,109.532903 129.904426,109.784054 130.173863,110.25211 C130.445933,110.718409 130.807522,111.410394 131.227913,112.278887 C132.069573,114.015874 133.097294,116.486996 133.95563,119.30938 C134.809577,122.132642 135.328264,124.75832 135.593313,126.669181 C135.726714,127.625489 135.810091,128.401776 135.843441,128.940962 C135.879424,129.47927 135.88469,129.777842 135.853095,129.781394" id="Fill-223" fill="#132529"></path>
            <path d="M223.879877,183.483924 C223.602541,183.483924 223.304142,183.182717 223.131247,182.911368 C223.07771,182.827065 223.023296,182.742763 222.968882,182.65846 C222.869709,182.384476 222.525672,181.679319 221.947305,180.719498 C221.21184,179.493597 220.062127,177.871648 218.595584,176.251456 C217.125531,174.632141 215.637925,173.322815 214.518929,172.436759 C213.95987,171.995048 213.494719,171.655203 213.164725,171.430396 C216.26544,173.119084 219.093208,175.310954 221.500585,177.897114 C222.784577,179.275815 223.992215,180.862637 224.262529,182.727834 C224.297635,182.968448 224.298513,183.254726 224.107186,183.404012 C224.03522,183.460214 223.958865,183.483924 223.879877,183.483924" id="Fill-224" fill="#BC5247"></path>
            <path d="M212.646915,171.175731 C212.618831,171.153777 212.589869,171.131824 212.560906,171.10987 C212.58197,171.120408 212.603033,171.131824 212.624097,171.142361 C212.628485,171.151143 212.636384,171.162559 212.646915,171.175731" id="Fill-225" fill="#051317"></path>
            <path d="M222.968882,182.65846 C220.290314,178.51709 216.53751,174.170233 212.646915,171.175731 C212.636384,171.162559 212.628485,171.151143 212.624097,171.142361 C212.804891,171.236324 212.984808,171.332042 213.164725,171.430396 C213.494719,171.655203 213.95987,171.995048 214.518929,172.436759 C215.637925,173.322815 217.125531,174.632141 218.595584,176.251456 C220.062127,177.871648 221.21184,179.493597 221.947305,180.719498 C222.525672,181.679319 222.869709,182.384476 222.968882,182.65846" id="Fill-226" fill="#051317"></path>
            <path d="M126.240264,177.289432 C126.112128,177.289432 125.983992,177.267479 125.861122,177.21918 C125.395093,177.038281 125.119513,176.528074 125.084407,176.028405 C125.049302,175.529614 125.211666,175.038726 125.401237,174.57594 C126.421059,172.082863 128.295706,169.948951 130.637259,168.620306 C132.459247,167.585842 134.554183,167.043143 136.64824,167.043143 C137.216953,167.043143 137.784789,167.08266 138.347358,167.16345 C138.295577,167.161694 138.236775,167.159938 138.170952,167.159938 C137.847979,167.159938 137.358254,167.195942 136.746536,167.317127 C135.613498,167.534909 134.09342,168.155763 132.699721,169.242916 C131.301635,170.324801 130.287079,171.566509 129.620947,172.491204 C128.958327,173.424681 128.630965,174.051682 128.678358,174.082418 C128.680113,174.084174 128.681869,174.085052 128.684502,174.085052 C128.689768,174.085052 128.696789,174.082418 128.705565,174.077149 C128.512484,174.437191 128.336955,174.806894 128.180734,175.185378 C127.961323,175.71666 127.769119,176.275166 127.394366,176.709851 C127.104743,177.044428 126.669432,177.289432 126.240264,177.289432 M138.872189,167.212627 C138.876578,167.207358 138.880966,167.202089 138.886232,167.19682 L138.989794,167.201211 C138.9503,167.204723 138.911683,167.209114 138.872189,167.212627" id="Fill-227" fill="#BC5247"></path>
            <path d="M128.684502,174.085052 C128.681869,174.085052 128.680113,174.084174 128.678358,174.082418 C128.630965,174.051682 128.958327,173.424681 129.620947,172.491204 C130.287079,171.566509 131.301635,170.324801 132.699721,169.242916 C134.09342,168.155763 135.613498,167.534909 136.746536,167.317127 C137.358254,167.195942 137.847979,167.159938 138.170952,167.159938 C138.236775,167.159938 138.295577,167.161694 138.347358,167.16345 C138.360523,167.166085 138.373688,167.167841 138.385975,167.169597 C138.386852,167.183648 138.386852,167.198576 138.38773,167.212627 L138.388608,167.272341 C134.341793,167.856313 130.638136,170.475843 128.705565,174.077149 C128.696789,174.082418 128.689768,174.085052 128.684502,174.085052" id="Fill-228" fill="#051317"></path>
            <path d="M138.388608,167.272341 L138.38773,167.212627 C138.386852,167.198576 138.386852,167.183648 138.385975,167.169597 C138.401772,167.171354 138.416692,167.173988 138.43249,167.176622 L138.886232,167.19682 C138.880966,167.202089 138.876578,167.207358 138.872189,167.212627 C138.710703,167.229312 138.549216,167.249509 138.388608,167.272341" id="Fill-229" fill="#051317"></path>
        </g>
    </g>
</svg>