<svg id="Layer_1" data-name="Layer 1" xmlns="http://www.w3.org/2000/svg" width="100%" height="100%" viewBox="0 0 477.54 300"><defs><style>.cls-1{fill:#f8b517;}.cls-2{fill:#d42837;}</style></defs><title>AADHAAR</title><g id="layer1"><g id="g10"><g id="g12"><path id="path14" class="cls-1" d="M445.59,116.3h0c-2.65,3.87-3.58,8.53-4.38,13.37a86,86,0,0,1-4.16,17.15,45.4,45.4,0,0,1-14.44,19.9,190,190,0,0,0-33.45-56.2,47.63,47.63,0,0,1,25-2.27,91.29,91.29,0,0,1,17.25,5.06c4.72,1.75,9.28,3.27,14.08,3Z"/><path id="path16" class="cls-1" d="M358.18,31.12h0c-.29,4.62,1.33,9.12,3.08,13.71a86.82,86.82,0,0,1,5.19,16.87,44.23,44.23,0,0,1-2.35,24.4,197,197,0,0,0-57.75-32.51,46.69,46.69,0,0,1,20.51-14.22,92.72,92.72,0,0,1,17.59-4c5-.78,9.76-1.71,13.73-4.27Z"/><path id="path18" class="cls-1" d="M431.81,200.14a47.1,47.1,0,0,1,22.71,10.19,88.91,88.91,0,0,1,12.4,12.82c3.19,3.81,6.4,7.38,10.62,9.45H434.69A188,188,0,0,0,431.81,200.14Z"/><path id="path20" class="cls-1" d="M119.39,31.12h0c4,2.58,8.75,3.49,13.73,4.26a92,92,0,0,1,17.59,4,46.53,46.53,0,0,1,20.51,14.21,197.38,197.38,0,0,0-57.76,32.51,44,44,0,0,1-2.33-24.4,85.47,85.47,0,0,1,5.19-16.87C118.07,40.29,119.69,35.79,119.39,31.12Z"/><path id="path22" class="cls-1" d="M32,116.31h0c4.75.29,9.37-1.29,14.09-3a91.17,91.17,0,0,1,17.31-5.07,47.76,47.76,0,0,1,25,2.27A189.82,189.82,0,0,0,55,166.73a45.19,45.19,0,0,1-14.43-19.9,85.24,85.24,0,0,1-4.17-17.14c-.79-4.85-1.75-9.5-4.38-13.37Z"/><path id="path24" class="cls-1" d="M0,232.6c4.26-2.07,7.47-5.64,10.61-9.45A88.89,88.89,0,0,1,23,210.34a46.88,46.88,0,0,1,22.69-10.2,187.94,187.94,0,0,0-2.86,32.46Z"/><path id="path26" class="cls-1" d="M238.79,0h0c2.12,4.15,5.78,7.29,9.7,10.34a88.07,88.07,0,0,1,13.15,12.07,44.72,44.72,0,0,1,10.5,22.29,202.45,202.45,0,0,0-66.72,0,44.82,44.82,0,0,1,10.51-22.29,89.53,89.53,0,0,1,13.16-12C233,7.35,236.67,4.21,238.79.1Z"/></g><g id="g28"><path id="path30" class="cls-2" d="M199,232.7h14.74c1.93-12.12-1.86-21.46-14.45-19.23-10.61,1.88-22,12.15-28.89,19.23l19.43-.08c2.17-1.38,6.4-3,8.15-1.79A2.29,2.29,0,0,1,199,232.7Z"/><path id="path32" class="cls-2" d="M265.23,232.6h18.4c.87-21.14-2.66-43-12.73-61.89-9.18-17.2-24.35-28.88-44-31.71-28.68-4.12-57.63,7.76-82.09,24.63-26.65,18.43-48.65,43.45-67.86,69h24.29c21.86-30.2,72.17-76,109.17-76.33,11.79-.09,23.78,2.58,32.65,10.33,6.42,5.59,14.2,16.43,13.82,25.23-.23,5.17-5,6.82-9.54,5.17-3.54-1.3-6-4.41-8.52-7.76A35.93,35.93,0,0,0,204.43,175C188,177.21,167.64,189.64,154.51,201A314,314,0,0,0,123,232.58h26.12c9.58-11.25,19.69-20.84,32.68-28.74a74.49,74.49,0,0,1,14.5-6.91c13.42-4.5,26.78-3.36,32.71,12.92,2.34,6.4,2.65,12,2,22.31v.41h17.75v-.52a144.5,144.5,0,0,1,.4-15c.45-4.81,2-9.8,6.63-10.34,9.76-2,9.29,19.15,9.48,25.93Z"/><path id="path34" class="cls-2" d="M303,232.6h18.57c.89-19.62-.84-42.87-7.35-63.18a113.49,113.49,0,0,0-4.43-11.63,99.4,99.4,0,0,0-15.59-24,106.34,106.34,0,0,0-24.86-21.22,96.39,96.39,0,0,0-8.66-4.7h0a88.7,88.7,0,0,0-9.2-3.76h0c-36.11-12.48-72.63-3.6-103.26,12.63-6,3.16-11.71,6.61-17.24,10.22s-10.62,7.41-15.58,11.28h0a211.93,211.93,0,0,0-20.3,18.27c-1.4,1.46-2.81,2.95-4.17,4.46-3.64,4-9.29,9.66-7.59,15.5,1.32,4.63,7.44,3.27,9.58,1.67a62,62,0,0,0,9.94-7c4.18-3.44,8.12-7.14,12.25-10.63a206.87,206.87,0,0,1,51.23-32.3q5.61-2.4,11.21-4.32c3.72-1.29,7.4-2.37,11.07-3.29h0c31.83-8.07,66.55-2.84,88.75,22.5,21.37,24.41,25.27,57.07,25.6,89.53ZM73,205a61.61,61.61,0,0,0,6.13-6.79c3-3.65,3.27-7.19,2.1-9.75a6.9,6.9,0,0,0-1.87-2.42,6.54,6.54,0,0,0-2.66-1.29c-2.41-.54-5.3.3-7.74,3.2-2.78,3.29-6.64,8.89-7.38,13.87a10,10,0,0,0-.09,2.67,6.36,6.36,0,0,0,.7,2.33h0a3.4,3.4,0,0,0,3.08,1.82,4.92,4.92,0,0,0,.94,0,6.35,6.35,0,0,0,1.06-.18h0A13.45,13.45,0,0,0,73,205Z"/><path id="path36" class="cls-2" d="M349.33,232.61h.2a8.31,8.31,0,0,0,7.26-4,9.67,9.67,0,0,0,1-2.18,13.47,13.47,0,0,0,.5-2.88h0v-.22h0c1.47-50.15-14.3-91.68-41.12-119.89a126.51,126.51,0,0,0-35.86-26.55h-.11a138.76,138.76,0,0,0-73-13.5,149.14,149.14,0,0,0-28.84,5.27h0C153.55,76.12,129.58,90.85,110,110.2,106.23,114,102.6,118,99.15,122q-2.57,3-5,6.21a243.63,243.63,0,0,1,43.78-29.65q5.19-2.72,10.44-5.08T159,89.06h0a163.74,163.74,0,0,1,40.37-9.89,153.61,153.61,0,0,1,40.41,1,125.19,125.19,0,0,1,27.66,7.42q2.49,1,4.87,2.14c1.59.76,3.11,1.53,4.63,2.37h0c30,16,50.82,48.8,60,85.86a181,181,0,0,1,5.31,44.51h0v.42c.15,4,1.56,7.38,4,8.89a5.09,5.09,0,0,0,1.45.64h0a5.68,5.68,0,0,0,1.69.21Z"/><path id="path38" class="cls-1" d="M295.71,65.44c74.07,23.87,124.2,91.17,124.52,167.17H384.55c2.37-68.07-28.13-129.52-88.88-167.17Z"/></g><path id="path40" class="cls-2" d="M86.37,287.26H71.94l-3.57,12.25H56.87L72.09,252.6H86.68l15.65,46.91h-12Zm-12.78-7.94H84.65Q80.32,265.58,79,260.47h-.14l-2.29,8.9-3,9.95Zm65.78,7.94H125l-3.58,12.25h-11.5l15.21-46.91h14.6l15.64,46.91H143.38Zm-12.79-7.94h11.08q-4.35-13.74-5.64-18.85h-.14l-2.28,8.9-3,9.95Zm39.72,20V253.23a104.43,104.43,0,0,1,15.3-1q15.41,0,22.1,6.28t6.63,16.41q0,12-7.61,18.54T179.18,300a106.69,106.69,0,0,1-12.88-.7Zm11.08-38.42v30.55a24.08,24.08,0,0,0,4,.21c5.49,0,9.76-1.41,12.77-4.23s4.51-6.86,4.51-12.12c0-4.82-1.32-8.5-4.12-11s-6.71-3.78-11.94-3.78a28.6,28.6,0,0,0-5.31.41Zm44.86-8.28h11.08v18.09h18.93V252.6h11.07v46.91H252.25V280H233.32v19.55H222.24Zm81.23,34.66H289l-3.57,12.25H274L289.2,252.6h14.59l15.65,46.91H307.51l-4-12.25Zm-12.79-7.94h11.07q-4.35-13.74-5.64-18.85H296l-2.28,8.9-3,9.95Zm65.79,7.94H342l-3.57,12.25H327l15.21-46.91h14.6l15.64,46.91H360.48l-4-12.25Zm-12.79-7.94h11.08q-4.36-13.74-5.64-18.85H349l-2.28,8.9-3,9.95Zm39.71,20.19V253.23a89.88,89.88,0,0,1,14.93-1q10.94,0,15.72,3.51a11.72,11.72,0,0,1,4.78,10.05,11.31,11.31,0,0,1-2.4,7.05,13,13,0,0,1-6.24,4.44v.27q4.5,1.65,6.5,8.63,3.68,12.6,4,13.37H409.39A53.25,53.25,0,0,1,406,288.57a12,12,0,0,0-2.65-5.84,7.64,7.64,0,0,0-5.49-1.66h-3.44v18.44Zm10.93-39v12.92h4.57a10.5,10.5,0,0,0,6.54-1.83,5.86,5.86,0,0,0,2.39-4.91,5.73,5.73,0,0,0-2.15-4.8,9.8,9.8,0,0,0-6.14-1.68,24.6,24.6,0,0,0-5.21.35Z"/></g></g></svg>