<?xml version="1.0" encoding="UTF-8"?>
<svg width="100%" height="100%" viewBox="0 0 30 30" version="1.1" xmlns="http://www.w3.org/2000/svg" xmlns:xlink="http://www.w3.org/1999/xlink">
    <title>About us</title>
    <defs>
        <linearGradient x1="74.8631416%" y1="90.7296224%" x2="24.7603568%" y2="8.65633075%" id="linearGradient-1">
            <stop stop-color="#22C8B8" offset="0%"></stop>
            <stop stop-color="#8DA9FF" offset="100%"></stop>
        </linearGradient>
    </defs>
    <g id="Page-1" stroke="none" stroke-width="1" fill="none" fill-rule="evenodd">
        <g id="23:-Account-Page" transform="translate(-19.000000, -629.000000)" fill-rule="nonzero">
            <g id="About-us" transform="translate(19.000000, 629.000000)">
                <circle id="Oval" fill="url(#linearGradient-1)" cx="15" cy="15" r="15"></circle>
                <g id="Group" transform="translate(8.189047, 6.486372)" fill="#FFF8F8">
                    <path d="M13.6219055,5.10815204 C13.6219055,4.88247062 13.532133,4.66579145 13.3724681,4.50625156 L9.11565391,0.249437359 C8.955989,0.0897724431 8.73980995,0 8.51375344,0 L0.851337834,0 C0.38072018,0 -1.66575097e-15,0.381220305 -1.66575097e-15,0.851337834 L-1.66575097e-15,16.175919 C-1.66575097e-15,16.6460365 0.380845211,17.0272568 0.851337834,17.0272568 L12.7704426,17.0272568 C13.2410603,17.0272568 13.6219055,16.6460365 13.6219055,16.175919 L13.6219055,5.10815204 L13.6219055,5.10815204 Z M10.7153038,4.2568142 L8.51375344,4.2568142 L8.51375344,2.05526382 L10.7153038,4.2568142 Z M11.9191048,15.3245811 L1.7028007,15.3245811 L1.7028007,1.70267567 L6.81095274,1.70267567 L6.81095274,5.10815204 C6.81095274,5.57826957 7.19179795,5.95948987 7.66229057,5.95948987 L11.9191048,5.95948987 L11.9191048,15.3245811 Z" id="Shape"></path>
                    <path d="M3.61827957,7.66229057 C3.61827957,8.01475369 3.90422606,8.30082521 4.2568142,8.30082521 L9.36496624,8.30082521 C9.71742936,8.30082521 10.0035009,8.01487872 10.0035009,7.66229057 C10.0035009,7.30970243 9.71755439,7.02375594 9.36496624,7.02375594 L4.2568142,7.02375594 C3.90435109,7.02375594 3.61827957,7.30970243 3.61827957,7.66229057 Z" id="Path"></path>
                    <path d="M9.36509127,9.57789447 L4.2568142,9.57789447 C3.90435109,9.57789447 3.61827957,9.86384096 3.61827957,10.2164291 C3.61827957,10.5690173 3.90422606,10.8549637 4.2568142,10.8549637 L9.36496624,10.8549637 C9.71742936,10.8549637 10.0035009,10.5690173 10.0035009,10.2164291 C10.0035009,9.86384096 9.71755439,9.57789447 9.36509127,9.57789447 Z" id="Path"></path>
                    <path d="M7.66229057,12.131908 L4.2568142,12.131908 C3.90435109,12.131908 3.61827957,12.4178545 3.61827957,12.7704426 C3.61827957,13.1229057 3.90422606,13.4089772 4.2568142,13.4089772 L7.66229057,13.4089772 C8.01475369,13.4089772 8.30082521,13.1230308 8.30082521,12.7704426 C8.30082521,12.4179795 8.01487872,12.131908 7.66229057,12.131908 L7.66229057,12.131908 Z" id="Path"></path>
                </g>
            </g>
        </g>
    </g>
</svg>