<?xml version="1.0" encoding="UTF-8"?>
<svg width="100%" height="100%" viewBox="0 0 30 30" version="1.1" xmlns="http://www.w3.org/2000/svg" xmlns:xlink="http://www.w3.org/1999/xlink">
    <title>atl mobile</title>
    <defs>
        <linearGradient x1="71.138618%" y1="88.8347087%" x2="28.5071268%" y2="10.5109611%" id="linearGradient-1">
            <stop stop-color="#AE3EFF" offset="0.26%"></stop>
            <stop stop-color="#FA7DFF" offset="100%"></stop>
        </linearGradient>
        <linearGradient x1="69.979995%" y1="90.4476119%" x2="29.3323331%" y2="8.15620572%" id="linearGradient-2">
            <stop stop-color="#4A65FF" offset="0.26%"></stop>
            <stop stop-color="#0BB3FF" offset="100%"></stop>
        </linearGradient>
        <circle id="path-3" cx="15" cy="15" r="15"></circle>
    </defs>
    <g id="Page-1" stroke="none" stroke-width="1" fill="none" fill-rule="evenodd">
        <g id="Profile" transform="translate(-31.000000, -344.000000)" fill-rule="nonzero">
            <g id="atl-mobile" transform="translate(31.000000, 344.000000)">
                <g id="Oval">
                    <use fill="url(#linearGradient-1)" xlink:href="#path-3"></use>
                    <use fill="url(#linearGradient-2)" xlink:href="#path-3"></use>
                </g>
                <g id="telephone-(1)" transform="translate(6.000000, 6.000000)" fill="#FFFFFF">
                    <path d="M17.3102514,3.35556227 C16.6195723,2.40518407 15.4100575,1.5473722 13.9044571,0.940224211 C12.4069777,0.336380906 10.6682915,0.00246709004 9.00860131,3.78782311e-05 C7.34877051,-0.00407196764 5.60793976,0.326396539 4.10831587,0.925564065 C2.60011385,1.5281769 1.38768115,2.38226221 0.694505885,3.33039042 C0.0287173134,4.24104209 -0.163165358,5.22256871 0.139564888,6.16886879 C0.335947555,6.78276677 0.908818226,7.19581725 1.56543102,7.19676647 L3.81370671,7.19887584 C3.81444499,7.19887584 3.81518327,7.19887584 3.81595671,7.19887584 C4.26426888,7.19884069 4.6854756,7.00259864 4.97171757,6.66021218 C5.25493611,6.32148196 5.37225243,5.87879479 5.29360796,5.44559979 C5.29132281,5.4329084 5.28851031,5.42025215 5.28531109,5.40770138 L5.1670104,4.94778766 C5.82211148,4.63521367 7.30640726,4.03130005 9.00167554,4.0408977 C10.6957133,4.04958129 12.1789896,4.65314335 12.8348993,4.96585796 L12.7147001,5.42317012 C12.71129,5.43610761 12.7084072,5.44915057 12.7059462,5.46226384 C12.6261065,5.89521274 12.742122,6.33821632 13.0243562,6.67775513 C13.310106,7.021583 13.7316291,7.21909067 14.1811014,7.21975864 L16.4293771,7.22186801 C16.4301154,7.22186801 16.4308888,7.22186801 16.4316271,7.22186801 C17.0869743,7.22186801 17.6600207,6.81068082 17.8579151,6.19808361 C18.1634578,5.25199447 17.9741064,4.2690616 17.3102514,3.35556227 Z M16.8356073,5.86782604 C16.7823456,6.03263842 16.6163027,6.14759927 16.4312404,6.14759927 C16.4310646,6.14759927 16.4308185,6.14759927 16.4306076,6.14759927 L14.1823319,6.1454899 C14.0528163,6.14531412 13.9318438,6.08902901 13.850422,5.99104861 C13.8061603,5.93778693 13.7370783,5.82700967 13.7596837,5.67295509 L13.9833476,4.822069 C14.0446249,4.58887777 13.9430586,4.34348732 13.7348986,4.22177648 C13.6481682,4.1710812 11.5808768,2.97977739 9.00715991,2.9665235 C8.99285132,2.96645318 8.97896462,2.96641803 8.96469119,2.96641803 C6.40753292,2.96641803 4.35497193,4.15251872 4.26838215,4.2032843 C4.06155809,4.32457328 3.96016754,4.56820591 4.01989796,4.80044792 L4.23913218,5.65270511 C4.26152669,5.80707609 4.19202284,5.91785335 4.14755021,5.97107987 C4.06602293,6.06860324 3.94515583,6.12450164 3.8156403,6.12450164 C3.81542936,6.12450164 3.81521843,6.12450164 3.81500749,6.12450164 L1.56669665,6.12239226 C1.38166944,6.12211101 1.21555628,6.00658766 1.16275163,5.84142372 C0.966158028,5.22685777 1.10038449,4.5952762 1.56170446,3.96429229 C2.78714497,2.28818415 5.90901766,1.07420458 8.99028492,1.07420458 C8.99576929,1.07420458 9.00164038,1.07420458 9.00712475,1.07420458 C12.0914506,1.07863426 15.2179991,2.30365289 16.4413302,3.98700321 C16.90149,4.6204129 17.0342048,5.25318978 16.8356073,5.86782604 Z" id="Shape"></path>
                    <path d="M14.0834023,9.51707726 L12.4067668,7.75662934 C12.3053411,7.65017629 12.1648216,7.58995368 12.0178335,7.58995368 L10.9343186,7.58995368 L10.9343186,6.85789563 C10.9343186,6.56124741 10.6938501,6.32077883 10.3972019,6.32077883 C10.1005888,6.32077883 9.86008506,6.56124741 9.86008506,6.85789563 L9.86008506,7.58995368 L8.14017227,7.58995368 L8.14017227,6.85789563 C8.14017227,6.56124741 7.89970369,6.32077883 7.60305547,6.32077883 C7.30640726,6.32077883 7.06593868,6.56124741 7.06593868,6.85789563 L7.06593868,7.58995368 L5.98245901,7.58995368 C5.83547084,7.58995368 5.6948811,7.65021145 5.59352571,7.75662934 L3.91692538,9.51707726 C2.60236385,10.8973809 1.87839173,12.7072937 1.87839173,14.6133938 L1.87839173,16.823068 C1.87839173,17.1197162 2.1188603,17.3601848 2.41550852,17.3601848 L15.5847488,17.3601848 C15.881397,17.3601848 16.1218656,17.1197162 16.1218656,16.823068 L16.1218656,14.6133938 C16.1218656,12.7072585 15.3979638,10.8973809 14.0834023,9.51707726 Z M2.95262531,16.2859512 L2.95262531,14.6133938 C2.95262531,12.9843599 3.5713397,11.4375915 4.69486231,10.2578892 L6.21269713,8.66411695 L11.7876305,8.66411695 L13.3054653,10.2578892 C14.4289176,11.4375212 15.047632,12.9843599 15.047632,14.6133938 L15.047632,16.2859512 L2.95262531,16.2859512 Z" id="Shape"></path>
                    <path d="M9.00016382,9.77470207 C7.4501259,9.77470207 6.1891073,11.0357558 6.1891073,12.5857586 C6.1891073,14.1357965 7.45016106,15.3968503 9.00016382,15.3968503 C10.5501666,15.3968503 11.8112203,14.1357965 11.8112203,12.5857586 C11.8112203,11.0357207 10.5502017,9.77470207 9.00016382,9.77470207 Z M9.00016382,14.3225815 C8.04243796,14.3225815 7.26334088,13.5434493 7.26334088,12.5857234 C7.26334088,11.6280327 8.04247312,10.8489005 9.00016382,10.8489005 C9.95785452,10.8489005 10.7369868,11.6280327 10.7369868,12.5857234 C10.7369868,13.5434493 9.95785452,14.3225815 9.00016382,14.3225815 Z" id="Shape"></path>
                </g>
            </g>
        </g>
    </g>
</svg>