<?xml version="1.0" encoding="UTF-8"?>
<svg width="100%" height="100%" viewBox="0 0 24 23.8755122" version="1.1" xmlns="http://www.w3.org/2000/svg" xmlns:xlink="http://www.w3.org/1999/xlink">
    <title>bank</title>
    <g id="Page-1" stroke="none" stroke-width="1" fill="none" fill-rule="evenodd">
        <g id="6:-KYC-Start" transform="translate(-34.000000, -471.000000)">
            <g id="Group" transform="translate(34.000000, 471.000000)">
                <path d="M4.70014638,16.2701802 L4.70014638,20.527323 L5.77527193,20.527323 C5.93385013,20.527323 6.06477208,20.6244949 6.06477208,20.7436044 L6.06477208,22.1069644 L9.88391465,22.1069644 L9.88391465,20.7436044 C9.88391465,20.6244949 10.0148366,20.527323 10.1752898,20.527323 L11.2504154,20.527323 L11.2504154,16.2701802 L10.1752898,16.2701802 C10.0148366,16.2701802 9.88391465,16.1730083 9.88391465,16.0552582 L9.88391465,14.6904919 L6.06477208,14.6904919 L6.06477208,16.0552582 C6.06477208,16.1729614 5.93385013,16.2701802 5.77527193,16.2701802 L4.70014638,16.2701802 Z" id="Path" fill="#B6B1B7"></path>
                <path d="M12.5964785,16.2701802 L12.5964785,20.527323 L13.7214791,20.527323 C13.8893855,20.527323 14.0263543,20.6244949 14.0263543,20.7436044 L14.0263543,22.1069644 L18.0227782,22.1069644 L18.0227782,20.7436044 C18.0227782,20.6244949 18.1597939,20.527323 18.3276533,20.527323 L19.4526539,20.527323 L19.4526539,16.2701802 L18.3276533,16.2701802 C18.159747,16.2701802 18.0227782,16.1730083 18.0227782,16.0552582 L18.0227782,14.6904919 L14.0263543,14.6904919 L14.0263543,16.0552582 C14.0263543,16.1729614 13.8893386,16.2701802 13.7214791,16.2701802 L12.5964785,16.2701802 Z" id="Path" fill="#B6B1B7"></path>
                <polygon id="Path" fill="#ECEAEC" points="1.62805106 7.04545673 1.62805106 13.2116786 22.3724992 13.2116786 22.3724992 7.04545673 11.999572 1.05675054"></polygon>
                <path d="M0.126456539,7.78055085 C0.387878547,8.23364484 0.971003846,8.38969179 1.42409783,8.12822291 L1.62805106,8.01051972 L11.999572,2.02176666 L22.3724523,8.01051972 L22.5764055,8.12822291 C23.0280933,8.38969179 23.6125779,8.23364484 23.8726874,7.78055085 C24.1341094,7.32881625 23.9781094,6.74433157 23.5250154,6.48286269 L12.5211035,0.130031317 C12.3705409,0.0424218967 12.1857596,1.3739017e-15 11.999572,1.3739017e-15 C11.8147906,1.3739017e-15 11.628603,0.0424218967 11.4780405,0.130031317 L0.474128592,6.48286269 C0.0224408605,6.74433157 -0.13496547,7.32881625 0.126456539,7.78055085 Z" id="Path" fill="#9FD4FE"></path>
                <polygon id="Path" fill="#FFE07D" points="18.4562784 15.5378517 21.6428894 15.5378517 21.6428894 21.2596515 18.4562784 21.2596515"></polygon>
                <polygon id="Path" fill="#FFE07D" points="10.4062899 15.5378517 13.5929009 15.5378517 13.5929009 21.2596515 10.4062899 21.2596515"></polygon>
                <polygon id="Path" fill="#FFE07D" points="2.35625455 15.5378517 5.54422493 15.5378517 5.54422493 21.2596515 2.35625455 21.2596515"></polygon>
                <path d="M1.34333216,22.1069644 L3.67803648,22.9912618 L6.55714733,22.1069644 L6.55714733,20.7436044 C6.55714733,20.6244949 6.4599754,20.527323 6.34222534,20.527323 L5.54422493,20.527323 L2.35625455,20.527323 L1.55825415,20.527323 C1.44055096,20.527323 1.34333216,20.6244949 1.34333216,20.7436044 L1.34333216,22.1069644 Z" id="Path" fill="#ECEAEC"></path>
                <path d="M17.4419966,22.1069644 L20.257545,22.9912618 L22.6571712,22.1069644 L22.6571712,20.7436044 C22.6571712,20.6244949 22.5599993,20.527323 22.4408898,20.527323 L21.6428894,20.527323 L18.4562784,20.527323 L17.658278,20.527323 C17.5392154,20.527323 17.4419966,20.6244949 17.4419966,20.7436044 L17.4419966,22.1069644 Z" id="Path" fill="#ECEAEC"></path>
                <path d="M9.39196128,22.1069644 L12.0002282,22.7385585 L14.6071358,22.1069644 L14.6071358,20.7436044 C14.6071358,20.6244949 14.5099639,20.527323 14.3908545,20.527323 L13.5928541,20.527323 L10.406243,20.527323 L9.60824264,20.527323 C9.4891332,20.527323 9.39196128,20.6244949 9.39196128,20.7436044 L9.39196128,22.1069644 Z" id="Path" fill="#ECEAEC"></path>
                <path d="M0.222269088,23.8755122 L23.7782343,23.8755122 C23.9000624,23.8755122 24,23.7755747 24,23.6537465 L24,22.3286833 C24,22.2068551 23.9000624,22.1069176 23.7782343,22.1069176 L22.6571712,22.1069176 L17.4419966,22.1069176 L14.6071827,22.1069176 L9.39196128,22.1069176 L6.55714733,22.1069176 L1.34333216,22.1069176 L0.222269088,22.1069176 C0.1004409,22.1069176 0.000503349274,22.2068551 0.000503349274,22.3286833 L0.000503349274,23.6537465 C0.000503349274,23.7756215 0.1004409,23.8755122 0.222269088,23.8755122 Z" id="Path" fill="#9FD4FE"></path>
                <path d="M10.8935558,5.32209647 C10.8935558,5.96273742 11.4123217,6.48150332 12.0529626,6.48150332 C12.6921973,6.48150332 13.2123695,5.96269055 13.2123695,5.32209647 C13.2123695,4.68150239 12.6921973,4.16268963 12.0529626,4.16268963 C11.4123686,4.16264275 10.8935558,4.68145552 10.8935558,5.32209647 L10.8935558,5.32209647 Z" id="Path" fill="#FFE07D"></path>
                <polygon id="Path" fill="#DAD8DB" points="11.999572 2.02176666 1.62805106 8.01051972 1.62805106 9.35747354 11.999572 3.36872047 22.3724992 9.35747354 22.3724992 8.01051972"></polygon>
                <path d="M12.0529626,4.16264275 C11.4123686,4.16264275 10.8935558,4.68145552 10.8935558,5.3220496 C10.8935558,5.45484654 10.9154464,5.58075285 10.956509,5.69986229 C11.1276028,5.27414332 11.5451186,4.97437754 12.0310251,4.97437754 C12.5388691,4.97437754 12.971385,5.30151834 13.1274319,5.75597169 C13.182182,5.62181538 13.2123226,5.4753778 13.2123226,5.3220496 C13.2123695,4.68145552 12.6921973,4.16264275 12.0529626,4.16264275 L12.0529626,4.16264275 Z" id="Path" fill="#FFC269"></path>
                <polygon id="Path" fill="#FFC269" points="2.35625455 16.2701802 5.54422493 16.2701802 5.54422493 17.4282277 2.35625455 17.4282277"></polygon>
                <polygon id="Path" fill="#FFC269" points="10.4062899 16.2701802 13.5929009 16.2701802 13.5929009 17.4282277 10.4062899 17.4282277"></polygon>
                <polygon id="Path" fill="#FFC269" points="18.4562784 16.2701802 21.6428894 16.2701802 21.6428894 17.4282277 18.4562784 17.4282277"></polygon>
                <path d="M2.35625455,16.2701802 L5.54422493,16.2701802 L6.34222534,16.2701802 C6.45992853,16.2701802 6.55714733,16.1730083 6.55714733,16.0552582 L6.55714733,14.4007574 L1.34333216,14.4007574 L1.34333216,16.0552582 C1.34333216,16.1729614 1.44050409,16.2701802 1.55825415,16.2701802 L2.35625455,16.2701802 Z" id="Path" fill="#ECEAEC"></path>
                <path d="M10.4062899,16.2701802 L13.5929009,16.2701802 L14.3909013,16.2701802 C14.5100108,16.2701802 14.6071827,16.1730083 14.6071827,16.0552582 L14.6071827,14.4007574 L9.39196128,14.4007574 L9.39196128,16.0552582 C9.39196128,16.1729614 9.4891332,16.2701802 9.60824264,16.2701802 L10.4062899,16.2701802 Z" id="Path" fill="#ECEAEC"></path>
                <path d="M17.658278,16.2701802 L18.4562784,16.2701802 L21.6428894,16.2701802 L22.4408898,16.2701802 C22.5599524,16.2701802 22.6571712,16.1730083 22.6571712,16.0552582 L22.6571712,14.4007574 L17.4419966,14.4007574 L17.4419966,16.0552582 C17.4419966,16.1730083 17.5391686,16.2701802 17.658278,16.2701802 L17.658278,16.2701802 Z" id="Path" fill="#ECEAEC"></path>
                <polygon id="Path" fill="#DAD8DB" points="1.34333216 14.6905388 6.55714733 14.6905388 6.55714733 15.5378517 1.34333216 15.5378517"></polygon>
                <polygon id="Path" fill="#DAD8DB" points="9.39196128 14.6905388 14.6071358 14.6905388 14.6071358 15.5378517 9.39196128 15.5378517"></polygon>
                <polygon id="Path" fill="#DAD8DB" points="17.4419966 14.6905388 22.6571712 14.6905388 22.6571712 15.5378517 17.4419966 15.5378517"></polygon>
                <path d="M1.34333216,14.6905388 L6.55714733,14.6905388 L9.39196128,14.6905388 L14.6071827,14.6905388 L17.4419966,14.6905388 L22.6571712,14.6905388 L23.7782343,14.6905388 C23.9000624,14.6905388 24,14.5906012 24,14.468773 L24,13.1437098 C24,13.0218817 23.9000624,12.9219441 23.7782343,12.9219441 L22.3724523,12.9219441 L1.62805106,12.9219441 L0.222269088,12.9219441 C0.1004409,12.9219441 0.000503349274,13.0218817 0.000503349274,13.1437098 L0.000503349274,14.468773 C0.000503349274,14.5906012 0.1004409,14.6905388 0.222269088,14.6905388 L1.34333216,14.6905388 Z" id="Path" fill="#9FD4FE"></path>
            </g>
        </g>
    </g>
</svg>