<?xml version="1.0" encoding="UTF-8"?>
<svg width="100%" height="100%" viewBox="0 0 249 200" version="1.1" xmlns="http://www.w3.org/2000/svg" xmlns:xlink="http://www.w3.org/1999/xlink">
    <title>Artboard</title>
    <defs>
        <polygon id="path-1" points="0 0 395 0 395 58.2371795 0 58.2371795"></polygon>
    </defs>
    <g id="Artboard" stroke="none" stroke-width="1" fill="none" fill-rule="evenodd">
        <g id="Group-Copy" transform="translate(-113.000000, -0.000000)">
            <path d="M319.979164,9.58273018 C320.216749,10.0573121 320.819174,10.2608862 321.324128,10.0375909 C321.416184,9.99623992 321.498763,9.94407408 321.570513,9.8823657 C321.147462,9.38679017 320.710873,8.90521036 320.258716,8.44017094 C319.90403,8.70863419 319.776099,9.17876296 319.979164,9.58273018" id="Fill-2" fill="#C8972F"></path>
            <path d="M324.865711,15.6768856 C324.667321,15.2552862 324.16428,15.0744392 323.74263,15.2728057 C323.321545,15.4717373 323.140676,15.9747179 323.339067,16.3963173 C323.538022,16.8173516 324.041063,16.9981985 324.462713,16.7998321 C324.883798,16.6009004 325.064667,16.098485 324.865711,15.6768856" id="Fill-3" fill="#C8972F"></path>
            <path d="M327.545966,23.9904309 C327.687353,24.3514766 328.01207,24.5356952 328.32265,24.459506 C328.257612,23.9017331 328.176079,23.3445287 328.080879,22.7884615 C328.013484,22.8004016 327.947033,22.8237132 327.882937,22.8606707 C327.531356,23.0602408 327.380072,23.5657048 327.545966,23.9904309" id="Fill-4" fill="#C8972F"></path>
            <path d="M312.206065,4.70466337 C312.007115,4.28306394 311.504089,4.102217 311.082452,4.30058349 C310.660815,4.49951512 310.480517,5.00193052 310.678901,5.4240951 C310.877285,5.84512938 311.380311,6.02597632 311.801948,5.82760983 C312.223586,5.6286782 312.403884,5.1262628 312.206065,4.70466337" id="Fill-5" fill="#C8972F"></path>
            <path d="M315.581783,11.4566236 C315.383398,11.0349908 314.880373,10.8541296 314.458735,11.053077 C314.037098,11.2514591 313.8568,11.7539142 314.054619,12.175547 C314.253569,12.5977449 314.756029,12.7780409 315.178232,12.5796588 C315.599869,12.3807114 315.780167,11.8782563 315.581783,11.4566236" id="Fill-6" fill="#C8972F"></path>
            <path d="M318.957719,19.0528042 C318.75879,18.6311482 318.25638,18.4502769 317.834785,18.6492353 C317.41319,18.8476284 317.232345,19.3506765 317.431275,19.7717673 C317.629074,20.1934233 318.132049,20.3742945 318.553644,20.1759014 C318.975239,19.9775083 319.156649,19.4744602 318.957719,19.0528042" id="Fill-7" fill="#C8972F"></path>
            <path d="M322.334026,25.8050907 C322.13508,25.3834913 321.632629,25.2026444 321.210434,25.4010108 C320.788804,25.5999425 320.608509,26.102923 320.807455,26.5245224 C321.005271,26.9455567 321.508287,27.1264037 321.929917,26.9280372 C322.351547,26.7296707 322.532407,26.2266901 322.334026,25.8050907" id="Fill-8" fill="#C8972F"></path>
            <path d="M325.709744,33.4009943 C325.511363,32.9794257 325.008347,32.798592 324.586717,32.9975091 C324.165087,33.195861 323.984792,33.6988047 324.183173,34.1203733 C324.381554,34.5419418 324.884571,34.7227755 325.3062,34.5238584 C325.72783,34.3249414 325.90869,33.8225628 325.709744,33.4009943" id="Fill-9" fill="#C8972F"></path>
            <path d="M302.07761,0.484401355 C301.87868,0.0627686141 301.375703,-0.118092615 300.954107,0.080854737 C300.533075,0.279236898 300.35223,0.781692001 300.550595,1.20332474 C300.749525,1.62552267 301.252502,1.80581871 301.674098,1.60743655 C302.09513,1.4084892 302.275975,0.906034096 302.07761,0.484401355" id="Fill-10" fill="#C8972F"></path>
            <path d="M305.453418,7.23656487 C305.255014,6.81490883 304.751938,6.63403761 304.330824,6.83299596 C303.909144,7.03138908 303.728263,7.53443716 303.926667,7.95552798 C304.125636,8.37718401 304.628147,8.55805523 305.049826,8.35966211 C305.470941,8.16126899 305.652387,7.6582209 305.453418,7.23656487" id="Fill-11" fill="#C8972F"></path>
            <path d="M308.829498,14.832645 C308.630557,14.4110531 308.12812,14.2302094 307.707067,14.4291375 C307.285449,14.6275004 307.104029,15.1304719 307.302969,15.5520638 C307.501344,15.9730905 308.004347,16.1544993 308.425965,15.9555712 C308.847018,15.7572083 309.028438,15.2542368 308.829498,14.832645" id="Fill-12" fill="#C8972F"></path>
            <path d="M312.205726,21.5847549 C312.006805,21.1631864 311.503853,20.9823527 311.082842,21.1812698 C310.661266,21.3796217 310.480429,21.8825654 310.678784,22.304134 C310.877705,22.7257025 311.380658,22.9065362 311.802234,22.7076191 C312.22381,22.5087021 312.404082,22.0063235 312.205726,21.5847549" id="Fill-13" fill="#C8972F"></path>
            <path d="M315.581445,29.1808043 C315.383063,28.7591132 314.880043,28.5787922 314.458975,28.7772018 C314.037342,28.9756114 313.856481,29.4787013 314.054863,29.9003923 C314.253811,30.3220834 314.756266,30.5024044 315.177898,30.3039948 C315.600096,30.1055852 315.780392,29.6024953 315.581445,29.1808043" id="Fill-14" fill="#C8972F"></path>
            <path d="M318.957614,35.9328707 C318.758685,35.5112409 318.256275,35.3309461 317.835245,35.5293269 C317.41365,35.7277076 317.23224,36.2307244 317.43117,36.6523542 C317.629534,37.073984 318.132509,37.2548439 318.554104,37.055898 C318.975699,36.8575172 319.156544,36.3545004 318.957614,35.9328707" id="Fill-15" fill="#C8972F"></path>
            <path d="M320.80735,44.2485784 C321.005731,44.6701469 321.508747,44.8509806 321.930377,44.6520636 C322.352007,44.4537116 322.532302,43.9507679 322.333921,43.5291994 C322.134975,43.1076309 321.632523,42.9267972 321.210894,43.1257142 C320.789264,43.3246313 320.608404,43.8270099 320.80735,44.2485784" id="Fill-16" fill="#C8972F"></path>
            <path d="M295.325484,3.01637887 C295.127116,2.59481034 294.624132,2.41397665 294.20253,2.61289371 C293.780928,2.81124566 293.600079,3.31418935 293.798447,3.73575788 C293.99738,4.15732641 294.499799,4.3381601 294.921402,4.13924305 C295.343004,3.94032599 295.523852,3.4379474 295.325484,3.01637887" id="Fill-17" fill="#C8972F"></path>
            <path d="M298.701547,10.6125327 C298.5026,10.1909642 298.000145,10.0101305 297.578512,10.2090476 C297.156314,10.4073995 296.976018,10.9103432 297.174965,11.3319117 C297.372782,11.7534803 297.875802,11.9343139 298.297435,11.7353969 C298.719068,11.5370449 298.899929,11.0341012 298.701547,10.6125327" id="Fill-18" fill="#C8972F"></path>
            <path d="M302.077626,17.3645649 C301.878705,16.9428739 301.375753,16.7625529 300.954177,16.9609625 C300.5326,17.1593721 300.352329,17.662462 300.550684,18.084153 C300.74904,18.5058441 301.251992,18.686165 301.673569,18.4877554 C302.095145,18.2893458 302.275982,17.786256 302.077626,17.3645649" id="Fill-19" fill="#C8972F"></path>
            <path d="M305.453446,24.9606484 C305.255081,24.5390186 304.752106,24.3587239 304.330512,24.5571046 C303.908917,24.7560506 303.728072,25.2585022 303.927001,25.680132 C304.125366,26.1017617 304.627775,26.2826217 305.04937,26.0836757 C305.470965,25.885295 305.652375,25.3822782 305.453446,24.9606484" id="Fill-20" fill="#C8972F"></path>
            <path d="M308.829748,31.7129601 C308.630791,31.2913915 308.128312,31.1105578 307.706094,31.3094749 C307.285006,31.508392 307.104136,32.0107705 307.303093,32.4323391 C307.500919,32.8539076 308.003964,33.0347413 308.425617,32.8358242 C308.84727,32.6374723 309.02814,32.1345286 308.829748,31.7129601" id="Fill-21" fill="#C8972F"></path>
            <path d="M312.205831,39.3093676 C312.006911,38.8877652 311.503958,38.706917 311.082382,38.9052849 C310.660806,39.1036528 310.480534,39.6066368 310.678889,40.0282392 C310.87781,40.4498416 311.380198,40.6306898 311.801774,40.4323219 C312.22335,40.2333889 312.404187,39.7304048 312.205831,39.3093676" id="Fill-22" fill="#C8972F"></path>
            <path d="M314.054968,46.7805291 C314.253916,47.2021852 314.755806,47.3830564 315.177438,47.1840981 C315.599636,46.9857049 315.780498,46.4832221 315.58155,46.061566 C315.383168,45.63991 314.880148,45.4590388 314.458515,45.6574319 C314.036882,45.8563902 313.856586,46.3588731 314.054968,46.7805291" id="Fill-23" fill="#C8972F"></path>
            <path d="M289.417343,6.39234271 C289.218386,5.97065166 288.715342,5.79033069 288.294254,5.98874029 C287.872601,6.18714988 287.691731,6.69023974 287.890688,7.11193079 C288.089079,7.53362184 288.592124,7.71394281 289.013777,7.51553322 C289.434865,7.31712362 289.615735,6.81403376 289.417343,6.39234271" id="Fill-24" fill="#C8972F"></path>
            <path d="M292.792972,13.9886011 C292.594591,13.5670326 292.091575,13.3861989 291.67051,13.5851159 C291.24888,13.784033 291.068021,14.2864116 291.266401,14.7079801 C291.465347,15.1295486 291.967799,15.3103823 292.389994,15.1114653 C292.811623,14.9131133 292.991918,14.4101696 292.792972,13.9886011" id="Fill-25" fill="#C8972F"></path>
            <path d="M296.169153,20.7404964 C295.970788,20.3194086 295.467813,20.1385386 295.046784,20.3369303 C294.625189,20.5353221 294.443779,21.0383666 294.642708,21.4600197 C294.841072,21.8816728 295.344047,22.0625428 295.765642,21.8635858 C296.187237,21.6651941 296.368082,21.1621495 296.169153,20.7404964" id="Fill-26" fill="#C8972F"></path>
            <path d="M299.545459,28.3372071 C299.346514,27.915551 298.844062,27.7346798 298.422432,27.9330729 C298.000802,28.1314661 297.819942,28.6345141 298.018888,29.0561702 C298.217269,29.4778262 298.720286,29.6586974 299.141916,29.4597391 C299.563545,29.261346 299.74384,28.7582979 299.545459,28.3372071" id="Fill-27" fill="#C8972F"></path>
            <path d="M302.921177,35.0894103 C302.722796,34.6672124 302.220345,34.4869163 301.798715,34.6852985 C301.377086,34.8842458 301.196226,35.3867009 301.394606,35.8083337 C301.593552,36.2299664 302.096004,36.4108277 302.518199,36.2118803 C302.939828,36.0134981 303.120123,35.511043 302.921177,35.0894103" id="Fill-28" fill="#C8972F"></path>
            <path d="M306.297358,42.6848793 C306.099559,42.263845 305.596583,42.082998 305.174989,42.2813645 C304.753394,42.4802962 304.571984,42.9827116 304.770913,43.404311 C304.969843,43.8259104 305.472253,44.0067574 305.893847,43.8083909 C306.315442,43.6094592 306.496287,43.1070438 306.297358,42.6848793" id="Fill-29" fill="#C8972F"></path>
            <path d="M308.14707,50.1564444 C308.345424,50.5780467 308.848371,50.7588949 309.269943,50.5605271 C309.691514,50.361594 309.872349,49.85861 309.673431,49.4375727 C309.475077,49.0159704 308.972695,48.8351222 308.551124,49.03349 C308.128987,49.2318579 307.948152,49.734842 308.14707,50.1564444" id="Fill-30" fill="#C8972F"></path>
            <path d="M282.664884,9.76821259 C282.466501,9.34717832 281.963481,9.16633138 281.541848,9.36469786 C281.120216,9.56306435 280.93992,10.0660449 281.138302,10.4876443 C281.336684,10.9092437 281.839139,11.0900907 282.260772,10.8917242 C282.68297,10.6927926 282.863831,10.189812 282.664884,9.76821259" id="Fill-31" fill="#C8972F"></path>
            <path d="M286.041053,16.5209678 C285.842123,16.0993117 285.339713,15.9184405 284.918118,16.1168336 C284.496524,16.3152267 284.315679,16.8182748 284.514608,17.2399309 C284.712407,17.6615869 285.215382,17.8424581 285.636977,17.6434998 C286.058572,17.4451066 286.239982,16.9420586 286.041053,16.5209678" id="Fill-32" fill="#C8972F"></path>
            <path d="M289.41737,24.1171881 C289.218449,23.6949901 288.715496,23.5146941 288.29392,23.7130763 C287.872344,23.9120236 287.692072,24.4144787 287.890428,24.8361115 C288.089348,25.2577442 288.591736,25.4386054 289.013312,25.2396581 C289.434888,25.0412759 289.615725,24.5388208 289.41737,24.1171881" id="Fill-33" fill="#C8972F"></path>
            <path d="M292.793089,30.8684867 C292.594707,30.4473989 292.091686,30.2665289 291.670054,30.4654859 C291.248421,30.6638776 291.068125,31.1663569 291.266507,31.58801 C291.465454,32.0096631 291.967344,32.190533 292.388977,31.9921413 C292.811175,31.7931844 292.992036,31.290705 292.793089,30.8684867" id="Fill-34" fill="#C8972F"></path>
            <path d="M296.169258,38.4653505 C295.970328,38.0437481 295.467918,37.8628999 295.046324,38.0612678 C294.624729,38.2602008 294.443884,38.7626198 294.642813,39.1842221 C294.841178,39.6058245 295.343587,39.7866727 295.765182,39.5883048 C296.186777,39.3893718 296.368187,38.8863877 296.169258,38.4653505" id="Fill-35" fill="#C8972F"></path>
            <path d="M299.545574,45.2175489 C299.346652,44.7958929 298.843696,44.6150217 298.422682,44.8134148 C298.000538,45.0123732 297.820265,45.5154212 298.018622,45.9365121 C298.217544,46.3581681 298.7205,46.5390393 299.141514,46.340081 C299.563093,46.1416878 299.743931,45.639205 299.545574,45.2175489" id="Fill-36" fill="#C8972F"></path>
            <path d="M301.394711,53.5330079 C301.593657,53.9540957 302.096109,54.1349657 302.517739,53.9365739 C302.939369,53.737617 303.120229,53.2351376 302.921283,52.8134846 C302.722902,52.3918315 302.219885,52.2109615 301.798255,52.4099185 C301.376625,52.6083102 301.196331,53.1107895 301.394711,53.5330079" id="Fill-37" fill="#C8972F"></path>
            <path d="M275.91298,12.3003255 C275.714033,11.8792376 275.211578,11.6983677 274.79051,11.8967594 C274.368312,12.0957163 274.187451,12.5981957 274.386398,13.0198488 C274.584781,13.4415019 275.087801,13.6223718 275.509434,13.4234149 C275.931066,13.2250231 276.111362,12.7225438 275.91298,12.3003255" id="Fill-38" fill="#C8972F"></path>
            <path d="M279.289059,19.8968213 C279.090139,19.4751652 278.587751,19.294294 278.166175,19.4932524 C277.744599,19.6916455 277.563762,20.1941284 277.762118,20.6157844 C277.961038,21.0374404 278.463991,21.2183116 278.885567,21.0199185 C279.307143,20.8209602 279.487415,20.3179121 279.289059,19.8968213" id="Fill-39" fill="#C8972F"></path>
            <path d="M282.664867,26.6491112 C282.466474,26.2275088 281.963991,26.0466606 281.542335,26.2450285 C281.120679,26.4439615 280.939808,26.9469456 281.138201,27.3679828 C281.337159,27.7895852 281.839642,27.9704334 282.261298,27.7720655 C282.682954,27.5731325 282.863826,27.0707136 282.664867,26.6491112" id="Fill-40" fill="#C8972F"></path>
            <path d="M286.041185,34.2452617 C285.842238,33.8236622 285.340348,33.6428153 284.918715,33.8411818 C284.496517,34.0401134 284.315656,34.5425288 284.514604,34.9646934 C284.712986,35.3857277 285.216006,35.5665746 285.637639,35.3682081 C286.059272,35.1692765 286.239568,34.6668611 286.041185,34.2452617" id="Fill-41" fill="#C8972F"></path>
            <path d="M289.417265,40.9972185 C289.218909,40.5755887 288.715956,40.3947287 288.29438,40.5936747 C287.872804,40.7920555 287.691967,41.294507 287.890323,41.716702 C288.089243,42.1383318 288.592196,42.3186266 289.013772,42.1202458 C289.435348,41.9212998 289.61562,41.4188483 289.417265,40.9972185" id="Fill-42" fill="#C8972F"></path>
            <path d="M292.792983,48.5934025 C292.595166,48.1717464 292.092146,47.9908752 291.670514,48.1898336 C291.248881,48.3882267 291.06802,48.8912748 291.266402,49.3123656 C291.465349,49.7340216 291.967804,49.9148928 292.389437,49.7164997 C292.811635,49.5181066 292.991931,49.0150585 292.792983,48.5934025" id="Fill-43" fill="#C8972F"></path>
            <path d="M294.642475,56.0651207 C294.840868,56.486155 295.343916,56.667002 295.765572,56.4686355 C296.187228,56.270269 296.368099,55.7672884 296.169141,55.345689 C295.970748,54.9240896 295.468265,54.7432426 295.046609,54.9416091 C294.624953,55.1405408 294.444082,55.6435213 294.642475,56.0651207" id="Fill-44" fill="#C8972F"></path>
            <path d="M272.536779,22.4290223 C272.338415,22.0074229 271.83544,21.826576 271.413845,22.0249425 C270.99225,22.2238741 270.811405,22.7268546 271.010335,23.1484541 C271.208699,23.5694884 271.711109,23.7503353 272.132704,23.5519688 C272.554298,23.3530372 272.735709,22.8506218 272.536779,22.4290223" id="Fill-45" fill="#C8972F"></path>
            <path d="M275.913086,30.0249962 C275.71414,29.6033665 275.211689,29.4225065 274.789494,29.6214525 C274.367864,29.8198332 274.187569,30.3222848 274.386515,30.7444798 C274.584896,31.1661096 275.087913,31.3464043 275.508977,31.1480236 C275.930607,30.9490776 276.111467,30.446626 275.913086,30.0249962" id="Fill-46" fill="#C8972F"></path>
            <path d="M279.289165,36.7773163 C279.090244,36.355714 278.587291,36.1748658 278.165715,36.3732336 C277.744139,36.5721667 277.563867,37.0751507 277.762223,37.4961879 C277.961143,37.9177903 278.464096,38.0986385 278.885107,37.9002706 C279.306683,37.7019028 279.48752,37.1989187 279.289165,36.7773163" id="Fill-47" fill="#C8972F"></path>
            <path d="M282.664984,44.3733136 C282.46662,43.9516605 281.963645,43.7707906 281.54205,43.9697475 C281.120455,44.1681393 280.93961,44.6711838 281.13854,45.0928369 C281.337469,45.5139248 281.839879,45.6947947 282.260909,45.496403 C282.682504,45.2980113 282.863914,44.7949667 282.664984,44.3733136" id="Fill-48" fill="#C8972F"></path>
            <path d="M286.041286,51.1253532 C285.842328,50.7037847 285.339845,50.522951 284.918189,50.7218681 C284.496533,50.92022 284.315662,51.4231637 284.51462,51.8447322 C284.713013,52.2663008 285.216061,52.4471345 285.637152,52.2482174 C286.058808,52.0493003 286.239679,51.5469218 286.041286,51.1253532" id="Fill-49" fill="#C8972F"></path>
            <path d="M270.017975,33.4028865 C269.87756,33.0413189 269.551968,32.8571241 269.241453,32.933872 C269.306948,33.4915729 269.388464,34.0481369 269.484116,34.6047009 C269.550554,34.5927623 269.617463,34.5694537 269.682016,34.532501 C270.033524,34.3323882 270.183834,33.8269894 270.017975,33.4028865" id="Fill-50" fill="#C8972F"></path>
            <path d="M273.380691,40.153131 C273.182327,39.7315625 272.679917,39.5507288 272.258322,39.7496458 C271.836727,39.9479978 271.655317,40.4509415 271.854247,40.87251 C272.052611,41.2940786 272.555586,41.4749122 272.977181,41.2759952 C273.398775,41.0776432 273.57962,40.5746995 273.380691,40.153131" id="Fill-51" fill="#C8972F"></path>
            <path d="M276.741096,47.809805 C276.503585,47.335863 275.902027,47.1322906 275.396556,47.3555841 C275.30453,47.3962986 275.221976,47.4491002 275.149573,47.5101719 C275.57249,48.0057435 276.009618,48.4879557 276.461632,48.9529915 C276.815529,48.6845303 276.944096,48.2144052 276.741096,47.809805" id="Fill-52" fill="#C8972F"></path>
            <path d="M239.797501,152.221712 C240.034991,152.696968 240.636498,152.899922 241.141249,152.675973 C241.233945,152.635891 241.316492,152.583085 241.388889,152.521371 C240.966007,152.026392 240.528917,151.544137 240.076941,151.07906 C239.722397,151.347545 239.594518,151.817712 239.797501,152.221712" id="Fill-53" fill="#C8972F"></path>
            <path d="M244.68411,158.315625 C244.485745,157.893969 243.983336,157.713097 243.561741,157.912056 C243.140146,158.110449 242.958736,158.612932 243.157665,159.034588 C243.35603,159.456244 243.859005,159.637115 244.2806,159.438722 C244.702194,159.240329 244.883039,158.737281 244.68411,158.315625" id="Fill-54" fill="#C8972F"></path>
            <path d="M246.520218,165.784984 C246.661152,166.146673 246.986386,166.33093 247.297009,166.254156 C247.231962,165.696836 247.150418,165.139516 247.054733,164.583333 C246.9878,164.595276 246.92134,164.618592 246.856764,164.655557 C246.505134,164.855169 246.354772,165.361307 246.520218,165.784984" id="Fill-55" fill="#C8972F"></path>
            <path d="M231.179841,147.343372 C230.981489,146.921743 230.478546,146.740883 230.056977,146.939829 C229.635409,147.138209 229.454575,147.641226 229.653492,148.062856 C229.851844,148.484486 230.354788,148.66478 230.776356,148.4664 C231.197925,148.267454 231.378758,147.765002 231.179841,147.343372" id="Fill-56" fill="#C8972F"></path>
            <path d="M234.556143,154.095662 C234.357197,153.674086 233.854746,153.493249 233.433116,153.691605 C233.011486,153.890525 232.830626,154.393478 233.029572,154.815054 C233.227953,155.23663 233.730404,155.416902 234.152599,155.218547 C234.574229,155.020191 234.754524,154.517238 234.556143,154.095662" id="Fill-57" fill="#C8972F"></path>
            <path d="M238.776339,161.691641 C238.577406,161.270004 238.074987,161.089706 237.653385,161.287525 C237.231782,161.486475 237.050934,161.988935 237.249302,162.411138 C237.448235,162.832775 237.950654,163.013073 238.372256,162.814689 C238.793859,162.616304 238.974707,162.113279 238.776339,161.691641" id="Fill-58" fill="#C8972F"></path>
            <path d="M242.152052,168.443558 C241.953671,168.021925 241.450654,167.841629 241.029024,168.040011 C240.607395,168.238393 240.4271,168.740848 240.625481,169.162481 C240.824427,169.584679 241.326878,169.76554 241.748508,169.566593 C242.170138,169.368211 242.350998,168.865191 242.152052,168.443558" id="Fill-59" fill="#C8972F"></path>
            <path d="M245.528216,176.039913 C245.329277,175.618319 244.826843,175.437474 244.405228,175.636403 C243.984178,175.835332 243.802759,176.337742 244.001698,176.758772 C244.200072,177.180367 244.703071,177.361777 245.124687,177.162847 C245.545737,176.964483 245.727155,176.461508 245.528216,176.039913" id="Fill-60" fill="#C8972F"></path>
            <path d="M221.895997,143.123317 C221.697064,142.701661 221.19408,142.52079 220.773043,142.719748 C220.35144,142.918141 220.170592,143.421189 220.36896,143.84228 C220.567328,144.263936 221.070312,144.444807 221.491914,144.246414 C221.913517,144.047456 222.094365,143.544973 221.895997,143.123317" id="Fill-61" fill="#C8972F"></path>
            <path d="M225.27171,149.876007 C225.073329,149.453786 224.570312,149.272915 224.148683,149.471873 C223.727053,149.670266 223.546758,150.173314 223.745139,150.59497 C223.94352,151.016061 224.446536,151.196932 224.868166,150.998539 C225.289796,150.799581 225.470656,150.297098 225.27171,149.876007" id="Fill-62" fill="#C8972F"></path>
            <path d="M228.64779,157.471577 C228.448873,157.049948 227.946494,156.869088 227.524926,157.068034 C227.103357,157.266414 226.922524,157.769431 227.121441,158.191061 C227.319793,158.612691 227.822736,158.792986 228.244305,158.594605 C228.665873,158.395659 228.846707,157.893772 228.64779,157.471577" id="Fill-63" fill="#C8972F"></path>
            <path d="M232.024192,164.223539 C231.825234,163.801848 231.322186,163.621527 230.901095,163.819937 C230.479439,164.018346 230.298568,164.521436 230.497526,164.943127 C230.695919,165.364818 231.198402,165.545139 231.620058,165.34673 C232.041714,165.14832 232.222585,164.64523 232.024192,164.223539" id="Fill-64" fill="#C8972F"></path>
            <path d="M235.399914,171.819561 C235.201532,171.397985 234.699077,171.217713 234.277444,171.416069 C233.855247,171.614424 233.674951,172.117377 233.873333,172.538953 C234.07228,172.960529 234.574735,173.141366 234.996368,172.943011 C235.418001,172.74409 235.598862,172.241137 235.399914,171.819561" id="Fill-65" fill="#C8972F"></path>
            <path d="M238.775995,178.57176 C238.577643,178.15013 238.0747,177.969835 237.653131,178.168216 C237.231562,178.367162 237.050729,178.870178 237.249646,179.291243 C237.447998,179.712873 237.950941,179.893733 238.37251,179.694787 C238.794079,179.496406 238.974912,178.993389 238.775995,178.57176" id="Fill-66" fill="#C8972F"></path>
            <path d="M240.625727,186.887927 C240.824109,187.309012 241.326564,187.48988 241.748197,187.290925 C242.170394,187.092535 242.350691,186.589494 242.152308,186.167843 C241.953926,185.746759 241.450906,185.56589 241.029273,185.76428 C240.60764,185.963236 240.426779,186.465712 240.625727,186.887927" id="Fill-67" fill="#C8972F"></path>
            <path d="M215.14385,145.655123 C214.944892,145.233467 214.442409,145.053161 214.020753,145.251554 C213.599097,145.450512 213.418226,145.952995 213.617184,146.374086 C213.815577,146.795742 214.31806,146.977179 214.739716,146.77822 C215.161372,146.579827 215.342243,146.076779 215.14385,145.655123" id="Fill-68" fill="#C8972F"></path>
            <path d="M218.519573,153.251382 C218.32119,152.830332 217.81817,152.648913 217.397103,152.847852 C216.974905,153.046791 216.794609,153.549225 216.992991,153.97084 C217.191373,154.39189 217.694393,154.573309 218.116026,154.37437 C218.537659,154.175996 218.71852,153.672997 218.519573,153.251382" id="Fill-69" fill="#C8972F"></path>
            <path d="M221.895653,160.004049 C221.697301,159.582454 221.194358,159.401044 220.772789,159.599973 C220.351221,159.798337 220.170387,160.301312 220.369304,160.722907 C220.567656,161.144502 221.0706,161.325347 221.492168,161.126417 C221.913737,160.927488 222.09457,160.425078 221.895653,160.004049" id="Fill-70" fill="#C8972F"></path>
            <path d="M225.272055,167.600202 C225.073097,167.178608 224.570614,166.997197 224.148958,167.196127 C223.727302,167.394491 223.546431,167.897466 223.745389,168.319061 C223.943782,168.740656 224.446265,168.921501 224.867921,168.722571 C225.289577,168.524207 225.470448,168.021797 225.272055,167.600202" id="Fill-71" fill="#C8972F"></path>
            <path d="M228.647773,174.35224 C228.44938,173.930034 227.946897,173.749735 227.525241,173.94812 C227.103585,174.146506 226.922714,174.649536 227.121107,175.071176 C227.320065,175.492816 227.822548,175.673115 228.244204,175.475295 C228.66586,175.276344 228.846732,174.77388 228.647773,174.35224" id="Fill-72" fill="#C8972F"></path>
            <path d="M232.023858,181.947613 C231.825506,181.525984 231.322563,181.345689 230.900994,181.544635 C230.479426,181.743015 230.298592,182.245467 230.497509,182.667097 C230.696426,183.088726 231.198805,183.269586 231.620373,183.071206 C232.041942,182.87226 232.222775,182.369808 232.023858,181.947613" id="Fill-73" fill="#C8972F"></path>
            <path d="M233.87359,189.419268 C234.071972,189.840868 234.574992,190.021715 234.99606,189.823348 C235.418258,189.624417 235.598554,189.121436 235.400172,188.699837 C235.201789,188.278802 234.698769,188.097955 234.277136,188.296322 C233.855504,188.495253 233.674642,188.998234 233.87359,189.419268" id="Fill-74" fill="#C8972F"></path>
            <path d="M208.391713,149.0311 C208.192755,148.609524 207.690272,148.429252 207.268616,148.627607 C206.84696,148.825963 206.666089,149.328915 206.865047,149.750492 C207.06344,150.172068 207.565923,150.352905 207.987579,150.154549 C208.409235,149.955629 208.590107,149.452676 208.391713,149.0311" id="Fill-75" fill="#C8972F"></path>
            <path d="M211.767431,156.627315 C211.569038,156.205685 211.066555,156.025391 210.644899,156.223771 C210.223243,156.422717 210.042372,156.925169 210.240765,157.346799 C210.439724,157.768428 210.942206,157.949288 211.363862,157.750342 C211.785519,157.551962 211.96639,157.048945 211.767431,156.627315" id="Fill-76" fill="#C8972F"></path>
            <path d="M215.143517,163.379942 C214.945165,162.958286 214.442221,162.777415 214.020652,162.975808 C213.599084,163.174766 213.41825,163.677249 213.617167,164.098905 C213.816084,164.520561 214.318463,164.701432 214.740031,164.502474 C215.1616,164.304081 215.342434,163.801033 215.143517,163.379942" id="Fill-77" fill="#C8972F"></path>
            <path d="M218.51983,170.976271 C218.321448,170.554676 217.818427,170.373266 217.396795,170.572195 C216.975162,170.771125 216.794301,171.273535 216.993248,171.695129 C217.19163,172.116724 217.69465,172.297569 218.115718,172.09864 C218.537916,171.900275 218.718212,171.397866 218.51983,170.976271" id="Fill-78" fill="#C8972F"></path>
            <path d="M221.895997,177.728171 C221.697064,177.306569 221.194645,177.12572 220.773043,177.324088 C220.35144,177.522456 220.170592,178.02544 220.36896,178.447043 C220.567893,178.868645 221.070877,179.049493 221.491914,178.851125 C221.913517,178.652757 222.094365,178.149773 221.895997,177.728171" id="Fill-79" fill="#C8972F"></path>
            <path d="M225.271722,185.324101 C225.07337,184.902507 224.570991,184.721662 224.148858,184.920591 C223.727289,185.11839 223.546455,185.621365 223.745372,186.04296 C223.944289,186.464555 224.446668,186.645965 224.868237,186.447035 C225.289805,186.248106 225.470639,185.745696 225.271722,185.324101" id="Fill-80" fill="#C8972F"></path>
            <path d="M227.121219,192.795298 C227.319629,193.216931 227.822718,193.397792 228.244409,193.19941 C228.6661,193.000463 228.846421,192.498008 228.648012,192.076375 C228.449602,191.654177 227.946512,191.473881 227.524821,191.672829 C227.10313,191.871211 226.922809,192.374231 227.121219,192.795298" id="Fill-81" fill="#C8972F"></path>
            <path d="M202.483505,152.407015 C202.284558,151.985385 201.782102,151.805091 201.36047,152.004036 C200.938837,152.201852 200.757976,152.704869 200.956923,153.126498 C201.155305,153.548128 201.65776,153.728988 202.079393,153.530607 C202.501591,153.331661 202.681887,152.82921 202.483505,152.407015" id="Fill-82" fill="#C8972F"></path>
            <path d="M205.859672,159.159305 C205.660739,158.737729 205.15832,158.557457 204.736718,158.755812 C204.315116,158.954733 204.134267,159.457686 204.332635,159.878697 C204.531568,160.300273 205.033987,160.48111 205.45559,160.282754 C205.877192,160.083834 206.05804,159.580881 205.859672,159.159305" id="Fill-83" fill="#C8972F"></path>
            <path d="M209.235397,166.755389 C209.037045,166.334357 208.534101,166.153512 208.112533,166.351877 C207.690964,166.550807 207.51013,167.053784 207.709048,167.475381 C207.907965,167.896412 208.410343,168.077258 208.831912,167.878892 C209.25348,167.679962 209.434314,167.176985 209.235397,166.755389" id="Fill-84" fill="#C8972F"></path>
            <path d="M212.611699,173.508117 C212.413318,173.086487 211.910301,172.905627 211.488671,173.104008 C211.067042,173.302954 210.886182,173.805405 211.085128,174.2276 C211.283508,174.64923 211.786525,174.829525 212.208155,174.630579 C212.629785,174.432198 212.81008,173.929182 212.611699,173.508117" id="Fill-85" fill="#C8972F"></path>
            <path d="M215.987877,181.104274 C215.78951,180.682642 215.286526,180.50178 214.864923,180.700162 C214.443321,180.89911 214.262473,181.401565 214.46084,181.823198 C214.659773,182.245395 215.162758,182.425691 215.583795,182.226744 C216.005397,182.028927 216.186245,181.525907 215.987877,181.104274" id="Fill-86" fill="#C8972F"></path>
            <path d="M219.363586,187.856223 C219.165194,187.434567 218.662715,187.253696 218.240496,187.452654 C217.819409,187.651047 217.638539,188.15353 217.83693,188.575186 C218.035887,188.996842 218.538367,189.177713 218.96002,188.97932 C219.381673,188.780927 219.562543,188.277879 219.363586,187.856223" id="Fill-87" fill="#C8972F"></path>
            <path d="M221.212999,196.171165 C221.41139,196.59276 221.914435,196.77417 222.336088,196.575241 C222.757741,196.376876 222.938611,195.873901 222.739654,195.452306 C222.541262,195.030712 222.038218,194.849867 221.616565,195.048796 C221.195477,195.247726 221.014607,195.74957 221.212999,196.171165" id="Fill-88" fill="#C8972F"></path>
            <path d="M195.731357,154.939709 C195.532411,154.518107 195.029959,154.337259 194.60833,154.535627 C194.1867,154.733995 194.00584,155.236979 194.204786,155.658581 C194.403167,156.080183 194.905618,156.261032 195.327813,156.062664 C195.749443,155.863731 195.929738,155.361312 195.731357,154.939709" id="Fill-89" fill="#C8972F"></path>
            <path d="M199.107536,162.53571 C198.908603,162.114054 198.406184,161.933183 197.984581,162.132141 C197.562979,162.330534 197.382131,162.833017 197.580499,163.254673 C197.779432,163.676329 198.282416,163.857201 198.703453,163.658807 C199.125055,163.459849 199.305903,162.957366 199.107536,162.53571" id="Fill-90" fill="#C8972F"></path>
            <path d="M202.483248,169.287847 C202.284868,168.866191 201.782416,168.68532 201.360221,168.884278 C200.938591,169.082671 200.758297,169.585719 200.956677,170.00681 C201.155623,170.428466 201.658075,170.609337 202.079705,170.410944 C202.501334,170.211986 202.682194,169.709503 202.483248,169.287847" id="Fill-91" fill="#C8972F"></path>
            <path d="M205.859329,176.883971 C205.660977,176.462341 205.158033,176.281481 204.736464,176.480427 C204.314896,176.678808 204.134062,177.181824 204.332979,177.603454 C204.531331,178.025084 205.034275,178.205379 205.455843,178.006998 C205.877412,177.808052 206.058246,177.305035 205.859329,176.883971" id="Fill-92" fill="#C8972F"></path>
            <path d="M209.23573,183.636261 C209.037337,183.214684 208.534289,183.033847 208.112633,183.232203 C207.690977,183.431124 207.510106,183.934076 207.709064,184.355652 C207.907457,184.777229 208.410506,184.9575 208.831596,184.759145 C209.253252,184.560789 209.434124,184.057837 209.23573,183.636261" id="Fill-93" fill="#C8972F"></path>
            <path d="M212.611448,191.23224 C212.413055,190.810602 211.910573,190.630304 211.488916,190.828123 C211.06726,191.027073 210.886389,191.530099 211.084782,191.951736 C211.283741,192.373373 211.786224,192.553671 212.20788,192.355287 C212.629536,192.156903 212.810407,191.653877 212.611448,191.23224" id="Fill-94" fill="#C8972F"></path>
            <path d="M214.460852,198.703636 C214.659218,199.125266 215.162199,199.306126 215.583798,199.10718 C216.005398,198.908799 216.186245,198.405782 215.987878,197.984153 C215.788946,197.562523 215.285966,197.382228 214.864366,197.580609 C214.443332,197.77899 214.262485,198.281441 214.460852,198.703636" id="Fill-95" fill="#C8972F"></path>
            <path d="M192.355399,165.067691 C192.157031,164.646096 191.654047,164.465251 191.232445,164.664181 C190.810842,164.862545 190.629994,165.364955 190.828362,165.78655 C191.027295,166.208145 191.530279,166.389555 191.951316,166.190625 C192.372919,165.992261 192.553767,165.489286 192.355399,165.067691" id="Fill-96" fill="#C8972F"></path>
            <path d="M195.731111,172.663845 C195.532729,172.24225 195.030274,172.061405 194.608641,172.260335 C194.186443,172.458699 194.006147,172.961674 194.204529,173.382704 C194.403477,173.804298 194.905932,173.985709 195.327564,173.786779 C195.749197,173.58785 195.930058,173.08544 195.731111,172.663845" id="Fill-97" fill="#C8972F"></path>
            <path d="M199.107176,179.415912 C198.908784,178.994862 198.405739,178.813443 197.984086,179.012382 C197.562998,179.210756 197.382128,179.713755 197.58052,180.13537 C197.778912,180.55642 198.281956,180.737839 198.703609,180.5389 C199.125263,180.339961 199.306133,179.837527 199.107176,179.415912" id="Fill-98" fill="#C8972F"></path>
            <path d="M202.483571,187.012732 C202.28515,186.590535 201.782033,186.409673 201.360318,186.608621 C200.938604,186.807003 200.758273,187.310023 200.956693,187.731656 C201.155114,188.153289 201.658232,188.333585 202.079946,188.135202 C202.501095,187.936255 202.681991,187.4338 202.483571,187.012732" id="Fill-99" fill="#C8972F"></path>
            <path d="M205.859661,193.764138 C205.660729,193.342447 205.158314,193.162126 204.736715,193.360535 C204.315115,193.558945 204.134268,194.062035 204.332635,194.483726 C204.531566,194.905417 205.033982,195.085738 205.456146,194.887328 C205.877181,194.688918 206.058028,194.186394 205.859661,193.764138" id="Fill-100" fill="#C8972F"></path>
            <path d="M188.992415,176.041939 C188.851514,175.68025 188.526359,175.495993 188.215812,175.572767 C188.281314,176.130656 188.362839,176.687976 188.458029,177.24359 C188.524945,177.232216 188.591861,177.208899 188.65595,177.171934 C189.007494,176.972323 189.158291,176.466185 188.992415,176.041939" id="Fill-101" fill="#C8972F"></path>
            <path d="M192.355399,182.79198 C192.156468,182.37093 191.653487,182.189511 191.231888,182.38845 C190.810854,182.587389 190.630007,183.089824 190.828373,183.511439 C191.027305,183.932489 191.52972,184.113908 191.95132,183.914968 C192.372919,183.716595 192.553766,183.213595 192.355399,182.79198" id="Fill-102" fill="#C8972F"></path>
            <path d="M196.559472,189.605491 C196.321961,189.130986 195.719727,188.92681 195.214933,189.150704 C195.122906,189.191413 195.040352,189.244206 194.967949,189.305268 C195.390866,189.800763 195.827994,190.282264 196.280008,190.747863 C196.633905,190.479444 196.762472,190.009392 196.559472,189.605491" id="Fill-103" fill="#C8972F"></path>
            <polyline id="Fill-104" fill="#212A34" points="347.033227 129.134615 134.900534 129.134615 120.694444 54.8611111 361.239316 54.8611111 347.033227 129.134615"></polyline>
            <g id="Bonus-Days" transform="translate(148.547009, 73.429487)" fill="#FFFFFF" fill-rule="nonzero">
                <path d="M8.29561913,0.476173255 L0.905843469,0.476173255 C0.143027916,0.476173255 0,0.952346509 0,1.61898907 C0,10.2853423 0,18.8088436 0,27.4751968 C0,29.0465685 0,30.7607923 0,32.332164 C0,32.8083373 0.23837986,33.3321278 0.810491525,33.3321278 C1.66865902,33.3321278 2.33612263,33.3321278 3.33731804,33.3321278 C4.95830109,33.3321278 6.62696011,33.2845105 8.24794316,33.2845105 C13.587652,33.2845105 18.2122213,29.2370378 18.2122213,23.6658108 C18.2122213,18.6659916 14.1120877,16.2851253 13.0155404,15.5232481 C13.7306799,14.9042229 16.1144785,12.6662086 16.1144785,8.61873591 C16.1144785,4.47602859 12.7771605,0.476173255 8.29561913,0.476173255 Z M7.72350747,13.1423818 C5.48273678,13.1423818 5.53041276,10.9519849 5.53041276,9.28537847 C5.53041276,7.4759201 5.57808873,5.52360975 7.86653539,5.52360975 C9.58287038,5.52360975 10.4887138,7.23783347 10.4887138,9.33299579 C10.4887138,10.9996022 9.48751844,13.1423818 7.72350747,13.1423818 Z M5.53041276,19.0469302 C5.53041276,18.3802876 5.76879262,18.3326703 6.34090428,18.3326703 C8.53399899,18.3326703 12.5387806,19.9992767 12.5387806,23.4277241 C12.5387806,26.0942944 10.3456859,28.1418394 7.72350747,28.1418394 C7.24674775,28.1418394 6.67463609,27.9989874 6.29322831,27.7609008 C5.76879262,27.4751968 5.72111664,27.0942582 5.67344067,26.5704676 C5.57808873,24.6181573 5.53041276,20.9992405 5.53041276,19.0469302 Z" id="Shape"></path>
                <path d="M31.2277617,33.7606838 C38.2838055,33.7606838 41.7641515,25.1895652 41.7641515,16.7136812 C41.7641515,8.33303196 38.3791575,0 31.6091695,0 C24.5054496,0 20.8820758,8.61873591 20.8820758,17.1898545 C20.8820758,25.5228865 24.3147457,33.7606838 31.2277617,33.7606838 Z M31.5138175,5.71407906 C34.4220518,5.71407906 36.0430349,11.2853061 36.0430349,16.8089159 C36.0430349,22.2849083 34.4697278,27.7132834 31.2277617,27.7132834 C28.0811475,27.7132834 26.5555164,22.7134643 26.6031924,16.8565332 C26.6031924,11.7614794 28.4625553,5.71407906 31.5138175,5.71407906 Z" id="Shape"></path>
                <path d="M60.3577806,33.3323543 C60.8822163,33.3323543 61.2159481,32.9035719 61.2159481,32.332164 C61.2159481,29.3798898 61.2159481,26.3799983 61.2159481,23.4277241 L61.2159481,1.09519849 C61.2159481,0.619025231 61.0252442,0.476173255 60.5484845,0.476173255 C59.594965,0.476173255 57.5448982,0.476173255 56.5913788,0.476173255 C55.7808873,0.476173255 55.4471555,0.857111859 55.4471555,1.47613709 L55.9239152,18.5707569 L50.1074466,1.38090244 C49.7737148,0.666642557 49.5830109,0.476173255 48.6294915,0.476173255 C47.675972,0.476173255 46.102665,0.476173255 45.1491455,0.476173255 C44.7677377,0.476173255 44.7200618,0.809494533 44.7200618,1.09519849 L44.7200618,32.4273986 C44.7200618,33.1892759 44.7677377,33.3323543 45.5782293,33.3323543 C45.8166091,33.3323543 49.392307,33.3323543 49.6306869,33.3323543 C50.2027986,33.3323543 50.4411784,33.3797452 50.4411784,32.0940774 L50.4411784,18.6183743 C51.7284297,21.7135004 55.3518035,30.8084096 56.0192671,32.5226333 C56.1622951,32.9511892 56.257647,33.3323543 56.7344067,33.3323543 C58.1646859,33.3323543 59.1182053,33.3323543 60.3577806,33.3323543 Z" id="Path"></path>
                <path d="M75.089656,25.6657384 C75.089656,27.3323448 73.6117008,28.4751606 72.4198015,28.4751606 C71.0371983,28.4751606 69.892975,27.6180488 69.892975,25.4752691 C69.892975,18.285053 69.892975,9.42823044 69.892975,1.38090244 C69.892975,0.761877208 69.7499471,0.476173255 69.0824835,0.476173255 C67.6522043,0.476173255 66.555657,0.476173255 65.1253778,0.476173255 C64.2195343,0.476173255 64.1718584,0.857111859 64.1718584,1.80945837 L64.1718584,25.8085904 C64.1718584,31.2369655 68.17664,33.7606838 72.0383937,33.7606838 C76.9490189,33.7606838 80.7630966,30.0941497 80.7630966,25.7609731 C80.7630966,17.7136451 80.8107726,9.66631707 80.8107726,1.61898907 C80.8107726,0.999963835 80.6200687,0.476173255 79.8572532,0.476173255 C78.5700019,0.476173255 77.5211305,0.476173255 76.2338793,0.476173255 C75.3757118,0.476173255 75.089656,0.809494533 75.089656,1.61898907 C75.089656,9.57108242 75.089656,17.7136451 75.089656,25.6657384 Z" id="Path"></path>
                <path d="M84.3387945,8.14256266 C84.3387945,12.9519125 87.6761126,16.237508 91.2518105,18.6659916 C93.8739889,20.4278326 96.0670837,21.8563524 96.0670837,24.9990959 C96.0670837,25.5228865 95.7333519,28.0466047 92.7774416,28.0466047 C89.5831515,28.0466047 87.4854087,23.6181934 86.960973,23.6181934 C86.2458334,23.6181934 83.480627,26.9037889 83.480627,27.6180488 C83.480627,28.094222 83.6713309,28.2846913 84.1480906,28.8560992 C86.2458334,31.5226695 89.2970956,33.7606838 92.6820896,33.7606838 C99.6904575,33.7606838 101.883552,28.3323087 101.883552,24.284836 C101.883552,19.6183381 98.2125024,16.6184466 94.9705363,14.3804323 C92.3006819,12.5709739 89.8692073,10.9996022 89.8692073,8.61873591 C89.8692073,7.14259882 90.9657546,5.76169638 92.5390617,5.76169638 C94.2077207,5.76169638 96.2101116,7.14259882 96.8775752,7.6663894 C97.163631,7.90447603 97.3543349,7.99971068 97.5927148,7.71400673 C98.3555303,6.80927754 99.8811614,4.33317662 99.8811614,3.80938604 C99.8811614,3.57129941 99.7381335,3.33321278 99.5951056,3.19036081 C97.4973628,1.33328511 95.39962,0 92.109978,0 C87.6284366,0 84.3387945,3.42844743 84.3387945,8.14256266 Z" id="Path"></path>
                <path d="M118.808522,0.476173255 C117.759651,0.476173255 114.613037,0.476173255 113.421137,0.476173255 C112.992054,0.476173255 112.658322,0.809494533 112.658322,1.28566779 C112.658322,11.5710101 112.658322,21.8087351 112.658322,32.0940774 C112.658322,32.9035719 112.896702,33.3321278 113.373462,33.3321278 L122.241192,33.3321278 C127.580901,33.3321278 130.298432,28.8084819 130.298432,22.380143 C130.298432,16.0470387 129.440264,0.476173255 118.808522,0.476173255 Z M124.624991,20.8087712 C124.624991,24.3324533 124.243583,27.6656661 121.096969,27.6656661 C120.524857,27.6656661 120.14345,27.6656661 119.380634,27.6656661 C118.856198,27.6656661 118.474791,27.3323448 118.427115,26.6180849 L118.427115,5.80931371 C123.719147,6.19025231 124.624991,17.0946198 124.624991,20.8087712 Z" id="Shape"></path>
                <path d="M150.703748,32.4273986 C150.703748,31.5226695 150.08396,28.5703953 149.893256,27.4275795 C148.558329,18.9993129 147.414106,10.5234289 145.840798,2.14277965 C145.650095,1.04758116 145.268687,0.476173255 144.124463,0.476173255 C143.170944,0.476173255 142.408128,0.476173255 141.597637,0.476173255 C140.930173,0.476173255 140.26271,0.428555929 139.452218,0.428555929 C138.403347,0.428555929 137.831235,0.761877208 137.497503,1.80945837 C137.259123,2.52371825 137.163772,3.23797813 137.020744,3.95223801 C135.256733,13.4280858 133.349694,22.8086989 131.585683,32.2845467 C131.585683,32.3797813 131.538007,32.5226333 131.538007,32.6654853 C131.538007,33.2368932 131.967091,33.3321278 132.491526,33.3321278 L136.210252,33.3321278 C136.782364,33.3321278 136.925392,33.2368932 137.06842,32.6654853 C137.402151,31.3322002 137.688207,29.9036804 137.974263,28.522778 C138.117291,27.7609008 138.355671,27.2847275 139.166162,27.0466409 C139.833626,26.8085542 140.596442,26.7133196 141.311581,26.7133196 C142.026721,26.7133196 142.884888,26.8085542 143.600028,27.0466409 C144.219815,27.2371102 144.362843,27.5704314 144.505871,28.1418394 C144.648899,28.9513339 144.982631,31.1417309 145.125659,31.9988427 C145.268687,33.0464239 145.602419,33.3321278 146.41291,33.3321278 C146.698966,33.3321278 149.273468,33.3321278 149.797904,33.3321278 C150.32234,33.3321278 150.703748,33.3321278 150.703748,32.4273986 Z M139.881302,21.9039697 C139.452218,21.951587 139.261514,21.7611177 139.30919,21.3325618 C140.02433,16.9517679 141.073201,12.6185913 141.597637,8.19017998 C142.169749,12.5709739 142.789536,16.9041505 143.504676,21.1897098 C143.600028,21.7135004 143.313972,21.951587 142.837212,21.8563524 C142.408128,21.8087351 141.931369,21.7611177 141.454609,21.7611177 C140.930173,21.7611177 140.405738,21.8087351 139.881302,21.9039697 Z" id="Shape"></path>
                <path d="M153.51663,0.476173255 C152.134027,0.476173255 150.608396,0.476173255 149.225792,0.476173255 C148.939737,0.476173255 148.653681,0.809494533 148.749033,1.14281581 L153.898038,15.0946922 C154.374797,16.6184466 154.565501,17.8564971 154.565501,18.4755223 C154.565501,23.1896375 154.565501,27.7132834 154.565501,32.6178679 C154.565501,33.2845105 154.899233,33.3321278 155.328317,33.3321278 C155.852753,33.3321278 159.333099,33.3321278 159.619154,33.3321278 C160.191266,33.3321278 160.286618,33.1416585 160.286618,32.6178679 C160.286618,28.5703953 160.286618,22.4753776 160.286618,18.427905 C160.286618,17.3803238 160.286618,16.6184466 160.906406,14.8089882 L166.341466,1.09519849 C166.436818,0.809494533 166.389142,0.476173255 166.007735,0.476173255 C165.292595,0.476173255 162.050629,0.476173255 161.764573,0.476173255 C161.09711,0.476173255 160.763378,0.809494533 160.62035,1.14281581 C159.333099,4.19032464 158.427255,7.38068545 157.42606,10.3329596 L154.422473,1.28566779 C154.279446,0.857111859 154.041066,0.476173255 153.51663,0.476173255 Z" id="Path"></path>
                <path d="M167.294986,8.14256266 C167.294986,12.9519125 170.632304,16.237508 174.208002,18.6659916 C176.83018,20.4278326 179.023275,21.8563524 179.023275,24.9990959 C179.023275,25.5228865 178.689543,28.0466047 175.733633,28.0466047 C172.539343,28.0466047 170.4416,23.6181934 169.917164,23.6181934 C169.202025,23.6181934 166.436818,26.9037889 166.436818,27.6180488 C166.436818,28.094222 166.627522,28.2846913 167.104282,28.8560992 C169.202025,31.5226695 172.253287,33.7606838 175.638281,33.7606838 C182.646649,33.7606838 184.839744,28.3323087 184.839744,24.284836 C184.839744,19.6183381 181.168694,16.6184466 177.926728,14.3804323 C175.256873,12.5709739 172.825399,10.9996022 172.825399,8.61873591 C172.825399,7.14259882 173.921946,5.76169638 175.495253,5.76169638 C177.163912,5.76169638 179.166303,7.14259882 179.833767,7.6663894 C180.119822,7.90447603 180.310526,7.99971068 180.548906,7.71400673 C181.311722,6.80927754 182.837353,4.33317662 182.837353,3.80938604 C182.837353,3.57129941 182.694325,3.33321278 182.551297,3.19036081 C180.453554,1.33328511 178.355811,0 175.066169,0 C170.584628,0 167.294986,3.42844743 167.294986,8.14256266 Z" id="Path"></path>
            </g>
            <polyline id="Fill-105" fill="#FFFFFE" points="343.045466 125.557025 343.045466 125.355503 138.209279 125.355503 124.562949 57.7962064 356.526794 57.7962064 342.847721 125.517234 343.045466 125.557025 343.045466 125.355503 343.045466 125.557025 343.242569 125.596816 357.019231 57.3931624 124.070513 57.3931624 137.879918 125.758547 343.209826 125.758547 343.242569 125.596816 343.045466 125.557025"></polyline>
            <polyline id="Fill-109" fill="#12081F" points="313.130342 62.457265 170.491453 62.457265 171.278847 58.2371795 312.342948 58.2371795 313.130342 62.457265"></polyline>
            <path d="M312.286325,54.017094 L172.179487,54.017094 L176.630649,30.3846154 L274.551708,30.3846154 C274.567132,30.4502789 274.589625,30.5153048 274.619831,30.5790558 C274.78307,30.9233109 275.128186,31.1254015 275.488084,31.1254015 C275.624973,31.1254015 275.763791,31.096076 275.896182,31.0342376 C276.173817,30.9041857 276.35955,30.6600195 276.423175,30.3846154 L291.416765,30.3846154 C291.001597,30.6338816 290.835144,31.1591895 291.046584,31.6041711 C291.210466,31.9490638 291.555582,32.1505168 291.91548,32.1505168 C292.052369,32.1505168 292.191187,32.1211914 292.322935,32.0599905 C292.803013,31.8355871 293.008669,31.2688411 292.782447,30.7926215 C292.6989,30.6173064 292.568437,30.4783293 292.412267,30.3846154 L307.835163,30.3846154 L308.013184,31.330042 C307.986192,31.3396047 307.959199,31.3504423 307.932207,31.3631925 C307.453415,31.5875959 307.247759,32.1543419 307.47398,32.629924 C307.637219,32.9741791 307.981693,33.1762697 308.342233,33.1762697 C308.348017,33.1762697 308.354444,33.1762697 308.360871,33.1762697 L312.286325,54.017094 M302.060735,51.6117705 C301.923203,51.6117705 301.784385,51.641096 301.651994,51.7029344 C301.172559,51.9267002 300.967546,52.4934462 301.193125,52.9696658 C301.357007,53.313921 301.702123,53.5160115 302.062021,53.5160115 C302.19891,53.5160115 302.337728,53.4866861 302.470119,53.4248477 C302.949554,53.2004443 303.155209,52.6336983 302.928988,52.1581162 C302.765749,51.813861 302.420633,51.6117705 302.060735,51.6117705 M285.633339,50.5860177 C285.49645,50.5860177 285.356989,50.6153431 285.225241,50.6771815 C284.745806,50.9009474 284.54015,51.4683309 284.766372,51.943913 C284.929611,52.2881681 285.274727,52.4902587 285.634625,52.4902587 C285.771514,52.4902587 285.910974,52.4609332 286.042723,52.3990948 C286.522158,52.1746914 286.727813,51.6079455 286.502235,51.1323634 C286.338353,50.7881082 285.993237,50.5860177 285.633339,50.5860177 M308.583236,48.5638374 C308.446346,48.5638374 308.306886,48.5931629 308.175138,48.6543638 C307.69506,48.8781296 307.489404,49.4455131 307.715626,49.9210952 C307.878865,50.2659879 308.223981,50.4680784 308.584521,50.4680784 C308.721411,50.4680784 308.860228,50.438753 308.992619,50.3769145 C309.472054,50.1525112 309.67771,49.5851277 309.451489,49.1101831 C309.28825,48.7652904 308.943133,48.5638374 308.583236,48.5638374 M292.15584,47.5380846 C292.01895,47.5380846 291.880133,47.56741 291.747742,47.6292484 C291.268307,47.8530143 291.062651,48.4203978 291.28823,48.8953424 C291.452112,49.240235 291.797228,49.4423256 292.157125,49.4423256 C292.294015,49.4423256 292.433475,49.4130001 292.565223,49.3511617 C293.045301,49.1273958 293.250314,48.5600124 293.024093,48.0844302 C292.860854,47.7401751 292.51638,47.5380846 292.15584,47.5380846 M275.728444,46.5123317 C275.591554,46.5123317 275.452737,46.5416572 275.320346,46.6034956 C275.232942,46.6442962 275.154536,46.6972095 275.08577,46.7584104 C275.487441,47.2550303 275.902609,47.7382626 276.331915,48.204282 C276.668034,47.935253 276.790142,47.4641335 276.59734,47.0586774 C276.4341,46.7144222 276.088984,46.5123317 275.728444,46.5123317 M298.678341,44.4901515 C298.541451,44.4901515 298.401991,44.5194769 298.270243,44.5806778 C297.790165,44.8050812 297.585152,45.3724647 297.81073,45.8474093 C297.974612,46.1916644 298.319728,46.3937549 298.679626,46.3937549 C298.816516,46.3937549 298.955333,46.3644295 299.087724,46.3025911 C299.567159,46.0788252 299.772815,45.5120792 299.547236,45.0364971 C299.383354,44.692242 299.038238,44.4901515 298.678341,44.4901515 M282.250945,43.4643986 C282.114055,43.4643986 281.975238,43.493724 281.842847,43.5555625 C281.363412,43.7793283 281.157756,44.3467118 281.383977,44.8222939 C281.547859,45.1665491 281.892975,45.3686396 282.252873,45.3686396 C282.389762,45.3686396 282.52858,45.3393142 282.660328,45.2774757 C283.139763,45.0537099 283.346062,44.4863264 283.11984,44.0107443 C282.956601,43.6664891 282.611485,43.4643986 282.250945,43.4643986 M305.200841,41.4422183 C305.063952,41.4422183 304.924492,41.4709063 304.792743,41.5327447 C304.313308,41.7571481 304.10701,42.323894 304.333231,42.7994762 C304.497113,43.1443688 304.842229,43.3458218 305.202127,43.3458218 C305.339016,43.3458218 305.478477,43.3164964 305.610225,43.2552955 C306.08966,43.0308921 306.295316,42.4641461 306.069094,41.9879265 C305.905855,41.6436714 305.560739,41.4422183 305.200841,41.4422183 M288.774088,40.4164655 C288.637199,40.4164655 288.497738,40.4457909 288.365347,40.5076294 C287.885912,40.7313952 287.680257,41.2981412 287.905835,41.7743608 C288.069717,42.118616 288.414833,42.3207065 288.774731,42.3207065 C288.91162,42.3207065 289.051081,42.2913811 289.183472,42.2295426 C289.662907,42.0051393 289.86792,41.4383933 289.642341,40.9628112 C289.479102,40.618556 289.133986,40.4164655 288.774088,40.4164655 M272.346692,39.3907127 C272.209803,39.3907127 272.070342,39.4200381 271.938594,39.4818765 C271.459159,39.7056424 271.252861,40.2730259 271.479082,40.748608 C271.642964,41.0928631 271.987437,41.2949536 272.347978,41.2949536 C272.484867,41.2949536 272.624328,41.2656282 272.756076,41.2037898 C273.235511,40.9800239 273.441166,40.4126404 273.214945,39.9370583 C273.051706,39.5928032 272.70659,39.3907127 272.346692,39.3907127 M295.295946,37.3685324 C295.159057,37.3685324 295.019596,37.3978578 294.887848,37.4590587 C294.408413,37.6834621 294.202757,38.2502081 294.428979,38.7257902 C294.592218,39.0706829 294.937334,39.2721359 295.297232,39.2721359 C295.434121,39.2721359 295.572939,39.2434479 295.70533,39.1816095 C296.184765,38.9572062 296.391063,38.3898227 296.164842,37.9148781 C296.00096,37.5699854 295.655844,37.3685324 295.295946,37.3685324 M278.869193,36.3427795 C278.731661,36.3427795 278.592843,36.372105 278.460452,36.4333059 C277.981017,36.6577093 277.776004,37.2250927 278.001583,37.7000374 C278.165465,38.04493 278.510581,38.2470205 278.870478,38.2470205 C279.007368,38.2470205 279.146186,38.2176951 279.278576,38.1558567 C279.758011,37.9320908 279.963667,37.3647073 279.738089,36.8891252 C279.574207,36.5442326 279.229091,36.3427795 278.869193,36.3427795 M301.818447,34.3199618 C301.681557,34.3199618 301.54274,34.3492872 301.410349,34.4111256 C300.930914,34.635529 300.725258,35.202275 300.950837,35.6778571 C301.114719,36.0221122 301.459835,36.2242028 301.819732,36.2242028 C301.956622,36.2242028 302.096082,36.1948773 302.228473,36.1330389 C302.707908,35.9092731 302.912921,35.3425271 302.6867,34.866945 C302.523461,34.5220523 302.178345,34.3199618 301.818447,34.3199618 M285.391051,33.2948464 C285.254161,33.2948464 285.115344,33.3241719 284.983596,33.3853728 C284.503518,33.6097761 284.297862,34.1765221 284.524084,34.6527418 C284.687323,34.9969969 285.033082,35.1984499 285.392979,35.1990874 C285.529869,35.1990874 285.668686,35.169762 285.801077,35.1079236 C286.280512,34.8835202 286.485525,34.3167742 286.259947,33.8411921 C286.096065,33.496937 285.751591,33.2948464 285.391051,33.2948464 M268.96494,32.2703686 C268.901316,32.2703686 268.837048,32.2761062 268.773424,32.2894939 C268.862755,32.9148907 268.973938,33.5390126 269.104401,34.1631344 C269.195018,34.1497467 269.286278,34.1236088 269.374324,34.0821707 C269.853759,33.8577674 270.058772,33.2910214 269.832551,32.8154393 C269.669954,32.4711841 269.324838,32.2703686 268.96494,32.2703686" id="Fill-110" fill="#6B4E23"></path>
            <path d="M308.050169,32.9166667 C307.73929,32.9166667 307.442264,32.7318922 307.301509,32.4171345 C307.106448,31.9823024 307.283776,31.4641179 307.69662,31.2589425 C307.719894,31.2472848 307.743169,31.2373757 307.766443,31.2286325 L308.066239,32.9166667 C308.060698,32.9166667 308.055156,32.9166667 308.050169,32.9166667" id="Fill-111" fill="#52371C"></path>
            <path d="M302.15874,36.292735 C301.842235,36.292735 301.538729,36.1135898 301.394606,35.8084212 C301.196226,35.3868365 301.377086,34.8844387 301.798715,34.685514 C301.915144,34.6306967 302.037224,34.6047009 302.157609,34.6047009 C302.474114,34.6047009 302.77762,34.7838461 302.921177,35.0895798 C303.120123,35.5111645 302.939828,36.0135623 302.518199,36.2119219 C302.40177,36.2667392 302.279124,36.292735 302.15874,36.292735" id="Fill-112" fill="#52371C"></path>
            <path d="M305.534983,43.8888889 C305.218504,43.8888889 304.915024,43.710249 304.770913,43.4044129 C304.571984,42.982687 304.753394,42.4801209 305.174989,42.2811296 C305.290842,42.2262939 305.413478,42.2008547 305.533853,42.2008547 C305.850332,42.2008547 306.153812,42.3794946 306.297358,42.6847654 C306.496287,43.1070566 306.315442,43.6096227 305.893847,43.808614 C305.777994,43.8628843 305.655358,43.8888889 305.534983,43.8888889" id="Fill-113" fill="#52371C"></path>
            <path d="M308.911098,50.6410256 C308.594072,50.6410256 308.290608,50.4618804 308.14707,50.1561467 C307.948152,49.734562 308.128987,49.231599 308.551124,49.0332395 C308.666971,48.9789873 308.7896,48.9529915 308.909968,48.9529915 C309.226429,48.9529915 309.529893,49.1315716 309.673431,49.4373052 C309.872349,49.8583248 309.691514,50.3612878 309.269943,50.5602125 C309.15353,50.6150298 309.031466,50.6410256 308.911098,50.6410256" id="Fill-114" fill="#52371C"></path>
            <path d="M292.030699,32.0726496 C291.714212,32.0726496 291.410724,31.8800796 291.266609,31.550395 C291.080673,31.1250347 291.227048,30.6228902 291.592139,30.3846154 L292.467564,30.3846154 C292.604897,30.474197 292.719624,30.6070459 292.793094,30.7746305 C292.992029,31.2298513 292.811179,31.7716067 292.389008,31.986115 C292.273151,32.0446172 292.151077,32.0726496 292.030699,32.0726496" id="Fill-115" fill="#52371C"></path>
            <path d="M295.406318,39.6688034 C295.089839,39.6688034 294.786359,39.4901635 294.642813,39.1843274 C294.443884,38.7626015 294.624729,38.2600354 295.046324,38.0610441 C295.162177,38.0067738 295.284813,37.9807692 295.405188,37.9807692 C295.721666,37.9807692 296.025147,38.1594092 296.169258,38.4652452 C296.368187,38.8864058 296.186777,39.3895372 295.765182,39.5885285 C295.648763,39.6433642 295.526693,39.6688034 295.406318,39.6688034" id="Fill-116" fill="#52371C"></path>
            <path d="M298.782663,46.4209402 C298.466196,46.4209402 298.162727,46.2417349 298.018622,45.9364642 C297.820265,45.5153036 298.000538,45.0121722 298.422682,44.8131809 C298.538531,44.7589105 298.661162,44.732906 298.781533,44.732906 C299.098,44.732906 299.401469,44.9121112 299.545574,45.217382 C299.743931,45.6391079 299.563093,46.141674 299.141514,46.3401 C299.025099,46.3949356 298.903033,46.4209402 298.782663,46.4209402" id="Fill-117" fill="#52371C"></path>
            <path d="M302.158845,54.017094 C301.84234,54.017094 301.538834,53.8379488 301.394711,53.5327802 C301.196331,53.1106304 301.376625,52.6082325 301.798255,52.409873 C301.914684,52.3550557 302.036764,52.3290598 302.157714,52.3290598 C302.474219,52.3290598 302.777725,52.5082051 302.921283,52.8133736 C303.120229,53.2349583 302.939369,53.7373562 302.517739,53.9362809 C302.40131,53.9910982 302.27923,54.017094 302.158845,54.017094" id="Fill-118" fill="#52371C"></path>
            <path d="M285.278742,35.4487179 C284.962235,35.4481528 284.658162,35.2695727 284.514604,34.9644042 C284.315656,34.5422543 284.496517,34.0398565 284.918715,33.8409318 C285.03458,33.7866796 285.156661,33.7606838 285.277047,33.7606838 C285.594119,33.7606838 285.897062,33.939829 286.041185,34.2449976 C286.239568,34.6665823 286.059272,35.1689801 285.637639,35.3679048 C285.521209,35.4227221 285.399128,35.4487179 285.278742,35.4487179" id="Fill-119" fill="#52371C"></path>
            <path d="M288.654359,42.2008547 C288.337894,42.2008547 288.034427,42.0217095 287.890323,41.7165409 C287.691967,41.2943911 287.872804,40.7919932 288.29438,40.5936337 C288.410794,40.5388164 288.533424,40.5128205 288.653794,40.5128205 C288.970258,40.5128205 289.273725,40.6919658 289.417265,40.9971343 C289.61562,41.418719 289.435348,41.9211169 289.013772,42.1200415 C288.897358,42.1748589 288.774728,42.2008547 288.654359,42.2008547" id="Fill-120" fill="#52371C"></path>
            <path d="M292.03054,49.7970085 C291.714033,49.7970085 291.410526,49.6178633 291.266402,49.3121296 C291.06802,48.8911101 291.248881,48.3881471 291.670514,48.1897875 C291.786943,48.1349702 291.909024,48.1089744 292.02941,48.1089744 C292.346482,48.1089744 292.649425,48.2881196 292.792983,48.5932882 C292.991931,49.0148729 292.811635,49.5178358 292.389437,49.7161954 C292.273573,49.7710127 292.150926,49.7970085 292.03054,49.7970085" id="Fill-121" fill="#52371C"></path>
            <path d="M275.150152,31.2286325 C274.82553,31.2286325 274.514241,30.99838 274.367002,30.6061517 C274.339757,30.5335169 274.319468,30.4594293 274.305556,30.3846154 L275.99359,30.3846154 C275.936201,30.698398 275.768673,30.9765895 275.51825,31.1247646 C275.398836,31.1952204 275.273625,31.2286325 275.150152,31.2286325" id="Fill-122" fill="#52371C"></path>
            <path d="M278.526259,37.9807692 C278.209794,37.9807692 277.906327,37.801624 277.762223,37.4958903 C277.563867,37.0748707 277.744139,36.5719078 278.165715,36.3729831 C278.282129,36.3187309 278.404194,36.292735 278.525128,36.292735 C278.841593,36.292735 279.14506,36.4713152 279.289165,36.7770488 C279.48752,37.1986335 279.306683,37.7015965 278.885107,37.8999561 C278.768693,37.9547734 278.646628,37.9807692 278.526259,37.9807692" id="Fill-123" fill="#52371C"></path>
            <path d="M281.90261,45.5769231 C281.586131,45.5769231 281.282651,45.3977778 281.13854,45.0926093 C280.93961,44.6710246 281.120455,44.1680616 281.54205,43.969702 C281.658469,43.9148847 281.780539,43.8888889 281.900914,43.8888889 C282.217958,43.8888889 282.521439,44.0680341 282.664984,44.3732027 C282.863914,44.7947874 282.682504,45.2977504 282.260909,45.4961099 C282.145055,45.5509272 282.022985,45.5769231 281.90261,45.5769231" id="Fill-124" fill="#52371C"></path>
            <path d="M285.278236,52.3290598 C284.961711,52.3290598 284.658186,52.1499146 284.51462,51.844746 C284.315662,51.4231613 284.496533,50.9201984 284.918189,50.7218388 C285.034059,50.6670215 285.156713,50.6410256 285.277105,50.6410256 C285.59363,50.6410256 285.897154,50.8201709 286.041286,51.1253394 C286.239679,51.5469241 286.058808,52.049322 285.637152,52.2482467 C285.521281,52.303064 285.398628,52.3290598 285.278236,52.3290598" id="Fill-125" fill="#52371C"></path>
            <path d="M269.484116,34.6047009 C269.388464,34.0480874 269.306948,33.4914739 269.241453,32.9337233 C269.288101,32.9217836 269.33522,32.9166667 269.381868,32.9166667 C269.645734,32.9166667 269.898764,33.0957609 270.017975,33.4027796 C270.183834,33.8269202 270.033524,34.3323639 269.682016,34.5324946 C269.617463,34.5694506 269.550554,34.5927612 269.484116,34.6047009" id="Fill-126" fill="#52371C"></path>
            <path d="M272.618316,41.3568376 C272.301273,41.3568376 271.998357,41.1776924 271.854247,40.8725238 C271.655317,40.4509391 271.836727,39.9479761 272.258322,39.7496166 C272.374176,39.6947993 272.496811,39.6688034 272.617186,39.6688034 C272.933665,39.6688034 273.237145,39.8479487 273.380691,40.1531172 C273.57962,40.5747019 273.398775,41.0776649 272.977181,41.2760245 C272.861327,41.3308418 272.738691,41.3568376 272.618316,41.3568376" id="Fill-127" fill="#52371C"></path>
            <path d="M276.461632,48.9529915 C276.009618,48.4880506 275.57249,48.0059369 275.149573,47.5104664 C275.221976,47.4494071 275.30453,47.3966163 275.396556,47.3559101 C275.53595,47.2942148 275.68211,47.2649573 275.826241,47.2649573 C276.205851,47.2649573 276.569222,47.46658 276.741096,47.8100384 C276.944096,48.214556 276.815529,48.6845851 276.461632,48.9529915" id="Fill-128" fill="#52371C"></path>
            <polyline id="Fill-129" fill="#12081F" points="312.286325 57.3931624 171.33547 57.3931624 171.899874 54.017094 311.721921 54.017094 312.286325 57.3931624"></polyline>
            <polyline id="Fill-130" fill="#74627C" points="313.130342 58.0801923 171.33547 58.0801923 171.410879 57.5501496 313.054933 57.5501496 313.130342 58.0801923"></polyline>
            <polygon id="Fill-131" fill="#212A34" points="170.491453 59.9252137 176.358464 28.6965812 307.26269 28.6965812 313.130342 59.9252137"></polygon>
            <g id="presents" transform="translate(257.425214, 49.797009)" fill="#FFFFFF" fill-rule="nonzero">
                <path d="M3.22826815,2.27219876 C3.22826815,1.33552108 2.45685467,0.688911327 1.55579188,0.688911327 C1.06312445,0.688911327 0.674176481,0.858117618 0.570457022,1.08171165 L0.570457022,0.761428309 L0,0.761428309 L0,5.06410256 L0.589904421,5.06410256 L0.589904421,3.45059972 C0.693623879,3.67419375 1.07608938,3.84944312 1.56875681,3.84944312 C2.45037221,3.84944312 3.22826815,3.20283336 3.22826815,2.27219876 Z M2.63836373,2.2601126 C2.63836373,2.87046386 2.20403849,3.26326418 1.54930941,3.26326418 C1.10201925,3.26326418 0.700106345,3.05175632 0.589904421,2.76168839 L0.589904421,1.77666605 C0.700106345,1.48659813 1.10201925,1.27509026 1.54930941,1.27509026 C2.20403849,1.27509026 2.63836373,1.6618475 2.63836373,2.2601126 Z" id="Shape"></path>
                <path d="M5.9184916,0.9306346 C5.83421954,0.785600636 5.62029816,0.688911327 5.38044691,0.688911327 C4.97853401,0.688911327 4.74516523,0.894376109 4.64144577,1.15422863 L4.64144577,0.761428309 L4.07098875,0.761428309 L4.07098875,3.77692614 L4.66089317,3.77692614 L4.66089317,1.8612692 C4.72571783,1.57724435 4.95908661,1.27509026 5.38692938,1.27509026 C5.5749209,1.27509026 5.72401762,1.33552108 5.82773708,1.42012423 L5.9184916,0.9306346 Z" id="Path"></path>
                <path d="M7.98639831,3.26326418 C7.36408156,3.26326418 6.93623879,3.00341166 6.8778966,2.47162046 L9.35419867,2.47162046 C9.3671636,2.39910348 9.37364607,2.33867266 9.37364607,2.26615568 C9.37364607,1.41408115 8.79670658,0.688911327 7.86323145,0.688911327 C6.88437906,0.688911327 6.27502724,1.42616731 6.27502724,2.27219876 C6.27502724,3.23909185 6.98809852,3.84944312 7.95398598,3.84944312 C8.5633378,3.84944312 9.0041455,3.55937519 9.14027729,3.29347959 L8.9846981,2.86442078 C8.80318905,3.0577994 8.40127614,3.26326418 7.98639831,3.26326418 Z M6.91679139,1.91565694 C6.96865112,1.54702895 7.39001142,1.27509026 7.86323145,1.27509026 C8.33645148,1.27509026 8.71243452,1.55307203 8.74484685,1.91565694 L6.91679139,1.91565694 Z" id="Shape"></path>
                <path d="M11.0720522,2.51996512 C11.3443158,2.65291292 11.5323073,2.78586072 11.5323073,2.95506701 C11.5323073,3.18470412 11.2924561,3.26326418 11.0526048,3.26326418 C10.6312445,3.26326418 10.3395335,3.11218714 10.0996823,2.85233462 L9.95706802,3.30556575 C10.1061647,3.61376293 10.5145601,3.84944312 10.9942626,3.84944312 C11.681404,3.84944312 12.1222117,3.46872896 12.1222117,2.94902393 C12.1222117,2.5260082 11.8629131,2.29637109 11.3637632,2.04860474 L11.0007451,1.86731228 C10.7868237,1.75853681 10.637727,1.68601983 10.637727,1.51681354 C10.637727,1.33552108 10.8257185,1.27509026 11.0396399,1.27509026 C11.3378333,1.27509026 11.6360268,1.40803806 11.8693955,1.61350285 L11.9666325,1.12401322 C11.8499481,0.924591518 11.4674826,0.688911327 11.0396399,0.688911327 C10.4043582,0.688911327 10.0478225,1.03336699 10.0478225,1.51077045 C10.0478225,1.8612692 10.2876738,2.13320788 10.7284815,2.35075883 L11.0720522,2.51996512 Z" id="Path"></path>
                <path d="M14.4558995,3.26326418 C13.8335828,3.26326418 13.40574,3.00341166 13.3473978,2.47162046 L15.8236999,2.47162046 C15.8366648,2.39910348 15.8431473,2.33867266 15.8431473,2.26615568 C15.8431473,1.41408115 15.2662078,0.688911327 14.3327327,0.688911327 C13.3538803,0.688911327 12.7445285,1.42616731 12.7445285,2.27219876 C12.7445285,3.23909185 13.4575997,3.84944312 14.4234872,3.84944312 C15.032839,3.84944312 15.4736467,3.55937519 15.6097785,3.29347959 L15.4541993,2.86442078 C15.2726903,3.0577994 14.8707774,3.26326418 14.4558995,3.26326418 Z M13.3862926,1.91565694 C13.4381523,1.54702895 13.8595126,1.27509026 14.3327327,1.27509026 C14.8059527,1.27509026 15.1819357,1.55307203 15.2143481,1.91565694 L13.3862926,1.91565694 Z" id="Shape"></path>
                <path d="M18.1379403,0.688911327 C17.6647203,0.688911327 17.3470794,0.8641607 17.2563249,1.09379781 L17.2563249,0.761428309 L16.6858679,0.761428309 L16.6858679,3.77692614 L17.2757723,3.77692614 L17.2757723,1.83709687 C17.3470794,1.51077045 17.7295449,1.27509026 18.1379403,1.27509026 C18.5981954,1.27509026 18.9612135,1.56515819 18.9612135,2.08486323 L18.9612135,3.77692614 L19.5511179,3.77692614 L19.5511179,2.07277706 C19.5511179,1.10588397 18.8250817,0.688911327 18.1379403,0.688911327 Z" id="Path"></path>
                <path d="M22.4487803,3.03362707 C22.3320959,3.16053179 22.1635518,3.26326418 21.9237006,3.26326418 C21.5801298,3.26326418 21.4051033,3.11218714 21.4051033,2.73147298 L21.4051033,1.34760725 L22.5395348,1.34760725 L22.5395348,0.761428309 L21.4051033,0.761428309 L21.4051033,0 L21.2235942,0 L20.2317769,1.17840095 L20.2317769,1.34760725 L20.8151988,1.34760725 L20.8151988,2.82816229 C20.8151988,3.51707362 21.1393221,3.84944312 21.7875688,3.84944312 C22.1765167,3.84944312 22.4552628,3.68023683 22.5719472,3.46872896 L22.4487803,3.03362707 Z" id="Path"></path>
                <path d="M24.2703533,2.51996512 C24.5426169,2.65291292 24.7306084,2.78586072 24.7306084,2.95506701 C24.7306084,3.18470412 24.4907572,3.26326418 24.2509059,3.26326418 C23.8295456,3.26326418 23.5378346,3.11218714 23.2979834,2.85233462 L23.1553691,3.30556575 C23.3044658,3.61376293 23.7128612,3.84944312 24.1925637,3.84944312 C24.8797051,3.84944312 25.3205128,3.46872896 25.3205128,2.94902393 C25.3205128,2.5260082 25.0612142,2.29637109 24.5620643,2.04860474 L24.1990462,1.86731228 C23.9851248,1.75853681 23.8360281,1.68601983 23.8360281,1.51681354 C23.8360281,1.33552108 24.0240196,1.27509026 24.237941,1.27509026 C24.5361344,1.27509026 24.8343279,1.40803806 25.0676966,1.61350285 L25.1649336,1.12401322 C25.0482492,0.924591518 24.6657837,0.688911327 24.237941,0.688911327 C23.6026593,0.688911327 23.2461236,1.03336699 23.2461236,1.51077045 C23.2461236,1.8612692 23.4859749,2.13320788 23.9267826,2.35075883 L24.2703533,2.51996512 Z" id="Path"></path>
            </g>
            <g id="Unipe-Logo" transform="translate(204.252137, 28.749289)" fill-rule="nonzero">
                <g id="Group-2">
                    <path d="M3.88687935,6.48671132 L10.1058863,6.48671132 C12.2525505,6.48671132 13.9927657,8.26768856 13.9927657,10.4646353 L13.9927657,17.2271062 C13.9927657,19.4240529 12.2525505,21.2050302 10.1058863,21.2050302 L1.16606381,21.2050302 C0.522064549,21.2050302 0,20.670737 0,20.011653 L0,10.4646353 C0,8.26768856 1.74021516,6.48671132 3.88687935,6.48671132 Z" id="Rectangle-Copy-5" fill="#FFFFFF"></path>
                    <g id="Group-9-Copy" transform="translate(12.338114, 8.238770) scale(-1, 1) rotate(-135.000000) translate(-12.338114, -8.238770) translate(7.697437, 1.228067)">
                        <path d="M9.07403611,7.52251742 L2.9322208,13.8091427 C2.65572899,14.0921521 2.20747041,14.0921521 1.93093838,13.8091839 L0.207358806,12.0451907 C-0.0690927892,11.7622637 -0.069133006,11.3035052 0.207318589,11.0205782 L4.12493322,7.01016995 L1.34505438,4.1651764 L0.207399023,3.00087306 C-0.0690927892,2.71790482 -0.0690927892,2.25914642 0.207399023,1.97617817 L1.9309786,0.212226182 C2.20747041,-0.0707420606 2.65572899,-0.0707420606 2.9322208,0.212226182 L6.79469796,4.1651764 L9.07399588,6.4978637 C9.35044749,6.78079076 9.35048772,7.23954918 9.07403611,7.52251742 Z" id="Path" fill="#02DB81"></path>
                        <path d="M6.57382526,3.94135267 L3.84900348,6.72999955 L2.80750407,5.66410451 L1.07025072,3.88389469 L0.20743924,3.00087306 C-0.0690525721,2.71790482 -0.0690525721,2.25914642 0.20743924,1.97617817 L1.93089816,0.212349659 C2.20743019,-0.0706597426 2.65580942,-0.0706185834 2.93226102,0.212473136 L5.53232587,2.87541645 L6.57382526,3.94135267 Z" id="Path" fill="#2CB77C"></path>
                        <polygon id="Path" fill="#04AA83" points="6.84866914 4.22263437 4.12384735 7.01128127 3.4630822 6.33392733 6.18786377 3.54528044"></polygon>
                    </g>
                    <g id="rupee-indian-copy-2" transform="translate(4.664255, 10.862428)" fill="#12151F">
                        <path d="M4.61744659,1.69568695 C4.58631964,1.66379367 4.54647862,1.64787497 4.49805087,1.64787497 L3.60990545,1.64787497 C3.55099896,1.353835 3.44018999,1.09859572 3.27746036,0.88243641 L4.48760853,0.88243641 C4.53616362,0.88243641 4.5758955,0.866499084 4.60713159,0.834680282 C4.63813116,0.802805631 4.65370371,0.762012776 4.65370371,0.712413429 L4.65370371,0.170097457 C4.65370371,0.120460874 4.63814935,0.079742492 4.60713159,0.0478306006 C4.57585912,0.0159931825 4.53612724,0 4.48757215,0 L0.166186162,0 C0.117685636,0 0.077899195,0.0159931825 0.0467176864,0.0478119823 C0.0156271388,0.0797238737 0,0.120442256 0,0.170078838 L0,0.877055703 C0,0.923117557 0.0164457899,0.962979494 0.0493373696,0.99664151 C0.0822289493,1.03030353 0.121178547,1.04713454 0.166186162,1.04713454 L0.919326928,1.04713454 C1.64990931,1.04713454 2.11392072,1.24730067 2.3112702,1.64778187 L0.166186162,1.64778187 C0.117685636,1.64778187 0.0778446181,1.66370058 0.0467176864,1.69559386 C0.0156271388,1.72752437 0,1.76822413 0,1.81786071 L0,2.36010221 C0,2.40970155 0.0155543698,2.45047579 0.0467176864,2.48229459 C0.077899195,2.5142251 0.117758405,2.53010658 0.166186162,2.53010658 L2.38409376,2.53010658 C2.30790464,2.82077661 2.13042109,3.04222354 1.85164312,3.19461493 C1.57284696,3.34702493 1.20501795,3.42322993 0.747919595,3.42322993 L0.166186162,3.42322993 C0.121178547,3.42322993 0.0822289493,3.44007956 0.0493373696,3.47372296 C0.0164275976,3.5074036 0,3.54728415 0,3.59330877 L0,4.26846681 C0,4.31460317 0.0155543698,4.35357144 0.0467176864,4.38542745 C0.71151691,5.10834162 1.57375657,6.12000818 2.63332752,7.42068773 C2.66452723,7.46324933 2.70778838,7.48447426 2.76320196,7.48447426 L3.77600065,7.48447426 C3.84878782,7.48447426 3.89903479,7.4526741 3.92665064,7.38875722 C3.96127049,7.32497069 3.95448478,7.26472161 3.90585689,7.20801005 C2.89487744,5.93929825 2.100131,4.98957505 1.5218541,4.35880316 C2.11051878,4.28794166 2.58837448,4.09298865 2.95543942,3.77411179 C3.32244978,3.45519768 3.54575959,3.04049204 3.62545982,2.53019967 L4.49805087,2.53019967 C4.54647862,2.53019967 4.58633783,2.51429957 4.61744659,2.48238769 C4.6486463,2.45056888 4.66425523,2.40979465 4.66425523,2.3601953 L4.66425523,1.81800966 C4.66425523,1.76831722 4.6486463,1.72759884 4.61744659,1.69568695 Z" id="Path"></path>
                    </g>
                </g>
                <g id="unipe" transform="translate(19.208195, 3.984391)">
                    <path d="M3.53705901,15.1623921 C4.92374692,15.1623921 5.80801169,14.4768584 6.37072559,13.4687206 L6.4511133,14.5776722 C6.47121022,14.839788 6.59179178,14.920439 6.77266412,14.920439 L9.40536146,14.920439 C9.5862338,14.920439 9.74700921,14.7792997 9.74700921,14.5978349 L9.74700921,5.36329295 C9.74700921,5.18182815 9.5862338,5.04068886 9.40536146,5.04068886 L6.69227642,5.04068886 C6.51140408,5.04068886 6.37072559,5.18182815 6.37072559,5.36329295 L6.37072559,10.222517 C6.37072559,11.4524451 5.80801169,12.0573277 4.86345614,12.0573277 C3.87870676,12.0573277 3.37628361,11.4524451 3.37628361,10.222517 L3.37628361,5.36329295 C3.37628361,5.18182815 3.23560512,5.04068886 3.05473278,5.04068886 L0.321550819,5.04068886 C0.140678483,5.04068886 0,5.18182815 0,5.36329295 L0,11.0693527 C0,13.6300227 1.50726947,15.1623921 3.53705901,15.1623921 Z" id="Path" fill="#FFFFFF"></path>
                    <path d="M12.1385434,14.920439 L14.8717254,14.920439 C15.0525977,14.920439 15.1932762,14.7792997 15.1932762,14.5978349 L15.1932762,9.73861087 C15.1932762,8.5086828 15.7358932,7.90380013 16.7005457,7.90380013 C17.6852951,7.90380013 18.1877182,8.5086828 18.1877182,9.73861087 L18.1877182,14.5978349 C18.1877182,14.7792997 18.3283967,14.920439 18.5092691,14.920439 L21.2223541,14.920439 C21.4032264,14.920439 21.5640018,14.7792997 21.5640018,14.5978349 L21.5640018,8.89177516 C21.5640018,6.33110522 20.0366354,4.79873579 18.0068459,4.79873579 C16.620158,4.79873579 15.7559902,5.48426948 15.1932762,6.49240723 L15.0927916,5.3834557 C15.0927916,5.12133988 14.9521131,5.04068886 14.7913377,5.04068886 L12.1385434,5.04068886 C11.9576711,5.04068886 11.8169926,5.18182815 11.8169926,5.36329295 L11.8169926,14.5978349 C11.8169926,14.7792997 11.9576711,14.920439 12.1385434,14.920439 Z" id="Path" fill="#FFFFFF"></path>
                    <path d="M25.3623209,3.64945873 C26.4073611,3.64945873 27.1911412,2.84294852 27.1911412,1.81464799 C27.1911412,0.806510218 26.4073611,0 25.3623209,0 C24.2971838,0 23.5335006,0.806510218 23.5335006,1.81464799 C23.5335006,2.84294852 24.2971838,3.64945873 25.3623209,3.64945873 Z M23.6540822,14.5978349 C23.6540822,14.7792997 23.7947607,14.920439 23.975633,14.920439 L26.7490088,14.920439 C26.9298811,14.920439 27.0705596,14.7792997 27.0705596,14.5978349 L27.0705596,5.36329295 C27.0705596,5.18182815 26.9298811,5.04068886 26.7490088,5.04068886 L23.975633,5.04068886 C23.7947607,5.04068886 23.6540822,5.18182815 23.6540822,5.36329295 L23.6540822,14.5978349 Z" id="Shape" fill="#FFFFFF"></path>
                    <path d="M29.5022877,18.7513626 L32.2555666,18.7513626 C32.4364389,18.7513626 32.5771174,18.6102233 32.5771174,18.4287585 L32.5771174,14.0534405 C33.240316,14.759137 34.1245807,15.1623921 35.3102994,15.1623921 C38.0233844,15.1623921 39.8923984,12.9041635 39.8923984,9.98056393 C39.8923984,7.07712715 38.0233844,4.79873579 35.3102994,4.79873579 C33.9236115,4.79873579 32.9790559,5.30280468 32.3560512,6.16980318 L32.3158573,5.36329295 C32.3158573,5.18182815 32.1751789,5.04068886 31.9943065,5.04068886 L29.5022877,5.04068886 C29.3214153,5.04068886 29.1807369,5.18182815 29.1807369,5.36329295 L29.1807369,18.4287585 C29.1807369,18.6102233 29.3214153,18.7513626 29.5022877,18.7513626 Z M32.5369235,9.96040118 C32.5369235,8.69014761 33.3608975,7.86347462 34.5466161,7.86347462 C35.7122379,7.86347462 36.5965027,8.71031036 36.5965027,9.98056393 C36.5965027,11.2709803 35.7122379,12.0976532 34.5466161,12.0976532 C33.3608975,12.0976532 32.5369235,11.2508175 32.5369235,9.96040118 Z" id="Shape" fill="#2CB77C"></path>
                    <path d="M46.4439967,15.1623921 C47.8507815,15.1623921 49.1168878,14.7792997 49.9408616,13.932464 C50.1418309,13.7509992 50.1217341,13.5896972 50.0413463,13.4687206 L49.1168878,12.1783043 C49.0164032,12.0170022 48.9159185,11.9766767 48.7551428,12.0573277 C47.931169,12.5009084 47.2880673,12.5210711 46.7253534,12.5210711 C45.499441,12.5210711 44.6352733,12.1783043 44.2735283,11.2709803 L49.5992138,11.2709803 C50.5839634,11.2709803 50.8452233,10.6056094 50.8452233,9.53698331 C50.8452233,6.99647612 49.0967906,4.79873579 46.0822517,4.79873579 C43.007422,4.79873579 40.9776326,7.03680164 40.9776326,9.94023842 C40.9776326,12.9848145 43.2083912,15.1623921 46.4439967,15.1623921 Z M44.2132376,8.95226339 C44.4744975,7.94412564 45.2381811,7.56103328 46.1023488,7.56103328 C46.9263227,7.56103328 47.6498122,7.90380013 47.8507815,8.95226339 L44.2132376,8.95226339 Z" id="Shape" fill="#2CB77C"></path>
                </g>
            </g>
            <polyline id="Fill-132" fill="#FFFFFE" points="311.198763 58.0349407 311.198763 57.8320558 173.509948 57.8320558 178.710068 29.9457219 305.755099 29.9457219 311.00032 58.0717702 311.198763 58.0349407 311.198763 57.8320558 311.198763 58.0349407 311.397207 57.9974652 306.090778 29.5405983 178.37439 29.5405983 173.023504 58.2371795 311.442308 58.2371795 311.397207 57.9974652 311.198763 58.0349407"></polyline>
            <path d="M231.260684,147.702991 L229.57265,147.702991 C229.591336,147.386109 229.767445,147.089709 230.056239,146.945123 C230.17289,146.886687 230.295203,146.858974 230.415817,146.858974 C230.732925,146.858974 231.037576,147.049948 231.181407,147.375265 C231.228407,147.481896 231.254455,147.592745 231.260684,147.702991" id="Fill-134" fill="#52371C"></path>
            <path d="M221.133044,144.326923 C220.816559,144.326923 220.513074,144.147778 220.36896,143.842044 C220.170592,143.421025 220.35144,142.918062 220.773043,142.719702 C220.889464,142.664885 221.011536,142.638889 221.131913,142.638889 C221.448398,142.638889 221.751884,142.817469 221.895997,143.123203 C222.094365,143.544787 221.913517,144.047185 221.491914,144.24611 C221.376059,144.300927 221.253421,144.326923 221.133044,144.326923" id="Fill-135" fill="#52371C"></path>
            <path d="M214.3808,146.858974 C214.064275,146.858974 213.760751,146.679829 213.617184,146.374095 C213.418226,145.953076 213.599097,145.450678 214.020753,145.251753 C214.137189,145.196936 214.259277,145.17094 214.380234,145.17094 C214.696194,145.17094 214.999718,145.350085 215.14385,145.655254 C215.342243,146.076839 215.161372,146.579802 214.739716,146.778161 C214.623845,146.832979 214.501192,146.858974 214.3808,146.858974" id="Fill-136" fill="#52371C"></path>
            <polyline id="Fill-138" fill="#74627C" points="298.706659 125.60156 185.759153 125.60156 185.683761 125.071517 298.782051 125.071517 298.706659 125.60156"></polyline>
            <polygon id="Fill-141" fill="#472657" points="321.570513 133.354701 327.478632 133.354701 327.478632 132.510684 321.570513 132.510684"></polygon>
            <polyline id="Fill-142" fill="#472657" points="360.614679 82.7136752 351.160514 132.713618 330.854701 132.713618 330.854701 133.354701 351.686558 133.354701 361.239316 82.8335576 360.614679 82.7136752"></polyline>
            <polygon id="Fill-144" fill="#472657" points="151.923077 50.6410256 160.363248 50.6410256 160.363248 49.7970085 151.923077 49.7970085"></polygon>
            <polyline id="Fill-145" fill="#472657" points="123.483668 92.7206674 115.557339 50.4452064 146.858974 50.4452064 146.858974 49.7970085 114.786325 49.7970085 122.856781 92.8418803 123.483668 92.7206674"></polyline>
            <polyline id="Fill-146" fill="#472657" points="126.602564 110.449119 124.778104 102.126068 124.070513 102.243815 125.894973 110.566239"></polyline>
            <path d="M341.826923,41.7791587 C341.826923,43.8765249 340.12701,45.5769231 338.028846,45.5769231 C335.931307,45.5769231 334.230769,43.8765249 334.230769,41.7791587 C334.230769,39.6817926 335.931307,37.9807692 338.028846,37.9807692 C340.12701,37.9807692 341.826923,39.6817926 341.826923,41.7791587" id="Fill-147" fill="#472657"></path>
            <path d="M349.423077,32.4946581 C349.423077,33.1938781 348.855806,33.7606838 348.156752,33.7606838 C347.457697,33.7606838 346.891026,33.1938781 346.891026,32.4946581 C346.891026,31.7954381 347.457697,31.2286325 348.156752,31.2286325 C348.855806,31.2286325 349.423077,31.7954381 349.423077,32.4946581" id="Fill-148" fill="#472657"></path>
            <path d="M352.799145,43.0448718 C352.799145,44.4437308 351.665953,45.5769231 350.267779,45.5769231 C348.86892,45.5769231 347.735043,44.4437308 347.735043,43.0448718 C347.735043,41.6466975 348.86892,40.5128205 350.267779,40.5128205 C351.665953,40.5128205 352.799145,41.6466975 352.799145,43.0448718" id="Fill-149" fill="#472657"></path>
            <path d="M170.491453,141.372534 C170.491453,143.003994 169.169181,144.326923 167.537722,144.326923 C165.906263,144.326923 164.583333,143.003994 164.583333,141.372534 C164.583333,139.741075 165.906263,138.418803 167.537722,138.418803 C169.169181,138.418803 170.491453,139.741075 170.491453,141.372534" id="Fill-150" fill="#472657"></path>
            <path d="M157.831197,140.528547 C157.831197,141.227932 157.264391,141.794872 156.565171,141.794872 C155.865951,141.794872 155.299145,141.227932 155.299145,140.528547 C155.299145,139.829161 155.865951,139.262821 156.565171,139.262821 C157.264391,139.262821 157.831197,139.829161 157.831197,140.528547" id="Fill-151" fill="#472657"></path>
            <path d="M165.42735,153.611111 C165.42735,155.475202 163.915373,156.987179 162.051282,156.987179 C160.186552,156.987179 158.675214,155.475202 158.675214,153.611111 C158.675214,151.746381 160.186552,150.235043 162.051282,150.235043 C163.915373,150.235043 165.42735,151.746381 165.42735,153.611111" id="Fill-152" fill="#472657"></path>
            <polyline id="Fill-153" fill="#472657" points="142.638889 18.5683761 162.051282 39.6688034 153.713272 19.7305571 142.638889 18.5683761"></polyline>
            <path d="M162.051282,17.724359 C162.051282,17.724359 164.267628,39.557014 164.203519,38.8058378 C164.140064,38.0553004 166.271368,19.6955577 166.271368,19.6955577 L162.051282,17.724359" id="Fill-154" fill="#9F274F"></path>
            <polyline id="Fill-155" fill="#9F274F" points="160.363248 42.2008547 141.794872 33.7606838 142.594685 42.0007026 160.363248 42.2008547"></polyline>
            <polyline id="Fill-156" fill="#9F274F" points="302.15812 136.730769 309.573197 163.739316 314.818376 155.785428 302.15812 136.730769"></polyline>
            <polyline id="Fill-157" fill="#472657" points="303.846154 135.042735 315.575051 146.014957 316.50641 140.808075 303.846154 135.042735"></polyline>
            <path d="M340.138889,30.3846154 C340.138889,31.3170842 339.382675,32.0726496 338.450855,32.0726496 C337.518386,32.0726496 336.762821,31.3170842 336.762821,30.3846154 C336.762821,29.4521466 337.518386,28.6965812 338.450855,28.6965812 C339.382675,28.6965812 340.138889,29.4521466 340.138889,30.3846154" id="Fill-161" fill="#9F274F"></path>
            <path d="M168.803419,151.923401 C168.803419,153.32178 169.937415,154.455128 171.335146,154.455128 C172.734173,154.455128 173.867521,153.32178 173.867521,151.923401 C173.867521,150.524374 172.734173,149.391026 171.335146,149.391026 C169.937415,149.391026 168.803419,150.524374 168.803419,151.923401" id="Fill-163" fill="#9F274F"></path>
            <path d="M127.446581,156.143476 C127.446581,158.940318 129.713528,161.207265 132.51037,161.207265 C135.307212,161.207265 137.574786,158.940318 137.574786,156.143476 C137.574786,153.346634 135.307212,151.07906 132.51037,151.07906 C129.713528,151.07906 127.446581,153.346634 127.446581,156.143476" id="Fill-164" fill="#9F274F"></path>
            <path d="M136.730769,140.95056 C136.730769,141.883088 135.974968,142.638889 135.04244,142.638889 C134.110502,142.638889 133.354701,141.883088 133.354701,140.95056 C133.354701,140.018622 134.110502,139.262821 135.04244,139.262821 C135.974968,139.262821 136.730769,140.018622 136.730769,140.95056" id="Fill-165" fill="#9F274F"></path>
            <path d="M133.354701,28.2749198 C133.354701,28.9733688 132.787471,29.5405983 132.088328,29.5405983 C131.389185,29.5405983 130.82265,28.9733688 130.82265,28.2749198 C130.82265,27.5750822 131.389185,27.008547 132.088328,27.008547 C132.787471,27.008547 133.354701,27.5750822 133.354701,28.2749198" id="Fill-166" fill="#9F274F"></path>
            <path d="M132.510684,16.8803419 C132.510684,18.7446315 130.998905,20.2564103 129.134615,20.2564103 C127.269678,20.2564103 125.758547,18.7446315 125.758547,16.8803419 C125.758547,15.0160523 127.269678,13.5042735 129.134615,13.5042735 C130.998905,13.5042735 132.510684,15.0160523 132.510684,16.8803419" id="Fill-167" fill="#9F274F"></path>
            <path d="M331.698718,154.03312 C331.698718,154.73235 331.131315,155.299145 330.432692,155.299145 C329.732855,155.299145 329.166667,154.73235 329.166667,154.03312 C329.166667,153.33389 329.732855,152.767094 330.432692,152.767094 C331.131315,152.767094 331.698718,153.33389 331.698718,154.03312" id="Fill-168" fill="#9F274F"></path>
            <path d="M342.67094,148.969017 C342.67094,151.533179 340.592372,153.611111 338.028846,153.611111 C335.464684,153.611111 333.386752,151.533179 333.386752,148.969017 C333.386752,146.405492 335.464684,144.326923 338.028846,144.326923 C340.592372,144.326923 342.67094,146.405492 342.67094,148.969017" id="Fill-169" fill="#9F274F"></path>
            <polyline id="Fill-170" fill="#472657" points="242.454751 14.3482906 240.544872 12.9961353 245.387129 5.06410256 247.297009 6.41625787 242.454751 14.3482906"></polyline>
            <polyline id="Fill-171" fill="#472657" points="239.700855 7.81756282 241.053105 5.90811966 248.985043 10.7508132 247.633447 12.6602564 239.700855 7.81756282"></polyline>
            <polyline id="Fill-180" fill="#472657" points="294.911394 183.995726 293.717949 183.257985 296.744589 178.931624 297.938034 179.668703 294.911394 183.995726"></polyline>
            <polyline id="Fill-181" fill="#472657" points="293.717949 180.125069 294.455124 178.931624 298.782051 181.958264 298.044876 183.151709 293.717949 180.125069"></polyline>
            <polyline id="Fill-188" fill="#FFFFFE" points="333.198032 183.995726 331.698718 182.365125 337.796173 176.399573 339.294872 178.030174 333.198032 183.995726"></polyline>
            <polyline id="Fill-189" fill="#FFFFFE" points="331.698718 177.898765 333.329817 176.399573 339.294872 182.496534 337.664407 183.995726 331.698718 177.898765"></polyline>
            <polyline id="Fill-196" fill="#FFFFFE" points="147.51415 183.995726 146.014957 182.365261 152.112533 176.399573 153.611111 178.031306 147.51415 183.995726"></polyline>
            <polyline id="Fill-197" fill="#FFFFFE" points="146.014957 177.898272 147.645559 176.399573 153.611111 182.497028 151.98051 183.995726 146.014957 177.898272"></polyline>
            <polyline id="Fill-202" fill="#9F274F" points="125.580189 183.151709 124.91453 182.426436 127.624303 179.775641 128.290598 180.500914 125.580189 183.151709"></polyline>
            <polyline id="Fill-203" fill="#9F274F" points="124.91453 180.441811 125.639287 179.775641 128.290598 182.485539 127.565841 183.151709 124.91453 180.441811"></polyline>
            <g id="Group-338" transform="translate(0.000000, 185.683761)">
                <mask id="mask-2" fill="white">
                    <use xlink:href="#path-1"></use>
                </mask>
                <g id="Clip-336"></g>
            </g>
        </g>
    </g>
</svg>