<?xml version="1.0" encoding="UTF-8"?>
<svg width="100%" height="100%" viewBox="0 0 100 100" version="1.1" xmlns="http://www.w3.org/2000/svg" xmlns:xlink="http://www.w3.org/1999/xlink">
    <title>Group 13</title>
    <defs>
        <linearGradient x1="86.6689227%" y1="83.6280531%" x2="18.9866562%" y2="50%" id="linearGradient-1">
            <stop stop-color="#EDFB8B" offset="0%"></stop>
            <stop stop-color="#6EDC85" offset="100%"></stop>
        </linearGradient>
        <path d="M96.2962963,61.1111111 C91.0893266,61.0991822 86.024585,59.410935 81.8518519,56.2962963 L81.1111111,55.7407407 C80.781893,55.4938272 80.3292181,55.4938272 80,55.7407407 L79.2592593,56.2962963 C75.0865261,59.410935 70.0217846,61.0991822 64.8148148,61.1111111 C64.30344,61.1111111 63.8888889,61.5256623 63.8888889,62.037037 L63.8888889,72.4814815 C63.91759,82.6191859 70.5830477,91.5415706 80.2962963,94.4444444 C80.4660108,94.4909256 80.6451003,94.4909256 80.8148148,94.4444444 C90.5280634,91.5415706 97.1935211,82.6191859 97.2222222,72.4814815 L97.2222222,62.037037 C97.2222222,61.5256623 96.8076711,61.1111111 96.2962963,61.1111111 L96.2962963,61.1111111 Z" id="path-2"></path>
    </defs>
    <g id="Page-1" stroke="none" stroke-width="1" fill="none" fill-rule="evenodd">
        <g id="Group-19" transform="translate(-205.000000, -11.000000)" fill-rule="nonzero">
            <g id="Group-13" transform="translate(205.000000, 11.000000)">
                <g id="legal">
                    <circle id="Oval" fill="#FFFFFF" cx="50" cy="50" r="46.2962963"></circle>
                    <path d="M73.1481481,9.90740741 L73.1481481,86.1111111 L21.0462963,86.1111111 C17.5953116,83.3552159 14.5608445,80.1149165 12.037037,76.4907407 L12.037037,23.5092593 C16.574875,17.0165597 22.6979139,11.792374 29.8240741,8.33333333 L70.1759259,8.33333333 C71.1851852,8.82407407 72.2222222,9.35185185 73.1481481,9.90740741 L73.1481481,9.90740741 Z" id="Path" fill="#377476"></path>
                    <circle id="Oval" fill="#FF4D69" cx="6.48148148" cy="2.77777778" r="2.77777778"></circle>
                    <circle id="Oval" fill="#00C99F" cx="97.2222222" cy="7.40740741" r="2.77777778"></circle>
                    <circle id="Oval" fill="#FFA100" cx="91.6666667" cy="97.2222222" r="2.77777778"></circle>
                    <circle id="Oval" fill="#00C99F" cx="2.77777778" cy="90.7407407" r="2.77777778"></circle>
                    <path d="M80.5555556,15.2314815 L80.5555556,75 C80.5555556,77.0454991 78.8973509,78.7037037 76.8518519,78.7037037 L23.1481481,78.7037037 C21.1026491,78.7037037 19.4444444,77.0454991 19.4444444,75 L19.4444444,15.2314815 C36.9215861,-0.122493899 63.0784139,-0.122493899 80.5555556,15.2314815 Z" id="Path" fill="#4FA9AC"></path>
                    <path d="M75,11.037037 L75,23.1481481 C75,24.6822725 73.7563465,25.9259259 72.2222222,25.9259259 L27.7777778,25.9259259 C26.2436535,25.9259259 25,24.6822725 25,23.1481481 L25,11.037037 C27.1758223,9.63874635 29.464644,8.42464882 31.8425926,7.40740741 L68.1574074,7.40740741 C70.535356,8.42464882 72.8241777,9.63874635 75,11.037037 L75,11.037037 Z" id="Path" fill="#377476"></path>
                    <g id="Group" transform="translate(25.000000, 29.629630)" fill="#FFFFFF">
                        <rect id="Rectangle" x="4.62962963" y="0" width="40.7407407" height="5.55555556" rx="2.77777778"></rect>
                        <path d="M49.0740741,11.1111111 L0.925925926,11.1111111 C0.414551158,11.1111111 0,10.69656 0,10.1851852 C0,9.67381042 0.414551158,9.25925926 0.925925926,9.25925926 L49.0740741,9.25925926 C49.5854488,9.25925926 50,9.67381042 50,10.1851852 C50,10.69656 49.5854488,11.1111111 49.0740741,11.1111111 Z" id="Path"></path>
                        <path d="M49.0740741,16.6666667 L0.925925926,16.6666667 C0.414551158,16.6666667 0,16.2521155 0,15.7407407 C0,15.229366 0.414551158,14.8148148 0.925925926,14.8148148 L49.0740741,14.8148148 C49.5854488,14.8148148 50,15.229366 50,15.7407407 C50,16.2521155 49.5854488,16.6666667 49.0740741,16.6666667 Z" id="Path"></path>
                        <path d="M49.0740741,22.2222222 L0.925925926,22.2222222 C0.414551158,22.2222222 0,21.8076711 0,21.2962963 C0,20.7849215 0.414551158,20.3703704 0.925925926,20.3703704 L49.0740741,20.3703704 C49.5854488,20.3703704 50,20.7849215 50,21.2962963 C50,21.8076711 49.5854488,22.2222222 49.0740741,22.2222222 Z" id="Path"></path>
                        <path d="M49.0740741,27.7777778 L0.925925926,27.7777778 C0.414551158,27.7777778 0,27.3632266 0,26.8518519 C0,26.3404771 0.414551158,25.9259259 0.925925926,25.9259259 L49.0740741,25.9259259 C49.5854488,25.9259259 50,26.3404771 50,26.8518519 C50,27.3632266 49.5854488,27.7777778 49.0740741,27.7777778 Z" id="Path"></path>
                        <path d="M49.0740741,33.3333333 L0.925925926,33.3333333 C0.414551158,33.3333333 0,32.9187822 0,32.4074074 C0,31.8960326 0.414551158,31.4814815 0.925925926,31.4814815 L49.0740741,31.4814815 C49.5854488,31.4814815 50,31.8960326 50,32.4074074 C50,32.9187822 49.5854488,33.3333333 49.0740741,33.3333333 Z" id="Path"></path>
                        <path d="M49.0740741,38.8888889 L0.925925926,38.8888889 C0.414551158,38.8888889 0,38.4743377 0,37.962963 C0,37.4515882 0.414551158,37.037037 0.925925926,37.037037 L49.0740741,37.037037 C49.5854488,37.037037 50,37.4515882 50,37.962963 C50,38.4743377 49.5854488,38.8888889 49.0740741,38.8888889 Z" id="Path"></path>
                        <path d="M10.1851852,44.4444444 L0.925925926,44.4444444 C0.414551158,44.4444444 0,44.0298933 0,43.5185185 C0,43.0071438 0.414551158,42.5925926 0.925925926,42.5925926 L10.1851852,42.5925926 C10.69656,42.5925926 11.1111111,43.0071438 11.1111111,43.5185185 C11.1111111,44.0298933 10.69656,44.4444444 10.1851852,44.4444444 Z" id="Path"></path>
                    </g>
                    <g id="Path">
                        <use fill="#4E6AFF" xlink:href="#path-2"></use>
                        <use fill="url(#linearGradient-1)" xlink:href="#path-2"></use>
                    </g>
                    <path d="M77.6666667,82.5185185 L73.037037,77.8888889 C72.0171894,76.7944083 72.0472819,75.0888529 73.1051044,74.0310304 C74.162927,72.9732079 75.8684824,72.9431153 76.962963,73.962963 L79.6296296,76.6296296 L86,70.2592593 C87.0944806,69.2394116 88.800036,69.2695042 89.8578585,70.3273267 C90.915681,71.3851492 90.9457736,73.0907046 89.9259259,74.1851852 L81.5925926,82.5185185 C80.5080832,83.6016792 78.7511761,83.6016792 77.6666667,82.5185185 L77.6666667,82.5185185 Z" id="Path" fill="#FFFFFF"></path>
                </g>
                <g id="MANDATE" transform="translate(30.737482, 13.394314)" fill="#FFFFFF">
                    <path d="M6.47345577,5.60185185 C6.4851263,5.68938079 6.48950275,5.77399209 6.48658512,5.85568576 C6.48366748,5.93737944 6.46470288,6.0088614 6.42969131,6.07013166 C6.39467973,6.13140191 6.33924474,6.18100164 6.26338633,6.21893084 C6.18752792,6.25686005 6.0824932,6.27582465 5.94828216,6.27582465 C5.76155377,6.28165992 5.63463681,6.23935426 5.5675313,6.1489077 C5.50042578,6.05846113 5.45228486,5.91112076 5.42310855,5.70688657 L5.00296966,2.54709201 C4.97962861,2.41288098 4.94461704,2.34577546 4.89793494,2.34577546 C4.85125284,2.34577546 4.80748838,2.41288098 4.76664154,2.54709201 L3.78631746,5.90820313 C3.75714115,6.01907311 3.70900024,6.10806086 3.64189472,6.17516638 C3.5747892,6.24227189 3.44787225,6.27582465 3.26114385,6.27582465 C3.16194439,6.27582465 3.08025072,6.26853057 3.01606284,6.25394242 C2.95187495,6.23935426 2.89935759,6.21601321 2.85851075,6.18391927 C2.81766392,6.15182533 2.78702879,6.11389612 2.76660537,6.07013166 C2.74618195,6.02636719 2.72721735,5.97239101 2.70971156,5.90820313 C2.54048895,5.34218268 2.37272516,4.78345631 2.20642018,4.23202402 C2.04011521,3.68059172 1.87526905,3.12186535 1.7118817,2.55584491 C1.67103486,2.41579861 1.62872921,2.34577546 1.58496474,2.34577546 C1.54120028,2.34577546 1.50764752,2.41579861 1.48430647,2.55584491 L1.07292047,5.65436921 C1.04374416,5.86443866 0.986850354,6.02053193 0.90223905,6.12264902 C0.817627746,6.22476611 0.66445211,6.27582465 0.442712141,6.27582465 C0.261819008,6.27582465 0.136360867,6.22476611 0.0663377193,6.12264902 C-0.00368542885,6.02053193 -0.0182735847,5.84693287 0.0225732517,5.60185185 L0.775322094,0.638961227 C0.804498406,0.434727045 0.881815632,0.277174961 1.00727377,0.166304977 C1.13273191,0.0554349923 1.28882518,0 1.47555358,0 C1.66228197,0 1.81983405,0.0466820988 1.94820983,0.140046296 C2.0765856,0.233410494 2.18162032,0.420138889 2.26331399,0.700231481 L3.26114385,4.35894097 L4.23271503,0.682725694 C4.30857344,0.408468364 4.41214935,0.226116416 4.54344275,0.13566985 C4.67473616,0.0452232832 4.82791179,0 5.00296966,0 C5.17219227,0 5.32536791,0.0568938079 5.46249657,0.170681424 C5.59962524,0.284469039 5.68569536,0.449315201 5.72070693,0.665219907 L6.47345577,5.60185185 Z" id="Path"></path>
                    <path d="M8.57415022,4.80533854 L8.1890229,5.8119213 C8.13650554,5.95196759 8.06356476,6.06429639 7.97020057,6.1489077 C7.87683637,6.233519 7.7397077,6.27582465 7.55881457,6.27582465 C7.37792144,6.27582465 7.2334987,6.22622492 7.12554634,6.12702546 C7.01759399,6.027826 7.00446465,5.8586034 7.08615832,5.61935764 L8.88925439,0.358868634 C8.9184307,0.265504437 8.98115977,0.182351948 9.0774416,0.109411169 C9.17372343,0.0364703897 9.30355801,0 9.46694536,0 C9.6303327,0 9.76016729,0.0364703897 9.85644912,0.109411169 C9.95273095,0.182351948 10.01546,0.265504437 10.0446363,0.358868634 L11.8652382,5.63686343 C11.9352613,5.8586034 11.9162967,6.02053193 11.8083444,6.12264902 C11.700392,6.22476611 11.5559693,6.27582465 11.3750761,6.27582465 C11.194183,6.28165992 11.059972,6.24227189 10.972443,6.15766059 C10.8849141,6.07304929 10.8178086,5.97239101 10.7711265,5.85568576 L10.3509876,4.80533854 L8.57415022,4.80533854 Z M10.1409182,3.81626157 L9.46694536,1.64554398 L8.79297256,3.81626157 L10.1409182,3.81626157 Z" id="Shape"></path>
                    <path d="M13.6945929,5.82067419 C13.6945929,5.93737944 13.6508285,6.04241416 13.5632995,6.13577836 C13.4757706,6.22914255 13.329889,6.27582465 13.1256548,6.27582465 C12.9214207,6.27582465 12.7755391,6.22622492 12.6880102,6.12702546 C12.6004812,6.027826 12.5567168,5.92570891 12.5567168,5.82067419 L12.5567168,0.411385995 C12.5567168,0.306351273 12.5858931,0.21152826 12.6442457,0.126916956 C12.7025983,0.042305652 12.8368094,0 13.0468788,0 C13.1635841,0 13.2584071,0.0350115741 13.3313478,0.105034722 C13.4042886,0.17505787 13.4670177,0.245081019 13.5195351,0.315104167 L16.2854494,4.03508391 L16.2854494,0.455150463 C16.2854494,0.350115741 16.3292139,0.24799865 16.4167428,0.14879919 C16.5042717,0.0495997299 16.6501533,0 16.8543875,0 C17.0586217,0 17.2045032,0.0466820988 17.2920322,0.140046296 C17.3795611,0.233410494 17.4233256,0.338445216 17.4233256,0.455150463 L17.4233256,5.88194444 C17.4233256,5.9811439 17.3941493,6.07159047 17.3357966,6.15328414 C17.277444,6.23497782 17.1461506,6.27582465 16.9419164,6.27582465 C16.8252112,6.27582465 16.7274705,6.24081308 16.6486945,6.17078993 C16.5699184,6.10076678 16.5042717,6.03074363 16.4517544,5.96072049 L13.6945929,2.36328125 L13.6945929,5.82067419 Z" id="Path"></path>
                    <path d="M20.4780854,0.0875289352 C20.9332359,0.0875289352 21.3256573,0.164846161 21.6553496,0.319480613 C21.9850419,0.474115066 22.2563816,0.687102141 22.4693687,0.95844184 C22.6823558,1.22978154 22.8399078,1.55072097 22.9420249,1.92126013 C23.044142,2.29179929 23.0952006,2.69297357 23.0952006,3.12478299 C23.0952006,3.58576871 23.0426832,4.00444878 22.9376485,4.38082321 C22.8326138,4.75719763 22.672144,5.07959587 22.4562393,5.34801794 C22.2403346,5.61644001 21.9719126,5.82359182 21.6509731,5.96947338 C21.3300337,6.11535494 20.9536593,6.18829572 20.5218499,6.18829572 L18.8588001,6.18829572 C18.6545659,6.18829572 18.5247313,6.15474296 18.4692963,6.08763744 C18.4138613,6.02053193 18.3861439,5.92279128 18.3861439,5.79441551 L18.3861439,0.481409144 C18.3861439,0.353033372 18.4124025,0.255292728 18.4649199,0.188187211 C18.5174373,0.121081694 18.6487307,0.0875289352 18.8588001,0.0875289352 L20.4780854,0.0875289352 Z M19.52402,5.27799479 L20.5218499,5.27799479 C21.4788329,5.27799479 21.9573244,4.55150463 21.9573244,3.09852431 C21.9573244,2.76591435 21.9310657,2.46831597 21.8785484,2.20572917 C21.826031,1.94314236 21.7355844,1.72286121 21.6072087,1.54488571 C21.4788329,1.3669102 21.3096103,1.23124035 21.0995408,1.13787616 C20.8894714,1.04451196 20.623967,0.997829861 20.3030275,0.997829861 L19.52402,0.997829861 L19.52402,5.27799479 Z" id="Shape"></path>
                    <path d="M25.2396595,4.80533854 L24.8545322,5.8119213 C24.8020148,5.95196759 24.729074,6.06429639 24.6357098,6.1489077 C24.5423456,6.233519 24.405217,6.27582465 24.2243238,6.27582465 C24.0434307,6.27582465 23.899008,6.22622492 23.7910556,6.12702546 C23.6831032,6.027826 23.6699739,5.8586034 23.7516676,5.61935764 L25.5547636,0.358868634 C25.58394,0.265504437 25.646669,0.182351948 25.7429509,0.109411169 C25.8392327,0.0364703897 25.9690673,0 26.1324546,0 C26.295842,0 26.4256766,0.0364703897 26.5219584,0.109411169 C26.6182402,0.182351948 26.6809693,0.265504437 26.7101456,0.358868634 L28.5307474,5.63686343 C28.6007706,5.8586034 28.581806,6.02053193 28.4738536,6.12264902 C28.3659013,6.22476611 28.2214785,6.27582465 28.0405854,6.27582465 C27.8596923,6.28165992 27.7254812,6.24227189 27.6379523,6.15766059 C27.5504234,6.07304929 27.4833179,5.97239101 27.4366358,5.85568576 L27.0164969,4.80533854 L25.2396595,4.80533854 Z M26.8064274,3.81626157 L26.1324546,1.64554398 L25.4584818,3.81626157 L26.8064274,3.81626157 Z" id="Shape"></path>
                    <path d="M31.7605651,1.10286458 L31.7605651,5.82067419 C31.7605651,5.93737944 31.7168007,6.04241416 31.6292717,6.13577836 C31.5417428,6.22914255 31.3958613,6.27582465 31.1916271,6.27582465 C30.9873929,6.27582465 30.8415113,6.22622492 30.7539824,6.12702546 C30.6664535,6.027826 30.622689,5.92570891 30.622689,5.82067419 L30.622689,1.10286458 L29.5023186,1.10286458 C29.3972839,1.10286458 29.2951668,1.06493538 29.1959673,0.989076968 C29.0967679,0.913218557 29.0471682,0.781925154 29.0471682,0.595196759 C29.0471682,0.414303627 29.0938503,0.284469039 29.1872145,0.205692998 C29.2805787,0.126916956 29.3856134,0.0875289352 29.5023186,0.0875289352 L32.8809355,0.0875289352 C32.9976408,0.0875289352 33.1026755,0.126916956 33.1960397,0.205692998 C33.2894039,0.284469039 33.336086,0.414303627 33.336086,0.595196759 C33.336086,0.781925154 33.2864863,0.913218557 33.1872868,0.989076968 C33.0880873,1.06493538 32.9859702,1.10286458 32.8809355,1.10286458 L31.7605651,1.10286458 Z" id="Path"></path>
                    <path d="M35.1654407,5.20797164 L37.283641,5.20797164 C37.5053809,5.20797164 37.662933,5.24298322 37.7562972,5.31300637 C37.8496614,5.38302951 37.8963435,5.51140529 37.8963435,5.69813368 C37.8963435,5.88486208 37.8496614,6.01323785 37.7562972,6.083261 C37.662933,6.15328414 37.5053809,6.18829572 37.283641,6.18829572 L34.5877498,6.18829572 C34.4126919,6.18829572 34.2755632,6.15474296 34.1763638,6.08763744 C34.0771643,6.02053193 34.0275646,5.89361497 34.0275646,5.70688657 L34.0275646,0.568938079 C34.0275646,0.388044946 34.0742467,0.262586806 34.1676109,0.192563657 C34.2609751,0.122540509 34.4010214,0.0875289352 34.5877498,0.0875289352 L37.2923939,0.0875289352 C37.4616165,0.0875289352 37.5885334,0.123999325 37.6731447,0.196940104 C37.757756,0.269880883 37.8029793,0.39679784 37.8088146,0.577690972 C37.8146498,0.758584105 37.7708854,0.885501061 37.6775212,0.95844184 C37.584157,1.03138262 37.4528636,1.06785301 37.283641,1.06785301 L35.1654407,1.06785301 L35.1654407,2.54709201 L37.196112,2.54709201 C37.3828404,2.54709201 37.5170515,2.58648003 37.5987451,2.66525608 C37.6804388,2.74403212 37.7212856,2.87094907 37.7212856,3.04600694 C37.7212856,3.22106481 37.6804388,3.34506414 37.5987451,3.41800492 C37.5170515,3.4909457 37.3828404,3.52741609 37.196112,3.52741609 L35.1654407,3.52741609 L35.1654407,5.20797164 Z" id="Path"></path>
                </g>
            </g>
        </g>
    </g>
</svg>