<?xml version="1.0" encoding="UTF-8"?>
<svg width="100%" height="100%" viewBox="0 0 100 100" version="1.1" xmlns="http://www.w3.org/2000/svg" xmlns:xlink="http://www.w3.org/1999/xlink">
    <title>Group 12</title>
    <defs>
        <linearGradient x1="100%" y1="83.6280531%" x2="7.71167851%" y2="50%" id="linearGradient-1">
            <stop stop-color="#EDFB8B" offset="0%"></stop>
            <stop stop-color="#6EDC85" offset="100%"></stop>
        </linearGradient>
        <circle id="path-2" cx="83.3333333" cy="25" r="13.8888889"></circle>
        <circle id="path-3" cx="19.8929398" cy="19.8929398" r="19.8929398"></circle>
    </defs>
    <g id="Page-1" stroke="none" stroke-width="1" fill="none" fill-rule="evenodd">
        <g id="Group-18" transform="translate(-199.000000, -9.000000)">
            <g id="Group-12" transform="translate(199.000000, 9.000000)">
                <g id="login" fill-rule="nonzero">
                    <path d="M96.2962963,50 C96.2962963,64.976019 89.0515636,79.026872 76.8518519,87.712963 C52.4259259,76.3148148 22.2222222,87.037037 22.2222222,87.037037 C4.80516856,73.9742468 -1.15705911,50.5409269 7.89898803,30.7424861 C16.9550352,10.9440453 38.5822151,0.130455317 59.854596,4.76468208 C81.126977,9.39890884 96.2962963,28.2286829 96.2962963,50 L96.2962963,50 Z" id="Path" fill="#FFFFFF"></path>
                    <circle id="Oval" fill="#00C99F" cx="2.77777778" cy="13.8888889" r="2.77777778"></circle>
                    <circle id="Oval" fill="#FFA100" cx="88.8055556" cy="2.77777778" r="2.77777778"></circle>
                    <circle id="Oval" fill="#00C99F" cx="97.2222222" cy="85.1851852" r="2.77777778"></circle>
                    <circle id="Oval" fill="#FF4D69" cx="6.48148148" cy="97.2222222" r="2.77777778"></circle>
                    <path d="M83.3333333,29.6296296 L83.3333333,82.1111111 C81.3467544,84.1567172 79.1772217,86.0163167 76.8518519,87.6666667 C47.6944444,74.0740741 22.2222222,87.037037 22.2222222,87.037037 C20.2387063,85.5532317 18.3805907,83.9087994 16.6666667,82.1203704 L16.6666667,29.6296296 C16.6666667,21.9590081 22.884934,15.7407407 30.5555556,15.7407407 L69.4444444,15.7407407 C77.115066,15.7407407 83.3333333,21.9590081 83.3333333,29.6296296 Z" id="Path" fill="#377476"></path>
                    <path d="M76.8518519,28.7037037 L76.8518519,87.712963 C60.4356751,99.4014834 38.3441765,99.1281479 22.2222222,87.037037 L22.2222222,28.7037037 C22.2222222,24.6127056 25.5386315,21.2962963 29.6296296,21.2962963 L69.4444444,21.2962963 C73.5354426,21.2962963 76.8518519,24.6127056 76.8518519,28.7037037 L76.8518519,28.7037037 Z" id="Path" fill="#FFFFFF"></path>
                    <path d="M60.0740741,29.6296354 L39.9259259,29.6296354 C38.2346251,29.6325958 36.7561566,28.4894501 36.3333333,26.8518519 L34.2592593,18.5185185 L65.7407407,18.5185185 L63.6666667,26.8518519 C63.2438434,28.4894501 61.7653749,29.6325958 60.0740741,29.6296354 Z" id="Path" fill="#377476"></path>
                    <path d="M50.9259259,25 L41.6666667,25 C40.6439171,25 39.8148148,24.1708977 39.8148148,23.1481481 C39.8148148,22.1253986 40.6439171,21.2962963 41.6666667,21.2962963 L50.9259259,21.2962963 C51.9486755,21.2962963 52.7777778,22.1253986 52.7777778,23.1481481 C52.7777778,24.1708977 51.9486755,25 50.9259259,25 Z" id="Path" fill="#173C3D"></path>
                    <circle id="Oval" fill="#173C3D" cx="58.3333333" cy="23.1481481" r="1.85185185"></circle>
                    <path d="M14.8148148,37.037037 L16.6666667,37.037037 L16.6666667,44.4444444 L14.8148148,44.4444444 C13.7920653,44.4444444 12.962963,43.6153421 12.962963,42.5925926 L12.962963,38.8888889 C12.962963,37.8661394 13.7920653,37.037037 14.8148148,37.037037 Z" id="Path" fill="#2A6466"></path>
                    <path d="M14.8148148,48.1481481 L16.6666667,48.1481481 L16.6666667,57.4074074 L14.8148148,57.4074074 C13.7920653,57.4074074 12.962963,56.5783051 12.962963,55.5555556 L12.962963,50 C12.962963,48.9772505 13.7920653,48.1481481 14.8148148,48.1481481 Z" id="Path" fill="#2A6466"></path>
                    <g id="Oval">
                        <use fill="#00C99F" xlink:href="#path-2"></use>
                        <use fill="url(#linearGradient-1)" xlink:href="#path-2"></use>
                    </g>
                    <path d="M80.1759259,30.4722222 L75.5462963,25.8425926 C74.91708,25.1078513 74.9593847,24.0126034 75.6434014,23.3285866 C76.3274182,22.6445699 77.4226662,22.6022652 78.1574074,23.2314815 L81.4814815,26.5462963 L88.5092593,19.5277778 C89.2440005,18.8985615 90.3392485,18.9408662 91.0232652,19.6248829 C91.707282,20.3088997 91.7495867,21.4041476 91.1203704,22.1388889 L82.787037,30.4722222 C82.0647455,31.1902289 80.8982175,31.1902289 80.1759259,30.4722222 L80.1759259,30.4722222 Z" id="Path" fill="#FFFFFF"></path>
                    <path d="M50,67.5925926 C48.9772505,67.5925926 48.1481481,66.7634903 48.1481481,65.7407407 L48.1481481,59.2592593 C48.1481481,58.2365097 48.9772505,57.4074074 50,57.4074074 C51.0227495,57.4074074 51.8518519,58.2365097 51.8518519,59.2592593 L51.8518519,65.7407407 C51.8518519,66.7634903 51.0227495,67.5925926 50,67.5925926 Z" id="Path" fill="#FFFFFF"></path>
                    <path d="M62.037037,89.8148148 L37.962963,89.8148148 C35.4060891,89.8148148 33.3333333,87.742059 33.3333333,85.1851852 C33.3333333,82.6283113 35.4060891,80.5555556 37.962963,80.5555556 L62.037037,80.5555556 C64.5939109,80.5555556 66.6666667,82.6283113 66.6666667,85.1851852 C66.6666667,87.742059 64.5939109,89.8148148 62.037037,89.8148148 Z" id="Path" fill="#377476"></path>
                    <g id="Group" transform="translate(37.037037, 83.333333)" fill="#FFFFFF">
                        <circle id="Oval" cx="1.85185185" cy="1.85185185" r="1.85185185"></circle>
                        <circle id="Oval" cx="9.25925926" cy="1.85185185" r="1.85185185"></circle>
                        <circle id="Oval" cx="16.6666667" cy="1.85185185" r="1.85185185"></circle>
                        <circle id="Oval" cx="24.0740741" cy="1.85185185" r="1.85185185"></circle>
                    </g>
                </g>
                <g id="Group-11" transform="translate(30.038339, 34.613715)">
                    <mask id="mask-4" fill="white">
                        <use xlink:href="#path-3"></use>
                    </mask>
                    <use id="Mask" fill="#E7EFFF" xlink:href="#path-3"></use>
                    <g mask="url(#mask-4)">
                        <g transform="translate(5.078654, 6.136965)">
                            <path d="M14.7922313,34.2516559 C9.019677,34.2516559 3.56666759,31.6014934 0,27.0626318 C0.482505304,25.709377 1.57917016,24.6657991 2.95468232,24.2509787 L11.0283047,21.8307739 L18.5561578,21.8307739 L26.6297802,24.2509787 C28.0052923,24.6657991 29.1019572,25.709377 29.5844625,27.0626318 C26.0177949,31.6014934 20.5647855,34.2516559 14.7922313,34.2516559 Z" id="Path" fill="#377476" fill-rule="nonzero"></path>
                            <path d="M16.6741945,31.6169829 L17.8635953,33.9995484 C15.8298233,34.3357907 13.7546392,34.3357907 11.7208672,33.9995484 L12.910268,31.6169829 L11.4046974,28.9822343 L14.7922313,27.100271 L18.1797651,28.9822343 L16.6741945,31.6169829 Z" id="Path" fill="#FF4D69" fill-rule="nonzero"></path>
                            <path d="M11.0283047,21.8307739 L18.5561578,21.8307739 L18.5561578,23.3363445 C18.5561578,24.3345999 18.1596024,25.2919693 17.4537292,25.9978425 C16.7478561,26.7037156 15.7904866,27.100271 14.7922313,27.100271 C12.713472,27.100271 11.0283047,25.4151037 11.0283047,23.3363445 L11.0283047,21.8307739 L11.0283047,21.8307739 Z" id="Path" fill="#7F96D1" fill-rule="nonzero"></path>
                            <path d="M20.7241795,22.4819332 L19.6815718,29.7877146 C19.6632938,29.9111005 19.5860458,30.0178432 19.4745559,30.073773 C19.4230495,30.0990833 19.3663295,30.1119742 19.3089431,30.1114299 C19.2426477,30.1108494 19.177695,30.0926627 19.1207468,30.0587173 L14.7922313,27.5331226 L10.4637157,30.0587173 C10.4067675,30.0926627 10.3418148,30.1108494 10.2755194,30.1114299 C10.218133,30.1119742 10.1614131,30.0990833 10.1099067,30.073773 C9.99841669,30.0178432 9.92116868,29.9111005 9.9028907,29.7877146 L8.86028305,22.4819332 L11.0283047,21.8307739 L11.4875038,21.8307739 L14.7922313,26.4566396 L18.0969587,21.8307739 L18.5561578,21.8307739 L20.7241795,22.4819332 Z" id="Path" fill="#173C3D" fill-rule="nonzero"></path>
                            <path d="M24.9548329,1.50557065 L24.9548329,9.22162003 C24.9548329,11.7161311 22.9326321,13.7383319 20.438121,13.7383319 L4.62962963,13.7383319 L4.62962963,6.39867514 C4.62962963,4.11204 6.48331367,2.25835596 8.76994881,2.25835596 L9.40981632,1.48976216 C10.1965813,0.545637652 11.3621158,-0.000172257728 12.591087,0 L23.4492623,0 C24.280766,0 24.9548329,0.674066964 24.9548329,1.50557065 Z" id="Path" fill="#377476" fill-rule="nonzero"></path>
                            <g id="Group" stroke-width="1" fill="none" fill-rule="evenodd" transform="translate(3.500452, 7.527853)">
                                <path d="M11.2917796,16.5612767 C6.7185093,16.5612767 3.01114122,12.8539086 3.01114122,8.28063836 L3.01114122,2.88015658 C3.01114122,1.28949002 4.30063125,0 5.8912978,0 C6.22699576,0 6.56010685,0.0587148445 6.87556459,0.173517013 C9.29927992,1.05471144 11.8583592,1.50551191 14.437293,1.50557061 L18.0668473,1.50557061 C18.898351,1.50557061 19.5724179,2.17963753 19.5724179,3.01114122 L19.5724179,8.28063836 C19.5724179,12.8539086 15.8650499,16.5612767 11.2917796,16.5612767 L11.2917796,16.5612767 Z" id="Path" fill="#A5BCED" fill-rule="nonzero"></path>
                                <path d="M1.50557061,3.01114122 L3.01114122,3.01114122 L3.01114122,9.03342367 L1.50557061,9.03342367 C0.674066923,9.03342367 0,8.35935674 0,7.52785306 L0,4.51671183 C0,3.68520815 0.674066923,3.01114122 1.50557061,3.01114122 Z" id="Path" fill="#A5BCED" fill-rule="nonzero"></path>
                                <path d="M21.0779886,3.01114122 L22.5835592,3.01114122 L22.5835592,9.03342367 L21.0779886,9.03342367 C20.2464849,9.03342367 19.5724179,8.35935674 19.5724179,7.52785306 L19.5724179,4.51671183 C19.5724179,3.68520815 20.2464849,3.01114122 21.0779886,3.01114122 Z" id="Path" fill="#A5BCED" fill-rule="nonzero" transform="translate(21.077989, 6.022282) rotate(-180.000000) translate(-21.077989, -6.022282) "></path>
                            </g>
                            <path d="M14.7922313,21.575586 C14.086878,21.5769646 13.4001025,21.3495363 12.8349895,20.9274315 C12.502388,20.6779804 12.4349813,20.2061336 12.6844324,19.8735321 C12.9338835,19.5409307 13.4057304,19.473524 13.7383318,19.722975 C14.3637898,20.1885915 15.2206727,20.1885915 15.8461307,19.722975 C16.1787322,19.473524 16.650579,19.5409307 16.9000301,19.8735321 C17.1494812,20.2061336 17.0820745,20.6779804 16.7494731,20.9274315 C16.18436,21.3495363 15.4975845,21.5769646 14.7922313,21.575586 L14.7922313,21.575586 Z" id="Path" fill="#7F96D1" fill-rule="nonzero"></path>
                            <rect id="Rectangle" fill="#7F96D1" fill-rule="nonzero" x="11.4046974" y="12.7973502" width="1.50557061" height="3.01114122" rx="0.752785306"></rect>
                            <rect id="Rectangle" fill="#7F96D1" fill-rule="nonzero" x="16.6741945" y="12.7973502" width="1.50557061" height="3.01114122" rx="0.752785306"></rect>
                        </g>
                    </g>
                </g>
            </g>
        </g>
    </g>
</svg>