<?xml version="1.0" encoding="UTF-8"?>
<svg width="100%" height="100%" viewBox="0 0 100 100" version="1.1" xmlns="http://www.w3.org/2000/svg" xmlns:xlink="http://www.w3.org/1999/xlink">
    <title>Group 25</title>
    <defs>
        <linearGradient x1="70.6183498%" y1="83.6280531%" x2="32.5616919%" y2="50%" id="linearGradient-1">
            <stop stop-color="#EDFB8B" offset="0%"></stop>
            <stop stop-color="#6EDC85" offset="100%"></stop>
        </linearGradient>
        <path d="M52.7340624,29.7924361 C52.6094674,29.0921013 52.3260559,28.4339407 51.8997337,27.8620568 L54.3434348,27.8620568 C54.8577206,27.8620568 55.274403,27.445254 55.274403,26.9310887 C55.274403,26.4169234 54.8576001,26 54.3434348,26 L44.9309682,26 C44.4166824,26 44,26.4168029 44,26.9309682 C44,27.4451335 44.4168029,27.8620568 44.9309682,27.8620568 L48.1993581,27.8620568 C48.9324684,27.8626593 49.621597,28.1483603 50.1401002,28.666743 C50.4602636,28.9867859 50.6908969,29.3721388 50.8212759,29.7925566 L44.9309682,29.7925566 C44.4166824,29.7925566 44,30.2093595 44,30.7235248 C44,31.2376901 44.4168029,31.6544929 44.9309682,31.6544929 L50.784524,31.6544929 C50.3936282,32.7771736 49.3308351,33.5848722 48.08368,33.5848722 L46.1507702,33.5848722 C45.5623781,33.5848722 45.0379705,33.914073 44.7820325,34.443903 C44.5262151,34.9737331 44.594658,35.5891168 44.9606107,36.0499014 L50.6445052,43.2050775 C50.8283853,43.4364338 51.0999879,43.5570524 51.3741211,43.5570524 C51.5770398,43.5570524 51.7814046,43.4910194 51.9526323,43.3549771 C52.3552164,43.0351752 52.4223339,42.449434 52.102532,42.0468499 L46.85954,35.4466881 L48.08368,35.4466881 C50.3643471,35.4466881 52.2725548,33.8155055 52.7118908,31.6543725 L54.3434348,31.6543725 C54.8577206,31.6543725 55.274403,31.2375696 55.274403,30.7234043 C55.2745234,30.209239 54.8577206,29.7924361 54.3434348,29.7924361 L52.7340624,29.7924361 Z" id="path-2"></path>
    </defs>
    <g id="Page-1" stroke="none" stroke-width="1" fill="none" fill-rule="evenodd">
        <g id="Group-23" transform="translate(-201.000000, -9.000000)" fill-rule="nonzero">
            <g id="Group-25" transform="translate(201.000000, 9.000000)">
                <g id="mail">
                    <circle id="Oval" fill="#FFFFFF" cx="50" cy="53.7037037" r="46.2962963"></circle>
                    <circle id="Oval" fill="#00C99F" cx="12.037037" cy="2.77777778" r="2.77777778"></circle>
                    <circle id="Oval" fill="#FFA100" cx="97.2222222" cy="15.7407407" r="2.77777778"></circle>
                    <circle id="Oval" fill="#00C99F" cx="94.4444444" cy="97.2222222" r="2.77777778"></circle>
                    <circle id="Oval" fill="#FF4D69" cx="2.77777778" cy="85.1851852" r="2.77777778"></circle>
                    <path d="M88.8888889,46.2962963 L88.8888889,78.8148148 C70.6481481,107.027778 29.3703704,107.064815 11.1111111,78.8148148 L11.1111111,46.2962963 L88.8888889,46.2962963 Z" id="Path" fill="#377476"></path>
                    <polygon id="Path" fill="#2C6163" points="50 16.6666667 11.1111111 46.2962963 50 75.9259259 88.8888889 46.2962963"></polygon>
                    <path d="M81.4814815,8.33333333 L81.4814815,51.9444444 L50,75.9259259 L18.5185185,51.9444444 L18.5185185,8.33333333 C18.5185185,6.28783426 20.1767231,4.62962963 22.2222222,4.62962963 L77.7777778,4.62962963 C79.8232769,4.62962963 81.4814815,6.28783426 81.4814815,8.33333333 Z" id="Path" fill="#4FA9AC"></path>
                    <circle id="Oval" fill="#FFFFFF" cx="50" cy="34.2592593" r="16.6666667"></circle>
                    <circle id="Oval" fill="#2C6163" cx="50" cy="75.9259259" r="10.1851852"></circle>
                    <g id="Group" transform="translate(24.074074, 10.185185)" fill="#FFFFFF">
                        <circle id="Oval" cx="25.9259259" cy="65.7407407" r="5.55555556"></circle>
                        <path d="M50.9259259,1.85185185 L45.3703704,1.85185185 C44.8589956,1.85185185 44.4444444,1.43730069 44.4444444,0.925925926 C44.4444444,0.414551158 44.8589956,0 45.3703704,0 L50.9259259,0 C51.4373007,0 51.8518519,0.414551158 51.8518519,0.925925926 C51.8518519,1.43730069 51.4373007,1.85185185 50.9259259,1.85185185 Z" id="Path"></path>
                        <path d="M50.9259259,6.48148148 L45.3703704,6.48148148 C44.8589956,6.48148148 44.4444444,6.06693032 44.4444444,5.55555556 C44.4444444,5.04418079 44.8589956,4.62962963 45.3703704,4.62962963 L50.9259259,4.62962963 C51.4373007,4.62962963 51.8518519,5.04418079 51.8518519,5.55555556 C51.8518519,6.06693032 51.4373007,6.48148148 50.9259259,6.48148148 Z" id="Path"></path>
                        <path d="M6.48148148,37.962963 L0.925925926,37.962963 C0.414551158,37.962963 0,37.5484118 0,37.037037 C0,36.5256623 0.414551158,36.1111111 0.925925926,36.1111111 L6.48148148,36.1111111 C6.99285625,36.1111111 7.40740741,36.5256623 7.40740741,37.037037 C7.40740741,37.5484118 6.99285625,37.962963 6.48148148,37.962963 Z" id="Path"></path>
                        <path d="M6.48148148,42.5925926 L0.925925926,42.5925926 C0.414551158,42.5925926 0,42.1780414 0,41.6666667 C0,41.1552919 0.414551158,40.7407407 0.925925926,40.7407407 L6.48148148,40.7407407 C6.99285625,40.7407407 7.40740741,41.1552919 7.40740741,41.6666667 C7.40740741,42.1780414 6.99285625,42.5925926 6.48148148,42.5925926 Z" id="Path"></path>
                    </g>
                </g>
                <g id="Path">
                    <use fill="#377476" xlink:href="#path-2"></use>
                    <use fill="url(#linearGradient-1)" xlink:href="#path-2"></use>
                </g>
            </g>
        </g>
    </g>
</svg>