<?xml version="1.0" encoding="UTF-8"?>
<svg width="100%" height="100%" viewBox="0 0 100 99.9950249" version="1.1" xmlns="http://www.w3.org/2000/svg" xmlns:xlink="http://www.w3.org/1999/xlink">
    <title>Group 24</title>
    <g id="Page-1" stroke="none" stroke-width="1" fill="none" fill-rule="evenodd">
        <g id="Group-20" transform="translate(-199.000000, -11.000000)" fill-rule="nonzero">
            <g id="Group-24" transform="translate(199.000000, 11.000000)">
                <g id="loan">
                    <circle id="Oval" fill="#FFFFFF" cx="46.2989681" cy="49.9975124" r="46.293993"></circle>
                    <circle id="Oval" fill="#FF4D69" cx="12.0414133" cy="2.77763958" r="2.77763958"></circle>
                    <circle id="Oval" fill="#00C99F" cx="89.8153215" cy="7.40703888" r="2.77763958"></circle>
                    <circle id="Oval" fill="#FFA100" cx="97.2223604" cy="97.2173853" r="2.77763958"></circle>
                    <circle id="Oval" fill="#00C99F" cx="2.78261469" cy="89.8103464" r="2.77763958"></circle>
                    <polygon id="Path" fill="#A5BCED" points="60.187166 59.256311 44.4472084 59.256311 37.0401695 57.4045513 37.0401695 27.7763958 60.187166 27.7763958"></polygon>
                    <path d="M28.7072508,23.1469965 L28.7072508,58.3304312 L0.7549378,58.3304312 C-1.49446798,46.0260175 1.33095329,33.335 8.58788142,23.1469965 L28.7072508,23.1469965 Z" id="Path" fill="#4FA9AC"></path>
                    <path d="M85.4736882,90.0129149 C80.8844816,94.6247113 74.6465852,97.2173853 68.140474,97.2173853 L67.0479358,97.2173853 C57.8515051,97.2126138 49.4348154,92.0502563 45.261986,83.8550226 C41.0891566,75.6597889 41.8653652,65.8166135 47.271142,58.3767252 L53.8171126,49.3771729 C58.596801,42.811696 59.9074876,34.3405216 57.335456,26.6375636 L54.9096508,19.3508891 C54.2644057,17.4282757 55.1107677,15.3216701 56.9068282,14.3798897 C58.7028886,13.4381093 60.9170011,13.9399276 62.1315137,15.5640404 L62.9648056,16.6658375 L62.9648056,15.7399576 C62.9648056,13.183211 65.0374583,11.1105583 67.5942049,11.1105583 C70.1509515,11.1105583 72.2236042,13.183211 72.2236042,15.7399576 L72.2236042,16.6658375 L73.0568961,15.5640404 C74.2714087,13.9399276 76.4855212,13.4381093 78.2815816,14.3798897 C80.0776421,15.3216701 80.9240041,17.4282757 80.278759,19.3508891 L78.0936825,25.9246361 C76.6779469,30.1882658 76.4254479,34.7524241 77.3622374,39.1462005 C78.0192069,42.9248593 79.5123109,46.5089414 81.7323904,49.6364193 L88.0376322,58.4600544 C90.9939642,62.5995683 92.5862766,67.5577441 92.5929611,72.6445338 C92.6249867,79.1505662 90.0628948,85.4011185 85.4736882,90.0129149 Z" id="Path" fill="#377476"></path>
                    <g id="Group" transform="translate(62.038926, 26.850516)" fill="#A5BCED">
                        <path d="M18.5175972,7.40703888 L3.70351944,7.40703888 C1.65812213,7.40703888 0,5.74891675 0,3.70351944 C0,1.65812213 1.65812213,0 3.70351944,0 L18.5175972,0 C20.5629945,0 22.2211166,1.65812213 22.2211166,3.70351944 C22.2211166,5.74891675 20.5629945,7.40703888 18.5175972,7.40703888 Z" id="Path"></path>
                        <path d="M21.2952368,14.8140778 L3.70351944,14.8140778 C1.65812213,14.8140778 0,13.1559556 0,11.1105583 C0,9.06516101 1.65812213,7.40703888 3.70351944,7.40703888 L21.2952368,7.40703888 C23.3406341,7.40703888 24.9987562,9.06516101 24.9987562,11.1105583 C24.9987562,13.1559556 23.3406341,14.8140778 21.2952368,14.8140778 Z" id="Path"></path>
                        <path d="M21.2952368,22.2211166 L5.55527916,22.2211166 C3.50988185,22.2211166 1.85175972,20.5629945 1.85175972,18.5175972 C1.85175972,16.4721999 3.50988185,14.8140778 5.55527916,14.8140778 L21.2952368,14.8140778 C23.3406341,14.8140778 24.9987562,16.4721999 24.9987562,18.5175972 C24.9987562,20.5629945 23.3406341,22.2211166 21.2952368,22.2211166 Z" id="Path"></path>
                        <path d="M20.3693569,29.6281555 L5.55527916,29.6281555 C3.50988185,29.6281555 1.85175972,27.9700334 1.85175972,25.9246361 C1.85175972,23.8792388 3.50988185,22.2211166 5.55527916,22.2211166 L20.3693569,22.2211166 C22.4147542,22.2211166 24.0728764,23.8792388 24.0728764,25.9246361 C24.0728764,27.9700334 22.4147542,29.6281555 20.3693569,29.6281555 Z" id="Path"></path>
                    </g>
                    <path d="M69.4459646,27.7763958 C69.4459646,42.0719808 69.4459646,41.146101 69.3904118,41.6645937 C69.013947,44.339476 66.7121656,46.3203551 64.0110498,46.293993 C63.7248075,45.1853826 63.9674227,44.0067094 64.6682319,43.1012712 C65.369041,42.1958331 66.4492372,41.6654476 67.5942049,41.6645937 C65.7424452,41.6645937 65.659116,41.6645937 65.566528,41.6645937 C65.6824981,41.4349248 65.7427632,41.1811772 65.7424452,40.9238898 C65.7424452,26.66534 65.797998,27.4708554 65.6220808,26.8597747 L69.3904118,26.8597747 C69.4272731,27.1639265 69.4458241,27.4700185 69.4459646,27.7763958 Z" id="Path" fill="#7F96D1"></path>
                    <path d="M48.2155394,28.7022757 L48.1507278,34.2575548 L56.4836466,34.2575548 L56.5484582,36.9240888 C56.5535672,41.0777426 59.9222045,44.4422364 64.0758614,44.4422333 C66.0189889,44.4422333 67.5942049,42.8670173 67.5942049,40.9238898 L67.5942049,27.7763958 C67.5942049,24.7082998 65.1070217,22.2211166 62.0389257,22.2211166 L46.2989681,22.2211166 L37.0401695,24.9987562 L37.0401695,46.293993" id="Path" fill="#A5BCED"></path>
                    <path d="M57.5947024,41.6645937 C57.2678045,41.6645937 56.9651637,41.4921018 56.7984457,41.2109126 C55.5577667,39.0999065 55.6410959,37.4610991 55.5577667,35.1834347 L53.706007,35.1834347 C51.9929968,35.1835221 50.3510743,34.4986265 49.1458952,33.2812738 C47.9407161,32.0639212 47.2723564,30.4151985 47.2896596,28.7022757 C47.2896596,28.1909263 47.7041901,27.7763958 48.2155394,27.7763958 C48.7268888,27.7763958 49.1414193,28.1909263 49.1414193,28.7022757 C49.1240695,29.9240699 49.5973099,31.1018105 50.4552239,31.9719057 C51.3131378,32.842001 52.4840896,33.3317981 53.706007,33.331675 L56.4836466,33.331675 C56.9949959,33.331675 57.4095264,33.7462055 57.4095264,34.2575548 C57.4835968,37.1185236 57.3447148,38.525861 58.3909591,40.2942915 C58.5466153,40.5786617 58.5422035,40.923731 58.3793278,41.2040287 C58.2164521,41.4843264 57.9188385,41.6590217 57.5947024,41.6645937 L57.5947024,41.6645937 Z" id="Path" fill="#7F96D1"></path>
                    <path d="M99.4907661,26.7486692 C97.4044433,27.7858084 95.9168649,29.7316294 95.4631887,32.0169256 L95.3520831,32.5909711 C95.3520831,33.1023204 94.9375526,33.5168509 94.4262032,33.5168509 C93.9148539,33.5168509 93.5003234,33.1023204 93.5003234,32.5909711 L93.3892178,32.0169256 C92.9355416,29.7316294 91.4479631,27.7858084 89.3616404,26.7486692 C89.0524278,26.5902548 88.8579252,26.272066 88.8579252,25.9246361 C88.8579252,25.5772062 89.0524278,25.2590173 89.3616404,25.100603 C91.4479631,24.0634637 92.9355416,22.1176427 93.3892178,19.8323466 L93.5003234,19.2583011 C93.5003234,18.7469518 93.9148539,18.3324212 94.4262032,18.3324212 C94.9375526,18.3324212 95.3520831,18.7469518 95.3520831,19.2583011 L95.4631887,19.8323466 C95.9168649,22.1176427 97.4044433,24.0634637 99.4907661,25.100603 C99.7999787,25.2590173 99.9944813,25.5772062 99.9944813,25.9246361 C99.9944813,26.272066 99.7999787,26.5902548 99.4907661,26.7486692 L99.4907661,26.7486692 Z" id="Path" fill="#FFA100"></path>
                    <path d="M37.4568155,79.5238212 C35.3704927,80.5609604 33.8829143,82.5067815 33.4292381,84.7920776 L33.3366501,85.3661231 C33.3366501,85.8774724 32.9221195,86.292003 32.4107702,86.292003 C31.8994209,86.292003 31.4848904,85.8774724 31.4848904,85.3661231 L31.3737848,84.7920776 C30.9201086,82.5067815 29.4325301,80.5609604 27.3462074,79.5238212 C27.0369948,79.3654069 26.8424922,79.047218 26.8424922,78.6997881 C26.8424922,78.3523582 27.0369948,78.0341693 27.3462074,77.875755 C29.4325301,76.8386158 30.9201086,74.8927947 31.3737848,72.6074986 L31.4848904,72.0334531 C31.4848904,71.5221038 31.8994209,71.1075733 32.4107702,71.1075733 C32.9221195,71.1075733 33.3366501,71.5221038 33.3366501,72.0334531 L33.4477557,72.6074986 C33.9014318,74.8927947 35.3890103,76.8386158 37.475333,77.875755 C37.7828026,78.0376147 37.9737631,78.3579996 37.9699179,78.7054486 C37.9659553,79.0528976 37.7678442,79.368911 37.4568155,79.5238212 L37.4568155,79.5238212 Z" id="Path" fill="#FFA100"></path>
                    <path d="M80.5565229,34.2575548 L69.4459646,34.2575548 C68.9346153,34.2575548 68.5200848,33.8430243 68.5200848,33.331675 C68.5200848,32.8203256 68.9346153,32.4057951 69.4459646,32.4057951 L81.4824028,32.4057951 C82.864433,32.4221244 84.0482128,31.4198576 84.2600424,30.0540603 C84.4052633,31.1195858 84.0801762,32.1956182 83.3692722,33.0024943 C82.6583681,33.8093705 81.6318539,34.2674054 80.5565229,34.2575548 L80.5565229,34.2575548 Z" id="Path" fill="#7F96D1"></path>
                    <path d="M83.3341625,41.6645937 L69.4459646,41.6645937 C68.9346153,41.6645937 68.5200848,41.2500632 68.5200848,40.7387138 C68.5200848,40.2273645 68.9346153,39.812834 69.4459646,39.812834 L84.2600424,39.812834 C85.6420726,39.8291633 86.8258523,38.8268965 87.037682,37.4610991 C87.1829028,38.5266246 86.8578158,39.6026571 86.1469117,40.4095332 C85.4360077,41.2164093 84.4094935,41.6744443 83.3341625,41.6645937 Z" id="Path" fill="#7F96D1"></path>
                    <path d="M83.3341625,49.0716326 L67.5942049,49.0716326 C66.2724218,49.0702768 65.0515518,48.3645716 64.3906606,47.2198729 L84.2600424,47.2198729 C85.6420726,47.2362022 86.8258523,46.2339354 87.037682,44.868138 C87.1829028,45.9336635 86.8578158,47.009696 86.1469117,47.8165721 C85.4360077,48.6234482 84.4094935,49.0814832 83.3341625,49.0716326 L83.3341625,49.0716326 Z" id="Path" fill="#7F96D1"></path>
                    <path d="M82.4082827,56.4786715 L67.5942049,56.4786715 C66.2724218,56.4773157 65.0515518,55.7716105 64.3906606,54.6269117 L83.3341625,54.6269117 C84.7161928,54.6432411 85.8999725,53.6409743 86.1118021,52.2751769 C86.257023,53.3407024 85.931936,54.4167348 85.2210319,55.223611 C84.5101278,56.0304871 83.4836136,56.488522 82.4082827,56.4786715 L82.4082827,56.4786715 Z" id="Path" fill="#7F96D1"></path>
                    <rect id="Rectangle" fill="#377476" x="20.374332" y="19.4434771" width="16.6658375" height="42.5904736" rx="8.33291874"></rect>
                    <circle id="Oval" fill="#FFFFFF" cx="31.4848904" cy="56.4786715" r="1.85175972"></circle>
                </g>
                <path d="M73.1568273,67.1470666 C72.9548743,66.011911 72.4954996,64.9451148 71.8044844,64.0181622 L75.7654195,64.0181622 C76.5990127,64.0181622 77.274403,63.3425767 77.274403,62.5091788 C77.274403,61.6757808 76.5988174,61 75.7654195,61 L60.5089835,61 C59.6753902,61 59,61.6755855 59,62.5089835 C59,63.3423814 59.6755855,64.0181622 60.5089835,64.0181622 L65.8066365,64.0181622 C66.994917,64.0191388 68.1119085,64.4822244 68.9523377,65.3224583 C69.4712827,65.841208 69.8451106,66.465817 70.0564386,67.1472619 L60.5089835,67.1472619 C59.6753902,67.1472619 59,67.8228474 59,68.6562453 C59,69.4896433 59.6755855,70.1652288 60.5089835,70.1652288 L69.9968683,70.1652288 C69.3632749,71.9849542 67.6406197,73.2941331 65.6191366,73.2941331 L62.4861307,73.2941331 C61.5324203,73.2941331 60.6824208,73.8277266 60.2675774,74.6865151 C59.8529292,75.5453036 59.9638666,76.542764 60.5570303,77.2896385 L69.7699153,88.8872877 C70.067962,89.2622875 70.5081961,89.4577952 70.9525318,89.4577952 C71.2814378,89.4577952 71.6126876,89.350764 71.8902265,89.1302563 C72.5427652,88.6118972 72.6515542,87.6624837 72.1331951,87.0099451 L63.6349581,76.3119047 L65.6191366,76.3119047 C69.315814,76.3119047 72.4087809,73.667961 73.1208898,70.1650335 L75.7654195,70.1650335 C76.5990127,70.1650335 77.274403,69.4894479 77.274403,68.65605 C77.2745982,67.8226521 76.5990127,67.1470666 75.7654195,67.1470666 L73.1568273,67.1470666 Z" id="Path" fill="#FFFFFF"></path>
            </g>
        </g>
    </g>
</svg>