<?xml version="1.0" encoding="UTF-8"?>
<svg width="30px" height="30px" viewBox="0 0 30 30" version="1.1" xmlns="http://www.w3.org/2000/svg" xmlns:xlink="http://www.w3.org/1999/xlink">
    <title>Money in your bank in 5 mins </title>
    <g id="Page-1" stroke="none" stroke-width="1" fill="none" fill-rule="evenodd">
        <g id="Google-Pixel-6-Copy-19" transform="translate(-35.000000, -415.000000)" fill-rule="nonzero">
            <g id="Money-in-your-bank-in-5-mins-" transform="translate(35.000000, 415.000000)">
                <circle id="Oval" fill="#B3E6FD" cx="15" cy="15" r="15"></circle>
                <path d="M0,15 C0,22.5210763 5.53544031,28.748865 12.7544618,29.8326223 C9.72540117,26.0660078 7.68581213,21.5055969 6.92054795,16.7318982 C6.09058708,11.554638 6.76285714,6.14712329 8.82375734,1.32657534 C3.62037182,3.68060665 0,8.91751468 0,15 Z" id="Path" fill="#7DD5FB"></path>
                <circle id="Oval" fill="#FFFFFF" cx="15" cy="15" r="11.82"></circle>
                <path d="M3.13978474,14.9370646 C3.13978474,19.683816 5.62338552,23.640998 10.0074951,25.7168689 C8.49810176,22.9410763 7.42074364,19.8520157 6.92054795,16.7318982 C6.34590998,13.147456 6.46409002,9.57287671 7.29193738,6.03892368 C4.73518591,8.20702544 3.13978474,11.3222114 3.13978474,14.9370646 Z" id="Path" fill="#E9F9FF"></path>
                <path d="M14.9899022,7.03133072 L14.9161644,7.03133072 C14.1989237,7.03133072 13.6121331,7.61812133 13.6121331,8.33536204 L13.6121331,14.0725245 C13.6121331,14.7897652 14.1989237,15.3765558 14.9161644,15.3765558 L14.9899022,15.3765558 C15.7071429,15.3765558 16.2939335,14.7897652 16.2939335,14.0725245 L16.2939335,8.33536204 C16.2939335,7.61812133 15.7071429,7.03133072 14.9899022,7.03133072 L14.9899022,7.03133072 Z" id="Path" fill="#4B555F"></path>
                <path d="M20.8557534,20.2493542 L20.9040705,20.1936986 C21.37409,19.6519374 21.3153816,18.8241487 20.7736791,18.3541292 L16.4401761,14.5943836 C15.8984149,14.124364 15.0706262,14.1830724 14.6006067,14.724775 L14.5522896,14.7804305 C14.0822701,15.3221918 14.1409785,16.1499804 14.682681,16.62 L19.016184,20.3797456 C19.5579452,20.8497652 20.3857926,20.7911155 20.8557534,20.2493542 L20.8557534,20.2493542 Z" id="Path" fill="#4B555F"></path>
                <circle id="Oval" fill="#F6A7AE" cx="14.9434638" cy="15" r="2.55"></circle>
            </g>
        </g>
    </g>
</svg>