<?xml version="1.0" encoding="UTF-8"?>
<svg width="100%" height="100%" viewBox="0 0 203 188" version="1.1" xmlns="http://www.w3.org/2000/svg" xmlns:xlink="http://www.w3.org/1999/xlink">
    <title>Group 9</title>
    <defs>
        <linearGradient x1="91.0407349%" y1="50%" x2="7.71167851%" y2="50%" id="linearGradient-1">
            <stop stop-color="#EDFB8B" offset="0%"></stop>
            <stop stop-color="#6EDC85" offset="100%"></stop>
        </linearGradient>
        <path d="M64.53125,0 L5.46875,0 C2.45341797,0 0,2.45341797 0,5.46875 L0,44.84375 C0,47.859082 2.45341797,50.3125 5.46875,50.3125 L64.53125,50.3125 C67.546582,50.3125 70,47.859082 70,44.84375 L70,5.46875 C70,2.45341797 67.546582,0 64.53125,0 Z" id="path-2"></path>
        <linearGradient x1="91.0407349%" y1="50%" x2="7.71167851%" y2="50%" id="linearGradient-3">
            <stop stop-color="#EDFB8B" offset="0%"></stop>
            <stop stop-color="#6EDC85" offset="100%"></stop>
        </linearGradient>
        <path d="M64.53125,0 L5.46875,0 C2.45341797,0 0,2.43817935 0,5.43478261 L0,44.5652174 C0,47.5618207 2.45341797,50 5.46875,50 L64.53125,50 C67.546582,50 70,47.5618207 70,44.5652174 L70,5.43478261 C70,2.43817935 67.546582,0 64.53125,0 Z" id="path-4"></path>
        <path d="M64.53125,0 L5.46875,0 C2.45341797,0 0,2.43817935 0,5.43478261 L0,44.5652174 C0,47.5618207 2.45341797,50 5.46875,50 L64.53125,50 C67.546582,50 70,47.5618207 70,44.5652174 L70,5.43478261 C70,2.43817935 67.546582,0 64.53125,0 Z" id="path-5"></path>
        <path d="M64.53125,0 L5.46875,0 C2.45341797,0 0,2.45341797 0,5.46875 L0,44.84375 C0,47.859082 2.45341797,50.3125 5.46875,50.3125 L64.53125,50.3125 C67.546582,50.3125 70,47.859082 70,44.84375 L70,5.46875 C70,2.45341797 67.546582,0 64.53125,0 Z" id="path-6"></path>
    </defs>
    <g id="Page-1" stroke="none" stroke-width="1" fill="none" fill-rule="evenodd">
        <g id="Start-KYC_Popup" transform="translate(-79.000000, -208.000000)">
            <g id="Group-9" transform="translate(79.000000, 208.000000)">
                <g id="Group-8">
                    <path d="M27,0 L176,0 C190.911688,4.36619467e-15 203,12.0883118 203,27 L203,188 L203,188 L0,188 L0,27 C-1.82615513e-15,12.0883118 12.0883118,-4.36619467e-15 27,0 Z" id="Rectangle" fill="#030D4E" opacity="0.800000012"></path>
                    <path d="M32,5 L171,5 C185.911688,5 198,17.0883118 198,32 L198,188 L198,188 L5,188 L5,32 C5,17.0883118 17.0883118,5 32,5 Z" id="Rectangle" fill="#FFFFFF"></path>
                </g>
                <g id="Group-23-Copy" transform="translate(113.000000, 113.000000)" fill-rule="nonzero">
                    <g id="credit-card">
                        <g id="Path" opacity="0.5">
                            <use fill="#030D4E" xlink:href="#path-2"></use>
                            <use fill="url(#linearGradient-1)" xlink:href="#path-2"></use>
                        </g>
                        <g id="Group" transform="translate(8.750000, 30.625000)" fill="#FFFFFF">
                            <path d="M7.65625,5.46875 L2.1875,5.46875 C0.979316406,5.46875 0,4.48943359 0,3.28125 L0,2.1875 C0,0.979316406 0.979316406,0 2.1875,0 L7.65625,0 C8.86443359,0 9.84375,0.979316406 9.84375,2.1875 L9.84375,3.28125 C9.84375,4.48943359 8.86443359,5.46875 7.65625,5.46875 Z" id="Path"></path>
                            <path d="M21.88,5.46875 L16.41125,5.46875 C15.2030664,5.46875 14.22375,4.48943359 14.22375,3.28125 L14.22375,2.1875 C14.22375,0.979316406 15.2030664,0 16.41125,0 L21.88,0 C23.0881836,0 24.0675,0.979316406 24.0675,2.1875 L24.0675,3.28125 C24.0675,4.48943359 23.0881836,5.46875 21.88,5.46875 Z" id="Path"></path>
                            <path d="M36.10375,5.46875 L30.635,5.46875 C29.4268164,5.46875 28.4475,4.48943359 28.4475,3.28125 L28.4475,2.1875 C28.4475,0.979316406 29.4268164,0 30.635,0 L36.10375,0 C37.3119336,0 38.29125,0.979316406 38.29125,2.1875 L38.29125,3.28125 C38.29125,4.48943359 37.3119336,5.46875 36.10375,5.46875 Z" id="Path"></path>
                            <path d="M50.3275,5.46875 L44.85875,5.46875 C43.6505664,5.46875 42.67125,4.48943359 42.67125,3.28125 L42.67125,2.1875 C42.67125,0.979316406 43.6505664,0 44.85875,0 L50.3275,0 C51.5356836,0 52.515,0.979316406 52.515,2.1875 L52.515,3.28125 C52.515,4.48943359 51.5356836,5.46875 50.3275,5.46875 Z" id="Path"></path>
                        </g>
                        <path d="M31.71875,42.65625 L9.84375,42.65625 C9.23917969,42.65625 8.75,42.1665234 8.75,41.5625 C8.75,40.9584766 9.23917969,40.46875 9.84375,40.46875 L31.71875,40.46875 C32.3233203,40.46875 32.8125,40.9584766 32.8125,41.5625 C32.8125,42.1665234 32.3233203,42.65625 31.71875,42.65625 Z" id="Path" fill="#FFFFFF"></path>
                        <path d="M45.9375,42.65625 L36.09375,42.65625 C35.4891797,42.65625 35,42.1665234 35,41.5625 C35,40.9584766 35.4891797,40.46875 36.09375,40.46875 L45.9375,40.46875 C46.5420703,40.46875 47.03125,40.9584766 47.03125,41.5625 C47.03125,42.1665234 46.5420703,42.65625 45.9375,42.65625 Z" id="Path" fill="#FFFFFF"></path>
                    </g>
                    <g id="Bank-A/c" opacity="0.800000012" transform="translate(8.917480, 8.894922)" fill="#030D4E">
                        <path d="M4.91914063,4.57460937 C5.30195313,4.69583333 5.60182292,4.89840495 5.81875,5.18232422 C6.03567708,5.46624349 6.14414063,5.8155599 6.14414063,6.23027344 C6.14414063,6.8172526 5.91604818,7.26865234 5.45986328,7.58447266 C5.00367839,7.90029297 4.33854167,8.05820312 3.46445313,8.05820312 L0,8.05820312 L0,1.35898437 L3.27304688,1.35898437 C4.08971354,1.35898437 4.71656901,1.51529948 5.15361328,1.82792969 C5.59065755,2.1405599 5.80917969,2.56484375 5.80917969,3.10078125 C5.80917969,3.42617187 5.73102214,3.71647135 5.57470703,3.97167969 C5.41839193,4.22688802 5.19986979,4.42786458 4.91914063,4.57460937 Z M1.54082031,2.5265625 L1.54082031,4.10566406 L3.08164063,4.10566406 C3.46445313,4.10566406 3.7547526,4.03867187 3.95253906,3.9046875 C4.15032552,3.77070312 4.24921875,3.57291667 4.24921875,3.31132812 C4.24921875,3.04973958 4.15032552,2.85354818 3.95253906,2.72275391 C3.7547526,2.59195964 3.46445313,2.5265625 3.08164063,2.5265625 L1.54082031,2.5265625 Z M3.34960938,6.890625 C3.75794271,6.890625 4.06578776,6.82363281 4.27314453,6.68964844 C4.4805013,6.55566406 4.58417969,6.34830729 4.58417969,6.06757812 C4.58417969,5.5125 4.17265625,5.23496094 3.34960938,5.23496094 L1.54082031,5.23496094 L1.54082031,6.890625 L3.34960938,6.890625 Z" id="Shape"></path>
                        <path d="M9.29277344,2.8328125 C10.0902995,2.8328125 10.7027995,3.0226237 11.1302734,3.40224609 C11.5577474,3.78186849 11.7714844,4.35449219 11.7714844,5.12011719 L11.7714844,8.05820312 L10.3742188,8.05820312 L10.3742188,7.41699219 C10.0934896,7.89550781 9.5703125,8.13476562 8.8046875,8.13476562 C8.40911458,8.13476562 8.06617839,8.06777344 7.77587891,7.93378906 C7.48557943,7.79980469 7.26386719,7.61477865 7.11074219,7.37871094 C6.95761719,7.14264323 6.88105469,6.87467448 6.88105469,6.57480469 C6.88105469,6.09628906 7.06129557,5.71985677 7.42177734,5.44550781 C7.78225911,5.17115885 8.33893229,5.03398437 9.09179688,5.03398437 L10.2785156,5.03398437 C10.2785156,4.70859375 10.1796224,4.45817057 9.98183594,4.28271484 C9.78404948,4.10725911 9.48736979,4.01953125 9.09179688,4.01953125 C8.81744792,4.01953125 8.54788411,4.06259766 8.28310547,4.14873047 C8.01832682,4.23486328 7.79342448,4.35130208 7.60839844,4.49804687 L7.07246094,3.45488281 C7.3531901,3.25709635 7.68974609,3.10397135 8.08212891,2.99550781 C8.47451172,2.88704427 8.8780599,2.8328125 9.29277344,2.8328125 Z M9.17792969,7.12988281 C9.43313802,7.12988281 9.65963542,7.07086589 9.85742188,6.95283203 C10.0552083,6.83479818 10.1955729,6.6609375 10.2785156,6.43125 L10.2785156,5.90488281 L9.25449219,5.90488281 C8.64199219,5.90488281 8.33574219,6.10585937 8.33574219,6.5078125 C8.33574219,6.69921875 8.41070964,6.8507487 8.56064453,6.96240234 C8.71057943,7.07405599 8.91634115,7.12988281 9.17792969,7.12988281 Z" id="Shape"></path>
                        <path d="M16.2503906,2.8328125 C16.8884115,2.8328125 17.4036133,3.02421875 17.7959961,3.40703125 C18.1883789,3.78984375 18.3845703,4.35768229 18.3845703,5.11054687 L18.3845703,8.05820312 L16.8916016,8.05820312 L16.8916016,5.34023437 C16.8916016,4.93190104 16.8022786,4.62724609 16.6236328,4.42626953 C16.444987,4.22529297 16.1865885,4.12480469 15.8484375,4.12480469 C15.4720052,4.12480469 15.1721354,4.24124349 14.9488281,4.47412109 C14.7255208,4.7069987 14.6138672,5.053125 14.6138672,5.5125 L14.6138672,8.05820312 L13.1208984,8.05820312 L13.1208984,2.909375 L14.546875,2.909375 L14.546875,3.51230469 C14.7446615,3.2953776 14.9902995,3.12789714 15.2837891,3.00986328 C15.5772786,2.89182943 15.8994792,2.8328125 16.2503906,2.8328125 Z" id="Path"></path>
                        <polygon id="Path" points="21.9447266 6.03886719 21.2269531 6.74707031 21.2269531 8.05820312 19.7339844 8.05820312 19.7339844 0.95703125 21.2269531 0.95703125 21.2269531 4.9765625 23.4089844 2.909375 25.1890625 2.909375 23.0453125 5.09140625 25.3804688 8.05820312 23.5716797 8.05820312"></polygon>
                        <path d="M33.2759766,6.62265625 L30.165625,6.62265625 L29.5722656,8.05820312 L27.9835938,8.05820312 L30.9695313,1.35898437 L32.5007813,1.35898437 L35.4962891,8.05820312 L33.8693359,8.05820312 L33.2759766,6.62265625 Z M32.7878906,5.44550781 L31.7255859,2.88066406 L30.6632813,5.44550781 L32.7878906,5.44550781 Z" id="Shape"></path>
                        <polygon id="Path" points="38.5300781 -1.24344979e-13 39.8603516 -1.24344979e-13 36.7021484 9.01523437 35.371875 9.01523437"></polygon>
                        <path d="M42.0041016,8.13476562 C41.4554036,8.13476562 40.9625326,8.02151693 40.5254883,7.79501953 C40.088444,7.56852214 39.7471029,7.25429687 39.5014648,6.85234375 C39.2558268,6.45039062 39.1330078,5.99420573 39.1330078,5.48378906 C39.1330078,4.9733724 39.2558268,4.5171875 39.5014648,4.11523437 C39.7471029,3.71328125 40.088444,3.39905599 40.5254883,3.17255859 C40.9625326,2.9460612 41.4554036,2.8328125 42.0041016,2.8328125 C42.5464193,2.8328125 43.0201497,2.9460612 43.425293,3.17255859 C43.8304362,3.39905599 44.1255208,3.72285156 44.3105469,4.14394531 L43.1525391,4.76601562 C42.8845703,4.29388021 42.4985677,4.0578125 41.9945312,4.0578125 C41.6053385,4.0578125 41.283138,4.18541667 41.0279297,4.440625 C40.7727214,4.69583333 40.6451172,5.04355469 40.6451172,5.48378906 C40.6451172,5.92402344 40.7727214,6.27174479 41.0279297,6.52695312 C41.283138,6.78216146 41.6053385,6.90976562 41.9945312,6.90976562 C42.5049479,6.90976562 42.8909505,6.67369792 43.1525391,6.2015625 L44.3105469,6.83320312 C44.1255208,7.24153646 43.8304362,7.56054687 43.425293,7.79023437 C43.0201497,8.01992187 42.5464193,8.13476562 42.0041016,8.13476562 Z" id="Path"></path>
                    </g>
                </g>
                <g id="Group-21" transform="translate(21.000000, 42.000000)">
                    <g id="credit-card" fill-rule="nonzero">
                        <g id="Path" opacity="0.5">
                            <use fill="#030D4E" xlink:href="#path-4"></use>
                            <use fill="url(#linearGradient-3)" xlink:href="#path-4"></use>
                        </g>
                        <g id="Group" transform="translate(5.750000, 30.434783)" fill="#FFFFFF">
                            <path d="M51.65625,5.43478261 L2.1875,5.43478261 C0.979316406,5.43478261 0,4.46154891 0,3.26086957 L0,2.17391304 C0,0.973233696 0.979316406,0 2.1875,0 L51.65625,0 C52.8644336,0 53.84375,0.973233696 53.84375,2.17391304 L53.84375,3.26086957 C53.84375,4.46154891 52.8644336,5.43478261 51.65625,5.43478261 Z" id="Path"></path>
                        </g>
                        <path d="M28.71875,42.3913043 L6.84375,42.3913043 C6.23917969,42.3913043 5.75,41.9046196 5.75,41.3043478 C5.75,40.7040761 6.23917969,40.2173913 6.84375,40.2173913 L28.71875,40.2173913 C29.3233203,40.2173913 29.8125,40.7040761 29.8125,41.3043478 C29.8125,41.9046196 29.3233203,42.3913043 28.71875,42.3913043 Z" id="Path" fill="#FFFFFF"></path>
                        <path d="M42.9375,42.3913043 L33.09375,42.3913043 C32.4891797,42.3913043 32,41.9046196 32,41.3043478 C32,40.7040761 32.4891797,40.2173913 33.09375,40.2173913 L42.9375,40.2173913 C43.5420703,40.2173913 44.03125,40.7040761 44.03125,41.3043478 C44.03125,41.9046196 43.5420703,42.3913043 42.9375,42.3913043 Z" id="Path" fill="#FFFFFF"></path>
                    </g>
                    <text id="Personal-Info" font-family="ProductSans-Black, Product Sans Black" font-size="9.5" font-weight="800" fill="#2F3C65">
                        <tspan x="5" y="17">Personal Info</tspan>
                    </text>
                </g>
                <g id="Group-21" transform="translate(113.000000, 42.000000)" fill-rule="nonzero">
                    <g id="credit-card">
                        <g id="Path" opacity="0.5">
                            <use fill="#030D4E" xlink:href="#path-5"></use>
                            <use fill="url(#linearGradient-3)" xlink:href="#path-5"></use>
                        </g>
                        <g id="Group" transform="translate(8.750000, 30.434783)" fill="#FFFFFF">
                            <path d="M7.65625,5.43478261 L2.1875,5.43478261 C0.979316406,5.43478261 0,4.46154891 0,3.26086957 L0,2.17391304 C0,0.973233696 0.979316406,0 2.1875,0 L7.65625,0 C8.86443359,0 9.84375,0.973233696 9.84375,2.17391304 L9.84375,3.26086957 C9.84375,4.46154891 8.86443359,5.43478261 7.65625,5.43478261 Z" id="Path"></path>
                            <path d="M21.875,5.43478261 L16.40625,5.43478261 C15.1980664,5.43478261 14.21875,4.46154891 14.21875,3.26086957 L14.21875,2.17391304 C14.21875,0.973233696 15.1980664,0 16.40625,0 L21.875,0 C23.0831836,0 24.0625,0.973233696 24.0625,2.17391304 L24.0625,3.26086957 C24.0625,4.46154891 23.0831836,5.43478261 21.875,5.43478261 Z" id="Path"></path>
                            <path d="M36.09375,5.43478261 L30.625,5.43478261 C29.4168164,5.43478261 28.4375,4.46154891 28.4375,3.26086957 L28.4375,2.17391304 C28.4375,0.973233696 29.4168164,0 30.625,0 L36.09375,0 C37.3019336,0 38.28125,0.973233696 38.28125,2.17391304 L38.28125,3.26086957 C38.28125,4.46154891 37.3019336,5.43478261 36.09375,5.43478261 Z" id="Path"></path>
                            <path d="M50.3125,5.43478261 L44.84375,5.43478261 C43.6355664,5.43478261 42.65625,4.46154891 42.65625,3.26086957 L42.65625,2.17391304 C42.65625,0.973233696 43.6355664,0 44.84375,0 L50.3125,0 C51.5206836,0 52.5,0.973233696 52.5,2.17391304 L52.5,3.26086957 C52.5,4.46154891 51.5206836,5.43478261 50.3125,5.43478261 Z" id="Path"></path>
                        </g>
                        <path d="M31.71875,42.3913043 L9.84375,42.3913043 C9.23917969,42.3913043 8.75,41.9046196 8.75,41.3043478 C8.75,40.7040761 9.23917969,40.2173913 9.84375,40.2173913 L31.71875,40.2173913 C32.3233203,40.2173913 32.8125,40.7040761 32.8125,41.3043478 C32.8125,41.9046196 32.3233203,42.3913043 31.71875,42.3913043 Z" id="Path" fill="#FFFFFF"></path>
                        <path d="M45.9375,42.3913043 L36.09375,42.3913043 C35.4891797,42.3913043 35,41.9046196 35,41.3043478 C35,40.7040761 35.4891797,40.2173913 36.09375,40.2173913 L45.9375,40.2173913 C46.5420703,40.2173913 47.03125,40.7040761 47.03125,41.3043478 C47.03125,41.9046196 46.5420703,42.3913043 45.9375,42.3913043 Z" id="Path" fill="#FFFFFF"></path>
                    </g>
                    <g id="Aadhaar" opacity="0.800000012" transform="translate(8.000000, 10.000000)" fill="#030D4E">
                        <path d="M5.25356254,5.52533333 L2.16602579,5.52533333 L1.57701877,6.92533333 L0,6.92533333 L2.96403529,0.392 L4.48405338,0.392 L7.45758878,6.92533333 L5.84256955,6.92533333 L5.25356254,5.52533333 Z M4.76905677,4.37733333 L3.71454422,1.876 L2.66003167,4.37733333 L4.76905677,4.37733333 Z" id="Shape"></path>
                        <path d="M10.1081203,1.82933333 C10.8997964,1.82933333 11.5078037,2.01444444 11.932142,2.38466667 C12.3564804,2.75488889 12.5686496,3.31333333 12.5686496,4.06 L12.5686496,6.92533333 L11.1816331,6.92533333 L11.1816331,6.3 C10.9029631,6.76666667 10.3836236,7 9.62361457,7 C9.23094323,7 8.89052251,6.93466667 8.60235241,6.804 C8.31418231,6.67333333 8.09409636,6.49288889 7.94209455,6.26266667 C7.79009274,6.03244444 7.71409183,5.77111111 7.71409183,5.47866667 C7.71409183,5.012 7.89301063,4.64488889 8.25084822,4.37733333 C8.60868582,4.10977778 9.16127573,3.976 9.90861796,3.976 L11.086632,3.976 C11.086632,3.65866667 10.9884641,3.41444444 10.7921285,3.24333333 C10.5957928,3.07222222 10.3012893,2.98666667 9.90861796,2.98666667 C9.63628138,2.98666667 9.36869487,3.02866667 9.1058584,3.11266667 C8.84302194,3.19666667 8.61976928,3.31022222 8.43610043,3.45333333 L7.9040941,2.436 C8.18276408,2.24311111 8.51685139,2.09377778 8.90635603,1.988 C9.29586067,1.88222222 9.69644877,1.82933333 10.1081203,1.82933333 Z M9.99411898,6.02 C10.2474553,6.02 10.4722913,5.96244444 10.668627,5.84733333 C10.8649627,5.73222222 11.0042977,5.56266667 11.086632,5.33866667 L11.086632,4.82533333 L10.0701199,4.82533333 C9.46211264,4.82533333 9.15810903,5.02133333 9.15810903,5.41333333 C9.15810903,5.6 9.23252658,5.74777778 9.38136168,5.85666667 C9.53019679,5.96555556 9.73444922,6.02 9.99411898,6.02 Z" id="Shape"></path>
                        <path d="M19.1712282,0 L19.1712282,6.92533333 L17.7557114,6.92533333 L17.7557114,6.34666667 C17.3883737,6.78222222 16.8563673,7 16.1596924,7 C15.6783533,7 15.2429315,6.89422222 14.8534268,6.68266667 C14.4639222,6.47111111 14.1583352,6.16933333 13.9366659,5.77733333 C13.7149966,5.38533333 13.604162,4.93111111 13.604162,4.41466667 C13.604162,3.89822222 13.7149966,3.444 13.9366659,3.052 C14.1583352,2.66 14.4639222,2.35822222 14.8534268,2.14666667 C15.2429315,1.93511111 15.6783533,1.82933333 16.1596924,1.82933333 C16.8120335,1.82933333 17.3218729,2.03155556 17.6892106,2.436 L17.6892106,0 L19.1712282,0 Z M16.4161954,5.80533333 C16.7898665,5.80533333 17.1002036,5.67933333 17.3472065,5.42733333 C17.5942095,5.17533333 17.7177109,4.83777778 17.7177109,4.41466667 C17.7177109,3.99155556 17.5942095,3.654 17.3472065,3.402 C17.1002036,3.15 16.7898665,3.024 16.4161954,3.024 C16.0361909,3.024 15.7226872,3.15 15.4756842,3.402 C15.2286813,3.654 15.1051798,3.99155556 15.1051798,4.41466667 C15.1051798,4.83777778 15.2286813,5.17533333 15.4756842,5.42733333 C15.7226872,5.67933333 16.0361909,5.80533333 16.4161954,5.80533333 Z" id="Shape"></path>
                        <path d="M23.6457815,1.82933333 C24.2791224,1.82933333 24.7905451,2.016 25.1800498,2.38933333 C25.5695544,2.76266667 25.7643067,3.31644444 25.7643067,4.05066667 L25.7643067,6.92533333 L24.2822891,6.92533333 L24.2822891,4.27466667 C24.2822891,3.87644444 24.1936214,3.57933333 24.0162859,3.38333333 C23.8389505,3.18733333 23.5824474,3.08933333 23.2467767,3.08933333 C22.8731056,3.08933333 22.5754354,3.20288889 22.3537661,3.43 C22.1320968,3.65711111 22.0212622,3.99466667 22.0212622,4.44266667 L22.0212622,6.92533333 L20.5392445,6.92533333 L20.5392445,0 L22.0212622,0 L22.0212622,2.42666667 C22.2175978,2.23377778 22.4551007,2.086 22.7337706,1.98333333 C23.0124406,1.88066667 23.3164442,1.82933333 23.6457815,1.82933333 Z" id="Path"></path>
                        <path d="M29.1653472,1.82933333 C29.9570233,1.82933333 30.5650305,2.01444444 30.9893689,2.38466667 C31.4137073,2.75488889 31.6258765,3.31333333 31.6258765,4.06 L31.6258765,6.92533333 L30.23886,6.92533333 L30.23886,6.3 C29.96019,6.76666667 29.4408505,7 28.6808414,7 C28.2881701,7 27.9477494,6.93466667 27.6595793,6.804 C27.3714092,6.67333333 27.1513232,6.49288889 26.9993214,6.26266667 C26.8473196,6.03244444 26.7713187,5.77111111 26.7713187,5.47866667 C26.7713187,5.012 26.9502375,4.64488889 27.3080751,4.37733333 C27.6659127,4.10977778 28.2185026,3.976 28.9658448,3.976 L30.1438589,3.976 C30.1438589,3.65866667 30.045691,3.41444444 29.8493553,3.24333333 C29.6530197,3.07222222 29.3585162,2.98666667 28.9658448,2.98666667 C28.6935083,2.98666667 28.4259217,3.02866667 28.1630853,3.11266667 C27.9002488,3.19666667 27.6769962,3.31022222 27.4933273,3.45333333 L26.961321,2.436 C27.239991,2.24311111 27.5740783,2.09377778 27.9635829,1.988 C28.3530875,1.88222222 28.7536756,1.82933333 29.1653472,1.82933333 Z M29.0513458,6.02 C29.3046822,6.02 29.5295182,5.96244444 29.7258539,5.84733333 C29.9221895,5.73222222 30.0615245,5.56266667 30.1438589,5.33866667 L30.1438589,4.82533333 L29.1273468,4.82533333 C28.5193395,4.82533333 28.2153359,5.02133333 28.2153359,5.41333333 C28.2153359,5.6 28.2897534,5.74777778 28.4385886,5.85666667 C28.5874237,5.96555556 28.7916761,6.02 29.0513458,6.02 Z" id="Shape"></path>
                        <path d="M35.026917,1.82933333 C35.8185931,1.82933333 36.4266003,2.01444444 36.8509387,2.38466667 C37.2752771,2.75488889 37.4874463,3.31333333 37.4874463,4.06 L37.4874463,6.92533333 L36.1004298,6.92533333 L36.1004298,6.3 C35.8217598,6.76666667 35.3024203,7 34.5424112,7 C34.1497399,7 33.8093192,6.93466667 33.5211491,6.804 C33.232979,6.67333333 33.012893,6.49288889 32.8608912,6.26266667 C32.7088894,6.03244444 32.6328885,5.77111111 32.6328885,5.47866667 C32.6328885,5.012 32.8118073,4.64488889 33.1696449,4.37733333 C33.5274825,4.10977778 34.0800724,3.976 34.8274146,3.976 L36.0054286,3.976 C36.0054286,3.65866667 35.9072608,3.41444444 35.7109251,3.24333333 C35.5145895,3.07222222 35.220086,2.98666667 34.8274146,2.98666667 C34.555078,2.98666667 34.2874915,3.02866667 34.0246551,3.11266667 C33.7618186,3.19666667 33.5385659,3.31022222 33.3548971,3.45333333 L32.8228907,2.436 C33.1015607,2.24311111 33.435648,2.09377778 33.8251527,1.988 C34.2146573,1.88222222 34.6152454,1.82933333 35.026917,1.82933333 Z M34.9129156,6.02 C35.166252,6.02 35.391088,5.96244444 35.5874237,5.84733333 C35.7837593,5.73222222 35.9230943,5.56266667 36.0054286,5.33866667 L36.0054286,4.82533333 L34.9889165,4.82533333 C34.3809093,4.82533333 34.0769057,5.02133333 34.0769057,5.41333333 C34.0769057,5.6 34.1513232,5.74777778 34.3001583,5.85666667 C34.4489934,5.96555556 34.6532459,6.02 34.9129156,6.02 Z" id="Shape"></path>
                        <path d="M40.2424791,2.56666667 C40.4198145,2.324 40.6589007,2.14044444 40.9597376,2.016 C41.2605745,1.89155556 41.6073287,1.82933333 42,1.82933333 L42,3.17333333 C41.8353314,3.16088889 41.7244967,3.15466667 41.667496,3.15466667 C41.2431577,3.15466667 40.9106537,3.27133333 40.6699842,3.50466667 C40.4293146,3.738 40.3089799,4.088 40.3089799,4.55466667 L40.3089799,6.92533333 L38.8269622,6.92533333 L38.8269622,1.904 L40.2424791,1.904 L40.2424791,2.56666667 Z" id="Path"></path>
                    </g>
                </g>
                <g id="Group-22" transform="translate(21.000000, 112.000000)" fill-rule="nonzero">
                    <g id="credit-card">
                        <g id="Path" opacity="0.5">
                            <use fill="#030D4E" xlink:href="#path-6"></use>
                            <use fill="url(#linearGradient-1)" xlink:href="#path-6"></use>
                        </g>
                        <g id="Group" transform="translate(8.750000, 30.625000)" fill="#FFFFFF">
                            <path d="M27.65625,5.46875 L2.1875,5.46875 C0.979316406,5.46875 0,4.48943359 0,3.28125 L0,2.1875 C0,0.979316406 0.979316406,0 2.1875,0 L27.65625,0 C28.8644336,0 29.84375,0.979316406 29.84375,2.1875 L29.84375,3.28125 C29.84375,4.48943359 28.8644336,5.46875 27.65625,5.46875 Z" id="Path"></path>
                        </g>
                        <path d="M31.71875,42.65625 L9.84375,42.65625 C9.23917969,42.65625 8.75,42.1665234 8.75,41.5625 C8.75,40.9584766 9.23917969,40.46875 9.84375,40.46875 L31.71875,40.46875 C32.3233203,40.46875 32.8125,40.9584766 32.8125,41.5625 C32.8125,42.1665234 32.3233203,42.65625 31.71875,42.65625 Z" id="Path" fill="#FFFFFF"></path>
                        <path d="M45.9375,42.65625 L36.09375,42.65625 C35.4891797,42.65625 35,42.1665234 35,41.5625 C35,40.9584766 35.4891797,40.46875 36.09375,40.46875 L45.9375,40.46875 C46.5420703,40.46875 47.03125,40.9584766 47.03125,41.5625 C47.03125,42.1665234 46.5420703,42.65625 45.9375,42.65625 Z" id="Path" fill="#FFFFFF"></path>
                    </g>
                    <g id="PAN" opacity="0.800000012" transform="translate(8.842285, 10.253906)" fill="#030D4E">
                        <path d="M2.89980469,0 C3.49316406,0 4.00836589,0.0988932292 4.44541016,0.296679688 C4.88245443,0.494466146 5.21901042,0.775195313 5.45507813,1.13886719 C5.69114583,1.50253906 5.80917969,1.93320312 5.80917969,2.43085937 C5.80917969,2.92213542 5.69114583,3.35120443 5.45507813,3.71806641 C5.21901042,4.08492839 4.88245443,4.36565755 4.44541016,4.56025391 C4.00836589,4.75485026 3.49316406,4.85214844 2.89980469,4.85214844 L1.55039063,4.85214844 L1.55039063,6.69921875 L0,6.69921875 L0,0 L2.89980469,0 Z M2.81367188,3.58886719 C3.27942708,3.58886719 3.63352865,3.48837891 3.87597656,3.28740234 C4.11842448,3.08642578 4.23964844,2.80091146 4.23964844,2.43085937 C4.23964844,2.05442708 4.11842448,1.76572266 3.87597656,1.56474609 C3.63352865,1.36376953 3.27942708,1.26328125 2.81367188,1.26328125 L1.55039063,1.26328125 L1.55039063,3.58886719 L2.81367188,3.58886719 Z" id="Shape"></path>
                        <path d="M10.9867188,5.26367188 L7.87636719,5.26367188 L7.28300781,6.69921875 L5.69433594,6.69921875 L8.68027344,0 L10.2115234,0 L13.2070313,6.69921875 L11.5800781,6.69921875 L10.9867188,5.26367188 Z M10.4986328,4.08652344 L9.43632813,1.52167969 L8.37402344,4.08652344 L10.4986328,4.08652344 Z" id="Shape"></path>
                        <polygon id="Path" points="20.0498047 0 20.0498047 6.69921875 18.7769531 6.69921875 15.4369141 2.63183594 15.4369141 6.69921875 13.9056641 6.69921875 13.9056641 0 15.1880859 0 18.5185547 4.06738281 18.5185547 0"></polygon>
                    </g>
                </g>
            </g>
        </g>
    </g>
</svg>