<?xml version="1.0" encoding="UTF-8"?>
<svg width="30px" height="30px" viewBox="0 0 30 30" version="1.1" xmlns="http://www.w3.org/2000/svg" xmlns:xlink="http://www.w3.org/1999/xlink">
    <title>Customer Support</title>
    <defs>
        <linearGradient x1="71.138618%" y1="88.8347087%" x2="28.5071268%" y2="10.5109611%" id="linearGradient-1">
            <stop stop-color="#AE3EFF" offset="0.26%"></stop>
            <stop stop-color="#FA7DFF" offset="100%"></stop>
        </linearGradient>
    </defs>
    <g id="Page-1" stroke="none" stroke-width="1" fill="none" fill-rule="evenodd">
        <g id="23:-Account-Page" transform="translate(-19.000000, -487.000000)" fill-rule="nonzero">
            <g id="Customer-Support" transform="translate(19.000000, 487.000000)">
                <circle id="Oval" fill="url(#linearGradient-1)" cx="15" cy="15" r="15"></circle>
                <path d="M21.547887,16.8315829 C20.5855214,15.9551138 19.1090273,15.9867467 18.1864216,16.9054764 L17.7536884,17.3355839 C17.6144036,17.4743686 17.4008502,17.5030008 17.236059,17.4056014 C16.0410103,16.6995499 13.8510878,15.1456614 12.6116529,12.6739185 C12.5245061,12.500125 12.548012,12.2938235 12.6701675,12.1605401 L13.1789197,11.6070268 C14.0737684,10.6327832 14.0485121,9.13053263 13.1212803,8.18704676 L11.935984,6.979995 C11.4604901,6.49649912 10.8138285,6.22530633 10.1210303,6.25181295 C9.44323581,6.27269317 8.79957489,6.57814454 8.35483871,7.08977244 L7.54426107,8.02225556 C6.22530633,9.53888472 5.87934484,11.6377844 6.64178545,13.5 C7.9116029,16.6009002 10.736184,20.8340835 16.9832458,23.3899725 C17.5936484,23.6397849 18.2325581,23.7615654 18.8673418,23.7615654 C20.2179295,23.7615654 21.5501375,23.2114279 22.5530133,22.1795449 L23.0501375,21.6677919 C23.5230058,21.1812953 23.771943,20.540135 23.7510628,19.8619655 C23.7305576,19.1836709 23.4431108,18.5587647 22.9421105,18.1026507 L21.547887,16.8315829 Z M21.7951988,20.4488622 L21.2980745,20.9606152 C20.3250813,21.9626157 18.8908477,22.2804451 17.6461615,21.7713178 C11.959865,19.4443611 9.4036009,15.6284071 8.26056514,12.8372093 C7.75006252,11.5903976 7.98162041,10.1851713 8.86409102,9.17029257 L9.67516879,8.23743436 C9.67554389,8.23743436 9.67554389,8.23743436 9.67554389,8.23705926 C9.80282571,8.09052263 9.98012003,8.00637659 10.1744186,8.00037509 C10.1820455,8.00037509 10.1894224,8 10.1966742,8 C10.3828457,8 10.5567642,8.07301825 10.687922,8.20630158 L11.8732183,9.41297824 C12.1474119,9.69192298 12.1546637,10.1356589 11.8907227,10.4236059 L11.3814704,10.9778695 C10.7710678,11.6429107 10.6370343,12.6397849 11.0475119,13.4581145 C12.4882471,16.3304576 14.9856214,18.1077769 16.3459615,18.9116029 C17.1967992,19.4138535 18.2834459,19.2763191 18.9877469,18.5755189 L19.41998,18.1457864 C19.6805451,17.8864716 20.0977744,17.8770943 20.3694674,18.1244061 L21.7635659,19.3954739 C21.9113528,19.5303826 21.9963741,19.7149287 22.0023756,19.9148537 C22.0082521,20.1157789 21.9348587,20.3049512 21.7951988,20.4488622 L21.7951988,20.4488622 Z" id="Shape" fill="#FFF8F8"></path>
            </g>
        </g>
    </g>
</svg>