<?xml version="1.0" encoding="UTF-8"?>
<svg width="100%" height="100%" viewBox="0 0 18 12.9375" version="1.1" xmlns="http://www.w3.org/2000/svg" xmlns:xlink="http://www.w3.org/1999/xlink">
    <title>credit-card</title>
    <g id="Page-1" stroke="none" stroke-width="1" fill="none" fill-rule="evenodd">
        <g id="16:-Mandate" transform="translate(-34.000000, -452.000000)" fill-rule="nonzero">
            <g id="credit-card" transform="translate(34.000000, 452.000000)">
                <path d="M16.59375,0 L1.40625,0 C0.630878906,0 0,0.630878906 0,1.40625 L0,11.53125 C0,12.3066211 0.630878906,12.9375 1.40625,12.9375 L16.59375,12.9375 C17.3691211,12.9375 18,12.3066211 18,11.53125 L18,1.40625 C18,0.630878906 17.3691211,0 16.59375,0 Z" id="Path" fill="#5D647F"></path>
                <path d="M6.1875,5.625 L2.8125,5.625 C2.50182422,5.625 2.25,5.37317578 2.25,5.0625 L2.25,2.8125 C2.25,2.50182422 2.50182422,2.25 2.8125,2.25 L6.1875,2.25 C6.49817578,2.25 6.75,2.50182422 6.75,2.8125 L6.75,5.0625 C6.75,5.37317578 6.49817578,5.625 6.1875,5.625 Z" id="Path" fill="#FFD100"></path>
                <g id="Group" transform="translate(2.250000, 7.875000)" fill="#B8BAC0">
                    <path d="M1.96875,1.40625 L0.5625,1.40625 C0.251824219,1.40625 0,1.15442578 0,0.84375 L0,0.5625 C0,0.251824219 0.251824219,0 0.5625,0 L1.96875,0 C2.27942578,0 2.53125,0.251824219 2.53125,0.5625 L2.53125,0.84375 C2.53125,1.15442578 2.27942578,1.40625 1.96875,1.40625 Z" id="Path"></path>
                    <path d="M5.625,1.40625 L4.21875,1.40625 C3.90807422,1.40625 3.65625,1.15442578 3.65625,0.84375 L3.65625,0.5625 C3.65625,0.251824219 3.90807422,0 4.21875,0 L5.625,0 C5.93567578,0 6.1875,0.251824219 6.1875,0.5625 L6.1875,0.84375 C6.1875,1.15442578 5.93567578,1.40625 5.625,1.40625 Z" id="Path"></path>
                    <path d="M9.28125,1.40625 L7.875,1.40625 C7.56432422,1.40625 7.3125,1.15442578 7.3125,0.84375 L7.3125,0.5625 C7.3125,0.251824219 7.56432422,0 7.875,0 L9.28125,0 C9.59192578,0 9.84375,0.251824219 9.84375,0.5625 L9.84375,0.84375 C9.84375,1.15442578 9.59192578,1.40625 9.28125,1.40625 Z" id="Path"></path>
                    <path d="M12.9375,1.40625 L11.53125,1.40625 C11.2205742,1.40625 10.96875,1.15442578 10.96875,0.84375 L10.96875,0.5625 C10.96875,0.251824219 11.2205742,0 11.53125,0 L12.9375,0 C13.2481758,0 13.5,0.251824219 13.5,0.5625 L13.5,0.84375 C13.5,1.15442578 13.2481758,1.40625 12.9375,1.40625 Z" id="Path"></path>
                </g>
                <path d="M8.15625,10.96875 L2.53125,10.96875 C2.37578906,10.96875 2.25,10.8428203 2.25,10.6875 C2.25,10.5321797 2.37578906,10.40625 2.53125,10.40625 L8.15625,10.40625 C8.31171094,10.40625 8.4375,10.5321797 8.4375,10.6875 C8.4375,10.8428203 8.31171094,10.96875 8.15625,10.96875 Z" id="Path" fill="#8A8895"></path>
                <path d="M11.8125,10.96875 L9.28125,10.96875 C9.12578906,10.96875 9,10.8428203 9,10.6875 C9,10.5321797 9.12578906,10.40625 9.28125,10.40625 L11.8125,10.40625 C11.9679609,10.40625 12.09375,10.5321797 12.09375,10.6875 C12.09375,10.8428203 11.9679609,10.96875 11.8125,10.96875 Z" id="Path" fill="#8A8895"></path>
                <polygon id="Path" fill="#FF9500" points="6.75 4.21875 3.9375 4.21875 3.9375 3.65625 6.75 3.65625 6.75 3.09375 3.9375 3.09375 3.9375 2.25 3.375 2.25 3.375 5.625 3.9375 5.625 3.9375 4.78125 6.75 4.78125"></polygon>
                <circle id="Oval" fill="#FF4F19" cx="14.0625" cy="3.9375" r="1.6875"></circle>
            </g>
        </g>
    </g>
</svg>