<?xml version="1.0" encoding="UTF-8"?>
<svg width="100%" height="100%" viewBox="0 0 30 30" version="1.1" xmlns="http://www.w3.org/2000/svg" xmlns:xlink="http://www.w3.org/1999/xlink">
    <title>education</title>
    <defs>
        <linearGradient x1="71.138618%" y1="88.8347087%" x2="28.5071268%" y2="10.5109611%" id="linearGradient-1">
            <stop stop-color="#AE3EFF" offset="0.26%"></stop>
            <stop stop-color="#FA7DFF" offset="100%"></stop>
        </linearGradient>
        <linearGradient x1="71.6137368%" y1="90.9852463%" x2="26.9984163%" y2="6.38492957%" id="linearGradient-2">
            <stop stop-color="#FD6200" offset="0.26%"></stop>
            <stop stop-color="#FFD700" offset="100%"></stop>
        </linearGradient>
        <circle id="path-3" cx="15" cy="15" r="15"></circle>
    </defs>
    <g id="Page-1" stroke="none" stroke-width="1" fill="none" fill-rule="evenodd">
        <g id="Profile" transform="translate(-31.000000, -407.000000)" fill-rule="nonzero">
            <g id="education" transform="translate(31.000000, 407.000000)">
                <g id="Oval">
                    <use fill="url(#linearGradient-1)" xlink:href="#path-3"></use>
                    <use fill="url(#linearGradient-2)" xlink:href="#path-3"></use>
                </g>
                <g id="graduation-cap" transform="translate(6.000000, 8.000000)" fill="#FFFFFF">
                    <path d="M17.8455252,10.5439647 L16.4513281,9.14973252 L16.4513281,4.36739855 L17.3615408,4.03924672 C17.5704893,3.96387901 17.7098352,3.76572241 17.710011,3.54355642 C17.7101867,3.32146073 17.5711221,3.1230229 17.3622439,3.04740913 L9.03453432,0.0315057395 C8.91856507,-0.0105019132 8.79141722,-0.0105019132 8.67544798,0.0315057395 L0.347773587,3.04740913 C0.139703884,3.12277683 0.00085013641,3.31998431 3.22046179e-06,3.54127148 C-0.00076689457,3.76255865 0.136645586,3.96078556 0.344117691,4.03766484 L3.41749598,5.17616011 L3.41749598,8.65122999 C3.41749598,8.75907892 3.45053966,8.8643617 3.51223291,8.95280627 C3.54615541,9.00145781 3.86748758,9.4402708 4.69020482,9.85437134 C5.72956906,10.3775863 7.09279648,10.6428849 8.74195717,10.6428849 C10.3899227,10.6428849 11.76004,10.3781488 12.8142388,9.85595322 C13.6450763,9.44441884 13.977095,9.01017571 14.0122478,8.96205146 C14.0780539,8.8718141 14.1135232,8.76301604 14.1135232,8.65130029 L14.1135232,5.21018806 L15.3967779,4.74754144 L15.3967779,9.14973252 L14.0025456,10.5439647 C13.9036607,10.6428497 13.848084,10.7769578 13.848084,10.9167958 C13.848084,11.0566339 13.9036255,11.1907771 14.0025456,11.2896269 L15.3967779,12.683824 L15.3967779,13.8536053 C15.3967779,14.1448115 15.6328644,14.380898 15.9240706,14.380898 C16.2152768,14.380898 16.4513633,14.1448115 16.4513633,13.8536053 L16.4513633,12.683824 L17.8455604,11.2896269 C18.0514857,11.0837719 18.0514857,10.749855 17.8455252,10.5439647 Z M8.85500872,1.08809487 L15.6311067,3.54208 L8.74445302,6.02489045 L2.06035001,3.54879419 L8.85500872,1.08809487 Z M13.0589377,8.44108627 C11.2562997,10.0631089 5.89977915,9.87711523 4.47208141,8.44635919 L4.47208141,5.56684885 L8.55877568,7.08074138 C8.62363268,7.09100601 8.68486894,7.14693419 8.9207797,7.08235841 L13.0589377,5.59047157 L13.0589377,8.44108627 L13.0589377,8.44108627 Z M15.9240354,11.7197572 L15.1210389,10.9167958 L15.9240354,10.1137994 L16.7269968,10.9167958 L15.9240354,11.7197572 Z" id="Shape"></path>
                </g>
            </g>
        </g>
    </g>
</svg>