<?xml version="1.0" encoding="UTF-8"?>
<svg width="100%" height="100%" viewBox="0 0 40 39.3644531" version="1.1" xmlns="http://www.w3.org/2000/svg" xmlns:xlink="http://www.w3.org/1999/xlink">
    <title>help</title>
    <defs>
        <linearGradient x1="91.0407349%" y1="50%" x2="7.71167851%" y2="50%" id="linearGradient-1">
            <stop stop-color="#EDFB8B" offset="0%"></stop>
            <stop stop-color="#6EDC85" offset="100%"></stop>
        </linearGradient>
        <path d="M38.3364844,7.73632812 L1.66351563,7.73632812 C0.744765625,7.73632812 0,8.48109375 0,9.39984375 L0,26.9889844 C0,27.9077344 0.744765625,28.6525 1.66351563,28.6525 L16.3053906,28.6525 C16.6869531,28.6525 17.0395313,28.8560937 17.2303125,29.1864844 L19.0750781,32.3817187 C19.4861719,33.09375 20.5138281,33.09375 20.9249219,32.3817187 L22.7696875,29.1864844 C22.9604688,28.8560156 23.3130469,28.6525 23.6946094,28.6525 L38.3364063,28.6525 C39.2551563,28.6525 39.9999219,27.9077344 39.9999219,26.9889844 L39.9999219,9.39984375 C39.9999219,8.48109375 39.2552344,7.73632812 38.3364844,7.73632812 Z" id="path-2"></path>
    </defs>
    <g id="Page-1" stroke="none" stroke-width="1" fill="none" fill-rule="evenodd">
        <g id="5:-Congratulations" transform="translate(-306.000000, -11.000000)" fill-rule="nonzero">
            <g id="help" transform="translate(306.000000, 11.000000)">
                <g id="Path">
                    <use fill="#FE7D43" xlink:href="#path-2"></use>
                    <use fill="url(#linearGradient-1)" xlink:href="#path-2"></use>
                </g>
                <path d="M38.3364844,7.73632812 L37.5855469,7.73632812 L37.5855469,24.5745313 C37.5855469,25.4932813 36.8407813,26.238125 35.9220313,26.238125 L21.2801563,26.238125 C20.8985938,26.238125 20.5460156,26.4416406 20.3552344,26.7721094 L18.5104688,29.9673438 C18.3759375,30.2003125 18.175,30.3555469 17.9517188,30.4360938 L19.0751563,32.381875 C19.48625,33.0939063 20.5139063,33.0939063 20.925,32.381875 L22.7697656,29.1866406 C22.9605469,28.8561719 23.313125,28.6526563 23.6946875,28.6526563 L38.3364844,28.6526563 C39.2552344,28.6526563 40,27.9078125 40,26.9890625 L40,9.39984375 C40,8.48109375 39.2552344,7.73632812 38.3364844,7.73632812 Z" id="Path" fill="#D9F68A"></path>
                <path d="M20,2.471875 C19.6665625,2.471875 19.3964062,2.20164062 19.3964062,1.86828125 L19.3964062,0.60359375 C19.3964062,0.27015625 19.6666406,0 20,0 C20.3333594,0 20.6035937,0.270234375 20.6035937,0.60359375 L20.6035937,1.86828125 C20.6035937,2.20164063 20.3333594,2.471875 20,2.471875 Z" id="Path" fill="#8EBAC5"></path>
                <path d="M25.651875,4.81296875 C25.4974219,4.81296875 25.3428906,4.75398437 25.225,4.63617187 C24.9892969,4.40039062 24.9892969,4.01828125 25.225,3.78242187 L26.1192969,2.888125 C26.3550781,2.6525 26.7371875,2.6525 26.9730469,2.888125 C27.20875,3.12390625 27.20875,3.50601562 26.9730469,3.741875 L26.07875,4.63617187 C25.9608594,4.7540625 25.8063281,4.81296875 25.651875,4.81296875 Z" id="Path" fill="#8EBAC5"></path>
                <path d="M14.3482031,4.81296875 C14.19375,4.81296875 14.0392187,4.75398437 13.9213281,4.63617187 L13.0270312,3.741875 C12.7913281,3.50609375 12.7913281,3.12398437 13.0270312,2.888125 C13.2628125,2.6525 13.6449219,2.6525 13.8807812,2.888125 L14.7750781,3.78242187 C15.0107812,4.01820312 15.0107812,4.4003125 14.7750781,4.63617187 C14.6571094,4.7540625 14.5026562,4.81296875 14.3482031,4.81296875 L14.3482031,4.81296875 Z" id="Path" fill="#8EBAC5"></path>
                <path d="M20,39.3644531 C19.6665625,39.3644531 19.3964062,39.0942188 19.3964062,38.7608594 L19.3964062,37.4961719 C19.3964062,37.1627344 19.6666406,36.8925781 20,36.8925781 C20.3333594,36.8925781 20.6035937,37.1628125 20.6035937,37.4961719 L20.6035937,38.7608594 C20.6035937,39.0942188 20.3333594,39.3644531 20,39.3644531 Z" id="Path" fill="#8EBAC5"></path>
                <path d="M26.5460938,36.6528906 C26.3916406,36.6528906 26.2371094,36.5939063 26.1192188,36.4760938 L25.2249219,35.5817969 C24.9892188,35.3460156 24.9892188,34.9639063 25.2249219,34.7280469 C25.4607031,34.4924219 25.8428125,34.4924219 26.0786719,34.7280469 L26.9729688,35.6223438 C27.2086719,35.858125 27.2086719,36.2402344 26.9729688,36.4760938 C26.8550781,36.5939844 26.7005469,36.6528906 26.5460938,36.6528906 Z" id="Path" fill="#8EBAC5"></path>
                <path d="M13.4539062,36.6528906 C13.2994531,36.6528906 13.1449219,36.5939063 13.0270312,36.4760938 C12.7913281,36.2403125 12.7913281,35.8582031 13.0270312,35.6223438 L13.9213281,34.7280469 C14.1571094,34.4924219 14.5392187,34.4924219 14.7750781,34.7280469 C15.0107812,34.9638281 15.0107812,35.3459375 14.7750781,35.5817969 L13.8807812,36.4760938 C13.7628906,36.5939844 13.6083594,36.6528906 13.4539062,36.6528906 Z" id="Path" fill="#8EBAC5"></path>
                <g id="Group" transform="translate(4.937891, 13.759297)" fill="#377476">
                    <path d="M18.4375,7.79289062 C18.4363281,7.79289062 18.4352344,7.79289062 18.4340625,7.79289062 C17.8057031,7.79648437 16.905,7.79960937 16.3258594,7.799375 L16.3258594,0.648828125 C16.3258594,0.315390625 16.055625,0.045234375 15.7222656,0.045234375 C15.3888281,0.045234375 15.1186719,0.31546875 15.1186719,0.648828125 L15.1186719,8.39648437 C15.1186719,8.69046875 15.3304688,8.94171875 15.6202344,8.99140625 C15.6636719,8.99890625 15.7108594,9.00695312 16.5482813,9.00695312 C16.9585156,9.00695312 17.5586719,9.00507812 18.4408594,9.00007812 C18.7742188,8.99820312 19.0429688,8.72648437 19.0411035,8.39304687 C19.0391406,8.06085937 18.7692969,7.79289062 18.4375,7.79289062 L18.4375,7.79289062 Z" id="Path"></path>
                    <path d="M5.96945312,0.045234375 C5.63601562,0.045234375 5.36585937,0.31546875 5.36585937,0.648828125 L5.36585937,3.78929687 L1.2071875,3.78929687 L1.2071875,0.648828125 C1.2071875,0.315390625 0.936953125,0.045234375 0.60359375,0.045234375 C0.27015625,0.045234375 0,0.31546875 0,0.648828125 L0,8.40304687 C0,8.73648437 0.270234375,9.00664062 0.60359375,9.00664062 C0.93703125,9.00664062 1.2071875,8.73640625 1.2071875,8.40304687 L1.2071875,4.9965625 L5.36585937,4.9965625 L5.36585937,8.40304687 C5.36585937,8.73648437 5.63609375,9.00664062 5.96945312,9.00664062 C6.3028125,9.00664062 6.57304689,8.73640625 6.57304689,8.40304687 L6.57304689,0.648828125 C6.573125,0.315390625 6.30289062,0.045234375 5.96945312,0.045234375 L5.96945312,0.045234375 Z" id="Path"></path>
                    <path d="M12.7917188,1.28789063 C13.1251563,1.28789063 13.3953125,1.01765625 13.3953125,0.684296875 C13.3953125,0.350859375 13.1250781,0.080703125 12.7917188,0.080703125 L9.55429688,0.080703125 C9.22085938,0.080703125 8.95070313,0.3509375 8.95070313,0.684296875 L8.95070313,8.36765625 C8.95070313,8.70109375 9.2209375,8.97125 9.55429688,8.97125 L12.7917969,8.97125 C13.1252344,8.97125 13.3953906,8.70101563 13.3953906,8.36765625 C13.3953906,8.03429688 13.1251563,7.7640625 12.7917969,7.7640625 L10.1579688,7.7640625 L10.1579688,5.12960938 L12.553125,5.12960938 C12.8865625,5.12960938 13.1567188,4.859375 13.1567188,4.52601563 C13.1567188,4.19265625 12.8864844,3.92242188 12.553125,3.92242188 L10.1579688,3.92242188 L10.1579688,1.28804688 L12.7917188,1.28804688 L12.7917188,1.28789063 Z" id="Path"></path>
                    <path d="M23.7672656,0.045234375 L21.6082031,0.045234375 C21.2836719,0.03875 20.9989844,0.325078125 21.0046094,0.648828125 L21.0046094,8.40304688 C21.0046094,8.73648438 21.2748437,9.00664063 21.6082031,9.00664063 C21.9415625,9.00664063 22.2117969,8.73640625 22.2117969,8.40304688 L22.2117969,5.63523438 C22.7141406,5.63242188 23.4115625,5.62898438 23.7671875,5.62898438 C25.3302344,5.62898438 26.6019531,4.3765625 26.6019531,2.8371875 C26.6020312,1.29765625 25.3303125,0.045234375 23.7672656,0.045234375 L23.7672656,0.045234375 Z M23.7672656,4.42171875 C23.4139062,4.42171875 22.7269531,4.42507813 22.2248437,4.4278125 L22.2139062,1.25242188 L23.7672656,1.25242188 C24.6494531,1.25242188 25.3947656,1.978125 25.3947656,2.83710938 C25.3947656,3.69601563 24.6494531,4.42171875 23.7672656,4.42171875 L23.7672656,4.42171875 Z" id="Shape"></path>
                    <path d="M29.5207031,0 C29.1872656,0 28.9171094,0.270234375 28.9171094,0.60359375 L28.9171094,5.57585938 C28.9171094,5.90929688 29.1873438,6.17945313 29.5207031,6.17945313 C29.8540625,6.17945313 30.1242969,5.90921875 30.1242969,5.57585938 L30.1242969,0.60359375 C30.124375,0.270234375 29.8541406,0 29.5207031,0 L29.5207031,0 Z" id="Path"></path>
                    <path d="M29.5205469,7.84484375 C29.3620312,7.84484375 29.2058594,7.90921875 29.0939844,8.02109375 C28.9813281,8.13382813 28.916875,8.28914063 28.916875,8.44851563 C28.916875,8.48796875 28.9209375,8.52734375 28.9289844,8.56601563 C28.93625,8.60460938 28.9482812,8.6425 28.9635937,8.67875 C28.978125,8.71578125 28.9974219,8.75039063 29.0183594,8.78335938 C29.0408594,8.81640625 29.0658594,8.84695313 29.0939844,8.87507813 C29.1213281,8.90328125 29.1528125,8.92820313 29.1857031,8.94992188 C29.2178906,8.97171875 29.2533594,8.99015625 29.2895312,9.00546875 C29.3257812,9.02078125 29.3644531,9.03203125 29.4030469,9.04007813 C29.4417187,9.04820313 29.4811719,9.05140625 29.5205469,9.05140625 C29.56,9.05140625 29.5994531,9.04820313 29.6389062,9.04007813 C29.6775,9.03203125 29.7153125,9.02085938 29.7515625,9.00546875 C29.7878125,8.99015625 29.8232812,8.97164063 29.8561719,8.94992188 C29.8892187,8.92820313 29.9197656,8.90328125 29.9471875,8.87507813 C29.9753125,8.84695313 30.0002344,8.81640625 30.0228125,8.78335938 C30.0446094,8.7503125 30.0630469,8.71578125 30.0783594,8.67875 C30.0928125,8.6425 30.1049219,8.60460938 30.1121875,8.56601563 C30.1202344,8.52734375 30.1242187,8.48796875 30.1242187,8.44851563 C30.1242187,8.28914063 30.0598437,8.13382813 29.9471875,8.02109375 C29.8352344,7.90921875 29.6799219,7.84484375 29.5205469,7.84484375 Z" id="Path"></path>
                </g>
            </g>
        </g>
    </g>
</svg>