<?xml version="1.0" encoding="UTF-8"?>
<svg width="100%" height="100%" viewBox="0 0 267 147" version="1.1" xmlns="http://www.w3.org/2000/svg" xmlns:xlink="http://www.w3.org/1999/xlink">
    <title>Help - Mandate Registration Copy</title>
    <g id="Help---Mandate-Registration-Copy" stroke="none" stroke-width="1" fill="none" fill-rule="evenodd" opacity="0.5">
        <g id="Group-5">
            <path d="M3.29682344,141.786692 C-7.45831308,96.5043186 8.95652167,41.5994321 40.0886237,13.863833 C71.2200417,-13.8710821 127.256868,4.80763191 152.162276,28.0147885 C177.067,51.2219451 177.067,51.2219451 177.067,51.2219451 C177.067,51.2219451 200.840468,64.2402769 231.97257,63.1083373 C263.103988,61.9763976 290.838904,104.42858 298.197537,137.824561 C305.555487,171.219859 288.008712,215.369609 288.008712,215.369609 L51.409388,213.672041 C51.409388,213.672041 14.051276,187.069066 3.29682344,141.786692 Z" id="Fill-4" fill-opacity="0.0716236888" fill="#377476"></path>
            <path d="M30.1829549,217.688888 C22.5144912,212.133834 6.67691149,198.030072 1.59857199,173.483738 C-0.509366371,163.296965 0.871531602,153.381037 3.86313524,144.060147 C11.3441962,172.776532 29.3840996,193.711602 40.9675013,204.757418 L30.1829549,204.757418 L30.1829549,217.688888 M292.218434,204.757418 L291.654858,204.757418 C294.409814,195.87836 297.951315,182.392206 299.370514,168.053847 C300.208354,175.527385 299.508672,183.278607 297.064914,192.163136 C295.705218,197.108789 294.020646,201.272001 292.218434,204.757418 M233.193424,63.0864508 C232.78784,63.0864508 232.378837,63.0939743 231.97257,63.1083373 C230.67443,63.1555299 229.392021,63.1781003 228.12124,63.1781003 C198.90215,63.1781003 177.067,51.2219451 177.067,51.2219451 C177.067,51.2219451 177.067,51.2219451 152.162276,28.0147885 C150.812156,26.7570018 149.369018,25.5101583 147.845174,24.2858852 C161.802571,17.0660937 178.341201,1.62041816 202.430655,1.62041816 C205.71841,1.62041816 209.145691,1.90767777 212.727544,2.54306867 C247.820409,8.76976265 281.782702,27.4484767 283.480954,68.2030916 C284.057525,82.0503726 282.935845,91.3233864 281.712939,98.3981801 C269.347781,78.7167933 251.930274,63.0864508 233.193424,63.0864508 Z" id="Fill-5" fill="#377476" opacity="0.0516415551"></path>
            <path d="M242.843295,204.757418 C247.583762,192.157664 252.859764,174.425539 251.301722,161.031034 C248.60285,137.824561 235.64539,115.749344 209.190148,98.7681979 C199.164787,92.3328987 183.402442,87.6047423 166.250308,86.5863386 C167.297437,80.1948124 167.343946,73.4558387 167.020437,69.9006591 C166.454809,63.6746491 163.48304,58.5798947 163.48304,58.5798947 C163.48304,58.5798947 157.895841,55.4111477 150.75402,55.4111477 C148.592733,55.4111477 146.288501,55.7018271 143.954858,56.4575934 C133.907612,59.7118344 130.370215,75.2778854 131.502154,83.4853028 C131.82498,85.8244167 132.409074,87.83455 133.182623,89.6005127 C115.889595,94.0988613 99.9706248,103.643404 89.8741335,120.277103 C75.0501698,144.700325 75.991287,170.364919 79.9698326,188.511519 L79.9698326,204.757418 L40.9675013,204.757418 C29.3840996,193.711602 11.3441962,172.776532 3.86313524,144.060147 C10.5111433,123.343257 25.1176104,105.561204 27.0696079,94.2397553 C29.899799,77.8249206 23.6737889,57.4479551 49.7111366,41.5994321 C75.7478003,25.7502252 122.162797,31.4106074 139.709572,27.4484767 C142.344153,26.8534389 145.042341,25.7358623 147.845174,24.2858852 C149.369018,25.5101583 150.812156,26.7570018 152.162276,28.0147885 C177.067,51.2219451 177.067,51.2219451 177.067,51.2219451 C177.067,51.2219451 198.90215,63.1781003 228.12124,63.1781003 C229.392021,63.1781003 230.67443,63.1555299 231.97257,63.1083373 C232.378837,63.0939743 232.78784,63.0864508 233.193424,63.0864508 C251.930274,63.0864508 269.347781,78.7167933 281.712939,98.3981801 C279.337576,112.144236 276.583987,117.589858 285.178521,132.164179 C293.089104,145.577151 298.073742,156.482073 299.370514,168.053847 C297.951315,182.392206 294.409814,195.87836 291.654858,204.757418 L242.843295,204.757418 Z" id="Fill-6" fill-opacity="0.0872486888" fill="#377476"></path>
            <path d="M242.843295,204.757418 L195.318244,204.757418 C196.108892,201.91218 198.010277,191.45593 198.010277,191.45593 C198.010277,191.45593 181.878598,177.635323 181.029815,175.37076 C180.463503,173.861279 180.746659,145.890401 178.340518,133.012963 C175.93506,120.135525 172.822397,117.541297 166.313231,114.334249 C159.585885,111.019136 149.614557,107.918784 149.614557,107.918784 C149.614557,107.918784 151.595964,112.494419 153.435109,123.248872 C155.275623,134.004009 156.97319,152.116411 157.397924,164.569115 C157.782989,175.859785 158.051098,200.294635 158.09829,204.757418 L138.087923,204.757418 C138.427847,201.562681 139.763604,188.573759 139.14326,187.210644 C138.870363,186.608766 132.266128,186.261319 124.261844,186.060237 L124.261844,134.99437 C124.261844,134.99437 116.122138,134.426007 107.264283,134.426007 C98.9973619,134.426007 90.1046252,134.921187 86.6205765,136.833516 C79.4042048,140.795646 79.9698326,154.522552 79.9698326,154.522552 L79.9698326,188.511519 C75.991287,170.364919 75.0501698,144.700325 89.8741335,120.277103 C99.9706248,103.643404 115.889595,94.0988613 133.182623,89.6005127 C133.25991,89.7762882 133.338564,89.9500119 133.41927,90.1209997 C132.851591,94.6337114 131.734698,103.075724 131.218999,104.003846 C130.511793,105.277364 130.511793,105.277364 130.511793,105.277364 L126.973712,107.683505 C126.973712,107.683505 133.766034,117.306018 142.115029,118.862007 C143.249021,119.074032 144.215444,119.164998 145.039605,119.164998 C150.284829,119.164998 149.756135,115.466189 149.756135,115.466189 L148.482617,112.777575 L149.593354,103.155746 C150.464024,103.290485 151.349058,103.363668 152.231355,103.363668 C155.898703,103.363668 159.525013,102.110669 161.925683,98.9097758 C164.111592,95.9954587 165.463764,91.3890457 166.250308,86.5863386 C183.402442,87.6047423 199.164787,92.3328987 209.190148,98.7681979 C235.64539,115.749344 248.60285,137.824561 251.301722,161.031034 C252.859764,174.425539 247.583762,192.157664 242.843295,204.757418" id="Fill-7" fill-opacity="0.202469406" fill="#377476"></path>
            <path d="M275.061512,133.060156 L244.54223,133.060156 C242.654524,133.060156 241.122473,131.528788 241.122473,129.640398 L241.122473,114.404696 C241.122473,112.516306 242.654524,110.984939 244.54223,110.984939 L275.061512,110.984939 C276.949901,110.984939 278.481269,112.516306 278.481269,114.404696 L278.481269,129.640398 C278.481269,131.528788 276.949901,133.060156 275.061512,133.060156" id="Fill-8" fill="#377476"></path>
            <polyline id="Fill-9" fill="#377476" points="259.801871 141.692307 264.638091 130.229964 254.96565 130.229964 259.801871 141.692307"></polyline>
            <polyline id="Fill-10" fill="#FFFFFF" points="259.686283 118.232088 268.422395 118.232088 268.422395 119.510393 272.705299 117.040645 268.422395 114.57158 268.422395 115.849885 259.686283 115.849885 259.686283 118.232088"></polyline>
            <polyline id="Fill-11" fill="#FFFFFE" points="272.705299 123.255712 263.969187 123.255712 263.969187 121.977406 259.686283 124.446471 263.969187 126.915536 263.969187 125.637231 272.705299 125.637231 272.705299 123.255712"></polyline>
            <path d="M254.324104,125.502492 L253.908261,125.654329 C253.908261,125.654329 252.612173,124.174258 251.939165,122.562185 C251.266157,120.950795 251.242902,118.982383 251.242902,118.982383 L251.547261,118.855168 L249.699224,114.434106 C249.370243,114.691272 249.05631,115.022304 248.802564,115.451142 C247.757486,117.217788 247.860762,119.928972 248.91268,122.577916 C249.963913,125.226176 251.088329,127.588544 253.140184,129.074087 C254.350778,129.950912 255.388332,130.104117 256.194027,129.976902 L254.324104,125.502492" id="Fill-12" fill="#FFFFFF"></path>
            <path d="M255.650969,124.982005 L255.07645,125.19061 L256.966892,129.717001 C257.180969,129.647238 257.372475,129.56106 257.538675,129.470094 C258.027017,129.202669 258.241778,128.615155 258.035908,128.098088 L257.048282,125.609188 C256.828734,125.05724 256.209758,124.778187 255.650969,124.982005" id="Fill-13" fill="#FFFFFF"></path>
            <path d="M251.143729,113.659189 C250.911186,113.742631 250.658124,113.856167 250.403694,114.005952 L252.290032,118.5214 L252.924739,118.256026 C253.476004,118.026219 253.742745,117.398351 253.525248,116.842299 L252.533519,114.296632 C252.318758,113.743999 251.701834,113.457423 251.143729,113.659189" id="Fill-14" fill="#FFFFFF"></path>
            <path d="M79.9698326,205.464624 L79.9698326,154.522552 C79.9698326,154.522552 79.4042048,140.795646 86.6205765,136.833516 C93.8376322,132.871385 124.261844,134.99437 124.261844,134.99437 L124.261844,205.464624 L79.9698326,205.464624" id="Fill-15" fill="#144A4C"></path>
            <path d="M133.766034,87.3058556 C133.766034,87.3058556 131.926888,102.730329 131.218999,104.003846 C130.511793,105.277364 130.511793,105.277364 130.511793,105.277364 L126.973712,107.683505 C126.973712,107.683505 133.766034,117.306018 142.115029,118.862007 C150.464024,120.418681 149.756135,115.466189 149.756135,115.466189 L148.482617,112.777575 L150.181552,98.0603081 C150.181552,98.0603081 135.039551,91.1270923 133.766034,87.3058556" id="Fill-16" fill="#E98C82"></path>
            <path d="M122.586847,108.957023 L128.105652,106.550881 C128.105652,106.550881 131.643732,112.352842 139.85115,115.749344 C148.058567,119.145163 148.200145,117.16444 148.624195,115.749344 C149.048929,114.334249 148.482617,112.777575 148.482617,112.777575 L149.089966,107.823031 L152.372249,108.916669 L163.765512,201.077759 L134.473923,202.492855 L122.586847,108.957023" id="Fill-17" fill="#FFFFFE"></path>
            <path d="M149.614557,107.918784 C149.614557,107.918784 151.595964,112.494419 153.435109,123.248872 C155.275623,134.004009 156.97319,152.116411 157.397924,164.569115 C157.821974,177.021819 158.105814,205.464624 158.105814,205.464624 C158.105814,205.464624 194.613774,205.464624 195.039192,205.464624 C195.463242,205.464624 198.010277,191.45593 198.010277,191.45593 C198.010277,191.45593 181.878598,177.635323 181.029815,175.37076 C180.463503,173.861279 180.746659,145.890401 178.340518,133.012963 C175.93506,120.135525 172.822397,117.541297 166.313231,114.334249 C159.585885,111.019136 149.614557,107.918784 149.614557,107.918784" id="Fill-18" fill="#377476"></path>
            <path d="M168.859583,189.250187 C168.670812,189.250187 168.517607,189.096982 168.517607,188.908211 C168.517607,187.896647 168.337728,173.522039 168.164688,159.620726 C167.99028,145.717361 167.810401,131.340702 167.810401,130.32435 C167.810401,130.134895 167.963606,129.982374 168.152377,129.982374 C168.341147,129.982374 168.494352,130.134895 168.494352,130.32435 C168.494352,131.335914 168.674232,145.710522 168.847955,159.611835 C169.021679,173.5152 169.201558,187.891859 169.201558,188.908211 C169.201558,189.096982 169.049037,189.250187 168.859583,189.250187" id="Fill-19" fill="#7487A7"></path>
            <path d="M149.171356,106.812151 C147.303485,106.126832 144.905551,104.99284 143.152583,103.579796 C140.081641,101.103892 138.114597,98.1546934 136.839712,95.2615788 C138.258911,96.8750203 139.829263,98.2709652 141.407139,99.6169816 C143.405645,101.321389 146.404089,102.659882 149.593354,103.155746 L149.171356,106.812151" id="Fill-21" fill="#8B5B63"></path>
            <path d="M163.48304,58.5798947 C163.48304,58.5798947 166.454809,63.6746491 167.020437,69.9006591 C167.586749,76.1273531 167.020437,92.117454 161.925683,98.9097758 C156.831612,105.702098 146.218738,103.72069 141.407139,99.6169816 C136.992233,95.8511449 132.634094,91.6927201 131.502154,83.4853028 C130.370215,75.2778854 133.907612,59.7118344 143.954858,56.4575934 C154.001421,53.2026685 163.48304,58.5798947 163.48304,58.5798947" id="Fill-22" fill="#E98C82"></path>
            <path d="M134.897973,76.480956 C134.897973,76.480956 138.01132,74.9947295 140.204753,70.8205738 C142.398185,66.6464181 142.115029,62.8963123 142.115029,62.8963123 C142.115029,62.8963123 146.07716,62.2595535 152.020698,64.028252 C157.963552,65.7969504 165.03903,68.2030916 170.982568,64.8065887 C176.926106,61.4100858 176.926106,55.9624126 174.024784,53.6985333 C170.776014,51.1624413 164.331824,52.7074876 164.331824,52.7074876 C164.331824,52.7074876 166.807728,50.3020304 165.463764,48.8869348 C164.119115,47.4718393 159.237754,49.3116687 159.237754,49.3116687 C159.237754,49.3116687 153.294215,44.5712012 142.044582,45.136829 C130.794265,45.7031408 125.417038,53.5569553 124.78028,62.3300005 C124.143521,71.1037297 127.327999,79.8767749 127.327999,79.8767749 L134.897973,76.480956" id="Fill-27" fill="#283770"></path>
            <path d="M157.93893,90.9136994 C157.808979,90.9136994 157.672873,90.9102797 157.528559,90.9041241 C156.695506,90.8719784 155.648376,90.7345042 154.933647,90.2871999 C154.722306,90.1545133 154.802328,89.8091179 155.061546,89.8091179 C155.06223,89.8091179 155.06223,89.8091179 155.062914,89.8091179 C155.507482,89.8111697 155.941792,89.9452242 156.385676,89.9787378 C156.798099,90.0088317 157.215309,90.0266144 157.628416,90.0457651 C157.868483,90.0567083 158.153007,90.0785947 158.443002,90.0785947 C158.877311,90.0785947 159.321196,90.0293502 159.637181,89.8200611 C161.018763,88.905618 158.332886,87.7770981 157.764522,87.3585198 C156.575815,86.482378 156.814514,84.9694774 156.938993,83.6720215 C157.099721,82.0038639 157.08399,80.1790815 157.721433,78.607361 C157.767258,78.495193 157.884898,78.4356892 157.993646,78.4356892 C158.116757,78.4356892 158.229609,78.5116078 158.215246,78.6743883 C158.035367,80.6769981 157.572332,82.6536178 157.446485,84.665803 C157.393137,85.5029595 157.331581,86.4057755 158.080508,86.9419934 C158.620829,87.3291099 159.277423,87.5137768 159.812957,87.9104686 C160.27736,88.2551802 160.740395,88.8084969 160.657637,89.4254211 C160.585138,89.9739502 160.137834,90.2974592 159.676166,90.5265829 C159.056506,90.8343611 158.562693,90.9136994 157.93893,90.9136994" id="Fill-28" fill="#8B5B63"></path>
            <path d="M163.505611,83.312947 C163.29427,84.5057583 162.427019,85.3490705 161.567292,85.1972332 C160.708249,85.045396 160.182974,83.9544935 160.393632,82.7623661 C160.604973,81.5695548 161.472223,80.7255587 162.33195,80.8773959 C163.190993,81.0292331 163.716952,82.1201357 163.505611,83.312947" id="Fill-29" fill="#283770"></path>
            <path d="M152.677975,82.3677261 C152.486469,83.6549227 151.580233,84.5857806 150.652795,84.4483064 C149.725357,84.3101482 149.128951,83.1549542 149.320458,81.8684415 C149.511964,80.5812449 150.418884,79.649703 151.346322,79.7878612 C152.273076,79.9260194 152.869482,81.0812134 152.677975,82.3677261" id="Fill-30" fill="#283770"></path>
            <path d="M160.984566,78.39602 C161.645947,78.5075041 162.313483,78.3932842 162.980336,78.4404769 C163.141064,78.4514201 163.299057,78.4753584 163.459786,78.4910893 C163.573322,78.5013486 163.247077,78.4568917 163.405754,78.4828819 L163.507662,78.4999807 C163.591105,78.5150276 163.674547,78.5321264 163.756621,78.551961 C163.898883,78.5868425 164.036357,78.6401907 164.178619,78.6716525 C164.307886,78.6996945 164.451515,78.7297884 164.581466,78.7236328 C164.654649,78.7140575 164.726464,78.7044821 164.799647,78.6942229 L164.662172,78.7195291 L164.933017,78.6901192 C165.31261,78.6012055 165.546522,78.1621087 165.440509,77.7955107 C165.409731,77.6901822 165.363223,77.5944289 165.296195,77.5075671 L165.209334,77.3974509 L165.289356,77.4891004 L165.20181,77.3728287 C165.164193,77.3099051 165.114264,77.2592927 165.050657,77.2216754 L164.890612,77.0999321 C164.715521,76.9781887 164.485029,76.9070577 164.277108,76.8537095 C163.882468,76.7518008 163.467993,76.6998205 163.061726,76.6977686 C162.656827,76.6957167 162.257399,76.7381217 161.857288,76.7935218 C161.504369,76.8420824 161.111781,76.9624578 160.825205,77.1751667 C160.604289,77.339999 160.468182,77.55134 160.506483,77.8406515 C160.538629,78.0800345 160.7274,78.3522472 160.984566,78.39602" id="Fill-31" fill="#283770"></path>
            <path d="M153.437161,76.5028424 C153.347564,76.4494942 153.255914,76.4029855 153.160845,76.3598966 C153.080823,76.3236472 152.861958,76.2087433 153.027474,76.2990249 L152.845543,76.2019038 C152.571279,76.0637456 152.286755,75.9714122 151.990604,75.8961775 C151.344954,75.7313452 150.665106,75.6896242 150.003041,75.7593872 C149.296519,75.8339379 148.651553,76.0049258 148.039417,76.3735756 C147.953239,76.4262399 147.864325,76.4768523 147.79251,76.5486672 C147.743949,76.6102228 147.696073,76.6724624 147.649564,76.7353859 L147.689917,76.6738303 C147.501147,76.8058329 147.391031,77.0219616 147.393054,77.2504014 C147.39445,77.4699498 147.50867,77.6532488 147.699493,77.7592612 C147.929984,77.8878441 148.148849,77.8262885 148.386864,77.7654168 C148.267172,77.7654168 148.147481,77.7654168 148.028473,77.7654168 C148.224767,77.7955107 148.362926,77.8037181 148.561271,77.7599452 C148.568795,77.7585773 148.752094,77.7127525 148.631035,77.7380588 C148.517499,77.762681 148.823909,77.7148044 148.857422,77.7100167 C148.896408,77.7045451 149.109117,77.6833426 148.884097,77.7052291 L149.008576,77.6908661 C149.114588,77.677871 149.221969,77.664192 149.328665,77.6559846 C149.795804,77.6183672 150.261575,77.5971648 150.729398,77.5821178 C151.163707,77.5677548 151.606223,77.5643351 152.039849,77.5828018 C152.226567,77.5910092 152.411234,77.5971648 152.597953,77.6026364 C152.701914,77.6053722 152.658141,77.621787 152.586326,77.5992166 L152.702597,77.6293105 C152.779884,77.650513 152.855803,77.6758192 152.930353,77.7045451 C153.23266,77.819449 153.59447,77.6012685 153.705954,77.3235842 C153.827698,77.0212776 153.724421,76.6738303 153.437161,76.5028424" id="Fill-32" fill="#283770"></path>
            <path d="M156.796731,96.17397 C157.446485,94.8683067 158.627669,93.9114586 159.99352,93.2959023 C158.808232,93.1755269 153.210089,92.6570917 151.79773,93.4593667 C150.215066,94.357395 152.090461,97.9652389 155.362485,98.146486 C155.706512,98.1656366 156.019078,98.1375946 156.316597,98.0910859 C156.343271,97.4324407 156.495108,96.780635 156.796731,96.17397" id="Fill-33" fill="#283770"></path>
            <path d="M130.935843,88.5800571 C130.935843,88.5800571 131.502154,90.7734894 134.756395,93.3205246 C138.01132,95.8675598 142.728534,97.7306435 142.728534,97.7306435 L143.105391,96.0795847 C143.105391,96.0795847 138.223345,93.9565994 135.959466,91.6222731 C133.695587,89.2872629 133.412431,88.0137453 133.412431,88.0137453 L130.935843,88.5800571" id="Fill-34" fill="#CFD7DF"></path>
            <path d="M143.671703,94.8580474 C146.291237,94.7363041 147.752841,96.8073091 147.935457,98.14717 C148.118071,99.4877148 146.8596,100.990356 143.915189,99.6703298 C140.258101,98.0308982 141.052852,94.9797908 143.671703,94.8580474" id="Fill-35" fill="#283770"></path>
            <path d="M132.987697,72.3772473 C132.987697,72.3772473 134.118953,64.2450646 139.567994,58.7214727 C149.968844,48.179729 158.81302,48.8158039 158.81302,48.8158039 C158.81302,48.8158039 158.741889,47.3302613 155.416517,46.1983217 C152.294278,45.1354611 150.888758,45.7031408 150.888758,45.7031408 C150.888758,45.7031408 142.327054,46.4103466 135.110682,54.4057391 C127.893627,62.4011315 127.11529,72.5892723 127.11529,72.5892723 L132.987697,72.3772473" id="Fill-36" fill="#CFD7DF"></path>
            <path d="M132.20936,71.3862017 C125.395836,70.2316916 121.596486,75.5610413 121.31333,80.9382676 C121.030174,86.3154939 124.937588,90.4034717 130.157506,89.9944687 C141.903004,89.075238 140.558356,72.8019812 132.20936,71.3862017" id="Fill-37" fill="#FFFFFE"></path>
            <path d="M128.816961,84.7690796 C127.018169,84.7690796 125.497745,83.8648958 124.629126,82.2733408 C123.698268,80.5682498 123.776239,78.4692029 124.828156,76.9255244 C124.908179,76.8099366 125.066855,76.7791588 125.184495,76.8584972 C125.301451,76.9385195 125.332228,77.0978802 125.252206,77.2148359 C124.307669,78.6005215 124.239958,80.4895954 125.079166,82.0271183 C125.87597,83.4866707 127.282174,84.313568 128.947596,84.2540642 C130.504269,84.2123432 131.823612,83.5003497 132.66282,82.2487186 C133.620352,80.819944 133.840584,78.847428 133.22366,77.2237273 C132.611524,75.6123377 130.933107,74.5139116 129.407211,74.7136255 C129.269053,74.7314082 129.137734,74.6336031 129.119268,74.4927091 C129.100117,74.3524991 129.198606,74.2239162 129.3395,74.2047656 C131.124613,73.9667505 132.999324,75.1869199 133.70311,77.0411122 C134.377486,78.8159662 134.136051,80.9717812 133.088922,82.5339263 C132.154644,83.9278194 130.688936,84.7205191 128.961275,84.7670278 L128.816961,84.7690796" id="Fill-38" fill="#7183A5"></path>
            <path d="M123.860365,106.975615 C123.860365,106.975615 103.200927,112.069686 95.9838718,120.277103 C88.7668161,128.48452 85.3709972,168.955979 85.2294192,176.455507 C85.0878413,183.955719 90.3234896,187.069066 93.4368366,189.191367 C96.5501836,191.314352 110.275721,195.134905 121.31333,195.701217 C132.350938,196.266845 142.822919,195.701217 142.822919,195.701217 C142.822919,195.701217 142.787353,193.295076 144.484921,189.756995 C146.060061,186.47608 148.058567,185.794864 148.058567,185.794864 L138.577632,182.399045 C138.577632,182.399045 136.917682,152.651261 134.332346,138.249295 C131.360576,121.692199 123.860365,106.975615 123.860365,106.975615" id="Fill-39" fill="#377476"></path>
            <path d="M158.105814,177.646267 L157.966972,177.616857 C157.793932,177.540254 157.715962,177.338488 157.792564,177.166133 C159.728831,172.798419 161.734176,164.224403 162.864064,158.20905 L162.956398,157.722761 C163.298373,155.953378 163.723791,153.753107 162.875007,152.23405 C162.442066,151.459133 161.464699,149.777981 160.524266,148.161804 C159.548268,146.484071 158.626301,144.898671 158.370503,144.426061 C157.872586,143.502042 159.441571,141.034346 161.712974,137.64947 C162.325794,136.734343 162.856541,135.944379 163.165687,135.409529 C163.975485,134.008796 163.435848,132.725703 162.812084,131.240161 L162.600059,130.728565 C162.034431,129.33946 161.390833,127.948302 160.769805,126.60297 C160.516059,126.053757 160.261629,125.503176 160.011303,124.949859 C159.678902,124.218715 159.345818,123.474576 159.007946,122.722229 C157.008072,118.264234 154.940487,113.655085 152.292227,109.201877 C152.195789,109.039781 152.249138,108.829808 152.411234,108.73337 C152.574015,108.637617 152.783304,108.690282 152.880425,108.853062 C155.547835,113.3391 157.623628,117.966715 159.63171,122.441809 C159.968898,123.194156 160.301982,123.936927 160.633698,124.668071 C160.884025,125.219336 161.137087,125.768549 161.390149,126.316394 C162.01528,127.668566 162.661615,129.067247 163.233398,130.470715 L163.442687,130.975472 C164.079446,132.490424 164.737407,134.057357 163.757305,135.751505 C163.436531,136.306873 162.900998,137.105728 162.280654,138.029747 C161.096734,139.795025 158.631773,143.469213 158.97238,144.1005 C159.222707,144.564219 160.141937,146.144831 161.1152,147.817776 C162.057685,149.438057 163.037788,151.123313 163.472097,151.900282 C164.443308,153.637519 163.991216,155.974581 163.628722,157.852712 L163.535704,158.334897 C163.123966,160.525594 160.944896,171.741714 158.41838,177.442449 C158.361612,177.571032 158.236449,177.646267 158.105814,177.646267" id="Fill-40" fill="#7487A7"></path>
            <path d="M137.940873,178.849337 C137.852644,178.849337 137.764414,178.815823 137.698071,178.748796 C136.090101,177.127831 128.335459,163.70118 127.758204,161.176032 C127.442219,159.793766 128.235602,156.287831 129.002996,152.896799 C129.59735,150.269742 130.212222,147.553087 130.03713,146.817839 C129.775861,145.718729 127.793086,144.098448 125.875286,142.532199 C123.558742,140.640389 121.163544,138.68292 120.699825,136.920378 C120.172499,134.917084 120.623223,122.375466 120.921426,114.077083 C121.028806,111.093003 121.113616,108.736106 121.112932,107.89553 C121.112932,107.706759 121.266137,107.553554 121.454908,107.553554 C121.643678,107.553554 121.796883,107.706075 121.796883,107.894846 C121.797567,108.748417 121.712757,111.110786 121.604693,114.101705 C121.326325,121.858399 120.85987,134.839797 121.361206,136.746654 C121.768841,138.293752 124.180454,140.264216 126.308227,142.002821 C128.40659,143.716803 130.387998,145.335716 130.702615,146.659846 C130.913956,147.548983 130.337385,150.097386 129.669849,153.047269 C128.954435,156.209176 128.143953,159.792398 128.425057,161.023511 C128.991369,163.499415 136.604432,176.675055 138.183676,178.265927 C138.316363,178.400665 138.315679,178.616794 138.181624,178.74948 C138.114597,178.815823 138.027735,178.849337 137.940873,178.849337" id="Fill-41" fill="#7487A7"></path>
            <path d="M110.134827,172.97693 L110.086951,172.97351 C109.899548,172.946836 109.769597,172.773796 109.795587,172.587078 C110.046598,170.80812 113.972479,135.379435 114.152358,132.6662 C114.165353,132.476745 114.328134,132.329011 114.516904,132.347478 C114.704991,132.359789 114.847253,132.523254 114.834942,132.71134 C114.654378,135.429363 110.724393,170.901821 110.472699,172.682831 C110.448761,172.853135 110.302395,172.97693 110.134827,172.97693" id="Fill-42" fill="#7487A7"></path>
            <path d="M43.0856989,118.349044 C44.0117692,119.422848 44.8441381,120.565731 45.704549,121.691515 C46.3303646,122.510888 48.001258,123.8699 48.2721027,124.899931 C48.3917943,125.353391 48.366488,124.739202 48.2461126,124.284375 L48.226278,124.227607 C47.9909987,122.142239 47.8227466,120.048663 47.7495638,117.950984 C47.676381,115.858777 47.8070158,113.758362 47.6756971,111.669574 C47.4910302,108.722427 46.5711155,105.868982 44.1622385,104.022997 C42.9851581,103.120181 41.4715735,102.570968 40.3895623,101.569663 C39.3622672,100.61897 39.774006,99.5301198 40.3786191,98.469995 C40.943563,97.4775815 41.6288823,96.5029507 41.8484307,95.3607518 C42.0994409,94.0626119 41.6110996,92.723435 40.9524544,91.6181694 C39.5517218,89.2653765 36.4438464,86.6424227 33.5008033,86.9939737 C31.0461016,87.2873889 30.7677333,90.1189479 30.8032988,92.0914638 C30.8368124,94.0092637 31.0269509,95.920908 31.0454176,97.8400758 C31.0638843,99.8112238 30.7287481,101.745439 30.7007061,103.707695 C30.6535135,107.046062 32.195824,109.589678 34.6498418,111.747545 C37.3329833,114.107177 40.7308541,115.620078 43.0856989,118.349044 Z" id="Fill-45" fill="#377476"></path>
            <path d="M62.2370234,137.308862 C63.6828968,135.08602 65.2867629,132.919946 66.25729,130.430362 C67.2490196,127.888799 67.103338,125.170776 67.201143,122.49379 C67.272274,120.527429 67.8570525,118.565856 67.6990597,116.594024 C67.623825,115.64812 67.0787157,114.11812 65.8551266,114.274745 C64.9030662,114.396488 64.3374383,115.576989 63.9715243,116.330019 C63.3327136,117.644574 62.890197,119.046674 62.4155347,120.42552 C62.2308678,120.965158 62.0537244,121.514371 61.819813,122.034858 C61.6837067,122.337849 61.2507654,123.076516 60.8424464,122.975975 C60.1468678,122.804304 60.778155,119.965221 60.8814316,119.462517 C61.4005508,116.937368 62.1823073,114.590731 62.2910556,111.992399 C62.4483644,108.225195 62.1556332,103.740525 58.4711867,101.680463 C57.5074991,101.142193 56.2873298,100.82142 55.3722027,101.627115 C54.4693868,102.421183 54.2142729,103.798661 54.0802184,104.931968 C53.6691636,108.411229 54.4878535,111.705823 55.6026944,114.979215 C56.523293,117.682191 57.6203511,120.471345 57.7003735,123.361724 C57.77766,126.144039 56.3297348,128.609683 55.650571,131.238109 C54.5678758,135.426628 54.7915279,137.647418 54.7867403,139.003694 C54.7792168,140.703313 54.8414564,142.384466 54.9652516,144.078613 C55.0801555,145.635971 55.2148939,147.194012 55.4050324,148.743846 C55.4440176,149.05778 55.4795831,149.385393 55.5213041,149.713005 C54.9228466,148.27192 54.7135575,146.621545 54.2176927,145.17362 C53.3374472,142.599226 52.3142558,140.078181 51.4688918,137.491477 C50.7705774,135.354129 50.1112482,133.202417 49.1885977,131.147827 C48.3240831,129.219768 47.2796892,127.182277 45.6662477,125.767865 C44.690933,124.912926 43.5090649,124.412957 42.2047695,124.423217 C41.3703487,124.429372 40.6207379,124.718 39.8239345,124.928657 C38.843832,125.187874 38.0723348,125.098277 37.265956,124.478617 C34.6252195,122.448649 33.8222605,118.809343 31.8668433,116.239054 C30.4086588,114.321938 26.9492324,111.054018 24.405617,113.144857 C23.0554968,114.253543 22.6834272,116.396362 22.7545582,118.039214 C22.8434719,120.09996 23.7442359,121.98493 24.8166718,123.708487 C25.9575028,125.540793 27.4300503,127.181593 28.4785478,129.065879 C29.0982079,130.178668 29.195329,131.244948 29.09684,132.500683 C29.0045065,133.683235 28.9012298,134.828854 29.3040772,135.969685 C30.5146713,139.395598 34.294871,138.917516 37.2344943,139.007113 C39.2918202,139.069353 41.4989316,139.375763 43.4522969,140.033725 C45.7093367,140.793595 47.1777804,142.262722 47.9848431,144.49514 C48.5682537,146.111317 48.8808195,147.945675 49.9806135,149.318365 C50.4976808,149.964016 51.1823162,150.44073 51.9353467,150.773814 C53.0816493,151.279938 56.5773252,151.501538 56.6033153,151.182133 C56.6894932,150.113117 57.1963012,148.985281 57.5136547,147.970981 C58.1086925,146.068912 58.8083748,144.213352 59.5791881,142.376258 C60.3260631,140.594565 61.1830542,138.929143 62.2370234,137.308862 Z" id="Fill-46" fill="#377476"></path>
            <path d="M74.6363792,135.814428 C74.5700359,135.685966 74.3949443,135.653016 74.2752528,135.719359 C73.610452,136.088009 73.583094,137.161812 73.5283779,137.819774 C73.4387802,138.91136 73.5058075,140.005683 73.371069,141.094533 C73.1357897,143.006861 72.6939571,144.97801 72.004534,146.780222 C71.2255133,148.819765 69.807682,149.975643 67.7489881,150.612402 C66.426226,151.020721 65.1287701,151.377059 64.0248725,152.254569 C63.0358787,153.041113 62.3491914,154.125176 61.8396476,155.266691 C60.4655892,158.34926 59.8110476,161.795008 59.1736049,165.088234 C58.7447673,167.305605 58.3945842,169.533234 57.8563144,171.728719 C57.3180446,173.922151 56.7401056,176.10464 56.4316435,178.345949 C56.3796632,178.458801 56.3242631,178.570969 56.2763865,178.685189 C56.1354925,179.020325 56.6593994,179.201572 56.8399625,178.92252 C58.9656836,175.65118 61.5544399,172.714977 65.0863651,170.913448 C66.6813399,170.10023 68.8002215,169.931294 70.1305071,168.652989 C71.1427552,167.68041 71.2815974,166.196235 71.1304441,164.873473 C70.9314142,163.135553 70.0990453,161.70541 69.2311109,160.224655 C68.7550807,159.410753 68.1921887,158.539399 68.384379,157.550405 C68.5656262,156.617495 69.3412271,155.932176 70.1106725,155.454094 C71.5791162,154.542387 73.2958344,154.132016 74.498221,152.818145 C75.6151137,151.597976 76.2340898,150.079603 76.357885,148.435384 C76.5227173,146.244004 76.1451761,143.89463 75.8100399,141.730608 C75.5056815,139.771771 75.5638174,137.61322 74.6363792,135.814428 Z" id="Fill-47" fill="#377476"></path>
            <path d="M40.1488114,146.834254 C38.7897999,145.932122 35.5841194,144.151796 34.9371014,146.813735 C34.5575083,148.373828 36.0847719,149.908616 37.0894966,150.886666 C38.5996614,152.356478 40.3464734,153.624524 41.6206749,155.318671 C40.0427989,155.821376 38.3944759,155.919865 37.0238372,157.010083 C35.4008205,158.302068 34.6730961,160.795755 36.2817499,162.377734 C37.0662422,163.148548 38.1058484,163.621842 39.0825311,164.095136 C40.351945,164.709325 41.6446132,165.266745 42.9454889,165.810487 C45.7551614,166.983463 48.6003994,168.174223 50.9962814,170.09681 C53.437988,172.055647 55.734013,175.368024 55.9275713,178.564129 C55.9467219,178.869172 55.8304502,178.591487 56.0123813,178.451961 C56.1122382,178.541559 56.4473744,178.38083 56.4453412,178.203003 C56.3953941,173.4598 55.5431906,168.944352 53.6048722,164.599893 C51.8088157,160.572103 49.5422006,156.514219 46.8337529,153.024698 C44.958358,150.608982 42.6951626,148.525666 40.1488114,146.834254 Z" id="Fill-48" fill="#377476"></path>
            <path d="M40.3567326,108.872897 C41.3908672,111.020504 42.4728784,113.118183 43.6212329,115.211759 C44.7264984,117.227364 45.83108,119.227921 46.6579773,121.378265 C47.676381,124.025841 48.7440292,126.633748 49.8205688,129.258069 C50.9395134,131.985668 51.9394504,134.765247 52.7417255,137.602277 C54.3079743,143.1416 55.4713757,148.843019 56.0465789,154.571797 C56.3393101,157.48543 56.4719967,160.416162 56.3919743,163.34279 C56.3290508,165.630607 56.0712011,167.893119 55.8564404,170.169309 C55.6327882,172.536465 55.4713757,174.932347 55.6697216,177.308394 C55.8352379,179.294589 56.1512234,181.65559 57.69285,183.072737 C57.9937886,183.350422 58.4212583,183.004342 58.2461667,182.645952 C56.4145447,178.88969 56.5171375,174.794189 56.8673206,170.721258 C57.0608789,168.472426 57.3289878,166.235905 57.4049064,163.978865 C57.5013436,161.106953 57.3884916,158.229569 57.1183308,155.369284 C56.5869005,149.746519 55.4659041,144.190781 54.0118233,138.73832 C53.2656323,135.943011 52.3429818,133.201734 51.2801212,130.509701 C50.2138409,127.81288 48.9834123,125.189926 47.9506456,122.479427 C46.0834581,117.577547 43.2368522,113.231035 40.7164911,108.662923 C40.5851724,108.425592 40.2411448,108.634198 40.3567326,108.872897" id="Fill-49" fill="#3B5586"></path>
            <path d="M56.1307049,148.955871 C56.4268559,145.386329 56.7428414,141.948789 57.946596,138.543394 C58.5074362,136.955259 59.1879679,135.410897 59.7296574,133.816606 C60.1769617,132.498631 60.8465501,130.691632 60.5018386,129.290899 C60.4635373,129.134274 60.2357815,129.142482 60.1926925,129.290899 C59.9622009,130.091122 59.9875071,130.968632 59.8219908,131.78869 C59.6598944,132.586861 59.4444497,133.372037 59.1961753,134.147638 C58.6681648,135.797329 57.9780577,137.377941 57.3802842,139.001642 C56.2257741,142.138243 55.6327882,145.612716 55.8851663,148.955871 C55.8967935,149.113864 56.1177098,149.113864 56.1307049,148.955871" id="Fill-50" fill="#3B5586"></path>
            <path d="M35.4452773,128.441431 C36.8624247,131.864608 41.1220743,132.06227 44.2244781,132.82898 C46.4397968,133.376141 48.0751247,134.85416 49.2494694,136.772644 C50.5352981,138.871691 51.4046004,141.335968 52.1193296,143.678502 L52.1610507,143.667559 C51.2931163,139.564534 50.0496926,134.624353 45.8201368,132.715444 C42.4311574,131.185445 37.9649544,131.954206 35.7968283,128.293014 C35.6901319,128.113135 35.3597834,128.234194 35.4452773,128.441431" id="Fill-51" fill="#3B5586"></path>
            <polyline id="Fill-56" fill="#F4F5F5" points="285.815964 146.880762 258.763632 200.464255 179.897875 201.03125 204.236971 146.12568 285.815964 146.880762"></polyline>
            <path d="M127.555071,200.696798 L127.570118,196.408423 L178.624357,196.408423 L202.113986,144.899355 L283.763426,144.899355 L285.815964,146.880762 L206.052862,146.880762 L181.642635,200.653709 C181.642635,200.653709 127.555071,200.555904 127.555071,200.696798" id="Fill-57" fill="#CAD2DB"></path>
            <path d="M181.643319,200.995685 L181.501741,200.964907 C181.330069,200.886937 181.253467,200.684487 181.331437,200.512131 L205.83263,146.538787 L285.815964,146.538787 C286.005419,146.538787 286.15794,146.691308 286.15794,146.880762 C286.15794,147.069533 286.005419,147.222738 285.815964,147.222738 L206.273095,147.222738 L181.954517,200.795287 C181.897749,200.92045 181.772586,200.995685 181.643319,200.995685" id="Fill-59" fill="#FFFFFE"></path>
            <path d="M100.315336,91.5148928 L67.1956714,91.5148928 C65.1458689,91.5148928 63.4845509,89.8535747 63.4845509,87.8037722 L63.4845509,71.269246 C63.4845509,69.2201274 65.1458689,67.5581254 67.1956714,67.5581254 L100.315336,67.5581254 C102.364455,67.5581254 104.026457,69.2201274 104.026457,71.269246 L104.026457,87.8037722 C104.026457,89.8535747 102.364455,91.5148928 100.315336,91.5148928" id="Fill-66" fill="#FFFFFE"></path>
            <polyline id="Fill-67" fill="#FFFFFE" points="113.464987 79.5368511 101.025962 74.2882076 101.025962 84.7854945 113.464987 79.5368511"></polyline>
            <path d="M78.189507,79.5368511 C78.189507,80.8021612 77.1635798,81.8274045 75.8982696,81.8274045 C74.6329595,81.8274045 73.6070323,80.8021612 73.6070323,79.5368511 C73.6070323,78.2708569 74.6329595,77.2456137 75.8982696,77.2456137 C77.1635798,77.2456137 78.189507,78.2708569 78.189507,79.5368511" id="Fill-68" fill="#283770"></path>
            <path d="M86.0467412,79.5368511 C86.0467412,80.8021612 85.020814,81.8274045 83.7555039,81.8274045 C82.4901937,81.8274045 81.4642665,80.8021612 81.4642665,79.5368511 C81.4642665,78.2708569 82.4901937,77.2456137 83.7555039,77.2456137 C85.020814,77.2456137 86.0467412,78.2708569 86.0467412,79.5368511" id="Fill-69" fill="#283770"></path>
            <path d="M93.9039755,79.5368511 C93.9039755,80.8021612 92.8780483,81.8274045 91.6127381,81.8274045 C90.3474279,81.8274045 89.3215007,80.8021612 89.3215007,79.5368511 C89.3215007,78.2708569 90.3474279,77.2456137 91.6127381,77.2456137 C92.8780483,77.2456137 93.9039755,78.2708569 93.9039755,79.5368511" id="Fill-70" fill="#283770"></path>
            <path d="M192.468219,16.6940241 C187.557447,16.6940241 183.57685,20.6746216 183.57685,25.5853929 L183.57685,61.858758 C183.57685,66.7688454 187.557447,70.7501268 192.468219,70.7501268 L199.321412,70.7501268 C199.514286,74.0378814 199.043044,78.9295022 196.296979,85.1835542 C205.130896,81.1085715 210.218127,74.9899418 212.875278,70.7501268 L268.929203,70.7501268 C273.83929,70.7501268 277.820572,66.7688454 277.820572,61.858758 L277.820572,25.5853929 C277.820572,20.6746216 273.83929,16.6940241 268.929203,16.6940241 L192.468219,16.6940241 Z" id="Fill-71" fill="#377476"></path>
            <path d="M236.311558,33.9815809 L198.387818,33.9815809 C197.34616,33.9815809 196.500796,33.1369009 196.500796,32.0952428 C196.500796,31.0529008 197.34616,30.2082208 198.387818,30.2082208 L236.311558,30.2082208 C237.3539,30.2082208 238.19858,31.0529008 238.19858,32.0952428 C238.19858,33.1369009 237.3539,33.9815809 236.311558,33.9815809" id="Fill-72" fill="#FFFFFE"></path>
            <path d="M263.504784,44.9719967 L197.656674,44.9719967 C197.018548,44.9719967 196.500796,44.4549294 196.500796,43.8168027 C196.500796,43.178676 197.018548,42.6609248 197.656674,42.6609248 L263.504784,42.6609248 C264.142911,42.6609248 264.660662,43.178676 264.660662,43.8168027 C264.660662,44.4549294 264.142911,44.9719967 263.504784,44.9719967" id="Fill-73" fill="#BDDCEA"></path>
            <path d="M263.504784,51.3874613 L197.656674,51.3874613 C197.018548,51.3874613 196.500796,50.8697101 196.500796,50.2315834 C196.500796,49.5934567 197.018548,49.0757054 197.656674,49.0757054 L263.504784,49.0757054 C264.142911,49.0757054 264.660662,49.5934567 264.660662,50.2315834 C264.660662,50.8697101 264.142911,51.3874613 263.504784,51.3874613" id="Fill-74" fill="#BDDCEA"></path>
            <path d="M249.140436,58.2269758 L197.656674,58.2269758 C197.018548,58.2269758 196.500796,57.7092246 196.500796,57.0710979 C196.500796,56.4329712 197.018548,55.9152199 197.656674,55.9152199 L249.140436,55.9152199 C249.779246,55.9152199 250.296997,56.4329712 250.296997,57.0710979 C250.296997,57.7092246 249.779246,58.2269758 249.140436,58.2269758" id="Fill-75" fill="#BDDCEA"></path>
            <path d="M262.987717,33.9815809 L244.896517,33.9815809 C243.854859,33.9815809 243.009495,33.1369009 243.009495,32.0952428 C243.009495,31.0529008 243.854859,30.2082208 244.896517,30.2082208 L262.987717,30.2082208 C264.030059,30.2082208 264.874055,31.0529008 264.874055,32.0952428 C264.874055,33.1369009 264.030059,33.9815809 262.987717,33.9815809" id="Fill-76" fill="#FFFFFE"></path>
            <path d="M217.390725,117.400403 L196.848928,117.400403 C196.093161,117.400403 195.481025,116.787583 195.481025,116.0325 L195.481025,101.999185 C195.481025,101.244102 196.093161,100.631282 196.848928,100.631282 L217.390725,100.631282 C218.146492,100.631282 218.758628,101.244102 218.758628,101.999185 L218.758628,116.0325 C218.758628,116.787583 218.146492,117.400403 217.390725,117.400403" id="Fill-77" fill="#FFFFFE"></path>
            <path d="M207.262088,111.521841 C207.146501,111.521841 207.030229,111.482171 206.93516,111.404201 L195.755289,102.170172 C195.537109,101.989609 195.506331,101.666784 195.686894,101.44792 C195.868141,101.229739 196.19165,101.199645 196.408463,101.379525 L207.253197,110.335869 L217.820931,101.140141 C218.034324,100.954791 218.358517,100.977361 218.544552,101.190754 C218.730586,101.404831 218.708016,101.72834 218.493939,101.914375 L207.598593,111.39531 C207.502155,111.479436 207.38178,111.521841 207.262088,111.521841" id="Fill-78" fill="#62769B"></path>
            <path d="M196.082218,117.01739 C195.955003,117.01739 195.827788,116.970198 195.728615,116.875812 C195.52343,116.680202 195.515222,116.356009 195.710832,116.150824 L203.529765,107.931095 C203.723324,107.725226 204.049568,107.717019 204.25407,107.912629 C204.459939,108.108239 204.468147,108.432432 204.272537,108.638301 L196.453604,116.85803 C196.353063,116.964042 196.21764,117.01739 196.082218,117.01739" id="Fill-79" fill="#62769B"></path>
            <path d="M218.157435,116.716452 C218.026116,116.716452 217.894798,116.666523 217.794257,116.565982 L210.006786,108.757309 C209.807072,108.556911 209.807072,108.23135 210.008153,108.031636 C210.209235,107.831239 210.534112,107.831922 210.733826,108.03232 L218.521297,115.840994 C218.721011,116.042076 218.721011,116.366953 218.519929,116.566666 C218.419388,116.666523 218.288754,116.716452 218.157435,116.716452" id="Fill-80" fill="#62769B"></path>
            <path d="M226.689045,100.112162 C226.689045,103.902621 223.616735,106.975615 219.826277,106.975615 C216.035818,106.975615 212.963508,103.902621 212.963508,100.112162 C212.963508,96.3223875 216.035818,93.2493936 219.826277,93.2493936 C223.616735,93.2493936 226.689045,96.3223875 226.689045,100.112162" id="Fill-81" fill="#E15E51"></path>
            <text id="85" font-family="Courier" font-size="4" font-weight="normal" letter-spacing="-0.00403333333" fill="#FFFFFE">
                <tspan x="217.632003" y="101.83894">85</tspan>
            </text>
            <path d="M288.756955,97.5863298 L248.663037,97.5863298 C247.152189,97.5863298 245.927232,96.3613727 245.927232,94.850524 L245.927232,88.5773213 C245.927232,87.0664726 247.152189,85.8415155 248.663037,85.8415155 L288.756955,85.8415155 C290.267804,85.8415155 291.492761,87.0664726 291.492761,88.5773213 L291.492761,94.850524 C291.492761,96.3613727 290.267804,97.5863298 288.756955,97.5863298" id="Fill-82" fill="#377476"></path>
            <path d="M251.55752,94.793756 C251.377641,94.793756 251.233327,94.7301485 251.123895,94.6015657 C251.014463,94.4736667 250.966586,94.3129381 250.980265,94.1207478 L251.152621,92.5996398 L251.134154,92.5230372 L251.037717,92.5421878 L249.786086,93.4463717 C249.632197,93.5619595 249.471468,93.6043644 249.304584,93.5715348 C249.138384,93.540073 249.003645,93.4402161 248.901053,93.2733319 C248.785465,93.0681465 248.762894,92.8882673 248.833341,92.7343782 C248.903104,92.5804891 249.022796,92.4717408 249.188996,92.4074494 L250.594516,91.7720585 L250.652652,91.7146066 L250.594516,91.6564707 L249.188996,91.0210798 C249.009801,90.9444773 248.894213,90.8227339 248.843601,90.6558497 C248.79162,90.4889656 248.811455,90.3220814 248.901053,90.1551973 C249.003645,89.9883131 249.138384,89.8891402 249.304584,89.8563105 C249.471468,89.8248487 249.632197,89.8604142 249.786086,89.9630069 L251.037717,90.8870253 L251.134154,90.905492 L251.152621,90.8288895 L250.980265,89.3077814 C250.966586,89.1155911 251.017882,88.9548625 251.134154,88.8269636 C251.249742,88.6983807 251.403631,88.6347732 251.595821,88.6347732 C251.775701,88.6347732 251.92275,88.6983807 252.038338,88.8269636 C252.153926,88.9548625 252.199066,89.1155911 252.173076,89.3077814 L252.000037,90.8288895 L252.019187,90.905492 L252.116308,90.8870253 L253.367256,89.9821576 C253.520461,89.8658858 253.684609,89.8248487 253.858333,89.8563105 C254.030688,89.8891402 254.162007,89.9883131 254.252289,90.1551973 C254.367876,90.3603827 254.390447,90.540262 254.318632,90.694151 C254.248869,90.8480401 254.129861,90.9574723 253.962977,91.0210798 L252.558141,91.6564707 L252.500689,91.7146066 L252.558141,91.7720585 L253.962977,92.4074494 C254.14354,92.484052 254.261864,92.6064793 254.318632,92.7726795 C254.376768,92.9402476 254.354881,93.1071317 254.252289,93.2733319 C254.162007,93.4402161 254.030688,93.540073 253.858333,93.5715348 C253.684609,93.6043644 253.520461,93.568115 253.367256,93.4662062 L252.116308,92.5421878 L252.019187,92.5230372 L252.000037,92.5996398 L252.173076,94.1207478 C252.199066,94.3129381 252.150506,94.4736667 252.029446,94.6015657 C251.906335,94.7301485 251.74971,94.793756 251.55752,94.793756" id="Fill-83" fill="#FFFFFE"></path>
            <path d="M259.849747,94.793756 C259.670552,94.793756 259.526238,94.7301485 259.416806,94.6015657 C259.307374,94.4736667 259.259497,94.3129381 259.272492,94.1207478 L259.445532,92.5996398 L259.426381,92.5230372 L259.330628,92.5421878 L258.078997,93.4463717 C257.925108,93.5619595 257.764379,93.6043644 257.597495,93.5715348 C257.431295,93.540073 257.296557,93.4402161 257.193964,93.2733319 C257.078376,93.0681465 257.055806,92.8882673 257.126253,92.7343782 C257.196016,92.5804891 257.315023,92.4717408 257.481907,92.4074494 L258.887428,91.7720585 L258.945564,91.7146066 L258.887428,91.6564707 L257.481907,91.0210798 C257.302712,90.9444773 257.187124,90.8227339 257.135828,90.6558497 C257.084532,90.4889656 257.104366,90.3220814 257.193964,90.1551973 C257.296557,89.9883131 257.431295,89.8891402 257.597495,89.8563105 C257.764379,89.8248487 257.925108,89.8604142 258.078997,89.9630069 L259.330628,90.8870253 L259.426381,90.905492 L259.445532,90.8288895 L259.272492,89.3077814 C259.259497,89.1155911 259.310794,88.9548625 259.426381,88.8269636 C259.541969,88.6983807 259.695858,88.6347732 259.888733,88.6347732 C260.068612,88.6347732 260.215661,88.6983807 260.331249,88.8269636 C260.446837,88.9548625 260.491978,89.1155911 260.465988,89.3077814 L260.292948,90.8288895 L260.312099,90.905492 L260.408536,90.8870253 L261.659483,89.9821576 C261.812688,89.8658858 261.97752,89.8248487 262.15056,89.8563105 C262.3236,89.8891402 262.454918,89.9883131 262.5452,90.1551973 C262.660104,90.3603827 262.682674,90.540262 262.611543,90.694151 C262.54178,90.8480401 262.422773,90.9574723 262.255889,91.0210798 L260.851052,91.6564707 L260.7936,91.7146066 L260.851052,91.7720585 L262.255889,92.4074494 C262.435768,92.484052 262.554775,92.6064793 262.611543,92.7726795 C262.669679,92.9402476 262.647793,93.1071317 262.5452,93.2733319 C262.454918,93.4402161 262.3236,93.540073 262.15056,93.5715348 C261.97752,93.6043644 261.812688,93.568115 261.659483,93.4662062 L260.408536,92.5421878 L260.312099,92.5230372 L260.292948,92.5996398 L260.465988,94.1207478 C260.491978,94.3129381 260.443417,94.4736667 260.321674,94.6015657 C260.199247,94.7301485 260.042622,94.793756 259.849747,94.793756" id="Fill-84" fill="#FFFFFE"></path>
            <path d="M268.142659,94.793756 C267.963463,94.793756 267.818466,94.7301485 267.709717,94.6015657 C267.599601,94.4736667 267.551725,94.3129381 267.565404,94.1207478 L267.738443,92.5996398 L267.719293,92.5230372 L267.62354,92.5421878 L266.371224,93.4463717 C266.217335,93.5619595 266.056607,93.6043644 265.890407,93.5715348 C265.723522,93.540073 265.588784,93.4402161 265.486875,93.2733319 C265.370603,93.0681465 265.348033,92.8882673 265.419164,92.7343782 C265.488927,92.5804891 265.607935,92.4717408 265.774819,92.4074494 L267.180339,91.7720585 L267.237791,91.7146066 L267.180339,91.6564707 L265.774819,91.0210798 C265.595623,90.9444773 265.479352,90.8227339 265.428739,90.6558497 C265.377443,90.4889656 265.397278,90.3220814 265.486875,90.1551973 C265.588784,89.9883131 265.723522,89.8891402 265.890407,89.8563105 C266.056607,89.8248487 266.217335,89.8604142 266.371224,89.9630069 L267.62354,90.8870253 L267.719293,90.905492 L267.738443,90.8288895 L267.565404,89.3077814 C267.551725,89.1155911 267.603705,88.9548625 267.719293,88.8269636 C267.834881,88.6983807 267.98877,88.6347732 268.181644,88.6347732 C268.361523,88.6347732 268.507889,88.6983807 268.623477,88.8269636 C268.739748,88.9548625 268.784889,89.1155911 268.758215,89.3077814 L268.585859,90.8288895 L268.60501,90.905492 L268.701447,90.8870253 L269.952394,89.9821576 C270.105599,89.8658858 270.269748,89.8248487 270.443471,89.8563105 C270.616511,89.8891402 270.74783,89.9883131 270.838111,90.1551973 C270.953015,90.3603827 270.975586,90.540262 270.904455,90.694151 C270.834692,90.8480401 270.715,90.9574723 270.5488,91.0210798 L269.143964,91.6564707 L269.085828,91.7146066 L269.143964,91.7720585 L270.5488,92.4074494 C270.728679,92.484052 270.847003,92.6064793 270.904455,92.7726795 C270.961907,92.9402476 270.94002,93.1071317 270.838111,93.2733319 C270.74783,93.4402161 270.616511,93.540073 270.443471,93.5715348 C270.269748,93.6043644 270.105599,93.568115 269.952394,93.4662062 L268.701447,92.5421878 L268.60501,92.5230372 L268.585859,92.5996398 L268.758215,94.1207478 C268.784889,94.3129381 268.735645,94.4736667 268.614585,94.6015657 C268.492158,94.7301485 268.334849,94.793756 268.142659,94.793756" id="Fill-85" fill="#FFFFFE"></path>
        </g>
    </g>
</svg>