<?xml version="1.0" encoding="UTF-8"?>
<svg  width="100%" height="100%" viewBox="0 0 160 167.182309" version="1.1" xmlns="http://www.w3.org/2000/svg" xmlns:xlink="http://www.w3.org/1999/xlink">
    <title>hourglass (1)</title>
    <g id="Page-1" stroke="none" stroke-width="1" fill="none" fill-rule="evenodd">
        <g id="22:-On-Demand-Salary_Request-Processed" transform="translate(-103.000000, -64.000000)" fill-rule="nonzero">
            <g id="hourglass-(1)" transform="translate(103.000000, 64.000000)">
                <path d="M80,7.18230872 C35.817177,7.18230872 0,42.9994857 0,87.1823087 C0,117.544836 16.9148007,143.956376 41.8350871,157.508918 L118.164913,157.508918 C143.085199,143.956702 160,117.545163 160,87.1823087 C160,42.9994857 124.182496,7.18230872 80,7.18230872 Z" id="Path" fill="#223240"></path>
                <path d="M95.5130162,88.7186227 C108.829805,82.7451204 118.164913,69.3463727 118.164913,53.8712337 L118.164913,35.77081 L82.0979421,35.77081 C74.9806124,35.77081 69.1899658,41.5608036 69.1899658,48.6781332 L69.1899658,67.9811593 L69.2810671,68.1091583 C69.3832703,68.2525041 79.5105346,82.6471621 79.5105346,99.1165786 L79.5105346,108.262626 C77.9170782,109.315679 69.1899658,115.801504 69.1899658,131.388968 L69.1899658,161.02693 L110.817708,161.02693 L110.818034,161.028237 C113.334258,159.976817 115.786483,158.802295 118.164913,157.508918 L118.164913,138.170301 C118.164913,122.695162 108.829479,109.296414 95.5126897,103.322912 C89.1800067,100.481792 89.1803332,91.5594158 95.5130162,88.7186227 L95.5130162,88.7186227 Z" id="Path" fill="#E8F8FC"></path>
                <path d="M41.8350871,28.6639293 L41.8350871,53.8712337 C41.8350871,69.3463727 51.1701945,82.7451204 64.4869838,88.7186227 C70.8196668,91.5594158 70.8193403,100.482119 64.4869838,103.322912 C51.1701945,109.296414 41.8350871,122.695162 41.8350871,138.170301 L41.8350871,157.508918 C44.2148227,158.802949 46.6699864,159.975184 49.1881699,161.02693 L69.6800842,161.02693 C69.6800842,150.896727 69.6800842,139.30074 69.6800842,131.388968 C69.6800842,114.409515 80.0003265,108.532012 80.0003265,108.532012 C80.0003265,106.984596 80.0003265,104.124864 80.0003265,99.1165786 C80.0003265,82.3000629 69.6800842,67.8247525 69.6800842,67.8247525 L69.6800842,48.6781332 C69.6800842,41.8200668 75.2398756,36.2602754 82.0979421,36.2602754 L118.164913,36.2602754 L118.164913,28.6639293 L41.8350871,28.6639293 Z" id="Path" fill="#ADE9F7"></path>
                <path d="M68.8043363,8.74703064 C68.9836001,8.88319279 69.1507824,9.0258855 69.3075159,9.17347613 L124.132538,9.17347613 C124.132538,4.1279663 120.004571,0 114.959062,0 L68.8043363,0 C68.8043363,0 63.2416062,4.5263304 68.8043363,8.74703064 Z" id="Path" fill="#FFD402"></path>
                <path d="M69.4573922,0 L45.0409384,0 C39.9954286,0 35.8674623,4.1279663 35.8674623,9.17347613 L69.9605718,9.17347613 C69.8038383,9.0258855 69.636656,8.88319279 69.4573922,8.74703064 C63.8946621,4.5263304 69.4573922,0 69.4573922,0 L69.4573922,0 Z" id="Path" fill="#FEA53D"></path>
                <path d="M69.0270284,22.5287957 C68.8895601,22.8020996 68.8046628,22.9549147 68.8046628,22.9549147 C68.8046628,22.9549147 64.384454,26.0193794 68.8046628,29.3166586 L119.962776,29.3166586 C122.256308,29.3166586 124.132864,27.4401025 124.132864,25.1465702 L124.132864,22.5287957 L69.0270284,22.5287957 Z" id="Path" fill="#CE7867"></path>
                <path d="M69.4573922,22.9552412 C69.4573922,22.9552412 69.5422895,22.8024261 69.6797577,22.5291222 L35.8674623,22.5291222 L35.8674623,25.1468968 C35.8674623,27.4404291 37.7440184,29.3169852 40.0375507,29.3169852 L69.4577187,29.3169852 C65.0375099,26.019706 69.4573922,22.9552412 69.4573922,22.9552412 L69.4573922,22.9552412 Z" id="Path" fill="#9E533B"></path>
                <path d="M62.3537767,15.8512992 C62.3537767,11.9440658 65.5504853,8.74735716 69.4577187,8.74735716 L34.257353,8.74735716 C31.8322299,8.74735716 29.8482461,10.731341 29.8482461,13.156464 L29.8482461,18.5464608 C29.8482461,20.9712574 31.8322299,22.9552412 34.257353,22.9552412 L69.4577187,22.9552412 C65.5504853,22.9552412 62.3537767,19.7585326 62.3537767,15.8512992 Z" id="Path" fill="#FFD402"></path>
                <path d="M107.617734,15.8512992 C107.617734,11.9440658 110.814442,8.74735716 114.721676,8.74735716 L68.8043363,8.74735716 C64.8971029,8.74735716 61.7003943,11.9440658 61.7003943,15.8512992 C61.7003943,19.7585326 64.8971029,22.9552412 68.8043363,22.9552412 L114.721676,22.9552412 C110.814442,22.9552412 107.617734,19.7585326 107.617734,15.8512992 L107.617734,15.8512992 Z" id="Path" fill="#FEF156"></path>
                <path d="M130.151427,18.5461343 L130.151427,13.1561375 C130.151427,10.731341 128.167444,8.74703064 125.74232,8.74703064 L114.068293,8.74703064 C110.16106,8.74703064 106.964351,11.9437392 106.964351,15.8509726 C106.964351,19.7582061 110.16106,22.9549147 114.068293,22.9549147 L125.74232,22.9549147 C128.167444,22.9552412 130.151427,20.9712574 130.151427,18.5461343 L130.151427,18.5461343 Z" id="Path" fill="#FFFBB3"></path>
                <g id="Group" transform="translate(68.761888, 63.114587)" fill="#2FD0E2">
                    <path d="M33.7894385,0 L5.58460747,0 C5.3828132,0.172406756 5.1771006,0.361139909 4.97106146,0.570770851 C3.69662288,1.86512763 2.17696182,4.16257826 2.17696182,7.75830401 C2.17696182,11.0389303 4.64453351,14.9931837 8.46360438,17.8333238 C12.0247182,20.4811389 16.0109713,21.7363124 19.7604918,21.4636615 C20.9121558,20.4442413 22.2434103,19.5743708 23.7441327,18.9010702 C29.5873503,16.2800304 34.3422503,11.9868409 37.5405915,6.74704696 C39.3449849,3.79066293 37.2522673,0 33.7894385,0 L33.7894385,0 Z" id="Path"></path>
                    <path d="M11.2381123,52.8185076 C9.43469849,52.8185076 7.97283287,51.356642 7.97283287,49.5532281 L7.97283287,44.1109868 C7.97283287,42.307573 9.43469849,40.8457074 11.2381123,40.8457074 C13.0415262,40.8457074 14.5033918,42.307573 14.5033918,44.1109868 L14.5033918,49.5532281 C14.5033918,51.356642 13.0415262,52.8185076 11.2381123,52.8185076 Z" id="Path"></path>
                    <path d="M31.9696982,65.009102 L25.4518739,65.009102 C21.5854564,65.009102 17.7249165,64.1924556 14.3218423,62.3567155 C13.4042987,61.8616991 12.3538583,61.5805585 11.2381123,61.5805585 C10.1223663,61.5805585 9.07192594,61.8616991 8.15438241,62.3567155 C5.77791202,63.6386642 3.17842303,64.4223312 0.509383597,64.7792263 C0.303344462,65.3637113 0,66.7583122 0,69.9070212 L0,103.278177 C3.67245982,103.794745 7.42295981,104.067722 11.2381123,104.067722 C22.1607987,104.067722 32.5708362,101.87574 42.0561465,97.9123436 L42.0561465,75.0557138 C42.0561465,75.0207753 42.0561465,74.9861634 42.0561465,74.9515514 C42.0372079,69.4368209 37.4837756,65.009102 31.9696982,65.009102 L31.9696982,65.009102 Z" id="Path"></path>
                </g>
                <path d="M59.2687407,128.123689 C53.7543367,128.123689 49.201231,132.551408 49.1822924,138.065812 C49.1822924,138.10075 49.1819659,138.135362 49.1819659,138.169974 L49.1819659,161.026604 C55.5019143,163.667235 62.2326348,165.518322 69.2516796,166.461008 C69.2516796,154.61033 69.2516796,135.955788 69.2516796,133.021281 C69.2516796,128.667684 69.841389,127.809569 69.841389,127.809569 C68.5032775,128.020179 67.1452478,128.123362 65.7862385,128.123362 L59.2687407,128.123362 L59.2687407,128.123689 Z" id="Path" fill="#02C0FC"></path>
                <path d="M75.1301622,63.1145868 L57.4486739,63.1145868 C53.985845,63.1145868 51.8931274,66.9055763 53.6975208,69.8613073 C56.8958621,75.1011012 61.650762,79.3942907 67.4939796,82.0153305 C73.1873209,84.5694321 76.4816614,89.943429 76.5851707,95.714484 C76.6188031,97.5952849 78.119199,99.1165786 80.0003265,99.1165786 C81.8817806,99.1165786 83.3815234,97.5949584 83.4154823,95.7135044 C83.4977674,91.1832556 85.5464037,86.8890866 89.1927413,84.0166203 C80.4195884,85.1225704 71.4289679,77.0312079 71.4289679,70.8722378 C71.4286414,66.6554559 73.5680525,64.2845365 75.1301622,63.1145868 L75.1301622,63.1145868 Z" id="Path" fill="#02C0FC"></path>
            </g>
        </g>
    </g>
</svg>