<?xml version="1.0" encoding="UTF-8"?>
<svg width="30px" height="30px" viewBox="0 0 30 30" version="1.1" xmlns="http://www.w3.org/2000/svg" xmlns:xlink="http://www.w3.org/1999/xlink">
    <title>KYC</title>
    <defs>
        <linearGradient x1="69.979995%" y1="90.4476119%" x2="29.3323331%" y2="8.15620572%" id="linearGradient-1">
            <stop stop-color="#4A65FF" offset="0.26%"></stop>
            <stop stop-color="#0BB3FF" offset="100%"></stop>
        </linearGradient>
    </defs>
    <g id="Page-1" stroke="none" stroke-width="1" fill="none" fill-rule="evenodd">
        <g id="23:-Account-Page" transform="translate(-19.000000, -421.000000)" fill-rule="nonzero">
            <g id="KYC" transform="translate(19.000000, 421.000000)">
                <g id="delete" fill="url(#linearGradient-1)">
                    <circle id="Oval" cx="15" cy="15" r="15"></circle>
                </g>
                <g id="Group" transform="translate(7.298325, 5.372843)" fill="#FFF8F8">
                    <path d="M15.4033508,8.6644161 C15.4033508,8.1327832 14.9727432,7.70167542 14.4406102,7.70167542 C13.9084771,7.70167542 13.4778695,8.1327832 13.4778695,8.6644161 L13.4778695,9.62715679 C13.4778695,10.1587897 13.9084771,10.5898975 14.4406102,10.5898975 C14.9727432,10.5898975 15.4033508,10.1587897 15.4033508,9.62715679 L15.4033508,8.6644161 Z" id="Path"></path>
                    <path d="M14.435984,6.69904976 C14.9454864,6.54726182 15.236059,6.01137784 15.0837709,5.50175044 C14.12003,2.26244061 11.0842711,0 7.70167542,0 C3.45498875,0 0,3.45498875 0,7.70167542 L0,11.5526382 C0,15.7993248 3.45498875,19.2543136 7.70167542,19.2543136 C11.5092523,19.2543136 14.7866967,16.415979 15.3253313,12.6516629 C15.4006002,12.1251563 15.0348837,11.6376594 14.5083771,11.5625156 C13.979995,11.4901225 13.4939985,11.8534634 13.4187297,12.3790948 C13.0153788,15.2009252 10.5568892,17.3289572 7.70167542,17.3289572 C4.51650413,17.3289572 1.92535634,14.7379345 1.92535634,11.5526382 L1.92535634,7.70167542 C1.92535634,4.51650413 4.51637909,1.92535634 7.70167542,1.92535634 C10.2391848,1.92535634 12.516129,3.62190548 13.2391848,6.05076269 C13.3904726,6.55938985 13.9236059,6.85183796 14.435984,6.69904976 Z" id="Path"></path>
                    <path d="M7.70167542,15.5411353 C10.3557139,15.5411353 12.5152538,13.3815954 12.5152538,10.7275569 L12.5152538,8.52663166 C12.5152538,5.87271818 10.3557139,3.71317829 7.70167542,3.71317829 C6.85458865,3.71317829 6.02163041,3.93648412 5.29307327,4.35858965 C4.83333333,4.62503126 4.67629407,5.21455364 4.94323581,5.67429357 C5.21017754,6.13453363 5.79782446,6.29057264 6.25943986,6.02450613 C6.6947987,5.77206802 7.19304826,5.63853463 7.70167542,5.63853463 C9.29432358,5.63853463 10.5897724,6.93410853 10.5897724,8.52663166 L10.5897724,10.7275569 C10.5897724,12.3202051 9.29419855,13.6156539 7.70167542,13.6156539 C6.35346337,13.6156539 5.16704176,12.6614154 4.87934484,11.3470868 C4.76656664,10.8277069 4.2588147,10.4967492 3.73330833,10.611903 C3.21430358,10.7256814 2.88534634,11.2385596 2.99899975,11.7579395 C3.4776194,13.9499875 5.4556139,15.5411353 7.70167542,15.5411353 L7.70167542,15.5411353 Z" id="Path"></path>
                    <path d="M4.81357839,8.52675669 C4.81357839,8.31945486 4.83608402,8.11027757 4.88034509,7.90485121 C4.99224806,7.38497124 4.66229057,6.87259315 4.14228557,6.76069017 C3.61765441,6.65066267 3.10902726,6.97924481 2.99812453,7.49874969 C2.92473118,7.83770943 2.88809702,8.18317079 2.88809702,8.52675669 C2.88809702,9.0583896 3.31870468,9.48949737 3.85083771,9.48949737 C4.38297074,9.48937234 4.81357839,9.0583896 4.81357839,8.52675669 L4.81357839,8.52675669 Z" id="Path"></path>
                    <path d="M8.6644161,10.5898975 L8.6644161,8.6644161 C8.6644161,8.1327832 8.23380845,7.70167542 7.70167542,7.70167542 C7.16954239,7.70167542 6.73893473,8.1327832 6.73893473,8.6644161 L6.73893473,10.5898975 C6.73893473,11.1215304 7.16954239,11.5526382 7.70167542,11.5526382 C8.23380845,11.5526382 8.6644161,11.1215304 8.6644161,10.5898975 Z" id="Path"></path>
                </g>
            </g>
        </g>
    </g>
</svg>