<?xml version="1.0" encoding="UTF-8"?>
<svg width="100%" height="100%" viewBox="0 0 320 291.989028" version="1.1" xmlns="http://www.w3.org/2000/svg" xmlns:xlink="http://www.w3.org/1999/xlink">
    <title>Group</title>
    <defs>
        <linearGradient x1="91.0407349%" y1="50%" x2="7.71167851%" y2="50%" id="linearGradient-1">
            <stop stop-color="#EDFB8B" offset="0%"></stop>
            <stop stop-color="#6EDC85" offset="100%"></stop>
        </linearGradient>
        <path d="M173.526682,41.7339219 L109.869492,41.7339219 C108.14414,41.7339219 106.522762,41.0332333 105.29392,39.9030902 C104.228571,38.9236329 103.451033,37.612667 103.173018,36.1585496 C103.130826,35.9400553 103.096168,35.7140267 103.076579,35.4879981 C103.060004,35.2996409 103.052469,35.1135441 103.052469,34.928954 C103.056236,32.2264053 104.829054,30.0181058 107.362081,29.4131026 C106.341939,29.6587203 105.443852,30.1650244 104.737889,30.8604391 L172.433457,30.7549591 C174.158809,30.7549591 175.77868,31.4556478 177.006769,32.5857908 C178.182118,33.6556595 179.003355,35.1323798 179.199247,36.7597857 C179.229384,36.5638943 179.244452,36.3604685 179.244452,36.1570428 C179.245959,36.0990288 179.247466,36.0410148 179.247466,35.9814939 C179.247466,35.953617 179.247466,35.9249868 179.247466,35.8963565 C179.247466,35.9393019 179.247466,35.9822473 179.247466,36.0244393 C179.247466,36.0696451 179.247466,36.1140974 179.247466,36.1585496 C179.233904,36.862252 179.101301,37.5305433 178.866231,38.1445877 C178.427736,39.2920596 177.632115,40.248914 176.598411,40.8855612 C175.72142,41.4250162 174.674154,41.7339219 173.526682,41.7339219 M178.295886,32.652846 C177.944034,32.0681853 177.507046,31.5370181 177.006769,31.0789334 C176.650397,30.7511919 176.260875,30.459615 175.844982,30.2102301 C176.261628,30.459615 176.652658,30.7519454 177.009783,31.0804403 C177.510059,31.5377715 177.944788,32.0681853 178.295886,32.652846" id="path-2"></path>
        <linearGradient x1="91.0407349%" y1="50%" x2="7.71167851%" y2="50%" id="linearGradient-3">
            <stop stop-color="#EDFB8B" offset="0%"></stop>
            <stop stop-color="#6EDC85" offset="100%"></stop>
        </linearGradient>
        <path d="M276.808947,150.247242 L273.148037,192.091165 C272.916734,194.738713 270.587133,196.880711 267.938831,196.880711 L226.095662,196.880711 C223.451881,196.880711 221.493719,194.738713 221.725776,192.091165 L225.385932,150.247242 C225.535111,148.538466 226.566555,147.035376 227.988275,146.190029 C228.764306,145.72667 229.660133,145.457696 230.595138,145.457696 L272.438307,145.457696 C273.345435,145.457696 274.168179,145.710848 274.850786,146.143316 C276.167779,146.984143 276.96114,148.506822 276.808947,150.247242" id="path-4"></path>
        <linearGradient x1="91.0407349%" y1="50%" x2="7.71167851%" y2="50%" id="linearGradient-5">
            <stop stop-color="#EDFB8B" offset="0%"></stop>
            <stop stop-color="#6EDC85" offset="100%"></stop>
        </linearGradient>
        <polyline id="path-6" points="216.328212 100.82232 210.765648 100.82232 211.806887 88.9249279 217.367944 88.9249279 216.328212 100.82232"></polyline>
        <linearGradient x1="91.0407349%" y1="50%" x2="7.71167851%" y2="50%" id="linearGradient-7">
            <stop stop-color="#EDFB8B" offset="0%"></stop>
            <stop stop-color="#6EDC85" offset="100%"></stop>
        </linearGradient>
        <path d="M171.447219,136.298264 C171.447219,136.298264 185.588322,177.186839 185.246265,196.84756 C185.052634,208.111319 184.204273,229.099582 180.805557,243.862264 C178.031432,255.908082 166.733015,263.601342 166.733015,263.601342 L157.670022,263.064901 C157.670022,263.064901 152.78027,244.681241 153.630891,237.365448 C155.323091,222.805439 160.346954,211.862641 159.741951,198.491542 C158.774548,176.593137 152.297322,135.947166 152.297322,135.947166 L171.447219,136.298264" id="path-8"></path>
        <linearGradient x1="91.0407349%" y1="50%" x2="7.71167851%" y2="50%" id="linearGradient-9">
            <stop stop-color="#EDFB8B" offset="0%"></stop>
            <stop stop-color="#6EDC85" offset="100%"></stop>
        </linearGradient>
        <path d="M165.104856,135.9547 C165.104856,135.9547 176.342245,207.855153 152.970134,215.948484 C140.638766,220.621249 130.261793,215.555195 117.975631,210.116946 C110.873059,206.972888 101.996916,198.468185 101.996916,198.468185 L105.409194,189.17841 C105.409194,189.17841 113.475402,186.559491 124.220048,188.226829 C136.201825,190.085538 136.704362,193.47446 140.962741,190.92335 C149.911213,168.79515 134.511884,151.309577 144.977762,135.918536 L165.104856,135.9547" id="path-10"></path>
        <linearGradient x1="91.0407349%" y1="50%" x2="7.71167851%" y2="50%" id="linearGradient-11">
            <stop stop-color="#EDFB8B" offset="0%"></stop>
            <stop stop-color="#6EDC85" offset="100%"></stop>
        </linearGradient>
        <path d="M127.372394,100.10807 C126.654376,100.10807 125.948414,99.9822473 125.298205,99.716287 C122.964836,98.7624463 121.876885,96.3311319 122.316134,93.0461828 C122.343257,92.8397434 122.536135,92.6943316 122.739561,92.7222085 C122.945247,92.7500853 123.090659,92.939196 123.062028,93.1456354 C122.673259,96.0644182 123.591689,98.2049091 125.583754,99.018612 C127.737807,99.9001236 130.602343,99.018612 132.102419,97.0152452 C133.989758,94.4957796 133.379481,90.9260345 130.426794,87.2199188 C122.712437,77.5383601 123.228536,72.3901819 124.317241,68.3246807 C125.900948,62.4170463 130.536794,55.648243 143.644947,56.9494143 C143.851386,56.9705103 144.002072,57.1543469 143.981729,57.3615398 C143.961387,57.5687327 143.785838,57.7164047 143.569604,57.6998293 C130.997893,56.4476308 126.552663,62.8947201 125.045806,68.5190653 C123.955595,72.5853199 123.51936,77.3424687 131.015222,86.7505327 C135.536547,92.4246042 133.703455,96.1352404 132.705916,97.4673024 C131.458238,99.1331332 129.368226,100.10807 127.372394,100.10807" id="path-12"></path>
    </defs>
    <g id="Page-1" stroke="none" stroke-width="1" fill="none" fill-rule="evenodd">
        <g id="15:-KYC-Done" transform="translate(-25.000000, -59.453000)">
            <g id="Group" transform="translate(25.000000, 59.453000)">
                <path d="M304.599918,283.460215 C304.599918,288.170652 239.19628,291.989028 158.517629,291.989028 C77.8382247,291.989028 12.4353405,288.170652 12.4353405,283.460215 C12.4353405,278.749779 77.8382247,274.931403 158.517629,274.931403 C239.19628,274.931403 304.599918,278.749779 304.599918,283.460215 Z" id="Fill-1" fill="#444761"></path>
                <path d="M4.29454353,2.93159103 C2.02521632,2.93535817 0.189110601,4.77598446 0.189110601,7.04531167 L0.189110601,211.548461 C0.189110601,213.817035 2.02521632,215.657661 4.29454353,215.662181 L149.774089,215.662181 C152.04417,215.657661 153.884043,213.818541 153.888563,211.548461 L153.888563,7.04531167 C153.884043,4.77523103 152.04417,2.93535817 149.774089,2.93159103 L4.29454353,2.93159103 M149.774089,215.850539 L4.29454353,215.850539 C1.92124316,215.846018 0,213.921008 0,211.548461 L0,7.04531167 C0.0210960033,4.68707988 1.93631173,2.78467244 4.29454353,2.78090529 L149.774089,2.78090529 C152.150403,2.78090529 154.076167,4.70666902 154.076167,7.08298311 L154.076167,211.548461 C154.076167,213.924021 152.150403,215.850539 149.774089,215.850539" id="Fill-2" fill="#E6E6E1"></path>
                <path d="M167.261169,2.93159103 C164.991088,2.93535817 163.151215,4.77523103 163.146695,7.04531167 L163.146695,211.548461 C163.151215,213.818541 164.991088,215.657661 167.261169,215.662181 L312.748249,215.662181 C315.01833,215.657661 316.857449,213.818541 316.86197,211.548461 L316.86197,7.04531167 C316.857449,4.77523103 315.01833,2.93535817 312.748249,2.93159103 L167.261169,2.93159103 M312.748249,215.850539 L167.261169,215.850539 C164.887115,215.846018 162.962858,213.922515 162.959091,211.548461 L162.959091,7.04531167 C162.983954,4.68557302 164.90143,2.78467244 167.261169,2.78090529 L312.748249,2.78090529 C315.103467,2.78919301 317.014916,4.69009359 317.034505,7.04531167 L317.034505,211.548461 C317.034505,213.917994 315.118536,215.842251 312.748249,215.850539" id="Fill-3" fill="#E6E6E1"></path>
                <path d="M126.684514,107.30256 L125.65307,195.886185 C122.008735,225.352028 69.7697569,248.747495 69.7697569,248.747495 C69.7697569,248.747495 17.5315322,225.352028 13.8871976,195.886185 L12.7939726,107.30256 L68.6252987,88.9249279 L126.684514,107.30256" id="Fill-4" fill="#F8F7F5" opacity="0.100000001"></path>
                <path d="M119.403379,112.91033 L118.503785,192.427947 C115.325823,218.125893 69.7659898,238.529496 69.7659898,238.529496 C69.7659898,238.529496 24.2061569,218.125893 21.0289481,192.427947 L20.0751074,112.91033 L68.7684502,96.8818883 L119.403379,112.91033" id="Fill-5" fill="#DFDFDA" opacity="0.100000001"></path>
                <path d="M114.785614,142.77775 C114.77808,143.401589 115.278357,143.913167 115.902196,143.920702 C116.526788,143.928236 117.038366,143.427959 117.0459,142.803367 C117.052681,142.179528 116.552404,141.66795 115.928566,141.660416 C115.304727,141.653635 114.792395,142.153911 114.785614,142.77775 M114.498558,167.63939 C114.491024,168.263229 114.9913,168.774807 115.615139,168.782342 C116.239732,168.789122 116.75131,168.289599 116.758091,167.665007 C116.765625,167.041168 116.265348,166.52959 115.641509,166.522055 C115.01767,166.515275 114.505339,167.014798 114.498558,167.63939 M114.000542,192.273495 C113.880746,192.886032 114.280064,193.479734 114.892601,193.599529 C115.505139,193.719324 116.09884,193.320007 116.218636,192.70747 C116.338431,192.094932 115.939114,191.50123 115.326576,191.381435 C114.714038,191.26164 114.120337,191.660957 114.000542,192.273495 M101.139514,212.272506 C100.684443,212.6997 100.660333,213.414704 101.087527,213.870528 C101.513968,214.325599 102.228972,214.348955 102.684796,213.922515 C103.14062,213.496074 103.163977,212.78107 102.736783,212.325246 C102.310342,211.869421 101.595338,211.846065 101.139514,212.273259 L101.139514,212.272506 M81.2459827,226.754912 C80.7080346,227.071352 80.5287186,227.763753 80.8451586,228.301701 C81.1615987,228.839649 81.8539996,229.018965 82.3919477,228.702525 C82.9298958,228.386085 83.1092118,227.692931 82.7927718,227.154983 C82.4763317,226.617035 81.7839308,226.437719 81.2459827,226.754912 M60.2660074,228.010878 C59.7227853,227.702725 59.0333981,227.893343 58.7252457,228.436565 C58.4178468,228.979787 58.6084643,229.669174 59.1516864,229.977327 C59.694155,230.284725 60.3842957,230.094108 60.6916946,229.550886 C60.999847,229.008417 60.8084761,228.318277 60.2660074,228.010878 M40.0417211,213.946624 C39.5730885,213.534499 38.8595915,213.579705 38.4467126,214.048337 C38.0345871,214.51697 38.0805462,215.23122 38.5491789,215.643346 C39.0178115,216.055471 39.7320619,216.010265 40.1441874,215.541633 C40.5563129,215.073 40.5103538,214.35875 40.0417211,213.946624 M25.9209606,194.600836 C25.7386309,194.003367 25.1065042,193.667338 24.5097887,193.849667 C23.9130732,194.032751 23.577044,194.664124 23.7593737,195.260839 C23.9417035,195.858308 24.5730767,196.194338 25.1705456,196.012008 C25.7672612,195.828925 26.1032904,195.197551 25.9209606,194.600836 M24.8533522,170.159609 C24.8458179,169.53577 24.3334864,169.036247 23.7096474,169.043781 C23.0858085,169.051316 22.5855318,169.563647 22.5930661,170.187486 C22.6013538,170.812078 23.1129319,171.311602 23.7375243,171.304067 C24.3613632,171.29578 24.8608865,170.784202 24.8533522,170.159609 M24.548967,145.298723 C24.5414327,144.67413 24.0291012,144.174607 23.4052622,144.182141 C22.7806698,144.189676 22.2811466,144.702007 22.2886809,145.3266 C22.2969686,145.950439 22.8085467,146.449962 23.4331391,146.442427 C24.056978,146.434893 24.5565013,145.922562 24.548967,145.298723 M24.2445818,120.437083 C24.2370475,119.813244 23.724716,119.313721 23.100877,119.321255 C22.4762847,119.328789 21.9767614,119.841121 21.9842957,120.46496 C21.99183,121.088799 22.5041615,121.589075 23.1280005,121.581541 C23.7525929,121.573253 24.2521161,121.061675 24.2445818,120.437083 M44.6579787,112.017517 C45.2509271,111.822379 45.5733945,111.183472 45.3782565,110.590523 C45.1831185,109.997575 44.544211,109.675861 43.9512626,109.870999 C43.3583142,110.066137 43.0358467,110.704291 43.2309848,111.297239 C43.4261228,111.890188 44.0650303,112.212655 44.6579787,112.017517 M68.274201,104.24364 C68.8671493,104.048502 69.1896168,103.410348 68.9944788,102.817399 C68.7993407,102.224451 68.1604332,101.901984 67.5674848,102.097122 C66.9752899,102.29226 66.6528224,102.931167 66.8479604,103.524116 C67.0430985,104.117064 67.682006,104.438778 68.274201,104.24364 M91.2808994,111.225664 C91.8761081,111.414774 92.5112485,111.084772 92.6996056,110.489564 C92.8879628,109.894355 92.5587145,109.259215 91.9635058,109.070858 C91.3682971,108.8825 90.7331567,109.212502 90.5447996,109.807711 C90.3564424,110.40292 90.6864442,111.037306 91.2808994,111.225664 M114.985273,118.72906 C115.580481,118.917417 116.215622,118.588169 116.403979,117.99296 C116.592336,117.397751 116.262334,116.762611 115.667126,116.574254 C115.071917,116.385897 114.43753,116.715899 114.24842,117.310354 C114.060062,117.905562 114.390064,118.540703 114.985273,118.72906 M115.072671,117.91611 C115.065136,118.539949 115.565413,119.052281 116.190005,119.059062 C116.813844,119.066596 117.325422,118.566319 117.332957,117.94248 C117.339737,117.317888 116.840214,116.80631 116.215622,116.798776 C115.591783,116.791995 115.080205,117.292271 115.072671,117.91611" id="Fill-6" fill="#FFFFFE"></path>
                <polygon id="Fill-7" fill="#F8F7F5" opacity="0.100000001" points="201.420119 253.746495 301.915451 253.746495 301.915451 77.413291 201.420119 77.413291"></polygon>
                <polygon id="Fill-8" fill="#FFFFFF" opacity="0.100000001" points="208.843652 253.746495 294.618494 253.746495 294.618494 84.3440815 208.843652 84.3440815"></polygon>
                <path d="M211.241815,254.500677 C211.091883,254.500677 210.941197,254.47054 210.804827,254.410265 C210.669963,254.357525 210.549414,254.275402 210.443934,254.169168 C210.33092,254.063688 210.248043,253.935605 210.195303,253.799988 C210.142563,253.664371 210.111672,253.521973 210.111672,253.370534 C210.111672,253.076697 210.232974,252.782859 210.443934,252.571899 C210.7001,252.308199 211.091883,252.195185 211.461063,252.262994 L211.672023,252.323268 L211.867915,252.428748 L212.041203,252.571899 L212.17682,252.745188 C212.222026,252.805462 212.25141,252.86649 212.281547,252.94108 C212.311684,253.008888 212.33504,253.076697 212.350109,253.15204 C212.365177,253.219848 212.371958,253.295191 212.371958,253.370534 C212.371958,253.521973 212.341821,253.664371 212.281547,253.799988 C212.22956,253.935605 212.146683,254.063688 212.041203,254.169168 C211.822709,254.380128 211.54394,254.500677 211.241815,254.500677" id="Fill-9" fill="#FFFFFE"></path>
                <path d="M210.111672,114.604038 C210.111672,113.978692 210.616469,113.473895 211.241815,113.473895 C211.867915,113.473895 212.371958,113.978692 212.371958,114.604038 C212.371958,115.229384 211.867915,115.734181 211.241815,115.734181 C210.616469,115.734181 210.111672,115.229384 210.111672,114.604038 Z M210.111672,142.352817 C210.111672,141.735005 210.616469,141.222673 211.241815,141.222673 C211.867915,141.222673 212.371958,141.735005 212.371958,142.352817 C212.371958,142.978162 211.867915,143.48296 211.241815,143.48296 C210.616469,143.48296 210.111672,142.978162 210.111672,142.352817 Z M210.111672,170.109129 C210.111672,169.484537 210.616469,168.978986 211.241815,168.978986 C211.867915,168.978986 212.371958,169.484537 212.371958,170.109129 C212.371958,170.734475 211.867915,171.239272 211.241815,171.239272 C210.616469,171.239272 210.111672,170.734475 210.111672,170.109129 Z M210.111672,197.866196 C210.111672,197.240097 210.616469,196.736053 211.241815,196.736053 C211.867915,196.736053 212.371958,197.240097 212.371958,197.866196 C212.371958,198.483254 211.867915,198.996339 211.241815,198.996339 C210.616469,198.996339 210.111672,198.483254 210.111672,197.866196 Z M210.111672,225.614974 C210.111672,224.989629 210.616469,224.484831 211.241815,224.484831 C211.867915,224.484831 212.371958,224.989629 212.371958,225.614974 C212.371958,226.239567 211.867915,226.745117 211.241815,226.745117 C210.616469,226.745117 210.111672,226.239567 210.111672,225.614974 L210.111672,225.614974 Z" id="Fill-10" fill="#FFFFFE"></path>
                <path d="M211.241815,87.977868 C210.941197,87.977868 210.646607,87.8573194 210.443934,87.6463594 C210.391194,87.5936194 210.338454,87.5408794 210.300029,87.4730708 C210.263111,87.4127965 210.22544,87.3525222 210.195303,87.2847136 C210.165166,87.2093708 210.142563,87.1415622 210.135029,87.0662193 C210.11996,86.9984107 210.111672,86.9230679 210.111672,86.847725 C210.111672,86.5538878 210.232974,86.2600506 210.443934,86.0490906 L210.609689,85.9059391 L210.804827,85.8079934 C210.873389,85.7778563 210.948732,85.7552534 211.01654,85.7401848 C211.167226,85.7100477 211.309624,85.7100477 211.461063,85.7401848 L211.672023,85.8079934 L211.867915,85.9059391 L212.041203,86.0490906 C212.25141,86.2600506 212.371958,86.5538878 212.371958,86.847725 C212.371958,86.9230679 212.365177,86.9984107 212.350109,87.0662193 C212.33504,87.1415622 212.311684,87.2093708 212.281547,87.2847136 C212.25141,87.3525222 212.222026,87.4127965 212.17682,87.4730708 C212.139149,87.5408794 212.09319,87.5936194 212.041203,87.6463594 C211.830243,87.8573194 211.536406,87.977868 211.241815,87.977868" id="Fill-11" fill="#FFFFFE"></path>
                <path d="M237.00983,86.847725 C237.00983,86.2223792 237.514627,85.7183354 238.139973,85.7183354 C238.765319,85.7183354 239.270116,86.2223792 239.270116,86.847725 C239.270116,87.4730708 238.765319,87.977868 238.139973,87.977868 C237.514627,87.977868 237.00983,87.4730708 237.00983,86.847725 M263.907234,86.847725 C263.907234,86.2223792 264.412031,85.7183354 265.037377,85.7183354 C265.662723,85.7183354 266.16752,86.2223792 266.16752,86.847725 C266.16752,87.4730708 265.662723,87.977868 265.037377,87.977868 C264.412031,87.977868 263.907234,87.4730708 263.907234,86.847725" id="Fill-12" fill="#FFFFFE"></path>
                <polygon id="Fill-16" fill="#DFDFDA" points="10.687386 254.221908 41.7361822 254.221908 41.7361822 254.033551 10.687386 254.033551"></polygon>
                <polygon id="Fill-17" fill="#DFDFDA" points="73.8849844 252.715051 105.024192 252.715051 105.024192 252.526694 73.8849844 252.526694"></polygon>
                <polygon id="Fill-18" fill="#DFDFDA" points="138.0093 252.715051 145.543587 252.715051 145.543587 252.526694 138.0093 252.526694"></polygon>
                <polygon id="Fill-19" fill="#DFDFDA" points="35.3923127 259.149332 70.2383895 259.149332 70.2383895 258.960975 35.3923127 258.960975"></polygon>
                <polygon id="Fill-20" fill="#DFDFDA" points="174.490317 254.123963 190.764377 254.123963 190.764377 253.935605 174.490317 253.935605"></polygon>
                <polygon id="Fill-21" fill="#DFDFDA" points="197.469892 254.123963 218.513156 254.123963 218.513156 253.935605 197.469892 253.935605"></polygon>
                <g id="Group-26" opacity="0.100000001" transform="translate(111.311555, 0.000000)">
                    <polyline id="Fill-23" fill="#ECECE8" points="34.7066926 24.5715698 0 24.5715698 1.89185944 2.93912532 36.5993054 2.93912532 34.7066926 24.5715698"></polyline>
                    <polyline id="Fill-25" fill="#FDFCFB" points="35.410395 0 34.4610748 11.2969098 33.5117547 24.8699276 0.129589735 24.8699276 2.0274766 0 35.410395 0"></polyline>
                </g>
                <polyline id="Fill-27" fill="#DFDFDA" points="143.528919 2.9413856 145.421532 24.5723233 110.717099 24.5723233 108.824486 2.9413856 111.774913 2.9413856 112.80259 1.31548649 122.151887 1.31548649 123.491483 2.9413856 143.528919 2.9413856"></polyline>
                <polygon id="Fill-28" fill="#ECECE8" opacity="0.100000001" points="162.880735 66.3318618 199.811549 66.3318618 199.811549 29.4018012 162.880735 29.4018012"></polygon>
                <polygon id="Fill-29" fill="#DFDFDA" opacity="0.200000003" points="199.811549 66.3318618 200.752581 66.3318618 200.752581 29.4018012 199.811549 29.4018012"></polygon>
                <polygon id="Fill-30" fill="#F8F7F5" opacity="0.100000001" points="166.288493 62.9233504 196.396256 62.9233504 196.396256 32.81634 166.288493 32.81634"></polygon>
                <polygon id="Fill-31" fill="#DFDFDA" points="166.296027 62.9233504 166.571028 62.9233504 166.571028 32.81634 166.296027 32.81634"></polygon>
                <g id="Group-7" opacity="0.200000003" transform="translate(170.117417, 37.267597)" fill="#DFDFDA">
                    <path d="M5.63941374,7.47777974 C5.63941374,11.6073224 8.26737301,14.9555595 11.5093767,14.9555595 C14.7513803,14.9555595 17.3785861,11.6073224 17.3785861,7.47777974 C17.3785861,3.34823709 14.7513803,0 11.5093767,0 C8.26737301,0 5.63941374,3.34823709 5.63941374,7.47777974" id="Fill-32"></path>
                    <polygon id="Fill-33" points="8.4406616 18.7317441 14.6270646 18.7317441 14.6270646 12.5453411 8.4406616 12.5453411"></polygon>
                    <path d="M0,25.6557537 L22.6646418,25.6557537 L22.6646418,23.5491671 C22.6646418,19.5379128 19.4128436,16.286868 15.4015893,16.286868 L7.26229913,16.286868 C3.25104479,16.286868 0,19.5379128 0,23.5491671 L0,25.6557537" id="Fill-34"></path>
                </g>
                <path d="M86.4499147,53.836247 C84.1843546,54.152687 82.5976338,56.2532462 82.9140738,58.5188063 C83.2305139,60.7843664 85.331073,62.3703337 87.5966331,62.0546471 C89.8621932,61.7382071 91.448914,59.6376479 91.132474,57.3720878 C90.8167873,55.1065278 88.7154747,53.5205604 86.4499147,53.836247 Z M88.2468421,66.7146036 C83.4120902,67.3889222 78.9291895,64.0045206 78.2548708,59.1697687 C77.5790453,54.3342633 80.9642004,49.8513626 85.7989523,49.1762905 C90.6344576,48.5019719 95.1181117,51.8863735 95.7931838,56.7218789 C96.4682559,61.5573842 93.0823474,66.0395315 88.2468421,66.7146036 L88.2468421,66.7146036 Z" id="Fill-55" fill="#DFDFDA"></path>
                <polyline id="Fill-56" fill="#DFDFDA" points="87.9085526 52.9630231 84.5799046 53.4278886 81.5918065 32.0199659 84.9204544 31.5551004 87.9085526 52.9630231"></polyline>
                <polyline id="Fill-57" fill="#DFDFDA" points="88.1315675 32.1254459 81.8826299 32.9971629 81.4177644 29.6685149 87.666702 28.7967979 88.1315675 32.1254459"></polyline>
                <polyline id="Fill-58" fill="#DFDFDA" points="88.733557 36.4019071 82.8575667 37.222391 82.3934546 33.893743 88.2694449 33.0732592 88.733557 36.4019071"></polyline>
                <polyline id="Fill-59" fill="#DFDFDA" points="89.5856849 42.4346106 84.4563423 43.1496145 83.9922303 39.8217199 89.1215728 39.1052093 89.5856849 42.4346106"></polyline>
                <path d="M85.9270351,128.095685 C86.8454647,138.58718 79.0836424,147.091883 68.5929013,147.091883 C58.1006534,147.091883 48.8508093,138.58718 47.9338866,128.095685 C47.0154571,117.603438 54.776526,109.097981 65.2680205,109.097981 C75.7602684,109.097981 85.0101124,117.603438 85.9270351,128.095685" id="Fill-60" fill="#426AA5"></path>
                <path d="M68.5929013,147.091883 C58.1006534,147.091883 48.8508093,138.58718 47.9338866,128.095685 C47.8841603,127.532121 47.8600497,126.97383 47.8600497,126.423074 C47.8570369,116.714392 55.3400906,109.097981 65.2680205,109.097981 C66.9466596,109.097981 68.5936547,109.315722 70.1796221,109.724834 C78.5050091,111.872859 85.1532639,119.285844 85.923268,128.092672 C85.9729943,128.658497 85.997104,129.218294 85.997104,129.772064 C85.997104,135.622438 83.2794867,140.713356 78.9472718,143.835564 C76.091777,145.891671 72.5348402,147.091883 68.5929013,147.091883" id="Fill-61" fill="#FFFFFF"></path>
                <path d="M58.0788039,116.178704 C57.8490082,116.178704 57.6214727,116.073977 57.4738007,115.874319 C57.2259227,115.539796 57.2952381,115.068903 57.6297604,114.820272 C60.0211431,113.045194 63.033351,112.107175 66.3401495,112.107175 L66.3514509,112.107175 C66.7673436,112.107175 67.1041262,112.444711 67.1041262,112.860604 C67.1041262,113.27725 66.7665901,113.614033 66.3506975,113.614033 L66.3401495,113.614033 C63.3580788,113.614033 60.6570369,114.449585 58.527094,116.030278 C58.3922303,116.130484 58.2347637,116.178704 58.0788039,116.178704" id="Fill-62" fill="#79DE85"></path>
                <path d="M61.6425216,142.098911 C61.5227265,142.098911 61.4014245,142.070281 61.2876567,142.010006 C56.6171523,139.509377 53.3487786,135.064901 52.3218553,129.81727 C51.3966449,125.093272 52.4989111,120.41674 55.3446112,116.985626 C55.6098181,116.666926 56.085985,116.62172 56.4061922,116.88768 C56.725646,117.152887 56.7700983,117.627547 56.5048914,117.948508 C53.9485079,121.029278 52.9622697,125.249985 53.8008358,129.527953 C54.7403614,134.329554 57.729213,138.395056 61.9988934,140.681712 C62.3658132,140.877603 62.5036906,141.334934 62.3077992,141.701854 C62.1714286,141.955006 61.9114957,142.098911 61.6425216,142.098911" id="Fill-63" fill="#79DE85"></path>
                <path d="M69.1835894,144.064607 C67.5584437,144.064607 65.8895992,143.800153 64.2200012,143.262205 C63.8236977,143.134876 63.6059568,142.710695 63.7332862,142.314392 C63.8613691,141.918088 64.2878098,141.69884 64.681853,141.82843 C69.3161928,143.320219 73.9445053,142.490694 77.3748661,139.547802 C80.8715286,136.547648 82.4981812,131.873377 81.7244099,127.042392 C81.6581082,126.631774 81.9383837,126.245265 82.3490023,126.179716 C82.7573606,126.111154 83.1461298,126.392937 83.2124316,126.804309 C84.0698334,132.156666 82.2533169,137.34779 78.3558302,140.691506 C75.7632821,142.914874 72.5694979,144.063853 69.1835894,144.064607" id="Fill-64" fill="#79DE85"></path>
                <path d="M81.8562599,125.12793 C81.5375596,125.12793 81.2422156,124.924504 81.1389958,124.60505 C79.7504267,120.290164 76.4895874,116.657885 72.4173053,114.888081 C72.035317,114.72308 71.8597681,114.278557 72.0262758,113.897322 C72.1912767,113.515333 72.6335393,113.339785 73.017788,113.506292 C77.4810995,115.445618 81.0546118,119.422214 82.573524,124.143199 C82.7008535,124.539502 82.4831126,124.963682 82.0875625,125.091012 C82.0099594,125.115875 81.9331097,125.12793 81.8562599,125.12793" id="Fill-65" fill="#79DE85"></path>
                <path d="M69.9807169,114.03972 L69.8066749,114.019377 C68.6735182,113.751157 67.5102243,113.614786 66.3499441,113.614033 C65.9340514,113.613279 65.5965154,113.275743 65.5972676,112.85985 C65.5980222,112.443958 65.9348049,112.107175 66.3506975,112.107175 L66.3514509,112.107175 C67.6277591,112.107929 68.9078345,112.258614 70.1540055,112.553205 C70.5585967,112.649644 70.8094885,113.054989 70.7130496,113.460333 C70.6316793,113.80691 70.3220201,114.03972 69.9807169,114.03972" id="Fill-66" fill="#40AC4D"></path>
                <path d="M56.6924951,132.042145 C56.3850962,132.042145 56.0965331,131.853034 55.9850256,131.548649 C54.5700865,127.701642 55.0515275,123.642168 57.3057861,120.41222 C59.4651127,117.317888 62.9045147,115.54281 66.7402201,115.54281 L66.7424804,115.54281 C67.1591265,115.54281 67.4959091,115.880346 67.4959091,116.296239 C67.4959091,116.712131 67.1583731,117.049667 66.7424804,117.049667 L66.7402201,117.049667 C63.4040379,117.049667 60.4151863,118.589676 58.5414091,121.274896 C56.5727,124.094979 56.1575608,127.649656 57.3992113,131.02803 C57.5423627,131.419059 57.3427041,131.851527 56.9516746,131.995432 C56.8665372,132.027076 56.778386,132.042145 56.6924951,132.042145" id="Fill-67" fill="#79DE85"></path>
                <path d="M68.643381,140.643287 L68.6358467,140.643287 C64.2614398,140.598835 59.8297722,138.093684 57.344211,134.260992 C57.1174289,133.912155 57.2168815,133.445783 57.5664724,133.219001 C57.9153099,132.992218 58.3816823,133.092425 58.6084643,133.441262 C60.8265584,136.861828 64.7677438,139.097251 68.6509153,139.136429 C69.0668079,139.14095 69.4013303,139.4815 69.396855,139.897392 C69.3922891,140.311025 69.0562599,140.643287 68.643381,140.643287" id="Fill-68" fill="#79DE85"></path>
                <path d="M71.4559303,140.317052 C71.1183943,140.317052 70.8109953,140.08801 70.7258579,139.7452 C70.6256519,139.341362 70.8712696,138.933004 71.2751074,138.832798 C77.3861675,137.310872 78.9683678,131.969062 78.4665843,127.856849 C77.8118547,122.492436 73.5738184,117.057202 66.741727,117.049667 C66.3258344,117.048914 65.9882983,116.711378 65.9890505,116.295485 C65.9898052,115.879593 66.3273412,115.54281 66.7424804,115.54281 L66.7432339,115.54281 C74.4508093,115.551098 79.2275472,121.652363 79.9621402,127.673765 C80.7215963,133.892566 77.4539761,138.846359 71.6382601,140.294449 L71.4559303,140.317052" id="Fill-69" fill="#79DE85"></path>
                <path d="M63.6639708,121.210854 C63.3799282,121.210854 63.107187,121.04962 62.9798576,120.773865 C62.8050621,120.396398 62.970063,119.948861 63.3475308,119.774066 C64.4716464,119.253446 65.7389134,118.978445 67.0129613,118.978445 C67.4296074,118.978445 67.76639,119.315981 67.76639,119.731874 C67.76639,120.147766 67.4296074,120.485302 67.0129613,120.485302 C65.9559009,120.485302 64.9078816,120.712084 63.9796574,121.141539 C63.8779446,121.189005 63.7702042,121.210854 63.6639708,121.210854" id="Fill-70" fill="#40AC4D"></path>
                <path d="M68.5024898,137.133063 C64.7097298,137.133063 61.2123139,134.82079 59.5329213,131.176455 C57.9710636,127.785273 58.4283948,124.232857 60.7564895,121.674966 C61.036765,121.366814 61.5136853,121.344964 61.8203308,121.624486 C62.1277297,121.904008 62.151086,122.380929 61.8708105,122.688328 C59.9631291,124.78512 59.6014833,127.721985 60.9026547,130.545836 C62.3695803,133.732085 65.4691859,135.725658 68.743587,135.622438 C71.4054506,135.540314 73.6182706,134.086197 74.6640297,131.731732 C75.849173,129.062334 75.3157455,125.908482 73.2716934,123.502031 C73.001966,123.184837 73.0411443,122.709424 73.3583377,122.44045 C73.6762847,122.172229 74.1509447,122.209147 74.4199188,122.526341 C76.8429454,125.378068 77.4637707,129.139938 76.0412973,132.343516 C74.7551945,135.239696 72.0443581,137.028336 68.7902996,137.128542 C68.6938607,137.131556 68.5981753,137.133063 68.5024898,137.133063" id="Fill-71" fill="#E4F98B"></path>
                <path d="M71.6804521,121.873871 C71.5418212,121.873871 71.4016834,121.835446 71.2758609,121.755583 C69.9754429,120.924551 68.5002296,120.485302 67.0129613,120.485302 C66.5963153,120.485302 66.2595326,120.147766 66.2595326,119.731874 C66.2595326,119.315981 66.5970687,118.978445 67.0129613,118.978445 C68.7880393,118.978445 70.5427747,119.499818 72.0865501,120.485302 C72.4376479,120.709071 72.5401142,121.17469 72.3163459,121.525787 C72.172441,121.751062 71.9290835,121.873871 71.6804521,121.873871" id="Fill-72" fill="#E4F98B"></path>
                <path d="M68.1272824,133.733592 C66.3891224,133.733592 64.7074695,132.9553 63.5215728,131.545635 C62.0305374,129.773571 61.6862205,127.421367 62.6242392,125.407452 C63.4959562,123.533675 65.2604862,122.414833 67.3437165,122.41408 C67.7596092,122.41408 68.0971452,122.750862 68.0971452,123.167508 C68.0971452,123.583401 67.7603626,123.920937 67.3437165,123.920937 C65.8617223,123.921691 64.608017,124.715051 63.9902054,126.042592 C63.3030785,127.520066 63.5660251,129.256719 64.6750721,130.575973 C65.8089823,131.923857 67.5328271,132.507764 69.1783154,132.097899 C70.5759256,131.750568 71.5870269,130.726658 71.8816175,129.359185 C71.9690152,128.953087 72.3645653,128.695415 72.7766908,128.782059 C73.1835423,128.869457 73.4419683,129.270281 73.3545706,129.677132 C72.9356643,131.618718 71.5109306,133.070575 69.541468,133.55955 C69.0713285,133.676332 68.5974219,133.733592 68.1272824,133.733592" id="Fill-73" fill="#E4F98B"></path>
                <path d="M72.488881,127.768697 C72.1686738,127.768697 71.8710695,127.562258 71.7701101,127.23979 C71.168874,125.319301 69.3079051,123.923197 67.3429631,123.920937 C66.9270705,123.920937 66.5895344,123.582648 66.5902866,123.166755 C66.5910413,122.750862 66.9278239,122.41408 67.3437165,122.41408 L67.34447,122.41408 C69.9498264,122.417093 72.4165519,124.25772 73.207652,126.789994 C73.3319677,127.18705 73.1112131,127.609724 72.7141562,127.73404 C72.6395668,127.757396 72.5634705,127.768697 72.488881,127.768697" id="Fill-74" fill="#E4F98B"></path>
                <path d="M68.3073518,130.600082 C67.9005003,130.600082 67.5652246,130.276108 67.5546766,129.866996 C67.5433751,129.451104 67.87187,129.104526 68.2870092,129.093978 C68.9726293,129.075143 69.0750957,128.584661 69.0750957,128.293837 C69.0750957,127.849314 68.7850256,127.179516 67.9871446,127.15842 C67.7694037,127.165201 67.5524163,127.257119 67.3994702,127.422874 C67.2457708,127.591642 67.1726882,127.818424 67.1885102,128.080617 C67.2133734,128.495756 66.8976867,128.852881 66.4825475,128.878498 C66.0681618,128.907128 65.7102831,128.587674 65.6846665,128.171782 C65.6439814,127.501984 65.8587086,126.875131 66.2889164,126.405745 C66.7168639,125.937866 67.3203602,125.670398 67.9863912,125.652316 C69.6868797,125.696768 70.581953,127.046159 70.581953,128.293837 C70.581953,129.616105 69.6552357,130.563918 68.3284478,130.600082 L68.3073518,130.600082" id="Fill-75" fill="#E4F98B"></path>
                <path d="M87.7239626,128.092672 C88.6423921,138.587933 80.8805698,147.094143 70.3845547,147.094143 C70.1140738,147.094143 69.8420861,147.086609 69.5693449,147.07154 C79.5598093,146.559209 86.8123139,138.256425 85.923268,128.092672 C85.0349756,117.936453 76.3298605,109.633669 66.2489846,109.121337 C66.5187121,109.106269 66.7899464,109.098734 67.0604273,109.098734 C77.5564424,109.098734 86.8062864,117.604944 87.7239626,128.092672" id="Fill-76" fill="#E4F98B"></path>
                <path d="M70.3845547,147.094143 C70.1140738,147.094143 69.8420861,147.086609 69.5693449,147.07154 C79.0037789,146.587839 85.9963506,139.156772 85.997104,129.772064 C85.997104,129.218294 85.9729943,128.658497 85.923268,128.092672 C85.0349756,117.936453 76.3298605,109.633669 66.2489846,109.121337 C66.5187121,109.106269 66.7899464,109.098734 67.0604273,109.098734 C77.5564424,109.098734 86.8062864,117.604944 87.7239626,128.092672 C87.7736889,128.656236 87.7977995,129.214527 87.7977995,129.766037 C87.8008123,139.477733 80.3170051,147.094143 70.3845547,147.094143" id="Fill-77" fill="#E4F98B"></path>
                <path d="M103.076579,35.4879981 C103.096168,35.7140267 103.130826,35.9400553 103.173018,36.1585496 C103.451033,37.612667 104.228571,38.9236329 105.29392,39.9030902 C106.522762,41.0332333 108.14414,41.7339219 109.869492,41.7339219 L173.526682,41.7339219 C176.750603,41.7339219 179.189452,39.292813 179.246713,36.1585496 C179.25048,35.9400553 179.245959,35.7140267 179.225617,35.4879981 C179.075684,33.7701807 178.237872,32.203049 177.009783,31.0804403 C175.780187,29.9502973 174.159562,29.2496086 172.43421,29.2496086 L108.776267,29.2496086 C105.325564,29.2496086 102.775961,32.044829 103.076579,35.4879981" id="Fill-78" fill="#426AA5"></path>
                <g id="Fill-79">
                    <use fill="#D5E3ED" xlink:href="#path-2"></use>
                    <use fill="url(#linearGradient-1)" xlink:href="#path-2"></use>
                </g>
                <path d="M179.244452,36.1570428 C179.244452,36.3604685 179.229384,36.5638943 179.199247,36.7597857 C179.003355,35.1323798 178.182118,33.6556595 177.006769,32.5857908 C175.77868,31.4556478 174.158809,30.7549591 172.433457,30.7549591 L104.737889,30.8604391 C105.755018,29.858379 107.171464,29.2481017 108.776267,29.2481017 L172.433457,29.2481017 C174.158809,29.2481017 175.77868,29.9487904 177.006769,31.0789334 C178.234858,32.2015422 179.078698,33.7686738 179.229384,35.4872447 C179.244452,35.7125199 179.251987,35.9393019 179.244452,36.1570428" id="Fill-80" fill="#426AA5"></path>
                <path d="M179.199247,36.7597857 C179.003355,35.1323798 178.182118,33.6556595 177.006769,32.5857908 C175.77868,31.4556478 174.158809,30.7549591 172.433457,30.7549591 L104.737889,30.8604391 C105.755018,29.858379 107.171464,29.2481017 108.776267,29.2481017 L172.433457,29.2481017 C174.158809,29.2481017 175.77868,29.9487904 177.006769,31.0789334 C178.234858,32.2015422 179.078698,33.7686738 179.229384,35.4872447 C179.240685,35.652999 179.247466,35.8187533 179.247466,35.9814939 C179.247466,36.0410148 179.245959,36.0990288 179.244452,36.1570428 C179.244452,36.3604685 179.229384,36.5638943 179.199247,36.7597857" id="Fill-81" fill="#7DE086"></path>
                <polyline id="Fill-82" fill="#223240" points="168.283572 32.2595562 168.549532 35.3049149 171.384684 34.2478545 172.059003 35.7509447 169.160563 36.7123197 171.241533 39.2671964 169.942622 40.2300783 167.915145 37.5742422 166.378151 40.2300783 164.95191 39.2671964 166.55822 36.7123197 163.519642 35.7509447 163.928754 34.2568956 166.974866 35.2755312 166.711166 32.2595562 168.283572 32.2595562"></polyline>
                <polyline id="Fill-83" fill="#223240" points="150.873342 32.2595562 151.140055 35.3049149 153.975207 34.2478545 154.648773 35.7509447 151.751086 36.7123197 153.831303 39.2671964 152.533145 40.2300783 150.504915 37.5742422 148.968674 40.2300783 147.542433 39.2671964 149.148743 36.7123197 146.109412 35.7509447 146.519277 34.2568956 149.565389 35.2755312 149.301689 32.2595562 150.873342 32.2595562"></polyline>
                <polyline id="Fill-84" fill="#223240" points="133.463865 32.2595562 133.730579 35.3049149 136.565731 34.2478545 137.239296 35.7509447 134.341609 36.7123197 136.421826 39.2671964 135.123668 40.2300783 133.095438 37.5742422 131.559197 40.2300783 130.132957 39.2671964 131.739267 36.7123197 128.700689 35.7509447 129.1098 34.2568956 132.155913 35.2755312 131.891459 32.2595562 133.463865 32.2595562"></polyline>
                <polyline id="Fill-85" fill="#223240" points="116.054388 32.2595562 116.321102 35.3049149 119.156254 34.2478545 119.829066 35.7509447 116.932133 36.7123197 119.012349 39.2671964 117.714192 40.2300783 115.685208 37.5742422 114.148967 40.2300783 112.72348 39.2671964 114.32979 36.7123197 111.290459 35.7509447 111.69957 34.2568956 114.745683 35.2755312 114.482736 32.2595562 116.054388 32.2595562"></polyline>
                <polygon id="Fill-86" fill="#EDFB8B" points="155.28316 27.0495968 158.250162 27.0495968 158.250162 26.2961681 155.28316 26.2961681"></polygon>
                <polygon id="Fill-87" fill="#EDFB8B" points="161.327165 27.0495968 171.011737 27.0495968 171.011737 26.2961681 161.327165 26.2961681"></polygon>
                <path d="M267.854447,77.413291 L235.072765,77.413291 L237.085926,54.4013185 C237.287092,52.1026076 239.310048,50.2423921 241.608759,50.2423921 L266.072588,50.2423921 C268.244723,50.2423921 269.88117,51.9052093 269.883501,54.0283713 C269.884184,54.1511802 269.87891,54.2754959 269.867608,54.4013185 L267.854447,77.413291" id="Fill-88" fill="#DEE9F1" opacity="0.100000001"></path>
                <polyline id="Fill-89" fill="#DEE8F0" opacity="0.100000001" points="267.247937 84.3440815 234.466255 84.3440815 235.072765 77.413291 267.854447 77.413291 267.247937 84.3440815"></polyline>
                <path d="M262.261746,93.7981047 L237.79867,93.7981047 C236.893802,93.7981047 236.082359,93.5110483 235.447972,93.0145388 C234.547625,92.3349461 233.988581,91.2507623 233.987074,90.0106186 C233.987074,89.8878098 233.992348,89.7642475 234.002896,89.6391783 L234.466255,84.3440815 L267.247937,84.3440815 L266.784578,89.6391783 C266.691153,90.7007593 266.214986,91.6659015 265.496215,92.3884396 C264.667444,93.2548826 263.504903,93.7981047 262.261746,93.7981047 M265.037377,85.7183354 C264.412031,85.7183354 263.907234,86.2223792 263.907234,86.847725 C263.907234,87.4730708 264.412031,87.977868 265.037377,87.977868 C265.662723,87.977868 266.16752,87.4730708 266.16752,86.847725 C266.16752,86.2223792 265.662723,85.7183354 265.037377,85.7183354 M238.139973,85.7183354 C237.514627,85.7183354 237.00983,86.2223792 237.00983,86.847725 C237.00983,87.4730708 237.514627,87.977868 238.139973,87.977868 C238.765319,87.977868 239.270116,87.4730708 239.270116,86.847725 C239.270116,86.2223792 238.765319,85.7183354 238.139973,85.7183354" id="Fill-90" fill="#DCE8F0" opacity="0.100000001"></path>
                <path d="M265.037377,87.977868 C264.412031,87.977868 263.907234,87.4730708 263.907234,86.847725 C263.907234,86.2223792 264.412031,85.7183354 265.037377,85.7183354 C265.662723,85.7183354 266.16752,86.2223792 266.16752,86.847725 C266.16752,87.4730708 265.662723,87.977868 265.037377,87.977868 M238.139973,87.977868 C237.514627,87.977868 237.00983,87.4730708 237.00983,86.847725 C237.00983,86.2223792 237.514627,85.7183354 238.139973,85.7183354 C238.765319,85.7183354 239.270116,86.2223792 239.270116,86.847725 C239.270116,87.4730708 238.765319,87.977868 238.139973,87.977868" id="Fill-91" fill="#DDE9F1"></path>
                <path d="M239.344705,60.0761434 L239.278404,60.0731297 C238.864018,60.0369651 238.557372,59.6715522 238.593537,59.2571664 L238.875319,56.0347519 C238.909224,55.6452293 239.235458,55.3468715 239.625734,55.3468715 L243.027465,55.3468715 C243.444111,55.3468715 243.780894,55.6844076 243.780894,56.1003002 C243.780894,56.5161928 243.444111,56.8537289 243.027465,56.8537289 L240.315875,56.8537289 L240.094367,59.388263 C240.060463,59.7800459 239.731214,60.0761434 239.344705,60.0761434" id="Fill-92" fill="#EDFB8B"></path>
                <path d="M266.739373,60.0761434 L266.673071,60.0731297 C266.257932,60.0369651 265.95204,59.6715522 265.988204,59.2571664 L266.198411,56.8537289 L263.618671,56.8537289 C263.202025,56.8537289 262.865242,56.5161928 262.865242,56.1003002 C262.865242,55.6844076 263.202025,55.3468715 263.618671,55.3468715 L267.020401,55.3468715 C267.231361,55.3468715 267.43328,55.4357761 267.575678,55.5909824 C267.718076,55.7469421 267.788899,55.9556419 267.770816,56.1658485 L267.489034,59.388263 C267.454376,59.7800459 267.125128,60.0761434 266.739373,60.0761434" id="Fill-93" fill="#EDFB8B"></path>
                <path d="M240.618753,84.3938078 L237.216269,84.3938078 C237.005309,84.3938078 236.80339,84.3049032 236.660992,84.1489434 C236.517841,83.9937371 236.447772,83.7850374 236.465854,83.5748308 L236.74839,80.3516628 C236.785308,79.9372771 237.156748,79.6268644 237.564353,79.6675496 C237.979493,79.7037142 238.285385,80.0691271 238.24922,80.4835129 L238.039013,82.8869504 L240.618753,82.8869504 C241.034646,82.8869504 241.372182,83.2244864 241.372182,83.6403791 C241.372182,84.0562717 241.034646,84.3938078 240.618753,84.3938078" id="Fill-94" fill="#EDFB8B"></path>
                <path d="M264.610183,84.3938078 L261.209206,84.3938078 C260.79256,84.3938078 260.455777,84.0562717 260.455777,83.6403791 C260.455777,83.2244864 260.79256,82.8869504 261.209206,82.8869504 L263.920042,82.8869504 L264.14155,80.3524163 C264.178468,79.9380305 264.557443,79.6268644 264.957514,79.6675496 C265.372653,79.7037142 265.678545,80.0691271 265.643134,80.4835129 L265.361351,83.7059274 C265.327447,84.09545 265.001213,84.3938078 264.610183,84.3938078" id="Fill-95" fill="#EDFB8B"></path>
                <g id="Group-4" transform="translate(233.986736, 57.561952)" fill="#E1F88A">
                    <path d="M28.4400105,12.1965036 C27.8508292,18.9329095 22.8849807,24.3930072 17.3480333,24.3930072 C11.8118393,24.3930072 7.80133838,18.9329095 8.39127305,12.1965036 C8.97970085,5.46085114 13.9463028,0 19.4824968,0 C25.0186908,0 29.0291917,5.46085114 28.4400105,12.1965036" id="Fill-96"></path>
                    <polyline id="Fill-97" points="21.3833974 30.956878 11.6264958 30.956878 12.4793771 21.1999765 22.2377855 21.1999765 21.3833974 30.956878"></polyline>
                    <path d="M32.797842,32.0772264 C32.7044168,33.1388075 32.2282499,34.1039496 31.5094789,34.8264877 C30.6807074,35.6929307 29.5181669,36.2361528 28.2750096,36.2361528 L3.81193348,36.2361528 C2.90706562,36.2361528 2.09562292,35.9490965 1.46123597,35.452587 C0.471984096,34.7059391 -0.105895708,33.4703161 0.0161597393,32.0772264 C0.0161597393,32.0772264 11.2595761,28.5202896 12.6458849,28.5202896 C14.0246594,28.5202896 21.3321642,28.5202896 21.3321642,28.5202896 L32.797842,32.0772264" id="Fill-98"></path>
                </g>
                <polyline id="Fill-99" fill="#EDFB8B" points="270.873436 78.5863794 270.123021 78.5245983 271.264465 64.6826064 272.015634 64.7443875 270.873436 78.5863794"></polyline>
                <polygon id="Fill-101" fill="#426AA5" points="242.856437 143.174054 245.823439 143.174054 245.823439 142.420625 242.856437 142.420625"></polygon>
                <polygon id="Fill-102" fill="#426AA5" points="248.901195 143.174054 258.585767 143.174054 258.585767 142.420625 248.901195 142.420625"></polygon>
                <path d="M276.301889,129.557337 L274.423592,151.033822 C274.253317,152.970134 272.547554,154.539526 270.611243,154.539526 C268.676438,154.539526 267.244923,152.970134 267.413691,151.033822 L269.291989,129.557337 C269.899252,122.622026 264.750321,116.975831 257.81501,116.975831 L250.132297,116.975831 C243.196233,116.975831 237.059556,122.622026 236.452293,129.557337 L235.685302,138.328 L228.675402,138.328 L229.443146,129.557337 C230.388699,118.75543 239.945941,109.965931 250.744835,109.965931 L258.428301,109.965931 C269.226441,109.965931 277.247442,118.75543 276.301889,129.557337" id="Fill-103" fill="#426AA5"></path>
                <path d="M270.611243,154.539526 C268.781918,154.539526 267.40239,153.136641 267.400129,151.348002 C267.400129,151.244782 267.40465,151.140055 267.413691,151.033822 L269.291989,129.557337 C269.32514,129.185143 269.340962,128.816717 269.340962,128.452057 C269.340962,122.032091 264.378127,116.975831 257.81501,116.975831 L250.132297,116.975831 C243.196233,116.975831 237.059556,122.622026 236.452293,129.557337 L235.685302,138.328 L228.675402,138.328 L229.443146,129.557337 C230.388699,118.75543 239.945941,109.965931 250.744835,109.965931 L258.428301,109.965931 C268.647054,109.965931 276.377986,117.836247 276.377986,127.835753 C276.377986,128.403084 276.352369,128.977197 276.301889,129.557337 L274.423592,151.033822 C274.253317,152.970134 272.547554,154.539526 270.611243,154.539526" id="Fill-104" fill="#FFFFFF"></path>
                <g id="Fill-105">
                    <use fill="#426AA5" xlink:href="#path-4"></use>
                    <use fill="url(#linearGradient-3)" xlink:href="#path-4"></use>
                </g>
                <path d="M233.29392,168.524669 L244.164389,185.261334 L280.021567,149.403402 C280.337254,149.088469 279.901772,148.597987 279.551427,148.872988 L245.379669,175.657378 L238.927306,165.252528 L233.29392,168.524669" id="Fill-106" fill="#FFFFFE"></path>
                <path d="M55.8900936,67.4989228 L55.8870799,67.4989228 C55.7085173,65.4556242 54.8262523,63.5795868 53.4994644,62.1104008 C53.5017246,62.1119077 53.5039849,62.1126611 53.5062452,62.114168 C54.8300194,63.5826005 55.711531,65.4571311 55.8900936,67.4989228" id="Fill-119" fill="#ADAEAA"></path>
                <path d="M53.5062452,62.114168 C53.5039849,62.1126611 53.5017246,62.1119077 53.4994644,62.1104008 C51.8487021,60.2803226 49.5085526,59.0808641 46.9815528,58.9716169 C46.9815528,58.9716169 46.9815528,58.9708635 46.9815528,58.9701101 C49.509306,59.0793572 51.8524692,60.281076 53.5062452,62.114168" id="Fill-120" fill="#111819"></path>
                <path d="M39.4856907,63.4409559 C39.8307611,62.6807464 40.2933663,61.9898523 40.8546707,61.390123 C40.8554241,61.390123 40.8561775,61.3893696 40.8576844,61.3886162 C40.2948732,61.9883454 39.8315145,62.6792395 39.4856907,63.4409559" id="Fill-121" fill="#ADAEAA"></path>
                <path d="M40.8546707,61.390123 C42.1844723,59.9706634 44.0650303,59.0657955 46.2273707,58.9708635 L46.2273707,58.9716169 C44.0672906,59.0665489 42.187486,59.9699099 40.8576844,61.3886162 C40.8561775,61.3893696 40.8554241,61.390123 40.8546707,61.390123" id="Fill-122" fill="#111819"></path>
                <path d="M46.2273707,58.9716169 L46.2273707,58.9708635 C46.3531932,58.9648361 46.4797693,58.9625758 46.6070987,58.9625758 C46.7321679,58.9625758 46.857237,58.9648361 46.9815528,58.9701101 C46.9815528,58.9708635 46.9815528,58.9716169 46.9815528,58.9716169 C46.8564836,58.9663429 46.730661,58.9633292 46.6048384,58.9633292 C46.4782624,58.9633292 46.3524398,58.9663429 46.2273707,58.9716169" id="Fill-123" fill="#111819"></path>
                <path d="M178.089446,102.925893 L178.349379,103.235552 L178.695956,103.633363 C178.944588,103.897063 179.184931,104.175831 179.456166,104.433504 C179.974525,104.976726 180.54035,105.501112 181.112202,106.041321 C182.258167,107.096121 183.459132,108.088387 184.709824,109.016611 C185.982365,109.959903 187.319701,110.830867 188.665325,111.688269 C189.395397,112.093614 190.034305,112.524575 190.743281,112.913344 L192.380481,113.818212 C192.617812,113.923692 192.884525,113.939514 193.132403,113.862664 C193.657543,113.705197 196.688587,110.705798 197.652975,109.595244 C199.788946,107.143587 203.03321,103.924186 204.776644,101.178692 L206.766449,103.869939 C205.53384,107.229478 203.896639,110.427029 201.892519,113.392525 C200.812855,114.992807 199.520725,116.43939 198.053046,117.693849 C197.168521,118.43899 196.170228,119.037212 195.095085,119.465913 C193.736653,120.009889 192.244111,120.12215 190.819377,119.78612 C190.450197,119.697216 190.087798,119.577421 189.738207,119.427488 L189.061628,119.131391 L187.841827,118.576114 C187.01833,118.209948 186.227983,117.778233 185.430102,117.375902 C183.832833,116.525281 182.28303,115.586509 180.788981,114.565613 C179.282124,113.531155 177.836294,112.4093 176.458273,111.206828 C175.741009,110.582989 175.099841,109.949355 174.445865,109.261475 C174.118123,108.924692 173.791889,108.56606 173.474695,108.199894 L173.003049,107.628795 C172.834281,107.414821 172.707705,107.256601 172.470375,106.932627 L178.089446,102.925893" id="Fill-130" fill="#F0AA72"></path>
                <path d="M204.504656,101.593831 L208.002825,94.1205721 L211.339008,100.099029 C211.339008,100.099029 209.148037,103.87446 206.766449,103.869943 L204.504656,101.593831" id="Fill-131" fill="#F0AA72"></path>
                <polyline id="Fill-132" fill="#F0AA72" points="211.93723 91.0171994 215.465537 95.5513332 211.339761 100.091494 208.002825 94.1205721 211.93723 91.0171994"></polyline>
                <path d="M210.709895,102.157396 L216.25965,102.157396 C216.585132,102.157396 216.857119,101.908764 216.884996,101.58479 L218.049797,88.2724586 C218.082194,87.9055389 217.792878,87.5898523 217.424451,87.5898523 L211.874695,87.5898523 C211.549214,87.5898523 211.277226,87.8384837 211.24935,88.1632115 L210.084549,101.475543 C210.052151,101.841709 210.341468,102.157396 210.709895,102.157396" id="Fill-133" fill="#FFFFFF"></path>
                <g id="Fill-134">
                    <use fill="#7094C0" xlink:href="#path-6"></use>
                    <use fill="url(#linearGradient-5)" xlink:href="#path-6"></use>
                </g>
                <path d="M210.40777,99.1384072 L210.40777,99.1384072 L211.396268,98.6305963 C211.896545,98.3744305 212.358397,98.0497027 212.770522,97.6677144 L212.952852,97.0084643 C212.736618,96.647572 212.307917,96.4750368 211.901819,96.5850374 L211.081335,96.8080523 L207.009806,97.1184649 L206.908847,98.8332686 L208.097757,100.676909 L208.510636,100.692731 C209.444888,100.728895 210.259344,100.062111 210.40777,99.1384072" id="Fill-135" fill="#F0AA72"></path>
                <path d="M170.997422,95.6221555 C173.821273,95.109824 193.750215,112.390464 193.750215,112.390464 L187.841827,121.054141 C187.841827,121.054141 166.048902,105.880841 166.719454,102.214657 C167.413362,98.3992937 166.878427,96.3740773 170.997422,95.6221555" id="Fill-136" fill="#FFFFFF"></path>
                <path d="M183.723586,118.267962 C183.723586,118.267962 179.457673,114.996574 176.237518,112.520054 C176.245806,112.478616 176.254094,112.438684 176.262382,112.397999 C178.809724,114.442051 181.436176,116.417541 183.542763,117.96433 L183.723586,118.267962" id="Fill-137" fill="#C9C8C3"></path>
                <path d="M183.542763,117.96433 C181.436176,116.417541 178.809724,114.442051 176.262382,112.397999 C176.790535,109.809218 176.872659,107.736535 176.226217,105.724127 L183.542763,117.96433" id="Fill-138" fill="#141D1F"></path>
                <polyline id="Fill-139" fill="#F0AA72" points="157.71146 275.202637 164.397387 275.862641 166.515275 260.365366 159.829348 259.704609 157.71146 275.202637"></polyline>
                <polyline id="Fill-140" fill="#F0AA72" points="91.9160398 184.263041 90.2019895 190.772665 104.6633 197.00578 107.658932 190.401224 91.9160398 184.263041"></polyline>
                <path d="M170.394679,275.852846 C170.496392,275.848325 170.598858,275.871682 170.690023,275.919148 C170.754064,275.954559 170.79475,276.021614 170.796256,276.09545 C170.814339,276.286821 170.740503,276.475178 170.596598,276.602508 C170.179952,276.955112 169.068644,276.982989 167.582883,276.693672 C168.472682,276.252917 169.43029,275.966614 170.415775,275.847572 L170.394679,275.852846 Z M169.177892,277.204497 C169.752758,277.273812 170.334405,277.144976 170.826394,276.840591 C171.048655,276.650727 171.162423,276.363671 171.132286,276.072847 C171.128518,275.894285 171.031326,275.729284 170.876873,275.639626 C170.065431,275.158185 167.336512,276.451822 167.031373,276.59874 L166.940208,276.759974 L167.066031,276.891824 C167.759185,277.060592 168.465901,277.165319 169.177892,277.204497 L169.177892,277.204497 Z" id="Fill-141" fill="#426AA5"></path>
                <path d="M168.761999,274.22544 L168.856931,274.202084 C169.147001,274.245783 169.159809,274.35955 169.16207,274.397975 C169.231385,274.862087 168.117064,275.970381 167.282265,276.418671 C167.361375,275.654694 167.683089,274.935923 168.199188,274.366331 C168.366449,274.247289 168.572888,274.196056 168.776314,274.221673 L168.761999,274.22544 Z M167.100689,276.906893 L167.159456,276.891824 C167.976173,276.556548 169.605839,275.149144 169.499606,274.38366 C169.45666,274.208111 169.360221,273.976055 168.917959,273.915027 C168.599258,273.859274 168.27227,273.939891 168.017611,274.139549 C167.153429,274.812361 166.945482,276.627371 166.932674,276.6997 L166.971099,276.853399 L167.100689,276.906893 L167.100689,276.906893 Z" id="Fill-142" fill="#426AA5"></path>
                <path d="M164.065878,273.166119 L158.010572,273.417011 C157.740091,273.420025 157.515569,273.627971 157.491459,273.897699 L156.046383,282.306716 C156.012479,282.909459 156.473577,283.424804 157.075567,283.458709 L157.201389,283.457955 C159.828595,283.322338 161.095109,283.1272 164.425263,283.013432 C166.466302,282.94487 172.745376,283.684737 175.499912,283.049597 C178.254447,282.41521 177.768485,279.65314 176.564506,279.671223 C172.69113,279.745812 168.223297,277.223333 165.981847,274.271399 C165.648832,274.019001 164.483277,273.140503 164.065878,273.166119" id="Fill-143" fill="#1A282B"></path>
                <path d="M93.2752251,191.630067 L96.3484608,186.407299 C96.4931191,186.178257 96.4403791,185.876132 96.2264053,185.710377 L89.9465772,179.935346 C89.4591088,179.579728 88.775749,179.687468 88.4201307,180.174937 L88.3523221,180.280417 C87.0413562,182.561799 86.5184767,183.73112 84.8074401,186.591135 C83.7579139,188.342104 79.7308376,193.216787 78.7694626,195.874884 C77.8080876,198.53298 80.3931014,199.623191 81.0305021,198.602296 C83.0692801,195.306799 87.6124551,192.922197 91.3080228,192.640414 C91.6998058,192.498016 93.0702925,191.994726 93.2752251,191.630067" id="Fill-144" fill="#1A282B"></path>
                <polyline id="Fill-145" fill="#C9C8C3" points="158.776055 267.413691 159.352428 263.164353 159.356949 263.164353 158.776055 267.413691"></polyline>
                <polyline id="Fill-146" fill="#D28A55" points="165.422803 268.353217 158.736877 267.700748 159.356949 263.164353 166.078286 263.562164 165.422803 268.353217"></polyline>
                <path d="M102.815139,196.242557 L99.7072459,194.86981 L102.825687,196.213173 L102.815139,196.242557 M105.297687,189.480534 L102.082053,188.226829 L105.311248,189.445123 L105.297687,189.480534" id="Fill-147" fill="#AEAEAB"></path>
                <polyline id="Fill-148" fill="#D28A55" points="102.825687 196.213173 99.7072459 194.86981 102.082053 188.226829 105.297687 189.480534 102.825687 196.213173"></polyline>
                <path d="M175.264089,103.606993 C179.084725,110.097027 174.414221,115.579728 170.515981,134.988051 L145.331874,135.055106 C145.740232,124.596009 145.697286,116.140279 141.233221,95.5656484 C140.818836,93.6926246 142.001719,91.8384366 143.874742,91.4248043 C144.1181,91.3713108 144.365978,91.343434 144.615363,91.3426806 C146.69784,91.3456943 149.312237,91.41727 151.968827,91.6877509 C156.163918,92.0283007 160.330378,92.658167 164.438072,93.5735829 C167.936241,94.4144093 168.785355,94.8800283 170.997422,95.6221555 C172.288799,96.0629113 173.850656,99.5874507 175.264089,103.606993" id="Fill-149" fill="#FFFFFF"></path>
                <g id="Fill-150">
                    <use fill="#426AA5" xlink:href="#path-8"></use>
                    <use fill="url(#linearGradient-7)" xlink:href="#path-8"></use>
                </g>
                <polyline id="Fill-151" fill="#1A282B" points="155.870834 265.423886 168.639943 266.179575 169.806251 262.341609 155.536312 261.022356 155.870834 265.423886"></polyline>
                <path d="M157.79057,216.383213 L158.253176,212.539973 C158.388793,212.402095 158.520643,212.263465 158.652493,212.11956 C158.39256,213.54128 158.100983,214.959986 157.79057,216.383213" id="Fill-152" fill="#C9C8C3"></path>
                <path d="M157.487692,218.901171 L157.79057,216.383213 C158.100983,214.959986 158.39256,213.54128 158.652493,212.11956 C165.639037,204.515957 167.683089,188.577927 167.799871,173.237365 L169.806251,192.221508 C171.093861,207.528919 165.932121,218.86802 158.322491,218.86802 C158.070846,218.86802 157.815434,218.855212 157.558514,218.830349 L157.487692,218.901171" id="Fill-153" fill="#8DBE55"></path>
                <g id="Fill-154">
                    <use fill="#426AA5" xlink:href="#path-10"></use>
                    <use fill="url(#linearGradient-9)" xlink:href="#path-10"></use>
                </g>
                <polyline id="Fill-155" fill="#1A282B" points="106.075979 187.417647 101.515475 199.461958 104.87652 202.03115 110.294426 187.696415 106.075979 187.417647"></polyline>
                <path d="M104.194667,122.445724 C103.05473,124.128883 97.2857261,122.990453 97.2857261,122.990453 L96.0614044,115.840414 L103.145894,118.680087 L104.194667,122.445724" id="Fill-156" fill="#F0AA72"></path>
                <path d="M97.4786038,115.467467 L98.5853905,122.897027 L94.3239979,123.535182 C93.8515981,123.575113 93.4228972,123.259427 93.3196774,122.796821 L91.6922715,117.475355 C91.6350109,117.219189 91.7917241,116.963777 92.0448761,116.896721 L97.4786038,115.467467" id="Fill-157" fill="#F0AA72"></path>
                <path d="M95.5807169,118.839814 L98.0120313,119.270022 L100.303961,117.540903 L99.4179292,116.908023 C98.8166932,116.479322 98.3940197,115.844935 98.2312791,115.124657 C98.0564836,114.349379 97.9404556,113.513073 97.9208664,112.8267 L97.9140856,112.569027 C97.8530579,112.102655 97.4906587,111.733475 97.0257932,111.664159 L96.4230502,112.110942 C96.0418153,112.933687 96.313803,113.88602 96.266337,114.526435 L96.1706516,115.773359 L95.1972217,116.195279 L95.5807169,118.839814" id="Fill-158" fill="#F0AA72"></path>
                <path d="M142.449255,94.1492024 L128.195138,113.760951 L101.996916,118.905362 L101.996916,123.202166 C101.996916,123.202166 126.605403,125.02697 132.125022,121.804556 C137.645394,118.582141 146.93291,99.0773795 146.93291,99.0773795 L142.449255,94.1492024" id="Fill-159" fill="#F0AA72"></path>
                <path d="M142.281241,56.4702337 C136.302031,54.4623462 129.361446,58.1767497 126.622732,63.8591088 C123.884019,69.5407146 124.846901,76.50993 127.925411,82.01448 C128.855142,83.6742834 129.965695,85.2399082 130.720631,86.9856024 C131.47632,88.7312967 131.854541,90.7376773 131.240497,92.5383719 C130.626452,94.338313 129.992819,95.4933192 127.761163,95.2017423 C127.761163,95.2017423 127.73404,93.9668727 128.612538,94.1160516 C128.612538,94.1160516 126.808076,95.1196186 126.099853,94.4626288 C126.915816,95.7321561 129.106033,95.268044 129.808982,93.932215 C130.862276,91.9326152 128.927471,89.2293131 126.667938,89.2541762 C124.408405,89.2797928 122.571546,91.5611749 122.644629,93.8192007 C122.716958,96.0779799 124.378268,98.0873742 126.440403,99.0110778 C125.219095,99.2521749 123.876485,98.5349108 123.398811,97.3851786 C124.421967,100.068892 127.770204,101.255542 130.594055,100.728895 C133.417906,100.203002 135.810042,98.3879922 138.022108,96.5564071 C141.005686,94.0866678 144.1181,90.9652128 144.025428,87.0933428 C143.955359,84.2099712 142.101925,81.7296839 140.544588,79.3013832 C138.986497,76.873836 137.620531,73.8992995 138.609783,71.18997 C139.448349,68.8920125 141.72069,67.5057037 143.729331,66.1096003 C145.17516,65.1052799 148.112025,62.8653364 147.765448,60.7519689 C147.441474,58.7712049 143.974195,57.0390723 142.281241,56.4702337" id="Fill-160" fill="#707070"></path>
                <path d="M128.803155,123.538195 L124.855942,113.0904 L125.76081,113.164989 C127.254859,113.288551 128.680346,112.532109 129.412679,111.224157 C132.413585,105.859745 140.210065,92.241521 142.403296,91.5641886 C145.530779,90.6374713 148.747166,93.139608 149.960939,96.8306551 C150.852246,99.552793 141.689046,111.211349 137.435941,117.844535 C133.668797,123.716758 128.803155,123.538195 128.803155,123.538195" id="Fill-161" fill="#FFFFFF"></path>
                <path d="M91.4526811,192.791854 C91.5920655,193.758503 91.6500795,195.067962 91.2997351,195.371593 C91.2319265,195.428101 91.1385014,195.443169 91.0563777,195.410018 C90.8506916,195.37084 90.6804167,195.229949 90.6028136,195.036318 C90.4687033,194.627959 90.7519925,193.799188 91.4511743,192.813703 L91.4526811,192.791854 Z M90.2916475,195.062688 L90.2863735,195.145565 C90.3971276,195.441662 90.6525399,195.659403 90.9621991,195.721184 C91.1490494,195.781459 91.353982,195.735499 91.4978869,195.602143 C92.136041,195.028783 91.7291895,192.596716 91.6907646,192.352605 L91.5694626,192.224522 L91.4074754,192.283289 C90.9041851,193.008088 90.0882218,194.295697 90.2916475,195.062688 L90.2916475,195.062688 Z" id="Fill-162" fill="#426AA5"></path>
                <path d="M93.4861852,194.141998 C93.5223498,194.277615 93.4997469,194.420766 93.424404,194.539055 C93.324198,194.71385 93.2262523,194.715357 93.1509094,194.703302 C92.6890576,194.60837 91.9861087,193.4722 91.7608335,192.681853 C92.3402201,192.971923 93.2812526,193.526447 93.4658426,194.096039 L93.4861852,194.141998 Z M91.4376126,192.669798 C91.6380246,193.481994 92.4012479,194.870563 93.0793337,195.031797 C93.334746,195.081523 93.5924186,194.950427 93.7016658,194.71385 C93.8207075,194.496109 93.8357761,194.23693 93.7431044,194.006381 C93.4364589,193.075143 91.6553535,192.305892 91.5815175,192.271234 L91.4240509,192.26144 L91.3622697,192.408358 C91.3826123,192.498016 91.4074754,192.584661 91.4376126,192.669798 L91.4376126,192.669798 Z" id="Fill-163" fill="#426AA5"></path>
                <path d="M145.238448,133.776538 L144.54228,136.225934 C144.448102,136.416552 144.670363,136.610936 144.98831,136.607169 L170.978586,136.572512 C171.226464,136.586827 171.431397,136.448196 171.447219,136.298264 L171.690576,133.844346 C171.700371,133.679345 171.490918,133.53092 171.218176,133.537701 L145.681464,133.568591 C145.506669,133.554276 145.338654,133.633386 145.238448,133.776538" id="Fill-164" fill="#426AA5"></path>
                <path d="M144.978516,136.607169 C144.715569,136.607169 144.521184,136.471552 144.520431,136.316346 C144.520431,136.286209 144.527212,136.256072 144.54228,136.225934 L145.238448,133.776538 C145.33112,133.644688 145.481052,133.567085 145.640779,133.567085 C145.654341,133.567085 145.667903,133.567838 145.681464,133.568591 L171.218176,133.537701 C171.224204,133.536947 171.230231,133.536947 171.236259,133.536947 C171.493178,133.536947 171.690576,133.675578 171.69133,133.833045 C171.69133,133.836812 171.69133,133.840579 171.690576,133.844346 L171.447219,136.298264 C171.43215,136.440662 171.246053,136.573265 171.014751,136.573265 C171.002696,136.573265 170.990641,136.572512 170.978586,136.572512 L144.98831,136.607169 C144.985296,136.607169 144.981529,136.607169 144.978516,136.607169" id="Fill-165" fill="#98B3D3"></path>
                <path d="M150.20053,136.833951 L149.445594,136.834705 C149.303196,136.826417 149.185661,136.759362 149.199223,136.66895 L149.539019,133.481194 C149.544293,133.391536 149.676897,133.316193 149.827583,133.3177 L150.583272,133.309412 C150.72567,133.318453 150.842451,133.385508 150.829643,133.482701 L150.489846,136.662923 C150.477038,136.752581 150.343681,136.835458 150.20053,136.833951" id="Fill-166" fill="#426AA5"></path>
                <path d="M168.964671,136.83096 L168.210489,136.83096 C168.067338,136.823403 167.950556,136.755595 167.963365,136.665937 L168.302407,133.485714 C168.308435,133.387769 168.441792,133.312426 168.58419,133.313933 L169.339125,133.313179 C169.482277,133.321467 169.599058,133.388522 169.58625,133.478933 L169.246454,136.658402 C169.24118,136.756348 169.115357,136.832445 168.964671,136.83096" id="Fill-167" fill="#426AA5"></path>
                <path d="M160.371817,136.813609 L159.616882,136.814362 C159.474483,136.806075 159.356949,136.738266 159.37051,136.648608 L159.709553,133.468385 C159.715581,133.37044 159.848184,133.29585 159.991336,133.296604 L160.746271,133.29585 C160.888669,133.304891 161.006204,133.371947 160.992642,133.461605 L160.653599,136.641827 C160.647572,136.739773 160.522503,136.815116 160.371817,136.813609" id="Fill-168" fill="#426AA5"></path>
                <path d="M153.142669,77.9761022 C153.942057,82.0762611 154.725622,89.4884926 151.94321,91.7246689 C151.94321,91.7246689 153.053011,95.9333216 160.504421,97.05367 C168.732615,98.2960739 164.413209,93.6097475 164.413209,93.6097475 C159.937842,91.8354229 160.046336,88.596433 160.819354,85.6158691 L153.142669,77.9761022" id="Fill-169" fill="#F0AA72"></path>
                <path d="M151.968827,91.6877509 C156.161658,92.0185061 159.671128,92.410289 163.775808,93.3302254 L169.412961,95.0050974 C170.417282,97.0265466 168.774807,101.178692 164.054576,101.966025 C164.054576,101.966025 152.172253,103.606993 148.667302,91.3713108 L151.968827,91.6877509" id="Fill-170" fill="#F0AA72"></path>
                <path d="M160.435858,87.7518394 C160.435105,87.751086 160.434352,87.751086 160.434352,87.751086 C160.446406,87.6026605 160.461475,87.4534817 160.481064,87.3035494 C160.462982,87.4527282 160.447913,87.6019071 160.435858,87.7518394" id="Fill-171" fill="#C9C8C3"></path>
                <path d="M160.434352,87.751086 C158.720301,87.2485491 155.965766,85.3581965 155.778916,83.5514745 C155.772888,82.7076344 155.940903,81.8728354 156.271658,81.0968038 L160.811819,85.6151157 C160.66038,86.1688857 160.549626,86.7339573 160.481064,87.3035494 C160.461475,87.4534817 160.446406,87.6026605 160.434352,87.751086" id="Fill-172" fill="#D28A55"></path>
                <path d="M148.113532,72.7872388 C150.128954,79.1635058 150.841698,81.9074931 154.972747,84.4164106 C161.141821,88.1858144 168.563847,84.3229855 168.463641,77.4788392 C168.405627,71.3172994 165.127459,61.9303314 158.122832,60.9267644 C153.142669,60.1823768 148.503055,63.6165048 147.759421,68.595915 C147.548461,70.0018129 147.67127,71.4370946 148.113532,72.7872388" id="Fill-173" fill="#F0AA72"></path>
                <path d="M163.320737,71.7934664 C164.034987,72.9168285 164.902184,73.936971 165.895956,74.8230031 C165.42205,75.3232798 164.753005,75.5915004 164.065124,75.5568427 L163.320737,71.7934664" id="Fill-174" fill="#E88143"></path>
                <path d="M162.605733,78.9638472 C162.863406,78.9367238 163.118065,78.8885043 163.368203,78.8199423 C163.449573,78.8003532 163.4993,78.7189829 163.480464,78.638366 L163.478204,78.6300783 C163.454094,78.548708 163.37197,78.4974748 163.28834,78.5132968 C161.966072,78.8802166 160.548119,78.5886397 159.478251,77.7289776 L159.251469,77.7387721 L159.26051,77.9655542 C160.197022,78.7325446 161.401754,79.0919301 162.605733,78.9638472" id="Fill-175" fill="#1A282B"></path>
                <path d="M145.921808,60.0603214 C144.255977,61.1188887 143.165013,63.0295838 143.099464,65.0020602 C143.08741,65.3772676 143.112273,65.76453 143.27426,66.1035729 C143.435494,66.4426158 143.760221,66.7236447 144.134675,66.7439873 C144.710295,66.7748779 145.132215,66.2354229 145.447148,65.7532286 C145.93311,65.0103479 146.418318,64.2674672 146.905033,63.5245865 C147.3812,62.796021 148.1723,61.9499205 148.429972,61.1181353 C148.900865,59.6037436 146.813114,59.493743 145.921808,60.0603214" id="Fill-176" fill="#D6F68A"></path>
                <path d="M146.637565,61.5626582 C142.633092,66.1864501 140.845959,78.9887103 152.563282,82.5584555 C154.521443,81.0086527 151.35855,78.1855554 150.01594,74.6127965 C149.137442,72.2749073 153.60226,67.9110483 155.345694,66.1239155 C157.089128,64.3360292 158.687904,61.7464948 161.150109,62.1608806 C161.795044,62.2693743 162.481417,62.483348 163.076626,62.2136206 C165.027253,61.3298487 164.080193,60.1635411 163.099229,59.346071 C161.657166,58.1451057 159.628183,57.6011301 157.789064,57.4014715 C153.709247,56.9599623 149.354429,58.426888 146.637565,61.5626582" id="Fill-177" fill="#827E7E"></path>
                <path d="M159.651539,60.0136088 C164.354441,63.9374654 158.122832,64.0361646 154.850692,66.5217258 C151.690058,68.9085879 153.905892,72.8211431 148.566343,74.6331391 C144.202484,75.9094473 143.19515,75.1432103 141.987404,74.2986168 C141.987404,74.2986168 146.93291,73.6770381 147.659215,68.1220084 C148.032162,65.2657602 154.267538,55.4606392 159.651539,60.0136088" id="Fill-178" fill="#707070"></path>
                <path d="M147.403802,78.1433634 C148.139902,79.2072047 149.265525,79.9380305 150.535806,80.1776208 C152.224239,80.4737183 152.874448,78.9276826 152.291294,77.4215787 C151.745812,76.0684207 150.214091,74.279781 148.582918,74.66629 C147.410583,74.966908 146.703114,76.1618459 147.004485,77.3349344 C147.079828,77.6287716 147.216199,77.9045265 147.403802,78.1433634" id="Fill-179" fill="#F0AA72"></path>
                <path d="M158.840097,60.4106657 C159.751745,62.7289658 162.381211,62.4245806 164.328071,64.8491141 C165.523762,66.3311084 167.872953,61.7080699 164.676155,59.8734711 C161.478604,58.0381188 157.409335,56.778386 158.840097,60.4106657" id="Fill-180" fill="#707070"></path>
                <path d="M156.072,70.2044853 C156.20837,70.2203073 156.33796,70.1449644 156.392207,70.0191418 C157.010772,68.6418742 158.865713,68.2983107 158.882289,68.2968038 C159.055577,68.2644064 159.168591,68.0978986 159.136194,67.9253635 C159.103797,67.7528283 158.938042,67.6390606 158.764754,67.6722114 C158.671329,67.6850197 156.557961,68.1159809 155.808299,69.773524 C155.735217,69.9317441 155.803025,70.1201012 155.961246,70.1946907 L155.962752,70.1946907 L156.072,70.2044853" id="Fill-181" fill="#1A282B"></path>
                <path d="M165.864312,67.4333745 C165.976573,67.4409088 166.084313,67.386662 166.144588,67.2917299 C166.243287,67.1478251 166.206369,66.9504267 166.062464,66.8517276 L166.057943,66.8494673 C165.210336,66.2663135 164.13218,66.1291895 163.166284,66.4817941 C163.003543,66.5511095 162.928201,66.7394667 162.997516,66.9014539 C163.067585,67.0641945 163.255189,67.1395373 163.417929,67.0702219 C164.18492,66.7974807 165.037048,66.915769 165.700818,67.3859085 L165.864312,67.4333745" id="Fill-182" fill="#1A282B"></path>
                <path d="M196.837766,108.677568 L192.430208,111.186485 L187.841827,121.054141 C187.841827,121.054141 192.272741,123.874224 195.76413,121.591336 C199.254765,119.308447 196.837766,108.677568 196.837766,108.677568" id="Fill-183" fill="#426AA5"></path>
                <path d="M192.640414,122.482642 C190.087045,122.482642 187.841827,121.054141 187.841827,121.054141 L192.430208,111.186485 L196.837766,108.677568 C196.837766,108.677568 197.653729,112.266902 197.652976,115.722126 C197.652222,118.212961 197.226535,120.634481 195.76413,121.591336 C194.757549,122.249079 193.674119,122.482642 192.640414,122.482642" id="Fill-184" fill="#C9C9C9"></path>
                <path d="M119.632421,111.726694 L124.854435,113.203414 L129.805969,123.445524 C129.805969,123.445524 125.822591,127.123762 121.521267,123.608264 C118.291318,120.969003 119.632421,111.726694 119.632421,111.726694" id="Fill-185" fill="#426AA5"></path>
                <path d="M125.469986,125.129437 C124.272035,125.129437 122.916617,124.746695 121.528048,123.614292 C121.525787,123.612031 121.523527,123.610524 121.521267,123.608264 C119.758244,122.166955 119.356665,118.759197 119.356665,115.96021 C119.355913,113.632868 119.632421,111.726694 119.632421,111.726694 L124.854435,113.203414 L129.805969,123.445524 C129.805969,123.445524 127.981918,125.129437 125.469986,125.129437" id="Fill-186" fill="#C9C9C9"></path>
                <path d="M165.56068,69.9874978 C165.922326,69.9196892 166.299041,70.3257873 166.396986,70.8840779 C166.494932,71.4416152 166.276438,71.9531932 165.914792,72.014221 C165.553146,72.0744953 165.176432,71.6744246 165.078486,71.1176408 C164.973006,70.5744187 165.199035,70.0545529 165.56068,69.9874978" id="Fill-187" fill="#1A282B"></path>
                <path d="M166.675755,69.4374948 L165.40246,70.0628407 C166.170958,70.6045559 166.675755,69.4374948 166.675755,69.4374948" id="Fill-188" fill="#1A282B"></path>
                <path d="M159.253729,71.2781211 C159.614621,71.211066 159.991336,71.6179175 160.089281,72.1747013 C160.18798,72.7329919 159.969486,73.24457 159.607087,73.3048443 C159.246195,73.3651186 158.86948,72.9665548 158.770781,72.4082642 C158.665301,71.8665489 158.89133,71.3459297 159.253729,71.2781211" id="Fill-189" fill="#1A282B"></path>
                <path d="M160.36805,70.7281182 L159.095509,71.3542174 C159.863253,71.8966861 160.36805,70.7281182 160.36805,70.7281182" id="Fill-190" fill="#1A282B"></path>
                <g id="Fill-191">
                    <use fill="#FEFFFF" xlink:href="#path-12"></use>
                    <use fill="url(#linearGradient-11)" xlink:href="#path-12"></use>
                </g>
                <path d="M291.934781,87.977868 C291.858685,87.977868 291.79163,87.9703337 291.716287,87.9552652 C291.640191,87.9401966 291.573136,87.9175937 291.505327,87.8949909 L291.309436,87.7895109 L291.136147,87.6463594 C290.925187,87.4353994 290.804638,87.1490965 290.804638,86.847725 C290.804638,86.5538878 290.925187,86.2600506 291.136147,86.0490906 L291.309436,85.9134734 L291.505327,85.8079934 C291.573136,85.7778563 291.640191,85.7552534 291.716287,85.7401848 C291.858685,85.7100477 292.010124,85.7100477 292.16081,85.7401848 C292.228619,85.7552534 292.296427,85.7778563 292.37177,85.8079934 L292.560127,85.9134734 L292.733416,86.0490906 C292.944376,86.2600506 293.064924,86.5538878 293.064924,86.847725 C293.064924,87.1490965 292.944376,87.4353994 292.733416,87.6463594 L292.560127,87.7895109 L292.37177,87.8949909 C292.296427,87.9175937 292.228619,87.9401966 292.16081,87.9552652 C292.085467,87.9703337 292.010124,87.977868 291.934781,87.977868" id="Fill-13" fill="#FFFFFE"></path>
                <path d="M290.804638,114.604038 C290.804638,113.978692 291.309436,113.473895 291.934781,113.473895 C292.560127,113.473895 293.064924,113.978692 293.064924,114.604038 C293.064924,115.229384 292.560127,115.734181 291.934781,115.734181 C291.309436,115.734181 290.804638,115.229384 290.804638,114.604038 Z M290.804638,142.352817 C290.804638,141.727471 291.309436,141.222673 291.934781,141.222673 C292.560127,141.222673 293.064924,141.727471 293.064924,142.352817 C293.064924,142.978162 292.560127,143.48296 291.934781,143.48296 C291.309436,143.48296 290.804638,142.978162 290.804638,142.352817 Z M290.804638,170.109129 C290.804638,169.484537 291.309436,168.978986 291.934781,168.978986 C292.560127,168.978986 293.064924,169.484537 293.064924,170.109129 C293.064924,170.734475 292.560127,171.239272 291.934781,171.239272 C291.309436,171.239272 290.804638,170.734475 290.804638,170.109129 Z M290.804638,197.866196 C290.804638,197.240097 291.309436,196.736053 291.934781,196.736053 C292.560127,196.736053 293.064924,197.240097 293.064924,197.866196 C293.064924,198.483254 292.560127,198.996339 291.934781,198.996339 C291.309436,198.996339 290.804638,198.483254 290.804638,197.866196 Z M290.804638,225.614974 C290.804638,224.989629 291.309436,224.484831 291.934781,224.484831 C292.560127,224.484831 293.064924,224.989629 293.064924,225.614974 C293.064924,226.239567 292.560127,226.745117 291.934781,226.745117 C291.309436,226.745117 290.804638,226.239567 290.804638,225.614974 L290.804638,225.614974 Z" id="Fill-14" fill="#FFFFFE"></path>
                <path d="M291.934781,254.500677 C291.63341,254.500677 291.347107,254.380128 291.136147,254.169168 C290.925187,253.958208 290.804638,253.671905 290.804638,253.370534 C290.804638,253.069162 290.925187,252.782859 291.136147,252.571899 L291.309436,252.428748 L291.505327,252.323268 C291.573136,252.301419 291.640191,252.278062 291.716287,252.262994 C291.858685,252.232857 292.010124,252.232857 292.16081,252.262994 C292.228619,252.278062 292.303208,252.301419 292.37177,252.323268 L292.560127,252.428748 L292.733416,252.571899 C292.944376,252.782859 293.064924,253.069162 293.064924,253.370534 C293.064924,253.671905 292.95191,253.958208 292.733416,254.169168 C292.521702,254.380128 292.235399,254.500677 291.934781,254.500677" id="Fill-15" fill="#FFFFFE"></path>
                <polygon id="Fill-22" fill="#DFDFDA" points="272.955913 257.310966 320 257.310966 320 257.122609 272.955913 257.122609"></polygon>
                <polyline id="Fill-100" fill="#EDFB8B" points="272.585226 61.1354641 271.834811 61.073683 272.059333 58.3545588 272.809747 58.41634 272.585226 61.1354641"></polyline>
            </g>
        </g>
    </g>
</svg>