<?xml version="1.0" encoding="UTF-8"?>
<svg width="30px" height="30px" viewBox="0 0 30 30" version="1.1" xmlns="http://www.w3.org/2000/svg" xmlns:xlink="http://www.w3.org/1999/xlink">
    <title>logout</title>
    <defs>
        <linearGradient x1="71.6137368%" y1="90.9852463%" x2="26.9984163%" y2="6.38492957%" id="linearGradient-1">
            <stop stop-color="#FD6200" offset="0.26%"></stop>
            <stop stop-color="#FFD700" offset="100%"></stop>
        </linearGradient>
    </defs>
    <g id="Page-1" stroke="none" stroke-width="1" fill="none" fill-rule="evenodd">
        <g id="23:-Account-Page" transform="translate(-19.000000, -703.000000)" fill-rule="nonzero">
            <g id="logout" transform="translate(19.000000, 703.000000)">
                <circle id="Oval" fill="url(#linearGradient-1)" cx="15" cy="15" r="15"></circle>
                <g id="Group" transform="translate(6.249437, 6.242186)" fill="#FFF8F8">
                    <path d="M2.98737184,8.76006502 L6.96836709,8.76006502 C7.45223806,8.76006502 7.84371093,8.36809202 7.84371093,7.88472118 C7.84371093,7.40135034 7.45223806,7.00937734 6.96836709,7.00937734 L2.98737184,7.00937734 L4.11915479,5.8775944 C4.46111528,5.53563391 4.46111528,4.98174544 4.11915479,4.63978495 C3.7771943,4.29782446 3.22330583,4.29782446 2.88134534,4.63978495 L0.255938985,7.2651913 C0.17491873,7.34608652 0.110777694,7.44298575 0.0663915979,7.55026257 C-0.0221305326,7.76419105 -0.0221305326,8.00512628 0.0663915979,8.21905476 C0.110902726,8.32633158 0.17491873,8.42335584 0.255938985,8.50412603 L2.88147037,11.1296574 C3.0523881,11.3005751 3.27644411,11.3860965 3.50037509,11.3860965 C3.72430608,11.3860965 3.94836209,11.3005751 4.11927982,11.1296574 C4.46124031,10.7876969 4.46124031,10.2338085 4.11927982,9.89184796 L2.98737184,8.76006502 Z" id="Path"></path>
                    <path d="M15.3408352,-8.32875487e-16 L7.36084021,-8.32875487e-16 C6.16916729,-8.32875487e-16 5.19979995,0.948487122 5.19979995,2.11452863 L5.19979995,2.63253313 C5.19979995,3.11590398 5.59127282,3.50787697 6.07514379,3.50787697 C6.55901475,3.50787697 6.95048762,3.11590398 6.95048762,2.63253313 L6.95048762,2.1144036 C6.95048762,1.91397849 7.13428357,1.75068767 7.36084021,1.75068767 L13.0047512,1.75068767 L10.1254064,2.81632908 C9.2748187,3.13128282 8.7251813,3.88622156 8.7251813,4.73893473 L8.7251813,14.0123781 L7.32145536,14.0123781 C7.12228057,14.0123781 6.95986497,13.8452113 6.95986497,13.640035 L6.95986497,13.1369092 C6.95986497,12.6535384 6.5683921,12.2615654 6.08452113,12.2615654 C5.60065016,12.2615654 5.20917729,12.6535384 5.20917729,13.1369092 L5.20917729,13.640035 C5.20917729,14.8107027 6.15628907,15.7630658 7.32145536,15.7630658 L8.76444111,15.7630658 C8.85196299,16.2944486 9.14253563,16.7726932 9.61415354,17.1009002 C10.0082521,17.3753438 10.4741185,17.5163791 10.9468617,17.5163791 C11.2255564,17.5163791 11.5067517,17.4672418 11.776069,17.3675919 L16.3443361,15.6766692 C17.0256314,15.4248562 17.4658665,14.815829 17.4658665,14.1255314 L17.4658665,13.6072768 C17.4792448,13.5466367 17.5027507,13.4896224 17.5027507,13.4249812 L17.5027507,2.1144036 C17.5027507,0.948487122 16.5325081,-8.32875487e-16 15.3408352,-8.32875487e-16 L15.3408352,-8.32875487e-16 Z M15.7153038,14.0426357 L11.1684171,15.7254314 C10.9453613,15.8095774 10.735809,15.748062 10.6145286,15.663916 C10.5512628,15.619905 10.475994,15.5463866 10.475994,15.4446112 L10.475994,4.7388097 C10.475994,4.62765691 10.5793948,4.51487872 10.7333083,4.4579895 L15.6546637,2.63715929 C15.6700425,2.63115779 15.6836709,2.62903226 15.6965491,2.62903226 C15.7034259,2.62903226 15.7094274,2.62990748 15.7153038,2.6307827 L15.7153038,14.0426357 Z" id="Shape"></path>
                </g>
            </g>
        </g>
    </g>
</svg>