<?xml version="1.0" encoding="UTF-8"?>
<svg width="100%" height="100%" viewBox="0 0 30 30" version="1.1" xmlns="http://www.w3.org/2000/svg" xmlns:xlink="http://www.w3.org/1999/xlink">
    <title>Marital Status</title>
    <defs>
        <linearGradient x1="71.138618%" y1="88.8347087%" x2="28.5071268%" y2="10.5109611%" id="linearGradient-1">
            <stop stop-color="#AE3EFF" offset="0.26%"></stop>
            <stop stop-color="#FA7DFF" offset="100%"></stop>
        </linearGradient>
        <linearGradient x1="50%" y1="98.225%" x2="50%" y2="4.25%" id="linearGradient-2">
            <stop stop-color="#FD4085" offset="0.26%"></stop>
            <stop stop-color="#FFA28D" offset="100%"></stop>
        </linearGradient>
        <circle id="path-3" cx="15" cy="15" r="15"></circle>
    </defs>
    <g id="Page-1" stroke="none" stroke-width="1" fill="none" fill-rule="evenodd">
        <g id="Profile" transform="translate(-31.000000, -468.000000)" fill-rule="nonzero">
            <g id="Marital-Status" transform="translate(31.000000, 468.000000)">
                <g id="Oval">
                    <use fill="url(#linearGradient-1)" xlink:href="#path-3"></use>
                    <use fill="url(#linearGradient-2)" xlink:href="#path-3"></use>
                </g>
                <g id="marriage" transform="translate(6.000000, 6.000000)" fill="#FFFFFF">
                    <path d="M0,6.7505625 C0,9.27305859 1.40357812,11.5552969 3.58091016,12.7129219 C3.49080469,12.2353945 3.44422266,11.7460195 3.44422266,11.2494375 C3.44422266,10.9417148 3.46278516,10.6357148 3.49857422,10.3327734 C2.48565234,9.41431641 1.91028516,8.12524219 1.91028516,6.75052734 C1.91028516,4.08157031 4.08164062,1.91021484 6.7505625,1.91021484 C9.41951953,1.91021484 11.590875,4.08157031 11.590875,6.75052734 C11.590875,8.00441016 11.111625,9.19416797 10.2413672,10.1006367 C9.49369922,10.8794531 8.52567188,11.3786016 7.47471094,11.5364883 C7.52540625,12.209625 7.75290234,12.8342109 8.11082812,13.3638047 C9.56214844,13.0663828 10.8846211,12.2918555 11.8618242,11.1603164 C12.9189375,9.93624609 13.501125,8.37014062 13.501125,6.75052734 C13.501125,3.02828906 10.4728359,0 6.7505625,0 C3.02828906,0 0,3.02828906 0,6.7505625 L0,6.7505625 Z" id="Path"></path>
                    <path d="M18,11.2494375 C18,8.72694141 16.5964219,6.44470313 14.4190898,5.28707812 C14.5091953,5.76460547 14.5557773,6.25398047 14.5557773,6.7505625 C14.5557773,7.05828516 14.5372148,7.36428516 14.5014258,7.66719141 C15.5143828,8.58564844 16.08975,9.87472266 16.08975,11.2494727 C16.08975,13.9184297 13.9183945,16.0897852 11.2494727,16.0897852 C8.58051563,16.0897852 6.40916016,13.9184297 6.40916016,11.2494727 C6.40916016,9.99558984 6.88841016,8.80583203 7.75863281,7.89936328 C8.50633594,7.12051172 9.47439844,6.62139844 10.5253242,6.46347656 C10.4746289,5.79033984 10.2471328,5.16575391 9.88920703,4.63616016 C8.43788672,4.93354687 7.11537891,5.70807422 6.13817578,6.83964844 C5.0810625,8.06371875 4.498875,9.62982422 4.498875,11.2494727 C4.498875,14.9717109 7.52716406,18 11.2494375,18 C14.9717109,18 18,14.9717109 18,11.2494375 Z" id="Path"></path>
                </g>
            </g>
        </g>
    </g>
</svg>