<?xml version="1.0" encoding="UTF-8"?>
<svg width="100%" height="100%" viewBox="0 0 264.17987 202.921835" version="1.1" xmlns="http://www.w3.org/2000/svg" xmlns:xlink="http://www.w3.org/1999/xlink">
    <title>no data</title>
    <defs>
        <polygon id="path-1" points="0 0 300 0 300 240.00048 0 240.00048"></polygon>
        <linearGradient x1="91.0407349%" y1="50%" x2="7.71167851%" y2="50%" id="linearGradient-3">
            <stop stop-color="#EDFB8B" offset="0%"></stop>
            <stop stop-color="#6EDC85" offset="100%"></stop>
        </linearGradient>
        <path d="M74.4758937,216.711801 C53.8041456,191.217495 13.7600851,147.695972 51.3282159,129.687356 C51.3282159,129.687356 54.1079893,128.840746 58.2756993,127.022124 C71.4662576,121.265055 98.5721829,105.773469 95.5571467,76.5645188 C95.5571467,76.5645188 94.5299344,71.1140534 94.5299344,63.5299624 C94.5299344,46.1901743 99.9035988,17.6978124 135.179822,17.6978124 C135.981432,17.6978124 136.792642,17.7123925 137.625452,17.7422129 C158.792506,18.500922 178.400141,28.5983232 191.198294,44.9501394 C191.536698,45.3825046 191.868502,45.8169698 192.197306,46.2580351 C192.767313,47.0232843 193.32412,47.8023936 193.864726,48.5933831 C203.715645,63.003156 218.256819,80.0517606 231.912383,80.0517606 C235.440425,80.0517606 238.908467,78.914747 242.222907,76.2993156 C244.905539,74.1818902 248.210379,73.0238763 251.566819,73.0238763 C252.873034,73.0238763 254.18705,73.1990784 255.475266,73.5614827 C267.093805,76.8249219 280.292764,93.7193246 245.287743,168.557623 C245.287743,168.557623 242.447309,172.323268 238.802266,178.159538 C238.599463,178.484142 238.395461,178.814146 238.187858,179.15135 C236.920043,181.211775 235.572427,183.501402 234.224811,185.952431 C229.360552,194.801938 225.632708,206.65028 224.674496,216.7004 C222.240267,216.6692 219.739437,216.6392 217.173806,216.610999 C218.726625,214.16417 218.688224,211.360936 218.688224,211.360936 C218.881427,211.446737 219.084229,211.486938 219.284031,211.486938 C219.827038,211.486938 220.345444,211.189334 220.565647,210.691328 L222.080065,207.267087 C221.385257,206.146274 219.715437,205.063861 218.750025,204.501654 C218.766225,204.464454 218.774625,204.444653 218.774625,204.444653 L218.30782,204.252051 C218.131418,204.15605 218.027016,204.103249 218.027016,204.103249 L217.971816,204.114049 L197.359768,195.622147 L197.370568,195.603547 C197.381969,195.598147 197.387969,195.595747 197.387969,195.595747 C197.383169,195.597547 197.377769,195.598747 197.372368,195.600547 L209.20211,176.160914 C210.232923,174.19289 210.627728,172.311268 210.627128,170.582647 C210.626528,168.394421 209.99172,166.451597 209.211111,164.887979 C209.20631,164.877779 209.20151,164.868778 209.19671,164.859178 C209.12831,164.722977 209.058709,164.589175 208.988508,164.458974 C207.103885,156.955883 201.061813,151.580419 197.624971,149.041188 C196.256955,148.030176 194.95974,146.937563 193.775325,145.744749 C189.237471,141.178694 182.45979,140.719689 179.916959,140.719689 C179.672156,140.719689 179.465754,140.723889 179.304952,140.729289 L179.307952,140.695088 C176.145914,140.536086 174.938699,137.079445 174.938699,137.079445 L170.85685,148.085977 C171.132854,147.937175 171.611059,147.877775 172.199666,147.877775 C173.162078,147.877775 174.420293,148.037376 175.571107,148.225779 C176.165714,148.32298 176.732121,148.427981 177.214527,148.522782 L177.209127,148.538382 C177.296128,149.13659 177.561331,150.406205 177.926735,151.513818 C177.893135,151.609219 177.858934,151.70702 177.822934,151.807822 C177.723933,152.086225 177.617131,152.383829 177.49953,152.698232 C176.819722,154.528854 175.84711,156.903083 174.680696,159.056509 C174.579895,159.242511 174.477294,159.427313 174.374092,159.609115 C174.344092,159.565315 174.312892,159.521514 174.281691,159.477714 L169.856638,153.273039 L169.856638,144.296332 C169.856638,142.723713 168.761025,141.449297 167.409809,141.449297 L141.845302,141.449297 C140.494086,141.449297 139.398473,142.723713 139.398473,144.296332 L139.398473,151.578619 C139.398473,153.221439 138.254259,154.552855 136.842442,154.552855 L93.8087257,154.552855 C91.3264959,154.552855 89.3146718,156.894683 89.3146718,159.782517 L89.3146718,216.544399 C84.1318096,216.594199 79.1763501,216.65 74.4758937,216.711801 M56.5225383,133.375601 C55.9021308,133.375601 55.3135238,133.743405 55.0620007,134.352412 L44.6515758,159.556315 C44.3185118,160.362724 44.7021564,161.286135 45.5085061,161.619139 L64.330972,169.394033 C64.5283743,169.475034 64.7323768,169.514034 64.9333792,169.514034 C65.5537866,169.514034 66.1423937,169.14623 66.3937967,168.536622 L75.1863022,147.250767 L71.9900639,139.748277 L71.9318632,139.611475 L57.1249455,133.495602 C56.9277231,133.414001 56.7234807,133.375601 56.5225383,133.375601 M118.32982,90.8872906 L104.851258,98.9717877 C104.116849,99.4115929 103.878647,100.363804 104.319052,101.097613 L118.079617,124.040088 C118.37002,124.524894 118.883627,124.793098 119.409833,124.793098 C119.681036,124.793098 119.955839,124.721697 120.205442,124.572295 L137.339248,114.295972 C138.073657,113.855566 138.31186,112.903955 137.871454,112.169546 L126.249915,92.7935135 L118.470822,90.9214911 L118.32982,90.8872906 M238.436261,88.4656616 L223.162478,93.2993196 C222.330868,93.5627228 221.870062,94.4501334 222.133466,95.2823434 L230.361364,121.280055 C230.574367,121.953263 231.196574,122.383469 231.866782,122.383469 C232.024584,122.383469 232.185386,122.359468 232.343788,122.309068 L251.759421,116.164394 C252.591031,115.900991 253.052437,115.01358 252.789033,114.18197 L245.83975,92.2253067 L238.568263,88.5328624 L238.436261,88.4656616 M158.194298,43.2180986 C157.52709,43.2180986 156.907283,43.6436837 156.69128,44.3122717 L148.30318,70.2590431 C148.034976,71.0894531 148.490382,71.9798638 149.320792,72.248067 L168.698024,78.5121421 C168.859426,78.5643428 169.023228,78.5895431 169.18403,78.5895431 C169.850638,78.5895431 170.471046,78.163538 170.687048,77.4951299 L177.771333,55.581607 L173.992488,48.3544003 L173.924087,48.2230587 L158.680304,43.2951395 C158.518902,43.2429389 158.3551,43.2180986 158.194298,43.2180986 M207.337288,216.513198 C202.373428,216.468798 197.218767,216.430397 191.897903,216.397397 L191.897903,213.434561 C191.965104,211.814542 191.321896,210.705728 190.777689,210.064921 L188.011056,202.434629 C187.882655,202.080025 187.796254,201.712821 187.753653,201.340816 C186.907043,193.964928 185.629028,188.475462 185.086021,186.338236 C185.062621,186.245835 185.05122,186.153434 185.05122,186.062233 C185.050621,185.596027 185.340424,185.159222 185.81503,184.958219 C185.82643,184.953419 185.83723,184.949219 185.84863,184.944419 C185.85103,184.943219 185.85343,184.942019 185.85523,184.941419 C185.879231,184.931219 185.902031,184.921619 185.925431,184.911419 C185.926031,184.910819 185.927231,184.910819 185.927831,184.910219 C189.066469,183.565603 191.617099,181.921583 193.684724,180.189962 L189.828478,192.53811 C185.689028,201.045613 193.795126,204.608455 193.795126,204.608455 L213.34756,212.302948 C213.142358,214.848178 210.294724,215.02998 210.294724,215.02998 C208.233099,215.489586 207.50229,216.037992 207.337288,216.513198 M187.564051,216.372196 C187.154846,216.370396 186.749241,216.367996 186.337636,216.366196 C186.979644,215.992392 187.356448,215.721189 187.356448,215.721189 C187.356448,215.961792 187.432649,216.185594 187.564051,216.372196 M174.494094,216.298996 C172.964676,216.285195 171.417857,216.272595 169.856638,216.261195 L169.856638,164.800978 L171.201854,166.785201 C171.69926,167.51901 172.438469,168.003816 173.247879,168.194018 C173.426681,168.236019 173.608483,168.263619 173.792086,168.276219 C173.844886,168.280419 173.897687,168.282819 173.950487,168.284019 C173.978088,168.284619 174.005688,168.285219 174.033288,168.285219 C174.272091,168.285219 174.512094,168.259419 174.749097,168.207818 C174.857098,168.185018 174.9657,168.156218 175.071901,168.121417 C175.207502,168.078817 175.340104,168.026616 175.471506,167.965416 C175.499706,167.952815 175.527306,167.939015 175.555507,167.925215 L176.186714,167.610211 L178.533342,166.438397 C178.538742,166.432397 178.541743,166.420997 178.541743,166.403597 C178.541142,166.383197 178.537542,166.354996 178.530942,166.320196 C178.505742,166.192994 178.437941,165.978792 178.35394,165.741189 L178.394141,165.772389 L178.560343,165.379985 L181.754781,157.854094 C183.031596,159.588115 184.079209,160.84753 184.079209,160.84753 L184.481814,161.244735 L184.481814,163.134158 L185.407625,162.159146 L191.786901,168.456821 C188.36986,170.646248 181.032372,176.533518 181.032372,176.533518 C174.881099,181.425377 176.892923,187.54005 176.892923,187.54005 L181.779981,210.563527 L184.15181,210.432125 C182.088985,212.665952 180.399965,213.804166 179.681156,214.235571 C179.459754,214.368172 179.209551,214.454573 178.948547,214.486374 C176.087713,214.839778 174.9987,215.533986 174.600895,216.094393 C174.554695,216.159794 174.519294,216.228195 174.494094,216.298996" id="path-4"></path>
        <linearGradient x1="91.0407349%" y1="50%" x2="7.71167851%" y2="50%" id="linearGradient-5">
            <stop stop-color="#EDFB8B" offset="0%"></stop>
            <stop stop-color="#6EDC85" offset="100%"></stop>
        </linearGradient>
        <path d="M169.883039,217.452209 L89.3410721,217.452209 L78.0309364,167.415209 C77.4597295,164.887979 79.0977492,162.415349 81.3435761,162.415349 L154.801858,162.415349 C156.358276,162.415349 157.718493,163.636364 158.114497,165.387185 L169.883039,217.452209" id="path-6"></path>
    </defs>
    <g id="Page-1" stroke="none" stroke-width="1" fill="none" fill-rule="evenodd">
        <g id="KYC_Not-added" transform="translate(-55.9681, -178.7378)">
            <g id="no-data" transform="translate(38.06, 161.04)">
                <mask id="mask-2" fill="white">
                    <use xlink:href="#path-1"></use>
                </mask>
                <g id="Clip-2"></g>
                <path d="M75.9597115,89.9116789 C75.8997108,89.9116789 75.8385101,89.9026788 75.7785093,89.8834786 C74.8820986,89.5990752 73.9280871,89.0974692 72.9608755,88.4332612 C72.6878723,88.2454589 72.6188714,87.8722545 72.8066737,87.5986512 C72.9230751,87.4294492 73.1108773,87.3388481 73.3016796,87.3388481 C73.418681,87.3388481 73.5368824,87.3730485 73.6406837,87.4444493 C74.5334944,88.0588567 75.4005048,88.5058621 76.1409137,88.7398649 C76.4565175,88.8400661 76.6317196,89.1772701 76.5315184,89.4928739 C76.4505174,89.748477 76.2141146,89.9116789 75.9597115,89.9116789 M78.7845454,89.5492746 C78.6165434,89.5492746 78.4497414,89.4790737 78.33094,89.3422721 C78.1143374,89.0914691 78.1413377,88.7128646 78.3915407,88.4956619 C78.6417437,88.2796594 78.8919467,87.9730557 79.1265495,87.586051 C79.3617523,87.1996464 79.580755,86.7346408 79.7751573,86.2090345 C79.8651584,85.9672316 80.0943611,85.8172298 80.3379641,85.8172298 C80.4075649,85.8172298 80.4777657,85.82983 80.5461666,85.8550303 C80.8569703,85.9702316 81.0159722,86.3152358 80.9007708,86.6260395 C80.6841682,87.2098465 80.4363652,87.7414529 80.1525618,88.2094585 C79.8681584,88.6768641 79.5477546,89.081269 79.1775501,89.4022728 C79.0641488,89.500674 78.9243471,89.5492746 78.7845454,89.5492746 M70.9844518,86.6326396 C70.83505,86.6326396 70.6850482,86.5768389 70.5686468,86.4646376 C69.8438381,85.7668292 69.1454297,84.9940199 68.5052221,84.16841 C68.3024196,83.9068069 68.3504202,83.5294024 68.6120233,83.3265999 C68.7218247,83.2419989 68.8508262,83.2005984 68.9792278,83.2005984 C69.1586299,83.2005984 69.335632,83.2809994 69.4538334,83.4334012 C70.0568407,84.2110105 70.7174486,84.9424193 71.4008568,85.6006272 C71.6396597,85.83043 71.6468598,86.2102345 71.417057,86.4490374 C71.2988556,86.5714389 71.1422537,86.6326396 70.9844518,86.6326396 M81.082573,84.1144094 C81.0495726,84.1144094 81.0165722,84.1120093 80.9829718,84.1066093 C80.6559679,84.0520086 80.4351652,83.7424049 80.4897659,83.415401 C80.6433677,82.49619 80.7417689,81.5127782 80.7795694,80.5077661 C80.7915695,80.1837622 81.0579727,79.9299592 81.3789765,79.9299592 C81.3861766,79.9299592 81.3939767,79.9299592 81.4017768,79.9305592 C81.7329808,79.9425593 81.9909839,80.2215627 81.9789837,80.5521666 C81.9393833,81.6063793 81.836182,82.6389917 81.6735801,83.6134034 C81.6243795,83.9068069 81.3705764,84.1144094 81.082573,84.1144094 M67.337008,81.8919827 C67.1234055,81.8919827 66.916403,81.7773813 66.8078017,81.5763789 C66.3031956,80.6385677 65.8951907,79.665356 65.6245875,78.6783441 C65.5369864,78.3585403 65.7247887,78.0285363 66.0445925,77.9409353 C66.0973932,77.9265351 66.1507938,77.919335 66.2035944,77.919335 C66.4669976,77.919335 66.7088005,78.0945371 66.7814014,78.3609403 C67.0238043,79.2453509 67.3958087,80.1375617 67.8644144,81.0069721 C68.0216163,81.2991756 67.9124149,81.66278 67.6208114,81.8199818 C67.5302104,81.8685824 67.4330092,81.8919827 67.337008,81.8919827 M81.3129758,78.1305376 C81.003972,78.1305376 80.7417689,77.8935347 80.7159686,77.579731 C80.6343676,76.5891191 80.4903659,75.6153074 80.2809634,74.6990964 C80.2077625,74.3762925 80.4099649,74.0540886 80.7327688,73.9808878 C80.7777693,73.9706876 80.8227699,73.9652876 80.8665704,73.9652876 C81.1401737,73.9652876 81.3879767,74.1542899 81.4509774,74.4320932 C81.6747801,75.4113049 81.8259819,76.4397173 81.9117829,77.4813298 C81.9387833,77.8119337 81.6933803,78.1017372 81.3627764,78.1287375 C81.3465762,78.1299376 81.329776,78.1305376 81.3129758,78.1305376 M65.8825906,76.1529138 C65.8669904,76.1529138 65.8519902,76.1523138 65.83639,76.1511138 C65.5063861,76.1265135 65.2585831,75.8385101 65.2831834,75.5079061 C65.3491842,74.6342956 65.5621867,73.7708853 65.9497914,72.9482754 C66.0361924,72.7652732 66.1303936,72.585271 66.2317948,72.4094689 C66.3427961,72.2162666 66.5443985,72.1088653 66.752001,72.1088653 C66.8540022,72.1088653 66.9566035,72.1346656 67.0514046,72.1892663 C67.3382081,72.3542683 67.4372092,72.7214727 67.2716073,73.0082761 C67.1858062,73.1570779 67.1072053,73.3076797 67.0352044,73.4600815 C66.7136006,74.1434897 66.5359984,74.8574983 66.4801978,75.5979072 C66.4561975,75.912911 66.1933943,76.1529138 65.8825906,76.1529138 M79.919759,72.3242679 C79.6941563,72.3242679 79.4781537,72.1964664 79.3761525,71.9780637 C78.9441473,71.0534526 78.414341,70.2866434 77.8005336,69.7352368 C77.5545307,69.5138342 77.5341304,69.1346296 77.7561331,68.8880267 C77.8743345,68.7566251 78.0381365,68.6894243 78.2019384,68.6894243 C78.3453401,68.6894243 78.4887419,68.7404249 78.6033432,68.8436261 C79.3707524,69.5342344 79.9797598,70.4378453 80.4627656,71.4698576 C80.6031672,71.7698612 80.4735657,72.1274655 80.1735621,72.2672672 C80.0913611,72.3062677 80.0049601,72.3242679 79.919759,72.3242679 M68.6936243,71.0414525 C68.5226223,71.0414525 68.3528202,70.9682516 68.2340188,70.8272499 C68.0210163,70.5734469 68.0540166,70.1948423 68.3078197,69.9818398 C69.1148294,69.3038316 70.0298404,68.7374248 70.9892519,68.3108197 C71.0684528,68.2760193 71.1506538,68.2592191 71.2322548,68.2592191 C71.4620575,68.2592191 71.6816602,68.3918207 71.7812614,68.6156234 C71.915663,68.918627 71.7788613,69.2732313 71.4764577,69.4076329 C70.6196474,69.7880375 69.7964376,70.2986436 69.079429,70.9010508 C68.9666276,70.9952519 68.829826,71.0414525 68.6936243,71.0414525 M77.0475246,69.1148294 C76.9623235,69.1148294 76.8753225,69.0962292 76.7931215,69.0578287 C76.2057145,68.7812254 75.5211063,68.6462238 74.7794974,68.6462238 C74.580295,68.6462238 74.3774925,68.6558239 74.1716901,68.6750241 C74.1524898,68.6768241 74.1338896,68.6780241 74.1152894,68.6780241 C73.8086857,68.6780241 73.5470826,68.4446213 73.5182822,68.1338176 C73.4876819,67.8038136 73.7300848,67.5110101 74.0600887,67.4804098 C74.3012916,67.4582095 74.5412945,67.4462094 74.7794974,67.4462094 C75.665108,67.4462094 76.5273183,67.6070113 77.3037276,67.9718157 C77.6031312,68.1128174 77.7321328,68.4698216 77.5911311,68.7698252 C77.4891299,68.9870278 77.2731273,69.1148294 77.0475246,69.1148294" id="Fill-3" fill="#CFD6EE" mask="url(#mask-2)"></path>
                <path d="M52.4397293,106.033872 C52.4357692,106.033872 52.4318092,106.033872 52.4277891,106.033872 C51.4017168,106.014072 50.3799646,105.945071 49.3754925,105.82327 C49.0464486,105.783669 48.8121457,105.484266 48.8521062,105.155462 C48.8890067,104.850658 49.1479098,104.627456 49.4470134,104.627456 C49.4711337,104.627456 49.4954939,104.629256 49.5199742,104.632256 C50.4814258,104.748657 51.4630376,104.814658 52.4512494,104.833858 C52.7825134,104.840458 53.0459166,105.114061 53.0394365,105.445865 C53.0330164,105.772869 52.7656532,106.033872 52.4397293,106.033872 M55.4388653,105.955871 C55.1267415,105.955871 54.8632184,105.714069 54.8408981,105.397865 C54.8174978,105.067261 55.0665608,104.780457 55.3971048,104.757057 C56.3854366,104.687456 57.3665684,104.574655 58.3269399,104.422853 C58.3586203,104.418053 58.3900607,104.415653 58.4212011,104.415653 C58.7113045,104.415653 58.9664876,104.626256 59.0131082,104.922059 C59.0647688,105.249063 58.8413861,105.556267 58.5140822,105.608467 C57.5198702,105.765069 56.5048381,105.882071 55.4816458,105.954071 C55.4673056,105.955271 55.4530254,105.955871 55.4388653,105.955871 M46.498458,105.292864 C46.4508174,105.292864 46.4023968,105.287463 46.3540962,105.275463 C45.335704,105.02406 44.3516322,104.706056 43.417601,104.315452 C43.1118973,104.18765 42.9676556,103.836046 43.0954571,103.530642 C43.1916983,103.30024 43.414541,103.161638 43.6493238,103.161638 C43.7264247,103.161638 43.8049057,103.176638 43.8805066,103.208439 C44.751417,103.572643 45.6772281,103.872046 46.6419197,104.110249 C46.9636436,104.19005 47.1599659,104.515254 47.080525,104.836858 C47.0129642,105.110461 46.7679212,105.292864 46.498458,105.292864 M61.3603363,105.01746 C61.0915331,105.01746 60.8473302,104.835658 60.7789293,104.563255 C60.6979284,104.242251 60.8929307,103.915847 61.2145346,103.835446 C62.1979464,103.587643 63.1405577,103.29964 64.0231683,102.976836 C64.0915691,102.951635 64.1611699,102.939635 64.2295708,102.939635 C64.4743737,102.939635 64.7041765,103.090837 64.7929775,103.33384 C64.9069789,103.645244 64.746777,103.989648 64.4359732,104.103649 C63.5107621,104.442053 62.5291503,104.742057 61.5067381,104.99886 C61.4575375,105.01146 61.4083369,105.01746 61.3603363,105.01746 M41.0087521,102.948035 C40.8927107,102.948035 40.7754693,102.914435 40.6722681,102.844234 C39.7967376,102.250227 39.000588,101.562019 38.3084197,100.773009 C38.0898971,100.524006 38.1145574,100.144802 38.3636204,99.9263991 C38.4775617,99.8261979 38.6186234,99.7769973 38.7591451,99.7769973 C38.9258871,99.7769973 39.0917891,99.8465982 39.2104105,99.9815998 C39.829858,100.687208 40.5469866,101.308816 41.3463162,101.851222 C41.6204594,102.037824 41.6918003,102.411029 41.5056781,102.685232 C41.3896367,102.855634 41.2008744,102.948035 41.0087521,102.948035 M66.9722037,102.927035 C66.7580011,102.927035 66.5509986,102.811834 66.4429973,102.609631 C66.2863954,102.317428 66.3967968,101.953823 66.6890003,101.797822 C67.6172114,101.301016 68.416421,100.760409 69.0494286,100.196402 C69.16403,100.095001 69.3062317,100.044601 69.4484334,100.044601 C69.6134354,100.044601 69.7778373,100.113001 69.8966388,100.245603 C70.1168414,100.493406 70.0946411,100.87261 69.8474382,101.092813 C69.1250295,101.735421 68.249619,102.323428 67.2548071,102.855634 C67.164806,102.904235 67.0682048,102.927035 66.9722037,102.927035 M71.168654,98.832586 C71.1068533,98.832586 71.0432525,98.8223859 70.9808518,98.8019856 C70.666448,98.6981844 70.4954459,98.3591803 70.5992472,98.0441765 C70.7138486,97.6943723 70.7690492,97.333168 70.7690492,96.9545635 C70.7690492,96.4841578 70.6832482,95.9867518 70.5170462,95.4689456 C70.416245,95.1533418 70.5896471,94.8155378 70.9052509,94.7141366 C70.9664516,94.6949363 71.0276523,94.6859362 71.0888531,94.6859362 C71.3426561,94.6859362 71.5784589,94.8479382 71.6600599,95.1029412 C71.8568623,95.7179486 71.9690636,96.3383561 71.9690636,96.9545635 C71.9690636,97.4501694 71.8958628,97.9427753 71.7386609,98.419781 C71.6558599,98.6723841 71.4212571,98.832586 71.168654,98.832586 M37.1101453,98.4821818 C36.8884427,98.4821818 36.6752601,98.3591803 36.5710389,98.1461778 C36.1165934,97.2203666 35.7646892,96.2285547 35.5175462,95.2031424 C35.4399653,94.8809386 35.6381477,94.5569347 35.9603515,94.4795338 C36.0075721,94.4681336 36.0547927,94.4627336 36.1013532,94.4627336 C36.3721965,94.4627336 36.6179594,94.6469358 36.6842002,94.9223391 C36.9117229,95.8667504 37.2351868,96.7763613 37.6483518,97.6175714 C37.7943335,97.915175 37.6714521,98.2745793 37.3739685,98.4209811 C37.2889475,98.4623815 37.1988864,98.4821818 37.1101453,98.4821818 M69.7160366,93.2303188 C69.5258343,93.2303188 69.3386321,93.1403177 69.2222307,92.9723157 C68.7008244,92.2205066 68.0696168,91.4656976 67.3706084,90.7318888 C67.1420057,90.4918859 67.1510058,90.1120813 67.3910087,89.8834786 C67.5074101,89.7730773 67.6562119,89.7184766 67.8050137,89.7184766 C67.9634156,89.7184766 68.1218175,89.7808774 68.2394189,89.9044789 C68.9726277,90.6742881 69.6428357,91.4734977 70.2080425,92.2883075 C70.3970448,92.5607107 70.329844,92.9345152 70.0574407,93.1235175 C69.9530394,93.1955183 69.833638,93.2303188 69.7160366,93.2303188 M35.6961684,92.6945123 C35.3745645,92.6945123 35.1083413,92.4395093 35.0968812,92.1161054 C35.0903411,91.9325032 35.087101,91.749501 35.087101,91.5658988 C35.087101,90.7054885 35.1587419,89.8462782 35.3049637,89.003868 C35.3556043,88.7122645 35.6091073,88.5064621 35.8954307,88.5064621 C35.9295112,88.5064621 35.9640116,88.5094621 35.998692,88.5154622 C36.3252759,88.5718629 36.5439785,88.8826666 36.4873378,89.2090705 C36.3532962,89.9812798 36.2871154,90.7726893 36.2871154,91.5658988 C36.2871154,91.7351008 36.2901155,91.9043029 36.2961156,92.0735049 C36.3078157,92.4047089 36.0488526,92.6825122 35.7177686,92.6945123 C35.7105085,92.6945123 35.7033084,92.6945123 35.6961684,92.6945123 M65.6215875,88.8574663 C65.4835858,88.8574663 65.3443841,88.8100657 65.2315828,88.7134646 C64.4701736,88.0612567 63.6841642,87.4468494 62.9107549,86.8882427 C62.6419517,86.6938403 62.581951,86.3188358 62.7763533,86.0500326 C62.8933547,85.8880307 63.0769569,85.8016296 63.2629592,85.8016296 C63.3847606,85.8016296 63.5077621,85.8388301 63.6139634,85.915631 C64.412573,86.4928379 65.2237827,87.1270455 66.0121921,87.8020536 C66.2635952,88.0174562 66.2929955,88.3966608 66.0775929,88.6480638 C65.9587915,88.7866654 65.7907895,88.8574663 65.6215875,88.8574663 M36.7427009,86.836042 C36.66308,86.836042 36.582199,86.8204418 36.5044981,86.7868414 C36.2005344,86.6548399 36.0607327,86.3014356 36.1924943,85.997832 C36.6130994,85.0264203 37.1583259,84.1144094 37.834834,83.2989996 C37.9534554,83.1555979 38.1245175,83.081797 38.2968396,83.081797 C38.4318412,83.081797 38.5676228,83.1273975 38.6796442,83.2203986 C38.9347072,83.4316012 38.9699276,83.8102057 38.7583651,84.0652088 C38.1603979,84.7858174 37.6729521,85.5988272 37.2936275,86.4742377 C37.1955263,86.7010404 36.9746637,86.836042 36.7427009,86.836042 M60.7567291,85.3474242 C60.6517278,85.3474242 60.5461266,85.3198238 60.4501254,85.2628232 C60.3487242,85.2028224 60.249123,85.1440217 60.1507218,85.087021 C60.0067201,85.0042201 59.6998764,84.8260179 59.253171,84.585415 C58.8068257,84.3454121 58.2227187,84.0424085 57.5318104,83.7142046 C57.2325868,83.5714029 57.1054453,83.2137986 57.247767,82.914395 C57.3505482,82.6983924 57.5657108,82.5717909 57.7899935,82.5717909 C57.8763945,82.5717909 57.9641756,82.5909911 58.0473966,82.6305916 C58.7591251,82.9689956 59.3609923,83.2803994 59.8222779,83.5294024 C60.2833234,83.7772053 60.6055273,83.9638076 60.751329,84.0484086 C60.8545303,84.1078093 60.9589315,84.16901 61.0639328,84.2320108 C61.3489362,84.4018128 61.4419373,84.7696172 61.2727353,85.0546207 C61.1599339,85.2430229 60.9607315,85.3474242 60.7567291,85.3474242 M55.0311604,82.586791 C54.9596995,82.586791 54.8870386,82.5741909 54.8163578,82.5465906 C53.9428673,82.2117865 53.001276,81.8901827 52.0217643,81.6153794 C51.7026804,81.5259783 51.5166182,81.1947743 51.6061393,80.8755705 C51.6804202,80.6109673 51.9212631,80.4375653 52.1834662,80.4375653 C52.2371068,80.4375653 52.2917075,80.4447653 52.3458882,80.4603655 C53.3672204,80.746569 54.3430721,81.080173 55.246203,81.4263771 C55.5555667,81.5451785 55.7101885,81.8919827 55.5914471,82.2015864 C55.499886,82.4403893 55.2723633,82.586791 55.0311604,82.586791 M40.5437465,82.3143878 C40.3434641,82.3143878 40.1476218,82.2141866 40.0339204,82.0317844 C39.8587183,81.750381 39.9446993,81.3801766 40.2259227,81.2049745 C41.1458538,80.6319676 42.1305256,80.2311628 43.1462178,79.9707596 C43.1961984,79.9581595 43.246299,79.9521594 43.2956195,79.9521594 C43.5630428,79.9521594 43.8069457,80.1321616 43.8763665,80.4033648 C43.9586875,80.7243687 43.7651852,81.0513726 43.4441813,81.1335736 C42.5341504,81.3669764 41.66732,81.7209807 40.8604303,82.2237867 C40.7617291,82.2849874 40.6520478,82.3143878 40.5437465,82.3143878 M49.2545911,80.9949719 C49.2242907,80.9949719 49.1935703,80.9925719 49.16273,80.9877719 C48.2731593,80.8509702 47.3769885,80.7729693 46.4943179,80.7729693 C46.420577,80.7729693 46.3468962,80.7735693 46.2733953,80.7747693 C46.2702752,80.7747693 46.2672752,80.7747693 46.2642152,80.7747693 C45.9370312,80.7747693 45.669368,80.5119661 45.664448,80.1837622 C45.6594079,79.8525582 45.9240111,79.579555 46.2553351,79.5747549 C46.334956,79.5735549 46.414637,79.5729549 46.4943179,79.5729549 C47.4478494,79.5729549 48.4039608,79.6569559 49.3449521,79.8015576 C49.6724361,79.8519582 49.8972588,80.1585619 49.8468582,80.4861658 C49.8012576,80.7825694 49.5457145,80.9949719 49.2545911,80.9949719" id="Fill-4" fill="#CFD6EE" mask="url(#mask-2)"></path>
                <path d="M60.1081213,204.726057 C59.7773973,204.725457 59.5088341,204.457853 59.5082329,204.12665 C59.5075741,203.795446 59.7757173,203.526042 60.1069213,203.525442 C61.0783329,203.523642 62.0731449,203.509242 63.0907571,203.481042 C63.0967572,203.480442 63.1021572,203.480442 63.1081573,203.480442 C63.4315612,203.480442 63.6985644,203.738445 63.7075645,204.063649 C63.7165646,204.394853 63.4555615,204.670856 63.1243575,204.680456 C62.0959452,204.708657 61.0915331,204.723657 60.1093213,204.726057 C60.1087213,204.726057 60.1087213,204.726057 60.1081213,204.726057 M57.1091653,204.688856 C57.1037652,204.688856 57.0983052,204.688856 57.0928451,204.688856 C56.0613127,204.661256 55.0569607,204.618055 54.0788289,204.561055 C53.747985,204.541254 53.4955619,204.257451 53.5149422,203.926847 C53.5336024,203.608243 53.7980256,203.36164 54.1133894,203.36164 C54.1251495,203.36164 54.1370896,203.36224 54.1490298,203.36284 C55.1140814,203.419241 56.1058933,203.461842 57.1250655,203.489442 C57.4562695,203.497842 57.7176326,203.773845 57.7087525,204.105049 C57.6999324,204.430853 57.4331092,204.688856 57.1091653,204.688856 M51.1266735,204.334852 C51.1078333,204.334852 51.0888131,204.333652 51.0696728,204.331852 C50.0378405,204.235251 49.0379885,204.120649 48.0689768,203.990448 L48.0690968,203.990448 C47.7405929,203.946647 47.5100701,203.644844 47.5541707,203.31604 C47.5946111,203.014836 47.8521942,202.795834 48.1480578,202.795834 C48.1746981,202.795834 48.2015784,202.797634 48.2286987,202.801234 C49.1815102,202.929035 50.165642,203.041837 51.1821742,203.137238 C51.5121181,203.168438 51.7543411,203.461242 51.7232607,203.791245 C51.6940403,204.102049 51.4326772,204.334852 51.1266735,204.334852 M45.1896623,203.532642 C45.1544419,203.532642 45.1186814,203.529642 45.082741,203.523042 C44.0568487,203.33884 43.0694768,203.135438 42.1190054,202.914635 C41.7962016,202.839634 41.5953791,202.51683 41.67038,202.194026 C41.7348208,201.916823 41.9814838,201.729621 42.2542471,201.729621 C42.2992476,201.729621 42.3450281,201.735021 42.3906887,201.745821 C43.3209399,201.961824 44.2886315,202.161026 45.2952035,202.342228 C45.6214275,202.401029 45.8382101,202.713033 45.7795894,203.038836 C45.7273287,203.32924 45.4745457,203.532642 45.1896623,203.532642 M39.3580723,202.170626 C39.3020316,202.170626 39.2450909,202.162826 39.1886303,202.146026 C38.1815182,201.850222 37.2216267,201.533418 36.3067357,201.198014 C35.9955719,201.084013 35.83573,200.739609 35.9496714,200.428205 C36.0387125,200.185202 36.2685152,200.0346 36.5130782,200.0346 C36.581659,200.0346 36.6513798,200.046601 36.7194806,200.071801 C37.6091113,200.397605 38.5441625,200.706008 39.5269143,200.994612 C39.8447981,201.088213 40.0268403,201.421217 39.9334192,201.739221 C39.8566183,202.000824 39.6174554,202.170626 39.3580723,202.170626 M33.7409849,200.103001 C33.6580639,200.103001 33.5737629,200.085601 33.4933619,200.049001 C32.5296904,199.611595 31.6249395,199.15259 30.7756293,198.675584 C30.4866058,198.513582 30.3838846,198.148178 30.5461266,197.858974 C30.6561679,197.662772 30.8599303,197.552371 31.0698728,197.552371 C31.169294,197.552371 31.2701552,197.577571 31.3630964,197.629172 C32.1819262,198.089377 33.0560167,198.532782 33.9892679,198.956387 C34.2910115,199.093189 34.4246331,199.448993 34.2876515,199.750797 C34.1872102,199.9722 33.9691676,200.103001 33.7409849,200.103001 M28.5312424,197.164766 C28.412801,197.164766 28.2931595,197.129366 28.1886383,197.056765 C27.3127478,196.445957 26.5106581,195.81655 25.7764893,195.175142 C25.5268863,194.956739 25.501386,194.578135 25.7193686,194.328532 C25.8379901,194.19293 26.0043121,194.123329 26.1714741,194.123329 C26.3115157,194.123329 26.4522174,194.17193 26.5660388,194.271531 C27.2670872,194.884139 28.0344964,195.486546 28.8749265,196.072153 C29.1467298,196.261755 29.2134506,196.63556 29.0239083,196.907963 C28.9072669,197.074765 28.7208447,197.164766 28.5312424,197.164766 M24.0373684,193.222719 C23.8730865,193.222719 23.7094045,193.155518 23.5909031,193.023516 C22.8691544,192.220707 22.2384869,191.411897 21.6876803,190.610287 C21.499878,190.337284 21.5691188,189.96348 21.8422421,189.776277 C21.9460434,189.704876 22.0644248,189.670676 22.1815462,189.670676 C22.3725285,189.670676 22.5602707,189.761277 22.6766121,189.930479 C23.1987384,190.690088 23.7971256,191.458097 24.4834138,192.221307 C24.7049965,192.46791 24.6847162,192.847114 24.4382933,193.069117 C24.3236319,193.171718 24.1802902,193.222719 24.0373684,193.222719 M20.6564479,188.291259 C20.4367852,188.291259 20.2251627,188.170058 20.1198014,187.960656 C19.6199354,186.965244 19.2326308,186.007632 18.9325672,185.114821 C18.8270859,184.800418 18.996108,184.460214 19.3102717,184.354612 C19.3736325,184.333612 19.4380733,184.323412 19.501434,184.323412 C19.752057,184.323412 19.9858798,184.481814 20.0701208,184.732617 C20.3533842,185.575627 20.7193286,186.480438 21.1921343,187.421849 C21.3408761,187.717653 21.2214147,188.078857 20.9253111,188.227659 C20.8388501,188.270859 20.746989,188.291259 20.6564479,188.291259 M18.7566451,182.615191 C18.4709217,182.615191 18.2177186,182.409989 18.166478,182.118985 C17.9378753,180.81997 17.9081749,179.876159 17.9081149,179.470554 C17.9081149,179.336152 17.9114749,179.260551 17.9118349,179.251551 L17.9123149,179.241351 L17.913215,179.231151 C17.920415,179.14175 17.9283351,179.052349 17.9367352,178.962948 C17.9661356,178.652144 18.2274987,178.419341 18.5334424,178.419341 C18.5522826,178.419341 18.5713629,178.420541 18.5905631,178.422341 C18.920507,178.453541 19.16261,178.746345 19.1314696,179.075749 C19.1239095,179.15615 19.1168294,179.235951 19.1102893,179.315752 C19.1100493,179.321752 19.1098093,179.330752 19.1095093,179.342752 C19.1088493,179.370352 19.1081893,179.412953 19.1081893,179.470554 C19.1081293,179.817358 19.1338096,180.692168 19.3483722,181.910783 C19.4057929,182.237187 19.1878103,182.548591 18.8614063,182.605591 C18.8261859,182.612191 18.7912055,182.615191 18.7566451,182.615191 M238.187858,179.15135 C238.395461,178.814146 238.599463,178.484142 238.802266,178.159538 C238.937267,178.440941 238.833466,178.782945 238.558663,178.940147 C238.434461,179.010948 238.31086,179.081149 238.187858,179.15135 M240.85969,177.52473 C240.652088,177.52473 240.451085,177.417329 240.339484,177.225327 C240.173882,176.938523 240.271683,176.571319 240.558487,176.405117 C241.406297,175.914911 242.269107,175.413905 243.152918,174.903899 C243.247119,174.849298 243.35032,174.822898 243.452321,174.822898 C243.659324,174.822898 243.860926,174.930899 243.972528,175.122901 C244.13813,175.410305 244.039728,175.776909 243.752925,175.942511 C242.870914,176.452517 242.008104,176.952923 241.159694,177.443729 C241.064893,177.49893 240.961692,177.52473 240.85969,177.52473 M19.0328884,176.66612 C18.9862678,176.66612 18.9388073,176.66012 18.8915267,176.64872 C18.5693828,176.571319 18.3713205,176.246715 18.4490814,175.925111 C18.6875243,174.937499 18.9927479,173.959488 19.3573123,172.991676 C19.4478534,172.751073 19.6762161,172.602871 19.918859,172.602871 C19.9891199,172.602871 20.0606407,172.615471 20.1303016,172.641272 C20.4404453,172.758273 20.5971072,173.104477 20.4802858,173.414681 C20.1319216,174.339292 19.8416381,175.270503 19.6155554,176.206514 C19.5491946,176.481318 19.3036116,176.66612 19.0328884,176.66612 M246.052753,174.531294 C245.84395,174.531294 245.641148,174.422093 245.530746,174.227691 C245.366344,173.939687 245.467146,173.573683 245.755149,173.409881 C246.605359,172.925075 247.47657,172.433669 248.37178,171.935663 C248.464182,171.884063 248.563783,171.859462 248.662784,171.859462 C248.873386,171.859462 249.077989,171.971064 249.18779,172.168466 C249.348592,172.457669 249.244791,172.823074 248.954987,172.984476 C248.063977,173.480082 247.196366,173.969688 246.349156,174.452093 C246.254955,174.505494 246.152954,174.531294 246.052753,174.531294 M251.292016,171.619459 C251.078413,171.619459 250.87201,171.505458 250.763409,171.303856 C250.606207,171.012252 250.714809,170.648648 251.006412,170.491446 C251.868022,170.02644 252.752433,169.556635 253.662644,169.083229 C253.751445,169.037028 253.845646,169.015428 253.939247,169.015428 C254.15585,169.015428 254.364652,169.13303 254.472054,169.338232 C254.625056,169.632236 254.510454,169.99464 254.217051,170.147642 C253.31224,170.618047 252.433229,171.084853 251.576419,171.547459 C251.485818,171.596059 251.388617,171.619459 251.292016,171.619459 M21.1230735,171.057853 C21.0328924,171.057853 20.9413313,171.037452 20.8552303,170.994252 C20.5588867,170.84605 20.4387053,170.485446 20.586847,170.189042 C21.0363124,169.290831 21.5328184,168.401621 22.0703648,167.52381 L22.0704248,167.52381 C22.1835862,167.339008 22.3807486,167.237007 22.582711,167.237007 C22.6895123,167.237007 22.7976936,167.265807 22.8954347,167.325208 C23.1780981,167.49861 23.2668392,167.867614 23.0937971,168.150218 C22.5727509,169.001628 22.0929851,169.860238 21.6602599,170.726049 C21.5550787,170.936051 21.3431561,171.057853 21.1230735,171.057853 M256.603219,168.834826 C256.389677,168.834826 256.182674,168.720225 256.074673,168.518622 C255.917471,168.227019 256.026672,167.862814 256.318876,167.706212 C257.197886,167.233407 258.056497,166.741401 258.894107,166.231995 C258.991908,166.172594 259.099309,166.144394 259.20551,166.144394 C259.408313,166.144394 259.605715,166.246995 259.718517,166.432997 C259.890719,166.715601 259.801318,167.085205 259.518114,167.257407 C258.662504,167.778213 257.785293,168.280419 256.887083,168.763425 C256.796482,168.812026 256.69928,168.834826 256.603219,168.834826 M24.2407109,165.937991 C24.1199894,165.937991 23.998068,165.901391 23.8923467,165.82579 C23.6227635,165.633188 23.5603627,165.258783 23.752965,164.98878 C24.335752,164.17337 24.9505194,163.36816 25.5923471,162.573751 C25.7109085,162.427349 25.8843706,162.351148 26.0593927,162.351148 C26.1918143,162.351148 26.3250759,162.394349 26.4360772,162.48435 C26.6938403,162.692552 26.7340408,163.069957 26.5257783,163.32796 C25.8976908,164.105569 25.2972636,164.892179 24.7294168,165.686588 C24.6122353,165.85039 24.4279131,165.937991 24.2407109,165.937991 M261.726741,165.717189 C261.535338,165.717189 261.346936,165.625988 261.231135,165.456185 C261.043933,165.182582 261.113533,164.809378 261.387137,164.622175 C262.210947,164.057569 263.011356,163.476762 263.788365,162.879755 C263.897567,162.796354 264.025968,162.755553 264.15377,162.755553 C264.333772,162.755553 264.511974,162.836554 264.630176,162.990156 C264.831778,163.252959 264.782577,163.629764 264.519774,163.831366 C263.725365,164.441573 262.906955,165.03558 262.065145,165.612187 C261.961344,165.682988 261.843142,165.717189 261.726741,165.717189 M266.481798,162.063745 C266.313196,162.063745 266.145794,161.992944 266.026992,161.854942 C265.81099,161.603539 265.83919,161.224935 266.090593,161.008332 C266.848402,160.356724 267.579811,159.690716 268.284219,159.012108 C268.400621,158.899907 268.550623,158.844106 268.700024,158.844106 C268.857826,158.844106 269.014428,158.905907 269.13263,159.027708 C269.362432,159.266511 269.355232,159.646316 269.116429,159.876719 C268.395821,160.570927 267.648212,161.251935 266.873002,161.918543 C266.759601,162.015744 266.620399,162.063745 266.481798,162.063745 M28.003536,161.265735 C27.8612743,161.265735 27.7184726,161.215335 27.6040512,161.113333 C27.3568483,160.892531 27.335548,160.513326 27.5562907,160.266123 C28.2250587,159.517314 28.914587,158.779305 29.6203754,158.053297 C29.7380369,157.932095 29.8943387,157.871494 30.0508206,157.871494 C30.2014824,157.871494 30.3522642,157.927895 30.4688456,158.040696 C30.7065085,158.271699 30.7119085,158.651504 30.4810858,158.889107 C29.7859774,159.604915 29.1079093,160.330324 28.4512014,161.065333 C28.3327,161.197934 28.168478,161.265735 28.003536,161.265735 M270.79945,157.901495 C270.653648,157.901495 270.507846,157.848694 270.392645,157.741893 C270.149042,157.51749 270.134042,157.137686 270.359044,156.894083 C271.038252,156.159074 271.68686,155.413265 272.304268,154.658456 C272.423069,154.513254 272.595271,154.438253 272.769273,154.438253 C272.902475,154.438253 273.037476,154.482654 273.148478,154.573855 C273.405281,154.783857 273.443081,155.161862 273.233079,155.418065 C272.600071,156.192074 271.935863,156.955883 271.240455,157.708893 C271.122253,157.836694 270.960852,157.901495 270.79945,157.901495 M32.1816862,156.957083 C32.0238843,156.956483 31.8662624,156.894683 31.748421,156.772281 C31.5191582,156.532878 31.5271383,156.153074 31.7664212,155.923871 C32.4937499,155.226663 33.2326588,154.540854 33.9787677,153.868246 C34.0934891,153.764445 34.2371908,153.714045 34.3804726,153.714045 C34.5443945,153.714045 34.7077765,153.780645 34.8262179,153.912047 C35.0481606,154.15805 35.0285403,154.537254 34.7824774,154.759257 C34.0447085,155.424665 33.3146798,156.102073 32.5967712,156.789681 C32.4804898,156.901283 32.330968,156.957083 32.1816862,156.957083 M274.594495,153.258639 C274.473294,153.258639 274.350892,153.222039 274.244691,153.145838 C273.975888,152.952635 273.914087,152.577631 274.107289,152.308228 C274.691696,151.494018 275.240763,150.673208 275.753109,149.848198 C275.86651,149.665196 276.062713,149.564995 276.263175,149.564995 C276.371056,149.564995 276.480918,149.593795 276.579319,149.654996 C276.860722,149.830198 276.947123,150.199802 276.772521,150.481806 C276.245715,151.329616 275.682308,152.172626 275.082301,153.008436 C274.9653,153.171638 274.781097,153.258639 274.594495,153.258639 M277.752933,148.162178 C277.659332,148.162178 277.563331,148.139978 277.47453,148.093177 C277.181066,147.938975 277.068325,147.576571 277.222527,147.283167 C277.689332,146.394557 278.112937,145.504746 278.492742,144.618535 C278.590543,144.390533 278.811946,144.254331 279.044749,144.254331 C279.123349,144.254331 279.20375,144.269931 279.280551,144.302932 C279.585355,144.433733 279.726357,144.786537 279.596155,145.090741 C279.20315,146.007552 278.765745,146.925563 278.284539,147.841174 C278.177738,148.045177 277.968936,148.162178 277.752933,148.162178 M280.105561,142.649312 C280.043701,142.649312 279.98076,142.639712 279.918359,142.619311 C279.603955,142.51611 279.432353,142.177706 279.535554,141.862702 C279.848158,140.908691 280.107361,139.96248 280.312564,139.028868 C280.374364,138.748665 280.622767,138.557263 280.898231,138.557263 C280.940771,138.557263 280.983972,138.562063 281.027772,138.571663 C281.351176,138.642464 281.555779,138.962868 281.484978,139.286271 C281.270175,140.261283 281.000172,141.245895 280.675568,142.236507 C280.592767,142.48911 280.358224,142.649312 280.105561,142.649312 M281.375777,136.798042 C281.355976,136.798042 281.335576,136.796842 281.315776,136.794442 C280.985772,136.761441 280.745169,136.467438 280.778169,136.138034 C280.85137,135.406625 280.887971,134.687216 280.887971,133.981608 C280.887971,133.727205 280.883171,133.475202 280.87357,133.224399 C280.86097,132.893195 281.119573,132.614791 281.450177,132.602191 C281.458578,132.601591 281.465778,132.601591 281.473578,132.601591 C281.794582,132.601591 282.060385,132.855394 282.072985,133.178798 C282.083185,133.444601 282.087985,133.712205 282.087985,133.981608 C282.087985,134.729217 282.048925,135.488226 281.972184,136.257435 C281.941523,136.567039 281.68058,136.798042 281.375777,136.798042 M281.120173,130.82557 C280.84111,130.82557 280.591507,130.629968 280.533366,130.346164 C280.336564,129.385553 280.056961,128.465142 279.693956,127.590331 C279.566755,127.284327 279.711957,126.933323 280.01796,126.806122 C280.093501,126.774921 280.170962,126.759921 280.247763,126.759921 C280.482966,126.759921 280.706768,126.899123 280.80217,127.130126 C281.196374,128.079337 281.497578,129.074149 281.708721,130.104961 C281.775381,130.429565 281.565979,130.746969 281.241375,130.81357 C281.200574,130.82197 281.160374,130.82557 281.120173,130.82557 M278.819746,125.337304 C278.630144,125.337304 278.443541,125.247903 278.32648,125.080501 C277.771533,124.282491 277.143326,123.576283 276.446117,122.938475 C276.201914,122.714673 276.185114,122.335468 276.408917,122.090665 C276.527118,121.961664 276.68912,121.895663 276.851722,121.895663 C276.996264,121.895663 277.141526,121.947863 277.256727,122.053465 C278.013936,122.746473 278.703344,123.521082 279.311752,124.394693 C279.500754,124.666496 279.434153,125.0403 279.16235,125.229903 C279.057349,125.302504 278.937947,125.337304 278.819746,125.337304 M274.461894,121.298656 C274.353292,121.298656 274.243431,121.269255 274.14449,121.207454 C273.34342,120.707048 272.48307,120.253443 271.569259,119.830438 C271.268595,119.691236 271.137854,119.334232 271.277055,119.033628 C271.378457,118.814626 271.595059,118.685624 271.821862,118.685624 C271.905863,118.685624 271.991664,118.703624 272.073265,118.741425 C273.023076,119.18123 273.927887,119.657636 274.780497,120.189842 L274.780497,120.189242 C275.061241,120.365044 275.147102,120.735249 274.97124,121.016052 C274.857898,121.198454 274.662296,121.298656 274.461894,121.298656 M269.052229,118.736025 C268.981428,118.736025 268.910027,118.723425 268.840426,118.697024 C267.939215,118.35682 267.001404,118.028016 266.032392,117.699212 C265.718589,117.592411 265.551187,117.251607 265.657388,116.937803 C265.742589,116.6882 265.975392,116.530998 266.225595,116.530998 C266.289795,116.530998 266.354596,116.541198 266.418797,116.562799 C267.394409,116.894003 268.34422,117.227007 269.264031,117.574411 C269.574235,117.691412 269.730837,118.037616 269.613235,118.34782 C269.522634,118.587823 269.294632,118.736025 269.052229,118.736025 M229.074949,79.2183506 C228.849946,79.2183506 228.634544,79.0917491 228.531942,78.8751465 C228.114337,77.9931359 227.661332,77.1171254 227.174126,76.247715 C227.012124,75.9585115 227.115325,75.5931071 227.404529,75.4311052 C227.49753,75.3789045 227.597731,75.3543043 227.697332,75.3543043 C227.907335,75.3543043 228.111337,75.4647056 228.221139,75.6615079 C228.720945,76.5537186 229.18715,77.4537294 229.616755,78.3615403 C229.758357,78.6609439 229.630556,79.0185482 229.331152,79.1607499 C229.248351,79.1997504 229.16075,79.2183506 229.074949,79.2183506 M226.151114,73.9850878 C225.954311,73.9850878 225.761109,73.8878867 225.646508,73.7096845 C225.116101,72.8870746 224.556295,72.0716649 223.968888,71.2634552 C223.773885,70.995852 223.833286,70.6202474 224.101489,70.4252451 C224.20829,70.3478442 224.331292,70.3106437 224.453693,70.3106437 C224.639096,70.3106437 224.822098,70.3964448 224.939699,70.5578467 C225.539706,71.3834566 226.112113,72.2174666 226.65512,73.0598767 C226.834522,73.3382801 226.754121,73.7096845 226.475718,73.8890867 C226.374916,73.9538874 226.262715,73.9850878 226.151114,73.9850878 M222.627272,69.1310296 C222.452669,69.1310296 222.279267,69.0548287 222.160466,68.9084269 C221.543059,68.1452177 220.901051,67.3898087 220.236843,66.6433997 C220.01604,66.3955967 220.03824,66.0163922 220.286043,65.7961896 C220.400045,65.6941883 220.542847,65.6443877 220.684448,65.6443877 C220.85005,65.6443877 221.014452,65.7121885 221.132654,65.8453901 C221.809462,66.6055993 222.46407,67.3754085 223.093477,68.1536178 C223.30228,68.4116209 223.262079,68.7890255 223.004676,68.997828 C222.893675,69.087229 222.759873,69.1310296 222.627272,69.1310296 M218.640224,64.6477758 C218.484222,64.6477758 218.32762,64.587175 218.210019,64.4659736 C217.52361,63.7597651 216.816802,63.0625568 216.091993,62.3749485 C215.85139,62.1463458 215.84179,61.7671412 216.069793,61.5265383 C216.187394,61.4023368 216.345796,61.3393361 216.504798,61.3393361 C216.653,61.3393361 216.801802,61.3939367 216.917603,61.503738 C217.654412,62.2021464 218.37262,62.9113549 219.070429,63.6295636 C219.301432,63.8671664 219.296032,64.246971 219.058429,64.4779737 C218.942027,64.5913751 218.790825,64.6477758 218.640224,64.6477758 M214.287771,60.5167262 C214.14737,60.5167262 214.005768,60.4675256 213.891767,60.3673244 C213.149558,59.7156566 212.391149,59.0737089 211.617739,58.4424413 C211.360936,58.2328588 211.323136,57.8549143 211.532538,57.5981712 C211.65134,57.4529094 211.823542,57.3776085 211.997544,57.3776085 C212.130746,57.3776085 212.265147,57.4218891 212.376749,57.5127902 C213.160958,58.1530578 213.930767,58.8042457 214.683776,59.4658736 C214.932779,59.6845762 214.957379,60.0637208 214.738977,60.3127238 C214.620175,60.4477254 214.454573,60.5167262 214.287771,60.5167262 M209.639516,56.7204206 C209.512914,56.7204206 209.385113,56.6805202 209.276511,56.5979592 C208.488102,55.998552 207.687092,55.4100049 206.873482,54.832738 C206.603479,54.6410357 206.539878,54.2665112 206.731881,53.996208 C206.848882,53.831326 207.033684,53.7434249 207.221487,53.7434249 C207.341488,53.7434249 207.46269,53.7793654 207.568291,53.8541863 C208.392101,54.4388933 209.20391,55.0352404 210.00312,55.6427477 C210.266523,55.8433301 210.318124,56.2198346 210.117121,56.4835978 C209.99952,56.6388197 209.820118,56.7204206 209.639516,56.7204206 M204.750057,53.249079 C204.636056,53.249079 204.520854,53.2167386 204.418853,53.1491178 C203.593243,52.6015512 202.756233,52.0655648 201.910823,51.5418785 C201.62882,51.3674564 201.541819,50.997612 201.716421,50.7159086 C201.829822,50.5325464 202.026024,50.4316852 202.227027,50.4316852 C202.335028,50.4316852 202.443629,50.4607255 202.542031,50.5216263 C203.398841,51.0517326 204.245451,51.5943191 205.081861,52.1489058 C205.358464,52.331968 205.434065,52.7043325 205.250463,52.9805158 C205.135262,53.1546979 204.944459,53.249079 204.750057,53.249079 M199.651196,50.0917211 C199.549195,50.0917211 199.445993,50.0657408 199.351792,50.0111401 C198.490782,49.5136142 197.621371,49.0288683 196.745361,48.5574427 C196.453757,48.4003608 196.344556,48.0365764 196.501758,47.7447329 C196.609759,47.5433705 196.816762,47.4289491 197.030364,47.4289491 C197.126366,47.4289491 197.223567,47.4520494 197.314168,47.50077 C198.200978,47.9778957 199.080589,48.4684616 199.951799,48.9721077 C200.239203,49.1378897 200.337004,49.5049141 200.171402,49.7917775 C200.060401,49.9841998 199.858798,50.0917211 199.651196,50.0917211 M194.362732,47.2451669 C194.272131,47.2451669 194.18093,47.2247667 194.094529,47.1816862 C193.464522,46.8667424 192.832114,46.5587587 192.197306,46.2580351 C191.868502,45.8169698 191.536698,45.3825046 191.198294,44.9501394 C191.312896,44.8163978 191.480298,44.7408569 191.6537,44.7408569 C191.738301,44.7408569 191.824102,44.7587371 191.905703,44.7964776 C192.818914,45.2192426 193.727925,45.6567079 194.631536,46.1083933 C194.927939,46.2565951 195.047941,46.6169594 194.899739,46.913423 C194.794738,47.1236055 194.582335,47.2451669 194.362732,47.2451669" id="Fill-5" fill="#CFD6EE" mask="url(#mask-2)"></path>
                <g id="Fill-6" opacity="0.140369234" mask="url(#mask-2)">
                    <use fill="#EEF2FE" xlink:href="#path-4"></use>
                    <use fill="url(#linearGradient-3)" xlink:href="#path-4"></use>
                </g>
                <path d="M149.9982,220.619647 C110.911931,220.619647 76.001112,220.310044 52.997556,219.824038 C47.6990724,219.712437 43.0329964,219.591235 39.0930491,219.462234 C36.497778,219.377633 34.2176306,219.289431 32.2792474,219.19763 C27.2919875,218.964228 24.5681948,218.711025 24.5681948,218.446421 C24.5681948,218.109817 28.9891679,217.790613 36.8798026,217.50681 C40.1112613,217.389809 43.9241271,217.278807 48.253839,217.175606 C55.6094473,216.999204 64.4581735,216.842602 74.4758937,216.711801 C74.6834962,216.968004 74.8880987,217.220607 75.0921011,217.47321 C75.6321076,217.447409 76.1847142,217.422209 76.749321,217.397009 C80.4423653,217.232607 84.6556159,217.080805 89.3146718,216.944603 L89.3146718,217.452209 L169.856638,217.452209 L169.856638,216.300196 C171.410057,216.304996 172.954475,216.309196 174.488694,216.314596 C174.375893,216.656 174.502494,217.038204 174.822898,217.266807 C176.168114,218.228019 177.984936,218.454221 179.399753,218.454221 C180.663968,218.454221 181.607179,218.273619 181.607179,218.273619 C183.490602,217.862014 185.169422,217.035204 186.220035,216.433997 C186.69224,216.440597 187.159046,216.447197 187.627052,216.454397 C187.864654,216.737601 188.236059,216.919403 188.650064,216.919403 C188.677664,216.919403 188.705264,216.918203 188.733465,216.916403 L191.897903,216.731601 L191.897903,216.521598 C197.392169,216.614599 202.552831,216.725001 207.306688,216.850402 C207.379289,217.307608 207.880295,217.635212 207.880295,217.635212 C209.500314,218.239419 211.298536,218.404421 212.778153,218.404421 C213.948167,218.404421 214.919579,218.30122 215.445785,218.231019 C215.726589,218.193218 215.985792,218.067817 216.176594,217.873414 C216.406997,217.638812 216.616399,217.393409 216.806602,217.141406 C216.833602,217.142606 216.861802,217.143206 216.888803,217.144406 C219.678236,217.243407 222.258267,217.347808 224.607295,217.45881 C224.627696,217.207406 224.650496,216.954203 224.674496,216.7004 C231.282375,216.785001 237.390449,216.881003 242.910515,216.986604 C263.115757,217.372408 275.427905,217.884815 275.427905,218.446421 C275.427905,219.646436 219.271431,220.619647 149.9982,220.619647" id="Fill-7" fill="#DADBDF" mask="url(#mask-2)"></path>
                <path d="M75.0921011,217.47321 C74.8880987,217.220607 74.6834962,216.968004 74.4758937,216.711801 C79.1763501,216.65 84.1318096,216.594199 89.3146718,216.544399 L89.3146718,216.944603 C84.6556159,217.080805 80.4423653,217.232607 76.749321,217.397009 C76.1847142,217.422209 75.6321076,217.447409 75.0921011,217.47321 M224.607295,217.45881 C222.258267,217.347808 219.678236,217.243407 216.888803,217.144406 C216.861802,217.143206 216.833602,217.142606 216.806602,217.141406 C216.938003,216.967404 217.059805,216.790401 217.173806,216.610999 C219.739437,216.6392 222.240267,216.6692 224.674496,216.7004 C224.650496,216.954203 224.627696,217.207406 224.607295,217.45881 M207.306688,216.850402 C202.552831,216.725001 197.392169,216.614599 191.897903,216.521598 L191.897903,216.397397 C197.218767,216.430397 202.373428,216.468798 207.337288,216.513198 C207.295888,216.6308 207.289887,216.744201 207.306688,216.850402 M187.627052,216.466196 C187.159046,216.458033 186.69224,216.45055 186.220035,216.443067 C186.260235,216.417217 186.299236,216.391366 186.337636,216.366196 C186.749241,216.368237 187.154846,216.370958 187.564051,216.372999 C187.583851,216.404972 187.604851,216.436264 187.627052,216.466196" id="Fill-8" fill="#CBD0DF" mask="url(#mask-2)"></path>
                <path d="M126.249915,92.7935135 L137.871454,112.169546 C138.31186,112.903955 138.073657,113.855566 137.339248,114.295972 L120.205442,124.572295 C119.471634,125.0127 118.519422,124.774497 118.079617,124.040088 L104.319052,101.097613 C103.878647,100.363804 104.116849,99.4115929 104.851258,98.9717877 L118.32982,90.8872906 L118.470822,90.9214911 L126.249915,92.7935135" id="Fill-9" fill="#FFFFFF" mask="url(#mask-2)"></path>
                <path d="M121.788861,95.2601431 C121.360456,95.2601431 120.942251,95.0417405 120.705848,94.6475358 L118.470822,90.9214911 L126.249915,92.7935135 L122.436869,95.080741 C122.233467,95.2025424 122.009664,95.2601431 121.788861,95.2601431" id="Fill-10" fill="#CCD1DE" opacity="0.100000001" mask="url(#mask-2)"></path>
                <path d="M252.789033,114.18197 C253.052437,115.01358 252.591031,115.900991 251.759421,116.164394 L232.343788,122.309068 C231.512178,122.572471 230.624767,122.111665 230.361364,121.280055 L222.133466,95.2823434 C221.870062,94.4501334 222.330868,93.5627228 223.162478,93.2993196 L238.436261,88.4656616 L238.568263,88.5328624 L245.83975,92.2253067 L252.789033,114.18197 Z" id="Fill-12" fill="#FFFFFF" mask="url(#mask-2)"></path>
                <path d="M241.130294,93.6533238 C240.584287,93.6533238 240.077881,93.3029196 239.904479,92.7551131 L238.568263,88.5328624 L245.83975,92.2253067 L241.518498,93.5927231 C241.389497,93.6335236 241.258695,93.6533238 241.130294,93.6533238" id="Fill-13" fill="#CCD1DE" opacity="0.100000001" mask="url(#mask-2)"></path>
                <polyline id="Fill-14" fill="#CDD7FB" mask="url(#mask-2)" points="244.14773 108.496902 241.559299 109.316512 237.792454 106.059073 236.586439 110.890331 234.15821 111.65834 235.960032 105.02226 231.000972 100.895411 233.502402 100.103401 237.023244 103.221039 238.065457 98.6591839 240.508086 97.8863746 238.829266 104.250651 244.14773 108.496902"></polyline>
                <path d="M170.687048,77.4951299 C170.418845,78.3255399 169.527834,78.7803454 168.698024,78.5121421 L149.320792,72.248067 C148.490382,71.9798638 148.034976,71.0894531 148.30318,70.2590431 L156.69128,44.3122717 C156.959484,43.4821618 157.850494,43.0267563 158.680304,43.2951395 L173.924087,48.2230587 L173.992488,48.3544003 L177.771333,55.581607 L170.687048,77.4951299 Z" id="Fill-15" fill="#FFFFFF" mask="url(#mask-2)"></path>
                <path d="M177.771333,55.581607 L173.458482,54.1873702 C172.782873,53.9689076 172.412069,53.2440389 172.630472,52.5683108 L173.992488,48.3544003 L177.771333,55.581607" id="Fill-16" fill="#CCD1DE" opacity="0.100000001" mask="url(#mask-2)"></path>
                <polyline id="Fill-17" fill="#CDD7FB" mask="url(#mask-2)" points="164.636576 68.7872254 162.996156 68.2568191 162.025344 65.8765905 159.844918 67.2380069 158.3059 66.7406009 161.378537 64.915979 160.048921 61.8409421 161.63354 62.3533482 162.51855 64.6045753 164.525574 63.2881595 166.073593 63.7885655 163.153358 65.5531866 164.636576 68.7872254"></polyline>
                <path d="M173.170478,57.1080253 L158.192498,52.2659072 C158.013096,52.2080665 157.915295,52.0160042 157.972896,51.836962 C158.031096,51.6579199 158.223099,51.5596987 158.401901,51.6175994 L173.379881,56.4596575 C173.559283,56.5175582 173.657084,56.7096205 173.599483,56.8886627 C173.541883,57.0677048 173.34928,57.165926 173.170478,57.1080253" id="Fill-18" fill="#CDD7FB" mask="url(#mask-2)"></path>
                <path d="M172.666472,58.7430449 L157.688492,53.9008668 C157.50909,53.8430261 157.411289,53.6509638 157.46889,53.4719217 C157.52709,53.2928795 157.719093,53.1946583 157.897895,53.252559 L172.876475,58.0946771 C173.055277,58.1525178 173.153678,58.3445801 173.095477,58.5236223 C173.037876,58.7026644 172.845874,58.8008856 172.666472,58.7430449" id="Fill-19" fill="#CDD7FB" mask="url(#mask-2)"></path>
                <path d="M172.162466,60.3781245 L157.184486,55.5358864 C157.005684,55.4779857 156.907283,55.2859234 156.964884,55.1069413 C157.023084,54.9278991 157.215087,54.829618 157.393889,54.8875187 L172.372468,59.7296368 C172.551271,59.7875375 172.649672,59.9795998 172.591471,60.1585219 C172.53387,60.3379241 172.341868,60.4357252 172.162466,60.3781245" id="Fill-20" fill="#CDD7FB" mask="url(#mask-2)"></path>
                <path d="M171.65906,62.0131442 L156.68048,57.1708461 C156.501678,57.1129454 156.403277,56.9208831 156.461478,56.7419009 C156.519078,56.5628588 156.711081,56.4646376 156.890483,56.5224783 L171.868462,61.3645364 C172.047265,61.4227371 172.145666,61.6147394 172.088065,61.7935415 C172.029864,61.9723437 171.837862,62.0707448 171.65906,62.0131442" id="Fill-21" fill="#CDD7FB" mask="url(#mask-2)"></path>
                <path d="M171.028452,63.6133634 L156.050473,58.7713053 C155.87107,58.7134046 155.773269,58.5214023 155.83087,58.3423601 C155.888471,58.163318 156.081073,58.0650968 156.259875,58.1229975 L171.237855,62.9653556 C171.417257,63.0229563 171.515658,63.2149586 171.457457,63.3937607 C171.399857,63.5731629 171.207254,63.6715641 171.028452,63.6133634" id="Fill-22" fill="#CDD7FB" mask="url(#mask-2)"></path>
                <path d="M75.1863022,147.250767 L66.3937967,168.536622 C66.0607927,169.343032 65.1373816,169.727037 64.330972,169.394033 L45.5085061,161.619139 C44.7021564,161.286135 44.3185118,160.362724 44.6515758,159.556315 L55.0620007,134.352412 C55.3950047,133.546603 56.3186558,133.162598 57.1249455,133.495602 L71.9318632,139.611475 L71.9900639,139.748277 L75.1863022,147.250767" id="Fill-23" fill="#FFFFFF" mask="url(#mask-2)"></path>
                <path d="M75.1863022,147.250767 L70.997052,145.520946 C70.3406441,145.249743 70.0280403,144.497934 70.2992436,143.841526 L71.9900639,139.748277 L75.1863022,147.250767" id="Fill-24" fill="#CCD1DE" opacity="0.100000001" mask="url(#mask-2)"></path>
                <polyline id="Fill-25" fill="#CDD7FB" mask="url(#mask-2)" points="61.0501326 159.378113 59.4566335 158.719905 58.6766841 156.270675 56.3954567 157.455689 54.9008988 156.838282 58.1076973 155.262063 57.0249243 152.091625 58.5645428 152.727633 59.2685912 155.041861 61.3735365 153.887447 62.8771545 154.509054 59.8268379 156.037872 61.0501326 159.378113"></polyline>
                <path d="M70.4792458,148.409381 L55.9301512,142.399709 C55.7562691,142.328308 55.6735281,142.129106 55.7453489,141.955103 C55.8171698,141.781101 56.0163722,141.6983 56.1903143,141.770301 L70.7396489,147.779973 C70.913651,147.851374 70.995852,148.050577 70.9244511,148.224579 C70.8524502,148.398581 70.6532478,148.481382 70.4792458,148.409381" id="Fill-26" fill="#CDD7FB" mask="url(#mask-2)"></path>
                <path d="M69.8480382,149.9994 L55.2987636,143.990328 C55.1248815,143.918327 55.0420805,143.719125 55.1139614,143.545123 C55.1857822,143.37112 55.3849846,143.288319 55.5588667,143.36032 L70.1078413,149.369992 C70.2818434,149.441993 70.3646444,149.641196 70.2926435,149.814598 C70.2212427,149.9886 70.0220403,150.071401 69.8480382,149.9994" id="Fill-27" fill="#CDD7FB" mask="url(#mask-2)"></path>
                <path d="M69.2168306,151.589419 L54.667376,145.580347 C54.4934339,145.508346 54.4106929,145.309144 54.4825138,145.135142 C54.5543947,144.96114 54.753597,144.878339 54.9274791,144.950339 L69.4766337,150.960012 C69.6506358,151.032012 69.7334368,151.231215 69.6614359,151.404617 C69.5894351,151.578619 69.3902327,151.66142 69.2168306,151.589419" id="Fill-28" fill="#CDD7FB" mask="url(#mask-2)"></path>
                <path d="M68.585023,153.180038 L54.0359284,147.170366 C53.8620463,147.098365 53.7793054,146.899163 53.8511262,146.725161 C53.9230071,146.551159 54.1221495,146.468358 54.2960916,146.540358 L68.8454261,152.550031 C69.0194282,152.622031 69.1022292,152.821234 69.0302284,152.995236 C68.9582275,153.168638 68.7590251,153.251439 68.585023,153.180038" id="Fill-29" fill="#CDD7FB" mask="url(#mask-2)"></path>
                <path d="M67.830214,154.725657 L53.2812394,148.715985 C53.1072973,148.643984 53.0245563,148.444781 53.0964372,148.270779 C53.168258,148.096777 53.3674604,148.014576 53.5413425,148.085977 L68.0906171,154.095649 C68.2646192,154.16765 68.3474202,154.366852 68.2754193,154.540854 C68.2034184,154.714857 68.0042161,154.797058 67.830214,154.725657" id="Fill-30" fill="#CDD7FB" mask="url(#mask-2)"></path>
                <path d="M139.398473,151.578619 L139.398473,144.296332 C139.398473,142.723713 140.494086,141.449297 141.845302,141.449297 L167.409809,141.449297 C168.761025,141.449297 169.856638,142.723713 169.856638,144.296332 L169.856638,217.452209 L89.3146718,217.452209 L89.3146718,159.782517 C89.3146718,156.894683 91.3264959,154.552855 93.8087257,154.552855 L136.842442,154.552855 C138.254259,154.552855 139.398473,153.221439 139.398473,151.578619" id="Fill-31" fill="#6ED583" mask="url(#mask-2)"></path>
                <path d="M159.301312,184.562215 C159.301312,185.143622 159.812518,185.609227 160.431725,185.609227 C160.456325,185.609227 160.480926,185.608027 160.506126,185.606827 L163.141958,185.448425 L163.610563,183.707204 C162.408149,183.733605 160.927931,183.944207 159.301312,184.562215" id="Fill-32" fill="#DE995F" mask="url(#mask-2)"></path>
                <g id="Fill-33" mask="url(#mask-2)">
                    <use fill="#ACBCF8" xlink:href="#path-6"></use>
                    <use fill="url(#linearGradient-5)" xlink:href="#path-6"></use>
                </g>
                <polyline id="Fill-34" fill="#FFFFFF" mask="url(#mask-2)" points="114.565375 198.500382 118.713825 198.500382 121.416257 192.019704 126.68252 198.500382 130.572967 198.500382 123.141878 189.664076 126.821122 181.367176 122.813074 181.367176 120.341044 187.53105 115.500786 181.367176 111.586339 181.367176 118.646024 189.863278 114.565375 198.500382"></polyline>
                <path d="M168.659024,154.519854 L166.002192,155.925671 L163.375961,152.087425 C159.679916,150.695408 158.624503,145.198142 158.624503,145.198142 C158.377301,143.31952 158.689904,142.333108 159.216711,141.851902 C159.579115,141.520698 160.042921,141.430097 160.495926,141.452897 C161.405537,141.498498 162.222147,142.025304 162.675752,142.814914 L164.96538,146.800762 L164.866378,144.308932 C164.844178,143.750325 165.279183,143.29732 165.772389,143.29732 C165.84499,143.29732 165.918191,143.30692 165.991992,143.32732 C166.423397,145.02054 166.446797,147.089965 166.392197,148.515582 C166.352596,149.525394 166.274595,150.211803 166.274595,150.211803 L168.108817,152.933435 L168.659024,154.519854" id="Fill-35" fill="#DE995F" mask="url(#mask-2)"></path>
                <path d="M178.533342,166.438397 L176.186714,167.610211 L175.555507,167.925215 C175.527306,167.939015 175.499706,167.952815 175.471506,167.965416 C175.340104,168.026616 175.207502,168.078817 175.071901,168.121417 C174.9657,168.156218 174.857098,168.185018 174.749097,168.207818 C174.484494,168.265419 174.216891,168.290619 173.950487,168.284019 C173.897687,168.282819 173.844886,168.280419 173.792086,168.276219 C173.608483,168.263619 173.426681,168.236019 173.247879,168.194018 C172.438469,168.003816 171.69926,167.51901 171.201854,166.785201 L162.289347,153.640844 C162.210747,153.526842 162.251547,153.37084 162.375149,153.30964 L165.472386,151.771221 L165.475986,151.770021 L167.745813,150.642008 C167.845414,150.592807 167.966616,150.622807 168.030816,150.713409 L174.281691,159.477714 C174.312892,159.521514 174.344092,159.565315 174.374092,159.609115 C174.726897,160.110721 175.058101,160.628528 175.360504,161.165534 C175.509906,161.430137 175.652108,161.70014 175.785309,161.974944 C176.157314,162.737553 176.772921,163.504362 177.543331,164.253171 C177.644132,164.350972 177.747933,164.448773 177.853534,164.545975 C177.878735,164.569975 177.953135,164.725377 178.042537,164.937779 C178.140338,165.169982 178.257339,165.469986 178.35394,165.741189 C178.437941,165.978792 178.505742,166.192994 178.530942,166.320196 C178.542943,166.383797 178.545343,166.425797 178.533342,166.438397" id="Fill-36" fill="#FFFFFF" mask="url(#mask-2)"></path>
                <path d="M166.392197,148.515582 C164.049769,147.136166 162.756153,145.569547 162.081745,144.071929 C161.970144,144.286131 161.848942,144.504534 161.715741,144.725937 C161.715741,144.725937 161.68094,144.728937 161.619739,144.728937 C161.160134,144.728937 159.211911,144.568735 159.216702,141.851902 C159.544915,141.552499 159.955319,141.449297 160.366324,141.449297 C160.409525,141.449297 160.452725,141.450497 160.495926,141.452897 C161.405537,141.498498 162.222147,142.025304 162.675752,142.814914 L164.96538,146.800762 L164.866378,144.308932 C164.866378,144.295732 164.865778,144.282531 164.865778,144.269931 C164.864578,143.729325 165.290583,143.29732 165.772389,143.29732 C165.84499,143.29732 165.918191,143.30692 165.991992,143.32732 C166.322596,144.623935 166.413197,146.140754 166.413197,147.419969 C166.413197,147.811774 166.404797,148.181378 166.392197,148.515582" id="Fill-37" fill="#C78955" mask="url(#mask-2)"></path>
                <path d="M179.307952,140.695088 L178.675544,148.830586 C178.675544,148.830586 177.235527,148.497582 175.571107,148.225779 C173.716485,147.922175 171.584059,147.693572 170.85685,148.085977 L174.938699,137.079445 C174.938699,137.079445 176.145914,140.536086 179.307952,140.695088" id="Fill-38" fill="#CC8B5B" mask="url(#mask-2)"></path>
                <path d="M175.571107,148.225779 C174.420293,148.037376 173.162078,147.877775 172.199666,147.877775 C171.611059,147.877775 171.132854,147.937175 170.85685,148.085977 L174.16589,139.16267 L174.507294,139.232871 L175.571107,148.225779" id="Fill-39" fill="#B77D52" mask="url(#mask-2)"></path>
                <path d="M162.060745,137.079445 C162.060745,137.079445 157.864294,145.586947 171.086653,149.681396 C171.086653,149.681396 175.950311,151.362616 174.065089,139.435673 C174.065089,139.435673 170.914451,128.30614 162.060745,137.079445" id="Fill-40" fill="#DE995F" mask="url(#mask-2)"></path>
                <path d="M163.267959,138.834466 C163.267959,138.834466 163.383161,141.120493 161.715741,143.885927 C161.715741,143.885927 156.541879,144.311332 161.083333,134.793418 C161.083333,134.793418 164.475174,126.764121 173.501082,133.3042 C173.501082,133.3042 175.611907,138.957467 176.424917,139.374472 L173.933087,139.791477 C173.933087,139.791477 169.707236,135.165422 169.18943,139.791477 C169.18943,139.791477 169.534434,141.599299 170.569447,142.50351 L170.166842,143.247519 L167.982216,141.758901 C167.982216,141.758901 165.050581,138.461862 163.267959,138.834466" id="Fill-41" fill="#000000" mask="url(#mask-2)"></path>
                <path d="M190.058281,209.393513 C190.058281,209.393513 192.013104,210.669728 191.897903,213.434561 L191.897903,216.731601 L188.733465,216.916403 C187.987056,216.960204 187.356448,216.412397 187.356448,215.721189 C187.356448,215.721189 184.769217,217.582411 181.607179,218.273619 C181.607179,218.273619 177.369928,219.086029 174.822898,217.266807 C174.431093,216.987204 174.329092,216.477198 174.600895,216.094393 C174.9987,215.533986 176.087713,214.839778 178.948547,214.486374 C179.209551,214.454573 179.459754,214.368172 179.681156,214.235571 C180.428165,213.787365 182.222787,212.575951 184.395413,210.164522 L190.058281,209.393513" id="Fill-42" fill="#040C2B" mask="url(#mask-2)"></path>
                <path d="M218.027016,204.103249 C218.027016,204.103249 221.073853,205.645268 222.080065,207.267087 L220.565647,210.691328 C220.264443,211.372336 219.405833,211.67834 218.688224,211.360936 C218.688224,211.360936 218.741625,215.257983 216.176594,217.873414 C215.985792,218.067817 215.726589,218.193218 215.445785,218.231019 C214.254171,218.390021 210.781329,218.717625 207.880295,217.635212 C207.880295,217.635212 205.522866,216.093193 210.294724,215.02998 C210.294724,215.02998 213.628964,214.816978 213.34156,211.62674 L213.111757,207.958295 L215.986392,204.501654 L218.027016,204.103249" id="Fill-43" fill="#040C2B" mask="url(#mask-2)"></path>
                <path d="M202.073425,167.760213 C202.073425,167.760213 201.894623,168.538422 201.385817,169.791838 C201.153614,170.363644 200.85361,171.035052 200.470206,171.777261 C199.231791,174.17429 197.129966,177.303928 193.684724,180.189362 C191.592499,181.941983 189.005268,183.604603 185.81503,184.958219 C185.247423,185.198822 184.943219,185.776029 185.086021,186.338236 C185.629028,188.475462 186.907043,193.964928 187.753653,201.340816 C187.796254,201.712821 187.882655,202.080025 188.011056,202.434629 L190.778289,210.065521 L189.97308,210.110521 L181.779981,210.563527 L176.892923,187.54005 C176.892923,187.54005 174.881099,181.425377 181.032372,176.533518 C181.032372,176.533518 188.453261,170.579047 191.844502,168.419621 C192.121105,168.243819 192.371308,168.092617 192.587911,167.972616 L197.53497,167.861614 L202.073425,167.760213" id="Fill-44" fill="#081956" mask="url(#mask-2)"></path>
                <path d="M185.05122,186.062233 C185.050621,185.596027 185.340424,185.159222 185.81503,184.958219 C185.82643,184.953419 185.83723,184.949219 185.84863,184.944419 C185.83723,184.949219 185.82643,184.953419 185.81503,184.958219 C185.340424,185.159222 185.050621,185.596027 185.05122,186.062233 M185.85523,184.971419 C185.889418,184.954419 185.921897,184.938419 185.95523,184.921419 C185.921897,184.938419 185.889418,184.954419 185.85523,184.971419 M185.927831,184.910219 C189.066469,183.565003 191.617699,181.921583 193.684724,180.189362 C191.617099,181.921583 189.066469,183.565603 185.927831,184.910219" id="Fill-45" fill="#D6D9E4" mask="url(#mask-2)"></path>
                <path d="M189.97308,210.110521 L187.356448,202.215627 L185.056621,189.13487 C183.504402,184.668416 185.574427,184.296412 185.574427,184.296412 C187.52865,183.871006 193.105117,179.777157 193.105117,179.777157 L196.231755,172.034664 L193.684724,180.189362 C191.617699,181.921583 189.066469,183.565003 185.927831,184.910219 C185.927831,184.910219 185.926031,184.911419 185.925431,184.911419 C185.902031,184.921619 185.879231,184.931219 185.85523,184.941419 C185.85343,184.942019 185.85103,184.943219 185.84863,184.944419 C185.83723,184.949219 185.82643,184.953419 185.81503,184.958219 C185.340424,185.159222 185.050621,185.596027 185.051221,186.062233 C185.051221,186.153434 185.062621,186.245835 185.086021,186.338236 C185.629028,188.475462 186.907043,193.964928 187.753653,201.340816 C187.796254,201.712821 187.882655,202.080025 188.011056,202.434629 L190.778289,210.065521 L189.97308,210.110521" id="Fill-46" fill="#07164D" mask="url(#mask-2)"></path>
                <path d="M218.774625,204.444653 C218.774625,204.444653 218.652824,204.735657 218.432021,205.209663 C217.644212,206.901683 215.597587,210.919931 213.34756,212.302948 L193.795126,204.608455 C193.795126,204.608455 185.689028,201.045613 189.828478,192.53811 L198.164378,165.84559 L206.328076,160.84753 C206.328076,160.84753 207.946295,162.367948 209.19671,164.859178 C209.20151,164.868778 209.20631,164.877779 209.211111,164.887979 C210.609127,167.687012 211.536738,171.70226 209.20211,176.160914 L197.359768,195.622147 L218.774625,204.444653" id="Fill-47" fill="#081956" mask="url(#mask-2)"></path>
                <path d="M196.808362,170.188442 C194.530734,169.932239 192.929915,169.052629 192.317908,168.664424 C193.942127,169.263231 195.520746,169.511034 197.018964,169.513434 L196.808362,170.188442" id="Fill-48" fill="#07164D" mask="url(#mask-2)"></path>
                <path d="M198.086977,170.259843 C197.639972,170.259843 197.213367,170.234043 196.808362,170.188442 L197.018964,169.513434 C197.027964,169.513434 197.037564,169.513434 197.045965,169.513434 C203.862646,169.513434 208.988508,164.458974 208.988508,164.458974 C209.058709,164.589175 209.12831,164.722977 209.19671,164.859178 C209.022108,165.03318 208.848106,165.202382 208.674704,165.366184 L208.674704,165.366784 C206.055673,167.846014 203.583643,169.16903 201.385817,169.791838 C200.199602,170.127842 199.093189,170.259843 198.086977,170.259843" id="Fill-49" fill="#07164D" mask="url(#mask-2)"></path>
                <path d="M185.594827,148.803586 L178.560343,165.379985 L178.394141,165.772389 L178.35394,165.741189 L178.035936,165.490986 L177.282327,164.899379 L173.100877,161.614939 C173.543683,160.998732 173.969688,160.320724 174.374092,159.609115 C174.477294,159.427313 174.579895,159.242511 174.680696,159.056509 C175.84711,156.903083 176.819722,154.528854 177.49953,152.698232 C177.617131,152.383829 177.723933,152.086225 177.822934,151.807822 C178.29514,150.477006 178.559143,149.601595 178.559143,149.601595 L183.583003,149.031588 L185.594827,148.803586" id="Fill-50" fill="#FFFFFF" mask="url(#mask-2)"></path>
                <path d="M176.186714,167.610211 L177.282327,164.899379 L178.035936,165.490986 L178.35394,165.741189 C178.437941,165.978792 178.505742,166.192994 178.530942,166.320196 C178.537542,166.354996 178.541142,166.383197 178.541743,166.403597 C178.541743,166.420997 178.538742,166.432397 178.533342,166.438397 L176.186714,167.610211" id="Fill-51" fill="#E5E5E5" mask="url(#mask-2)"></path>
                <path d="M178.394141,165.772389 L178.35394,165.741189 L178.035936,165.490986 L177.282327,164.899379 L179.13335,160.320124 L179.510154,156.994284 L177.822934,151.807822 C177.858934,151.70702 177.893135,151.609219 177.926735,151.513818 C178.084537,151.993224 178.261539,152.442029 178.451141,152.793034 L178.451741,152.793034 C179.370952,154.495854 180.648968,156.352876 181.754781,157.854094 L178.560343,165.379985 L178.394141,165.772389" id="Fill-52" fill="#E5E5E5" mask="url(#mask-2)"></path>
                <path d="M160.351324,193.184918 C161.146934,193.959528 162.358948,194.339332 164.18837,193.439921 C164.18837,193.439921 168.748425,191.459898 169.477434,187.805854 L173.35768,184.216611 L169.908239,180.86677 L166.718001,184.084009 C166.718001,184.084009 165.510786,183.665204 163.610563,183.707204 L163.141958,185.448425 L163.728165,185.413025 L160.413125,188.581663 C159.108109,189.828478 159.058309,191.926103 160.351324,193.184918" id="Fill-53" fill="#DE995F" mask="url(#mask-2)"></path>
                <path d="M208.988508,164.458974 C208.988508,164.458974 201.046813,172.290867 191.786901,168.456821 L184.079209,160.84753 C184.079209,160.84753 180.432965,156.463278 178.451741,152.793034 L178.451141,152.793034 C177.823534,151.63022 177.333928,149.395193 177.209127,148.538382 L177.794134,146.70356 L178.905347,140.748489 C178.905347,140.748489 188.095057,140.02908 193.775325,145.744749 C194.95974,146.937563 196.256955,148.030176 197.624971,149.041188 C201.061813,151.580419 207.103885,156.955883 208.988508,164.458974" id="Fill-54" fill="#FFFFFF" mask="url(#mask-2)"></path>
                <path d="M183.393401,156.349876 L180.678368,156.349876 C180.678368,156.349876 178.806346,151.483218 180.930371,147.614371 C181.150574,148.394381 181.370176,149.17439 181.590379,149.954999 C182.191586,152.086825 182.792794,154.218051 183.393401,156.349876" id="Fill-55" fill="#E5E5E5" mask="url(#mask-2)"></path>
                <polyline id="Fill-56" fill="#D6D9E4" mask="url(#mask-2)" points="184.481814 163.134158 184.481814 161.244735 185.407625 162.159146 184.481814 163.134158"></polyline>
                <path d="M186.373036,163.111957 L185.407625,162.159146 L184.481814,161.244735 L184.481814,160.209723 C184.118809,158.922707 183.756405,157.636292 183.393401,156.349876 L181.227975,147.119365 C181.121173,147.281967 181.022172,147.446969 180.930371,147.614371 C180.897371,147.49677 180.86437,147.379169 180.83137,147.262167 C182.319388,145.951151 183.593203,145.446545 184.661816,145.446545 C187.106245,145.446545 188.472462,148.089577 188.848066,149.759397 C189.081469,150.79501 189.273471,153.789645 188.533662,156.168074 L186.373036,163.111957" id="Fill-57" fill="#E5E5E5" mask="url(#mask-2)"></path>
                <path d="M183.393401,156.349876 L183.393401,156.349876 C182.792794,154.218051 182.191586,152.086825 181.590379,149.954999 C181.370176,149.17439 181.150574,148.394381 180.930371,147.614371 C181.022172,147.446969 181.121173,147.281967 181.227975,147.119365 L183.393401,156.349876" id="Fill-58" fill="#CECECE" mask="url(#mask-2)"></path>
                <path d="M173.213679,175.097701 L168.130418,182.159786 L172.270467,185.879831 C172.270467,185.879831 180.285363,177.330928 182.239587,173.555683 L188.161658,156.097873 C188.758065,154.339852 188.970468,152.46963 188.744265,150.627008 C188.459262,148.31098 187.455449,145.745349 184.481814,145.268343 C184.481814,145.268343 178.445141,145.00254 180.457565,153.616243 L180.744969,157.178486 L177.52533,166.6964 L173.213679,175.097701" id="Fill-59" fill="#FFFFFF" mask="url(#mask-2)"></path>
                <path d="M184.336012,185.468226 C180.770769,185.468226 179.595355,181.63778 179.595355,181.63778 C180.86017,184.509414 184.481814,185.466426 184.481814,185.466426 C184.432613,185.467626 184.384013,185.468226 184.336012,185.468226" id="Fill-60" fill="#07164D" mask="url(#mask-2)"></path>
                <path d="M182.197586,187.421249 C180.741369,187.421249 179.566555,186.875243 179.566555,186.875243 C180.00816,187.070845 180.702968,187.135646 181.433177,187.135646 C182.887595,187.135646 184.479414,186.877643 184.479414,186.877643 C183.722205,187.285647 182.925395,187.421249 182.197586,187.421249" id="Fill-61" fill="#07164D" mask="url(#mask-2)"></path>
                <path d="M192.041905,197.456369 C192.041905,197.456369 194.102329,195.595147 196.64876,195.595147 C196.67576,195.595147 196.70216,195.595147 196.729161,195.595747 L196.878563,195.661748 C196.037952,195.726549 194.233131,196.041552 192.041905,197.456369" id="Fill-62" fill="#07164D" mask="url(#mask-2)"></path>
                <path d="M193.133918,198.679784 C193.133918,198.679784 192.588511,197.268567 197.015364,195.722349 L197.072365,195.747549 C196.135754,196.208955 193.418921,197.625572 193.133918,198.679784" id="Fill-63" fill="#07164D" mask="url(#mask-2)"></path>
                <path d="M197.384768,195.626147 L197.387768,195.621147 C197.396768,195.618147 197.405768,195.616147 197.413768,195.613147 C197.413768,195.613147 197.403768,195.617147 197.384768,195.626147" id="Fill-64" fill="#D6D9E4" mask="url(#mask-2)"></path>
                <path d="M218.432021,205.209663 L197.072365,195.747549 C197.158166,195.704948 197.228967,195.670748 197.281767,195.645548 C197.351968,195.646148 197.387969,195.648548 197.387969,195.648548 C197.359168,195.644348 197.329768,195.640148 197.300968,195.636548 C197.332768,195.621547 197.356168,195.610747 197.370568,195.603547 L197.359768,195.622147 L218.774625,204.444653 C218.774625,204.444653 218.652824,204.735657 218.432021,205.209663" id="Fill-65" fill="#07164D" mask="url(#mask-2)"></path>
                <path d="M197.387969,195.672547 C197.387969,195.672547 197.351968,195.668547 197.281767,195.667547 C197.288367,195.662547 197.294968,195.657547 197.300968,195.652547 C197.329768,195.658547 197.359168,195.665547 197.387969,195.672547" id="Fill-66" fill="#061445" mask="url(#mask-2)"></path>
                <path d="M197.015364,195.745548 L196.878563,195.666641 C197.031564,195.651016 197.152166,195.646329 197.237967,195.645548 C197.162366,195.679141 197.087965,195.711954 197.015364,195.745548" id="Fill-67" fill="#07164D" mask="url(#mask-2)"></path>
                <path d="M197.274567,195.633548 C197.090965,195.610747 196.909163,195.598147 196.729161,195.595747 L207.046285,178.31434 C212.101345,170.611447 208.680704,165.375785 208.674704,165.366784 L208.674704,165.366184 L209.211111,164.887979 C209.99172,166.451597 210.626528,168.394421 210.627128,170.582647 C210.627728,172.311268 210.232923,174.19289 209.20211,176.160914 L197.372368,195.600547 C197.339968,195.611347 197.306968,195.622747 197.274567,195.633548" id="Fill-68" fill="#07164D" mask="url(#mask-2)"></path>
                <polyline id="Fill-69" fill="#061445" mask="url(#mask-2)" points="208.694704 165.386984 208.694704 165.385984 208.694704 165.386984"></polyline>
                <path d="M196.878563,195.695747 L196.729161,195.595747 C196.909163,195.599384 197.090965,195.618474 197.274567,195.65302 C197.262567,195.659384 197.250567,195.664838 197.237967,195.671202 C197.152166,195.672111 197.031564,195.677565 196.878563,195.695747" id="Fill-70" fill="#061445" mask="url(#mask-2)"></path>
                <path d="M197.072365,195.747549 L197.015364,195.722349 C197.087965,195.696548 197.162366,195.671348 197.237967,195.645548 C197.245167,195.645548 197.251767,195.645548 197.257767,195.645548 C197.266167,195.645548 197.274567,195.645548 197.281767,195.645548 C197.228967,195.670748 197.158166,195.704948 197.072365,195.747549" id="Fill-71" fill="#061445" mask="url(#mask-2)"></path>
                <path d="M197.301561,195.668547 C197.292359,195.666547 197.28377,195.664547 197.274567,195.663547 C197.307696,195.645547 197.341438,195.626547 197.374567,195.608547 L197.372727,195.613547 C197.358003,195.625547 197.334076,195.643547 197.301561,195.668547" id="Fill-72" fill="#061445" mask="url(#mask-2)"></path>
                <path d="M197.307491,195.669547 C197.296062,195.669547 197.282729,195.669547 197.269395,195.669547 C197.259872,195.669547 197.249395,195.669547 197.237967,195.669547 C197.257967,195.662547 197.277014,195.656547 197.296062,195.649547 C197.310348,195.650547 197.323681,195.652547 197.337967,195.654547 C197.328443,195.659547 197.317967,195.664547 197.307491,195.669547" id="Fill-73" fill="#05123E" mask="url(#mask-2)"></path>
                <path d="M185.711229,125.309704 L192.859114,125.309704 C195.603547,125.309704 197.828974,123.084877 197.828974,120.340444 L197.828974,117.777813 C197.828974,115.03338 195.603547,112.807954 192.859114,112.807954 L185.711229,112.807954 C182.966796,112.807954 180.741969,115.03338 180.741969,117.777813 L180.741969,120.340444 C180.741969,123.084877 182.966796,125.309704 185.711229,125.309704" id="Fill-74" fill="#FFFFFF" mask="url(#mask-2)"></path>
                <path d="M187.303048,124.301692 L191.267895,124.301692 C191.267895,124.301692 190.913291,127.49433 187.303048,129.080149 C187.303048,129.080149 189.20207,126.284115 187.303048,124.301692" id="Fill-75" fill="#FFFFFF" mask="url(#mask-2)"></path>
            </g>
        </g>
    </g>
</svg>