<?xml version="1.0" encoding="UTF-8"?>
<svg width="100%" height="100%" viewBox="0 0 300.000328 159.811438" version="1.1" xmlns="http://www.w3.org/2000/svg" xmlns:xlink="http://www.w3.org/1999/xlink">
    <title>Group</title>
    <defs>
        <linearGradient x1="91.0407349%" y1="50%" x2="7.71167851%" y2="50%" id="linearGradient-1">
            <stop stop-color="#EDFB8B" offset="0%"></stop>
            <stop stop-color="#6EDC85" offset="100%"></stop>
        </linearGradient>
        <path d="M158.935665,44.7678853 C158.15551,58.5660139 158.750354,72.7604851 159.100533,86.1833742 C159.100533,86.1833742 163.912039,87.463409 175.602496,87.463409 C187.248768,87.463409 194.87556,83.9134723 194.87556,83.9134723 C192.618847,70.118641 190.824424,53.1926376 185.298051,41.8371926 C185.298051,41.8371926 179.062745,35.1112396 172.910532,34.8349209 C171.673363,34.7795253 170.438832,35.2319229 169.259696,35.779944 C168.391831,36.1835408 164.402686,37.1588996 164.402686,37.1588996 L158.935665,44.7678853" id="path-2"></path>
        <linearGradient x1="91.0407349%" y1="50%" x2="7.71167851%" y2="50%" id="linearGradient-3">
            <stop stop-color="#EDFB8B" offset="0%"></stop>
            <stop stop-color="#6EDC85" offset="100%"></stop>
        </linearGradient>
        <path d="M71.1355672,39.9834173 C60.7469078,51.6507925 60.9043849,71.7112654 60.9043849,85.3465045 C60.9043849,85.3465045 68.531313,90.5530344 80.1775851,90.5530344 C91.8680418,90.5530344 96.6795481,87.6823536 96.6795481,87.6823536 C97.0297277,73.8677382 94.565941,67.9094104 96.8444161,45.0580529 C96.8444161,45.0580529 93.1269735,36.5284445 91.1452607,36.5284445 C89.163548,36.5284445 81.4114569,35.7641167 81.4114569,35.7641167 L71.1355672,39.9834173" id="path-4"></path>
        <linearGradient x1="91.0407349%" y1="50%" x2="7.71167851%" y2="50%" id="linearGradient-5">
            <stop stop-color="#EDFB8B" offset="0%"></stop>
            <stop stop-color="#6EDC85" offset="100%"></stop>
        </linearGradient>
        <path d="M234.286914,36.9880964 C235.097405,36.6867177 237.199801,37.4233477 241.136188,38.9315598 C242.865323,40.8024813 243.623056,44.9024175 243.996317,48.5314909 C242.975455,57.3644563 241.835228,62.1871736 242.384568,65.1679861 C242.515144,65.8742804 243.162085,66.4091121 243.059208,67.3937035 C242.845539,69.4308119 239.509931,69.7401042 233.178342,70.4589285 C226.846093,71.1777527 221.146279,68.3017962 221.488544,67.4035956 C221.83081,66.5047355 222.910366,65.7179856 223.081169,65.1231421 C223.252632,64.527639 223.769657,56.9608595 223.085126,56.0619994 C222.400594,55.1631394 220.635188,52.5793288 220.635188,50.0634439 C220.635188,46.5207613 222.585246,44.9314343 223.861983,42.9846735 C225.98878,39.7407317 227.603827,37.7069206 229.663357,37.1978084 C232.959397,36.3840202 234.286914,36.9880964 234.286914,36.9880964" id="path-6"></path>
    </defs>
    <g id="Page-1" stroke="none" stroke-width="1" fill="none" fill-rule="evenodd">
        <g id="No-Internet" transform="translate(-30.295202, -117.691543)">
            <g id="Group" transform="translate(30.295512, 117.691543)">
                <path d="M282.096641,145.98164 C280.315408,142.583382 273.077705,139.853828 269.838379,139.235243 C252.549007,135.935246 234.439911,136.396217 216.925659,136.451613 C197.851756,136.511625 179.652972,139.56432 160.736683,140.978227 C150.900001,141.7109 140.504088,140.391297 130.644325,140.049031 C114.408129,139.486502 98.1752302,138.826371 81.9462885,138.068638 C67.9536157,137.41576 53.4307276,138.879788 41.0880532,146.594289 C39.6853567,147.472046 38.2681518,148.530498 37.6297831,150.104658 C33.6201945,159.988821 83.5903517,158.747036 90.1006574,158.91652 C122.940375,159.771195 155.801855,160.213041 188.64553,159.324073 C213.065771,158.662623 238.516107,158.702851 262.734549,155.257111 C268.09012,154.494761 275.378602,154.22174 280.005456,151.069465 C282.565526,149.325821 282.93483,147.580199 282.096641,145.98164" id="Fill-9" fill="#EAF5F9"></path>
                <path d="M260.839887,11.407185 C261.263268,11.407185 261.699178,11.4157581 262.1463,11.4322449 L262.170701,10.7727731 C261.715665,10.7562863 261.271181,10.7477132 260.839887,10.7477132 L260.839887,11.407185" id="Fill-10" fill="#D1E7F0"></path>
                <path d="M264.767041,11.6149186 C265.621717,11.7019689 266.494857,11.8160575 267.373933,11.9591629 L267.480108,11.3089237 C266.587843,11.1631804 265.700853,11.0471134 264.833648,10.9587441 L264.767041,11.6149186 M269.953128,12.4629993 C270.81176,12.6595219 271.661819,12.8850613 272.489456,13.1389579 L272.683341,12.5091623 C271.838557,12.2493305 270.97333,12.0204937 270.100849,11.8200143 L269.953128,12.4629993 M274.95654,14.0167149 C275.787475,14.3576618 276.576203,14.7335608 277.306238,15.1444117 L277.630039,14.5700117 C276.872306,14.1433335 276.059177,13.7562235 275.207139,13.4067035 L274.95654,14.0167149 M279.443586,16.5972281 C280.134053,17.171628 280.717686,17.7948289 281.170743,18.4661712 L281.717445,18.096867 C281.222841,17.3655127 280.595684,16.6981273 279.866308,16.0907537 L279.443586,16.5972281 M282.149399,20.7604736 C282.226557,21.1442862 282.266126,21.5419477 282.266126,21.9541176 C282.266126,22.3115513 282.236449,22.6808555 282.17314,23.0620302 C282.162589,23.1253395 282.150718,23.1886488 282.136869,23.2512986 L282.781173,23.3924256 C282.797,23.3185647 282.811509,23.2440444 282.824039,23.1688646 C282.892624,22.7540569 282.925597,22.3491412 282.925597,21.9541176 C282.925597,21.499082 282.881413,21.0578954 282.795682,20.6312171 L282.149399,20.7604736 M280.938609,25.3451216 C280.409053,25.8832506 279.718586,26.3798329 278.883695,26.8335495 L279.198922,27.4132252 C280.076679,26.9357676 280.820563,26.4048928 281.408153,25.8080708 L280.938609,25.3451216 M276.508937,27.8794718 C275.738674,28.1577689 274.901804,28.4136439 274.006241,28.6484159 L274.173747,29.2861251 C275.084478,29.0473963 275.940472,28.7862455 276.733157,28.5000347 L276.508937,27.8794718 M271.443534,29.2327079 C270.612599,29.3975759 269.745394,29.5479354 268.847853,29.685765 L268.948093,30.3379827 C269.854207,30.1988341 270.729985,30.0464961 271.571471,29.8796497 L271.443534,29.2327079 M266.233707,30.0412203 C265.378372,30.1434385 264.501934,30.236424 263.60769,30.3201769 L263.669021,30.9763514 C264.56854,30.8925984 265.450914,30.7989534 266.312184,30.6960758 L266.233707,30.0412203 M260.974419,30.5364837 C260.106554,30.5991335 259.226159,30.6545291 258.335872,30.7026706 L258.371484,31.3608234 C259.265727,31.312682 260.150079,31.2572864 261.021241,31.1946365 L260.974419,30.5364837 M255.694028,30.8259918 C254.818909,30.8602843 253.936536,30.8886416 253.050206,30.9123826 L253.067352,31.5718544 C253.956979,31.5481134 254.841991,31.5190967 255.719748,31.4848041 L255.694028,30.8259918 M250.407043,30.9677782 C249.525988,30.9816271 248.643615,30.9902003 247.761242,30.9961355 L247.765199,31.6549479 C248.64955,31.6496721 249.534561,31.6410989 250.416935,31.62725 L250.407043,30.9677782 M245.114122,31.0000923 C244.229111,30.9981139 243.346078,30.9921787 242.468321,30.9836056 L242.461726,31.6430774 C243.341462,31.6516505 244.225813,31.6575857 245.112803,31.6595642 L245.114122,31.0000923 M239.821861,30.9486535 C238.931574,30.9341452 238.0492,30.9169989 237.17606,30.8985337 L237.161551,31.557346 C238.035352,31.5764707 238.919703,31.593617 239.811309,31.6081254 L239.821861,30.9486535 M234.529599,30.8345649 C233.632718,30.8108239 232.749685,30.785764 231.883799,30.7593851 L231.864014,31.4188569 C232.73056,31.4445763 233.614253,31.4696363 234.512453,31.4933773 L234.529599,30.8345649 M229.237338,30.6762917 C228.329246,30.6466155 227.445553,30.6162798 226.590878,30.587263 L226.567796,31.2460753 C227.423791,31.2757516 228.307483,31.3054278 229.215576,31.335104 L229.237338,30.6762917 M223.943099,30.4969154 C223.013243,30.4659202 222.128232,30.4369034 221.29466,30.4118435 L221.274876,31.0706558 C222.107129,31.0957158 222.991481,31.1247325 223.921336,31.1563872 L223.943099,30.4969154 M218.642924,30.342599 C217.83573,30.3261122 217.104376,30.3168796 216.458753,30.3168796 C216.295204,30.3168796 216.13759,30.3168796 215.985252,30.3181985 L215.990528,30.9776703 C216.140888,30.9763514 216.297182,30.9756919 216.458753,30.9756919 C217.098441,30.9756919 217.825179,30.985584 218.629734,31.0020708 L218.642924,30.342599 M213.337473,30.3439179 C212.455759,30.352491 211.573386,30.3610642 210.690353,30.3696373 L210.696948,31.0291091 C211.579981,31.020536 212.461694,31.0119628 213.344068,31.0033897 L213.337473,30.3439179 M208.043233,30.3973351 C207.16086,30.4072272 206.278487,30.4171193 205.395454,30.4283303 L205.403368,31.0871426 C206.285741,31.0765911 207.168114,31.066699 208.050487,31.0568069 L208.043233,30.3973351 M202.747675,30.4632823 C201.865301,30.4758123 200.982269,30.4896612 200.099895,30.504829 L200.111106,31.1643008 C200.99282,31.149133 201.875193,31.1352841 202.756907,31.1227541 L202.747675,30.4632823 M197.451457,30.5536299 C196.569083,30.5714357 195.686051,30.5905604 194.803018,30.611004 L194.818845,31.2704758 C195.700559,31.2493727 196.582932,31.2309075 197.464646,31.2131017 L197.451457,30.5536299 M192.155238,30.679589 C191.272206,30.7039895 190.389832,30.7303684 189.5068,30.7593851 L189.528562,31.4181975 C190.410276,31.3898402 191.29199,31.3628018 192.173704,31.3384014 L192.155238,30.679589 M186.85902,30.8523707 C185.976647,30.8860037 185.093614,30.9216152 184.211241,30.9598646 L184.240258,31.6186769 C185.121312,31.5804275 186.002367,31.5448161 186.88408,31.511183 L186.85902,30.8523707 M181.564121,31.0838453 C180.681748,31.1280299 179.800034,31.1755118 178.917661,31.2256317 L178.95591,31.8837846 C179.835646,31.8336647 180.7167,31.7868422 181.597095,31.7426576 L181.564121,31.0838453 M176.272519,31.3865428 C175.390806,31.4432574 174.509092,31.5039288 173.628038,31.5672381 L173.676179,32.225391 C174.555255,32.1614222 175.43499,32.1014103 176.314726,32.0446957 L176.272519,31.3865428 M170.985534,31.7703554 C170.10448,31.8422378 169.224085,31.9180771 168.344349,31.9972137 L168.403702,32.6540476 C169.281459,32.574911 170.159875,32.4997312 171.038292,32.4278488 L170.985534,31.7703554 M165.705143,32.249132 C164.826067,32.3368417 163.946991,32.4298272 163.068575,32.5267696 L163.141117,33.1822846 C164.016895,33.0853422 164.893993,32.9930161 165.77109,32.9053064 L165.705143,32.249132 M160.435304,32.832105 C159.557547,32.9389395 158.681109,33.0510497 157.80533,33.1671167 L157.892381,33.8213127 C158.765521,33.7045862 159.639981,33.593795 160.514441,33.4869605 L160.435304,32.832105 M155.179314,33.5331236 C154.304854,33.6597421 153.431054,33.792296 152.557913,33.9307851 L152.660791,34.5816837 C153.531294,34.4445136 154.402456,34.3126192 155.274278,34.1853412 L155.179314,33.5331236 M149.941789,34.3614201 C149.071286,34.5111202 148.200783,34.6660961 147.331599,34.8270072 L147.452283,35.475268 C148.318169,35.3150164 149.185374,35.1600405 150.053239,35.0116594 L149.941789,34.3614201 M144.728664,35.3288653 C143.862118,35.5023064 142.996891,35.6816827 142.132324,35.8676538 L142.270813,36.5126172 C143.132083,36.3273056 143.994672,36.1479293 144.85792,35.9751477 L144.728664,35.3288653 M139.538621,36.4585405 C138.705049,36.6682525 137.839822,36.9096192 136.969978,37.1905542 L137.172436,37.8177119 C138.025793,37.5420527 138.877171,37.3046428 139.699532,37.0982281 L139.538621,36.4592 L139.538621,36.4585405 M134.45805,38.1223879 C133.628435,38.4765242 132.818603,38.8748452 132.052956,39.3252644 L132.387309,39.8937291 C133.123939,39.4604562 133.90871,39.0740057 134.717223,38.7291019 L134.45805,38.1223879 M129.849661,40.8967858 C129.155237,41.5041593 128.541929,42.1820963 128.044027,42.9391699 L128.594686,43.3018794 C129.055657,42.6015204 129.627419,41.9671085 130.284253,41.3927086 L129.849661,40.8967858 M126.932817,45.4445033 C126.764652,46.106613 126.675623,46.8115884 126.675623,47.5600889 C126.675623,47.7599089 126.681559,47.9636856 126.694748,48.1701003 L127.352901,48.1285536 C127.34103,47.9353284 127.335095,47.7460599 127.335095,47.5600889 C127.335095,46.8643461 127.418189,46.2147664 127.571845,45.6060739 L126.932817,45.4445033 M127.288273,50.8422801 C127.61603,51.6870635 128.061833,52.4876622 128.590729,53.2322059 L129.128199,52.8510312 C128.62766,52.1453964 128.208895,51.3916201 127.90356,50.6035513 L127.288273,50.8422801 M130.374601,55.2706333 C130.453737,55.3451536 130.532874,55.4183549 130.613329,55.4908968 C131.205535,56.026388 131.816865,56.5216513 132.445342,56.9813031 L132.83443,56.4491094 C132.224419,56.002647 131.630894,55.5212326 131.055176,55.0015688 C130.978677,54.9323242 130.902838,54.8624202 130.826998,54.7911973 L130.374601,55.2706333 M134.696119,58.4413737 C135.474296,58.8871767 136.271598,59.288795 137.085386,59.652164 L137.35445,59.0500662 C136.559127,58.6952704 135.78161,58.3028846 135.024536,57.8689522 L134.696119,58.4413737 M139.572913,60.6341175 C140.411102,60.925604 141.26314,61.184117 142.12441,61.4169105 L142.295873,60.7798607 C141.447792,60.551024 140.611582,60.2964679 139.78922,60.0109166 L139.572913,60.6341175 M144.716134,62.0354951 C145.582021,62.2175093 146.455161,62.3797393 147.331599,62.5261421 L147.440412,61.8759029 C146.571228,61.7301596 145.70798,61.569908 144.851985,61.3898722 L144.716134,62.0354951 M149.958935,62.9238036 C150.836032,63.0444869 151.714449,63.1559377 152.590887,63.2621126 L152.670683,62.6072571 C151.796223,62.5010822 150.921104,62.3909504 150.048623,62.270267 L149.958935,62.9238036 M155.224158,63.5727238 C155.905392,63.6525199 156.583329,63.732316 157.257969,63.8154095 C157.448556,63.838491 157.649036,63.860913 157.858748,63.8833351 L157.927333,63.2271606 C157.721578,63.205398 157.525055,63.1836355 157.337765,63.160554 C156.661806,63.0774605 155.981891,62.9976644 155.300657,62.9178683 L155.223498,63.5727238 L155.224158,63.5727238 M160.521035,64.0970039 C161.335483,64.1477833 162.223792,64.1939463 163.180026,64.235493 L163.208383,63.5766807 C162.255446,63.535134 161.371095,63.4896304 160.562582,63.4388511 L160.521035,64.0970039 M165.835719,64.3350733 C166.68248,64.3627711 167.568811,64.3884905 168.490752,64.4122315 L168.507898,63.7527596 C167.586616,63.7290187 166.702265,63.7039587 165.857481,63.6762609 L165.835719,64.3350733 M171.144467,64.4735623 C172.004418,64.4920275 172.889429,64.5091738 173.797522,64.5250011 L173.809392,63.8661888 C172.901959,63.849702 172.017607,63.8325557 171.158316,63.8140905 L171.144467,64.4735623 M176.449917,64.5705047 C177.317123,64.5843536 178.201475,64.597543 179.101654,64.6107325 L179.111546,63.9512607 C178.211367,63.9380712 177.327015,63.9248818 176.460469,63.9110329 L176.449917,64.5705047 M181.75339,64.6489818 C182.624552,64.6615118 183.508904,64.6740418 184.404466,64.6865717 L184.413699,64.0270999 C183.518136,64.01457 182.634444,64.00204 181.762622,63.9901695 L181.75339,64.6489818 M187.055543,64.7241616 C187.930003,64.7366916 188.814354,64.749881 189.70662,64.7630705 L189.716512,64.1035986 C188.823587,64.0904092 187.939895,64.0772198 187.064776,64.0646898 L187.055543,64.7241616 M192.356377,64.8039577 C193.233475,64.8178066 194.117167,64.832315 195.006795,64.8481423 L195.018006,64.1886705 C194.128378,64.1735027 193.244686,64.1583348 192.366929,64.1444859 L192.356377,64.8039577 M197.656552,64.8956243 C198.535628,64.9121111 199.41932,64.9292574 200.30631,64.9477226 L200.320159,64.2889102 C199.43251,64.270445 198.548818,64.2526393 197.669082,64.2361525 L197.656552,64.8956243 M202.956068,65.0050966 C203.833825,65.0255402 204.71422,65.0466433 205.597252,65.0690654 L205.613739,64.4095936 C204.730706,64.3871715 203.849652,64.3660684 202.970576,64.3462843 L202.956068,65.0050966 M208.243053,65.1389694 C209.126745,65.1640293 210.010438,65.1897487 210.89413,65.2174465 L210.914574,64.5579747 C210.030222,64.5302769 209.145211,64.5045575 208.261518,64.480157 L208.243053,65.1389694 M213.550482,65.3038373 C214.434175,65.334173 215.317207,65.3658277 216.198262,65.3994607 L216.223322,64.7406484 C215.340948,64.7070154 214.457256,64.6753607 213.572904,64.645025 L213.550482,65.3038373 M218.845381,65.5056357 C219.730393,65.5432256 220.613425,65.5821344 221.491842,65.6236812 L221.522837,64.9648688 C220.643102,64.9233221 219.759409,64.8844133 218.873079,64.8468234 L218.845381,65.5056357 M224.137643,65.7535971 C225.024632,65.7997601 225.906346,65.8479016 226.782784,65.8986809 L226.821033,65.2398686 C225.943277,65.1897487 225.060244,65.1416073 224.171935,65.0954442 L224.137643,65.7535971 M229.426607,66.0589326 C230.314915,66.1156471 231.195969,66.1749996 232.06911,66.2369899 L232.115933,65.5788371 C231.241473,65.5168467 230.35844,65.4574943 229.468813,65.4007797 L229.426607,66.0589326 M234.710295,66.4348315 C235.600582,66.505395 236.480317,66.5785963 237.349501,66.6550951 L237.406875,65.9982611 C236.536372,65.9211029 235.653999,65.8479016 234.762393,65.7773381 L234.710295,66.4348315 M239.98541,66.9010781 C240.877016,66.9894473 241.755432,67.0811139 242.618021,67.1767373 L242.691223,66.5218818 C241.825336,66.4255989 240.944941,66.3332728 240.050038,66.2449036 L239.98541,66.9010781 M245.246676,67.4873485 C246.14092,67.5994587 247.015379,67.7168447 247.869395,67.838847 L247.962381,67.1859699 C247.105067,67.0633081 246.226651,66.9459221 245.32911,66.8331525 L245.246676,67.4873485 M250.483541,68.2404653 C251.379764,68.388187 252.247628,68.5418439 253.085817,68.7034145 L253.209798,68.0551537 C252.366333,67.8929237 251.491874,67.7379478 250.590376,67.5895666 L250.483541,68.2404653 M255.669628,69.2441814 C256.567828,69.4499366 257.421185,69.6649244 258.224421,69.8904638 L258.402479,69.2553924 C257.587372,69.0265557 256.724123,68.80893 255.81669,68.6011964 L255.669628,69.2441814 M260.73635,70.6752352 C261.551457,70.948916 262.385689,71.2436999 263.197498,71.5846468 L263.452714,70.9766138 C262.617823,70.6264343 261.768423,70.3257151 260.946062,70.0500559 L260.73635,70.6752352 M265.512244,72.7558688 C266.248874,73.2128827 266.923514,73.7391412 267.499233,74.3564068 L267.981966,73.9073065 C267.358106,73.2379426 266.635984,72.6767321 265.859786,72.1953177 L265.512244,72.7558688 M268.874891,76.4634193 C269.179567,77.182903 269.384003,77.9953723 269.461162,78.9225896 L270.118655,78.8678535 C270.036221,77.8760079 269.815298,76.9923156 269.482265,76.2062253 L268.874891,76.4634193 M269.315418,81.4411125 C269.136042,82.2746848 268.82675,83.0502237 268.399412,83.7769616 L268.967877,84.1113138 C269.428847,83.3278613 269.765838,82.4837374 269.960382,81.5796015 L269.315418,81.4411125 M266.820636,85.7659286 C266.234366,86.3403285 265.560386,86.8764791 264.809247,87.3770182 L265.174595,87.9256987 C265.955409,87.4053755 266.661704,86.844165 267.282267,86.2374509 L266.820636,85.7659286 M262.549238,88.668264 C261.794802,89.0402061 260.991565,89.3870883 260.147441,89.7108889 L260.383532,90.3261761 C261.244143,89.9964402 262.065845,89.6416444 262.840724,89.2591507 L262.549238,88.668264 M257.661233,90.562267 C256.84085,90.8135258 255.992769,91.0476383 255.122926,91.2646045 L255.282518,91.9042921 C256.162913,91.684688 257.021545,91.4479377 257.854458,91.1927221 L257.661233,90.562267 M252.549667,91.8469181 C251.698288,92.0216781 250.831743,92.1825892 249.953986,92.3316299 L250.064117,92.9818691 C250.948469,92.832169 251.822929,92.6692794 252.68222,92.4932005 L252.549667,91.8469181 M247.341818,92.7352266 C246.473953,92.8572289 245.598834,92.9686796 244.721736,93.0702383 L244.797575,93.7250938 C245.679949,93.6228757 246.559684,93.5114249 247.433484,93.3887632 L247.341818,92.7352266 M242.087806,93.346557 C241.206092,93.4303099 240.325697,93.5054897 239.450578,93.5720963 L239.500698,94.2295897 C240.379774,94.1623236 241.264126,94.0871438 242.149796,94.0033909 L242.087806,93.346557 M236.808734,93.7541106 C235.915809,93.8088467 235.032776,93.8556692 234.164252,93.8972159 L234.195247,94.5560283 C235.06641,94.5144816 235.95274,94.4669996 236.848962,94.4122634 L236.808734,93.7541106 M231.516473,94.0073477 C230.60904,94.0403213 229.724028,94.0673597 228.867375,94.0897817 L228.884521,94.7485941 C229.743153,94.726172 230.630802,94.6991337 231.540214,94.6661601 L231.516473,94.0073477 M226.216298,94.1491342 C225.280507,94.1669399 224.392858,94.1814483 223.562583,94.1939783 L223.572475,94.8534501 C224.40341,94.8409201 225.291718,94.8264117 226.228828,94.808606 L226.216298,94.1491342 M220.906231,94.2375034 C220.531651,94.2440981 220.176855,94.2520118 219.844481,94.2605849 C219.314925,94.2737743 218.786029,94.2869638 218.257133,94.3001532 L218.27296,94.959625 C218.802516,94.9464356 219.331412,94.9332462 219.860968,94.9200567 C220.192023,94.9114836 220.54484,94.9035699 220.918761,94.8969752 L220.906231,94.2375034 M215.610672,94.3614841 C214.728299,94.3812683 213.846585,94.4003929 212.964212,94.4181987 L212.977401,95.0776705 C213.860434,95.0598647 214.742807,95.0407401 215.625181,95.0209559 L215.610672,94.3614841 M210.317752,94.4696375 C209.435378,94.4861243 208.553005,94.5012921 207.671291,94.51646 L207.681843,95.1752723 C208.564875,95.1607639 209.447249,95.1455961 210.329622,95.1291093 L210.317752,94.4696375 M205.024171,94.5580067 C204.141798,94.5711961 203.260084,94.5830666 202.377711,94.5949371 L202.386284,95.2544089 C203.268657,95.2425384 204.15169,95.2300085 205.034063,95.2174785 L205.024171,94.5580067 M199.730591,94.6272512 C198.848218,94.6371433 197.965845,94.6463759 197.083471,94.6549491 L197.090066,95.3144209 C197.973099,95.3058477 198.855472,95.2966151 199.737845,95.2860636 L199.730591,94.6272512 M194.437011,94.6780306 C193.554638,94.6852848 192.672264,94.69122 191.789891,94.6971553 L191.793848,95.3566271 C192.676881,95.3506918 193.559254,95.3447566 194.442287,95.3375024 L194.437011,94.6780306 M189.142771,94.7123231 C188.260398,94.7162799 187.378025,94.7202368 186.495651,94.7228747 L186.49763,95.3823465 C187.380663,95.3797086 188.263036,95.3757517 189.146069,95.3717949 L189.142771,94.7123231 M183.848532,94.7294694 C182.966158,94.7314478 182.083785,94.7321073 181.201412,94.7327667 L181.201412,95.3922385 C182.084445,95.3922385 182.966818,95.3909196 183.849851,95.3889412 L183.848532,94.7294694 M178.554292,94.7321073 C177.671919,94.7314478 176.789545,94.7301288 175.906513,94.727491 L175.905194,95.3869628 C176.788226,95.3896006 177.6706,95.3909196 178.553632,95.3915791 L178.554292,94.7321073 M173.259393,94.7202368 C172.37702,94.7169394 171.494646,94.7129826 170.612273,94.7090257 L170.608976,95.3678381 C171.492008,95.3724544 172.374382,95.3764112 173.257414,95.3797086 L173.259393,94.7202368 M167.965153,94.6945174 C167.08278,94.6885821 166.200407,94.6826469 165.318033,94.6767116 L165.313417,95.3361834 C166.19579,95.3421187 167.078823,95.3480539 167.961196,95.3539892 L167.965153,94.6945174 M162.670913,94.6556085 C161.78854,94.6483543 160.906167,94.6404407 160.023794,94.6318675 L160.017199,95.2913393 C160.900232,95.2999125 161.782605,95.3078261 162.665638,95.3150803 L162.670913,94.6556085 M157.376674,94.6054887 C156.494301,94.5962561 155.611927,94.586364 154.729554,94.5764719 L154.72164,95.2359437 C155.604014,95.2458358 156.487046,95.2557279 157.36942,95.2649605 L157.376674,94.6054887 M152.082434,94.5441578 C151.200061,94.5329468 150.317688,94.5217357 149.435314,94.5098653 L149.426082,95.1693371 C150.309114,95.1812076 151.191488,95.1924186 152.073861,95.2036296 L152.082434,94.5441578 M146.788194,94.4729348 C145.905821,94.4604049 145.023448,94.4472154 144.141075,94.434026 L144.131183,95.0934978 C145.013556,95.1066872 145.895929,95.1198767 146.778302,95.1324066 L146.788194,94.4729348 M141.493955,94.3924793 C140.611582,94.3786304 139.729208,94.364122 138.846835,94.3489541 L138.835624,95.0084259 C139.717997,95.0235938 140.60103,95.0381022 141.483403,95.0519511 L141.493955,94.3924793 M136.199715,94.3041101 C135.317342,94.2882827 134.434969,94.2724554 133.552595,94.2566281 L133.540725,94.9160999 C134.423098,94.9319272 135.305471,94.9477545 136.188504,94.9635819 L136.199715,94.3041101 M130.906135,94.2078272 C130.023762,94.1913404 129.141388,94.1741941 128.259015,94.1570478 L128.245826,94.8165196 C129.128199,94.8336659 130.011232,94.8508122 130.893605,94.867299 L130.906135,94.2078272 M125.611895,94.105609 C124.729522,94.0878033 123.847149,94.070657 122.964775,94.0535108 L122.952245,94.7129826 C123.834619,94.7301288 124.716992,94.7472751 125.598706,94.7644214 L125.611895,94.105609 M120.318315,94.0014125 C119.435942,93.9842662 118.553569,93.9664605 117.671195,93.9486547 L117.658006,94.6081266 C118.540379,94.6259323 119.422752,94.6430786 120.305126,94.6608843 L120.318315,94.0014125 M115.024075,93.895897 C114.142362,93.8780913 113.259988,93.8602855 112.377615,93.8418203 L112.363766,94.5012921 C113.246139,94.5197573 114.128513,94.5375631 115.010886,94.5553688 L115.024075,93.895897 M109.730495,93.7864247 C108.848781,93.7679595 107.966408,93.7488348 107.084035,93.7297101 L107.069526,94.3891819 C107.9519,94.4083066 108.834273,94.4274313 109.716646,94.4458965 L109.730495,93.7864247 M104.437574,93.6710171 C103.555201,93.6505735 102.672828,93.6307893 101.790455,93.6096862 L101.775287,94.269158 C102.65766,94.2896017 103.540033,94.3100453 104.422407,94.3298295 L104.437574,93.6710171 M99.1439943,93.5457175 C98.2622805,93.5239549 97.3799072,93.5015329 96.4981934,93.4791108 L96.4810471,94.1385826 C97.3634204,94.1610047 98.2457937,94.1834267 99.128167,94.2051893 L99.1439943,93.5457175 M93.851733,93.4092068 C92.9693598,93.3854658 92.087646,93.3610654 91.2052727,93.335346 L91.1868075,93.9948178 C92.0691807,94.0198777 92.951554,94.0442782 93.8339273,94.0686786 L93.851733,93.4092068 M88.5594718,93.2581878 C87.6770985,93.2318089 86.7953847,93.2047706 85.9136709,93.1764133 L85.8925678,93.8358851 C86.7749411,93.8635829 87.6573144,93.8912807 88.5396876,93.9176596 L88.5594718,93.2581878 M83.26787,93.0906819 C82.3861562,93.0610057 81.5044424,93.03067 80.6220691,92.9996748 L80.5989876,93.6584872 C81.4813609,93.6894823 82.3637342,93.719818 83.2461074,93.7494943 L83.26787,93.0906819 M77.9769277,92.9033919 C77.0952139,92.8704183 76.2135001,92.8367853 75.3317863,92.8018333 L75.3060669,93.4606456 C76.1877807,93.4955976 77.070154,93.5292307 77.9525272,93.5622043 L77.9769277,92.9033919 M72.6873043,92.6943394 C71.8055905,92.657409 70.9238767,92.6198191 70.0428224,92.5809102 L70.0138056,93.2397226 C70.8955194,93.2786314 71.7778927,93.3162213 72.6596065,93.3531517 L72.6873043,92.6943394 M67.3983404,92.4602269 C66.5172861,92.4193396 65.6355723,92.3771334 64.754518,92.3336083 L64.7222038,92.9924206 C65.6039177,93.0359458 66.4856315,93.078152 67.3673453,93.1190392 L67.3983404,92.4602269 M62.111355,92.1997355 C61.2303006,92.1535725 60.3492463,92.10675 59.468192,92.0579491 L59.431921,92.7167614 C60.3136348,92.7649029 61.1953486,92.8123848 62.0770624,92.8585479 L62.111355,92.1997355 M56.8256884,91.9089084 C55.9446341,91.8581291 55.0642392,91.8053714 54.1838444,91.7519542 L54.1429571,92.410107 C55.0246709,92.4635242 55.9057253,92.516282 56.7874391,92.5670613 L56.8256884,91.9089084 M51.5420003,91.5857673 C51.4780315,91.5818104 51.4134033,91.5778536 51.3494345,91.5732373 C50.5692794,91.5231174 49.748237,91.4756355 48.8948805,91.4268346 L48.8572906,92.0856469 C49.7099876,92.1337883 50.5297111,92.1812703 51.3072283,92.2313902 C51.3711971,92.2360065 51.4351659,92.2399633 51.4997941,92.2439201 L51.5420003,91.5857673 M46.251058,91.2731776 C45.3904473,91.2210794 44.508074,91.1637053 43.6111924,91.0984176 L43.5630509,91.755911 C44.4638894,91.8218582 45.3482411,91.8792322 46.2108302,91.9313305 L46.2503985,91.2731776 L46.251058,91.2731776 M40.9766025,90.8821108 C40.1074186,90.8016553 39.2303211,90.7106482 38.3512452,90.6057922 L38.2734276,91.2606477 C39.1590982,91.3661632 40.0414715,91.4578297 40.9159311,91.5382853 L40.9766025,90.8821108 M35.7364395,90.2523153 C34.8652773,90.1184425 33.9980718,89.9687424 33.1407585,89.7999176 L33.0134804,90.4468595 C33.8806858,90.6176627 34.7571239,90.7693412 35.6368593,90.9038734 L35.7364395,90.2523153 M30.5734347,89.2248582 C29.7134835,89.006573 28.8706785,88.7652063 28.0509551,88.4968013 L27.8458593,89.1232995 C28.6807506,89.3969803 29.538064,89.6429633 30.4112047,89.8638864 L30.5734347,89.2248582 M25.5990389,87.5781571 C24.7819533,87.2292965 23.9991603,86.8454839 23.2585734,86.4247409 L22.9327944,86.9978219 C23.6971222,87.4324138 24.5023373,87.826778 25.339207,88.1848712 L25.5990389,87.5781571 M21.0968249,84.9870924 C20.6464056,84.6355939 20.2197274,84.2643113 19.8207469,83.8712661 C19.6103754,83.6641919 19.4105555,83.4485446 19.221287,83.2243242 L18.7181101,83.650343 C18.9199084,83.8897313 19.1335773,84.1198869 19.3577977,84.34081 C19.7765623,84.7529799 20.2217058,85.1414088 20.6912497,85.5074156 L21.0968249,84.9870924 M17.8403531,81.0764245 C17.4743462,80.3002262 17.2138549,79.4805028 17.071409,78.6442925 L16.4211698,78.7550838 C16.5741672,79.6519654 16.8531238,80.5284035 17.2435311,81.3573595 L17.8403531,81.0764245 M17.0120565,76.1046666 C17.1182315,75.27637 17.351025,74.4579655 17.724286,73.674513 L17.128783,73.3915996 C16.7245268,74.2396803 16.4726086,75.1260104 16.3585199,76.0209137 L17.0120565,76.1046666 M19.1553399,71.5800305 C19.7000636,70.9937601 20.3542596,70.447058 21.12782,69.9557515 L20.7736837,69.3991573 C19.9559386,69.918821 19.2568985,70.5017941 18.671947,71.1315897 L19.1553399,71.5800305 M23.4577339,68.9467596 C24.2148076,68.7370476 25.0773967,68.5708607 26.0112088,68.4409447 L25.9202017,67.7874082 C24.9652865,67.9212809 24.0763185,68.0914247 23.281655,68.3116882 L23.4577339,68.9467596 M28.6240361,68.1725397 C29.4780521,68.1112088 30.3610848,68.0683432 31.2553286,68.0386669 L31.233566,67.3791951 C30.3327275,67.4095308 29.4411216,67.4523965 28.5765541,67.5150463 L28.6240361,68.1725397 M33.8965132,67.9852497 C34.5394982,67.978655 35.1791858,67.9766766 35.8096409,67.9766766 C36.0549644,67.9766766 36.298969,67.977336 36.5409951,67.9779955 L36.5429735,67.3185237 C36.3002879,67.3178642 36.0556239,67.3172048 35.8096409,67.3172048 C35.1778669,67.3172048 34.5362008,67.3191832 33.8905779,67.3257779 L33.8965132,67.9852497 M39.1894339,67.9852497 C39.3015441,67.9859092 39.4123354,67.9859092 39.5224672,67.9859092 C40.3514232,67.9859092 41.1322378,67.9812929 41.8444674,67.966125 L41.8306185,67.3066532 C41.1256431,67.3218211 40.3494448,67.3264374 39.5224672,67.3264374 C39.4123354,67.3264374 39.3015441,67.3264374 39.1900934,67.3257779 L39.1894339,67.9852497 M44.5140093,67.8091707 C45.478157,67.708931 46.3598708,67.5750582 47.162448,67.4121687 L47.0312131,66.7658863 C46.2517175,66.9241596 45.3911068,67.054735 44.4454242,67.1536558 L44.5140093,67.8091707 M49.7587885,66.6893876 C50.7526126,66.3187644 51.5525519,65.8841725 52.1717959,65.3955039 L51.7635828,64.8778185 C51.2129239,65.3130699 50.4729965,65.719964 49.5286329,66.0714625 L49.7587885,66.6893876 M53.7077057,63.0293191 C53.7347441,62.8637917 53.7479335,62.6976048 53.7479335,62.5307584 C53.7479335,61.7710469 53.4709553,61.0133138 52.9743731,60.3010842 L52.4329467,60.6783021 C52.8714955,61.3074382 53.0884617,61.9339364 53.0884617,62.5307584 C53.0884617,62.6619933 53.0779101,62.7925687 53.0568071,62.9218252 L53.7077057,63.0293191 M50.9893629,58.3978486 C50.3054907,57.9236883 49.5088487,57.4864585 48.6099887,57.101327 L48.3501568,57.7073816 C49.2127459,58.0773453 49.9711385,58.4941315 50.6128045,58.9399344 L50.9893629,58.3978486 M46.0624491,56.2281863 C45.2387688,56.0079227 44.3596929,55.826568 43.431816,55.6913763 L43.3368521,56.3435939 C44.2403285,56.4754883 45.093685,56.6522267 45.8923053,56.8652361 L46.0624491,56.2281863" id="Fill-11" fill="#D1E7F0"></path>
                <path d="M40.836135,55.4447338 C40.3995647,55.4242902 39.9544212,55.4137386 39.5020235,55.4137386 L39.5020235,56.0732105 C39.9445291,56.0732105 40.379121,56.083762 40.8057993,56.1035462 L40.836135,55.4447338" id="Fill-12" fill="#D1E7F0"></path>
                <path d="M261.728855,22.4981818 L257.729818,1.36145092 C257.491089,0.0979029402 255.974304,-0.432971865 254.999604,0.405876274 L238.693504,14.4374579 C237.718805,15.2763061 238.017546,16.8550816 239.231633,17.2797814 L259.536111,24.3849307 C260.749539,24.8096305 261.967583,23.7617298 261.728855,22.4981818" id="Fill-13" fill="#F3FAFB"></path>
                <path d="M242.501954,15.1905747 L258.281796,20.7129916 L255.174364,4.28554892 L242.501954,15.1905747 Z M258.647802,22.177019 C258.533054,22.177019 258.417647,22.1578944 258.306196,22.1189855 L241.605732,16.2747464 C241.256871,16.1527441 240.997039,15.850706 240.929114,15.4879965 C240.859869,15.1246275 240.991764,14.7500475 241.27138,14.5086809 L254.683717,2.96726477 C254.963333,2.72655756 255.352422,2.65203725 255.702601,2.77403953 C256.051462,2.89604182 256.310634,3.19742043 256.379219,3.5607894 L259.668665,20.9471041 C259.73725,21.3098136 259.606015,21.6850531 259.325739,21.9264198 C259.135152,22.0906282 258.893126,22.177019 258.647802,22.177019 L258.647802,22.177019 Z" id="Fill-14" fill="#B5D9E9"></path>
                <path d="M251.39691,15.079124 L251.39691,15.079124 C251.080363,14.9689922 250.907582,14.6287047 251.003865,14.3082014 L252.659798,8.49825482 C252.820709,7.96210424 253.397088,7.66863929 253.925325,7.85329139 C254.454221,8.03860297 254.721307,8.62685182 254.512914,9.14651561 L252.184979,14.7216903 C252.060338,15.0323015 251.712797,15.1899152 251.39691,15.079124" id="Fill-15" fill="#B5D9E9"></path>
                <path d="M251.518253,16.6631753 C251.402186,16.9955491 251.038157,17.1709686 250.705783,17.0549015 C250.37341,16.938175 250.19799,16.5741466 250.314057,16.2417728 C250.430784,15.909399 250.794153,15.7339795 251.127186,15.850706 C251.45956,15.966773 251.63432,16.3308015 251.518253,16.6631753" id="Fill-16" fill="#B5D9E9"></path>
                <path d="M38.2325403,48.6343685 L25.0859698,42.0897703 C24.3005389,41.6987035 23.3858515,42.3047581 23.4399282,43.1811961 L24.3460425,57.8386165 C24.4001191,58.714395 25.3827321,59.2030636 26.1140864,58.7183519 L38.3545426,50.6048702 C39.0858968,50.1201585 39.0186307,49.0247758 38.2325403,48.6343685" id="Fill-17" fill="#F3FAFB"></path>
                <path d="M26.3264363,56.0778268 L35.8399766,49.7726168 L25.6227799,44.6861108 L26.3264363,56.0778268 Z M36.7869781,50.176873 C36.7394961,50.2395228 36.6821221,50.294259 36.614856,50.3391031 L26.5466999,57.0122983 C26.3363284,57.1514469 26.0652855,57.1685931 25.8397461,57.0558234 C25.6135473,56.9437132 25.4638472,56.7175144 25.4486793,56.4655962 L24.7034762,44.4097921 C24.6876489,44.1578738 24.8076727,43.9158477 25.0187037,43.7753802 C25.2284157,43.6355722 25.4994586,43.6197448 25.7256575,43.7318551 L36.5390167,49.1144639 C36.7652155,49.2265742 36.9149156,49.452773 36.930743,49.7046912 C36.940635,49.8761539 36.8885368,50.0436597 36.7869781,50.176873 L36.7869781,50.176873 Z" id="Fill-18" fill="#B5D9E9"></path>
                <path d="M29.9357255,51.1937786 L29.9357255,51.1937786 C29.7451381,51.3197377 29.4886036,51.2735746 29.3540714,51.0889225 L26.8764358,47.7915635 C26.6515559,47.4829307 26.7293736,47.0489982 27.0478985,46.8373078 C27.3670828,46.6262768 27.7970584,46.7238786 27.9942405,47.0516361 L30.0656414,50.6174002 C30.1836869,50.8132633 30.1263128,51.06716 29.9357255,51.1937786" id="Fill-19" fill="#B5D9E9"></path>
                <path d="M30.8471155,51.7807085 C30.9796694,51.9811879 30.9249332,52.2515713 30.7244538,52.3841252 C30.5239743,52.5173385 30.2542504,52.4619428 30.1210371,52.2621229 C29.9884832,52.0616435 30.0432194,51.79126 30.2436988,51.6587062 C30.4441783,51.5254929 30.7139022,51.580229 30.8471155,51.7807085" id="Fill-20" fill="#B5D9E9"></path>
                <path d="M48.4345692,77.0971717 L48.1048333,77.0971717 C48.1041738,77.5192336 47.7619079,77.8614995 47.3391865,77.862159 C46.9164651,77.8614995 46.5741992,77.5192336 46.5735397,77.0971717 C46.5741992,76.6744502 46.9164651,76.3321844 47.3391865,76.3315249 C47.7619079,76.3321844 48.1041738,76.6744502 48.1048333,77.0971717 L48.7643051,77.0971717 C48.7636456,76.3097623 48.1265958,75.6720531 47.3391865,75.6720531 C46.5524366,75.6720531 45.9147274,76.3097623 45.9140679,77.0971717 C45.9147274,77.8839215 46.5524366,78.5216308 47.3391865,78.5216308 C48.1265958,78.5216308 48.7636456,77.8839215 48.7643051,77.0971717 L48.4345692,77.0971717" id="Fill-21" fill="#D1E7F0"></path>
                <path d="M210.94359,56.8388572 L210.613854,56.8388572 C210.613195,57.2615786 210.270929,57.6038445 209.848208,57.604504 C209.425486,57.6038445 209.08388,57.2615786 209.08322,56.8388572 C209.08388,56.4161358 209.425486,56.0738699 209.848208,56.0732105 C210.270929,56.0738699 210.613195,56.4161358 210.613854,56.8388572 L211.273326,56.8388572 C211.273326,56.0514479 210.635617,55.4143981 209.848208,55.4137386 C209.061458,55.4143981 208.423748,56.0514479 208.423748,56.8388572 C208.423748,57.6256071 209.061458,58.2633163 209.848208,58.2639758 C210.635617,58.2633163 211.273326,57.6256071 211.273326,56.8388572 L210.94359,56.8388572" id="Fill-22" fill="#D1E7F0"></path>
                <path d="M124.721608,26.1595693 L124.391872,26.1595693 C124.391213,26.5816312 124.049607,26.9238971 123.626885,26.9245566 C123.204164,26.9238971 122.861898,26.5816312 122.861238,26.1595693 C122.861898,25.7368479 123.204164,25.394582 123.626885,25.3939225 C124.049607,25.394582 124.391213,25.7368479 124.391872,26.1595693 L125.051344,26.1595693 C125.051344,25.3721599 124.413635,24.7344507 123.626885,24.7344507 C122.839476,24.7344507 122.201767,25.3721599 122.201767,26.1595693 C122.201767,26.9463191 122.839476,27.5840284 123.626885,27.5840284 C124.413635,27.5840284 125.051344,26.9463191 125.051344,26.1595693 L124.721608,26.1595693" id="Fill-23" fill="#D1E7F0"></path>
                <path d="M123.40794,109.419863 L123.078205,109.419863 C123.077545,109.842585 122.735279,110.184191 122.312558,110.184851 C121.889836,110.184191 121.54823,109.842585 121.547571,109.419863 C121.54823,108.997142 121.889836,108.654876 122.312558,108.654217 C122.735279,108.654876 123.077545,108.997142 123.078205,109.419863 L123.737676,109.419863 C123.737676,108.632454 123.099967,107.994745 122.312558,107.994745 C121.525808,107.994745 120.888099,108.632454 120.888099,109.419863 C120.888099,110.206613 121.525808,110.844322 122.312558,110.844322 C123.099967,110.844322 123.737676,110.206613 123.737676,109.419863 L123.40794,109.419863" id="Fill-24" fill="#D1E7F0"></path>
                <path d="M147.498446,44.9545158 L147.498446,47.4314919 C147.498446,47.6135061 147.646167,47.7612278 147.828182,47.7612278 C148.010196,47.7612278 148.157917,47.6135061 148.157917,47.4314919 L148.157917,44.9545158 C148.157917,44.7718421 148.010196,44.6247799 147.828182,44.6247799 C147.646167,44.6247799 147.498446,44.7718421 147.498446,44.9545158" id="Fill-25" fill="#D1E7F0"></path>
                <path d="M149.06667,45.8626085 L146.589693,45.8626085 C146.407679,45.8626085 146.259958,46.0103301 146.259958,46.1923444 C146.259958,46.3750181 146.407679,46.5220803 146.589693,46.5220803 L149.06667,46.5220803 C149.248684,46.5220803 149.396405,46.3750181 149.396405,46.1923444 C149.396405,46.0103301 149.248684,45.8626085 149.06667,45.8626085" id="Fill-26" fill="#D1E7F0"></path>
                <path d="M191.952781,13.3084422 L191.952781,15.7854183 C191.952781,15.968092 192.100502,16.1151542 192.282517,16.1151542 C192.464531,16.1151542 192.612252,15.968092 192.612252,15.7854183 L192.612252,13.3084422 C192.612252,13.126428 192.464531,12.9787063 192.282517,12.9787063 C192.100502,12.9787063 191.952781,13.126428 191.952781,13.3084422" id="Fill-27" fill="#D1E7F0"></path>
                <path d="M193.521005,14.2171943 L191.044028,14.2171943 C190.862014,14.2171943 190.714293,14.364916 190.714293,14.5469302 C190.714293,14.7296039 190.862014,14.8766661 191.044028,14.8766661 L193.521005,14.8766661 C193.703019,14.8766661 193.850741,14.7296039 193.850741,14.5469302 C193.850741,14.364916 193.703019,14.2171943 193.521005,14.2171943" id="Fill-28" fill="#D1E7F0"></path>
                <path d="M260.728436,80.1208499 L260.728436,82.597826 C260.728436,82.7798402 260.876158,82.9275619 261.058172,82.9275619 C261.240186,82.9275619 261.387908,82.7798402 261.387908,82.597826 L261.387908,80.1208499 C261.387908,79.9388357 261.240186,79.791114 261.058172,79.791114 C260.876158,79.791114 260.728436,79.9388357 260.728436,80.1208499" id="Fill-29" fill="#D1E7F0"></path>
                <path d="M262.29666,81.029602 L259.819684,81.029602 C259.63767,81.029602 259.489948,81.1773237 259.489948,81.359338 C259.489948,81.5413522 259.63767,81.6890739 259.819684,81.6890739 L262.29666,81.6890739 C262.478674,81.6890739 262.626396,81.5413522 262.626396,81.359338 C262.626396,81.1773237 262.478674,81.029602 262.29666,81.029602" id="Fill-30" fill="#D1E7F0"></path>
                <path d="M170.062933,150.927019 C170.062933,150.927019 165.452566,152.893564 165.455861,153.877496 C165.458501,154.442004 171.795365,153.634151 172.1772,153.252316 C172.78853,152.640986 171.929898,151.012091 171.929898,151.012091 L170.062933,150.927019" id="Fill-31" fill="#283364"></path>
                <path d="M169.76749,148.177681 L170.062933,151.012091 C170.062933,151.012091 170.21593,151.470424 170.860894,151.521203 C171.505857,151.571982 171.929898,151.012091 171.929898,151.012091 L171.70238,147.464792" id="Fill-32" fill="#F0AB83"></path>
                <path d="M177.818321,83.1702475 C179.495358,89.9265362 178.872817,93.3584275 176.416284,98.4554851 C174.927856,115.593179 173.887869,132.663607 171.885713,149.373303 L169.76749,149.494646 C164.955983,133.225477 160.528949,108.904156 161.093457,86.6727023 L177.818321,83.1702475" id="Fill-33" fill="#283364"></path>
                <path d="M176.620061,85.5516002 C177.148958,86.9068148 177.331631,88.4209621 177.331631,89.8935626 C177.331631,90.0933826 177.328334,90.2932025 177.321739,90.4910441 C177.243262,93.0128643 176.210529,95.3216751 175.529295,97.7689749 C174.622521,101.037317 174.554595,104.279281 174.308612,107.597083 C173.923481,112.797678 173.528457,117.998273 173.132774,123.198208 C172.486492,131.679015 171.833615,140.159823 171.176781,148.639311 C171.156997,148.891229 171.137872,149.143148 171.118088,149.395066 L171.447164,149.420785 C171.466289,149.168867 171.486073,148.916949 171.505857,148.665031 C172.162691,140.184883 172.814909,131.704735 173.461191,123.223268 C173.857534,118.023333 174.251898,112.822738 174.637029,107.621484 C174.883012,104.291151 174.953576,101.073588 175.84716,97.8573441 C176.515865,95.4416989 177.566403,93.1078282 177.651475,90.5015956 C177.65807,90.3004567 177.661367,90.0973394 177.661367,89.8935626 C177.661367,88.3939237 177.476056,86.8402081 176.927375,85.4315764 L176.620061,85.5516002" id="Fill-34" fill="#1B5792"></path>
                <path d="M188.44571,151.586491 C188.44571,151.586491 183.835342,153.553036 183.838638,154.536968 C183.841277,155.101475 190.178142,154.293622 190.559976,153.911788 C191.171307,153.300458 190.312674,151.671563 190.312674,151.671563 L188.44571,151.586491" id="Fill-35" fill="#283364"></path>
                <path d="M188.150266,148.837153 L188.44571,151.671563 C188.44571,151.671563 188.598707,152.129895 189.24367,152.180675 C189.888634,152.231454 190.312674,151.671563 190.312674,151.671563 L190.085156,148.124264" id="Fill-36" fill="#F0AB83"></path>
                <path d="M193.149063,82.597826 C195.269264,89.228815 194.87556,92.6943394 192.761953,97.942416 C192.410454,115.141441 191.227362,133.100177 190.335096,149.906157 L188.15752,149.906157 C182.280308,133.991123 175.98433,109.419863 175.076897,87.1996203 L193.149063,82.597826" id="Fill-37" fill="#283364"></path>
                <path d="M191.946845,85.4091543 L191.975862,85.4810367 C192.108416,85.8292379 192.655778,87.4126297 192.655778,89.8678432 C192.655118,92.2386444 192.146006,95.4232337 190.2553,99.099789 L190.239473,99.1301247 L190.236835,99.1644173 C189.75674,106.803739 189.510757,149.9022 189.510757,149.904838 L189.840492,149.906816 C189.840492,149.904838 189.844449,149.233495 189.851703,148.039851 C189.905121,139.687641 190.147147,105.842229 190.565911,99.1855204 L190.401703,99.1749688 L190.548106,99.2501486 C192.463871,95.5261113 192.985513,92.2861263 192.985513,89.8678432 C192.985513,87.0057356 192.256797,85.2950657 192.250202,85.2798978 L191.946845,85.4091543" id="Fill-38" fill="#1B5792"></path>
                <path d="M185.879705,87.2556754 C186.325508,87.9454829 187.02125,88.4242594 187.759859,88.7210217 C188.497808,89.017784 189.279941,89.1450621 190.048226,89.2406855 C190.775623,89.3316926 191.510275,89.3963209 192.247565,89.3963209 C192.437492,89.3963209 192.62742,89.3917046 192.817348,89.382472 L192.801521,89.0533955 C192.616869,89.0626281 192.432217,89.066585 192.247565,89.066585 C191.5294,89.066585 190.808597,89.0032757 190.089113,88.9135875 C189.329402,88.819283 188.575626,88.6939834 187.882521,88.4150268 C187.190075,88.1373892 186.553025,87.6922457 186.156683,87.0769585 L185.879705,87.2556754" id="Fill-39" fill="#1B5792"></path>
                <path d="M186.208122,88.3655664 C187.02191,89.1035154 188.050026,89.5499778 189.098587,89.7920039 C190.147806,90.0340301 191.221426,90.0821715 192.280538,90.094042 L192.284495,89.7643061 C191.232637,89.7524356 190.182758,89.7042942 189.173107,89.4708412 C188.164115,89.2380476 187.188756,88.8100504 186.429704,88.1215619 L186.208122,88.3655664" id="Fill-40" fill="#1B5792"></path>
                <path d="M167.985597,50.5501341 C160.653589,63.3082756 152.761031,74.8628812 148.081419,88.8146667 L146.687295,88.0734204 C147.04341,75.1194157 151.241608,56.2849009 156.754792,44.5575138" id="Fill-41" fill="#F0AB83"></path>
                <path d="M164.402686,37.2268252 C164.402686,37.2268252 162.132784,37.8632154 159.46654,39.6371946 C156.95659,41.3069772 155.056652,43.790548 153.766066,46.5154856 C152.476139,49.2397636 151.765888,52.2060678 151.311512,55.1862209 C151.311512,55.1862209 154.381353,56.7208118 157.898316,57.16002 C161.415279,57.5998877 165.157782,57.16002 165.157782,57.16002" id="Fill-42" fill="#6EDC85"></path>
                <g id="Fill-43">
                    <use fill="#D9EFF5" xlink:href="#path-2"></use>
                    <use fill="url(#linearGradient-1)" xlink:href="#path-2"></use>
                </g>
                <path d="M158.706169,45.9786755 C158.398855,48.6554716 158.400174,56.8342409 158.399515,56.8388572 L158.72925,56.8388572 C158.72925,56.8375383 158.72925,56.3277666 158.734526,55.5185947 C158.748375,53.0950358 158.806409,47.9854482 159.033926,46.0162654 L158.706169,45.9786755" id="Fill-44" fill="#95B8D7"></path>
                <path d="M170.67888,92.1647835 C171.431996,92.0810306 172.163351,92.0408028 172.874921,92.0408028 C176.969581,92.0460786 180.428511,93.3478759 183.504947,95.4984135 C188.110698,98.7179549 191.764831,103.925144 194.616387,109.227298 C196.044803,111.875736 197.277356,114.541321 198.353614,116.982027 C199.431191,119.423391 200.349835,121.635919 201.170878,123.409898 C203.459245,128.357256 207.065237,132.182852 211.419729,135.083209 C217.959051,139.436382 226.167497,141.782783 234.599503,143.083921 C243.032829,144.380442 251.707521,144.617193 259.182634,144.617852 C263.626815,144.617193 267.647614,144.53344 270.916616,144.53344 C279.398742,144.530802 286.115463,145.582659 290.583384,147.055919 C292.815037,147.786614 294.480203,148.632716 295.480622,149.410893 C295.98182,149.797344 296.311556,150.162032 296.488954,150.443626 C296.66899,150.729837 296.701304,150.905916 296.702623,151.031875 C296.701304,151.128817 296.685477,151.221803 296.610956,151.372162 C296.502803,151.592426 296.227803,151.937989 295.689015,152.321142 C295.154843,152.704295 294.372709,153.117125 293.345252,153.505554 C292.493874,153.828035 292.065217,154.779653 292.387699,155.631031 C292.710181,156.482409 293.661799,156.911726 294.513177,156.589244 C296.14471,155.967362 297.426064,155.25843 298.388892,154.368143 C298.868328,153.92234 299.268628,153.423779 299.554179,152.859271 C299.84039,152.297401 300.00196,151.665627 300,151.031875 C300,150.179178 299.71509,149.366049 299.269947,148.671625 C298.87888,148.059635 298.368449,147.51755 297.763713,147.015032 C296.701964,146.139254 295.341473,145.376245 293.680923,144.686437 C291.190758,143.656342 288.020677,142.802326 284.207611,142.195612 C280.395864,141.589558 275.943769,141.236081 270.916616,141.236081 C267.593537,141.236081 263.586587,141.320493 259.182634,141.320493 C249.315617,141.323131 237.448422,140.889199 227.123731,138.207127 C221.961386,136.869058 217.194724,134.972417 213.249104,132.339806 C209.300187,129.702578 206.172312,126.357078 204.162901,122.024348 C203.125552,119.786101 201.835625,116.594917 200.217281,113.091802 C197.782511,107.833174 194.610452,101.84583 190.224305,97.0765295 C188.029583,94.6938579 185.521612,92.6132243 182.635763,91.1221586 C179.752552,89.6304334 176.486188,88.7414654 172.874921,88.7434405 C172.03937,88.7434405 171.186673,88.7909257 170.315511,88.8872086 C169.410715,88.9874483 168.758498,89.8025555 168.858737,90.7073508 C168.958977,91.6128056 169.774084,92.2650232 170.67888,92.1647835" id="Fill-45" fill="#E7F9FF"></path>
                <path d="M177.228094,91.6438008 C177.228094,101.690854 169.623725,107.754038 163.12463,107.754038 L152.464268,107.754038 L152.464268,75.5329045 L163.12463,75.5329045 C169.623725,75.5329045 177.228094,81.5960883 177.228094,91.6438008" id="Fill-46" fill="#EFA73A"></path>
                <path d="M171.734694,91.6438008 C171.734694,101.461358 165.92145,109.419863 158.750354,109.419863 L146.988014,109.419863 L146.988014,73.8677382 L158.750354,73.8677382 C165.92145,73.8677382 171.734694,81.826244 171.734694,91.6438008" id="Fill-47" fill="#E17C2C"></path>
                <path d="M171.734035,91.509928 C171.724802,89.7141863 171.520366,87.9817538 171.149083,86.3502206 C172.200941,84.8690469 173.265328,83.3964464 174.340267,81.9317595 C175.375638,83.4445878 176.193383,85.2007612 176.689965,87.1811551 C175.198899,88.6194631 173.542966,90.3149651 171.734035,91.509928" id="Fill-48" fill="#EA8A2F"></path>
                <path d="M167.959877,92.9390034 C167.895909,92.9390034 167.832599,92.9271329 167.769949,92.8987756 C167.394051,92.7266535 167.81875,92.2643638 167.81941,91.9972777 C167.570789,92.2393038 167.250945,92.4074691 166.909998,92.4734163 C168.296867,90.4145453 169.711434,88.3741396 171.149083,86.3502206 C171.520366,87.9817538 171.724802,89.7141863 171.734035,91.509928 C171.093687,91.9326494 170.434216,92.292721 169.755619,92.5565098 C169.774084,92.4081286 169.799804,92.2102871 169.920487,91.9346279 C169.650763,92.2010545 169.306519,92.6633442 168.937874,92.749735 C168.889073,92.7345672 168.840272,92.7286319 168.792131,92.7286319 C168.652323,92.7286319 168.511855,92.7807302 168.372707,92.8334879 C168.233558,92.8862457 168.095729,92.9390034 167.959877,92.9390034" id="Fill-49" fill="#DE682B"></path>
                <path d="M160.812522,91.6438008 C160.812522,101.461358 154.999278,109.419863 147.828182,109.419863 C140.657085,109.419863 134.843841,101.461358 134.843841,91.6438008 C134.843841,81.826244 140.657085,73.8677382 147.828182,73.8677382 C154.999278,73.8677382 160.812522,81.826244 160.812522,91.6438008" id="Fill-50" fill="#F7C348"></path>
                <path d="M148.913013,97.9430755 C148.913013,99.4018271 147.916551,100.58492 146.687295,100.58492 C145.45804,100.58492 144.461578,99.4018271 144.461578,97.9430755 C144.461578,96.4843238 145.45804,95.3012314 146.687295,95.3012314 C147.916551,95.3012314 148.913013,96.4843238 148.913013,97.9430755" id="Fill-51" fill="#E17C2C"></path>
                <path d="M148.913013,85.3445261 C148.913013,86.8032777 147.916551,87.9863701 146.687295,87.9863701 C145.45804,87.9863701 144.461578,86.8032777 144.461578,85.3445261 C144.461578,83.8857744 145.45804,82.702682 146.687295,82.702682 C147.916551,82.702682 148.913013,83.8857744 148.913013,85.3445261" id="Fill-52" fill="#E17C2C"></path>
                <path d="M188.851285,54.9514489 C188.851285,54.9514489 189.675624,63.347844 185.921251,70.3303315 C182.710283,76.3011892 176.332531,84.0295393 171.179419,88.2877488 L169.94159,87.9863701 C171.734694,81.1041224 177.3956,68.8841098 177.747758,64.3027591 C178.099916,59.720749 178.015503,54.4126604 178.099916,51.8598451" id="Fill-53" fill="#F0AB83"></path>
                <path d="M172.910532,34.8349209 C172.910532,34.8349209 179.821137,35.3077622 183.830066,38.6948094 C189.553622,43.5313756 190.401703,52.9967745 190.401703,55.194794 C188.671908,57.0643966 184.889838,57.16002 182.133905,57.16002 C179.378632,57.16002 177.364605,55.8410764 177.364605,55.8410764 L176.802075,45.3996593" id="Fill-54" fill="#A8EA88"></path>
                <path d="M170.444108,86.9635294 C169.658017,87.0420065 168.896327,87.4231812 168.234218,87.9402071 C167.628823,88.4137079 166.884279,89.205074 166.962097,89.5671241 C167.043871,89.9482988 168.036376,89.2156256 168.157059,89.3633473 C168.277743,89.511069 166.45826,92.2584285 166.801185,92.4641837 C167.143451,92.6705984 168.691232,90.1810923 168.691232,90.1810923 C168.691232,90.1810923 167.188295,92.8400826 167.769949,92.8987756 C168.25598,92.9475765 169.590092,90.4303727 169.590092,90.4303727 C169.590092,90.4303727 168.461735,92.6804905 168.848186,92.7655623 C169.233977,92.8499747 170.280559,90.6090895 170.280559,90.6090895 C170.280559,90.6090895 169.429181,92.5241956 169.755619,92.5565098 C169.920487,92.5729966 170.760654,91.6207193 171.111493,90.4666436 C171.457056,89.3316926 171.860653,88.3464417 171.549382,87.4607711" id="Fill-55" fill="#F0AB83"></path>
                <polygon id="Fill-56" fill="#95B8D7" points="177.488585 56.0099012 177.818321 56.0099012 177.818321 46.4970203 177.488585 46.4970203"></polygon>
                <path d="M158.588783,26.0593296 C158.552512,26.4714994 158.536025,26.8856477 158.539323,27.2991366 C158.545917,28.1960182 158.661325,29.1357655 159.177691,29.8684387 C159.532487,30.3722752 160.066659,30.7468552 160.660843,30.9090852 C161.081586,31.0238333 161.632245,30.9750324 161.8136,30.5786899 C161.877569,30.4382224 161.880866,30.2792897 161.880207,30.1249733 C161.874931,28.5910418 161.57619,27.0590888 161.004428,25.6359487" id="Fill-57" fill="#283364"></path>
                <path d="M169.016351,26.9238971 C168.424146,24.6131079 166.559159,21.3764203 163.524929,22.026 C161.619715,22.434213 159.864861,23.7320536 159.30431,25.5495579 C158.634946,27.7198796 159.720437,30.2443377 161.020915,32.0150195 C161.50101,32.6692155 162.068816,33.2910974 162.810062,33.67491 C164.566895,34.5830027 166.937696,33.838459 168.130021,32.3256307 C169.322346,30.8128024 169.484576,28.7532719 169.016351,26.9238971" id="Fill-58" fill="#F0AB83"></path>
                <path d="M164.76078,32.9666373 L165.752625,36.5897754 L164.402686,37.2268252 C164.402686,37.2268252 165.432781,38.5952292 167.468571,38.3017642 C171.608735,37.7042827 172.910532,34.8349209 172.910532,34.8349209 L170.573364,34.5909163 L167.985597,30.1803689" id="Fill-59" fill="#F0AB83"></path>
                <path d="M171.036313,24.4027364 C170.746146,22.8140688 169.614492,21.4661084 168.234877,20.6285792 C165.78428,19.1401514 162.296333,19.020787 160.114801,21.0710848 C158.872356,22.2383499 156.636746,26.377195 159.308267,27.1982374 C160.142499,27.4541124 161.001131,26.9469786 161.727209,26.4616074 C162.465158,25.9683225 163.203767,25.4743781 163.942375,24.9804337 C164.207483,24.8036952 164.490396,24.6203621 164.808262,24.6078321 C165.330563,24.586729 165.763836,25.0397862 165.951126,25.5271358 C166.137757,26.015145 166.151606,26.5506361 166.272948,27.0584294 C166.35868,27.4178415 166.516953,27.7864862 166.827564,27.9856467 C167.138835,28.1848072 167.630141,28.1261142 167.787755,27.7924215 C167.896568,27.5602874 167.81941,27.288585 167.814794,27.0320505 C167.810177,26.775516 167.954602,26.4616074 168.211136,26.4728184 C168.302143,26.4767752 168.385896,26.5242572 168.458438,26.5803123 C169.103401,27.0821703 168.893689,28.0885243 169.108018,28.8772526 C169.136375,28.9807897 168.920068,30.5767114 168.991951,30.657167 C171.050822,30.1803689 171.244706,25.5409847 171.036313,24.4027364" id="Fill-60" fill="#283364"></path>
                <path d="M167.990873,26.6752762 C167.94471,26.3837897 168.223007,26.1140657 168.517131,26.0824111 C168.811255,26.0507564 169.096807,26.1997971 169.323665,26.3890655 C169.710116,26.7115472 169.989732,27.1857074 169.998305,27.6888844 C170.00424,28.0832485 169.847286,28.4657422 169.630979,28.7961376 C169.483917,29.0210175 169.294648,29.2373242 169.038773,29.3177798 C168.711016,29.4213168 168.34369,29.2716167 168.108918,29.0216769" id="Fill-61" fill="#F0AB83"></path>
                <path d="M94.55473,150.826779 C94.55473,150.826779 99.0022078,151.568025 99.1248696,152.544703 C99.1947736,153.104595 92.8915421,153.77198 92.4635449,153.442244 C91.7790131,152.914667 92.6185208,150.940868 92.6185208,150.940868 L94.55473,150.826779" id="Fill-62" fill="#283364"></path>
                <path d="M94.2012531,148.099863 L94.565941,150.910532 C94.565941,150.910532 94.4729555,151.384692 93.8398625,151.517906 C93.2067696,151.651778 92.7141442,151.15058 92.7141442,151.15058 L92.191183,147.64153" id="Fill-63" fill="#F0AB83"></path>
                <path d="M77.5772878,84.0381124 C76.7826243,90.9539933 76.7390991,94.2777312 79.8300435,99.0166956 C81.2947304,105.709015 83.5435292,112.558949 85.2436475,119.410202 C84.5116338,127.591609 89.6410055,140.624091 92.4002356,149.931876 L94.3944783,149.590929 C97.0758907,132.839026 98.0664174,107.147983 95.6600047,84.6593349" id="Fill-64" fill="#283364"></path>
                <path d="M78.7175145,93.4580077 C78.7175145,93.4593267 78.8368789,93.8378635 79.0459315,94.5045895 C79.7779452,96.8378007 81.6086389,102.689954 83.2559995,108.102239 C84.0796798,110.808051 84.8571971,113.404392 85.4289591,115.395337 C85.7145104,116.39048 85.9492824,117.234604 86.1115124,117.8644 C86.1926275,118.178968 86.2559368,118.440119 86.298143,118.63796 C86.3410086,118.833823 86.3621117,118.976269 86.3607928,119.018475 C86.3607928,120.34863 86.5698453,124.878542 86.9101328,127.830338 C87.2240414,130.547362 88.600359,135.859407 89.8981996,140.505386 C91.1966995,145.150046 92.4167224,149.119407 92.4173819,149.120726 L92.7326094,149.023783 C92.7312904,149.021145 92.4279334,148.032597 91.9603679,146.460416 C90.5596498,141.74849 87.6982016,131.799039 87.2372308,127.792088 C86.8995812,124.864034 86.6905287,120.325549 86.6905287,119.018475 C86.6892097,118.902408 86.6568956,118.733584 86.6008405,118.477049 C86.1761407,116.583706 84.2867539,110.314107 82.4995853,104.50416 C80.7130762,98.6968518 79.0320826,93.359087 79.0320826,93.359087 L78.7175145,93.4580077" id="Fill-65" fill="#1B5792"></path>
                <polyline id="Fill-66" fill="#1B5792" points="92.3375858 150.305796 92.0282935 149.092368 94.6002335 148.996745 94.6345261 150.117188 92.3375858 150.305796"></polyline>
                <path d="M59.9707095,150.964609 C59.9707095,150.964609 63.4500827,153.478515 63.1421094,154.363526 C62.9647115,154.87066 57.3051244,152.77354 57.0795851,152.31125 C56.718854,151.571982 58.2705912,150.242487 58.2705912,150.242487 L59.9707095,150.964609" id="Fill-67" fill="#283364"></path>
                <path d="M60.8227471,148.488952 L59.9443306,151.041108 C59.9443306,151.041108 59.6647146,151.406455 59.0678926,151.252138 C58.4717301,151.098482 58.263337,150.462751 58.263337,150.462751 L59.3013456,147.247826" id="Fill-68" fill="#F0AB83"></path>
                <path d="M62.6310187,82.597826 C60.5108169,89.228815 60.9045216,92.6943394 63.0187882,97.942416 C63.1467257,104.224544 63.210035,110.581193 63.2825769,116.938501 C58.8067417,128.140949 58.0978095,138.193278 58.6642958,148.860894 L60.8227471,149.660833 C60.8227471,149.660833 73.6738742,127.261873 76.0374211,118.407145 C78.7485097,108.24996 80.2870574,97.3897786 80.7038436,87.1996203" id="Fill-69" fill="#283364"></path>
                <path d="M63.0049393,83.9846952 C63.0016419,83.9959062 62.1436691,86.5071749 62.1430096,89.9647856 C62.1430096,92.2313902 62.5123138,94.9062078 63.7395909,97.5447545 L63.889291,97.47551 L63.724423,97.47551 C63.724423,99.0292256 64.4590746,109.940846 64.4590746,114.873695 C64.4590746,115.846416 64.4287389,116.5903 64.3634512,116.956307 C64.2717846,117.488501 63.6940873,119.139159 62.9693278,121.288377 C62.2432493,123.441553 61.3668113,126.113733 60.6631549,128.752939 C59.8810213,131.691545 59.4127963,136.582848 59.1358182,140.750709 C58.8594995,144.917252 58.777725,148.3531 58.777725,148.354419 L59.1074609,148.362333 C59.1074609,148.360355 59.1279045,147.505679 59.1826407,146.127383 C59.3468491,141.997111 59.8256257,133.172719 60.9816798,128.838011 C61.6820388,126.210675 62.5564984,123.54509 63.2819174,121.393233 C64.0073364,119.23742 64.5804174,117.615779 64.6885708,117.013681 C64.7611127,116.598873 64.788151,115.855649 64.7888105,114.873695 C64.7888105,109.924359 64.0534994,98.994933 64.0541589,97.47551 L64.0541589,97.439239 L64.0383316,97.4062654 C62.8367739,94.8217954 62.4727455,92.1957787 62.4727455,89.9647856 C62.4727455,88.2633483 62.684436,86.7920667 62.8961264,85.7481228 C63.0016419,85.2258212 63.1078169,84.8103539 63.1869535,84.5261216 C63.2654306,84.2418892 63.3175289,84.0921891 63.3168694,84.0915296 L63.0049393,83.9846952" id="Fill-70" fill="#1B5792"></path>
                <polyline id="Fill-71" fill="#1B5792" points="58.263337 148.858915 58.6049434 147.417969 61.3674708 148.701961 60.8227471 149.936492 58.263337 148.858915"></polyline>
                <path d="M98.5755296,31.3858834 L96.8444161,29.908007 C96.8444161,29.908007 96.8444161,27.3215586 96.8444161,26.8460794 C96.8444161,26.3712597 96.2007716,23.5210226 95.619777,23.5210226 C95.0394418,23.5210226 94.9075474,22.8081336 94.6167203,23.0983012 C94.3265527,23.3891282 94.8547897,26.6086696 94.6167203,26.8460794 C94.3793105,27.0834893 94.0719966,25.3167643 93.851733,25.5363684 C93.6321289,25.7559725 93.6136637,27.0518346 93.6136637,27.7146038 C93.6136637,28.3767135 94.1445385,29.5993742 94.6694781,30.1243138 C95.1950771,30.6492533 97.5203747,33.1625004 97.5203747,33.1625004 L98.5755296,31.3858834" id="Fill-72" fill="#E48D64"></path>
                <path d="M96.261443,32.0526094 C96.261443,32.0526094 101.978404,39.6200483 103.789973,42.153739 C102.137996,41.5753822 99.7671951,40.1258632 98.3961533,39.2270031 C95.7068272,37.4635755 93.010247,36.5284445 91.1452607,36.5284445 C87.1851325,36.5284445 89.2578524,49.5820295 93.851733,51.4925193 C102.566653,52.8028898 112.334749,51.9739337 113.830431,48.9106872 C116.047576,44.3708832 103.273607,33.6762289 97.7089836,30.4052488 L96.261443,32.0526094 Z" id="Fill-73" fill="#EDFB8B"></path>
                <path d="M103.634338,42.2097941 C103.636976,42.2157294 103.911975,42.9846735 104.434937,43.8835336 C104.958557,44.7817342 105.725523,45.8151265 106.743088,46.3394066 L106.894107,46.0459416 C105.973484,45.5763977 105.225643,44.5904873 104.719828,43.7180061 C104.466591,43.2820953 104.272047,42.8752012 104.141472,42.5790983 C104.076184,42.4307172 104.026724,42.3093744 103.99375,42.2262809 C103.960776,42.1431875 103.944949,42.0983434 103.944949,42.0983434 L103.634338,42.2097941" id="Fill-74" fill="#95B8D7"></path>
                <g id="Fill-75">
                    <use fill="#D9EFF5" xlink:href="#path-4"></use>
                    <use fill="url(#linearGradient-3)" xlink:href="#path-4"></use>
                </g>
                <path d="M96.4342246,51.8084063 C96.4342246,51.8077468 96.448733,51.5624233 96.4863229,51.1759728 C96.5417185,50.5956376 96.6478935,49.7020533 96.8285888,48.8691404 C97.0059867,48.0375465 97.2763701,47.2620076 97.5915977,46.9553532 L97.3581446,46.7225597 C97.0811665,47.0028352 96.8839844,47.451276 96.7204354,47.9735777 C96.2363831,49.5365259 96.1064671,51.7826869 96.1051482,51.7892816 L96.4342246,51.8084063" id="Fill-76" fill="#95B8D7"></path>
                <path d="M84.845986,27.0162232 C85.2324365,24.6619088 86.9094733,21.2992621 89.9892067,21.6797773 C91.9234375,21.9185061 93.4210979,23.254596 94.5032912,24.8182036 C95.4318275,26.1595693 95.081648,27.4429014 93.7600665,30.8391812 C93.3393234,31.5329456 92.4312308,32.773412 91.7262554,33.2205339 C90.0564728,34.2796456 87.6289571,33.7467924 86.3086945,32.3447554 C84.9877725,30.9427183 84.5406506,28.8798905 84.845986,27.0162232" id="Fill-77" fill="#F0AB83"></path>
                <path d="M85.2574964,26.7293529 C85.701321,26.6627463 85.2607938,26.3745571 85.4566569,26.7774944 C85.5819566,27.0360073 85.618887,27.1111871 85.8701458,27.19494 C86.1161287,27.277374 86.1214045,27.5029134 86.3271597,27.6559108 C86.647663,27.8946396 86.9193654,27.5701795 87.0545571,27.2951797 C87.3051564,26.7847486 87.2972427,26.1701208 87.2385498,25.6181429 C87.1923867,25.1842105 87.0473029,24.4977003 87.4726622,24.1963217 C87.8202039,23.9496793 88.5884885,24.307113 88.9465817,24.4106501 C89.4992191,24.5709017 90.0459212,24.7496186 90.5959207,24.9171244 C91.922778,25.3207211 93.3234961,25.675517 94.7195979,25.4875675 C95.9389613,25.323359 97.1992119,24.6882877 97.783504,23.557953 C98.483863,22.2027384 97.0838044,20.4320566 95.6567074,20.4300782 C95.2834463,20.4300782 94.9286505,20.5810973 94.5633031,20.6562771 C94.4281114,20.6839749 94.286325,20.7017806 94.1537711,20.6622123 C93.8425004,20.5705457 93.7053303,20.2210257 93.5299108,19.9480043 C93.0010144,19.125643 92.097538,18.8730653 91.1657044,18.9752834 C90.1092305,19.0913505 89.2070731,19.5984843 88.2013786,19.8728245 C87.6685254,20.0185678 87.2068951,19.8807382 86.6747014,19.8978845 C86.1247019,19.9156902 85.5621724,20.2757618 85.3194868,20.7828956 C84.8881922,20.3311575 83.9260229,21.4377511 83.6866346,21.7292377 C82.6341176,23.0105914 82.3010843,24.856453 82.2720676,26.4754563 C82.2470076,27.8920017 82.4830986,29.9528511 84.0361547,30.5226348 C84.6929886,30.763342 85.1064774,30.891939 85.1341752,30.2898412 C84.845986,29.6653214 84.7793794,28.4268334 84.7193675,27.9065101 C84.660015,27.3861868 84.8136719,26.7649644 85.2964053,26.5618471" id="Fill-78" fill="#283364"></path>
                <path d="M90.3143263,32.6395393 L89.9760172,36.1973897 L91.1452607,36.5284445 C91.1452607,36.5284445 90.5273357,38.1256852 88.4882488,38.3973876 C84.3414901,38.950025 81.4114569,35.7641167 81.4114569,35.7641167 L82.7956882,35.4963711 L84.8908301,28.890442" id="Fill-79" fill="#F0AB83"></path>
                <path d="M85.9499418,26.704293 C85.9703855,26.4088496 85.6696663,26.1648451 85.3735635,26.1595693 C85.0781201,26.1542935 84.8064177,26.3277346 84.5973652,26.5361277 C83.4373543,27.6908628 84.894787,30.504829 86.0389705,29.0513532" id="Fill-80" fill="#F0AB83"></path>
                <path d="M93.7666612,30.7771909 C93.5806901,31.2131017 92.8453791,31.3872023 92.4424418,31.4313869 C90.4917242,31.6470342 88.8733804,30.3861241 87.0057562,30.155309 C86.6357925,30.1098054 86.21439,30.0794697 85.9380714,30.330069 C85.6769205,30.5674788 85.6525201,30.9625025 85.6459253,31.3159793 C85.6380117,31.7518902 85.630098,32.1897795 85.6690069,32.6243714 C85.7026399,33.0002703 85.7751818,33.3821045 85.969726,33.7059052 C86.812531,35.1099206 89.6264972,35.346671 91.0529347,35.2596207 C91.629313,35.2246687 92.227454,35.1138775 92.6798516,34.7722711 C93.3221772,34.2882188 93.4613257,33.441457 93.7013735,32.6969133 C93.9968168,31.7789286 93.7666612,30.7771909 93.7666612,30.7771909" id="Fill-81" fill="#283364"></path>
                <path d="M92.3824299,32.3098034 C92.321099,32.2689161 92.2492165,32.2346236 92.1753557,32.2346236 C91.2646251,32.2346236 90.7594697,32.0163384 90.0485591,31.9609428 C89.9272163,31.9517102 89.8025761,31.9437965 89.6871686,31.9787485 C89.4339314,32.0559067 89.2888476,32.3183765 89.2374088,32.5716137 C89.1853105,32.8274887 89.3139075,33.0253303 89.5467011,33.1407378 C89.968763,33.3504499 90.4455612,33.4256297 90.9124672,33.4388191 C91.3219992,33.4506896 91.8548524,33.4856416 92.1918425,33.2099824 C92.3850677,33.0517091 92.6686406,32.5155586 92.3824299,32.3098034" id="Fill-82" fill="#F0AB83"></path>
                <path d="M83.8910709,82.1599367 C82.8134939,82.1038816 81.7550417,82.0755239 80.7150546,82.0755239 C75.3575057,82.0748649 70.4945606,82.8227059 66.0774184,84.2893712 C59.4484078,86.4860718 53.8461948,90.3083704 49.094041,95.5043487 C44.3379303,100.701646 40.4114352,107.258774 37.0052633,115.000973 C31.186084,128.219426 24.345383,135.348976 18.0929308,139.227989 C11.8352028,143.101726 6.10109544,143.763177 2.3196841,143.767133 C2.10007999,143.767133 1.8870706,143.765155 1.68065592,143.760539 C0.769925355,143.742733 0.0181274947,144.466833 0,145.376904 C-0.0174839829,146.287635 0.705956589,147.040092 1.61602768,147.057898 C1.84222651,147.061855 2.07699848,147.064508 2.3196841,147.064508 C6.49018381,147.068449 12.9365207,146.306759 19.8293201,142.030744 C26.7273952,137.760005 34.0086234,130.014508 40.0236657,116.32849 C44.4322348,106.301881 49.6526136,98.5603411 56.1912765,93.3544707 C59.4629162,90.7482381 63.0675891,88.7632279 67.1160865,87.4185649 C71.1639245,86.0752208 75.6621817,85.3735428 80.7150546,85.3728834 C81.6950297,85.3728834 82.6961079,85.3992622 83.7189487,85.4526795 C84.6283603,85.5001614 85.4038992,84.8017808 85.4513812,83.8923692 C85.4988631,82.9829575 84.8004825,82.2074187 83.8910709,82.1599367" id="Fill-83" fill="#E7F9FF"></path>
                <path d="M75.0976738,85.6544778 C75.9325651,95.6672383 84.0143921,101.076886 90.4910647,100.536778 L101.114496,99.650448 L98.4357216,67.5414252 L87.8129497,68.4270958 C81.3362771,68.9678627 74.262123,75.6417174 75.0976738,85.6544778" id="Fill-84" fill="#EFA73A"></path>
                <path d="M80.5719493,85.1981233 C81.3877159,94.9813876 87.8426259,102.428803 94.9886624,101.83264 L106.710114,100.855303 L103.755021,65.4264991 L92.0335693,66.4038363 C84.8875328,66.9999988 79.7555232,75.4141996 80.5719493,85.1981233" id="Fill-85" fill="#E17C2C"></path>
                <path d="M91.4565314,84.2900307 C92.2722981,94.0732949 98.7272081,101.52071 105.873245,100.925207 C113.019281,100.329044 118.150631,91.9148437 117.334865,82.1315794 C116.518439,72.3476557 110.064188,64.9002406 102.918151,65.4964031 C95.7721149,66.0919061 90.6401053,74.5067664 91.4565314,84.2900307" id="Fill-86" fill="#F7C348"></path>
                <path d="M103.837455,89.5783351 C103.958798,91.0318109 105.050224,92.1278531 106.275522,92.025635 C107.500821,91.9234168 108.395724,90.6618473 108.274381,89.2083714 C108.153039,87.7542361 107.061613,86.6588534 105.836314,86.7610715 C104.611016,86.8626302 103.716772,88.1241997 103.837455,89.5783351" id="Fill-87" fill="#EFA73A"></path>
                <path d="M102.790214,77.0233108 C102.911557,78.4774462 104.003642,79.5728288 105.228281,79.4706107 C106.45358,79.3683926 107.348483,78.106823 107.22714,76.6533471 C107.105797,75.1992118 106.014372,74.1038291 104.789073,74.2060473 C103.563774,74.3082654 102.669531,75.5691755 102.790214,77.0233108" id="Fill-88" fill="#EFA73A"></path>
                <path d="M105.376662,78.668693 C106.710774,78.5579017 121.944573,77.2870995 121.944573,77.2870995 C122.954883,77.2026872 123.705362,76.3071244 123.62029,75.2856026 C123.535219,74.2647403 122.64691,73.5056882 121.636599,73.5901006 C121.636599,73.5901006 106.336194,74.8661785 105.06803,74.971694 C103.800525,75.077869 104.042551,78.7801437 105.376662,78.668693" id="Fill-89" fill="#E1E7E8"></path>
                <path d="M106.423904,91.2237172 C107.758015,91.1122665 122.991814,89.8421238 122.991814,89.8421238 C124.002125,89.7577114 124.752604,88.8614892 124.667532,87.8406269 C124.58246,86.8197645 123.694151,86.0607125 122.68384,86.1451249 C122.68384,86.1451249 107.383435,87.4212028 106.11593,87.5267183 C104.847766,87.6328933 105.089792,91.335168 106.423904,91.2237172" id="Fill-90" fill="#E1E7E8"></path>
                <path d="M65.6019392,54.9514489 C65.6019392,54.9514489 64.7775995,63.347844 68.5319725,70.3303315 C71.7422812,76.3011892 78.1206926,84.0295393 83.2738053,88.2877488 L84.5116338,87.9863701 C82.71853,81.1041224 77.0569645,68.8841098 76.7048066,64.3027591 C76.3526486,59.720749 76.4377205,54.4126604 76.3526486,51.8598451" id="Fill-91" fill="#F0AB83"></path>
                <path d="M81.4114569,35.7641167 C81.4114569,35.7641167 74.1295692,36.1842002 69.9419232,39.3476865 C62.7022417,44.8173456 64.122744,59.5044423 66.2304159,66.6860902 C68.3380878,73.8677382 78.4774668,84.6421886 81.7524038,86.9635294 C82.2892138,86.9635294 83.8660109,86.8303161 83.8099558,85.5951254 C81.9983868,79.9962097 76.8347225,65.2682259 76.8347225,65.2682259 L77.6504892,45.3996593" id="Fill-92" fill="#ADEB88"></path>
                <path d="M84.0091163,86.9635294 C84.7945472,87.0420065 85.5568966,87.4231812 86.2190063,87.9402071 C86.8244015,88.4137079 87.5689451,89.205074 87.4911275,89.5671241 C87.4086935,89.9482988 86.4168479,89.2156256 86.2961645,89.3633473 C86.1754812,89.511069 87.9943044,92.2584285 87.6520386,92.4641837 C87.3091132,92.6705984 85.7619924,90.1810923 85.7619924,90.1810923 C85.7619924,90.1810923 87.2649286,92.8400826 86.6832745,92.8987756 C86.1965843,92.9475765 84.8631323,90.4303727 84.8631323,90.4303727 C84.8631323,90.4303727 85.9908291,92.6804905 85.6050381,92.7655623 C85.2185876,92.8499747 84.1726653,90.6090895 84.1726653,90.6090895 C84.1726653,90.6090895 85.0240434,92.5241956 84.6969454,92.5565098 C84.5327369,92.5729966 83.6925698,91.6207193 83.3410714,90.4666436 C82.9955081,89.3316926 82.5919114,88.3464417 82.9038416,87.4607711" id="Fill-93" fill="#F0AB83"></path>
                <path d="M79.0314231,71.0656425 C77.8707527,67.7240989 76.9903579,65.2134897 76.9903579,65.2134897 L76.8347225,65.2682259 L76.998931,65.2827342 L78.5289056,48.6073301 L78.2004886,48.5769944 L76.6678762,65.2886695 L76.6797467,65.3223025 C76.6797467,65.324281 76.8993508,65.9501197 77.2646981,66.9953825 C77.6293861,68.0406453 78.1398172,69.5033538 78.7201524,71.1737959 L79.0314231,71.0656425" id="Fill-94" fill="#95B8D7"></path>
                <path d="M64.4030195,52.6413192 C64.4017005,52.8028898 64.4010411,52.9664388 64.4010411,53.1306472 C64.4017005,57.5748278 64.9477432,62.8987437 66.0721426,66.7329127 C67.1009187,70.2314107 69.9854483,74.5258911 73.0671601,78.3138971 L73.3230352,78.1061635 C70.2545128,74.3379416 67.3884484,70.0540128 66.3880296,66.6399272 C65.2774791,62.855878 64.7301175,57.5471299 64.730777,53.1306472 C64.730777,52.9677577 64.7314365,52.8048682 64.7327554,52.6439571 L64.4030195,52.6413192" id="Fill-95" fill="#95B8D7"></path>
                <path d="M220.304793,28.0819296 L221.474696,27.2813308 C221.474696,27.2813308 222.017441,24.7344507 222.316841,24.2774367 C222.634047,23.792725 223.236804,22.7923062 223.919358,22.330676 C224.204909,22.1381102 225.508025,21.4008207 225.837102,21.7298972 C225.998672,21.8914677 225.449332,23.3667062 225.196754,23.6186244 C224.944836,23.8712021 224.20293,25.0008773 224.318338,25.3543542 C224.434405,25.7078311 225.051011,24.9342707 225.196754,24.7878679 C225.343157,24.6421247 225.53968,24.4607699 225.608265,24.6493788 C225.722353,24.9639469 225.064201,26.7385855 224.548494,27.253633 C224.033446,27.7686805 223.199214,28.2553707 222.61756,28.2553707 L220.800056,29.8611845" id="Fill-96" fill="#F0AB83"></path>
                <path d="M234.406938,19.6947672 C236.343147,20.8356534 237.541407,22.9842125 238.005675,25.1354096 C238.088769,25.5225195 238.159332,25.9373273 238.426418,26.2288138 C238.638768,26.4609479 238.944104,26.5789934 239.228996,26.7115472 C240.83349,27.4547719 242.062746,28.9108857 242.626594,30.576052 C242.867961,31.2876221 242.679352,32.2926571 242.959628,32.8993712 C243.303212,33.6439148 244.56742,33.8127396 245.247335,34.038279 C247.282465,34.7122592 248.778147,36.7618975 248.800811,38.9051809 C248.822332,41.0484643 247.368856,43.1277789 245.348234,43.8439653 C245.891639,44.6049957 245.968797,45.6317933 245.716879,46.5326318 C245.464961,47.4334703 244.917599,48.2248365 244.297696,48.925855 C241.735648,51.8242336 237.785412,53.3733329 233.920248,53.2064865 C232.807059,53.1590045 231.689914,52.9750119 230.65784,52.5536094 C229.489256,52.0761518 228.463118,51.3098456 227.477867,50.5204578 C226.290159,49.56884 225.104428,48.5268746 224.464081,47.1466001 C223.823734,45.7656661 223.86594,43.9587134 224.951431,42.8910285 C223.697775,43.1521793 222.359707,42.4716044 221.654072,41.4026006 C220.949097,40.3342563 220.821159,38.9546413 221.104072,37.7056017 C221.386326,36.4572216 222.045798,35.32293 222.812104,34.2974514 C223.350893,33.5773082 223.969477,32.8479324 224.083566,31.955667 C224.274153,30.4672391 223.443219,29.137744 223.226912,27.6572298 C222.891241,25.3536947 222.995438,23.3739604 224.967918,22.1493212 C225.600351,20.5085554 226.366657,19.243029 228.182843,18.7596361 C230.336678,18.1872146 232.479302,18.5584972 234.406938,19.6947672" id="Fill-97" fill="#283364"></path>
                <path d="M229.663357,37.1978084 C223.085126,35.475268 215.554617,38.1955892 213.876921,38.1876756 C216.17518,35.8900758 220.393821,30.7738935 221.851254,29.0058496 C221.851254,27.7911025 221.113964,27.452134 221.113964,27.452134 C221.113964,27.452134 203.070156,36.7823412 204.883044,42.8752012 C206.776388,49.2351473 224.454189,46.1138672 225.866778,47.9406041" id="Fill-98" fill="#7EE086"></path>
                <path d="M230.952624,96.4144198 C230.93284,96.9525488 228.577207,108.536831 228.403766,109.779935 C227.89927,113.399776 229.811738,117.031487 229.625767,122.643592 C229.399568,129.466487 226.497233,147.80442 226.128588,148.617549 C225.759943,149.431337 223.990581,148.685474 223.990581,148.685474 C223.990581,148.685474 218.890226,124.085197 218.602696,114.01836 C218.365286,105.726821 219.570141,87.7819339 219.570141,87.7819339" id="Fill-99" fill="#F0AB83"></path>
                <path d="M226.309283,148.932117 C226.309283,148.932117 226.606046,149.555318 226.591537,149.836253 C226.553947,150.60058 226.529547,151.122223 226.529547,151.122223 L226.197833,151.143985 L226.082425,150.520784 C226.082425,150.520784 225.200052,150.675101 224.302511,151.265328 C223.867259,151.551539 221.68111,151.525819 221.34412,151.347762 C220.966902,151.148601 221.075056,150.789849 221.201015,150.643446 C221.326974,150.497043 223.692499,149.463651 223.692499,149.463651" id="Fill-100" fill="#283364"></path>
                <path d="M223.990581,148.685474 C223.799334,149.147764 221.930391,150.165988 222.103172,150.302499 C222.274635,150.439669 223.361444,150.445604 224.566959,150.044646 C225.664979,149.679298 226.286202,149.269766 226.321813,148.982237 L226.111442,148.209336" id="Fill-101" fill="#F0AB83"></path>
                <path d="M247.323353,96.8958343 C247.320055,97.4346227 245.317899,109.084852 245.182707,110.333232 C244.789002,113.966262 246.810943,117.537961 246.796435,123.153364 C246.777969,129.979556 244.436185,148.397945 244.0926,149.222284 C243.749015,150.045965 241.95789,149.354838 241.95789,149.354838 C241.95789,149.354838 236.110353,124.921408 235.51551,114.868419 C235.025522,106.588091 235.683016,88.6148468 235.683016,88.6148468" id="Fill-102" fill="#F0AB83"></path>
                <path d="M244.283187,149.530917 C244.283187,149.530917 244.597756,150.144226 244.59248,150.42582 C244.577971,151.191467 244.569398,151.713109 244.569398,151.713109 L244.238343,151.745423 L244.104471,151.12552 C244.104471,151.12552 243.227373,151.306875 242.347638,151.92414 C241.921619,152.22354 239.73547,152.264428 239.393204,152.096922 C239.010051,151.908972 239.107653,151.547582 239.228996,151.397222 C239.350998,151.246863 241.68355,150.142247 241.68355,150.142247" id="Fill-103" fill="#283364"></path>
                <path d="M241.95789,149.354838 C241.780492,149.823063 239.943863,150.897343 240.119942,151.028578 C240.296021,151.160472 241.382171,151.133434 242.574496,150.696204 C243.661306,150.297223 244.269998,149.869226 244.296377,149.580377 L244.062924,148.814071" id="Fill-104" fill="#F0AB83"></path>
                <path d="M241.374257,67.102217 C241.374257,67.102217 246.60189,70.5261946 248.594155,78.7405754 C251.280843,89.8177233 247.323353,111.507092 247.323353,111.507092 C247.323353,111.507092 239.135351,113.900315 230.229843,113.825135 C221.324336,113.749296 216.047902,110.740785 216.030756,110.201337 C216.01361,109.662549 214.70258,93.2423604 216.51217,82.1012437 C218.543343,69.5976583 223.717559,66.2270979 223.717559,66.2270979" id="Fill-105" fill="#2C5092"></path>
                <g id="Fill-106">
                    <use fill="#B9E1ED" xlink:href="#path-6"></use>
                    <use fill="url(#linearGradient-5)" xlink:href="#path-6"></use>
                </g>
                <path d="M223.468279,41.4903104 C223.468279,41.4903104 223.474874,41.5364734 223.482787,41.6261616 C223.490701,41.7165092 223.497955,41.8470846 223.497955,42.0073363 C223.498615,42.5461247 223.408267,43.4120112 222.944658,44.1677659 C222.898495,44.2449241 222.763303,44.41243 222.591841,44.6168662 C222.074155,45.241386 221.205631,46.2305937 220.968881,46.9942621 L221.284108,47.0898855 C221.408748,46.669802 221.830151,46.0710016 222.251553,45.5467215 C222.461925,45.2835922 222.671637,45.0356308 222.845078,44.8285567 C223.019179,44.6195041 223.153051,44.457274 223.226253,44.3398881 C223.736684,43.5036778 223.827031,42.5810768 223.827691,42.0073363 C223.827691,41.6657299 223.794717,41.4467852 223.794058,41.44085 L223.468279,41.4903104" id="Fill-107" fill="#71A7CE"></path>
                <path d="M232.772107,32.6771292 C234.500583,30.960524 234.773604,27.7027333 233.988173,25.5014164 C233.103162,23.0231214 229.57235,21.1660488 227.140877,22.7184454 C222.36762,25.7658646 227.210781,38.2002055 232.772107,32.6771292" id="Fill-108" fill="#F0AB83"></path>
                <path d="M229.482002,32.3737721 L229.57169,37.6746065 C229.57169,37.6746065 229.373189,38.8530826 231.445909,38.9269435 C234.286914,39.0278427 234.286914,36.9880964 234.286914,36.9880964 L232.64351,31.5263509" id="Fill-109" fill="#F0AB83"></path>
                <path d="M231.631221,20.37798 C231.046929,19.9921889 230.42109,19.9757021 229.818333,20.3337953 C229.448369,20.5533995 229.189856,20.9161089 228.796811,21.090869 C228.517854,21.2155091 228.18614,21.2359528 227.892675,21.3157489 C226.515039,21.6890099 225.209284,22.7408674 224.62829,24.0538758 C224.044657,25.3741384 224.231288,27.5213786 225.324032,28.4644232 C225.276551,27.4429014 225.583205,25.9749172 226.127929,25.1103496 C226.41348,24.6572925 226.864559,24.2101706 227.396752,24.2701826 C227.994893,24.3374487 228.320013,24.9771363 228.751307,25.3972199 C229.404844,26.0329507 230.343272,26.1622072 231.206521,26.2908042 C232.183199,26.4365474 232.936975,26.6086696 233.418389,27.5675416 C233.627442,27.9843278 233.741531,28.4420012 233.853641,28.8943989 C233.986854,29.4318684 234.120067,29.9732947 234.151722,30.5265916 C234.171506,30.8708359 234.152382,31.2236533 234.260535,31.5514108 C234.475523,32.2049473 235.14093,32.599971 235.793147,32.8202345 C236.293687,32.9890593 237.13781,33.1460136 237.452378,32.5782084 C237.714848,32.1033887 237.941707,31.4360032 238.031395,30.90315 C238.331454,29.1225761 237.766947,27.2780335 236.806756,25.7487183 C235.75292,24.0710221 234.251962,22.9472821 232.898066,21.5511803 C232.483258,21.1238426 232.074386,20.6707854 231.631221,20.37798" id="Fill-110" fill="#283364"></path>
                <path d="M232.962035,28.5369651 C233.066891,28.1320495 233.365632,27.7198796 233.782418,27.6565703 C235.131697,27.452134 234.927261,29.4674799 234.405619,30.1757526 C234.102262,30.5885819 233.316831,31.1280299 232.962035,29.9825273" id="Fill-111" fill="#F0AB83"></path>
                <path d="M247.281146,69.8086893 L246.646075,71.1665417 C246.646075,71.1665417 244.250214,71.7363253 243.996317,72.1583873 C243.594699,72.8257728 242.992601,73.7477144 242.992601,74.2719944 C242.992601,74.7962745 243.042721,77.0971717 243.699555,77.0971717 C244.111725,77.0971717 245.077192,75.2203149 245.275693,74.9578451 C245.745236,74.3379416 247.640558,73.8881818 247.640558,72.2553297 L248.800569,69.8086893" id="Fill-112" fill="#F0AB83"></path>
                <path d="M234.286914,36.9181923 C234.286914,36.9181923 239.878575,35.4950522 244.247576,38.2523038 C247.643196,40.3949277 256.379879,51.0552895 256.381198,57.1606795 C256.382517,61.2771025 248.209683,71.4731961 248.209683,71.4731961 L246.85249,70.5031131 C246.85249,70.5031131 247.643196,62.4905306 250.018614,58.0740479 C248.267057,56.3218313 241.436248,50.8811889 239.720302,49.1659027" id="Fill-113" fill="#CDF38A"></path>
                <path d="M238.722521,48.7253756 C239.951117,49.8161419 243.166702,52.4039093 243.168021,52.4052283 L243.374435,52.1480343 C243.372457,52.1467153 242.570539,51.5010924 241.614305,50.7182994 C240.658071,49.9361658 239.54818,49.0175216 238.941466,48.4787331 L238.722521,48.7253756" id="Fill-114" fill="#71A7CE"></path>
                <path d="M73.969977,27.4765345 L67.2143478,22.0325947 C67.2143478,22.0325947 70.2518749,10.8130009 66.2304159,6.89441938 C64.0904299,4.809829 61.3852765,3.38734831 58.5924134,2.32691765 C52.3762321,-0.0320130058 44.9505796,-0.567504113 39.4103569,3.10905121 C35.3236102,5.82079928 32.8393799,10.4687566 31.7275104,15.2459703 C30.7481948,19.4520815 30.8299693,24.2319332 33.4592834,27.6572298 C34.6403974,29.1957775 36.2574222,30.3531505 37.9760058,31.2533295 C43.3210248,34.0541063 57.4594408,35.1112396 63.5938476,31.0007518 C65.292647,29.8625035 65.1436063,28.3232963 65.8551764,25.9188621 L73.969977,27.4765345" id="Fill-115" fill="#EAF5F9"></path>
                <text id="Oops!" font-family="LucidaGrande, Lucida Grande" font-size="8" font-weight="normal" letter-spacing="-0.0143210581" fill="#95B8D7">
                    <tspan x="39.6325887" y="18.6419622">Oops!</tspan>
                </text>
            </g>
        </g>
    </g>
</svg>