<?xml version="1.0" encoding="UTF-8"?>
<svg width="30px" height="30px" viewBox="0 0 35 33" version="1.1" xmlns="http://www.w3.org/2000/svg" xmlns:xlink="http://www.w3.org/1999/xlink">
    <title>On-demand Salary</title>
    <g id="Page-1" stroke="none" stroke-width="1" fill="none" fill-rule="evenodd">
        <g id="Google-Pixel-6-Copy-19" transform="translate(-33.000000, -294.000000)" fill-rule="nonzero">
            <g id="On-demand-Salary" transform="translate(33.000000, 294.000000)">
                <path d="M31.5347738,13.5354642 L13.5354642,31.5347738 C12.4323703,32.6378676 10.6440818,32.6378676 9.54098785,31.5347738 L0.82732039,22.8211063 C-0.275773463,21.7180124 -0.275773463,19.9297239 0.82732039,18.82663 L18.82663,0.82732039 C19.9297239,-0.275773463 21.7180124,-0.275773463 22.8211063,0.82732039 L31.5347738,9.54098785 C32.6378676,10.6440818 32.6378676,12.4323703 31.5347738,13.5354642 Z" id="Path" fill="#7BD0A7"></path>
                <path d="M7.57966501,12.0745524 L0.82732039,18.82663 C-0.275773463,19.9297239 -0.275773463,21.7180124 0.82732039,22.8211063 L9.54098785,31.5347738 C10.6440818,32.6378676 12.4323703,32.6378676 13.5354642,31.5347738 L16.5881317,28.4821063 C10.6248557,25.0836371 7.24027203,17.3288683 7.57966501,12.0745524 Z" id="Path" fill="#68BF97"></path>
                <path d="M20.8240016,4.0105648 C20.5406846,4.0105648 20.3113073,3.78092046 20.3113073,3.49787046 L20.3113073,2.70880182 C20.3113073,2.42575182 20.5406846,2.19610749 20.8240016,2.19610749 C21.1073187,2.19610749 21.336696,2.42575182 21.336696,2.70880182 L21.336696,3.49787046 C21.336696,3.78092046 21.1073187,4.0105648 20.8240016,4.0105648 Z" id="Path" fill="#A5E1C5"></path>
                <path d="M3.49787046,21.336696 L2.70880182,21.336696 C2.42575182,21.336696 2.19610749,21.1070516 2.19610749,20.8240016 C2.19610749,20.5406846 2.42575182,20.3113073 2.70880182,20.3113073 L3.49787046,20.3113073 C3.78092046,20.3113073 4.0105648,20.5406846 4.0105648,20.8240016 C4.0105648,21.1070516 3.78092046,21.336696 3.49787046,21.336696 Z" id="Path" fill="#A5E1C5"></path>
                <path d="M29.6532923,12.0507869 L28.8642238,12.0507869 C28.5811737,12.0507869 28.3515294,11.8214096 28.3515294,11.5380925 C28.3515294,11.2550425 28.5811737,11.0253982 28.8642238,11.0253982 L29.6532923,11.0253982 C29.9366094,11.0253982 30.1659867,11.2550425 30.1659867,11.5380925 C30.1659867,11.8214096 29.9366094,12.0507869 29.6532923,12.0507869 Z" id="Path" fill="#A5E1C5"></path>
                <path d="M11.5383595,30.1659867 C11.2550425,30.1659867 11.0256652,29.9366094 11.0256652,29.6532923 L11.0256652,28.8644908 C11.0256652,28.5811737 11.2550425,28.3517964 11.5383595,28.3517964 C11.8214096,28.3517964 12.0510539,28.5811737 12.0510539,28.8644908 L12.0510539,29.6532923 C12.0510539,29.9366094 11.8214096,30.1659867 11.5383595,30.1659867 Z" id="Path" fill="#A5E1C5"></path>
                <path d="M18.5975197,4.93528375 L4.93555083,18.5975197 C5.45785818,20.0330639 5.45785818,21.6149394 4.93555083,23.0504836 L9.31187761,27.4268104 C10.7474217,26.904236 12.3292974,26.904236 13.7648415,27.4268104 L27.4268104,13.7648415 C26.904236,12.3292974 26.904236,10.7474217 27.4268104,9.31187761 L23.0504836,4.93555083 C21.6149394,5.45785818 20.0330639,5.45785818 18.5975197,4.93528375 L18.5975197,4.93528375 Z" id="Path" fill="#A5E1C5"></path>
                <path d="M13.7648415,27.4268104 L14.3119825,26.8796695 C10.8865435,23.9717312 8.62748406,19.6015461 7.85390309,15.6791674 L4.93555083,18.5975197 C5.45785818,20.0330639 5.45785818,21.6149394 4.93555083,23.0504836 L9.31187761,27.4268104 C10.7471547,26.904236 12.3292974,26.904236 13.7648415,27.4268104 L13.7648415,27.4268104 Z" id="Path" fill="#91D6B5"></path>
                <g id="Group" transform="translate(9.047920, 9.047920)" fill="#7BD0A7">
                    <path d="M0.51282784,15.4597369 C0.381449917,15.4597369 0.250339005,15.4095356 0.150203444,15.3094 C-0.0500678147,15.1091287 -0.0500678147,14.7846894 0.150203444,14.5844181 L2.6535937,12.0810279 C2.85386496,11.8807566 3.17857137,11.8807566 3.37857555,12.0810279 C3.57884681,12.281299 3.57884681,12.6057384 3.37857555,12.8060096 L0.875185225,15.3094 C0.775049596,15.4095356 0.643938752,15.4597369 0.51282784,15.4597369 Z" id="Path"></path>
                    <path d="M0.571307055,13.0145588 C0.439929132,13.0145588 0.30881822,12.9646245 0.20868259,12.8644889 C0.00841139997,12.6642177 0.00841139997,12.3395113 0.20868259,12.139507 L1.46024425,10.8876783 C1.6605155,10.6874071 1.98522192,10.6874071 2.18549311,10.8876783 C2.3857643,11.0879496 2.3857643,11.412656 2.18549311,11.6126602 L0.93366444,12.8644889 C0.833528811,12.9646245 0.702417899,13.0145588 0.571307055,13.0145588 Z" id="Path"></path>
                    <path d="M12.4436523,3.5289125 C12.3122743,3.5289125 12.1811634,3.47871118 12.0810279,3.37857555 C11.8807566,3.17857137 11.8807566,2.85386496 12.0810279,2.6535937 L14.5844181,0.150203444 C14.7846894,-0.0500678147 15.1091287,-0.0500678147 15.3094,0.150203444 C15.5096712,0.350474634 15.5096712,0.675181046 15.3094,0.875185225 L12.8060096,3.37857555 C12.705874,3.47871118 12.5747632,3.5289125 12.4436523,3.5289125 L12.4436523,3.5289125 Z" id="Path"></path>
                    <path d="M11.2503028,2.33556305 C11.1189249,2.33556305 10.987814,2.28562874 10.8876783,2.18549311 C10.6874071,1.98522192 10.6874071,1.6605155 10.8876783,1.46024425 L12.139507,0.20868259 C12.3397783,0.00841139997 12.6642177,0.00841139997 12.8644889,0.20868259 C13.06476,0.408953849 13.06476,0.73339325 12.8644889,0.93366444 L11.6126602,2.18549311 C11.5125246,2.28536166 11.3814136,2.33556305 11.2503028,2.33556305 Z" id="Path"></path>
                    <path d="M11.1963631,7.13326045 C11.1963631,9.37736628 9.37736628,11.1963631 7.13326045,11.1963631 C4.88915462,11.1963631 3.06989083,9.37736628 3.06989083,7.13326045 C3.06989083,4.88915462 4.88915462,3.06989083 7.13326045,3.06989083 C9.37736628,3.06989083 11.1963631,4.88915462 11.1963631,7.13326045 L11.1963631,7.13326045 Z" id="Path"></path>
                </g>
                <path d="M35,17.0287284 C35,20.36498 32.2955374,23.0691756 28.9595529,23.0691756 C25.6235683,23.0691756 22.9191057,20.36498 22.9191057,17.0287284 C22.9191057,13.6927439 25.6235683,10.9882813 28.9595529,10.9882813 C32.2955374,10.9882813 35,13.6927439 35,17.0287284 Z" id="Path" fill="#F7C67B"></path>
                <path d="M33.7185312,20.7468305 C26.1346605,23.0627669 23.1370008,14.9023821 27.112251,11.2772059 C24.6798903,12.0579966 22.9191057,14.3373502 22.9191057,17.0287284 C22.9191057,20.36498 25.6235683,23.0691756 28.9595529,23.0691756 C30.8928377,23.0691756 32.612767,22.1599442 33.7185312,20.7468305 L33.7185312,20.7468305 Z" id="Path" fill="#EBB460"></path>
                <path d="M33.0312004,17.0287284 C33.0312004,19.2773737 31.2081981,21.100376 28.9595529,21.100376 C26.7109076,21.100376 24.8879054,19.2773737 24.8879054,17.0287284 C24.8879054,14.7800832 26.7109076,12.9573479 28.9595529,12.9573479 C31.2081981,12.9573479 33.0312004,14.7800832 33.0312004,17.0287284 L33.0312004,17.0287284 Z" id="Path" fill="#FCE68D"></path>
                <path d="M28.9595529,21.100376 C29.2476763,21.100376 29.5285902,21.0699347 29.7998909,21.0130577 C26.846825,20.3804677 25.2550692,17.7208658 25.3573411,15.1312253 C25.0580024,15.6981264 24.8879054,16.3435338 24.8879054,17.0287284 C24.8879054,19.2776407 26.7109076,21.100376 28.9595529,21.100376 L28.9595529,21.100376 Z" id="Path" fill="#F0D87C"></path>
                <path d="M29.9176504,24.1001718 C29.9176504,27.4361564 27.2131878,30.140619 23.8772032,30.140619 C20.5412187,30.140619 17.836756,27.4361564 17.836756,24.1001718 C17.836756,20.7641873 20.5412187,18.0597247 23.8772032,18.0597247 C27.2131878,18.0597247 29.9176504,20.7641873 29.9176504,24.1001718 L29.9176504,24.1001718 Z" id="Path" fill="#F7C67B"></path>
                <path d="M28.6359146,27.8180069 C21.0520438,30.1339433 18.0546511,21.9735585 22.0296344,18.3486493 C19.5975407,19.129173 17.836756,21.4085266 17.836756,24.1001718 C17.836756,27.4361564 20.5412187,30.140619 23.8772032,30.140619 C25.8104881,30.140619 27.5304174,29.2311206 28.6359146,27.8180069 L28.6359146,27.8180069 Z" id="Path" fill="#EBB460"></path>
                <path d="M27.9485837,24.1001718 C27.9485837,26.3488171 26.1258485,28.1715523 23.8772032,28.1715523 C21.6285579,28.1715523 19.8055557,26.3488171 19.8055557,24.1001718 C19.8055557,21.8515265 21.6285579,20.0285243 23.8772032,20.0285243 C26.1258485,20.0285243 27.9485837,21.8515265 27.9485837,24.1001718 L27.9485837,24.1001718 Z" id="Path" fill="#FCE68D"></path>
                <path d="M23.8772032,28.1718193 C24.1653267,28.1718193 24.4462405,28.1413781 24.7172743,28.0845011 C21.7644753,27.451911 20.1727196,24.7923092 20.2749915,22.2026688 C19.9756528,22.7693028 19.8055557,23.4147102 19.8055557,24.1001718 C19.8055557,26.3488171 21.6285579,28.1718193 23.8772032,28.1718193 Z" id="Path" fill="#F0D87C"></path>
            </g>
        </g>
    </g>
</svg>