<?xml version="1.0" encoding="UTF-8"?>
<svg width="30px" height="30px" viewBox="0 0 30 30" version="1.1" xmlns="http://www.w3.org/2000/svg" xmlns:xlink="http://www.w3.org/1999/xlink">
    <title>Payslip</title>
    <defs>
        <linearGradient x1="50%" y1="97.980665%" x2="50%" y2="4.25%" id="linearGradient-1">
            <stop stop-color="#E37A0E" offset="0%"></stop>
            <stop stop-color="#DE1E1E" offset="100%"></stop>
        </linearGradient>
        <linearGradient x1="74.8631416%" y1="90.7296224%" x2="24.7603568%" y2="8.65633075%" id="linearGradient-2">
            <stop stop-color="#22C8B8" offset="0%"></stop>
            <stop stop-color="#8DA9FF" offset="100%"></stop>
        </linearGradient>
        <circle id="path-3" cx="15" cy="15" r="15"></circle>
    </defs>
    <g id="Page-1" stroke="none" stroke-width="1" fill="none" fill-rule="evenodd">
        <g id="23:-Account-Page" transform="translate(-19.000000, -354.000000)" fill-rule="nonzero">
            <g id="Payslip" transform="translate(19.000000, 354.000000)">
                <g id="Oval">
                    <use fill="url(#linearGradient-1)" xlink:href="#path-3"></use>
                    <use fill="url(#linearGradient-2)" xlink:href="#path-3"></use>
                </g>
                <g id="Group" transform="translate(8.189047, 6.486372)" fill="#FFF8F8">
                    <path d="M13.6219055,5.10815204 C13.6219055,4.88247062 13.532133,4.66579145 13.3724681,4.50625156 L9.11565391,0.249437359 C8.955989,0.0897724431 8.73980995,0 8.51375344,0 L0.851337834,0 C0.38072018,0 0,0.381220305 0,0.851337834 L0,16.175919 C0,16.6460365 0.380845211,17.0272568 0.851337834,17.0272568 L12.7704426,17.0272568 C13.2410603,17.0272568 13.6219055,16.6460365 13.6219055,16.175919 L13.6219055,5.10815204 L13.6219055,5.10815204 Z M10.7153038,4.2568142 L8.51375344,4.2568142 L8.51375344,2.05526382 L10.7153038,4.2568142 Z M11.9191048,15.3245811 L1.7028007,15.3245811 L1.7028007,1.70267567 L6.81095274,1.70267567 L6.81095274,5.10815204 C6.81095274,5.57826957 7.19179795,5.95948987 7.66229057,5.95948987 L11.9191048,5.95948987 L11.9191048,15.3245811 Z" id="Shape"></path>
                </g>
                <path d="M16.0987228,15.3455031 C16.0545182,15.0970341 15.9539678,14.863528 15.8027147,14.6606316 L16.6697055,14.6606316 C16.8521669,14.6606316 17,14.5127558 17,14.3303372 C17,14.1479186 16.8521242,14 16.6697055,14 L13.3302944,14 C13.1478331,14 13,14.1478758 13,14.3302944 C13,14.5127131 13.1478758,14.6606316 13.3302944,14.6606316 L14.4898733,14.6606316 C14.7499706,14.6608454 14.9944637,14.7622081 15.1784214,14.946123 C15.2920109,15.0596697 15.3738364,15.1963875 15.420093,15.3455459 L13.3302944,15.3455459 C13.1478331,15.3455459 13,15.4934217 13,15.6758403 C13,15.858259 13.1478758,16.0061348 13.3302944,16.0061348 L15.4070539,16.0061348 C15.2683696,16.4044461 14.8913055,16.6910062 14.4488324,16.6910062 L13.7630631,16.6910062 C13.5543098,16.6910062 13.3682574,16.807802 13.2774542,16.9957783 C13.1866937,17.1837546 13.2109763,17.4020841 13.3408112,17.565564 L15.3573772,20.1041201 C15.4226153,20.1862021 15.5189761,20.2289959 15.6162347,20.2289959 C15.6882274,20.2289959 15.7607332,20.2055683 15.8214824,20.1573024 C15.9643136,20.0438412 15.9881259,19.8360284 15.8746647,19.6931972 L14.0145247,17.3515524 L14.4488324,17.3515524 C15.2579811,17.3515524 15.9349864,16.7728317 16.0908566,16.006092 L16.6697055,16.006092 C16.8521669,16.006092 17,15.8582162 17,15.6757976 C17.0000427,15.4933789 16.8521669,15.3455031 16.6697055,15.3455031 L16.0987228,15.3455031 Z" id="Path" fill="#FFFFFF"></path>
            </g>
        </g>
    </g>
</svg>