<?xml version="1.0" encoding="UTF-8"?>
<svg width="100%" height="100%" viewBox="0 0 24 24" version="1.1" xmlns="http://www.w3.org/2000/svg" xmlns:xlink="http://www.w3.org/1999/xlink">
    <title>profile</title>
    <g id="Page-1" stroke="none" stroke-width="1" fill="none" fill-rule="evenodd">
        <g id="6:-KYC-Start" transform="translate(-33.000000, -223.000000)" fill-rule="nonzero">
            <g id="profile" transform="translate(33.000000, 223.000000)">
                <path d="M12.0011719,22.6562812 L16.7556562,21.455625 C19.4694844,19.2021562 21.1980469,15.8031562 21.1980469,12.0000469 C21.1980469,6.13392187 17.0865937,1.228125 11.5881094,0.006984375 C5.15142187,0.2240625 0,5.5104375 0,12 C0,15.333375 1.359375,18.3490312 3.5536875,20.5235625 L12.0011719,22.6562812 Z" id="Path" fill="#CBE2FF"></path>
                <path d="M20.9490937,12 C20.9490937,15.9335156 19.0562344,19.4245781 16.1319844,21.6130781 L20.4459375,20.5236563 C22.6403906,18.349125 24,15.3334688 24,12 C24,5.37257813 18.6274219,0 12,0 C11.48325,0 10.9740937,0.03271875 10.4745469,0.09609375 C16.3816875,0.84553125 20.9490937,5.889375 20.9490937,12 Z" id="Path" fill="#BED8FB"></path>
                <g id="Group" transform="translate(3.282750, 3.434859)">
                    <g transform="translate(0.000000, 0.000000)" id="Path">
                        <path d="M11.6994844,1.10976562 C11.6994844,0.496875 11.2026563,4.6875e-05 10.5897656,4.6875e-05 L6.76560938,4.6875e-05 C5.35509375,4.6875e-05 4.211625,1.14351562 4.211625,2.55403125 L4.211625,5.38964062 L13.2214219,5.38964062 L13.2214219,2.59425 C13.2214219,1.98135937 12.7245938,1.48453125 12.1117031,1.48453125 L12.0742969,1.48453125 C11.8672969,1.48453125 11.6994844,1.31676562 11.6994844,1.10976562 L11.6994844,1.10976562 Z" fill="#365E7D"></path>
                        <path d="M12.1117031,1.48453125 L12.0742969,1.48453125 C11.8672969,1.48453125 11.6994844,1.31671875 11.6994844,1.10971875 C11.6994844,0.496828125 11.2026562,0 10.5897656,0 L10.1704687,0 L10.1704687,5.38959375 L13.221375,5.38959375 L13.221375,2.59420312 C13.2214219,1.98140625 12.7245469,1.48453125 12.1117031,1.48453125 L12.1117031,1.48453125 Z" fill="#2B4D66"></path>
                        <path d="M16.6412344,14.0192812 C16.3478437,13.7295 15.9849375,13.5053906 15.5729531,13.3749844 L12.2968125,12.3377344 L8.718,12.2119688 L5.1376875,12.3377344 L1.86154688,13.3749844 C0.753234375,13.7258906 0,14.7544219 0,15.9169687 L0,16.812 C2.09948437,19.0305 5.03676562,20.448 8.30545312,20.55825 C11.9677031,19.7448281 15.014625,17.296875 16.6412344,14.0192812 Z" fill="#4A80AA"></path>
                        <path d="M17.4345,16.8119531 L17.4345,15.9169219 C17.4345,15.0949219 17.057625,14.3402813 16.4452031,13.8444375 C14.705625,17.3894062 11.2691719,19.95075 7.19460938,20.4686719 C7.68642188,20.5309687 8.18732813,20.5642031 8.69582813,20.5650937 C9.18440625,20.5643437 9.66651563,20.5360312 10.1407031,20.4815625 C13.0015313,20.1435 15.5540625,18.7990312 17.4345,16.8119531 Z" fill="#407093"></path>
                        <path d="M8.9889375,20.3855156 C9.71498437,18.9440625 11.6055938,14.851125 11.0664844,12.2944688 L8.718,11.3804531 L6.3673125,12.2945156 C5.8115625,14.9300625 7.83778125,19.198125 8.50860937,20.5112344 C8.66995312,20.4725156 8.830125,20.4305625 8.9889375,20.3855156 L8.9889375,20.3855156 Z" fill="#E4F6FF"></path>
                        <path d="M10.2264844,19.24275 L9.27426562,15.4966406 L8.1601875,15.4966406 L7.2103125,19.2325312 L8.38490625,20.5402031 C8.68307812,20.4719062 8.977125,20.3927344 9.266625,20.3031562 L10.2264844,19.24275 Z" fill="#E28086"></path>
                        <path d="M8.40328125,20.5606875 C8.50054687,20.5632188 8.598,20.5649531 8.69582813,20.5651406 C8.80903125,20.5649531 8.92185938,20.5629844 9.03435937,20.5598438 L9.639375,19.8914531 C9.16317187,20.0585156 8.67328125,20.1964219 8.17176562,20.3029688 L8.40328125,20.5606875 Z" fill="#DD636E"></path>
                        <g transform="translate(4.211625, 3.006899)">
                            <path d="M6.51065625,8.94182017 L6.51065625,6.82935142 L2.49909375,6.82935142 L2.49909375,8.94182017 C2.49909375,10.0495702 4.504875,11.2596014 4.504875,11.2596014 C4.504875,11.2596014 6.51065625,10.0495702 6.51065625,8.94182017 Z" fill="#FFDDCE"></path>
                            <path d="M9.00984375,2.0106483 L8.24296875,2.0106483 C7.8165,2.0106483 7.47079687,1.66494517 7.47079687,1.23847642 L7.47079687,0.8158983 C7.47079687,0.260382675 6.92728125,-0.13238295 6.39984375,0.0419451748 C5.16970312,0.448538925 3.84145312,0.448632675 2.61126562,0.0422264248 L2.6098125,0.0417576748 C2.082375,-0.1324767 1.53895312,0.260288925 1.53895312,0.815757675 L1.53895312,1.2385233 C1.53895312,1.66499205 1.19325,2.01069517 0.76678125,2.01069517 L0,2.01069517 L0,3.27341392 C0,3.59605455 0.2615625,3.85766392 0.58425,3.85766392 C0.6860625,3.85766392 0.768890625,3.9373983 0.7753125,4.0390233 C0.8985,5.9922108 2.52070312,7.53842955 4.50492187,7.53842955 C6.48914062,7.53842955 8.11134375,5.9922108 8.23453125,4.0390233 C8.24095312,3.93744517 8.32378125,3.85766392 8.42559375,3.85766392 C8.74823437,3.85766392 9.00984375,3.59610142 9.00984375,3.27341392 L9.00984375,2.0106483 L9.00984375,2.0106483 Z" fill="#FFDDCE"></path>
                            <path d="M8.24296875,2.0106483 C7.8165,2.0106483 7.47079687,1.66494517 7.47079687,1.23847642 L7.47079687,0.8158983 C7.47079687,0.260382675 6.92728125,-0.13238295 6.39984375,0.0419451748 C6.25415625,0.0900857998 6.10701562,0.1320858 5.95889062,0.1688358 L5.95889062,4.3393983 C5.93835937,5.6963358 5.19482812,6.87730455 4.09678125,7.51555455 C4.23089062,7.53013267 4.36692187,7.5383358 4.504875,7.5383358 C6.48909375,7.5383358 8.11129687,5.99211705 8.23448437,4.03892955 C8.24090625,3.93735142 8.32373437,3.85757017 8.42554687,3.85757017 C8.7481875,3.85757017 9.00979687,3.59600767 9.00979687,3.27332017 L9.00979687,2.01060142 L8.24296875,2.01060142 L8.24296875,2.0106483 Z" fill="#FFCBBE"></path>
                        </g>
                        <g transform="translate(5.137688, 11.380453)" fill="#F4FBFF">
                            <path d="M1.57303125,2.66453526e-15 L-1.33226763e-15,1.27814063 L1.649625,3.3178125 C1.85029687,3.5131875 2.16614062,3.5251875 2.38110937,3.34565625 L3.62165625,2.30939063 L1.57303125,2.66453526e-15 Z"></path>
                            <path d="M5.58534375,2.66453526e-15 L3.62165625,2.30939063 L4.787625,3.30632813 C5.00123438,3.48895313 5.31857813,3.47976563 5.52126563,3.28509375 L7.15907813,1.27814063 L5.58534375,2.66453526e-15 Z"></path>
                        </g>
                    </g>
                    <path d="M6.71071875,11.3804531 L4.40184375,12.5147813 C4.2260625,12.601125 4.15546875,12.8149688 4.24523438,12.9890156 L4.69757813,13.8660469 C4.8148125,14.0932969 4.77154688,14.3702344 4.59060938,14.5508906 C4.49746875,14.6438438 4.39659375,14.7445313 4.30917188,14.8318125 C4.15270313,14.988 4.0965,15.2187656 4.16540625,15.4288594 C4.71154688,17.0937188 7.34001562,19.6395469 8.33475,20.5606406 C8.40164062,20.5624219 8.46867188,20.5636406 8.53584375,20.5643906 C7.81448437,19.1612813 5.25825,13.8305625 6.71071875,11.3804531 L6.71071875,11.3804531 Z" id="Path" fill="#365E7D"></path>
                    <path d="M12.8431406,14.5508438 C12.6621563,14.3701875 12.6189375,14.09325 12.7361719,13.866 L13.1885156,12.9889688 C13.2782812,12.8149219 13.2076875,12.6010781 13.0319062,12.5147344 L10.7230312,11.3804531 C12.175125,13.8299063 9.62067187,19.158375 8.89851562,20.5632656 C8.96639062,20.5620938 9.034125,20.5604063 9.10171875,20.5581563 C10.0985156,19.6349531 12.7227187,17.0922188 13.2683437,15.4289063 C13.33725,15.2188125 13.2810469,14.9880469 13.1245781,14.8318594 C13.0371562,14.7445313 12.9362812,14.6437969 12.8431406,14.5508438 L12.8431406,14.5508438 Z" id="Path" fill="#365E7D"></path>
                    <polygon id="Path" fill="#DD636E" points="8.75934375 13.6898437 7.53778125 14.7100313 8.1601875 15.4966406 9.27426563 15.4966406 9.89671875 14.663625"></polygon>
                </g>
            </g>
        </g>
    </g>
</svg>