<?xml version="1.0" encoding="UTF-8"?>
<svg width="100%" height="100%"  viewBox="0 0 20 20" version="1.1" xmlns="http://www.w3.org/2000/svg" xmlns:xlink="http://www.w3.org/1999/xlink">
    <title>rupee (1)</title>
    <g id="Page-1" stroke="none" stroke-width="1" fill="none" fill-rule="evenodd">
        <g id="17:-Home-with-KYC" transform="translate(-39.000000, -82.000000)" fill-rule="nonzero">
            <g id="rupee-(1)" transform="translate(39.000000, 82.000000)">
                <g id="Group">
                    <path d="M20,10 C20,15.5228571 15.5228571,20 10,20 C7.08857143,20 4.4677551,18.7559184 2.64040816,16.7702041 C2.16040816,16.2489796 1.7355102,15.6763265 1.37387755,15.0620408 C0.500816327,13.5771429 0,11.8469388 0,10 C0,4.47714286 4.47714286,0 10,0 C11.8473469,0 13.577551,0.500816327 15.0620408,1.37428571 C15.6763265,1.7355102 16.2485714,2.16040816 16.7697959,2.64081633 C18.7555102,4.46734694 20,7.08857143 20,10 Z" id="Path" fill="#F0CD00"></path>
                    <path d="M20,10 C20,15.3983673 15.7228571,19.797551 10.3722449,19.9930612 C5.02163265,19.797551 0.744489796,15.3983673 0.744489796,10 C0.744489796,4.60163265 5.02163265,0.20244898 10.3722449,0.00693877551 C15.7228571,0.20244898 20,4.60163265 20,10 Z" id="Path" fill="#FFDE50"></path>
                    <path d="M16.7697959,2.64081633 L2.64040816,16.7702041 C2.16040816,16.2489796 1.7355102,15.6763265 1.37387755,15.0620408 L15.0620408,1.37428571 C15.6763265,1.7355102 16.2485714,2.16040816 16.7697959,2.64081633 Z" id="Path" fill="#FFEA94"></path>
                    <path d="M19.3102041,6.34408163 L6.34367347,19.3106122 C5.42571429,18.9497959 4.57387755,18.4571429 3.81183673,17.8559184 L17.8559184,3.81183673 C18.4571429,4.57387755 18.9497959,5.42571429 19.3102041,6.34408163 Z" id="Path" fill="#FFEA94"></path>
                    <path d="M17.7706122,10 C17.7706122,14.2914286 14.2914286,17.7706122 10,17.7706122 C8.50530612,17.7706122 7.10938776,17.3485714 5.9244898,16.6171429 C5.40816327,16.2987755 4.9322449,15.9212245 4.50530612,15.4942857 C4.19142857,15.1808163 3.90408163,14.84 3.64734694,14.4763265 C3.29387755,13.9755102 2.99795918,13.4310204 2.76979592,12.8526531 C2.43183673,11.997551 2.24163265,11.0677551 2.23020408,10.0955102 C2.22938776,10.0636735 2.22938776,10.0318367 2.22938776,10 C2.22938776,5.70857143 5.70816327,2.22938776 10,2.22938776 C10.0318367,2.22938776 10.0640816,2.22938776 10.0959184,2.23020408 C11.0681633,2.24163265 11.997551,2.4322449 12.8526531,2.76979592 C13.4310204,2.99836735 13.9755102,3.29387755 14.4763265,3.64734694 C14.84,3.9044898 15.1804082,4.19142857 15.4942857,4.50530612 C15.9212245,4.93183673 16.2987755,5.40816327 16.6171429,5.9244898 C17.3485714,7.10938776 17.7706122,8.50530612 17.7706122,10 Z" id="Path" fill="#FAA300"></path>
                    <path d="M15.4942857,4.50530612 L4.50530612,15.4942857 C4.19142857,15.1808163 3.90408163,14.84 3.64734694,14.4763265 C3.29387755,13.9755102 2.99795918,13.4310204 2.76979592,12.8526531 C2.43183673,11.997551 2.24163265,11.0677551 2.23020408,10.0955102 C2.22938776,10.0636735 2.22938776,10.0318367 2.22938776,10 C2.22938776,5.70857143 5.70816327,2.22938776 10,2.22938776 C10.0318367,2.22938776 10.0640816,2.22938776 10.0959184,2.23020408 C11.0681633,2.24163265 11.997551,2.4322449 12.8526531,2.76979592 C13.4310204,2.99836735 13.9755102,3.29387755 14.4763265,3.64734694 C14.84,3.9044898 15.1804082,4.19142857 15.4942857,4.50530612 Z" id="Path" fill="#FFBD00"></path>
                    <path d="M17.7704082,10 C17.7704082,14.2914286 14.2912245,17.7706122 9.99979592,17.7706122 C9.85244898,17.7706122 9.70632653,17.7665306 9.56102041,17.7583673 C13.6483673,17.5310204 16.892449,14.1440816 16.892449,10 C16.892449,5.85591837 13.6483673,2.46897959 9.56102041,2.24163265 C9.70632653,2.23346939 9.85244898,2.22938776 9.99979592,2.22938776 C14.2912245,2.22938776 17.7704082,5.70857143 17.7704082,10 Z" id="Path" fill="#F68E00"></path>
                </g>
                <path d="M13.087102,7.62040816 L11.7263265,7.62040816 C11.6488163,7.31661224 11.5285714,7.02983673 11.3732653,6.76608163 L13.087102,6.76608163 C13.5379592,6.76608163 13.9034286,6.40061224 13.9034286,5.9497551 C13.9034286,5.49889796 13.5379592,5.13342857 13.087102,5.13342857 L8.52530612,5.13342857 L5.37469388,5.13342857 C4.92383673,5.13342857 4.55836735,5.49889796 4.55836735,5.9497551 C4.55836735,6.40061224 4.92383673,6.76608163 5.37469388,6.76608163 L8.52530612,6.76608163 C9.15012245,6.76608163 9.69559184,7.11110204 9.98212245,7.62040816 L5.37469388,7.62040816 C4.92383673,7.62040816 4.55836735,7.98587755 4.55836735,8.43673469 C4.55836735,8.88759184 4.92383673,9.25306122 5.37469388,9.25306122 L9.98212245,9.25306122 C9.69559184,9.76236735 9.15012245,10.1073469 8.52534694,10.1073469 L5.37473469,10.1073469 C5.04897959,10.1073469 4.75440816,10.3010204 4.62530612,10.6000816 C4.49616327,10.8991429 4.55722449,11.2463673 4.78057143,11.4834694 L9.22012245,16.1957551 C9.38073469,16.3662449 9.59734694,16.4522857 9.81444898,16.4522857 C10.0152245,16.4522857 10.2164082,16.3786531 10.3740816,16.2301224 C10.7022449,15.9209796 10.7175918,15.4043265 10.408449,15.0761633 L7.26530612,11.74 L8.52530612,11.74 C10.0650612,11.74 11.3619592,10.6809388 11.7263265,9.25306122 L13.087102,9.25306122 C13.5379592,9.25306122 13.9034286,8.88759184 13.9034286,8.43673469 C13.9034286,7.98587755 13.5379592,7.62040816 13.087102,7.62040816 Z" id="Path" fill="#F68E00"></path>
                <path d="M14.107551,7.62040816 L12.7467755,7.62040816 C12.6692653,7.31661224 12.5490204,7.02983673 12.3937143,6.76608163 L14.107551,6.76608163 C14.5584082,6.76608163 14.9238776,6.40061224 14.9238776,5.9497551 C14.9238776,5.49889796 14.5584082,5.13342857 14.107551,5.13342857 L9.54579592,5.13342857 L6.39518367,5.13342857 C5.94432653,5.13342857 5.57885714,5.49889796 5.57885714,5.9497551 C5.57885714,6.40061224 5.94432653,6.76608163 6.39518367,6.76608163 L9.54579592,6.76608163 C10.1706122,6.76608163 10.7160816,7.11110204 11.0026122,7.62040816 L6.39518367,7.62040816 C5.94432653,7.62040816 5.57885714,7.98587755 5.57885714,8.43673469 C5.57885714,8.88759184 5.94432653,9.25306122 6.39518367,9.25306122 L11.0026122,9.25306122 C10.7160816,9.76236735 10.1706122,10.1073469 9.54583673,10.1073469 L6.39522449,10.1073469 C6.06946939,10.1073469 5.77489796,10.3010204 5.64579592,10.6000816 C5.51665306,10.8991429 5.57771429,11.2463673 5.80106122,11.4834694 L10.2406122,16.1957551 C10.4012245,16.3662449 10.6178367,16.4522857 10.8349388,16.4522857 C11.0357143,16.4522857 11.236898,16.3786531 11.3945714,16.2301224 C11.7227347,15.9209796 11.7381224,15.4043265 11.4289388,15.0761633 L8.28587755,11.74 L9.54587755,11.74 C11.0856327,11.74 12.3825306,10.6809388 12.746898,9.25306122 L14.1076735,9.25306122 C14.5585306,9.25306122 14.924,8.88759184 14.924,8.43673469 C14.924,7.98587755 14.5584082,7.62040816 14.107551,7.62040816 Z" id="Path" fill="#FFEA94"></path>
            </g>
        </g>
    </g>
</svg>