<?xml version="1.0" encoding="UTF-8"?>
<svg width="100%" height="100%" viewBox="0 0 14 13.3504802" version="1.1" xmlns="http://www.w3.org/2000/svg" xmlns:xlink="http://www.w3.org/1999/xlink">
    <title>star</title>
    <g id="Page-1" stroke="none" stroke-width="1" fill="none" fill-rule="evenodd">
        <g id="17:-Home-with-KYC" transform="translate(-31.000000, -1304.000000)" fill-rule="nonzero">
            <g id="star" transform="translate(31.000000, 1304.000000)">
                <path d="M13.6696801,4.82297417 L9.13502499,4.40240042 L7.3337301,0.219658937 C7.20762086,-0.0732196458 6.79235179,-0.0732196458 6.66624256,0.219658937 L4.86497501,4.40242776 L0.33031986,4.82297417 C0.0128045856,4.85242336 -0.115519492,5.2473487 0.124038838,5.45778597 L3.54544912,8.46346234 L2.54417679,12.9061606 C2.47406749,13.2172227 2.81001244,13.4612928 3.08418791,13.2984883 L7,10.9733424 L10.9158121,13.2984883 C11.1899876,13.4612928 11.5259598,13.2172227 11.4558506,12.9061606 L10.4545509,8.46346234 L13.8759612,5.45778597 C14.1155195,5.2473487 13.9871954,4.85242336 13.6696801,4.82297417 Z" id="Path" fill="#FFDC64"></path>
                <path d="M7.3337301,0.219658937 C7.20762086,-0.0732196458 6.79235179,-0.0732196458 6.66624256,0.219658937 L4.86497501,4.40242776 L0.33031986,4.82297417 C0.0128045856,4.85242336 -0.115519492,5.2473487 0.124038838,5.45778597 L3.54544912,8.46346234 L2.54417679,12.9061606 C2.47406749,13.2172227 2.81001244,13.4612928 3.08418791,13.2984883 L3.95817523,12.7795318 C4.07914385,7.80021307 6.39269598,4.29373647 8.22439709,2.28782853 L7.3337301,0.219658937 Z" id="Path" fill="#FFC850"></path>
            </g>
        </g>
    </g>
</svg>