<?xml version="1.0" encoding="UTF-8"?>
<svg width="149" height="48px" viewBox="0 0 180 58" version="1.1" xmlns="http://www.w3.org/2000/svg" xmlns:xlink="http://www.w3.org/1999/xlink">
    <title>Unipe Logo</title>
    <g id="Unipe-App" stroke="none" stroke-width="1" fill="none" fill-rule="evenodd">
        <g id="Artboard" transform="translate(-80.000000, -77.000000)">
            <g id="Unipe-Logo" transform="translate(80.000000, 77.000000)">
                <g id="Group-2" transform="translate(0.000000, 0.000000)">
                    <path d="M10,16.5 L26,16.5 C31.5228475,16.5 36,20.9771525 36,26.5 L36,43.5 C36,49.0228475 31.5228475,53.5 26,53.5 L3,53.5 C1.34314575,53.5 2.02906125e-16,52.1568542 0,50.5 L0,26.5 C-6.76353751e-16,20.9771525 4.4771525,16.5 10,16.5 Z" id="Rectangle-Copy-5" fill="#030D4E"></path>
                    <g id="Group-9-Copy" transform="translate(31.742983, 20.904454) scale(1, -1) rotate(45.000000) translate(-31.742983, -20.904454) translate(19.803643, 3.280431)" fill-rule="nonzero">
                        <path d="M23.3452991,18.9106614 L7.54389456,34.7144457 C6.83254803,35.4258957 5.67928718,35.4258957 4.96783719,34.7145492 L0.533484029,30.2800925 C-0.177759027,29.5688495 -0.177862495,28.4155886 0.53338056,27.7043456 L10.612455,17.6226844 L3.46049943,10.4707289 L0.533587497,7.54381695 C-0.177759027,6.83247043 -0.177759027,5.67920958 0.533587497,4.96786305 L4.96794066,0.533509893 C5.67928718,-0.177836631 6.83254803,-0.177836631 7.54389456,0.533509893 L17.4811136,10.4707289 L23.3451956,16.334811 C24.0564387,17.046054 24.0565422,18.1993149 23.3452991,18.9106614 Z" id="Path" fill="#02DB81"></path>
                        <path d="M16.9128616,9.90806425 L9.90255455,16.9183713 L7.2230286,14.2388454 L2.75349612,9.76362211 L0.533690966,7.54381695 C-0.177655558,6.83247043 -0.177655558,5.67920958 0.533690966,4.96786305 L4.96773372,0.533820299 C5.67918371,-0.177629694 6.83275497,-0.177526225 7.54399803,0.534130705 L14.2333357,7.22843483 L16.9128616,9.90806425 Z" id="Path" fill="#2CB77C"></path>
                        <polygon id="Path" fill="#04AA83" points="17.6199684 10.615171 10.6096613 17.6254781 8.90967248 15.9226956 15.9198761 8.91238853"></polygon>
                    </g>
                    <g id="rupee-indian-copy-2" transform="translate(12.000000, 27.500000)" fill="#FFFFFF" fill-rule="nonzero">
                        <path d="M11.8795727,4.26274343 C11.7994906,4.18256776 11.6969893,4.14255013 11.5723964,4.14255013 L9.28741317,4.14255013 C9.13586102,3.40337069 8.85077637,2.76173129 8.43211239,2.218334 L11.5455308,2.218334 C11.6704513,2.218334 11.7726718,2.17826957 11.8530347,2.09828111 C11.9327891,2.01815225 11.9728535,1.91560415 11.9728535,1.79091764 L11.9728535,0.427603584 C11.9728535,0.302823466 11.9328359,0.200462582 11.8530347,0.120240106 C11.7725782,0.0402048466 11.6703577,0 11.5454372,0 L0.427556779,0 C0.302776662,0 0.200415778,0.0402048466 0.120193302,0.120193302 C0.0402048466,0.200415778 0,0.302776662 0,0.427556779 L0,2.20480758 C0,2.32060128 0.0423110376,2.42080917 0.126933113,2.50543124 C0.211555188,2.59005332 0.311763077,2.63236436 0.427556779,2.63236436 L2.36520572,2.63236436 C4.2448174,2.63236436 5.43860648,3.1355568 5.94633893,4.14231611 L0.427556779,4.14231611 C0.302776662,4.14231611 0.200275365,4.18233374 0.120193302,4.26250941 C0.0402048466,4.34277869 0,4.44509277 0,4.56987289 L0,5.93299972 C0,6.05768623 0.0400176296,6.16018753 0.120193302,6.24017598 C0.200415778,6.32044526 0.302963879,6.36036929 0.427556779,6.36036929 L6.13369633,6.36036929 C5.93768015,7.09107716 5.48105793,7.64776685 4.76382968,8.0308596 C4.04655462,8.41399915 3.10021959,8.60556893 1.92421613,8.60556893 L0.427556779,8.60556893 C0.311763077,8.60556893 0.211555188,8.64792677 0.126933113,8.73250204 C0.0422642334,8.81717092 0,8.91742561 0,9.0331257 L0,10.730388 C0,10.846369 0.0400176296,10.9443303 0.120193302,11.0244123 C1.83056083,12.8417275 4.04889483,15.3849298 6.77491448,18.6546744 C6.85518377,18.7616689 6.96648426,18.8150257 7.10904999,18.8150257 L9.71473593,18.8150257 C9.90199971,18.8150257 10.031273,18.7350841 10.1023219,18.5744051 C10.1913904,18.4140538 10.1739324,18.2625952 10.0488246,18.1200295 C7.44781912,14.9306478 5.40312886,12.5431633 3.91536232,10.9574822 C5.42985409,10.7793453 6.65926119,10.289258 7.60363045,9.48764173 C8.54785929,8.68593181 9.1223814,7.64341406 9.3274308,6.36060331 L11.5723964,6.36060331 C11.6969893,6.36060331 11.7995374,6.32063248 11.8795727,6.24041001 C11.959842,6.16042155 12,6.05792025 12,5.93323374 L12,4.57024732 C12,4.44532679 11.959842,4.34296591 11.8795727,4.26274343 Z" id="Path"></path>
                    </g>
                </g>
                <g id="unipe" transform="translate(49.524000, 9.251120)" fill-rule="nonzero">
                    <path d="M9.04347826,38.6403162 C12.5889328,38.6403162 14.8498024,36.8932806 16.2885375,34.3241107 L16.4940711,37.1501976 C16.5454545,37.8181818 16.8537549,38.0237154 17.3162055,38.0237154 L24.0474308,38.0237154 C24.5098814,38.0237154 24.9209486,37.6640316 24.9209486,37.201581 L24.9209486,13.6679842 C24.9209486,13.2055336 24.5098814,12.8458498 24.0474308,12.8458498 L17.1106719,12.8458498 C16.6482213,12.8458498 16.2885375,13.2055336 16.2885375,13.6679842 L16.2885375,26.0513834 C16.2885375,29.1857708 14.8498024,30.7272727 12.4347826,30.7272727 C9.91699605,30.7272727 8.63241107,29.1857708 8.63241107,26.0513834 L8.63241107,13.6679842 C8.63241107,13.2055336 8.27272727,12.8458498 7.81027668,12.8458498 L0.822134387,12.8458498 C0.359683794,12.8458498 0,13.2055336 0,13.6679842 L0,28.2094862 C0,34.7351779 3.85375494,38.6403162 9.04347826,38.6403162 Z" id="Path" fill="#030D4E"></path>
                    <path d="M31.0355731,38.0237154 L38.0237154,38.0237154 C38.486166,38.0237154 38.8458498,37.6640316 38.8458498,37.201581 L38.8458498,24.8181818 C38.8458498,21.6837945 40.2332016,20.1422925 42.6996047,20.1422925 C45.2173913,20.1422925 46.5019763,21.6837945 46.5019763,24.8181818 L46.5019763,37.201581 C46.5019763,37.6640316 46.8616601,38.0237154 47.3241107,38.0237154 L54.2608696,38.0237154 C54.7233202,38.0237154 55.1343874,37.6640316 55.1343874,37.201581 L55.1343874,22.6600791 C55.1343874,16.1343874 51.229249,12.229249 46.0395257,12.229249 C42.4940711,12.229249 40.284585,13.9762846 38.8458498,16.5454545 L38.5889328,13.7193676 C38.5889328,13.0513834 38.229249,12.8458498 37.8181818,12.8458498 L31.0355731,12.8458498 C30.5731225,12.8458498 30.2134387,13.2055336 30.2134387,13.6679842 L30.2134387,37.201581 C30.2134387,37.6640316 30.5731225,38.0237154 31.0355731,38.0237154 Z" id="Path" fill="#030D4E"></path>
                    <path d="M64.8458498,9.30039526 C67.5177866,9.30039526 69.5217391,7.24505929 69.5217391,4.62450593 C69.5217391,2.05533597 67.5177866,0 64.8458498,0 C62.1225296,0 60.1699605,2.05533597 60.1699605,4.62450593 C60.1699605,7.24505929 62.1225296,9.30039526 64.8458498,9.30039526 Z M60.4782609,37.201581 C60.4782609,37.6640316 60.8379447,38.0237154 61.3003953,38.0237154 L68.3913043,38.0237154 C68.8537549,38.0237154 69.2134387,37.6640316 69.2134387,37.201581 L69.2134387,13.6679842 C69.2134387,13.2055336 68.8537549,12.8458498 68.3913043,12.8458498 L61.3003953,12.8458498 C60.8379447,12.8458498 60.4782609,13.2055336 60.4782609,13.6679842 L60.4782609,37.201581 Z" id="Shape" fill="#030D4E"></path>
                    <path d="M75.43083,47.7865613 L82.4703557,47.7865613 C82.9328063,47.7865613 83.2924901,47.4268775 83.2924901,46.9644269 L83.2924901,35.8142292 C84.9881423,37.6126482 87.2490119,38.6403162 90.2806324,38.6403162 C97.2173913,38.6403162 101.996047,32.8853755 101.996047,25.4347826 C101.996047,18.0355731 97.2173913,12.229249 90.2806324,12.229249 C86.7351779,12.229249 84.3201581,13.513834 82.7272727,15.7233202 L82.6245059,13.6679842 C82.6245059,13.2055336 82.2648221,12.8458498 81.8023715,12.8458498 L75.43083,12.8458498 C74.9683794,12.8458498 74.6086957,13.2055336 74.6086957,13.6679842 L74.6086957,46.9644269 C74.6086957,47.4268775 74.9683794,47.7865613 75.43083,47.7865613 Z M83.1897233,25.3833992 C83.1897233,22.1462451 85.2964427,20.0395257 88.3280632,20.0395257 C91.3083004,20.0395257 93.56917,22.1976285 93.56917,25.4347826 C93.56917,28.7233202 91.3083004,30.8300395 88.3280632,30.8300395 C85.2964427,30.8300395 83.1897233,28.6719368 83.1897233,25.3833992 Z" id="Shape" fill="#2CB77C"></path>
                    <path d="M118.747036,38.6403162 C122.343874,38.6403162 125.581028,37.6640316 127.687747,35.5059289 C128.201581,35.0434783 128.150198,34.6324111 127.944664,34.3241107 L125.581028,31.0355731 C125.324111,30.6245059 125.067194,30.5217391 124.656126,30.7272727 C122.549407,31.8577075 120.905138,31.9090909 119.466403,31.9090909 C116.332016,31.9090909 114.12253,31.0355731 113.197628,28.7233202 L126.814229,28.7233202 C129.332016,28.7233202 130,27.027668 130,24.3043478 C130,17.8300395 125.529644,12.229249 117.822134,12.229249 C109.960474,12.229249 104.770751,17.9328063 104.770751,25.3320158 C104.770751,33.0909091 110.474308,38.6403162 118.747036,38.6403162 Z M113.043478,22.8142292 C113.711462,20.2450593 115.664032,19.2687747 117.873518,19.2687747 C119.980237,19.2687747 121.83004,20.1422925 122.343874,22.8142292 L113.043478,22.8142292 Z" id="Shape" fill="#2CB77C"></path>
                </g>
            </g>
        </g>
    </g>
</svg>