<?xml version="1.0" encoding="UTF-8"?>
<svg width="100%" height="100%" viewBox="0 0 336.94 243.254721" version="1.1" xmlns="http://www.w3.org/2000/svg" xmlns:xlink="http://www.w3.org/1999/xlink">
    <title>Group 4</title>
    <defs>
        <polygon id="path-1" points="0 0 336.94 0 336.94 0.673960875 0 0.673960875"></polygon>
    </defs>
    <g id="Page-1" stroke="none" stroke-width="1" fill="none" fill-rule="evenodd">
        <g id="5:-Congratulations" transform="translate(-12.060000, -207.510000)">
            <g id="Group-4" transform="translate(12.060000, 207.510000)">
                <g id="Group-14" opacity="0.400000006" transform="translate(119.528309, 135.778854)">
                    <polygon id="Fill-33" fill="#D8E7EF" points="147.818491 79.8475147 166.229754 79.8475147 166.229754 0 147.818491 0"></polygon>
                    <polygon id="Fill-34" fill="#D8E7EF" points="3.53559875 84.906939 162.694829 84.906939 162.694829 79.8475147 3.53559875 79.8475147"></polygon>
                    <polygon id="Fill-35" fill="#EFF5F8" points="0 79.8475147 147.818491 79.8475147 147.818491 0 0 0"></polygon>
                    <polygon id="Fill-36" fill="#D8E7EF" points="7.2383398 36.0151213 140.580151 36.0151213 140.580151 9.82769748 7.2383398 9.82769748"></polygon>
                    <polygon id="Fill-37" fill="#D8E7EF" points="7.2383398 70.0191433 140.580151 70.0191433 140.580151 43.8323934 7.2383398 43.8323934"></polygon>
                    <path d="M32.4330192,24.7168411 L115.386146,24.7168411 C116.373498,24.7168411 117.181577,23.909436 117.181577,22.9214094 C117.181577,21.9340567 116.373498,21.1259776 115.386146,21.1259776 L32.4330192,21.1259776 C31.4449926,21.1259776 30.6375874,21.9340567 30.6375874,22.9214094 C30.6375874,23.909436 31.4449926,24.7168411 32.4330192,24.7168411" id="Fill-38" fill="#EFF5F8"></path>
                    <path d="M32.4330192,58.7208631 L115.386146,58.7208631 C116.373498,58.7208631 117.181577,57.9127841 117.181577,56.9254314 C117.181577,55.9374047 116.373498,55.1293256 115.386146,55.1293256 L32.4330192,55.1293256 C31.4449926,55.1293256 30.6375874,55.9374047 30.6375874,56.9254314 C30.6375874,57.9127841 31.4449926,58.7208631 32.4330192,58.7208631" id="Fill-39" fill="#EFF5F8"></path>
                </g>
                <g id="Group-3" transform="translate(0.000000, 220.433057)">
                    <mask id="mask-2" fill="white">
                        <use xlink:href="#path-1"></use>
                    </mask>
                    <g id="Clip-2"></g>
                    <polygon id="Fill-1" fill="#C3D7E6" mask="url(#mask-2)" points="0 0.421225547 336.94 0.421225547 336.94 0.252735328 0 0.252735328"></polygon>
                </g>
                <polygon id="Fill-5" fill="#C3D7E6" points="168.831243 228.850829 243.259438 228.850829 243.259438 228.682339 168.831243 228.682339"></polygon>
                <polygon id="Fill-6" fill="#C3D7E6" points="129.697031 228.935074 136.998049 228.935074 136.998049 228.766584 129.697031 228.766584"></polygon>
                <polygon id="Fill-7" fill="#C3D7E6" points="52.5285106 226.913191 77.8404592 226.913191 77.8404592 226.744701 52.5285106 226.744701"></polygon>
                <polygon id="Fill-9" fill="#C3D7E6" points="34.7669457 226.913191 47.0242722 226.913191 47.0242722 226.744701 34.7669457 226.744701"></polygon>
                <path d="M29.5565542,0.168490219 C27.527932,0.168490219 25.8780757,1.81834644 25.8780757,3.84696868 L25.8780757,186.780843 C25.8780757,188.809465 27.527932,190.459321 29.5565542,190.459321 L159.697725,190.459321 C161.725,190.459321 163.37553,188.809465 163.37553,186.780843 L163.37553,3.84696868 C163.37553,1.81834644 161.725,0.168490219 159.697725,0.168490219 L29.5565542,0.168490219 Z M159.697725,190.627812 L29.5565542,190.627812 C27.4355993,190.627812 25.7095855,188.902472 25.7095855,186.780843 L25.7095855,3.84696868 C25.7095855,1.7260138 27.4355993,0 29.5565542,0 L159.697725,0 C161.818006,0 163.54402,1.7260138 163.54402,3.84696868 L163.54402,186.780843 C163.54402,188.902472 161.818006,190.627812 159.697725,190.627812 L159.697725,190.627812 Z" id="Fill-10" fill="#C3D7E6"></path>
                <path d="M175.33227,0.168490219 C173.304321,0.168490219 171.654465,1.81834644 171.654465,3.84696868 L171.654465,186.780843 C171.654465,188.809465 173.304321,190.459321 175.33227,190.459321 L305.473441,190.459321 C307.501389,190.459321 309.151919,188.809465 309.151919,186.780843 L309.151919,3.84696868 C309.151919,1.81834644 307.501389,0.168490219 305.473441,0.168490219 L175.33227,0.168490219 Z M305.473441,190.627812 L175.33227,190.627812 C173.211315,190.627812 171.485975,188.902472 171.485975,186.780843 L171.485975,3.84696868 C171.485975,1.7260138 173.211315,0 175.33227,0 L305.473441,0 C307.594396,0 309.320409,1.7260138 309.320409,3.84696868 L309.320409,186.780843 C309.320409,188.902472 307.594396,190.627812 305.473441,190.627812 L305.473441,190.627812 Z" id="Fill-11" fill="#C3D7E6"></path>
                <g id="Group-13" opacity="0.200000003" transform="translate(215.277257, 12.534324)">
                    <polygon id="Fill-12" fill="#C3D7E6" points="2.75178225 88.6703365 53.6863754 88.6703365 53.6863754 0 2.75178225 0"></polygon>
                    <polygon id="Fill-13" fill="#EFF5F8" points="0 88.6703365 50.9339192 88.6703365 50.9339192 0 0 0"></polygon>
                    <polygon id="Fill-14" fill="#FFFFFE" points="4.94013322 84.5086281 45.9944599 84.5086281 45.9944599 4.16103444 4.94013322 4.16103444"></polygon>
                    <polygon id="Fill-15" fill="#C3D7E6" points="4.94013322 84.5086281 7.01997648 84.5086281 7.01997648 4.16103444 4.94013322 4.16103444"></polygon>
                    <polygon id="Fill-16" fill="#EFF5F8" points="2.04344937 65.1221435 48.8904698 65.1221435 48.8904698 59.5356818 2.04344937 59.5356818"></polygon>
                </g>
                <g id="Group-12" opacity="0.200000003" transform="translate(128.724505, 12.534324)">
                    <g id="Group-11">
                        <polygon id="Fill-17" fill="#C3D7E6" points="2.75178225 88.6703365 53.6857014 88.6703365 53.6857014 0 2.75178225 0"></polygon>
                        <polygon id="Fill-18" fill="#EFF5F8" points="0 88.6703365 50.9339192 88.6703365 50.9339192 0 0 0"></polygon>
                        <polygon id="Fill-20" fill="#C3D7E6" points="4.94013322 84.5086281 7.02065044 84.5086281 7.02065044 4.16103444 4.94013322 4.16103444"></polygon>
                        <polygon id="Fill-21" fill="#EFF5F8" points="2.04277541 65.1221435 48.8904698 65.1221435 48.8904698 59.5356818 2.04277541 59.5356818"></polygon>
                    </g>
                    <polygon id="Fill-19" fill="#FFFFFE" points="4.94013322 84.5086281 45.993786 84.5086281 45.993786 4.16103444 4.94013322 4.16103444"></polygon>
                </g>
                <g id="Group-10" opacity="0.200000003" transform="translate(42.171754, 12.534324)">
                    <g id="Group-9">
                        <polygon id="Fill-22" fill="#C3D7E6" points="2.75178225 88.6703365 53.6857014 88.6703365 53.6857014 0 2.75178225 0"></polygon>
                        <g id="Group-7" transform="translate(0.000000, 0.000000)">
                            <polygon id="Fill-23" fill="#EFF5F8" points="0 88.6703365 50.9339192 88.6703365 50.9339192 0 0 0"></polygon>
                            <polygon id="Fill-24" fill="#FFFFFE" points="4.93945926 84.5086281 45.993786 84.5086281 45.993786 4.16103444 4.93945926 4.16103444"></polygon>
                            <polygon id="Fill-26" fill="#EFF5F8" points="2.04277541 65.1221435 48.8904698 65.1221435 48.8904698 59.5356818 2.04277541 59.5356818"></polygon>
                        </g>
                    </g>
                    <polygon id="Fill-25" fill="#C3D7E6" points="4.93945926 84.5086281 7.01997648 84.5086281 7.01997648 4.16103444 4.93945926 4.16103444"></polygon>
                </g>
                <g id="Group-17" opacity="0.300000012" transform="translate(46.694937, 120.471854)">
                    <path d="M37.6333013,35.5938957 C28.4499104,36.8602682 22.7663984,16.9015908 43.0512728,0 C41.9554124,19.5650842 53.6432419,33.3866738 37.6333013,35.5938957" id="Fill-27" fill="#C3D7E6"></path>
                    <path d="M30.8903228,61.738186 C17.5748777,52.4058497 26.6881767,19.7915351 67.8995363,22.1551159 C50.0685534,46.1609283 54.1042311,78.0076015 30.8903228,61.738186" id="Fill-28" fill="#BBD1E3"></path>
                    <path d="M35.588504,61.5184747 C44.4403062,51.9852982 31.8419555,27.9997046 0,36.7585001 C17.9745365,52.5480555 20.1568219,78.137676 35.588504,61.5184747" id="Fill-29" fill="#BBD1E3"></path>
                    <path d="M24.237655,47.6173577 C21.1771986,43.891028 17.5587027,39.6976435 18.4382216,35.2676986 C19.345373,30.7959682 21.5060915,27.5339976 19.7632287,22.8142496 C17.6752979,17.157022 18.0803484,10.4012382 21.6105555,10.9660174 C25.1340229,11.5334925 29.0989348,15.6702643 28.9931229,21.1549579 C28.9284227,26.4637477 32.3972993,28.1594333 35.6612918,30.9860252 C38.9145009,33.7876806 40.187613,37.9325399 40.7712632,42.0086553 C41.8010754,48.4375681 50.1217963,47.2183729 52.3344099,52.8048346 C54.6130716,58.1884341 50.0604659,65.3708351 42.7756228,67.0213653 C35.4631473,68.6772872 30.301281,69.7003598 25.3348633,64.0195435 C20.2821786,57.9774843 28.7633022,52.9584977 24.237655,47.6173577" id="Fill-30" fill="#EFF5F8"></path>
                    <polyline id="Fill-31" fill="#D8E7EF" points="49.2975422 100.213938 21.9320348 100.213938 19.8663447 62.9317707 51.3625583 62.9317707 49.2975422 100.213938"></polyline>
                    <polygon id="Fill-32" fill="#D8E7EF" points="17.8269391 66.1849798 53.4019639 66.1849798 53.4019639 62.168847 17.8269391 62.168847"></polygon>
                </g>
                <g id="Group-15" opacity="0.300000012" transform="translate(225.020035, 114.063573)">
                    <path d="M1.51641197,10.0645195 C1.51641197,10.0645195 22.6161051,30.0528511 35.1362763,9.98094835 C35.1362763,9.98094835 31.8069095,3.53316466 28.2948994,2.97916882 C24.7828893,2.42517298 24.6400096,8.56091279 21.5391156,6.66843065 C18.4382216,4.77594851 14.8466841,-1.70014154 12.8800663,1.75795171 C10.9134485,5.21604496 8.21086534,0.28669512 5.2643084,0.00565343536 C2.31775145,-0.276062211 1.51641197,10.0645195 1.51641197,10.0645195" id="Fill-40" fill="#EFF5F8"></path>
                    <path d="M36.4788063,8.68559555 C36.4788063,8.68559555 36.0151213,21.7152812 18.2394032,21.7152812 C0.463685082,21.7152812 0,8.68559555 0,8.68559555 L36.4788063,8.68559555" id="Fill-41" fill="#D8E7EF"></path>
                </g>
                <g id="Group-16" opacity="0.300000012" transform="translate(151.732856, 115.952947)">
                    <path d="M19.8252331,0 L30.0633728,0 L30.0633728,19.8259071 L0,19.8259071 C0,8.87673869 8.87606473,0 19.8252331,0" id="Fill-42" fill="#EFF5F8"></path>
                    <polygon id="Fill-43" fill="#C3D7E6" points="30.0633728 19.8259071 39.5055646 19.8259071 39.5055646 0 30.0633728 0"></polygon>
                </g>
                <path d="M146.899882,96.2476786 C146.717239,96.5246766 146.603339,96.6864272 146.459112,96.8852456 C146.321624,97.0793464 146.184136,97.2599679 146.045974,97.4405894 C145.768302,97.8038543 145.479847,98.1421827 145.190717,98.4832069 C144.606393,99.1551459 144.010612,99.8095619 143.381132,100.425562 C142.122174,101.658911 140.767512,102.780381 139.355564,103.822325 C137.934855,104.853485 136.428552,105.762658 134.873724,106.573433 C134.08519,106.958939 133.300026,107.351184 132.485207,107.674685 L131.26399,108.160611 L130.924988,108.291359 C130.734931,108.354038 130.556331,108.421434 130.352121,108.465241 C129.955832,108.559596 129.53191,108.620252 129.105967,108.610143 C128.248015,108.607447 127.434544,108.362799 126.804391,108.031885 C126.164802,107.700296 125.667419,107.304007 125.248889,106.907044 C124.419243,106.105704 123.854464,105.287516 123.366516,104.480785 C122.416232,102.857887 121.767207,101.25049 121.215233,99.6316362 C120.13757,96.3871885 119.409018,93.1791348 118.956116,89.8477462 L121.772599,89.2283761 C122.281439,90.7050244 122.805781,92.2308718 123.390779,93.6960628 C123.948145,95.1747329 124.550666,96.6298145 125.220583,98.0168259 C125.88713,99.3977718 126.598833,100.751085 127.406912,101.854359 C127.799157,102.405659 128.229144,102.885519 128.600496,103.175322 C128.78314,103.31955 128.946912,103.405817 129.035875,103.43008 C129.130904,103.458386 129.121468,103.429406 129.076313,103.413905 C129.05542,103.413231 129.034527,103.403121 129.030484,103.399751 C129.025092,103.404469 129.033179,103.386272 129.035875,103.388294 L129.255586,103.282482 L130.262484,102.794535 C130.933075,102.471033 131.574686,102.086876 132.22708,101.732372 C133.506932,100.97147 134.731519,100.12565 135.918364,99.2306295 C137.089708,98.3147166 138.199047,97.3199504 139.237621,96.2672235 C139.768702,95.7516434 140.264737,95.2064091 140.745945,94.657131 C140.981832,94.3821549 141.217718,94.1017872 141.436081,93.8241153 L141.761604,93.4143471 L142.025797,93.0625395 L146.899882,96.2476786" id="Fill-45" fill="#E08C76"></path>
                <polyline id="Fill-46" fill="#377476" points="138.720693 95.9592234 142.137675 104.150544 139.666934 105.698632 135.825357 98.2594519 138.720693 95.9592234"></polyline>
                <path d="M148.392032,89.0558421 C142.818375,88.9783366 137.159126,96.0387508 137.014898,96.2126327 L141.42732,106.576129 C141.42732,106.576129 151.232103,98.6159772 151.72342,95.5049738 C152.234956,92.2652438 151.925608,89.1043673 148.392032,89.0558421" id="Fill-47" fill="#31D28E"></path>
                <path d="M121.293413,88.1662138 L117.434987,85.1677619 L116.65791,91.0682893 C116.65791,91.0682893 120.403784,92.5388719 122.400056,91.2657599 L122.34614,90.1887704 C122.306376,89.3934965 121.921544,88.6548354 121.293413,88.1662138" id="Fill-48" fill="#E08C76"></path>
                <polyline id="Fill-49" fill="#E08C76" points="112.284578 84.8671753 112.524508 89.3550808 116.65791 91.0682893 117.434987 85.1677619 112.284578 84.8671753"></polyline>
                <path d="M196.723788,87.6897234 L202.680928,86.198922 L198.517198,81.9469028 C198.517198,81.9469028 194.652706,83.5199275 195.593555,86.8910798 L196.723788,87.6897234" id="Fill-50" fill="#E08C76"></path>
                <polyline id="Fill-51" fill="#E08C76" points="205.673314 85.1381076 205.180649 80.4614931 198.517198 81.9469028 202.680928 86.198922 205.673314 85.1381076"></polyline>
                <polyline id="Fill-52" fill="#E08C76" points="177.322476 237.580644 171.777126 238.118465 167.151733 225.025427 172.698431 224.487606 177.322476 237.580644"></polyline>
                <polyline id="Fill-53" fill="#E08C76" points="236.703821 210.065517 232.615574 214.029755 222.121329 205.835739 226.209576 201.871501 236.703821 210.065517"></polyline>
                <path d="M231.438165,213.262114 L234.578148,207.687783 C234.692722,207.484921 234.926586,207.400002 235.140232,207.482899 L239.908505,209.332248 C240.403192,209.523653 240.614142,210.16122 240.34321,210.624231 C239.214325,212.549737 238.572714,213.421842 237.191769,215.873038 C236.341904,217.381363 234.684634,220.841478 233.511942,222.924017 C232.364187,224.961401 230.216274,223.957873 230.518882,222.985347 C231.872195,218.626168 231.639005,216.19317 231.276414,214.26362 C231.21104,213.915182 231.271022,213.55933 231.438165,213.262114" id="Fill-54" fill="#31D28E"></path>
                <path d="M170.676548,236.419409 L177.431658,236.419409 C177.677653,236.419409 177.899387,236.589248 177.965435,236.829852 L179.434669,242.175035 C179.586311,242.729031 179.178564,243.254047 178.610415,243.244611 C176.24953,243.2035 175.096383,243.065338 172.125564,243.065338 C170.297782,243.065338 164.344685,243.254721 161.820702,243.254721 C159.351309,243.254721 158.835055,240.759043 159.85678,240.533267 C164.437018,239.519629 168.306228,238.121835 169.719523,236.788066 C169.974281,236.548136 170.316653,236.419409 170.676548,236.419409" id="Fill-55" fill="#31D28E"></path>
                <polyline id="Fill-56" fill="#A86253" points="167.154428 225.028797 169.53688 231.777841 175.275657 231.777841 172.703148 224.490976 167.154428 225.028797"></polyline>
                <polyline id="Fill-57" fill="#A86253" points="226.212946 201.872849 222.123351 205.838435 227.534583 210.060126 231.624852 206.093866 226.212946 201.872849"></polyline>
                <path d="M142.965973,90.8573396 C142.965973,90.8573396 140.677201,92.6002024 156.113601,122.730971 C164.848134,119.911119 173.874492,116.997586 178.12449,115.626076 C174.863867,106.787079 173.069783,101.266665 171.417231,81.5000668 C171.417231,81.5000668 166.481815,81.9853186 161.673105,83.2853891 C155.16399,85.0457749 152.054335,86.3519111 151.678939,86.5123138 C147.512513,88.2895486 142.965973,90.8573396 142.965973,90.8573396" id="Fill-58" fill="#31D28E"></path>
                <path d="M157.050407,72.3510479 C157.457479,75.7707254 158.730591,81.8660275 161.673105,83.2853891 C161.673105,83.2853891 161.846986,86.8310973 155.871649,88.7606473 C149.301205,90.8809282 151.678939,86.5123138 151.678939,86.5123138 C154.988087,84.4985187 154.037128,81.8673754 152.605635,79.5705168 L157.050407,72.3510479" id="Fill-59" fill="#E08C76"></path>
                <path d="M146.007558,89.2223105 C147.632478,88.3791854 149.700864,87.3567868 151.678939,86.5102919 C154.840489,85.1590004 157.916447,84.3010482 161.675126,83.2833672 C163.598611,82.7603736 165.539618,82.3667805 167.177343,82.0951742 C167.330332,82.5514457 166.863277,83.7376169 165.724957,85.3733199 C162.121289,88.3710979 154.432743,92.2571563 148.76271,92.1142766 C146.314884,91.193646 145.69821,90.2177507 146.007558,89.2223105" id="Fill-60" fill="#E08C76"></path>
                <path d="M165.724957,85.3733199 C164.164738,87.6155878 161.33545,90.7077202 157.044341,93.9717128 C153.134694,93.3887366 150.494116,92.7653228 148.76271,92.1142766 C154.432743,92.2571563 162.121289,88.3710979 165.724957,85.3733199" id="Fill-61" fill="#377476"></path>
                <path d="M155.2388,75.2962569 L152.607657,79.566473 C152.948681,80.1096855 153.258703,80.6717689 153.488524,81.2412658 C154.79466,80.601003 156.462713,78.7071729 156.145277,77.2258069 C155.986897,76.4871458 155.463229,75.5914518 155.2388,75.2962569" id="Fill-62" fill="#A86253"></path>
                <path d="M158.386871,66.0239032 C158.727222,71.6656297 158.991414,74.0460595 156.513934,77.2655706 C152.787604,82.1086534 145.783803,81.2924868 143.76529,75.8657539 C141.948292,70.9808854 141.697578,62.5759194 146.906622,59.6778876 C152.038834,56.8229893 158.047195,60.3821767 158.386871,66.0239032" id="Fill-63" fill="#E08C76"></path>
                <path d="M169.779506,53.6034782 C169.779506,59.3523645 165.119067,64.01213 159.370854,64.01213 C153.621968,64.01213 148.961529,59.3523645 148.961529,53.6034782 C148.961529,47.854592 153.621968,43.1941525 159.370854,43.1941525 C165.119067,43.1941525 169.779506,47.854592 169.779506,53.6034782" id="Fill-64" fill="#151F35"></path>
                <path d="M156.781497,58.1284515 C158.927388,59.5424215 159.993594,61.7105536 159.163274,62.9715344 C158.332281,64.2325152 155.919501,64.1091803 153.773609,62.6952104 C151.627044,61.2812405 150.560838,59.1131084 151.391831,57.8521276 C152.222151,56.5911468 154.635605,56.7144816 156.781497,58.1284515" id="Fill-65" fill="#91B4D4"></path>
                <path d="M155.658678,69.8722198 C156.220087,68.5809107 154.266949,64.7379858 154.689522,63.2997533 C153.566703,62.2611796 142.228659,65.9544852 143.141876,63.25325 C144.016004,60.669958 146.781265,57.2341055 153.088865,58.67099 C159.854084,60.2109906 160.418189,66.0387303 159.659983,67.8988623 C158.901777,69.7589944 157.834897,71.695284 157.834897,71.695284 L155.658678,69.8722198" id="Fill-66" fill="#151F35"></path>
                <path d="M159.873629,70.9701021 C159.900587,72.14212 159.384333,73.2164136 158.707677,73.9018319 C157.69067,74.932992 156.465409,74.1963528 156.148647,72.8612363 C155.862214,71.659564 156.047553,69.6747492 157.357059,69.144342 C158.64702,68.6213484 159.842627,69.6309418 159.873629,70.9701021" id="Fill-67" fill="#E08C76"></path>
                <path d="M156.113601,122.730971 C156.113601,122.730971 145.911182,172.496916 151.600759,188.909211 C157.51881,205.98064 167.151733,229.814593 167.151733,229.814593 L176.146414,229.298339 C176.146414,229.298339 168.714648,199.184419 166.905737,185.58591 C164.412756,166.837667 175.113232,116.597927 175.113232,116.597927 L156.113601,122.730971" id="Fill-68" fill="#B5D6F4"></path>
                <polyline id="Fill-69" fill="#2B5B5D" points="176.857443 229.515354 166.441378 230.112484 164.771303 226.019519 176.25627 224.825934 176.857443 229.515354"></polyline>
                <path d="M166.906411,126.563787 C165.342822,132.346371 166.650306,141.013508 169.602254,147.092635 C170.323392,142.368169 171.091708,137.80478 171.819586,133.714512 C170.303174,130.80974 168.631751,128.181293 166.906411,126.563787" id="Fill-70" fill="#6FA0C9"></path>
                <path d="M161.926514,120.854664 C161.926514,120.854664 177.078502,157.036254 187.109062,176.946406 C195.210072,193.027786 225.212788,209.855915 225.212788,209.855915 L230.585604,204.142075 C230.585604,204.142075 208.158208,184.225183 202.565681,173.320496 C184.665954,138.416063 188.34578,123.17309 178.12449,115.626076 L161.926514,120.854664" id="Fill-71" fill="#B5D6F4"></path>
                <polyline id="Fill-72" fill="#2B5B5D" points="231.603959 203.325909 224.194433 211.204511 219.502317 208.735119 228.03938 200.029566 231.603959 203.325909"></polyline>
                <path d="M178.037549,114.227607 L179.665838,115.878137 C179.791869,116.005516 179.661794,116.219835 179.407037,116.302058 L156.323877,123.75337 C156.125059,123.817396 155.92961,123.772915 155.877041,123.652276 L155.042004,121.746314 C154.984717,121.614218 155.119509,121.443032 155.336524,121.37294 L177.625085,114.178408 C177.788857,114.125165 177.955325,114.145384 178.037549,114.227607" id="Fill-73" fill="#183049"></path>
                <path d="M175.848524,117.686374 L176.444979,117.493621 C176.56427,117.455206 176.635036,117.364895 176.602686,117.292781 L175.496042,114.823388 C175.463692,114.751274 175.340357,114.722968 175.221066,114.761384 L174.623937,114.954137 C174.50532,114.992552 174.434554,115.082863 174.466904,115.155651 L175.572874,117.625044 C175.605224,117.697157 175.729233,117.72479 175.848524,117.686374" id="Fill-74" fill="#91B4D4"></path>
                <path d="M158.07011,123.425151 L158.667239,123.232398 C158.78653,123.193982 158.857296,123.103672 158.824272,123.030884 L157.718302,120.561491 C157.685952,120.489377 157.562617,120.461745 157.443326,120.500161 L156.846197,120.692914 C156.72758,120.731329 156.656814,120.82164 156.689164,120.893754 L157.795134,123.36382 C157.827484,123.43526 157.951493,123.462893 158.07011,123.425151" id="Fill-75" fill="#91B4D4"></path>
                <path d="M166.959654,120.555426 L167.556109,120.362673 C167.6754,120.324931 167.746166,120.233946 167.713816,120.161832 L166.607172,117.69244 C166.574822,117.620326 166.451487,117.592694 166.332196,117.631109 L165.735741,117.823188 C165.61645,117.861604 165.545684,117.952589 165.578034,118.024702 L166.684004,120.494095 C166.716354,120.566209 166.840363,120.593841 166.959654,120.555426" id="Fill-76" fill="#91B4D4"></path>
                <path d="M150.084347,68.6260661 C150.140286,69.0823376 149.944163,69.4813225 149.645599,69.5177164 C149.347708,69.5541103 149.060601,69.21376 149.005336,68.7581625 C148.949397,68.3018909 149.146194,67.9029061 149.444084,67.8665122 C149.741975,67.8301183 150.028409,68.1697946 150.084347,68.6260661" id="Fill-77" fill="#151F35"></path>
                <path d="M144.931242,69.2555456 C144.986507,69.7111431 144.790385,70.110128 144.49182,70.1471958 C144.193929,70.1829157 143.906822,69.8432395 143.851557,69.386968 C143.795618,68.9313704 143.992415,68.5323856 144.290306,68.4953177 C144.588196,68.4595978 144.875304,68.7992741 144.931242,69.2555456" id="Fill-78" fill="#151F35"></path>
                <path d="M144.425098,68.5047532 L143.291496,68.3227837 C143.291496,68.3227837 143.958043,69.10997 144.425098,68.5047532" id="Fill-79" fill="#151F35"></path>
                <path d="M146.388346,69.8722198 C146.388346,69.8722198 145.854569,71.9298223 145.118604,72.9812013 C145.788521,73.469149 146.781265,73.0876871 146.781265,73.0876871 L146.388346,69.8722198" id="Fill-80" fill="#A74F42"></path>
                <path d="M148.588154,74.6883442 C148.521432,74.6883442 148.463471,74.6377971 148.45471,74.5697271 C148.445948,74.4955914 148.498517,74.4288693 148.571979,74.4194338 C150.567577,74.1761339 151.337241,72.6630918 151.345328,72.6482646 C151.378352,72.5808685 151.459228,72.5525622 151.52595,72.5869342 C151.592672,72.6199583 151.620304,72.7001596 151.58728,72.7668817 C151.554256,72.8342778 150.750221,74.4254995 148.605003,74.6869963 C148.599612,74.6876702 148.59422,74.6883442 148.588154,74.6883442" id="Fill-81" fill="#151F35"></path>
                <path d="M150.723262,67.0078861 C150.660584,67.0078861 150.597906,66.9863193 150.546684,66.9425119 C149.644925,66.1640871 148.706097,66.4121047 148.667008,66.4242359 C148.524128,66.4639996 148.375183,66.3811025 148.334071,66.2375488 C148.293633,66.0946691 148.375857,65.9463977 148.518062,65.9052861 C148.569957,65.8911329 149.769608,65.5595441 150.899166,66.5334176 C151.011717,66.6311419 151.024523,66.801654 150.927472,66.9142055 C150.873556,66.9762099 150.798746,67.0078861 150.723262,67.0078861" id="Fill-82" fill="#151F35"></path>
                <path d="M142.267749,67.1682888 C142.227311,67.1682888 142.1862,67.1595273 142.14711,67.1393084 C142.013666,67.0725863 141.960423,66.9101617 142.027145,66.7773914 C142.697736,65.4442968 143.93378,65.2913077 143.986349,65.2852421 C144.133947,65.2717629 144.267391,65.3755528 144.28424,65.5231503 C144.300415,65.6707477 144.194603,65.8041919 144.04768,65.821041 C144.006568,65.8257587 143.044152,65.9558331 142.509027,67.0193434 C142.46185,67.1143719 142.366821,67.1682888 142.267749,67.1682888" id="Fill-83" fill="#151F35"></path>
                <path d="M175.846502,86.7637012 L176.099911,87.0858545 L176.415999,87.4693382 C176.630992,87.7274653 176.857443,87.9916579 177.088612,88.249111 C177.557014,88.764691 178.041592,89.2755534 178.557172,89.7621531 C179.568788,90.7515277 180.642407,91.693725 181.773314,92.5678523 C182.919047,93.4217607 184.094435,94.243319 185.322392,94.9873718 C185.939066,95.3533326 186.567197,95.7051401 187.197351,96.0529039 L188.160441,96.5428735 L188.630866,96.7807817 C188.744091,96.8313288 188.859338,96.8892894 188.966498,96.9270312 C189.409964,97.1049569 189.758402,97.1528081 190.052249,97.1487643 C190.344074,97.137981 190.636573,97.0483442 190.99512,96.7996526 C191.720976,96.3137268 192.485922,95.2306717 193.076986,94.019564 C193.688942,92.8010427 194.17689,91.4275105 194.577222,90.0155624 C195.001818,88.6157457 195.333407,87.1188786 195.611078,85.7022128 L198.489565,85.8841823 C198.519894,89.179177 198.182239,92.3555546 197.087727,95.6687462 C196.808707,96.4970442 196.444094,97.3199504 195.973669,98.1462264 C195.499875,98.9657629 194.904093,99.8041702 194.056925,100.542831 C193.224583,101.280144 192.079523,101.906254 190.83337,102.12327 C189.592608,102.352416 188.360607,102.201449 187.338883,101.880644 C187.075364,101.80516 186.832738,101.712827 186.586742,101.620495 L185.999722,101.377195 L184.851967,100.895313 C184.095109,100.554963 183.34499,100.19372 182.609025,99.8061921 C181.137769,99.0277673 179.715711,98.1522921 178.357006,97.1811145 C177.007736,96.1964576 175.7016,95.1464266 174.481731,93.9858659 C173.871796,93.4062596 173.289494,92.7929552 172.718649,92.159432 C172.433564,91.8393006 172.152522,91.5178212 171.878894,91.1754491 L171.471148,90.6490857 C171.328268,90.4597026 171.216391,90.3080614 171.031725,90.0391511 L175.846502,86.7637012" id="Fill-84" fill="#E08C76"></path>
                <polyline id="Fill-85" fill="#377476" points="180.639038 90.315475 176.425434 97.3994778 174.364462 95.4544267 178.259956 88.3643583 180.639038 90.315475"></polyline>
                <path d="M171.417231,81.5000668 C173.838772,81.4589552 179.72919,88.4162533 179.72919,88.4162533 L174.611805,97.3327557 C174.611805,97.3327557 168.087864,91.5818475 168.094599,88.4324283 C168.101343,85.1522608 168.653991,81.547244 171.417231,81.5000668" id="Fill-86" fill="#31D28E"></path>
                <path d="M231.553412,214.276425 C230.835644,214.681475 229.927144,215.313651 229.892772,215.695786 C229.888729,215.743638 229.895468,215.807664 229.987127,215.877082 C230.155617,216.006482 230.313324,216.044224 230.472379,215.992329 C230.843057,215.869668 231.238672,215.237493 231.553412,214.276425 Z M230.333543,216.285502 C230.162357,216.285502 229.991171,216.220802 229.82268,216.091401 C229.640037,215.951892 229.613752,215.786097 229.624536,215.671524 C229.688562,214.947016 231.509604,213.987296 231.717184,213.88081 C231.765036,213.857221 231.822996,213.862613 231.864782,213.896985 C231.905893,213.930683 231.92409,213.985948 231.908589,214.038517 C231.698987,214.766394 231.244064,216.021984 230.556624,216.248434 C230.482488,216.273371 230.408352,216.285502 230.333543,216.285502 L230.333543,216.285502 Z" id="Fill-87" fill="#31D28E"></path>
                <path d="M229.944667,213.534394 C229.839529,213.534394 229.742479,213.547873 229.658234,213.576853 C229.525464,213.622683 229.435153,213.706928 229.382584,213.833633 C229.31721,213.994035 229.365061,214.064127 229.41426,214.105913 C229.716195,214.366736 230.836991,214.256206 231.47995,213.996731 C231.077596,213.799261 230.423853,213.534394 229.944667,213.534394 Z M230.080807,214.522421 C229.726978,214.522421 229.41426,214.461764 229.238356,214.310797 C229.144002,214.229248 229.003818,214.044582 229.133892,213.730517 C229.216116,213.531698 229.363039,213.393536 229.569945,213.321422 C230.352414,213.054534 231.785254,213.84846 231.844563,213.882832 C231.887023,213.90642 231.913307,213.950902 231.913994,213.998753 C231.914655,214.046604 231.889718,214.09176 231.848607,214.116696 C231.503539,214.323602 230.723766,214.522421 230.080807,214.522421 L230.080807,214.522421 Z" id="Fill-88" fill="#31D28E"></path>
                <path d="M166.603802,236.368188 C166.487881,236.368188 166.396896,236.386385 166.338262,236.425475 C166.310629,236.44502 166.282323,236.475348 166.287041,236.554202 C166.297824,236.744259 166.37533,236.891856 166.523601,237.003733 C167.054008,237.404066 168.323077,237.252425 169.06039,237.118981 C168.23007,236.757738 167.144993,236.368188 166.603802,236.368188 Z M167.680118,237.534141 C167.157798,237.534141 166.671198,237.453939 166.360502,237.218727 C166.148205,237.058324 166.033631,236.839961 166.01813,236.569703 C166.006673,236.368188 166.103723,236.259007 166.187295,236.202394 C166.801273,235.78656 169.100827,236.833221 169.555751,237.046193 C169.607646,237.070456 169.638648,237.125046 169.632583,237.183007 C169.625843,237.240294 169.584057,237.287471 169.527445,237.299602 C169.037475,237.40811 168.331164,237.534141 167.680118,237.534141 L167.680118,237.534141 Z" id="Fill-89" fill="#31D28E"></path>
                <path d="M167.81828,235.016897 C167.788626,235.016897 167.758297,235.018245 167.727295,235.021615 C167.585763,235.039138 167.509606,235.080923 167.500844,235.146971 C167.450971,235.516976 168.513133,236.490849 169.289536,236.917466 C169.112285,236.328425 168.627033,235.016897 167.81828,235.016897 Z M169.498464,237.302972 C169.480941,237.302972 169.463418,237.299602 169.446569,237.292863 C168.68432,236.981493 167.147015,235.74747 167.233282,235.110577 C167.252153,234.971067 167.347855,234.795838 167.694945,234.754726 C169.035453,234.579496 169.606298,237.034736 169.629887,237.137852 C169.641344,237.187051 169.623821,237.238272 169.586079,237.270622 C169.560469,237.291515 169.53014,237.302972 169.498464,237.302972 L169.498464,237.302972 Z" id="Fill-90" fill="#31D28E"></path>
                <path d="M149.578877,67.8752737 L148.445274,67.6933043 C148.445274,67.6933043 149.111148,68.4804906 149.578877,67.8752737" id="Fill-91" fill="#151F35"></path>
                <path d="M107.41858,20.774844 C106.220952,22.272385 99.6498331,24.0320969 94.4266364,23.5454971 C92.6291827,35.3512698 98.9192596,48.9504523 98.9192596,48.9504523 C98.9192596,48.9504523 112.566967,47.3214889 112.903948,41.7053729 C113.240928,36.088583 107.41858,20.774844 107.41858,20.774844" id="Fill-92" fill="#9CE787"></path>
                <path d="M210.726673,11.7949893 C211.94789,13.5102197 218.149004,15.2173626 222.932778,14.3257124 C225.501917,28.3056828 220.745101,44.908035 220.745101,44.908035 C220.745101,44.908035 208.022068,43.7784766 207.277341,37.0968285 C206.533962,30.4151803 210.726673,11.7949893 210.726673,11.7949893" id="Fill-93" fill="#9CE787"></path>
                <path d="M121.279933,132.84982 L121.279933,132.84982 C120.870165,132.907106 120.491399,132.622021 120.433439,132.212253 L104.390474,18.673434 C104.332513,18.2643397 104.617599,17.8855737 105.027367,17.8276131 C105.436461,17.7696524 105.815227,18.0547379 105.873188,18.4638321 L121.916826,132.002651 C121.974787,132.412419 121.689702,132.791859 121.279933,132.84982" id="Fill-94" fill="#6A7A86"></path>
                <path d="M197.547368,124.409808 L197.547368,124.409808 C197.956462,124.467094 198.335228,124.182009 198.393189,123.772915 L214.436154,10.2340959 C214.494114,9.82432768 214.209029,9.44556167 213.799935,9.38760103 C213.390166,9.3296404 213.0114,9.61472585 212.95344,10.0244941 L196.910475,123.563313 C196.852514,123.972407 197.136926,124.351847 197.547368,124.409808" id="Fill-95" fill="#748089"></path>
                <path d="M103.786605,21.0747566 L106.813363,43.3653386 C106.894913,43.9651637 107.489346,44.3520173 108.071648,44.1855489 C114.850347,42.2445416 152.530825,32.5637676 210.46248,38.7257919 C210.975364,38.7803827 211.445789,38.4393585 211.543514,37.9332139 C212.636004,32.2854218 214.517703,16.1999976 214.992171,12.0834445 C215.054176,11.5429279 214.670018,11.0543063 214.130175,10.9862362 C206.350645,10.0009054 153.262747,4.1152051 104.465284,19.9917014 C104.007664,20.1399728 103.721905,20.5982662 103.786605,21.0747566" id="Fill-96" fill="#2CB77C"></path>
                <polyline id="Fill-97" fill="#FFFFFF" points="113.506469 24.9379003 116.702391 24.2895499 118.964204 30.1610971 119.536397 23.7153353 122.721536 23.0696808 125.519147 28.8239587 125.561607 22.4934442 128.74068 21.8498116 128.324847 33.2404243 125.025134 33.9096675 121.865605 27.4308816 121.213211 34.6827006 117.913499 35.3512698 113.506469 24.9379003"></polyline>
                <polyline id="Fill-98" fill="#FFFFFF" points="130.305618 21.6779516 139.398698 20.343509 139.69524 22.6936106 134.002293 23.5293221 134.223352 25.2789245 139.50451 24.5038695 139.787573 26.7495071 134.50709 27.5238882 134.781392 29.6940422 140.638112 28.8347421 140.952851 31.3277234 131.695325 32.6864285 130.305618 21.6779516"></polyline>
                <polyline id="Fill-99" fill="#FFFFFF" points="141.710383 20.0658371 145.116582 19.6985285 145.846481 28.0360985 151.164707 27.4632317 151.402615 30.1867076 142.678191 31.1282309 141.710383 20.0658371"></polyline>
                <path d="M159.730749,25.0106881 L162.770313,25.7048678 C162.612606,26.562146 162.332238,27.2886758 161.92921,27.8851312 C161.525507,28.4809126 161.011275,28.9459456 160.385165,29.2795563 C159.759056,29.6131669 158.950977,29.8153552 157.960928,29.8854471 C156.759256,29.9717141 155.768533,29.8665762 154.989435,29.5700334 C154.209662,29.2748385 153.520874,28.7046676 152.922397,27.8615426 C152.323919,27.0184175 151.989635,25.908404 151.918869,24.5315019 C151.824514,22.6963064 152.237652,21.2506604 153.159631,20.1945637 C154.081609,19.1398149 155.432227,18.5480772 157.212158,18.4213726 C158.604561,18.3209524 159.713226,18.5251626 160.539502,19.034003 C161.36443,19.5421695 162.001997,20.3677716 162.448834,21.5108093 L159.467905,22.3997637 C159.34457,22.0701968 159.221235,21.8309407 159.0979,21.6819953 C158.893016,21.4333038 158.649042,21.2479645 158.365305,21.1266516 C158.081567,21.0053386 157.768849,20.9561395 157.427151,20.981076 C156.65277,21.0363408 156.07586,21.3915182 155.695746,22.0459342 C155.407964,22.5325339 155.289347,23.2711951 155.340568,24.2646134 C155.403921,25.494592 155.633067,26.3242378 156.028682,26.7535509 C156.424297,27.1835379 156.958074,27.3735949 157.632709,27.3257437 C158.285103,27.2792404 158.769681,27.0595291 159.085769,26.6672839 C159.401182,26.2750387 159.615502,25.7230647 159.730749,25.0106881" id="Fill-100" fill="#FFFFFF"></path>
                <path d="M167.43547,23.6283943 C167.450297,24.7505392 167.667987,25.5505307 168.089886,26.027695 C168.511786,26.5041854 169.079261,26.7313102 169.794333,26.7077216 C170.52895,26.6841329 171.094404,26.425332 171.491367,25.9319926 C171.887656,25.4379793 172.077713,24.5699177 172.061538,23.3257859 C172.048058,22.2791247 171.827673,21.5209187 171.40173,21.0511679 C170.975113,20.5820912 170.401572,20.3596841 169.682456,20.3832727 C168.99232,20.4048395 168.442368,20.6683582 168.030578,21.1731549 C167.619461,21.6772776 167.420643,22.4954661 167.43547,23.6283943 Z M164.015793,23.7247707 C163.992204,21.9084462 164.476782,20.4789752 165.470874,19.4350098 C166.464292,18.3910444 167.859391,17.8397444 169.656171,17.7804358 C171.498106,17.7211273 172.924207,18.1713331 173.933127,19.1324013 C174.94272,20.0934695 175.458974,21.4690237 175.482563,23.2590638 C175.498738,24.5598083 175.294528,25.63208 174.869259,26.4779009 C174.445337,27.3237218 173.824619,27.991617 173.008453,28.4815866 C172.190938,28.9702082 171.167865,29.2357488 169.940583,29.2755125 C168.692407,29.3166241 167.656529,29.1508297 166.833623,28.7774554 C166.010717,28.4047551 165.339452,27.7948205 164.819828,26.9463037 C164.300204,26.097787 164.032642,25.0241673 164.015793,23.7247707 L164.015793,23.7247707 Z" id="Fill-101" fill="#FFFFFF"></path>
                <polyline id="Fill-102" fill="#FFFFFF" points="177.555667 17.7494336 182.052334 17.7851535 183.601096 24.5685697 185.507731 17.8134599 190.001702 17.8491798 189.697072 28.974252 186.897438 28.9520113 187.128607 20.4675178 184.739416 28.9344883 182.205323 28.9149434 180.28386 20.412927 180.052018 28.8974205 177.252384 28.8751797 177.555667 17.7494336"></polyline>
                <polyline id="Fill-103" fill="#FFFFFF" points="192.469073 17.9475781 201.61607 18.3546505 201.465777 20.7276667 195.739131 20.4729095 195.627253 22.239361 200.939413 22.4759212 200.795185 24.7424517 195.4837 24.5065653 195.344864 26.6976122 201.23663 26.9604569 201.077575 29.4770268 191.764784 29.0625409 192.469073 17.9475781"></polyline>
                <polygon id="Fill-8" fill="#C3D7E6" points="263.253836 225.190547 278.070192 225.190547 278.070192 225.022057 263.253836 225.022057"></polygon>
                <polygon id="Fill-4" fill="#C3D7E6" points="284.595481 225.190547 300.267767 225.190547 300.267767 225.022057 284.595481 225.022057"></polygon>
            </g>
        </g>
    </g>
</svg>